<?xml version="1.0" encoding="UTF-8" ?>
<!DOCTYPE svg PUBLIC "-//W3C//DTD SVG 1.1//EN" "http://www.w3.org/Graphics/SVG/1.1/DTD/svg11.dtd">
<svg width="270pt" height="170pt" viewBox="0 0 270 170" version="1.1" xmlns="http://www.w3.org/2000/svg">
<g id="#ffffffff">
<path fill="#ffffff" opacity="1.00" d=" M 0.00 0.00 L 270.00 0.00 L 270.00 170.00 L 0.00 170.00 L 0.00 0.00 M 74.23 15.28 C 73.21 17.45 74.78 19.53 75.62 21.45 C 71.97 25.58 71.77 31.69 73.48 36.70 C 74.44 37.77 75.92 37.29 77.15 37.21 C 76.86 38.23 76.57 39.25 76.29 40.27 C 76.03 40.84 75.51 41.96 75.25 42.53 C 74.30 42.81 73.36 43.13 72.42 43.44 C 70.68 45.84 68.42 48.01 67.63 50.95 C 66.90 53.45 66.30 56.00 65.49 58.49 C 66.14 52.69 67.97 47.02 72.29 42.90 C 67.12 44.28 63.36 48.93 62.58 54.14 C 61.67 58.91 60.01 63.56 59.61 68.40 L 59.43 67.88 C 58.85 70.19 58.35 72.53 57.68 74.81 C 53.63 74.67 52.75 78.87 51.83 81.92 C 45.71 103.67 39.27 125.33 33.10 147.07 C 31.88 151.42 30.22 155.68 29.83 160.22 C 27.89 161.29 26.07 162.57 24.38 164.00 C 29.89 164.61 35.45 164.24 40.98 164.31 C 46.11 164.26 51.27 164.61 56.37 163.94 C 56.62 163.93 57.11 163.89 57.36 163.87 C 63.21 164.70 69.12 164.24 75.00 164.33 C 83.58 164.09 92.22 164.87 100.76 163.79 C 100.98 163.81 101.41 163.85 101.62 163.87 C 106.03 164.60 110.50 164.37 114.94 164.32 C 144.30 164.30 173.65 164.38 203.01 164.31 C 208.57 164.26 214.18 164.71 219.70 163.80 C 219.96 163.86 220.47 163.97 220.72 164.03 C 230.29 164.57 239.91 164.39 249.48 164.11 C 247.87 162.62 246.12 161.27 244.19 160.23 C 243.77 155.69 242.05 151.44 240.78 147.11 C 233.78 124.09 226.89 101.03 219.85 78.03 C 219.35 75.77 217.02 75.07 215.10 74.49 C 211.40 64.52 208.14 54.40 204.66 44.35 C 204.24 42.88 203.25 41.75 201.88 41.09 C 206.27 53.19 210.22 65.45 214.49 77.61 C 215.60 80.61 216.25 83.75 216.74 86.91 C 208.85 85.59 201.29 82.58 193.29 82.00 C 190.38 81.03 187.63 79.65 185.08 77.95 C 184.41 76.99 183.62 76.12 182.85 75.24 C 179.03 75.53 175.20 75.20 171.38 75.51 C 165.62 74.69 159.79 74.80 153.99 74.86 C 135.80 74.87 117.62 74.89 99.43 74.95 L 99.43 74.00 C 102.91 74.54 106.45 74.36 109.95 74.21 C 112.11 69.81 114.24 65.39 116.25 60.92 C 111.12 60.69 105.92 60.23 100.83 61.09 C 101.02 60.70 101.41 59.93 101.60 59.54 C 101.10 55.36 101.59 51.14 101.16 46.96 C 104.70 47.46 108.31 47.29 111.85 47.87 C 112.29 47.67 113.17 47.26 113.61 47.05 C 113.36 47.59 112.85 48.66 112.60 49.19 C 113.09 49.23 114.07 49.31 114.56 49.35 C 113.85 50.38 113.14 51.41 112.44 52.45 C 115.21 52.43 116.84 50.16 118.50 48.31 C 118.60 48.83 118.82 49.89 118.93 50.41 C 119.40 50.12 120.33 49.52 120.80 49.22 C 120.45 50.35 120.11 51.49 119.77 52.62 C 121.85 51.91 123.11 50.04 124.92 48.91 C 124.32 50.13 123.48 51.20 122.65 52.26 C 123.46 52.24 125.08 52.21 125.90 52.19 C 126.89 50.30 128.08 48.51 129.48 46.88 C 128.91 48.66 128.30 50.42 127.68 52.17 C 128.25 52.16 129.39 52.13 129.95 52.11 C 130.31 50.91 130.70 49.70 131.51 48.73 C 131.33 49.92 131.11 51.11 130.88 52.30 C 131.69 52.29 133.32 52.28 134.13 52.27 C 133.90 51.10 133.69 49.92 133.51 48.74 C 134.43 49.68 134.67 50.99 135.00 52.21 C 135.58 52.20 136.74 52.17 137.33 52.16 C 136.69 50.52 136.05 48.88 135.41 47.24 C 135.65 47.31 136.11 47.43 136.34 47.49 C 137.24 49.06 138.15 50.62 139.05 52.18 C 139.87 52.19 141.51 52.22 142.33 52.24 C 141.52 51.18 140.70 50.11 139.98 48.98 C 141.91 49.92 143.17 51.77 145.14 52.63 C 144.82 51.54 144.49 50.45 144.16 49.36 C 144.64 49.61 145.61 50.13 146.10 50.39 C 146.17 49.85 146.32 48.78 146.40 48.24 C 148.11 50.06 149.69 52.51 152.53 52.41 C 151.83 51.31 151.12 50.22 150.40 49.13 C 150.91 49.16 151.92 49.21 152.43 49.24 C 152.14 48.65 151.56 47.47 151.27 46.88 C 153.31 47.83 155.39 48.70 157.53 49.44 C 156.67 47.99 155.67 46.63 154.54 45.39 C 153.99 37.98 154.60 30.54 154.31 23.12 C 154.52 20.76 152.39 18.52 150.01 18.73 C 139.01 18.55 128.00 18.79 116.99 18.67 C 114.39 18.25 111.60 20.23 111.73 22.99 C 111.53 30.55 111.83 38.13 111.68 45.69 C 107.99 45.54 104.30 45.56 100.62 45.89 C 99.32 42.42 96.00 40.56 92.65 39.50 C 90.32 39.95 87.46 39.73 85.86 41.84 C 80.28 47.06 82.74 55.28 82.36 62.00 L 81.61 62.04 C 81.92 57.69 81.57 53.32 81.85 48.97 C 82.13 45.71 84.10 42.99 86.10 40.55 L 86.27 40.51 L 86.15 40.03 L 86.70 39.96 C 87.15 39.27 88.07 37.91 88.52 37.22 C 90.16 37.73 91.24 36.57 91.44 34.98 C 95.21 32.90 93.87 28.46 93.46 25.03 C 95.26 24.88 96.36 23.48 97.44 22.22 C 93.88 18.81 88.89 18.17 84.21 17.76 C 83.19 15.86 82.55 13.34 80.22 12.64 C 77.92 11.61 75.33 13.24 74.23 15.28 M 180.03 14.77 C 180.61 15.81 181.19 16.84 181.77 17.88 C 180.58 16.67 179.48 15.35 178.07 14.41 C 174.77 14.10 175.33 18.36 173.96 20.30 C 174.43 20.51 175.38 20.92 175.85 21.13 L 176.36 21.52 C 175.98 22.80 175.61 24.08 175.25 25.36 C 174.26 25.51 173.27 25.66 172.29 25.80 C 169.46 26.17 167.30 28.09 167.52 31.12 C 166.40 34.23 169.79 35.36 171.77 36.81 C 168.29 44.20 165.41 51.85 161.98 59.26 C 161.45 59.33 160.37 59.48 159.84 59.56 C 153.51 59.16 147.16 59.71 140.85 59.33 C 141.94 57.80 143.02 56.25 144.11 54.71 C 149.59 55.65 155.39 55.25 160.94 54.99 C 163.63 53.10 159.73 51.06 158.23 49.84 C 159.17 51.02 160.13 52.18 161.07 53.36 C 142.32 53.83 123.56 53.43 104.80 53.56 C 104.36 53.21 103.49 52.51 103.05 52.17 C 103.08 52.86 103.13 54.26 103.15 54.95 C 115.85 55.41 128.59 55.23 141.29 55.07 C 140.58 56.10 139.93 57.16 139.35 58.26 C 139.12 58.54 138.65 59.12 138.42 59.41 C 137.61 59.46 136.80 59.51 135.99 59.57 C 132.22 59.46 128.46 59.46 124.70 59.49 C 124.70 64.16 124.69 68.83 124.71 73.51 C 130.09 73.37 135.48 73.73 140.85 73.35 C 140.97 72.80 141.20 71.70 141.31 71.15 C 147.56 71.07 153.82 71.31 160.06 71.02 C 160.60 71.07 161.68 71.18 162.22 71.24 C 165.76 73.90 170.99 74.53 174.53 71.54 C 180.64 66.25 185.64 59.85 190.96 53.81 C 189.20 55.03 187.64 56.51 186.14 58.05 C 183.67 57.10 181.26 56.01 178.79 55.08 C 180.56 57.02 183.91 56.93 185.20 59.14 C 181.62 59.89 178.80 56.84 176.36 54.68 C 177.27 49.77 177.36 44.66 178.89 39.88 C 182.64 36.22 188.22 36.51 193.08 36.45 C 196.74 36.44 199.48 39.16 202.41 40.96 C 200.12 37.40 195.87 36.22 191.95 35.47 C 190.35 32.35 188.76 29.17 188.03 25.71 L 188.90 25.98 C 189.88 24.04 191.07 22.15 191.55 20.00 C 190.71 18.94 189.64 18.13 188.36 17.57 C 188.39 16.97 188.44 15.76 188.47 15.16 C 188.08 16.10 187.70 17.05 187.32 18.00 C 185.67 15.49 183.21 13.08 180.03 14.77 M 184.09 38.20 C 183.56 39.84 184.12 40.39 185.75 39.87 C 186.27 38.25 185.71 37.70 184.09 38.20 M 194.42 38.38 C 194.11 39.80 194.63 40.24 195.99 39.69 C 196.30 38.25 195.78 37.81 194.42 38.38 M 189.21 41.26 C 188.68 42.88 189.24 43.43 190.88 42.90 C 191.39 41.27 190.84 40.72 189.21 41.26 M 179.38 42.97 C 178.86 44.58 179.41 45.13 181.03 44.61 C 181.56 42.98 181.01 42.43 179.38 42.97 M 195.21 45.18 C 194.70 46.80 195.26 47.35 196.89 46.82 C 197.40 45.19 196.84 44.64 195.21 45.18 M 185.02 46.24 C 184.50 47.87 185.06 48.43 186.70 47.90 C 187.20 46.29 186.64 45.73 185.02 46.24 M 104.83 51.64 C 106.64 50.60 108.36 49.40 109.94 48.03 C 108.01 48.88 106.15 49.96 104.83 51.64 M 179.18 48.24 C 177.84 48.88 177.82 49.56 179.12 50.26 C 180.45 49.61 180.47 48.94 179.18 48.24 M 201.30 48.46 C 200.76 50.08 201.31 50.63 202.95 50.12 C 203.47 48.51 202.92 47.95 201.30 48.46 M 117.31 51.93 C 118.69 52.32 119.23 51.82 118.93 50.41 C 117.56 50.02 117.02 50.53 117.31 51.93 M 146.10 50.39 C 145.74 51.78 146.26 52.30 147.65 51.94 C 148.00 50.55 147.49 50.04 146.10 50.39 M 190.07 49.92 C 189.67 51.34 190.16 51.81 191.53 51.34 C 191.94 49.91 191.45 49.44 190.07 49.92 M 194.40 53.19 C 193.85 54.80 194.40 55.36 196.03 54.87 C 196.58 53.24 196.04 52.68 194.40 53.19 M 183.13 54.18 C 182.77 55.60 183.27 56.07 184.65 55.56 C 185.03 54.15 184.52 53.69 183.13 54.18 M 199.19 57.39 C 198.68 59.02 199.24 59.57 200.88 59.02 C 201.37 57.39 200.81 56.85 199.19 57.39 M 189.07 57.99 C 187.77 58.71 187.77 59.39 189.09 60.03 C 190.39 59.31 190.38 58.63 189.07 57.99 M 193.18 60.97 C 192.68 62.60 193.24 63.15 194.86 62.63 C 195.37 60.99 194.81 60.44 193.18 60.97 M 206.09 62.09 C 205.58 63.73 206.14 64.28 207.76 63.72 C 208.27 62.09 207.71 61.54 206.09 62.09 M 184.06 64.23 C 183.53 65.86 184.08 66.42 185.72 65.91 C 186.24 64.29 185.68 63.74 184.06 64.23 M 198.18 66.06 C 197.65 67.67 198.20 68.23 199.84 67.74 C 200.38 66.12 199.83 65.56 198.18 66.06 M 190.08 67.87 C 189.60 69.26 190.06 69.75 191.47 69.35 C 191.95 67.95 191.49 67.46 190.08 67.87 M 179.41 69.27 C 178.98 70.83 180.11 73.50 181.80 73.72 C 182.25 72.21 181.15 69.22 179.41 69.27 M 203.25 70.07 C 202.71 71.67 203.26 72.24 204.89 71.77 C 205.44 70.15 204.89 69.58 203.25 70.07 M 183.08 70.86 C 182.58 72.48 183.14 73.03 184.75 72.51 C 185.26 70.87 184.71 70.32 183.08 70.86 M 195.36 73.17 C 194.86 74.79 195.42 75.34 197.04 74.81 C 197.54 73.16 196.98 72.62 195.36 73.17 M 210.00 74.19 C 209.49 75.83 210.05 76.38 211.68 75.85 C 212.17 74.22 211.62 73.66 210.00 74.19 M 189.25 76.16 C 188.69 77.77 189.23 78.33 190.88 77.85 C 191.43 76.23 190.89 75.66 189.25 76.16 M 201.21 78.83 C 200.71 80.45 201.27 80.99 202.89 80.46 C 203.40 78.83 202.84 78.28 201.21 78.83 M 208.39 81.44 C 207.88 83.07 208.44 83.62 210.06 83.10 C 210.56 81.48 210.01 80.93 208.39 81.44 Z" />
<path fill="#ffffff" opacity="1.00" d=" M 76.12 15.15 C 78.05 12.48 83.30 14.51 81.98 17.93 C 81.44 20.74 78.07 20.63 75.95 20.01 C 75.88 18.44 74.69 16.44 76.12 15.15 Z" />
<path fill="#ffffff" opacity="1.00" d=" M 76.17 23.14 C 79.97 21.64 83.76 18.60 88.06 19.60 C 90.48 20.02 92.92 20.69 94.94 22.14 C 94.30 23.24 93.52 24.24 92.75 25.24 C 89.94 26.19 86.75 26.20 84.27 28.00 C 86.60 30.34 89.54 32.14 90.90 35.30 C 85.58 36.52 80.10 35.87 74.70 36.01 C 73.85 31.80 73.03 26.61 76.17 23.14 Z" />
<path fill="#ffffff" opacity="1.00" d=" M 113.35 22.23 L 114.42 21.98 C 114.54 29.47 114.39 36.96 114.53 44.44 C 115.19 44.56 116.50 44.79 117.16 44.91 C 117.48 42.62 117.91 40.24 117.00 38.03 C 117.90 36.79 118.79 35.55 119.67 34.30 C 122.05 34.35 124.43 34.40 126.81 34.44 C 127.14 35.68 127.48 36.93 127.79 38.17 C 128.20 39.90 128.65 41.61 129.17 43.31 C 128.82 43.81 128.12 44.82 127.77 45.32 C 126.70 45.20 125.62 45.12 124.55 45.07 C 123.12 45.10 121.69 45.10 120.26 45.14 C 118.09 45.82 115.80 45.64 113.57 45.47 C 113.09 37.73 113.47 29.97 113.35 22.23 Z" />
<path fill="#ffffff" opacity="1.00" d=" M 102.98 62.29 C 106.56 62.25 110.14 62.23 113.72 62.23 C 112.15 65.75 110.44 69.22 108.60 72.61 C 105.54 72.67 102.47 72.74 99.41 72.81 C 99.39 70.57 99.40 68.32 99.42 66.08 C 103.28 66.92 107.24 66.94 111.16 66.55 C 111.16 65.26 111.17 63.97 111.17 62.69 C 109.11 62.91 107.05 63.13 105.00 63.37 C 104.32 63.01 103.65 62.65 102.98 62.29 Z" />
<path fill="#ffffff" opacity="1.00" d=" M 51.79 87.84 C 53.15 83.51 53.54 78.41 57.48 75.50 C 56.69 79.38 55.84 83.25 54.98 87.12 C 57.35 87.14 59.72 87.28 62.06 87.68 C 62.47 90.94 62.04 94.24 60.79 97.28 C 61.16 94.32 63.16 90.67 60.78 88.17 C 58.77 87.47 56.65 88.08 54.73 88.75 C 55.65 94.06 58.63 99.01 63.56 101.46 C 60.95 101.67 58.37 102.06 55.79 102.42 C 56.20 103.63 56.27 105.03 57.12 106.05 C 59.22 106.43 61.37 106.40 63.51 106.41 C 62.07 118.95 60.64 131.50 58.99 144.01 C 53.76 145.63 49.36 148.96 44.63 151.62 C 40.01 154.25 35.52 157.11 30.84 159.64 C 32.24 156.24 33.16 152.67 34.16 149.15 C 39.94 128.68 46.01 108.30 51.79 87.84 Z" />
<path fill="#ffffff" opacity="1.00" d=" M 99.43 75.96 C 117.60 76.34 135.77 76.01 153.94 76.15 C 158.74 76.14 163.55 75.94 168.33 76.48 C 167.10 77.74 165.91 79.02 164.74 80.33 C 159.48 80.13 154.00 82.63 151.78 87.61 C 149.87 91.39 150.22 96.00 152.36 99.61 C 158.55 110.44 164.83 121.23 170.99 132.08 C 172.27 130.72 173.58 129.38 174.86 128.02 C 174.72 128.43 174.43 129.25 174.29 129.66 C 173.64 130.54 171.56 131.40 172.28 132.66 C 172.94 132.68 174.27 132.73 174.93 132.75 C 175.66 132.76 177.12 132.79 177.85 132.81 C 177.22 135.32 176.34 137.76 175.50 140.21 C 157.24 140.07 138.99 140.25 120.73 140.16 C 120.28 138.46 119.86 136.76 119.49 135.04 C 121.18 135.00 122.87 134.96 124.56 134.92 C 124.55 133.26 123.91 131.78 122.88 130.51 C 122.86 129.05 122.87 127.59 122.77 126.13 C 121.54 126.06 120.38 126.33 119.29 126.95 C 119.23 124.01 119.15 121.06 119.41 118.13 C 119.57 116.63 119.72 115.13 119.87 113.63 C 113.66 112.22 106.43 111.43 101.14 115.76 C 102.95 116.71 104.82 117.57 106.60 118.60 C 107.23 120.86 107.75 123.15 108.24 125.45 C 106.39 128.12 103.97 130.61 103.36 133.91 C 103.96 136.27 105.29 138.35 106.50 140.44 C 104.03 140.33 101.56 140.25 99.10 140.18 L 98.50 140.16 C 98.52 141.13 98.55 143.08 98.57 144.05 C 97.84 143.84 96.37 143.42 95.64 143.20 C 95.40 139.05 95.77 134.89 95.55 130.73 C 95.23 135.52 95.29 140.34 94.86 145.13 C 94.91 146.74 93.89 148.01 93.08 149.30 C 92.62 147.45 92.22 145.58 91.93 143.70 L 91.79 142.63 C 91.74 142.20 91.63 141.34 91.58 140.91 C 91.10 137.76 91.04 134.37 89.47 131.53 C 87.43 128.12 81.86 129.39 80.73 132.92 C 80.65 135.38 81.12 137.81 81.46 140.24 C 74.28 140.91 66.41 138.56 59.80 142.27 C 60.94 131.48 62.42 120.73 63.55 109.94 C 63.70 108.72 64.08 107.55 64.51 106.40 C 68.09 106.33 71.68 106.38 75.25 105.99 L 76.56 105.96 C 76.60 109.36 76.60 112.76 76.63 116.16 C 82.13 118.35 88.19 117.96 93.94 117.19 L 94.19 117.15 C 95.08 116.77 95.96 116.38 96.84 115.97 C 96.91 112.72 96.94 109.47 96.99 106.22 C 97.43 106.27 98.32 106.38 98.76 106.43 C 99.83 107.12 100.87 107.86 101.92 108.59 C 101.32 110.08 101.17 111.82 101.87 113.31 L 102.40 113.21 C 108.89 111.37 115.83 111.34 122.14 113.90 C 121.98 106.25 122.27 98.60 122.04 90.95 C 122.04 85.38 117.64 80.07 112.05 79.43 C 107.85 79.02 103.62 79.30 99.41 79.24 C 99.41 78.42 99.43 76.78 99.43 75.96 M 81.64 118.45 C 81.89 119.91 82.16 121.37 82.42 122.83 C 82.59 124.48 82.75 126.14 82.92 127.80 C 85.70 126.18 88.87 126.08 91.94 126.76 C 93.06 128.05 94.18 129.35 95.31 130.64 C 95.33 126.29 95.29 121.93 95.87 117.61 C 91.24 118.95 86.39 118.51 81.64 118.45 Z" />
<path fill="#ffffff" opacity="1.00" d=" M 215.83 76.43 C 219.39 78.40 219.53 82.80 220.73 86.24 C 227.28 108.04 233.91 129.83 240.45 151.64 C 241.26 154.34 242.07 157.05 243.19 159.64 C 234.82 155.14 227.11 149.45 218.44 145.50 C 216.85 132.41 215.03 119.34 213.88 106.21 C 214.98 106.23 216.08 106.18 217.18 106.07 C 218.04 105.14 218.31 103.86 218.76 102.72 C 214.22 102.29 209.66 102.22 205.11 102.19 C 209.71 100.24 213.91 97.05 215.86 92.31 C 216.36 91.21 216.83 90.10 217.27 88.98 C 218.74 84.77 217.10 80.45 215.83 76.43 Z" />
<path fill="#ffffff" opacity="1.00" d=" M 177.24 103.72 C 176.17 101.54 175.19 99.31 174.28 97.06 C 174.93 98.22 175.56 99.40 176.22 100.57 C 176.53 101.01 177.13 101.91 177.44 102.35 C 180.84 103.50 184.47 103.11 188.00 103.13 C 193.24 103.02 198.54 103.54 203.71 102.44 C 208.32 102.65 212.97 102.38 217.55 103.06 C 217.95 105.25 215.83 105.97 214.03 105.67 C 202.25 104.80 190.45 105.77 178.66 105.70 C 178.30 105.21 177.59 104.22 177.24 103.72 Z" />
<path fill="#ffffff" opacity="1.00" d=" M 182.28 106.28 L 182.85 106.28 C 183.09 109.80 181.43 113.44 182.96 116.82 C 183.55 118.54 184.30 120.21 185.22 121.78 C 185.49 121.81 186.01 121.87 186.28 121.91 C 187.73 116.65 188.80 111.30 190.19 106.03 C 197.87 105.53 205.63 105.25 213.30 106.14 C 214.51 118.72 216.34 131.23 217.66 143.80 C 216.62 143.72 215.58 143.65 214.54 143.60 C 213.13 142.40 212.00 140.36 209.91 140.35 C 204.99 139.97 199.97 140.85 195.15 139.46 C 195.39 138.82 195.88 137.53 196.13 136.88 C 194.78 132.41 189.89 130.88 186.62 128.12 C 186.17 127.75 185.28 127.01 184.83 126.64 L 185.46 126.11 C 185.69 125.16 185.89 124.20 186.05 123.23 C 185.66 123.16 184.89 123.02 184.50 122.94 C 183.48 118.41 181.55 114.18 179.92 109.85 C 180.36 110.54 181.23 111.92 181.67 112.61 C 181.94 110.51 182.15 108.39 182.28 106.28 Z" />
<path fill="#ffffff" opacity="1.00" d=" M 108.14 126.53 C 110.44 126.43 112.75 126.37 115.05 126.59 C 116.69 127.87 117.90 129.66 118.49 131.66 C 119.18 135.55 120.01 139.43 120.98 143.26 C 121.28 145.04 122.05 147.14 120.82 148.74 C 120.53 148.84 119.95 149.02 119.66 149.11 C 116.30 143.72 114.23 137.61 110.71 132.32 C 109.61 130.13 106.94 130.61 104.95 130.29 C 106.02 129.05 107.09 127.79 108.14 126.53 Z" />
<path fill="#ffffff" opacity="1.00" d=" M 179.32 135.58 C 182.81 135.27 185.54 133.11 187.92 130.72 C 190.12 132.27 192.23 133.95 194.26 135.72 C 188.99 136.32 184.56 139.32 180.90 142.99 C 181.45 142.99 182.55 142.98 183.10 142.98 C 180.08 145.83 177.60 149.21 174.43 151.90 C 174.26 146.62 174.90 141.04 177.55 136.39 C 177.99 136.18 178.88 135.78 179.32 135.58 Z" />
</g>
<g id="#fdecb8ff">
<path fill="#fdecb8" opacity="1.00" d=" M 74.23 15.28 C 75.33 13.24 77.92 11.61 80.22 12.64 C 82.55 13.34 83.19 15.86 84.21 17.76 C 88.89 18.17 93.88 18.81 97.44 22.22 C 96.36 23.48 95.26 24.88 93.46 25.03 L 92.75 25.24 C 93.52 24.24 94.30 23.24 94.94 22.14 C 92.92 20.69 90.48 20.02 88.06 19.60 C 83.76 18.60 79.97 21.64 76.17 23.14 C 73.03 26.61 73.85 31.80 74.70 36.01 C 80.10 35.87 85.58 36.52 90.90 35.30 L 91.44 34.98 C 91.24 36.57 90.16 37.73 88.52 37.22 C 84.75 36.74 80.92 36.66 77.15 37.21 C 75.92 37.29 74.44 37.77 73.48 36.70 C 71.77 31.69 71.97 25.58 75.62 21.45 C 74.78 19.53 73.21 17.45 74.23 15.28 M 76.12 15.15 C 74.69 16.44 75.88 18.44 75.95 20.01 C 78.07 20.63 81.44 20.74 81.98 17.93 C 83.30 14.51 78.05 12.48 76.12 15.15 Z" />
</g>
<g id="#ffcf2cff">
<path fill="#ffcf2c" opacity="1.00" d=" M 180.03 14.77 C 183.21 13.08 185.67 15.49 187.32 18.00 C 187.70 17.05 188.08 16.10 188.47 15.16 C 188.44 15.76 188.39 16.97 188.36 17.57 C 189.64 18.13 190.71 18.94 191.55 20.00 C 191.07 22.15 189.88 24.04 188.90 25.98 L 188.03 25.71 C 185.35 24.87 181.99 24.41 181.35 21.10 C 179.52 21.14 177.68 21.19 175.85 21.13 C 175.38 20.92 174.43 20.51 173.96 20.30 C 175.33 18.36 174.77 14.10 178.07 14.41 C 179.48 15.35 180.58 16.67 181.77 17.88 C 181.19 16.84 180.61 15.81 180.03 14.77 Z" />
<path fill="#ffcf2c" opacity="1.00" d=" M 124.70 59.49 C 128.46 59.46 132.22 59.46 135.99 59.57 C 132.15 62.52 129.39 66.53 127.88 71.11 C 132.35 71.37 136.83 71.22 141.31 71.15 C 141.20 71.70 140.97 72.80 140.85 73.35 C 135.48 73.73 130.09 73.37 124.71 73.51 C 124.69 68.83 124.70 64.16 124.70 59.49 Z" />
</g>
<g id="#ebf5fdff">
<path fill="#ebf5fd" opacity="1.00" d=" M 111.73 22.99 C 111.60 20.23 114.39 18.25 116.99 18.67 C 128.00 18.79 139.01 18.55 150.01 18.73 C 152.39 18.52 154.52 20.76 154.31 23.12 C 154.60 30.54 153.99 37.98 154.54 45.39 C 155.67 46.63 156.67 47.99 157.53 49.44 C 155.39 48.70 153.31 47.83 151.27 46.88 C 151.56 47.47 152.14 48.65 152.43 49.24 C 151.92 49.21 150.91 49.16 150.40 49.13 C 151.12 50.22 151.83 51.31 152.53 52.41 C 149.69 52.51 148.11 50.06 146.40 48.24 C 146.32 48.78 146.17 49.85 146.10 50.39 C 145.61 50.13 144.64 49.61 144.16 49.36 C 144.49 50.45 144.82 51.54 145.14 52.63 C 143.17 51.77 141.91 49.92 139.98 48.98 C 140.70 50.11 141.52 51.18 142.33 52.24 C 141.51 52.22 139.87 52.19 139.05 52.18 C 138.15 50.62 137.24 49.06 136.34 47.49 C 136.11 47.43 135.65 47.31 135.41 47.24 C 136.05 48.88 136.69 50.52 137.33 52.16 C 136.74 52.17 135.58 52.20 135.00 52.21 C 134.67 50.99 134.43 49.68 133.51 48.74 C 133.69 49.92 133.90 51.10 134.13 52.27 C 133.32 52.28 131.69 52.29 130.88 52.30 C 131.11 51.11 131.33 49.92 131.51 48.73 C 130.70 49.70 130.31 50.91 129.95 52.11 C 129.39 52.13 128.25 52.16 127.68 52.17 C 128.30 50.42 128.91 48.66 129.48 46.88 C 128.08 48.51 126.89 50.30 125.90 52.19 C 125.08 52.21 123.46 52.24 122.65 52.26 C 123.48 51.20 124.32 50.13 124.92 48.91 C 123.11 50.04 121.85 51.91 119.77 52.62 C 120.11 51.49 120.45 50.35 120.80 49.22 C 120.33 49.52 119.40 50.12 118.93 50.41 C 118.82 49.89 118.60 48.83 118.50 48.31 C 116.84 50.16 115.21 52.43 112.44 52.45 C 113.14 51.41 113.85 50.38 114.56 49.35 C 114.07 49.31 113.09 49.23 112.60 49.19 C 112.85 48.66 113.36 47.59 113.61 47.05 C 113.17 47.26 112.29 47.67 111.85 47.87 C 108.31 47.29 104.70 47.46 101.16 46.96 L 100.62 45.89 C 104.30 45.56 107.99 45.54 111.68 45.69 C 111.83 38.13 111.53 30.55 111.73 22.99 M 113.35 22.23 C 113.47 29.97 113.09 37.73 113.57 45.47 C 115.80 45.64 118.09 45.82 120.26 45.14 C 121.69 45.10 123.12 45.10 124.55 45.07 C 125.62 45.12 126.70 45.20 127.77 45.32 C 128.12 44.82 128.82 43.81 129.17 43.31 C 129.34 43.84 129.68 44.91 129.85 45.44 C 130.83 44.54 131.80 43.63 132.74 42.69 L 131.16 42.14 C 131.59 42.13 132.46 42.10 132.89 42.09 C 132.86 42.80 132.81 44.22 132.79 44.93 C 137.79 44.81 142.81 44.77 147.81 44.97 C 149.24 44.76 150.67 44.55 152.10 44.32 C 152.04 36.91 152.21 29.50 152.04 22.09 L 151.68 22.18 C 146.90 20.94 141.92 21.75 137.05 21.54 C 129.51 21.78 121.92 21.01 114.42 21.98 L 113.35 22.23 Z" />
</g>
<g id="#e57281ff">
<path fill="#e57281" opacity="1.00" d=" M 175.85 21.13 C 177.68 21.19 179.52 21.14 181.35 21.10 C 181.99 24.41 185.35 24.87 188.03 25.71 C 188.76 29.17 190.35 32.35 191.95 35.47 C 195.87 36.22 200.12 37.40 202.41 40.96 C 199.48 39.16 196.74 36.44 193.08 36.45 C 188.22 36.51 182.64 36.22 178.89 39.88 C 177.36 44.66 177.27 49.77 176.36 54.68 C 178.80 56.84 181.62 59.89 185.20 59.14 C 183.91 56.93 180.56 57.02 178.79 55.08 C 181.26 56.01 183.67 57.10 186.14 58.05 C 187.64 56.51 189.20 55.03 190.96 53.81 C 185.64 59.85 180.64 66.25 174.53 71.54 C 170.99 74.53 165.76 73.90 162.22 71.24 C 159.72 67.59 159.98 63.06 161.98 59.26 C 165.41 51.85 168.29 44.20 171.77 36.81 C 169.79 35.36 166.40 34.23 167.52 31.12 C 167.30 28.09 169.46 26.17 172.29 25.80 C 171.53 27.51 170.70 29.20 170.12 30.98 C 172.50 32.90 175.67 33.09 178.55 33.71 C 178.71 35.55 178.72 37.41 178.79 39.26 C 179.49 38.78 180.90 37.82 181.61 37.34 C 184.87 35.35 186.32 31.68 187.45 28.21 C 184.62 29.46 182.26 31.45 179.86 33.33 C 179.37 33.19 178.37 32.91 177.87 32.77 C 176.77 31.47 174.35 30.41 175.22 28.38 C 176.09 26.46 178.00 25.30 179.44 23.85 C 178.41 23.08 177.38 22.31 176.36 21.52 L 175.85 21.13 Z" />
<path fill="#e57281" opacity="1.00" d=" M 138.42 59.41 C 138.65 59.12 139.12 58.54 139.35 58.26 C 139.72 58.53 140.47 59.07 140.85 59.33 C 147.16 59.71 153.51 59.16 159.84 59.56 C 157.97 63.19 157.90 67.50 160.06 71.02 C 153.82 71.31 147.56 71.07 141.31 71.15 C 136.83 71.22 132.35 71.37 127.88 71.11 C 129.39 66.53 132.15 62.52 135.99 59.57 C 136.80 59.51 137.61 59.46 138.42 59.41 Z" />
<path fill="#e57281" opacity="1.00" d=" M 164.74 80.33 C 165.91 79.02 167.10 77.74 168.33 76.48 C 167.98 77.21 167.27 78.68 166.92 79.41 C 173.05 79.52 179.19 79.69 185.32 79.34 L 185.08 77.95 C 187.63 79.65 190.38 81.03 193.29 82.00 L 194.16 82.86 C 190.92 81.51 187.54 80.24 183.98 80.30 C 177.56 80.32 171.15 80.33 164.74 80.33 Z" />
</g>
<g id="#4fa4efff">
<path fill="#4fa4ef" opacity="1.00" d=" M 114.42 21.98 C 121.92 21.01 129.51 21.78 137.05 21.54 C 141.92 21.75 146.90 20.94 151.68 22.18 C 145.66 24.13 139.17 21.71 133.22 24.12 L 133.18 24.12 C 127.72 22.16 121.87 23.05 116.21 23.10 C 116.07 28.07 115.23 33.23 117.00 38.03 C 117.91 40.24 117.48 42.62 117.16 44.91 C 116.50 44.79 115.19 44.56 114.53 44.44 C 114.39 36.96 114.54 29.47 114.42 21.98 Z" />
</g>
<g id="#66b0f0ff">
<path fill="#66b0f0" opacity="1.00" d=" M 151.68 22.18 L 152.04 22.09 C 152.21 29.50 152.04 36.91 152.10 44.32 C 150.67 44.55 149.24 44.76 147.81 44.97 C 147.16 42.29 147.31 38.96 144.94 37.08 C 142.52 35.49 139.51 35.31 136.75 34.75 C 134.37 33.84 135.47 31.40 136.07 29.63 L 136.00 29.26 C 135.85 27.98 135.71 26.70 135.58 25.42 C 134.99 25.09 133.81 24.44 133.22 24.12 C 139.17 21.71 145.66 24.13 151.68 22.18 Z" />
<path fill="#66b0f0" opacity="1.00" d=" M 116.21 23.10 C 121.87 23.05 127.72 22.16 133.18 24.12 C 131.79 24.13 130.40 24.16 129.01 24.20 C 128.93 25.44 128.82 26.69 128.70 27.93 C 128.55 28.53 128.27 29.72 128.12 30.32 C 129.72 32.28 131.89 33.55 134.26 34.38 C 132.47 34.72 130.67 34.92 128.86 34.97 C 128.46 34.82 127.66 34.53 127.26 34.38 C 127.39 35.33 127.66 37.23 127.79 38.17 C 127.48 36.93 127.14 35.68 126.81 34.44 C 124.43 34.40 122.05 34.35 119.67 34.30 C 118.79 35.55 117.90 36.79 117.00 38.03 C 115.23 33.23 116.07 28.07 116.21 23.10 Z" />
<path fill="#66b0f0" opacity="1.00" d=" M 104.83 51.64 C 106.15 49.96 108.01 48.88 109.94 48.03 C 108.36 49.40 106.64 50.60 104.83 51.64 Z" />
<path fill="#66b0f0" opacity="1.00" d=" M 63.51 106.41 C 63.76 106.41 64.26 106.41 64.51 106.40 C 64.08 107.55 63.70 108.72 63.55 109.94 C 62.42 120.73 60.94 131.48 59.80 142.27 L 59.60 143.61 C 65.75 143.65 71.91 143.90 78.05 143.63 C 82.63 143.21 87.18 142.52 91.79 142.63 L 91.93 143.70 C 88.46 143.82 84.99 143.98 81.54 144.27 C 74.23 144.57 66.91 144.23 59.60 144.44 C 58.72 150.90 57.82 157.36 57.36 163.87 C 57.11 163.89 56.62 163.93 56.37 163.94 C 57.64 157.36 58.10 150.65 58.99 144.01 C 60.64 131.50 62.07 118.95 63.51 106.41 Z" />
<path fill="#66b0f0" opacity="1.00" d=" M 213.30 106.14 C 213.44 106.15 213.73 106.19 213.88 106.21 C 215.03 119.34 216.85 132.41 218.44 145.50 C 219.18 151.68 219.94 157.85 220.72 164.03 C 220.47 163.97 219.96 163.86 219.70 163.80 C 219.54 157.31 218.65 150.85 217.52 144.46 C 208.32 144.33 199.11 144.28 189.91 144.49 C 190.23 144.21 190.87 143.66 191.19 143.38 C 191.41 143.40 191.83 143.43 192.04 143.45 C 199.53 143.98 207.04 143.62 214.54 143.60 C 215.58 143.65 216.62 143.72 217.66 143.80 C 216.34 131.23 214.51 118.72 213.30 106.14 Z" />
</g>
<g id="#d26581ff">
<path fill="#d26581" opacity="1.00" d=" M 176.36 21.52 C 177.38 22.31 178.41 23.08 179.44 23.85 C 178.00 25.30 176.09 26.46 175.22 28.38 C 174.35 30.41 176.77 31.47 177.87 32.77 L 178.55 33.71 C 175.67 33.09 172.50 32.90 170.12 30.98 C 170.70 29.20 171.53 27.51 172.29 25.80 C 173.27 25.66 174.26 25.51 175.25 25.36 C 175.61 24.08 175.98 22.80 176.36 21.52 Z" />
</g>
<g id="#f56770ff">
<path fill="#f56770" opacity="1.00" d=" M 129.01 24.20 C 130.40 24.16 131.79 24.13 133.18 24.12 L 133.22 24.12 C 133.81 24.44 134.99 25.09 135.58 25.42 C 135.71 26.70 135.85 27.98 136.00 29.26 C 135.44 28.22 134.86 27.19 134.27 26.17 C 132.41 26.77 130.56 27.36 128.70 27.93 C 128.82 26.69 128.93 25.44 129.01 24.20 Z" />
</g>
<g id="#9c4959ff">
<path fill="#9c4959" opacity="1.00" d=" M 84.27 28.00 C 86.75 26.20 89.94 26.19 92.75 25.24 L 93.46 25.03 C 93.87 28.46 95.21 32.90 91.44 34.98 L 90.90 35.30 C 89.54 32.14 86.60 30.34 84.27 28.00 Z" />
</g>
<g id="#f8fcffff">
<path fill="#f8fcff" opacity="1.00" d=" M 128.70 27.93 C 130.56 27.36 132.41 26.77 134.27 26.17 C 134.86 27.19 135.44 28.22 136.00 29.26 L 136.07 29.63 C 135.47 31.40 134.37 33.84 136.75 34.75 L 136.20 34.80 C 134.87 35.51 133.61 36.36 132.20 36.90 C 131.07 36.29 129.95 35.65 128.86 34.97 C 130.67 34.92 132.47 34.72 134.26 34.38 C 131.89 33.55 129.72 32.28 128.12 30.32 C 128.27 29.72 128.55 28.53 128.70 27.93 Z" />
</g>
<g id="#983a82ff">
<path fill="#983a82" opacity="1.00" d=" M 179.86 33.33 C 182.26 31.45 184.62 29.46 187.45 28.21 C 186.32 31.68 184.87 35.35 181.61 37.34 C 181.04 36.00 180.50 34.65 179.86 33.33 Z" />
</g>
<g id="#f1e4eeff">
<path fill="#f1e4ee" opacity="1.00" d=" M 177.87 32.77 C 178.37 32.91 179.37 33.19 179.86 33.33 C 180.50 34.65 181.04 36.00 181.61 37.34 C 180.90 37.82 179.49 38.78 178.79 39.26 C 178.72 37.41 178.71 35.55 178.55 33.71 L 177.87 32.77 Z" />
</g>
<g id="#ffcf2dff">
<path fill="#ffcf2d" opacity="1.00" d=" M 127.26 34.38 C 127.66 34.53 128.46 34.82 128.86 34.97 C 129.95 35.65 131.07 36.29 132.20 36.90 C 133.61 36.36 134.87 35.51 136.20 34.80 L 136.75 34.75 C 139.51 35.31 142.52 35.49 144.94 37.08 C 147.31 38.96 147.16 42.29 147.81 44.97 C 142.81 44.77 137.79 44.81 132.79 44.93 C 132.81 44.22 132.86 42.80 132.89 42.09 C 132.46 42.10 131.59 42.13 131.16 42.14 L 132.74 42.69 C 131.80 43.63 130.83 44.54 129.85 45.44 C 129.68 44.91 129.34 43.84 129.17 43.31 C 128.65 41.61 128.20 39.90 127.79 38.17 C 127.66 37.23 127.39 35.33 127.26 34.38 Z" />
<path fill="#ffcf2d" opacity="1.00" d=" M 92.65 39.50 C 96.00 40.56 99.32 42.42 100.62 45.89 L 101.16 46.96 C 101.59 51.14 101.10 55.36 101.60 59.54 C 96.44 58.46 91.26 60.53 87.45 63.96 L 87.40 63.65 C 87.37 58.75 87.22 53.84 87.47 48.95 C 87.54 45.13 90.49 42.34 92.65 39.50 Z" />
<path fill="#ffcf2d" opacity="1.00" d=" M 75.25 42.53 C 78.85 41.74 82.50 41.29 86.10 40.55 C 84.10 42.99 82.13 45.71 81.85 48.97 C 81.57 53.32 81.92 57.69 81.61 62.04 C 75.91 62.41 70.21 62.23 64.51 62.04 C 64.84 60.85 65.17 59.67 65.49 58.49 C 66.30 56.00 66.90 53.45 67.63 50.95 C 68.42 48.01 70.68 45.84 72.42 43.44 C 73.36 43.13 74.30 42.81 75.25 42.53 Z" />
<path fill="#ffcf2d" opacity="1.00" d=" M 183.54 142.64 C 187.04 139.42 191.32 137.21 196.13 136.88 C 195.88 137.53 195.39 138.82 195.15 139.46 C 194.16 140.82 193.07 142.12 192.04 143.45 C 191.83 143.43 191.41 143.40 191.19 143.38 C 188.64 143.15 186.09 142.90 183.54 142.64 Z" />
</g>
<g id="#7b334cff">
<path fill="#7b334c" opacity="1.00" d=" M 77.15 37.21 C 80.92 36.66 84.75 36.74 88.52 37.22 C 88.07 37.91 87.15 39.27 86.70 39.96 L 86.15 40.03 C 85.86 39.53 85.27 38.53 84.98 38.04 C 82.07 38.70 79.13 39.32 76.29 40.27 C 76.57 39.25 76.86 38.23 77.15 37.21 Z" />
</g>
<g id="#9e4d59ff">
<path fill="#9e4d59" opacity="1.00" d=" M 76.29 40.27 C 79.13 39.32 82.07 38.70 84.98 38.04 C 85.27 38.53 85.86 39.53 86.15 40.03 L 86.27 40.51 L 86.10 40.55 C 82.50 41.29 78.85 41.74 75.25 42.53 C 75.51 41.96 76.03 40.84 76.29 40.27 Z" />
</g>
<g id="#ffa672ff">
<path fill="#ffa672" opacity="1.00" d=" M 184.09 38.20 C 185.71 37.70 186.27 38.25 185.75 39.87 C 184.12 40.39 183.56 39.84 184.09 38.20 Z" />
</g>
<g id="#fe5244ff">
<path fill="#fe5244" opacity="1.00" d=" M 194.42 38.38 C 195.78 37.81 196.30 38.25 195.99 39.69 C 194.63 40.24 194.11 39.80 194.42 38.38 Z" />
<path fill="#fe5244" opacity="1.00" d=" M 85.86 41.84 C 87.46 39.73 90.32 39.95 92.65 39.50 C 90.49 42.34 87.54 45.13 87.47 48.95 C 87.22 53.84 87.37 58.75 87.40 63.65 C 87.32 74.44 87.38 85.24 87.35 96.04 C 87.10 98.48 88.64 100.45 89.93 102.34 C 82.18 102.12 74.42 102.03 66.68 102.44 C 65.63 102.12 64.59 101.79 63.56 101.46 C 58.63 99.01 55.65 94.06 54.73 88.75 C 56.65 88.08 58.77 87.47 60.78 88.17 C 63.16 90.67 61.16 94.32 60.79 97.28 C 62.04 94.24 62.47 90.94 62.06 87.68 C 59.72 87.28 57.35 87.14 54.98 87.12 C 55.84 83.25 56.69 79.38 57.48 75.50 L 57.68 74.81 C 58.35 72.53 58.85 70.19 59.43 67.88 L 59.61 68.40 C 59.78 68.88 60.12 69.84 60.29 70.32 C 61.22 67.58 61.99 64.78 62.94 62.05 C 63.33 62.05 64.12 62.04 64.51 62.04 C 70.21 62.23 75.91 62.41 81.61 62.04 L 82.36 62.00 C 82.74 55.28 80.28 47.06 85.86 41.84 M 71.03 86.93 C 71.02 89.83 70.77 92.77 71.30 95.64 C 73.06 97.90 76.27 100.22 79.01 98.08 C 83.18 96.03 81.74 90.81 81.84 87.11 C 78.24 86.83 74.63 86.78 71.03 86.93 Z" />
<path fill="#fe5244" opacity="1.00" d=" M 179.38 42.97 C 181.01 42.43 181.56 42.98 181.03 44.61 C 179.41 45.13 178.86 44.58 179.38 42.97 Z" />
<path fill="#fe5244" opacity="1.00" d=" M 201.30 48.46 C 202.92 47.95 203.47 48.51 202.95 50.12 C 201.31 50.63 200.76 50.08 201.30 48.46 Z" />
<path fill="#fe5244" opacity="1.00" d=" M 183.08 70.86 C 184.71 70.32 185.26 70.87 184.75 72.51 C 183.14 73.03 182.58 72.48 183.08 70.86 Z" />
<path fill="#fe5244" opacity="1.00" d=" M 99.86 96.49 C 99.02 90.78 99.43 84.99 99.41 79.24 C 103.62 79.30 107.85 79.02 112.05 79.43 C 117.64 80.07 122.04 85.38 122.04 90.95 C 122.27 98.60 121.98 106.25 122.14 113.90 C 115.83 111.34 108.89 111.37 102.40 113.21 C 103.06 111.67 102.83 109.93 102.25 108.41 C 107.44 106.84 105.87 100.04 103.29 96.73 L 102.84 96.03 C 103.75 93.97 104.46 91.83 105.11 89.68 C 103.48 91.68 102.02 93.81 100.46 95.87 L 99.86 96.49 Z" />
<path fill="#fe5244" opacity="1.00" d=" M 201.21 78.83 C 202.84 78.28 203.40 78.83 202.89 80.46 C 201.27 80.99 200.71 80.45 201.21 78.83 Z" />
<path fill="#fe5244" opacity="1.00" d=" M 72.11 88.12 C 74.82 88.06 77.53 88.01 80.24 87.96 C 80.53 90.33 81.23 92.87 80.29 95.18 C 79.03 96.87 76.38 98.46 74.42 96.85 C 71.16 95.19 72.40 91.05 72.11 88.12 Z" />
</g>
<g id="#fea36eff">
<path fill="#fea36e" opacity="1.00" d=" M 189.21 41.26 C 190.84 40.72 191.39 41.27 190.88 42.90 C 189.24 43.43 188.68 42.88 189.21 41.26 Z" />
</g>
<g id="#fac7c3ff">
<path fill="#fac7c3" opacity="1.00" d=" M 201.88 41.09 C 203.25 41.75 204.24 42.88 204.66 44.35 C 208.14 54.40 211.40 64.52 215.10 74.49 C 215.28 74.98 215.65 75.95 215.83 76.43 C 217.10 80.45 218.74 84.77 217.27 88.98 C 211.34 87.37 205.44 85.40 199.25 85.14 C 197.53 84.45 195.83 83.69 194.16 82.86 L 193.29 82.00 C 201.29 82.58 208.85 85.59 216.74 86.91 C 216.25 83.75 215.60 80.61 214.49 77.61 C 210.22 65.45 206.27 53.19 201.88 41.09 Z" />
</g>
<g id="#fe473aff">
<path fill="#fe473a" opacity="1.00" d=" M 62.58 54.14 C 63.36 48.93 67.12 44.28 72.29 42.90 C 67.97 47.02 66.14 52.69 65.49 58.49 C 65.17 59.67 64.84 60.85 64.51 62.04 C 64.12 62.04 63.33 62.05 62.94 62.05 C 61.99 64.78 61.22 67.58 60.29 70.32 C 60.12 69.84 59.78 68.88 59.61 68.40 C 60.01 63.56 61.67 58.91 62.58 54.14 Z" />
<path fill="#fe473a" opacity="1.00" d=" M 190.07 49.92 C 191.45 49.44 191.94 49.91 191.53 51.34 C 190.16 51.81 189.67 51.34 190.07 49.92 Z" />
<path fill="#fe473a" opacity="1.00" d=" M 141.29 55.07 C 141.50 54.79 141.93 54.22 142.14 53.93 C 142.79 54.20 143.45 54.46 144.11 54.71 C 143.02 56.25 141.94 57.80 140.85 59.33 C 140.47 59.07 139.72 58.53 139.35 58.26 C 139.93 57.16 140.58 56.10 141.29 55.07 Z" />
<path fill="#fe473a" opacity="1.00" d=" M 190.08 67.87 C 191.49 67.46 191.95 67.95 191.47 69.35 C 190.06 69.75 189.60 69.26 190.08 67.87 Z" />
<path fill="#fe473a" opacity="1.00" d=" M 208.39 81.44 C 210.01 80.93 210.56 81.48 210.06 83.10 C 208.44 83.62 207.88 83.07 208.39 81.44 Z" />
</g>
<g id="#ffa36aff">
<path fill="#ffa36a" opacity="1.00" d=" M 195.21 45.18 C 196.84 44.64 197.40 45.19 196.89 46.82 C 195.26 47.35 194.70 46.80 195.21 45.18 Z" />
</g>
<g id="#fea873ff">
<path fill="#fea873" opacity="1.00" d=" M 185.02 46.24 C 186.64 45.73 187.20 46.29 186.70 47.90 C 185.06 48.43 184.50 47.87 185.02 46.24 Z" />
</g>
<g id="#fe9f62ff">
<path fill="#fe9f62" opacity="1.00" d=" M 179.18 48.24 C 180.47 48.94 180.45 49.61 179.12 50.26 C 177.82 49.56 177.84 48.88 179.18 48.24 Z" />
</g>
<g id="#b4d8f7ff">
<path fill="#b4d8f7" opacity="1.00" d=" M 117.31 51.93 C 117.02 50.53 117.56 50.02 118.93 50.41 C 119.23 51.82 118.69 52.32 117.31 51.93 Z" />
<path fill="#b4d8f7" opacity="1.00" d=" M 146.10 50.39 C 147.49 50.04 148.00 50.55 147.65 51.94 C 146.26 52.30 145.74 51.78 146.10 50.39 Z" />
</g>
<g id="#4aa2edff">
<path fill="#4aa2ed" opacity="1.00" d=" M 158.23 49.84 C 159.73 51.06 163.63 53.10 160.94 54.99 C 155.39 55.25 149.59 55.65 144.11 54.71 C 143.45 54.46 142.79 54.20 142.14 53.93 C 141.93 54.22 141.50 54.79 141.29 55.07 C 128.59 55.23 115.85 55.41 103.15 54.95 C 103.13 54.26 103.08 52.86 103.05 52.17 C 103.49 52.51 104.36 53.21 104.80 53.56 C 123.56 53.43 142.32 53.83 161.07 53.36 C 160.13 52.18 159.17 51.02 158.23 49.84 Z" />
</g>
<g id="#fea775ff">
<path fill="#fea775" opacity="1.00" d=" M 194.40 53.19 C 196.04 52.68 196.58 53.24 196.03 54.87 C 194.40 55.36 193.85 54.80 194.40 53.19 Z" />
</g>
<g id="#ffa56fff">
<path fill="#ffa56f" opacity="1.00" d=" M 183.13 54.18 C 184.52 53.69 185.03 54.15 184.65 55.56 C 183.27 56.07 182.77 55.60 183.13 54.18 Z" />
</g>
<g id="#fea875ff">
<path fill="#fea875" opacity="1.00" d=" M 199.19 57.39 C 200.81 56.85 201.37 57.39 200.88 59.02 C 199.24 59.57 198.68 59.02 199.19 57.39 Z" />
</g>
<g id="#fea268ff">
<path fill="#fea268" opacity="1.00" d=" M 189.07 57.99 C 190.38 58.63 190.39 59.31 189.09 60.03 C 187.77 59.39 187.77 58.71 189.07 57.99 Z" />
</g>
<g id="#71305aff">
<path fill="#71305a" opacity="1.00" d=" M 87.45 63.96 C 91.26 60.53 96.44 58.46 101.60 59.54 C 101.41 59.93 101.02 60.70 100.83 61.09 C 100.49 61.33 99.82 61.82 99.48 62.07 C 96.17 64.63 92.00 65.58 87.92 65.97 C 87.80 65.47 87.57 64.46 87.45 63.96 Z" />
</g>
<g id="#892f82ff">
<path fill="#892f82" opacity="1.00" d=" M 159.84 59.56 C 160.37 59.48 161.45 59.33 161.98 59.26 C 159.98 63.06 159.72 67.59 162.22 71.24 C 161.68 71.18 160.60 71.07 160.06 71.02 C 157.90 67.50 157.97 63.19 159.84 59.56 Z" />
</g>
<g id="#def2f3ff">
<path fill="#def2f3" opacity="1.00" d=" M 99.48 62.07 C 99.82 61.82 100.49 61.33 100.83 61.09 C 105.92 60.23 111.12 60.69 116.25 60.92 C 114.24 65.39 112.11 69.81 109.95 74.21 C 106.45 74.36 102.91 74.54 99.43 74.00 L 99.41 72.81 C 102.47 72.74 105.54 72.67 108.60 72.61 C 110.44 69.22 112.15 65.75 113.72 62.23 C 110.14 62.23 106.56 62.25 102.98 62.29 C 103.65 62.65 104.32 63.01 105.00 63.37 C 107.05 63.13 109.11 62.91 111.17 62.69 C 111.17 63.97 111.16 65.26 111.16 66.55 C 107.24 66.94 103.28 66.92 99.42 66.08 C 99.44 64.74 99.46 63.40 99.48 62.07 Z" />
</g>
<g id="#ffa875ff">
<path fill="#ffa875" opacity="1.00" d=" M 193.18 60.97 C 194.81 60.44 195.37 60.99 194.86 62.63 C 193.24 63.15 192.68 62.60 193.18 60.97 Z" />
</g>
<g id="#a0505aff">
<path fill="#a0505a" opacity="1.00" d=" M 87.92 65.97 C 92.00 65.58 96.17 64.63 99.48 62.07 C 99.46 63.40 99.44 64.74 99.42 66.08 C 99.40 68.32 99.39 70.57 99.41 72.81 L 99.43 74.00 L 99.43 74.95 L 99.43 75.96 C 99.43 76.78 99.41 78.42 99.41 79.24 C 99.43 84.99 99.02 90.78 99.86 96.49 C 99.65 98.63 102.90 98.60 103.29 96.73 C 105.87 100.04 107.44 106.84 102.25 108.41 L 101.92 108.59 C 100.87 107.86 99.83 107.12 98.76 106.43 C 100.41 105.96 102.76 105.31 101.97 103.06 C 98.89 101.33 95.06 102.35 91.69 102.40 L 89.93 102.34 C 88.64 100.45 87.10 98.48 87.35 96.04 C 87.38 85.24 87.32 74.44 87.40 63.65 L 87.45 63.96 C 87.57 64.46 87.80 65.47 87.92 65.97 Z" />
<path fill="#a0505a" opacity="1.00" d=" M 106.60 118.60 C 110.87 118.41 115.14 118.27 119.41 118.13 C 119.15 121.06 119.23 124.01 119.29 126.95 L 119.31 128.35 C 119.36 128.96 119.47 130.18 119.53 130.79 C 119.59 131.25 119.70 132.17 119.75 132.63 C 119.64 133.02 119.42 133.80 119.31 134.19 C 119.05 133.34 118.78 132.49 118.49 131.66 C 117.90 129.66 116.69 127.87 115.05 126.59 C 112.80 126.09 110.50 125.89 108.24 125.45 C 107.75 123.15 107.23 120.86 106.60 118.60 Z" />
</g>
<g id="#fea570ff">
<path fill="#fea570" opacity="1.00" d=" M 206.09 62.09 C 207.71 61.54 208.27 62.09 207.76 63.72 C 206.14 64.28 205.58 63.73 206.09 62.09 Z" />
</g>
<g id="#ffa470ff">
<path fill="#ffa470" opacity="1.00" d=" M 184.06 64.23 C 185.68 63.74 186.24 64.29 185.72 65.91 C 184.08 66.42 183.53 65.86 184.06 64.23 Z" />
</g>
<g id="#fea36aff">
<path fill="#fea36a" opacity="1.00" d=" M 198.18 66.06 C 199.83 65.56 200.38 66.12 199.84 67.74 C 198.20 68.23 197.65 67.67 198.18 66.06 Z" />
</g>
<g id="#ffc3beff">
<path fill="#ffc3be" opacity="1.00" d=" M 179.41 69.27 C 181.15 69.22 182.25 72.21 181.80 73.72 C 180.11 73.50 178.98 70.83 179.41 69.27 Z" />
</g>
<g id="#ffa46eff">
<path fill="#ffa46e" opacity="1.00" d=" M 203.25 70.07 C 204.89 69.58 205.44 70.15 204.89 71.77 C 203.26 72.24 202.71 71.67 203.25 70.07 Z" />
</g>
<g id="#ffa776ff">
<path fill="#ffa776" opacity="1.00" d=" M 195.36 73.17 C 196.98 72.62 197.54 73.16 197.04 74.81 C 195.42 75.34 194.86 74.79 195.36 73.17 Z" />
</g>
<g id="#ffa871ff">
<path fill="#ffa871" opacity="1.00" d=" M 210.00 74.19 C 211.62 73.66 212.17 74.22 211.68 75.85 C 210.05 76.38 209.49 75.83 210.00 74.19 Z" />
</g>
<g id="#d0e7fbff">
<path fill="#d0e7fb" opacity="1.00" d=" M 51.83 81.92 C 52.75 78.87 53.63 74.67 57.68 74.81 L 57.48 75.50 C 53.54 78.41 53.15 83.51 51.79 87.84 C 46.01 108.30 39.94 128.68 34.16 149.15 C 33.16 152.67 32.24 156.24 30.84 159.64 L 29.83 160.22 C 30.22 155.68 31.88 151.42 33.10 147.07 C 39.27 125.33 45.71 103.67 51.83 81.92 Z" />
</g>
<g id="#cbe3faff">
<path fill="#cbe3fa" opacity="1.00" d=" M 99.43 74.95 C 117.62 74.89 135.80 74.87 153.99 74.86 C 159.79 74.80 165.62 74.69 171.38 75.51 C 170.35 75.80 169.33 76.12 168.33 76.48 C 163.55 75.94 158.74 76.14 153.94 76.15 C 135.77 76.01 117.60 76.34 99.43 75.96 L 99.43 74.95 Z" />
</g>
<g id="#983981ff">
<path fill="#983981" opacity="1.00" d=" M 171.38 75.51 C 175.20 75.20 179.03 75.53 182.85 75.24 C 183.62 76.12 184.41 76.99 185.08 77.95 L 185.32 79.34 C 179.19 79.69 173.05 79.52 166.92 79.41 C 167.27 78.68 167.98 77.21 168.33 76.48 C 169.33 76.12 170.35 75.80 171.38 75.51 Z" />
</g>
<g id="#d0e7faff">
<path fill="#d0e7fa" opacity="1.00" d=" M 215.10 74.49 C 217.02 75.07 219.35 75.77 219.85 78.03 C 226.89 101.03 233.78 124.09 240.78 147.11 C 242.05 151.44 243.77 155.69 244.19 160.23 L 243.19 159.64 C 242.07 157.05 241.26 154.34 240.45 151.64 C 233.91 129.83 227.28 108.04 220.73 86.24 C 219.53 82.80 219.39 78.40 215.83 76.43 C 215.65 75.95 215.28 74.98 215.10 74.49 Z" />
</g>
<g id="#ffa36bff">
<path fill="#ffa36b" opacity="1.00" d=" M 189.25 76.16 C 190.89 75.66 191.43 76.23 190.88 77.85 C 189.23 78.33 188.69 77.77 189.25 76.16 Z" />
</g>
<g id="#3fb1b5ff">
<path fill="#3fb1b5" opacity="1.00" d=" M 151.78 87.61 C 154.00 82.63 159.48 80.13 164.74 80.33 C 171.15 80.33 177.56 80.32 183.98 80.30 C 187.54 80.24 190.92 81.51 194.16 82.86 C 195.83 83.69 197.53 84.45 199.25 85.14 C 204.72 87.69 210.31 89.95 215.86 92.31 C 213.91 97.05 209.71 100.24 205.11 102.19 L 204.97 102.20 C 202.40 101.35 199.72 100.77 196.99 100.89 C 190.07 100.97 183.13 101.11 176.22 100.57 C 175.56 99.40 174.93 98.22 174.28 97.06 C 175.19 99.31 176.17 101.54 177.24 103.72 C 178.16 105.75 179.06 107.79 179.92 109.85 C 181.55 114.18 183.48 118.41 184.50 122.94 C 182.02 123.86 179.62 125.00 177.04 125.59 C 172.31 118.53 168.69 110.80 164.31 103.52 C 162.68 100.42 160.30 97.55 159.67 94.04 C 160.13 91.12 163.61 90.72 166.01 90.71 C 173.98 90.68 181.96 90.74 189.94 90.74 C 194.24 90.67 199.11 91.56 202.64 88.48 C 199.83 89.44 196.96 90.45 193.94 90.31 C 184.96 90.22 175.98 90.29 167.01 90.21 C 164.43 90.39 160.98 89.82 159.48 92.52 C 158.48 95.61 160.66 98.42 162.03 101.01 C 167.06 109.27 171.28 118.01 176.56 126.12 C 176.13 126.60 175.29 127.55 174.86 128.02 C 173.58 129.38 172.27 130.72 170.99 132.08 C 164.83 121.23 158.55 110.44 152.36 99.61 C 150.22 96.00 149.87 91.39 151.78 87.61 Z" />
</g>
<g id="#e8e7e6ff">
<path fill="#e8e7e6" opacity="1.00" d=" M 199.25 85.14 C 205.44 85.40 211.34 87.37 217.27 88.98 C 216.83 90.10 216.36 91.21 215.86 92.31 C 210.31 89.95 204.72 87.69 199.25 85.14 Z" />
</g>
<g id="#fe7a6fff">
<path fill="#fe7a6f" opacity="1.00" d=" M 71.03 86.93 C 74.63 86.78 78.24 86.83 81.84 87.11 C 81.74 90.81 83.18 96.03 79.01 98.08 C 76.27 100.22 73.06 97.90 71.30 95.64 C 70.77 92.77 71.02 89.83 71.03 86.93 M 72.11 88.12 C 72.40 91.05 71.16 95.19 74.42 96.85 C 76.38 98.46 79.03 96.87 80.29 95.18 C 81.23 92.87 80.53 90.33 80.24 87.96 C 77.53 88.01 74.82 88.06 72.11 88.12 Z" />
</g>
<g id="#cbeee1ff">
<path fill="#cbeee1" opacity="1.00" d=" M 193.94 90.31 C 196.96 90.45 199.83 89.44 202.64 88.48 C 199.11 91.56 194.24 90.67 189.94 90.74 C 181.96 90.74 173.98 90.68 166.01 90.71 C 163.61 90.72 160.13 91.12 159.67 94.04 C 160.30 97.55 162.68 100.42 164.31 103.52 C 168.69 110.80 172.31 118.53 177.04 125.59 C 179.62 125.00 182.02 123.86 184.50 122.94 C 184.89 123.02 185.66 123.16 186.05 123.23 C 185.89 124.20 185.69 125.16 185.46 126.11 C 185.09 125.54 184.36 124.41 183.99 123.84 C 182.81 124.18 181.63 124.53 180.45 124.87 C 180.39 126.50 180.32 128.13 180.24 129.76 C 180.09 131.09 179.84 132.41 179.62 133.74 L 179.44 134.74 L 179.51 134.01 C 179.70 131.11 179.90 128.22 180.14 125.33 C 178.37 126.21 176.60 127.08 174.86 128.02 C 175.29 127.55 176.13 126.60 176.56 126.12 C 171.28 118.01 167.06 109.27 162.03 101.01 C 160.66 98.42 158.48 95.61 159.48 92.52 C 160.98 89.82 164.43 90.39 167.01 90.21 C 175.98 90.29 184.96 90.22 193.94 90.31 Z" />
<path fill="#cbeee1" opacity="1.00" d=" M 192.04 143.45 C 193.07 142.12 194.16 140.82 195.15 139.46 C 199.97 140.85 204.99 139.97 209.91 140.35 C 212.00 140.36 213.13 142.40 214.54 143.60 C 207.04 143.62 199.53 143.98 192.04 143.45 Z" />
<path fill="#cbeee1" opacity="1.00" d=" M 59.80 142.27 C 66.41 138.56 74.28 140.91 81.46 140.24 C 81.56 140.82 81.74 141.99 81.84 142.57 C 85.01 142.56 88.18 142.55 91.35 142.36 L 91.58 140.91 C 91.63 141.34 91.74 142.20 91.79 142.63 C 87.18 142.52 82.63 143.21 78.05 143.63 C 71.91 143.90 65.75 143.65 59.60 143.61 L 59.80 142.27 Z" />
</g>
<g id="#fd8a80ff">
<path fill="#fd8a80" opacity="1.00" d=" M 100.46 95.87 C 102.02 93.81 103.48 91.68 105.11 89.68 C 104.46 91.83 103.75 93.97 102.84 96.03 C 102.24 95.99 101.06 95.91 100.46 95.87 Z" />
</g>
<g id="#74345bff">
<path fill="#74345b" opacity="1.00" d=" M 99.86 96.49 L 100.46 95.87 C 101.06 95.91 102.24 95.99 102.84 96.03 L 103.29 96.73 C 102.90 98.60 99.65 98.63 99.86 96.49 Z" />
</g>
<g id="#23a8b7ff">
<path fill="#23a8b7" opacity="1.00" d=" M 176.22 100.57 C 183.13 101.11 190.07 100.97 196.99 100.89 C 199.72 100.77 202.40 101.35 204.97 102.20 C 195.80 101.95 186.60 101.81 177.44 102.35 C 177.13 101.91 176.53 101.01 176.22 100.57 Z" />
</g>
<g id="#feeebaff">
<path fill="#feeeba" opacity="1.00" d=" M 63.56 101.46 C 64.59 101.79 65.63 102.12 66.68 102.44 L 65.30 102.59 C 62.57 103.00 59.49 102.76 57.24 104.64 C 63.74 105.24 70.28 104.68 76.78 105.30 L 75.25 105.99 C 71.68 106.38 68.09 106.33 64.51 106.40 C 64.26 106.41 63.76 106.41 63.51 106.41 C 61.37 106.40 59.22 106.43 57.12 106.05 C 56.27 105.03 56.20 103.63 55.79 102.42 C 58.37 102.06 60.95 101.67 63.56 101.46 Z" />
</g>
<g id="#feab71ff">
<path fill="#feab71" opacity="1.00" d=" M 66.68 102.44 C 74.42 102.03 82.18 102.12 89.93 102.34 L 91.69 102.40 L 90.26 102.76 C 81.95 102.99 73.61 103.07 65.30 102.59 L 66.68 102.44 Z" />
</g>
<g id="#e1bc8cff">
<path fill="#e1bc8c" opacity="1.00" d=" M 91.69 102.40 C 95.06 102.35 98.89 101.33 101.97 103.06 C 102.76 105.31 100.41 105.96 98.76 106.43 C 98.32 106.38 97.43 106.27 96.99 106.22 C 96.48 106.17 95.45 106.07 94.93 106.02 L 93.77 105.93 C 88.03 105.92 82.29 105.97 76.56 105.96 L 75.25 105.99 L 76.78 105.30 C 84.65 104.74 92.61 105.78 100.43 104.92 C 100.71 104.47 101.27 103.57 101.54 103.12 C 97.78 103.02 94.02 102.97 90.26 102.76 L 91.69 102.40 Z" />
</g>
<g id="#9ec692ff">
<path fill="#9ec692" opacity="1.00" d=" M 177.44 102.35 C 186.60 101.81 195.80 101.95 204.97 102.20 L 203.71 102.44 C 198.54 103.54 193.24 103.02 188.00 103.13 C 184.47 103.11 180.84 103.50 177.44 102.35 Z" />
</g>
<g id="#ffcf2fff">
<path fill="#ffcf2f" opacity="1.00" d=" M 204.97 102.20 L 205.11 102.19 C 209.66 102.22 214.22 102.29 218.76 102.72 C 218.31 103.86 218.04 105.14 217.18 106.07 C 216.08 106.18 214.98 106.23 213.88 106.21 C 213.73 106.19 213.44 106.15 213.30 106.14 C 205.63 105.25 197.87 105.53 190.19 106.03 C 187.74 106.14 185.29 106.13 182.85 106.28 L 182.28 106.28 C 181.40 106.19 179.64 106.01 178.76 105.92 C 179.13 107.23 179.50 108.55 179.92 109.85 C 179.06 107.79 178.16 105.75 177.24 103.72 C 177.59 104.22 178.30 105.21 178.66 105.70 C 190.45 105.77 202.25 104.80 214.03 105.67 C 215.83 105.97 217.95 105.25 217.55 103.06 C 212.97 102.38 208.32 102.65 203.71 102.44 L 204.97 102.20 Z" />
<path fill="#ffcf2f" opacity="1.00" d=" M 177.85 132.81 C 178.27 133.11 179.09 133.71 179.51 134.01 L 179.44 134.74 C 179.41 134.95 179.35 135.37 179.32 135.58 C 178.88 135.78 177.99 136.18 177.55 136.39 C 174.90 141.04 174.26 146.62 174.43 151.90 C 177.60 149.21 180.08 145.83 183.10 142.98 L 183.54 142.64 C 186.09 142.90 188.64 143.15 191.19 143.38 C 190.87 143.66 190.23 144.21 189.91 144.49 C 185.04 148.38 179.90 152.80 173.55 153.80 C 173.70 149.22 174.11 144.60 175.50 140.21 C 176.34 137.76 177.22 135.32 177.85 132.81 Z" />
</g>
<g id="#fffffeff">
<path fill="#fffffe" opacity="1.00" d=" M 57.24 104.64 C 59.49 102.76 62.57 103.00 65.30 102.59 C 73.61 103.07 81.95 102.99 90.26 102.76 C 94.02 102.97 97.78 103.02 101.54 103.12 C 101.27 103.57 100.71 104.47 100.43 104.92 C 92.61 105.78 84.65 104.74 76.78 105.30 C 70.28 104.68 63.74 105.24 57.24 104.64 Z" />
</g>
<g id="#681f43ff">
<path fill="#681f43" opacity="1.00" d=" M 76.56 105.96 C 82.29 105.97 88.03 105.92 93.77 105.93 L 93.83 107.06 C 88.61 107.06 83.38 107.08 78.16 107.20 C 78.19 109.90 78.04 112.63 78.65 115.28 C 83.58 117.12 89.06 115.11 93.94 117.19 C 88.19 117.96 82.13 118.35 76.63 116.16 C 76.60 112.76 76.60 109.36 76.56 105.96 Z" />
</g>
<g id="#6b4e7eff">
<path fill="#6b4e7e" opacity="1.00" d=" M 93.77 105.93 L 94.93 106.02 C 95.65 109.16 95.87 112.38 95.86 115.59 C 94.29 113.01 93.90 110.02 93.83 107.06 L 93.77 105.93 Z" />
</g>
<g id="#73325aff">
<path fill="#73325a" opacity="1.00" d=" M 94.93 106.02 C 95.45 106.07 96.48 106.17 96.99 106.22 C 96.94 109.47 96.91 112.72 96.84 115.97 C 95.96 116.38 95.08 116.77 94.19 117.15 L 93.94 117.19 C 89.06 115.11 83.58 117.12 78.65 115.28 C 78.04 112.63 78.19 109.90 78.16 107.20 C 83.38 107.08 88.61 107.06 93.83 107.06 C 93.90 110.02 94.29 113.01 95.86 115.59 C 95.87 112.38 95.65 109.16 94.93 106.02 Z" />
<path fill="#73325a" opacity="1.00" d=" M 101.14 115.76 C 106.43 111.43 113.66 112.22 119.87 113.63 C 119.72 115.13 119.57 116.63 119.41 118.13 C 115.14 118.27 110.87 118.41 106.60 118.60 C 104.82 117.57 102.95 116.71 101.14 115.76 Z" />
</g>
<g id="#a0367aff">
<path fill="#a0367a" opacity="1.00" d=" M 178.76 105.92 C 179.64 106.01 181.40 106.19 182.28 106.28 C 182.15 108.39 181.94 110.51 181.67 112.61 C 181.23 111.92 180.36 110.54 179.92 109.85 C 179.50 108.55 179.13 107.23 178.76 105.92 Z" />
</g>
<g id="#9a3b82ff">
<path fill="#9a3b82" opacity="1.00" d=" M 182.85 106.28 C 185.29 106.13 187.74 106.14 190.19 106.03 C 188.80 111.30 187.73 116.65 186.28 121.91 C 186.01 121.87 185.49 121.81 185.22 121.78 C 184.30 120.21 183.55 118.54 182.96 116.82 C 181.43 113.44 183.09 109.80 182.85 106.28 Z" />
</g>
<g id="#fe3424ff">
<path fill="#fe3424" opacity="1.00" d=" M 101.92 108.59 L 102.25 108.41 C 102.83 109.93 103.06 111.67 102.40 113.21 L 101.87 113.31 C 101.17 111.82 101.32 110.08 101.92 108.59 Z" />
</g>
<g id="#6c2c57ff">
<path fill="#6c2c57" opacity="1.00" d=" M 81.64 118.45 C 86.39 118.51 91.24 118.95 95.87 117.61 C 95.29 121.93 95.33 126.29 95.31 130.64 C 94.18 129.35 93.06 128.05 91.94 126.76 C 92.53 126.83 93.72 126.95 94.31 127.02 C 94.42 124.63 94.42 122.23 94.43 119.84 C 90.38 120.65 86.37 121.64 82.42 122.83 C 82.16 121.37 81.89 119.91 81.64 118.45 Z" />
</g>
<g id="#a1505aff">
<path fill="#a1505a" opacity="1.00" d=" M 82.42 122.83 C 86.37 121.64 90.38 120.65 94.43 119.84 C 94.42 122.23 94.42 124.63 94.31 127.02 C 93.72 126.95 92.53 126.83 91.94 126.76 C 88.87 126.08 85.70 126.18 82.92 127.80 C 82.75 126.14 82.59 124.48 82.42 122.83 Z" />
</g>
<g id="#9e3880ff">
<path fill="#9e3880" opacity="1.00" d=" M 180.45 124.87 C 181.63 124.53 182.81 124.18 183.99 123.84 C 184.36 124.41 185.09 125.54 185.46 126.11 L 184.83 126.64 C 183.35 127.75 181.78 128.75 180.24 129.76 C 180.32 128.13 180.39 126.50 180.45 124.87 Z" />
</g>
<g id="#5dbdc1ff">
<path fill="#5dbdc1" opacity="1.00" d=" M 108.24 125.45 C 110.50 125.89 112.80 126.09 115.05 126.59 C 112.75 126.37 110.44 126.43 108.14 126.53 C 107.09 127.79 106.02 129.05 104.95 130.29 C 106.94 130.61 109.61 130.13 110.71 132.32 C 114.23 137.61 116.30 143.72 119.66 149.11 C 119.95 149.02 120.53 148.84 120.82 148.74 C 122.05 147.14 121.28 145.04 120.98 143.26 C 120.01 139.43 119.18 135.55 118.49 131.66 C 118.78 132.49 119.05 133.34 119.31 134.19 L 119.49 135.04 C 119.86 136.76 120.28 138.46 120.73 140.16 C 121.44 143.63 123.65 147.66 120.90 150.79 C 117.98 150.36 114.58 150.94 112.13 148.96 C 109.72 146.51 108.33 143.30 106.50 140.44 C 105.29 138.35 103.96 136.27 103.36 133.91 C 103.97 130.61 106.39 128.12 108.24 125.45 M 106.37 131.00 C 106.36 134.33 109.44 129.62 106.37 131.00 Z" />
</g>
<g id="#fff5ceff">
<path fill="#fff5ce" opacity="1.00" d=" M 119.29 126.95 C 120.38 126.33 121.54 126.06 122.77 126.13 C 122.87 127.59 122.86 129.05 122.88 130.51 C 123.91 131.78 124.55 133.26 124.56 134.92 C 122.87 134.96 121.18 135.00 119.49 135.04 L 119.31 134.19 C 119.42 133.80 119.64 133.02 119.75 132.63 C 119.70 132.17 119.59 131.25 119.53 130.79 C 121.72 130.36 122.01 127.06 119.31 128.35 L 119.29 126.95 Z" />
</g>
<g id="#9b3c83ff">
<path fill="#9b3c83" opacity="1.00" d=" M 174.86 128.02 C 176.60 127.08 178.37 126.21 180.14 125.33 C 179.90 128.22 179.70 131.11 179.51 134.01 C 179.09 133.71 178.27 133.11 177.85 132.81 C 177.12 132.79 175.66 132.76 174.93 132.75 C 175.08 132.47 175.38 131.91 175.53 131.62 C 175.22 131.13 174.60 130.15 174.29 129.66 C 174.43 129.25 174.72 128.43 174.86 128.02 Z" />
</g>
<g id="#e66f77ff">
<path fill="#e66f77" opacity="1.00" d=" M 180.24 129.76 C 181.78 128.75 183.35 127.75 184.83 126.64 C 185.28 127.01 186.17 127.75 186.62 128.12 C 185.34 131.08 182.41 132.53 179.62 133.74 C 179.84 132.41 180.09 131.09 180.24 129.76 Z" />
</g>
<g id="#fffffdff">
<path fill="#fffffd" opacity="1.00" d=" M 119.31 128.35 C 122.01 127.06 121.72 130.36 119.53 130.79 C 119.47 130.18 119.36 128.96 119.31 128.35 Z" />
</g>
<g id="#ffefb7ff">
<path fill="#ffefb7" opacity="1.00" d=" M 186.62 128.12 C 189.89 130.88 194.78 132.41 196.13 136.88 C 191.32 137.21 187.04 139.42 183.54 142.64 L 183.10 142.98 C 182.55 142.98 181.45 142.99 180.90 142.99 C 184.56 139.32 188.99 136.32 194.26 135.72 C 192.23 133.95 190.12 132.27 187.92 130.72 C 185.54 133.11 182.81 135.27 179.32 135.58 C 179.35 135.37 179.41 134.95 179.44 134.74 L 179.62 133.74 C 182.41 132.53 185.34 131.08 186.62 128.12 Z" />
</g>
<g id="#5fbec1ff">
<path fill="#5fbec1" opacity="1.00" d=" M 80.73 132.92 C 81.86 129.39 87.43 128.12 89.47 131.53 C 91.04 134.37 91.10 137.76 91.58 140.91 L 91.35 142.36 C 88.18 142.55 85.01 142.56 81.84 142.57 C 81.74 141.99 81.56 140.82 81.46 140.24 C 81.12 137.81 80.65 135.38 80.73 132.92 Z" />
</g>
<g id="#57abf1ff">
<path fill="#57abf1" opacity="1.00" d=" M 172.28 132.66 C 171.56 131.40 173.64 130.54 174.29 129.66 C 174.60 130.15 175.22 131.13 175.53 131.62 C 175.38 131.91 175.08 132.47 174.93 132.75 C 174.27 132.73 172.94 132.68 172.28 132.66 Z" />
</g>
<g id="#4bb6b9ff">
<path fill="#4bb6b9" opacity="1.00" d=" M 94.86 145.13 C 95.29 140.34 95.23 135.52 95.55 130.73 C 95.77 134.89 95.40 139.05 95.64 143.20 C 96.37 143.42 97.84 143.84 98.57 144.05 C 98.55 143.08 98.52 141.13 98.50 140.16 L 99.10 140.18 C 99.39 148.12 100.76 155.97 101.62 163.87 C 101.41 163.85 100.98 163.81 100.76 163.79 C 100.81 157.27 99.48 150.86 98.89 144.39 C 98.14 144.38 96.63 144.36 95.88 144.35 C 95.42 147.41 93.54 150.73 90.05 150.73 C 85.84 151.43 82.95 147.72 81.54 144.27 C 84.99 143.98 88.46 143.82 91.93 143.70 C 92.22 145.58 92.62 147.45 93.08 149.30 C 93.89 148.01 94.91 146.74 94.86 145.13 Z" />
</g>
<g id="#15a0a5ff">
<path fill="#15a0a5" opacity="1.00" d=" M 106.37 131.00 C 109.44 129.62 106.36 134.33 106.37 131.00 Z" />
</g>
<g id="#d0f0e4ff">
<path fill="#d0f0e4" opacity="1.00" d=" M 99.10 140.18 C 101.56 140.25 104.03 140.33 106.50 140.44 C 108.33 143.30 109.72 146.51 112.13 148.96 C 114.58 150.94 117.98 150.36 120.90 150.79 C 123.65 147.66 121.44 143.63 120.73 140.16 C 138.99 140.25 157.24 140.07 175.50 140.21 C 174.11 144.60 173.70 149.22 173.55 153.80 C 179.90 152.80 185.04 148.38 189.91 144.49 C 199.11 144.28 208.32 144.33 217.52 144.46 C 218.65 150.85 219.54 157.31 219.70 163.80 C 214.18 164.71 208.57 164.26 203.01 164.31 C 173.65 164.38 144.30 164.30 114.94 164.32 C 110.50 164.37 106.03 164.60 101.62 163.87 C 100.76 155.97 99.39 148.12 99.10 140.18 Z" />
<path fill="#d0f0e4" opacity="1.00" d=" M 44.63 151.62 C 49.36 148.96 53.76 145.63 58.99 144.01 C 58.10 150.65 57.64 157.36 56.37 163.94 C 51.27 164.61 46.11 164.26 40.98 164.31 C 35.45 164.24 29.89 164.61 24.38 164.00 C 26.07 162.57 27.89 161.29 29.83 160.22 L 30.84 159.64 C 35.52 157.11 40.01 154.25 44.63 151.62 Z" />
<path fill="#d0f0e4" opacity="1.00" d=" M 59.60 144.44 C 66.91 144.23 74.23 144.57 81.54 144.27 C 82.95 147.72 85.84 151.43 90.05 150.73 C 93.54 150.73 95.42 147.41 95.88 144.35 C 96.63 144.36 98.14 144.38 98.89 144.39 C 99.48 150.86 100.81 157.27 100.76 163.79 C 92.22 164.87 83.58 164.09 75.00 164.33 C 69.12 164.24 63.21 164.70 57.36 163.87 C 57.82 157.36 58.72 150.90 59.60 144.44 Z" />
<path fill="#d0f0e4" opacity="1.00" d=" M 218.44 145.50 C 227.11 149.45 234.82 155.14 243.19 159.64 L 244.19 160.23 C 246.12 161.27 247.87 162.62 249.48 164.11 C 239.91 164.39 230.29 164.57 220.72 164.03 C 219.94 157.85 219.18 151.68 218.44 145.50 Z" />
</g>
</svg>
