<?xml version="1.0" encoding="UTF-8" ?>
<!DOCTYPE svg PUBLIC "-//W3C//DTD SVG 1.1//EN" "http://www.w3.org/Graphics/SVG/1.1/DTD/svg11.dtd">
<svg width="270pt" height="170pt" viewBox="0 0 270 170" version="1.1" xmlns="http://www.w3.org/2000/svg">
<g id="#ffffffff">
<path fill="#ffffff" opacity="1.00" d=" M 0.00 0.00 L 270.00 0.00 L 270.00 170.00 L 0.00 170.00 L 0.00 0.00 M 135.29 70.00 C 133.63 72.35 133.11 75.17 133.37 78.00 C 136.44 77.58 136.89 73.80 137.79 71.37 C 136.97 70.88 136.14 70.42 135.29 70.00 M 117.67 74.28 C 114.47 80.63 112.67 87.54 110.27 94.20 C 108.46 98.29 104.71 101.14 101.00 103.41 C 98.07 101.55 100.77 98.05 101.03 95.46 C 102.55 95.47 104.06 95.49 105.58 95.50 C 107.38 93.32 108.88 90.86 109.40 88.04 C 108.32 85.78 105.99 84.65 104.00 83.33 C 100.09 86.27 99.14 91.12 97.21 95.31 C 94.65 98.55 91.78 102.71 87.25 102.93 C 87.21 100.37 87.57 97.82 88.61 95.46 C 92.71 96.62 96.36 92.93 96.60 88.99 C 97.07 86.03 93.50 85.01 91.82 83.29 C 88.65 85.61 86.90 89.18 85.60 92.77 C 84.38 95.66 83.37 99.28 80.05 100.40 C 80.40 97.10 81.84 94.08 82.57 90.87 C 83.21 87.86 80.01 86.16 78.41 84.13 C 78.96 83.07 79.49 82.01 80.03 80.94 C 78.95 80.36 77.87 79.78 76.79 79.20 C 74.05 82.12 75.47 86.35 73.45 89.57 C 71.29 94.54 67.99 99.53 68.55 105.17 C 69.06 105.32 70.08 105.63 70.58 105.78 C 71.22 99.24 74.35 93.42 76.54 87.34 C 77.21 87.32 78.53 87.29 79.20 87.28 C 80.26 92.79 75.02 97.47 75.69 102.93 C 76.28 105.03 78.20 105.71 80.18 105.72 C 81.11 104.08 82.07 102.45 83.00 100.81 C 84.97 102.42 86.23 105.67 89.09 105.68 C 92.60 106.04 93.91 101.94 96.02 99.87 C 97.05 101.84 98.22 103.73 99.51 105.54 C 100.86 105.59 102.20 105.62 103.55 105.65 C 104.90 104.16 106.22 102.65 107.55 101.15 C 108.44 102.46 109.22 103.84 109.96 105.25 C 111.95 105.38 113.93 105.71 115.89 106.10 C 121.09 103.28 121.84 96.74 123.91 91.77 C 124.58 91.64 125.90 91.40 126.57 91.27 C 125.47 95.23 123.86 99.32 124.56 103.49 C 125.21 105.01 126.66 105.59 128.19 105.79 C 129.32 103.84 130.53 101.94 131.75 100.05 C 132.93 103.41 135.48 106.58 139.42 105.69 C 140.73 104.18 142.02 102.65 143.30 101.12 C 144.87 102.61 145.41 106.10 148.09 105.68 C 150.67 105.97 152.27 103.57 153.38 101.61 C 154.39 97.65 150.24 94.84 150.16 91.02 C 150.24 88.59 152.33 85.90 155.00 86.71 C 153.95 88.99 152.31 91.12 152.54 93.77 C 154.86 92.75 156.56 90.83 158.46 89.22 C 156.81 86.70 154.57 84.73 151.95 83.29 C 150.33 84.44 148.27 85.31 147.41 87.24 C 145.53 89.92 147.81 93.80 145.02 96.03 C 142.22 98.85 139.71 102.60 135.66 103.61 C 135.15 98.80 137.23 94.28 138.88 89.88 C 139.78 88.66 140.45 85.87 142.45 86.67 C 143.47 90.46 139.26 92.36 137.97 95.33 C 142.52 96.43 145.55 90.61 144.61 86.65 C 142.99 85.56 141.42 84.42 139.87 83.26 C 134.23 87.55 133.85 95.27 129.49 100.57 C 128.92 100.61 127.78 100.70 127.21 100.75 C 128.65 95.19 131.41 90.09 132.88 84.55 C 131.72 84.44 130.57 84.33 129.41 84.23 C 128.33 86.00 128.11 88.87 126.00 89.66 C 123.81 88.58 123.20 85.60 121.22 84.08 C 119.87 85.05 118.53 86.04 117.11 86.92 C 117.06 82.89 119.62 79.61 120.97 76.00 C 120.51 74.52 118.90 74.62 117.67 74.28 M 50.82 76.99 C 51.47 78.42 52.17 79.83 52.86 81.24 C 57.84 78.68 63.45 77.86 68.99 78.25 C 66.42 82.41 64.94 87.16 62.23 91.20 C 59.38 92.15 55.63 90.99 53.36 93.03 C 54.13 96.40 58.53 93.91 60.98 94.33 C 60.29 97.46 58.46 100.39 58.53 103.65 C 58.57 105.34 60.58 105.57 61.68 106.36 C 63.07 101.71 63.11 95.31 67.77 92.66 C 66.10 85.71 72.85 80.42 74.22 74.06 C 66.59 76.46 58.34 74.14 50.82 76.99 M 159.71 89.02 C 159.21 93.90 156.74 98.54 157.38 103.52 C 157.36 104.84 158.58 105.88 159.88 105.69 C 160.93 103.41 160.34 100.69 161.73 98.50 C 163.43 95.54 164.38 91.59 167.62 89.97 C 168.37 94.10 166.21 97.82 164.21 101.24 C 163.31 102.67 161.23 103.16 160.93 104.97 C 161.84 106.60 164.00 105.51 165.44 105.45 C 169.37 101.90 170.31 96.47 172.10 91.76 C 172.64 91.66 173.72 91.45 174.26 91.34 C 173.80 95.25 172.17 99.04 172.57 103.02 C 172.73 104.98 174.74 105.70 176.42 105.84 C 177.52 103.92 178.64 102.01 179.89 100.17 C 180.74 101.62 181.57 103.08 182.43 104.52 C 183.01 104.56 184.17 104.65 184.75 104.69 C 187.01 101.48 188.13 97.51 191.09 94.80 C 191.25 95.31 191.57 96.35 191.72 96.87 C 190.28 98.96 189.56 101.25 191.55 103.35 C 189.53 104.68 187.06 105.55 185.57 107.56 C 184.73 111.61 188.94 115.81 193.02 114.61 C 196.89 113.60 199.78 110.37 201.62 106.93 C 199.47 103.83 196.51 101.48 193.23 99.69 C 195.27 97.81 198.63 97.65 199.95 94.96 C 201.16 93.23 201.44 90.64 203.59 89.74 C 205.54 88.78 207.50 87.75 209.12 86.27 C 207.11 86.66 205.13 87.23 203.15 87.76 C 200.76 86.23 198.31 84.79 195.91 83.27 C 193.77 85.09 191.53 87.05 190.83 89.90 C 189.74 93.99 187.88 98.01 184.47 100.69 C 184.15 95.05 187.74 90.26 188.60 84.87 C 187.46 84.71 186.33 84.55 185.20 84.39 C 183.55 87.97 182.36 91.77 180.41 95.22 C 179.04 97.65 178.32 100.85 175.38 101.90 C 176.11 95.99 178.81 90.64 180.89 85.16 C 180.00 84.47 179.04 83.88 178.11 83.26 C 176.52 85.58 176.10 89.34 172.85 89.88 C 172.40 87.45 171.24 85.28 169.00 84.10 C 167.62 85.63 166.22 87.19 164.49 88.34 C 165.15 83.73 168.28 79.83 168.76 75.25 C 168.04 74.98 166.58 74.44 165.85 74.17 C 163.70 79.07 162.00 84.17 159.71 89.02 Z" />
<path fill="#ffffff" opacity="1.00" d=" M 89.58 94.15 C 89.48 91.06 91.61 88.58 93.11 86.08 C 96.02 88.62 92.50 93.12 89.58 94.15 Z" />
<path fill="#ffffff" opacity="1.00" d=" M 102.02 93.13 C 102.58 90.33 103.79 87.14 106.84 86.32 C 106.58 88.82 105.37 94.60 102.02 93.13 Z" />
<path fill="#ffffff" opacity="1.00" d=" M 193.97 95.89 C 193.96 92.54 194.80 87.87 198.39 86.62 C 198.51 89.53 199.73 92.99 197.31 95.32 C 196.21 95.59 195.10 95.78 193.97 95.89 Z" />
<path fill="#ffffff" opacity="1.00" d=" M 117.42 91.09 L 117.90 90.24 C 118.42 90.34 119.46 90.53 119.98 90.63 C 119.56 95.46 117.29 100.05 114.03 103.59 C 112.37 103.50 111.83 102.70 112.39 101.20 C 113.73 97.68 115.82 94.49 117.42 91.09 Z" />
<path fill="#ffffff" opacity="1.00" d=" M 144.29 100.09 C 145.17 98.38 146.07 96.69 146.99 95.01 C 148.71 97.36 149.98 100.06 149.98 103.02 C 147.75 102.78 145.99 101.43 144.29 100.09 Z" />
<path fill="#ffffff" opacity="1.00" d=" M 189.48 110.29 C 188.90 107.43 190.99 104.36 194.00 104.29 C 195.76 105.45 196.62 107.51 197.86 109.15 C 195.65 111.73 192.30 112.09 189.48 110.29 Z" />
</g>
<g id="#030c20ff">
<path fill="#030c20" opacity="1.00" d=" M 135.29 70.00 C 136.14 70.42 136.97 70.88 137.79 71.37 C 136.89 73.80 136.44 77.58 133.37 78.00 C 133.11 75.17 133.63 72.35 135.29 70.00 Z" />
<path fill="#030c20" opacity="1.00" d=" M 117.67 74.28 C 118.90 74.62 120.51 74.52 120.97 76.00 C 119.62 79.61 117.06 82.89 117.11 86.92 C 118.53 86.04 119.87 85.05 121.22 84.08 C 123.20 85.60 123.81 88.58 126.00 89.66 C 128.11 88.87 128.33 86.00 129.41 84.23 C 130.57 84.33 131.72 84.44 132.88 84.55 C 131.41 90.09 128.65 95.19 127.21 100.75 C 127.78 100.70 128.92 100.61 129.49 100.57 C 133.85 95.27 134.23 87.55 139.87 83.26 C 141.42 84.42 142.99 85.56 144.61 86.65 C 145.55 90.61 142.52 96.43 137.97 95.33 C 139.26 92.36 143.47 90.46 142.45 86.67 C 140.45 85.87 139.78 88.66 138.88 89.88 C 137.23 94.28 135.15 98.80 135.66 103.61 C 139.71 102.60 142.22 98.85 145.02 96.03 C 147.81 93.80 145.53 89.92 147.41 87.24 C 148.27 85.31 150.33 84.44 151.95 83.29 C 154.57 84.73 156.81 86.70 158.46 89.22 C 156.56 90.83 154.86 92.75 152.54 93.77 C 152.31 91.12 153.95 88.99 155.00 86.71 C 152.33 85.90 150.24 88.59 150.16 91.02 C 150.24 94.84 154.39 97.65 153.38 101.61 C 152.27 103.57 150.67 105.97 148.09 105.68 C 145.41 106.10 144.87 102.61 143.30 101.12 C 142.02 102.65 140.73 104.18 139.42 105.69 C 135.48 106.58 132.93 103.41 131.75 100.05 C 130.53 101.94 129.32 103.84 128.19 105.79 C 126.66 105.59 125.21 105.01 124.56 103.49 C 123.86 99.32 125.47 95.23 126.57 91.27 C 125.90 91.40 124.58 91.64 123.91 91.77 C 121.84 96.74 121.09 103.28 115.89 106.10 C 113.93 105.71 111.95 105.38 109.96 105.25 C 109.22 103.84 108.44 102.46 107.55 101.15 C 106.22 102.65 104.90 104.16 103.55 105.65 C 102.20 105.62 100.86 105.59 99.51 105.54 C 98.22 103.73 97.05 101.84 96.02 99.87 C 93.91 101.94 92.60 106.04 89.09 105.68 C 86.23 105.67 84.97 102.42 83.00 100.81 C 82.07 102.45 81.11 104.08 80.18 105.72 C 78.20 105.71 76.28 105.03 75.69 102.93 C 75.02 97.47 80.26 92.79 79.20 87.28 C 78.53 87.29 77.21 87.32 76.54 87.34 C 74.35 93.42 71.22 99.24 70.58 105.78 C 70.08 105.63 69.06 105.32 68.55 105.17 C 67.99 99.53 71.29 94.54 73.45 89.57 C 75.47 86.35 74.05 82.12 76.79 79.20 C 77.87 79.78 78.95 80.36 80.03 80.94 C 79.49 82.01 78.96 83.07 78.41 84.13 C 80.01 86.16 83.21 87.86 82.57 90.87 C 81.84 94.08 80.40 97.10 80.05 100.40 C 83.37 99.28 84.38 95.66 85.60 92.77 C 86.90 89.18 88.65 85.61 91.82 83.29 C 93.50 85.01 97.07 86.03 96.60 88.99 C 96.36 92.93 92.71 96.62 88.61 95.46 C 87.57 97.82 87.21 100.37 87.25 102.93 C 91.78 102.71 94.65 98.55 97.21 95.31 C 99.14 91.12 100.09 86.27 104.00 83.33 C 105.99 84.65 108.32 85.78 109.40 88.04 C 108.88 90.86 107.38 93.32 105.58 95.50 C 104.06 95.49 102.55 95.47 101.03 95.46 C 100.77 98.05 98.07 101.55 101.00 103.41 C 104.71 101.14 108.46 98.29 110.27 94.20 C 112.67 87.54 114.47 80.63 117.67 74.28 M 89.58 94.15 C 92.50 93.12 96.02 88.62 93.11 86.08 C 91.61 88.58 89.48 91.06 89.58 94.15 M 102.02 93.13 C 105.37 94.60 106.58 88.82 106.84 86.32 C 103.79 87.14 102.58 90.33 102.02 93.13 M 117.42 91.09 C 115.82 94.49 113.73 97.68 112.39 101.20 C 111.83 102.70 112.37 103.50 114.03 103.59 C 117.29 100.05 119.56 95.46 119.98 90.63 C 119.46 90.53 118.42 90.34 117.90 90.24 L 117.42 91.09 M 144.29 100.09 C 145.99 101.43 147.75 102.78 149.98 103.02 C 149.98 100.06 148.71 97.36 146.99 95.01 C 146.07 96.69 145.17 98.38 144.29 100.09 Z" />
<path fill="#030c20" opacity="1.00" d=" M 50.82 76.99 C 58.34 74.14 66.59 76.46 74.22 74.06 C 72.85 80.42 66.10 85.71 67.77 92.66 C 63.11 95.31 63.07 101.71 61.68 106.36 C 60.58 105.57 58.57 105.34 58.53 103.65 C 58.46 100.39 60.29 97.46 60.98 94.33 C 58.53 93.91 54.13 96.40 53.36 93.03 C 55.63 90.99 59.38 92.15 62.23 91.20 C 64.94 87.16 66.42 82.41 68.99 78.25 C 63.45 77.86 57.84 78.68 52.86 81.24 C 52.17 79.83 51.47 78.42 50.82 76.99 Z" />
<path fill="#030c20" opacity="1.00" d=" M 159.71 89.02 C 162.00 84.17 163.70 79.07 165.85 74.17 C 166.58 74.44 168.04 74.98 168.76 75.25 C 168.28 79.83 165.15 83.73 164.49 88.34 C 166.22 87.19 167.62 85.63 169.00 84.10 C 171.24 85.28 172.40 87.45 172.85 89.88 C 176.10 89.34 176.52 85.58 178.11 83.26 C 179.04 83.88 180.00 84.47 180.89 85.16 C 178.81 90.64 176.11 95.99 175.38 101.90 C 178.32 100.85 179.04 97.65 180.41 95.22 C 182.36 91.77 183.55 87.97 185.20 84.39 C 186.33 84.55 187.46 84.71 188.60 84.87 C 187.74 90.26 184.15 95.05 184.47 100.69 C 187.88 98.01 189.74 93.99 190.83 89.90 C 191.53 87.05 193.77 85.09 195.91 83.27 C 198.31 84.79 200.76 86.23 203.15 87.76 C 205.13 87.23 207.11 86.66 209.12 86.27 C 207.50 87.75 205.54 88.78 203.59 89.74 C 201.44 90.64 201.16 93.23 199.95 94.96 C 198.63 97.65 195.27 97.81 193.23 99.69 C 196.51 101.48 199.47 103.83 201.62 106.93 C 199.78 110.37 196.89 113.60 193.02 114.61 C 188.94 115.81 184.73 111.61 185.57 107.56 C 187.06 105.55 189.53 104.68 191.55 103.35 C 189.56 101.25 190.28 98.96 191.72 96.87 C 191.57 96.35 191.25 95.31 191.09 94.80 C 188.13 97.51 187.01 101.48 184.75 104.69 C 184.17 104.65 183.01 104.56 182.43 104.52 C 181.57 103.08 180.74 101.62 179.89 100.17 C 178.64 102.01 177.52 103.92 176.42 105.84 C 174.74 105.70 172.73 104.98 172.57 103.02 C 172.17 99.04 173.80 95.25 174.26 91.34 C 173.72 91.45 172.64 91.66 172.10 91.76 C 170.31 96.47 169.37 101.90 165.44 105.45 C 164.00 105.51 161.84 106.60 160.93 104.97 C 161.23 103.16 163.31 102.67 164.21 101.24 C 166.21 97.82 168.37 94.10 167.62 89.97 C 164.38 91.59 163.43 95.54 161.73 98.50 C 160.34 100.69 160.93 103.41 159.88 105.69 C 158.58 105.88 157.36 104.84 157.38 103.52 C 156.74 98.54 159.21 93.90 159.71 89.02 M 193.97 95.89 C 195.10 95.78 196.21 95.59 197.31 95.32 C 199.73 92.99 198.51 89.53 198.39 86.62 C 194.80 87.87 193.96 92.54 193.97 95.89 M 189.48 110.29 C 192.30 112.09 195.65 111.73 197.86 109.15 C 196.62 107.51 195.76 105.45 194.00 104.29 C 190.99 104.36 188.90 107.43 189.48 110.29 Z" />
</g>
</svg>
