<?xml version="1.0" encoding="UTF-8"?>
<svg id="_图层_2" data-name="图层 2" xmlns="http://www.w3.org/2000/svg" viewBox="0 0 270 170">
  <defs>
    <style>
      .cls-1 {
        fill: #fff;
      }
    </style>
  </defs>
  <g id="_图层_1-2" data-name="图层 1">
    <rect class="cls-1" width="270" height="170"/>
    <g>
      <path d="M173.67,89.18c-5.23,6.95-12.23,12.81-20.27,16.26-2.2.94-6.26,2.95-7.54-.04-.79-6.25,1.57-16.28-1.74-21.75-.22-.37-1.58-1.78-1.45-1.97,10.48-1.18,18.72-5.09,21.55-15.91,1.56-5.98,1.68-12.58-1.29-18.13-.42-.78-2.64-3.66-2.69-3.98-.07-.47.6-2.24.72-2.98.37-2.31.21-4.61-.28-6.88-.12-.53-.77-2.96-1.06-3.19-1.39-1.07-6.96,1.31-8.5,2.08-1.05.52-4.51,2.86-5.22,2.93s-3.13-.71-4.11-.86c-5.41-.87-11.3-.92-16.72,0-.98.17-3.03.88-3.76.87s-2.66-1.46-3.48-1.89c-2.4-1.26-7.37-3.8-10.02-3.29-.7.13-.93,1.4-1.11,2.03-.77,2.59-1.04,5.53-.62,8.21.12.79.79,2.54.69,3.13-.06.36-1.54,2-1.9,2.56-3.89,5.99-3.64,14.03-1.64,20.66,2.84,9.39,10.42,13.1,19.59,14.45.86.13,1.95-.36,1.08.94-.66.98-1.31,1.59-1.78,2.84-.28.76-.54,2.68-.97,3.1-.98.94-5.3,1.4-6.67,1.28-8.19-.72-8.36-11.29-16.26-10.33-4.08.49,1.88,3.55,2.66,4.38,2.72,2.86,3.66,8.14,6.78,10.18,2.74,1.8,6.77,2.07,9.96,1.88.86-.05,2.54-.54,3.19-.52.69.02.23.99.22,1.53-.03,2.45.42,5.23.17,7.57-.4,3.76-3.32,2.81-5.89,1.87-12.17-4.43-23.49-15.59-28.24-27.62C72.24,41,104.67,2.67,144.12,10.96c34.91,7.34,51.16,49.54,29.55,78.23Z"/>
      <path d="M86.63,156.68c-7.13,4.68-20.71,4.88-27.13-1.08-7.44-6.92-7.07-26.14-1.62-34.14,4.91-7.21,16.69-7.94,24.35-5.51.54.17,2.54.92,2.66,1.42.33,1.31-1.63,6.07-1.6,7.77-3.63-.66-6.81-1.84-10.62-1.46-9.9.98-10.74,14.08-8.33,21.46,2.04,6.24,7.18,7.03,13.04,5.92v-8.23c0-.41-.43-.09-.46-.09h-5.36c-.68-.82-.27-1.98-.27-2.86,0-1.82-.02-3.64,0-5.46h15.35v22.29Z"/>
      <path d="M136.57,116.63v15.91h12.21v-15.91h9.25v42.27s-.43.46-.46.46h-8.51s-.28-.26-.28-.28v-17.94s-.26-.28-.28-.28h-11.93v18.03c0,.12-.9.46-1.02.46h-7.95s-.28-.26-.28-.28v-42.45h9.25Z"/>
      <path d="M201.59,116.63c.64.2.08,2.96.08,3.61,0,2.99.02,6.1.03,9.08,0,.59.31,1.27.17,1.92,1.52-.9,3.19-1.52,4.95-1.8,6.47-1.02,11.06,1.48,12.75,7.86,1.14,4.32.91,12.84-.84,17-3.22,7.65-13.04,6.76-18.99,3.01-.6,1.77.03,1.92-2.03,2.05-1.69.1-3.62.03-5.28-.19v-42.27s.26-.28.28-.28h8.88ZM209.19,137.8c-2-1.54-5.41-.82-7.42.47l.12,13.3c3.14.98,7.48,2.32,8.7-1.89.8-2.77,1.11-9.95-1.4-11.88Z"/>
      <path d="M170.97,130.14c.09.34.17.65.19,1.01.46,5.87-.54,12.49,0,18.32.42,4.59,5.23,3.22,8.15,1.83l.07-20.8c.05-.07.69-.36.75-.36h8.14s.28.26.28.28v28.76l-6.17.19-.59-2.05c-6.21,4.15-18.28,4.7-19.83-4.58-1.11-6.65.35-14.95-.24-21.78-.07-.24.32-.82.47-.82h8.79Z"/>
      <path d="M116.96,130.32c1.85-.04,3.8-.38,5.65-.2s.84,2.36.81,3.61c-.03,1.39.04,2.78,0,4.17h-6.47v12.3c0,.73,1.42,1.92,2.12,2.14,1.6.51,3.04-.21,4.54.17v6.01c0,.9-2.91,1.48-3.63,1.55-3.82.38-8.08-.5-10.5-3.69s-1.85-13.16-1.78-17.47c0-.25.28-1.01-.08-1.01h-4.25c-.2,0-.27-.45-.29-.64-.07-.61-.06-5.42.09-5.66l4.54-1.1v-8.69l8.79-.19c.16-.02.46.19.46.28v8.42Z"/>
      <path d="M100.04,130.14l.09,29.04c-.87-.28-9.06.68-9.06-.28v-28.49s.26-.28.28-.28h8.69Z"/>
      <path d="M99.51,119.1c5.2,5.51-4.42,13.1-8.29,6.17-3.03-5.42,4.2-10.49,8.29-6.17Z"/>
    </g>
  </g>
</svg>