<?xml version="1.0" encoding="UTF-8" ?>
<!DOCTYPE svg PUBLIC "-//W3C//DTD SVG 1.1//EN" "http://www.w3.org/Graphics/SVG/1.1/DTD/svg11.dtd">
<svg width="270pt" height="170pt" viewBox="0 0 270 170" version="1.1" xmlns="http://www.w3.org/2000/svg">
<g id="#ffffffff">
<path fill="#ffffff" opacity="1.00" d=" M 0.00 0.00 L 270.00 0.00 L 270.00 170.00 L 0.00 170.00 L 0.00 0.00 M 91.69 35.66 C 91.21 36.58 90.73 37.50 90.24 38.42 C 87.38 38.73 83.95 38.56 81.80 40.83 C 80.21 42.98 81.11 45.68 81.57 48.05 C 83.58 55.88 81.84 63.98 82.25 71.92 C 82.54 74.14 85.17 74.81 87.02 75.14 C 93.04 76.01 99.04 74.17 105.08 74.69 C 108.77 74.95 114.18 74.89 115.16 70.37 C 116.34 61.95 115.86 53.38 115.34 44.92 C 115.11 42.95 115.13 40.72 113.92 39.05 C 111.39 36.98 107.97 38.00 105.01 37.91 C 102.66 36.09 100.84 33.34 97.80 32.59 C 95.37 32.39 93.59 34.47 91.69 35.66 M 159.56 33.80 C 154.17 35.62 149.25 39.32 146.66 44.46 C 144.28 49.28 144.08 54.81 144.55 60.06 C 145.62 67.19 151.71 72.98 158.91 73.63 C 172.37 76.75 186.69 65.75 187.33 52.00 C 187.15 44.99 182.40 38.93 176.29 35.88 C 171.30 32.81 165.13 32.79 159.56 33.80 M 229.35 34.36 C 223.61 37.40 217.70 40.42 212.97 44.96 C 214.54 46.14 216.11 47.31 217.68 48.47 C 217.81 54.87 217.80 61.27 217.68 67.66 C 216.24 69.55 212.33 71.71 214.73 74.28 C 217.63 76.45 221.59 75.40 224.95 75.33 C 233.60 74.51 242.29 76.27 250.93 75.17 C 251.74 72.36 250.17 70.13 248.69 67.93 C 248.25 61.85 249.03 55.70 248.38 49.61 C 249.71 48.03 251.13 46.53 252.39 44.89 C 251.58 43.25 249.89 42.43 248.41 41.52 C 243.56 38.79 239.28 35.01 233.98 33.14 C 232.35 32.53 230.82 33.83 229.35 34.36 M 36.73 37.00 C 33.20 37.67 29.61 38.13 26.02 37.71 C 22.17 37.32 17.48 37.55 15.04 41.03 C 12.55 43.34 13.88 46.84 14.09 49.74 C 14.97 56.53 13.93 63.45 14.78 70.20 C 17.62 73.83 22.70 74.77 27.05 74.02 C 32.07 73.17 37.70 74.08 42.14 71.17 C 45.85 68.25 44.52 63.07 44.41 59.03 C 43.56 53.06 45.00 46.93 43.51 41.05 C 42.83 38.11 39.61 36.34 36.73 37.00 M 84.54 107.56 C 85.84 110.58 89.27 111.32 92.23 111.18 C 93.18 113.18 94.98 115.13 94.48 117.50 C 93.86 117.47 92.63 117.41 92.01 117.38 C 89.62 116.36 87.11 116.97 84.84 117.98 C 82.78 118.98 79.60 118.80 78.26 120.85 C 77.83 126.44 77.50 132.07 77.73 137.69 C 80.68 136.61 83.75 135.04 86.98 135.75 C 92.95 136.97 98.79 139.18 104.96 139.17 C 108.74 138.94 112.36 137.48 115.53 135.48 C 116.88 129.64 116.81 123.54 117.10 117.56 C 112.69 118.57 108.61 120.59 104.21 121.64 C 103.13 119.82 101.83 118.11 101.08 116.13 C 101.71 114.21 102.62 112.41 103.45 110.59 C 106.21 111.71 109.65 110.77 110.70 107.80 C 113.23 103.52 107.14 97.90 103.19 101.12 C 100.29 103.68 99.58 107.82 97.72 111.10 C 94.98 107.62 94.89 101.56 89.93 100.33 C 86.00 99.02 82.21 104.19 84.54 107.56 M 155.54 100.39 C 155.27 101.69 155.02 102.99 154.78 104.30 C 153.38 104.53 151.99 104.76 150.60 105.00 C 148.21 105.31 146.23 106.84 144.64 108.56 C 144.53 108.89 144.32 109.55 144.22 109.88 C 142.46 114.12 144.58 118.68 144.56 123.06 C 145.17 127.84 142.71 133.48 146.72 137.27 C 148.74 137.29 150.77 137.31 152.77 136.96 C 162.25 136.10 171.72 138.00 181.21 137.12 C 183.75 137.65 186.67 135.86 186.66 133.11 C 186.84 128.95 186.01 124.82 186.22 120.66 C 185.90 116.29 187.28 111.54 185.33 107.45 C 183.08 104.22 178.66 105.80 175.38 105.17 C 175.03 103.80 174.72 102.42 174.43 101.04 L 172.88 101.01 L 174.64 100.28 C 168.29 99.74 161.89 100.13 155.54 100.39 M 241.76 101.73 C 241.58 102.80 241.41 103.88 241.25 104.95 C 232.41 105.00 223.53 104.46 214.74 105.64 C 213.94 110.58 212.88 115.52 212.65 120.51 C 213.43 121.45 214.35 122.24 215.23 123.08 C 215.51 127.41 215.65 131.75 215.78 136.09 C 215.76 137.82 216.51 139.68 218.07 140.59 C 226.02 140.05 234.27 143.12 241.92 139.62 C 245.92 139.18 250.57 140.40 254.13 138.13 C 254.58 133.09 254.14 128.03 253.83 123.00 C 254.51 121.83 255.54 120.93 256.45 119.95 C 256.19 114.60 252.67 110.15 251.40 105.03 C 249.91 104.93 248.42 104.85 246.94 104.76 C 246.85 103.96 246.65 102.37 246.55 101.57 C 244.95 101.61 243.35 101.66 241.76 101.73 M 29.30 103.44 C 28.66 104.46 28.07 105.50 27.52 106.57 C 25.82 106.11 24.51 104.94 23.12 103.93 C 22.83 104.55 22.25 105.80 21.96 106.43 C 20.58 106.66 18.90 107.66 17.98 106.04 C 16.93 104.09 15.72 105.72 14.67 106.66 C 12.19 107.57 9.10 108.34 8.03 111.08 C 6.34 115.91 7.72 121.08 7.83 126.04 C 8.04 129.07 7.62 132.67 9.99 135.02 C 12.11 137.26 15.30 137.68 18.19 138.08 C 25.69 138.70 33.31 138.57 40.68 136.94 C 43.21 136.34 45.32 134.73 47.03 132.83 L 46.24 132.99 C 48.19 132.38 48.45 129.78 48.44 128.03 C 48.21 122.20 48.69 116.35 48.14 110.54 C 47.70 108.68 47.82 106.38 46.16 105.11 C 45.39 105.13 43.85 105.16 43.09 105.18 C 42.19 104.42 41.32 103.62 40.35 102.95 C 39.67 103.76 39.01 104.57 38.36 105.40 C 38.52 107.11 38.63 108.83 38.68 110.55 L 37.76 110.26 L 37.20 110.57 C 37.73 107.69 37.96 104.74 35.09 103.06 C 34.13 104.00 33.17 104.94 32.21 105.88 C 31.25 105.06 30.33 104.18 29.30 103.44 Z" />
<path fill="#ffffff" opacity="1.00" d=" M 223.16 48.80 C 223.81 47.92 224.46 47.05 225.11 46.17 C 230.31 46.04 235.51 46.47 240.71 46.41 C 241.42 47.27 242.12 48.12 242.84 48.97 C 242.81 54.95 242.83 60.94 242.89 66.92 C 241.95 67.93 241.03 68.95 240.11 69.98 C 235.32 69.72 230.52 69.80 225.73 70.01 C 224.98 69.08 224.20 68.18 223.56 67.19 C 223.27 61.06 223.55 54.92 223.16 48.80 M 230.30 48.40 C 227.94 49.85 225.18 51.88 225.75 55.07 C 226.08 58.44 229.57 59.61 231.69 61.70 C 230.76 61.61 228.92 61.45 227.99 61.36 C 227.10 62.58 226.21 63.81 225.34 65.05 C 227.09 66.13 228.88 67.13 230.72 68.06 L 230.21 69.20 C 231.69 69.22 233.18 69.24 234.66 69.24 C 236.84 66.58 241.69 65.15 240.72 60.88 C 240.30 57.31 235.74 57.18 234.30 54.29 C 236.72 54.96 240.58 54.80 239.85 51.25 C 237.18 49.93 235.15 46.56 232.01 46.85 C 231.58 47.24 230.73 48.01 230.30 48.40 Z" />
<path fill="#ffffff" opacity="1.00" d=" M 37.28 49.33 C 38.74 49.30 38.81 51.80 37.28 51.70 C 35.88 51.72 35.83 49.25 37.28 49.33 Z" />
<path fill="#ffffff" opacity="1.00" d=" M 219.74 49.02 L 221.25 47.94 C 221.69 54.68 221.57 61.44 221.65 68.19 C 221.15 68.03 220.15 67.72 219.65 67.56 C 219.54 61.39 219.42 55.18 219.74 49.02 Z" />
<path fill="#ffffff" opacity="1.00" d=" M 32.40 60.22 C 35.74 60.27 30.99 63.20 32.40 60.22 Z" />
<path fill="#ffffff" opacity="1.00" d=" M 88.56 105.17 C 90.03 104.80 90.54 105.28 90.07 106.63 C 88.58 107.02 88.07 106.53 88.56 105.17 Z" />
<path fill="#ffffff" opacity="1.00" d=" M 105.19 104.91 C 106.85 104.37 107.42 104.90 106.92 106.51 C 105.26 107.05 104.69 106.52 105.19 104.91 Z" />
</g>
<g id="#002a2aff">
<path fill="#002a2a" opacity="1.00" d=" M 91.69 35.66 C 93.59 34.47 95.37 32.39 97.80 32.59 C 100.84 33.34 102.66 36.09 105.01 37.91 C 107.97 38.00 111.39 36.98 113.92 39.05 C 115.13 40.72 115.11 42.95 115.34 44.92 C 115.86 53.38 116.34 61.95 115.16 70.37 C 114.18 74.89 108.77 74.95 105.08 74.69 C 99.04 74.17 93.04 76.01 87.02 75.14 C 85.17 74.81 82.54 74.14 82.25 71.92 C 81.84 63.98 83.58 55.88 81.57 48.05 C 81.11 45.68 80.21 42.98 81.80 40.83 C 83.95 38.56 87.38 38.73 90.24 38.42 C 90.73 37.50 91.21 36.58 91.69 35.66 M 96.43 34.07 C 96.58 35.48 97.25 35.73 98.43 34.82 C 98.28 33.41 97.61 33.15 96.43 34.07 M 92.59 36.53 C 92.05 37.75 91.56 38.99 91.11 40.25 C 95.53 40.70 99.97 40.38 104.39 40.08 C 103.54 38.87 102.92 37.43 101.72 36.52 C 98.69 36.20 95.61 36.18 92.59 36.53 M 109.43 38.78 C 110.59 41.61 111.41 44.59 111.50 47.66 C 111.81 54.07 112.14 60.51 111.56 66.91 C 111.21 68.04 111.50 70.05 109.94 70.27 C 105.63 70.85 101.28 70.18 96.95 70.38 C 93.74 70.29 90.37 70.98 87.28 69.84 C 86.27 64.96 86.99 59.92 86.38 54.99 C 85.78 50.07 85.35 45.10 85.97 40.16 C 84.40 40.92 82.09 41.77 82.60 44.00 C 83.32 49.63 84.25 55.27 83.79 60.97 C 83.89 64.86 82.80 69.02 84.21 72.73 C 88.08 74.52 92.50 73.60 96.60 73.52 C 101.36 73.04 106.20 73.71 110.92 72.88 C 114.18 71.90 114.11 67.73 114.38 64.97 C 114.49 57.33 114.90 49.55 113.31 42.03 C 113.24 39.88 110.91 39.63 109.43 38.78 M 87.45 41.50 C 86.63 50.65 89.04 59.78 88.32 68.96 C 95.47 68.61 102.64 68.56 109.78 69.10 C 111.46 59.90 110.30 50.54 109.34 41.33 C 106.90 40.80 104.42 40.91 101.96 41.27 C 97.14 41.93 92.29 41.30 87.45 41.50 Z" />
<path fill="#002a2a" opacity="1.00" d=" M 176.43 50.22 C 177.20 52.30 177.64 54.63 176.53 56.69 C 175.63 54.87 174.96 51.90 176.43 50.22 Z" />
<path fill="#002a2a" opacity="1.00" d=" M 144.56 123.06 C 144.58 118.68 142.46 114.12 144.22 109.88 C 144.15 113.29 144.60 116.68 145.10 120.05 C 146.00 125.78 143.87 131.88 146.72 137.27 C 142.71 133.48 145.17 127.84 144.56 123.06 Z" />
<path fill="#002a2a" opacity="1.00" d=" M 152.77 136.96 C 156.92 136.25 161.15 136.22 165.35 136.34 C 165.67 136.33 166.31 136.33 166.63 136.33 C 171.50 136.41 176.37 136.65 181.21 137.12 C 171.72 138.00 162.25 136.10 152.77 136.96 Z" />
</g>
<g id="#1f2020ff">
<path fill="#1f2020" opacity="1.00" d=" M 159.56 33.80 C 165.13 32.79 171.30 32.81 176.29 35.88 C 182.40 38.93 187.15 44.99 187.33 52.00 C 186.69 65.75 172.37 76.75 158.91 73.63 C 151.71 72.98 145.62 67.19 144.55 60.06 C 144.08 54.81 144.28 49.28 146.66 44.46 C 149.25 39.32 154.17 35.62 159.56 33.80 M 146.61 47.91 C 144.62 55.02 144.73 63.97 150.83 69.09 C 155.93 72.79 162.90 74.16 168.97 72.29 C 178.00 70.32 185.00 62.08 186.22 53.04 C 186.69 46.10 181.74 40.04 175.87 36.95 C 171.11 34.07 165.38 33.89 160.02 34.67 C 154.11 37.14 148.19 41.35 146.61 47.91 Z" />
<path fill="#1f2020" opacity="1.00" d=" M 221.41 43.19 C 225.27 39.55 231.33 35.54 236.66 38.44 C 239.45 39.71 242.52 40.87 244.40 43.44 C 236.77 42.53 229.05 42.11 221.41 43.19 M 226.85 40.45 C 230.88 41.87 235.23 41.30 239.42 41.53 C 237.39 40.37 235.36 39.08 233.03 38.66 C 230.89 38.92 228.87 39.75 226.85 40.45 Z" />
<path fill="#1f2020" opacity="1.00" d=" M 218.79 46.11 C 219.66 45.05 222.15 45.59 222.25 47.02 C 221.37 48.01 218.85 47.56 218.79 46.11 Z" />
<path fill="#1f2020" opacity="1.00" d=" M 230.30 48.40 C 230.73 48.01 231.58 47.24 232.01 46.85 C 235.15 46.56 237.18 49.93 239.85 51.25 C 240.58 54.80 236.72 54.96 234.30 54.29 C 235.74 57.18 240.30 57.31 240.72 60.88 C 241.69 65.15 236.84 66.58 234.66 69.24 C 233.18 69.24 231.69 69.22 230.21 69.20 L 230.72 68.06 C 228.88 67.13 227.09 66.13 225.34 65.05 C 226.21 63.81 227.10 62.58 227.99 61.36 C 228.92 61.45 230.76 61.61 231.69 61.70 C 229.57 59.61 226.08 58.44 225.75 55.07 C 225.18 51.88 227.94 49.85 230.30 48.40 M 227.58 56.47 C 229.13 57.94 230.89 60.07 233.09 60.17 C 233.62 59.95 234.69 59.53 235.22 59.32 C 235.97 60.61 237.66 62.55 235.58 63.56 C 234.49 64.77 233.53 62.80 232.69 62.30 C 232.30 62.61 231.50 63.23 231.10 63.54 C 229.86 63.71 227.61 62.14 227.36 64.21 C 228.95 65.88 231.00 67.02 232.86 68.37 C 235.00 66.58 237.94 65.49 239.35 62.99 C 240.57 59.12 235.87 57.88 233.40 56.26 C 233.64 54.93 233.89 53.61 234.15 52.28 C 235.58 52.64 237.00 53.00 238.45 53.30 C 238.49 50.63 234.84 49.77 233.00 48.29 C 230.06 49.95 225.67 52.38 227.58 56.47 Z" />
<path fill="#1f2020" opacity="1.00" d=" M 35.14 48.60 C 36.43 48.50 37.72 48.41 39.01 48.32 C 38.61 53.10 38.75 57.85 39.64 62.56 C 36.42 63.83 36.27 60.21 36.53 58.02 C 36.49 57.08 36.45 56.13 36.40 55.19 C 36.24 52.95 35.70 50.77 35.14 48.60 M 37.28 49.33 C 35.83 49.25 35.88 51.72 37.28 51.70 C 38.81 51.80 38.74 49.30 37.28 49.33 M 37.34 55.14 C 37.91 55.71 37.91 55.71 37.34 55.14 M 37.37 60.23 C 37.62 63.60 40.25 58.57 37.37 60.23 Z" />
<path fill="#1f2020" opacity="1.00" d=" M 24.93 49.21 C 26.28 49.28 27.63 49.35 28.97 49.44 C 28.60 50.95 28.19 52.45 27.71 53.93 C 28.41 55.49 28.61 57.18 28.57 58.87 C 29.11 60.35 29.47 61.89 29.79 63.43 C 28.81 63.52 27.83 63.61 26.84 63.70 C 27.43 63.17 28.59 62.12 29.18 61.59 C 28.36 60.74 27.46 59.97 26.57 59.21 C 25.40 57.53 25.04 55.59 26.45 53.91 C 25.83 52.38 25.34 50.81 24.93 49.21 M 27.01 52.22 C 28.26 51.48 28.22 50.79 26.91 50.13 C 25.67 50.85 25.70 51.55 27.01 52.22 M 26.36 56.28 C 26.70 59.64 29.18 54.51 26.36 56.28 Z" />
<path fill="#1f2020" opacity="1.00" d=" M 97.92 54.81 C 101.34 52.97 103.63 49.08 107.77 48.69 C 104.63 53.52 101.37 58.29 98.03 62.99 C 95.85 59.54 93.07 56.56 90.39 53.52 C 92.97 53.46 95.41 54.33 97.92 54.81 M 102.51 53.63 C 102.87 53.03 102.87 53.03 102.51 53.63 M 98.03 56.36 C 97.06 56.13 95.10 55.66 94.13 55.42 C 95.44 57.16 96.77 58.89 98.10 60.62 C 99.74 58.40 101.29 56.11 102.51 53.63 C 100.99 54.50 99.51 55.42 98.03 56.36 Z" />
<path fill="#1f2020" opacity="1.00" d=" M 229.72 52.79 C 230.30 52.58 231.46 52.18 232.04 51.98 C 232.12 53.47 232.19 54.97 232.25 56.47 C 231.55 56.26 230.14 55.84 229.44 55.63 C 229.53 54.68 229.62 53.73 229.72 52.79 Z" />
<path fill="#1f2020" opacity="1.00" d=" M 31.45 58.34 C 30.54 56.71 29.03 53.64 32.13 53.48 C 34.14 54.51 33.86 56.62 32.72 58.20 C 33.66 59.47 34.93 60.74 34.63 62.48 C 33.51 62.56 31.84 63.52 31.35 61.97 C 31.30 60.75 31.39 59.55 31.45 58.34 M 31.33 55.27 C 31.45 58.63 34.32 53.76 31.33 55.27 M 32.40 60.22 C 30.99 63.20 35.74 60.27 32.40 60.22 Z" />
<path fill="#1f2020" opacity="1.00" d=" M 31.98 65.96 C 34.00 65.30 36.15 65.47 38.24 65.48 C 38.31 66.52 38.38 67.57 38.45 68.62 C 35.80 69.35 32.03 71.79 29.94 68.89 C 28.61 67.21 30.59 66.23 31.98 65.96 M 31.04 67.39 C 31.32 71.25 35.56 68.07 37.80 67.82 C 36.15 65.50 33.22 66.80 31.04 67.39 Z" />
<path fill="#1f2020" opacity="1.00" d=" M 218.78 69.31 C 219.56 68.36 221.37 68.23 222.20 69.18 C 222.30 70.79 218.64 70.99 218.78 69.31 Z" />
<path fill="#1f2020" opacity="1.00" d=" M 172.88 101.01 L 174.43 101.04 C 174.72 102.42 175.03 103.80 175.38 105.17 C 178.66 105.80 183.08 104.22 185.33 107.45 C 187.28 111.54 185.90 116.29 186.22 120.66 C 185.58 120.27 184.30 119.51 183.67 119.12 C 184.74 115.78 185.78 111.98 184.43 108.57 C 183.12 105.77 179.52 106.73 177.04 106.47 C 168.34 107.00 159.60 104.34 150.96 106.25 C 148.49 106.71 146.67 108.57 144.76 110.06 L 144.64 108.56 C 146.23 106.84 148.21 105.31 150.60 105.00 C 152.47 104.70 154.35 104.44 156.23 104.19 C 156.78 103.91 157.88 103.34 158.42 103.05 L 158.62 103.29 C 158.86 103.55 159.33 104.08 159.57 104.34 C 163.63 104.76 167.70 105.08 171.78 105.29 C 171.67 104.77 171.45 103.73 171.34 103.21 L 172.00 102.92 C 172.30 105.57 176.01 104.43 173.96 102.34 L 172.88 101.01 Z" />
<path fill="#1f2020" opacity="1.00" d=" M 88.45 103.50 C 89.45 102.80 90.57 104.07 91.35 104.63 C 93.15 106.20 90.01 109.87 88.25 107.90 C 86.64 107.04 86.53 104.00 88.45 103.50 M 88.56 105.17 C 88.07 106.53 88.58 107.02 90.07 106.63 C 90.54 105.28 90.03 104.80 88.56 105.17 Z" />
<path fill="#1f2020" opacity="1.00" d=" M 102.97 105.56 C 103.97 104.79 104.95 103.97 106.02 103.29 C 107.32 103.92 109.79 105.40 107.95 106.96 C 106.36 108.93 104.07 107.07 102.97 105.56 M 105.19 104.91 C 104.69 106.52 105.26 107.05 106.92 106.51 C 107.42 104.90 106.85 104.37 105.19 104.91 Z" />
<path fill="#1f2020" opacity="1.00" d=" M 46.16 105.11 C 47.82 106.38 47.70 108.68 48.14 110.54 C 48.69 116.35 48.21 122.20 48.44 128.03 C 48.45 129.78 48.19 132.38 46.24 132.99 C 45.92 133.05 45.27 133.19 44.94 133.25 C 46.14 131.77 47.51 130.15 47.34 128.10 C 47.26 120.67 47.96 113.13 46.19 105.83 C 45.42 106.19 43.87 106.89 43.09 107.25 L 42.68 107.61 L 42.16 107.40 C 42.04 105.08 44.53 105.43 46.16 105.11 Z" />
<path fill="#1f2020" opacity="1.00" d=" M 23.83 125.79 C 26.81 124.19 24.88 119.84 27.39 117.66 C 27.50 119.63 27.54 121.60 27.50 123.58 C 28.48 122.34 29.36 121.03 30.38 119.83 C 30.75 120.41 31.48 121.56 31.85 122.14 C 32.52 121.14 33.20 120.14 33.87 119.14 C 34.38 119.53 35.41 120.30 35.93 120.69 C 36.18 119.97 36.68 118.53 36.93 117.81 C 37.78 118.02 39.50 118.45 40.35 118.66 C 37.16 120.63 33.89 122.71 30.05 122.98 C 28.00 124.26 26.01 125.66 23.84 126.74 C 21.09 126.96 21.14 123.29 20.29 121.46 C 20.57 121.38 21.13 121.22 21.41 121.14 C 22.16 122.68 22.10 124.94 23.83 125.79 Z" />
<path fill="#1f2020" opacity="1.00" d=" M 221.91 124.75 C 225.46 124.75 229.01 124.72 232.57 124.55 L 234.17 124.50 C 234.03 126.64 233.98 128.79 233.62 130.92 C 229.67 131.98 225.27 131.87 221.38 130.56 C 221.55 128.62 221.73 126.68 221.91 124.75 M 222.53 125.30 C 222.58 126.94 222.63 128.57 222.70 130.21 C 225.99 130.24 229.28 130.25 232.58 130.23 C 232.66 128.64 232.73 127.05 232.80 125.46 C 229.38 125.39 225.95 125.35 222.53 125.30 Z" />
</g>
<g id="#447678ff">
<path fill="#447678" opacity="1.00" d=" M 229.35 34.36 C 230.82 33.83 232.35 32.53 233.98 33.14 C 239.28 35.01 243.56 38.79 248.41 41.52 C 249.89 42.43 251.58 43.25 252.39 44.89 C 251.13 46.53 249.71 48.03 248.38 49.61 C 249.03 55.70 248.25 61.85 248.69 67.93 C 250.17 70.13 251.74 72.36 250.93 75.17 C 242.29 76.27 233.60 74.51 224.95 75.33 C 221.59 75.40 217.63 76.45 214.73 74.28 C 212.33 71.71 216.24 69.55 217.68 67.66 C 217.80 61.27 217.81 54.87 217.68 48.47 C 216.11 47.31 214.54 46.14 212.97 44.96 C 217.70 40.42 223.61 37.40 229.35 34.36 M 229.35 36.25 C 224.54 38.72 219.78 41.38 215.58 44.80 C 227.21 44.14 238.85 44.94 250.49 44.96 C 245.26 41.71 240.37 37.83 234.73 35.30 C 232.90 34.16 231.03 35.54 229.35 36.25 M 218.79 46.11 C 218.85 47.56 221.37 48.01 222.25 47.02 C 222.15 45.59 219.66 45.05 218.79 46.11 M 223.16 48.80 C 223.55 54.92 223.27 61.06 223.56 67.19 C 224.20 68.18 224.98 69.08 225.73 70.01 C 230.52 69.80 235.32 69.72 240.11 69.98 C 241.03 68.95 241.95 67.93 242.89 66.92 C 242.83 60.94 242.81 54.95 242.84 48.97 C 242.12 48.12 241.42 47.27 240.71 46.41 C 235.51 46.47 230.31 46.04 225.11 46.17 C 224.46 47.05 223.81 47.92 223.16 48.80 M 219.74 49.02 C 219.42 55.18 219.54 61.39 219.65 67.56 C 220.15 67.72 221.15 68.03 221.65 68.19 C 221.57 61.44 221.69 54.68 221.25 47.94 L 219.74 49.02 M 244.54 49.11 C 244.74 54.07 244.64 59.04 244.67 64.00 C 244.93 65.34 244.17 67.63 246.19 67.92 C 247.69 61.91 246.16 55.56 246.97 49.43 C 246.16 49.32 245.35 49.21 244.54 49.11 M 218.78 69.31 C 218.64 70.99 222.30 70.79 222.20 69.18 C 221.37 68.23 219.56 68.36 218.78 69.31 M 243.47 69.72 C 244.15 70.59 246.61 70.61 246.49 69.19 C 245.81 68.29 243.34 68.29 243.47 69.72 M 215.76 73.53 C 221.82 73.97 227.88 73.14 233.95 73.41 C 238.91 73.62 243.88 73.69 248.85 73.71 C 248.81 73.16 248.73 72.04 248.69 71.49 C 238.77 71.83 228.83 71.51 218.90 71.64 C 217.44 71.43 216.48 72.40 215.76 73.53 Z" />
</g>
<g id="#929292ff">
<path fill="#929292" opacity="1.00" d=" M 96.43 34.07 C 97.61 33.15 98.28 33.41 98.43 34.82 C 97.25 35.73 96.58 35.48 96.43 34.07 Z" />
</g>
<g id="#d9e8e8ff">
<path fill="#d9e8e8" opacity="1.00" d=" M 146.61 47.91 C 148.19 41.35 154.11 37.14 160.02 34.67 C 165.38 33.89 171.11 34.07 175.87 36.95 C 181.74 40.04 186.69 46.10 186.22 53.04 C 185.00 62.08 178.00 70.32 168.97 72.29 C 162.90 74.16 155.93 72.79 150.83 69.09 C 144.73 63.97 144.62 55.02 146.61 47.91 M 163.58 36.84 C 155.55 38.14 148.38 45.56 149.12 54.00 C 148.87 62.54 156.52 70.38 165.07 70.29 C 173.15 69.80 179.88 63.34 182.27 55.85 C 183.20 51.57 183.36 46.46 180.25 42.98 C 176.21 38.36 169.65 35.94 163.58 36.84 Z" />
</g>
<g id="#e3f4f4ff">
<path fill="#e3f4f4" opacity="1.00" d=" M 229.35 36.25 C 231.03 35.54 232.90 34.16 234.73 35.30 C 240.37 37.83 245.26 41.71 250.49 44.96 C 238.85 44.94 227.21 44.14 215.58 44.80 C 219.78 41.38 224.54 38.72 229.35 36.25 M 221.41 43.19 C 229.05 42.11 236.77 42.53 244.40 43.44 C 242.52 40.87 239.45 39.71 236.66 38.44 C 231.33 35.54 225.27 39.55 221.41 43.19 Z" />
<path fill="#e3f4f4" opacity="1.00" d=" M 244.54 49.11 C 245.35 49.21 246.16 49.32 246.97 49.43 C 246.16 55.56 247.69 61.91 246.19 67.92 C 244.17 67.63 244.93 65.34 244.67 64.00 C 244.64 59.04 244.74 54.07 244.54 49.11 Z" />
<path fill="#e3f4f4" opacity="1.00" d=" M 158.62 103.29 C 162.86 103.22 167.10 103.27 171.34 103.21 C 171.45 103.73 171.67 104.77 171.78 105.29 C 167.70 105.08 163.63 104.76 159.57 104.34 C 159.33 104.08 158.86 103.55 158.62 103.29 Z" />
</g>
<g id="#26393fff">
<path fill="#26393f" opacity="1.00" d=" M 36.73 37.00 C 39.61 36.34 42.83 38.11 43.51 41.05 C 45.00 46.93 43.56 53.06 44.41 59.03 C 44.52 63.07 45.85 68.25 42.14 71.17 C 37.70 74.08 32.07 73.17 27.05 74.02 C 22.70 74.77 17.62 73.83 14.78 70.20 C 13.93 63.45 14.97 56.53 14.09 49.74 C 13.88 46.84 12.55 43.34 15.04 41.03 C 17.48 37.55 22.17 37.32 26.02 37.71 C 29.61 38.13 33.20 37.67 36.73 37.00 M 33.95 38.73 C 29.50 39.48 25.00 38.86 20.52 39.05 C 21.72 39.71 22.87 41.15 24.38 40.42 C 29.52 39.19 34.85 39.80 40.07 39.84 C 40.83 41.39 41.98 43.92 40.03 45.04 C 34.63 45.56 29.18 45.45 23.77 45.18 C 21.01 50.92 22.35 57.53 22.04 63.68 C 23.22 65.03 24.77 66.19 25.32 67.96 C 25.90 70.40 23.27 71.54 21.90 73.03 C 27.11 72.72 32.36 72.52 37.52 71.67 C 40.06 71.26 42.90 69.76 43.29 66.95 C 43.94 61.28 42.26 55.63 42.73 49.94 C 42.50 46.58 43.70 42.55 41.31 39.75 C 39.52 37.46 36.39 38.60 33.95 38.73 M 17.18 41.31 C 14.42 42.15 14.94 45.32 15.19 47.53 C 16.07 54.33 15.67 61.20 15.80 68.04 C 15.72 71.92 21.89 72.48 23.62 69.58 C 24.45 66.47 19.77 65.20 20.42 62.05 C 20.54 55.96 20.03 49.70 22.30 43.92 C 23.02 41.12 19.13 40.07 17.18 41.31 M 25.05 41.27 C 25.24 42.33 25.43 43.39 25.62 44.44 C 30.34 44.27 35.06 44.11 39.77 43.83 C 39.71 43.06 39.60 41.54 39.54 40.78 C 34.74 41.48 29.89 41.30 25.05 41.27 Z" />
</g>
<g id="#c0c0c0ff">
<path fill="#c0c0c0" opacity="1.00" d=" M 92.59 36.53 C 95.61 36.18 98.69 36.20 101.72 36.52 C 102.92 37.43 103.54 38.87 104.39 40.08 C 99.97 40.38 95.53 40.70 91.11 40.25 C 91.56 38.99 92.05 37.75 92.59 36.53 M 95.41 37.51 C 95.62 38.97 99.40 39.00 99.59 37.53 C 98.39 36.80 96.61 36.77 95.41 37.51 Z" />
<path fill="#c0c0c0" opacity="1.00" d=" M 31.04 67.39 C 33.22 66.80 36.15 65.50 37.80 67.82 C 35.56 68.07 31.32 71.25 31.04 67.39 Z" />
<path fill="#c0c0c0" opacity="1.00" d=" M 222.53 125.30 C 225.95 125.35 229.38 125.39 232.80 125.46 C 232.73 127.05 232.66 128.64 232.58 130.23 C 229.28 130.25 225.99 130.24 222.70 130.21 C 222.63 128.57 222.58 126.94 222.53 125.30 Z" />
</g>
<g id="#7f341dff">
<path fill="#7f341d" opacity="1.00" d=" M 163.58 36.84 C 169.65 35.94 176.21 38.36 180.25 42.98 C 183.36 46.46 183.20 51.57 182.27 55.85 C 179.88 63.34 173.15 69.80 165.07 70.29 C 156.52 70.38 148.87 62.54 149.12 54.00 C 148.38 45.56 155.55 38.14 163.58 36.84 M 150.74 49.77 C 150.00 53.26 149.91 56.98 151.79 60.14 C 154.41 65.32 160.02 69.23 165.96 68.71 C 176.94 67.39 184.90 54.18 179.77 44.03 C 178.58 45.97 176.00 47.77 176.43 50.22 C 174.96 51.90 175.63 54.87 176.53 56.69 C 174.78 65.26 163.29 69.26 156.80 63.27 C 148.62 56.83 153.26 42.17 162.95 40.11 C 166.36 39.31 169.52 41.24 172.78 41.88 C 172.86 41.41 173.04 40.47 173.12 40.00 C 164.74 35.04 153.25 40.68 150.74 49.77 M 155.09 58.90 C 158.20 65.11 167.67 66.63 172.31 61.31 C 175.47 58.35 175.29 53.79 175.26 49.82 C 171.77 51.89 173.48 56.94 170.08 59.14 C 165.25 64.26 155.78 59.85 156.05 53.02 C 155.64 46.79 163.08 42.23 168.47 45.47 C 169.21 44.64 169.95 43.80 170.69 42.96 C 167.97 41.85 164.93 40.67 162.02 41.81 C 155.76 44.49 152.27 52.60 155.09 58.90 M 168.63 49.64 C 171.36 47.55 174.33 45.26 174.97 41.64 C 171.54 43.00 168.60 45.69 168.63 49.64 M 170.67 51.36 C 174.23 50.12 176.71 46.91 177.94 43.44 C 175.01 45.13 170.05 47.55 170.67 51.36 M 157.95 55.06 C 159.20 59.70 165.70 61.08 169.16 58.04 C 170.98 56.56 170.93 54.01 171.45 51.92 C 170.75 52.00 169.35 52.16 168.65 52.24 C 168.20 54.41 167.74 57.43 164.90 57.51 C 161.75 58.23 159.68 54.05 161.62 51.71 C 162.81 49.37 165.74 50.02 167.86 49.63 C 167.26 48.53 167.66 46.25 165.99 46.18 C 160.95 44.58 156.06 50.27 157.95 55.06 M 163.03 55.98 C 164.52 56.02 165.79 55.27 167.05 54.59 C 166.56 54.49 165.59 54.30 165.10 54.20 C 165.35 53.08 165.60 51.96 165.85 50.83 C 163.51 51.57 162.13 53.50 163.03 55.98 Z" />
</g>
<g id="#424242ff">
<path fill="#424242" opacity="1.00" d=" M 95.41 37.51 C 96.61 36.77 98.39 36.80 99.59 37.53 C 99.40 39.00 95.62 38.97 95.41 37.51 Z" />
</g>
<g id="#13bbbfff">
<path fill="#13bbbf" opacity="1.00" d=" M 33.95 38.73 C 36.39 38.60 39.52 37.46 41.31 39.75 C 43.70 42.55 42.50 46.58 42.73 49.94 C 42.26 55.63 43.94 61.28 43.29 66.95 C 42.90 69.76 40.06 71.26 37.52 71.67 C 32.36 72.52 27.11 72.72 21.90 73.03 C 23.27 71.54 25.90 70.40 25.32 67.96 C 24.77 66.19 23.22 65.03 22.04 63.68 C 22.35 57.53 21.01 50.92 23.77 45.18 C 29.18 45.45 34.63 45.56 40.03 45.04 C 41.98 43.92 40.83 41.39 40.07 39.84 C 34.85 39.80 29.52 39.19 24.38 40.42 C 22.87 41.15 21.72 39.71 20.52 39.05 C 25.00 38.86 29.50 39.48 33.95 38.73 M 35.14 48.60 C 35.70 50.77 36.24 52.95 36.40 55.19 C 36.45 56.13 36.49 57.08 36.53 58.02 C 36.27 60.21 36.42 63.83 39.64 62.56 C 38.75 57.85 38.61 53.10 39.01 48.32 C 37.72 48.41 36.43 48.50 35.14 48.60 M 24.93 49.21 C 25.34 50.81 25.83 52.38 26.45 53.91 C 25.04 55.59 25.40 57.53 26.57 59.21 C 25.34 60.89 25.43 62.38 26.84 63.70 C 27.83 63.61 28.81 63.52 29.79 63.43 C 29.47 61.89 29.11 60.35 28.57 58.87 C 28.61 57.18 28.41 55.49 27.71 53.93 C 28.19 52.45 28.60 50.95 28.97 49.44 C 27.63 49.35 26.28 49.28 24.93 49.21 M 30.35 49.27 C 29.05 51.08 30.70 53.98 33.02 53.21 C 35.15 53.28 34.47 50.04 33.90 48.79 C 32.63 48.36 31.44 48.53 30.35 49.27 M 31.45 58.34 C 31.39 59.55 31.30 60.75 31.35 61.97 C 31.84 63.52 33.51 62.56 34.63 62.48 C 34.93 60.74 33.66 59.47 32.72 58.20 C 33.86 56.62 34.14 54.51 32.13 53.48 C 29.03 53.64 30.54 56.71 31.45 58.34 M 31.98 65.96 C 30.59 66.23 28.61 67.21 29.94 68.89 C 32.03 71.79 35.80 69.35 38.45 68.62 C 38.38 67.57 38.31 66.52 38.24 65.48 C 36.15 65.47 34.00 65.30 31.98 65.96 Z" />
</g>
<g id="#f14823ff">
<path fill="#f14823" opacity="1.00" d=" M 150.74 49.77 C 153.25 40.68 164.74 35.04 173.12 40.00 C 173.04 40.47 172.86 41.41 172.78 41.88 C 169.52 41.24 166.36 39.31 162.95 40.11 C 153.26 42.17 148.62 56.83 156.80 63.27 C 163.29 69.26 174.78 65.26 176.53 56.69 C 177.64 54.63 177.20 52.30 176.43 50.22 C 176.00 47.77 178.58 45.97 179.77 44.03 C 184.90 54.18 176.94 67.39 165.96 68.71 C 160.02 69.23 154.41 65.32 151.79 60.14 C 151.04 56.74 150.74 53.25 150.74 49.77 Z" />
<path fill="#f14823" opacity="1.00" d=" M 215.97 106.76 C 217.59 106.70 219.22 106.65 220.85 106.61 C 220.43 111.22 220.83 115.86 220.53 120.48 C 218.60 121.76 216.24 121.20 214.10 121.07 C 214.49 116.28 215.17 111.50 215.97 106.76 Z" />
</g>
<g id="#137878ff">
<path fill="#137878" opacity="1.00" d=" M 109.43 38.78 C 110.91 39.63 113.24 39.88 113.31 42.03 C 114.90 49.55 114.49 57.33 114.38 64.97 C 114.11 67.73 114.18 71.90 110.92 72.88 C 106.20 73.71 101.36 73.04 96.60 73.52 C 92.50 73.60 88.08 74.52 84.21 72.73 C 82.80 69.02 83.89 64.86 83.79 60.97 C 84.25 55.27 83.32 49.63 82.60 44.00 C 82.09 41.77 84.40 40.92 85.97 40.16 C 85.35 45.10 85.78 50.07 86.38 54.99 C 86.99 59.92 86.27 64.96 87.28 69.84 C 90.37 70.98 93.74 70.29 96.95 70.38 C 101.28 70.18 105.63 70.85 109.94 70.27 C 111.50 70.05 111.21 68.04 111.56 66.91 C 112.14 60.51 111.81 54.07 111.50 47.66 C 111.41 44.59 110.59 41.61 109.43 38.78 Z" />
</g>
<g id="#79aabcff">
<path fill="#79aabc" opacity="1.00" d=" M 226.85 40.45 C 228.87 39.75 230.89 38.92 233.03 38.66 C 235.36 39.08 237.39 40.37 239.42 41.53 C 235.23 41.30 230.88 41.87 226.85 40.45 Z" />
<path fill="#79aabc" opacity="1.00" d=" M 215.76 73.53 C 216.48 72.40 217.44 71.43 218.90 71.64 C 228.83 71.51 238.77 71.83 248.69 71.49 C 248.73 72.04 248.81 73.16 248.85 73.71 C 243.88 73.69 238.91 73.62 233.95 73.41 C 227.88 73.14 221.82 73.97 215.76 73.53 Z" />
</g>
<g id="#75ced1ff">
<path fill="#75ced1" opacity="1.00" d=" M 17.18 41.31 C 19.13 40.07 23.02 41.12 22.30 43.92 C 20.03 49.70 20.54 55.96 20.42 62.05 C 19.77 65.20 24.45 66.47 23.62 69.58 C 21.89 72.48 15.72 71.92 15.80 68.04 C 15.67 61.20 16.07 54.33 15.19 47.53 C 14.94 45.32 14.42 42.15 17.18 41.31 Z" />
</g>
<g id="#ffd20eff">
<path fill="#ffd20e" opacity="1.00" d=" M 25.05 41.27 C 29.89 41.30 34.74 41.48 39.54 40.78 C 39.60 41.54 39.71 43.06 39.77 43.83 C 35.06 44.11 30.34 44.27 25.62 44.44 C 25.43 43.39 25.24 42.33 25.05 41.27 Z" />
<path fill="#ffd20e" opacity="1.00" d=" M 151.87 121.73 C 153.54 120.33 155.73 120.23 157.81 120.08 C 158.04 120.49 158.51 121.31 158.74 121.72 C 157.99 121.64 156.51 121.49 155.77 121.41 C 155.95 122.59 156.14 123.77 156.33 124.95 C 155.79 124.96 154.71 124.99 154.17 125.00 L 155.78 123.97 C 154.50 123.18 153.18 122.45 151.87 121.73 Z" />
<path fill="#ffd20e" opacity="1.00" d=" M 171.25 121.70 C 173.36 119.92 176.16 120.83 178.50 121.56 C 176.09 121.80 173.66 121.84 171.25 121.70 Z" />
</g>
<g id="#d6e5e5ff">
<path fill="#d6e5e5" opacity="1.00" d=" M 87.45 41.50 C 92.29 41.30 97.14 41.93 101.96 41.27 C 104.42 40.91 106.90 40.80 109.34 41.33 C 110.30 50.54 111.46 59.90 109.78 69.10 C 102.64 68.56 95.47 68.61 88.32 68.96 C 89.04 59.78 86.63 50.65 87.45 41.50 M 97.92 54.81 C 95.41 54.33 92.97 53.46 90.39 53.52 C 93.07 56.56 95.85 59.54 98.03 62.99 C 101.37 58.29 104.63 53.52 107.77 48.69 C 103.63 49.08 101.34 52.97 97.92 54.81 Z" />
<path fill="#d6e5e5" opacity="1.00" d=" M 222.40 106.45 C 224.95 106.41 227.51 106.38 230.08 106.36 C 230.31 110.89 230.77 115.45 230.29 119.97 C 228.92 122.81 224.53 122.16 222.53 120.34 C 221.84 115.75 222.27 111.07 222.40 106.45 Z" />
<path fill="#d6e5e5" opacity="1.00" d=" M 43.09 107.25 C 43.87 106.89 45.42 106.19 46.19 105.83 C 47.96 113.13 47.26 120.67 47.34 128.10 C 47.51 130.15 46.14 131.77 44.94 133.25 C 39.69 134.31 34.45 135.99 29.02 135.48 C 24.46 135.09 19.82 135.48 15.30 134.67 C 12.17 134.15 10.72 130.90 10.75 128.01 C 10.60 122.99 9.63 118.00 9.77 112.97 C 9.64 110.13 12.45 108.92 14.42 107.60 C 14.95 109.47 12.98 113.47 16.18 113.44 C 19.27 113.94 19.27 110.62 18.59 108.53 C 19.58 108.30 20.57 108.05 21.55 107.80 C 21.18 109.12 20.82 110.45 20.47 111.79 C 22.30 112.53 24.33 113.39 26.00 111.82 C 27.66 111.99 29.34 112.23 31.00 111.95 C 31.24 111.51 31.74 110.64 31.99 110.21 C 33.64 111.44 35.51 112.20 37.20 110.57 L 37.76 110.26 L 38.68 110.55 C 40.02 110.60 41.90 112.40 42.85 110.78 C 42.81 109.99 42.72 108.40 42.68 107.61 L 43.09 107.25 M 42.27 113.94 C 42.04 114.23 41.59 114.82 41.37 115.11 C 42.23 118.09 45.68 113.09 42.27 113.94 M 23.83 125.79 C 22.10 124.94 22.16 122.68 21.41 121.14 C 21.13 121.22 20.57 121.38 20.29 121.46 C 21.14 123.29 21.09 126.96 23.84 126.74 C 26.01 125.66 28.00 124.26 30.05 122.98 C 33.89 122.71 37.16 120.63 40.35 118.66 C 39.50 118.45 37.78 118.02 36.93 117.81 C 36.68 118.53 36.18 119.97 35.93 120.69 C 35.41 120.30 34.38 119.53 33.87 119.14 C 33.20 120.14 32.52 121.14 31.85 122.14 C 31.48 121.56 30.75 120.41 30.38 119.83 C 29.36 121.03 28.48 122.34 27.50 123.58 C 27.54 121.60 27.50 119.63 27.39 117.66 C 24.88 119.84 26.81 124.19 23.83 125.79 Z" />
</g>
<g id="#e0f0f0ff">
<path fill="#e0f0f0" opacity="1.00" d=" M 155.09 58.90 C 152.27 52.60 155.76 44.49 162.02 41.81 C 164.93 40.67 167.97 41.85 170.69 42.96 C 169.95 43.80 169.21 44.64 168.47 45.47 C 163.08 42.23 155.64 46.79 156.05 53.02 C 155.78 59.85 165.25 64.26 170.08 59.14 C 173.48 56.94 171.77 51.89 175.26 49.82 C 175.29 53.79 175.47 58.35 172.31 61.31 C 167.67 66.63 158.20 65.11 155.09 58.90 Z" />
</g>
<g id="#38a374ff">
<path fill="#38a374" opacity="1.00" d=" M 168.63 49.64 C 168.60 45.69 171.54 43.00 174.97 41.64 C 174.33 45.26 171.36 47.55 168.63 49.64 Z" />
</g>
<g id="#2c8f61ff">
<path fill="#2c8f61" opacity="1.00" d=" M 170.67 51.36 C 170.05 47.55 175.01 45.13 177.94 43.44 C 176.71 46.91 174.23 50.12 170.67 51.36 Z" />
<path fill="#2c8f61" opacity="1.00" d=" M 94.90 126.02 C 96.53 126.37 98.16 126.72 99.79 127.09 C 99.83 128.43 99.88 129.78 99.92 131.13 C 98.57 130.84 97.16 130.74 95.88 130.18 C 95.23 128.90 95.22 127.40 94.90 126.02 Z" />
</g>
<g id="#f34923ff">
<path fill="#f34923" opacity="1.00" d=" M 157.95 55.06 C 156.06 50.27 160.95 44.58 165.99 46.18 C 167.66 46.25 167.26 48.53 167.86 49.63 C 165.74 50.02 162.81 49.37 161.62 51.71 C 159.68 54.05 161.75 58.23 164.90 57.51 C 167.74 57.43 168.20 54.41 168.65 52.24 C 169.35 52.16 170.75 52.00 171.45 51.92 C 170.93 54.01 170.98 56.56 169.16 58.04 C 165.70 61.08 159.20 59.70 157.95 55.06 Z" />
</g>
<g id="#3ab87dff">
<path fill="#3ab87d" opacity="1.00" d=" M 227.58 56.47 C 225.67 52.38 230.06 49.95 233.00 48.29 C 234.84 49.77 238.49 50.63 238.45 53.30 C 237.00 53.00 235.58 52.64 234.15 52.28 C 233.89 53.61 233.64 54.93 233.40 56.26 C 235.87 57.88 240.57 59.12 239.35 62.99 C 237.94 65.49 235.00 66.58 232.86 68.37 C 231.00 67.02 228.95 65.88 227.36 64.21 C 227.61 62.14 229.86 63.71 231.10 63.54 C 231.50 63.23 232.30 62.61 232.69 62.30 C 233.53 62.80 234.49 64.77 235.58 63.56 C 237.66 62.55 235.97 60.61 235.22 59.32 C 234.69 59.53 233.62 59.95 233.09 60.17 C 230.89 60.07 229.13 57.94 227.58 56.47 M 229.72 52.79 C 229.62 53.73 229.53 54.68 229.44 55.63 C 230.14 55.84 231.55 56.26 232.25 56.47 C 232.19 54.97 232.12 53.47 232.04 51.98 C 231.46 52.18 230.30 52.58 229.72 52.79 Z" />
</g>
<g id="#304e4fff">
<path fill="#304e4f" opacity="1.00" d=" M 30.35 49.27 C 31.44 48.53 32.63 48.36 33.90 48.79 C 34.47 50.04 35.15 53.28 33.02 53.21 C 30.70 53.98 29.05 51.08 30.35 49.27 M 31.49 50.21 C 31.07 51.62 31.55 52.11 32.94 51.66 C 33.36 50.23 32.88 49.75 31.49 50.21 Z" />
</g>
<g id="#bebebeff">
<path fill="#bebebe" opacity="1.00" d=" M 27.01 52.22 C 25.70 51.55 25.67 50.85 26.91 50.13 C 28.22 50.79 28.26 51.48 27.01 52.22 Z" />
<path fill="#bebebe" opacity="1.00" d=" M 26.36 56.28 C 29.18 54.51 26.70 59.64 26.36 56.28 Z" />
<path fill="#bebebe" opacity="1.00" d=" M 37.37 60.23 C 40.25 58.57 37.62 63.60 37.37 60.23 Z" />
<path fill="#bebebe" opacity="1.00" d=" M 240.79 124.74 C 243.09 124.75 245.40 124.77 247.70 124.82 C 247.87 129.26 248.18 133.68 248.55 138.10 C 246.34 138.14 244.14 138.18 241.94 138.22 C 241.76 133.71 241.48 129.20 240.79 124.74 Z" />
</g>
<g id="#a89b9bff">
<path fill="#a89b9b" opacity="1.00" d=" M 31.49 50.21 C 32.88 49.75 33.36 50.23 32.94 51.66 C 31.55 52.11 31.07 51.62 31.49 50.21 Z" />
</g>
<g id="#a53016ff">
<path fill="#a53016" opacity="1.00" d=" M 151.79 60.14 C 149.91 56.98 150.00 53.26 150.74 49.77 C 150.74 53.25 151.04 56.74 151.79 60.14 Z" />
</g>
<g id="#d04627ff">
<path fill="#d04627" opacity="1.00" d=" M 163.03 55.98 C 162.13 53.50 163.51 51.57 165.85 50.83 C 165.60 51.96 165.35 53.08 165.10 54.20 C 165.59 54.30 166.56 54.49 167.05 54.59 C 165.79 55.27 164.52 56.02 163.03 55.98 Z" />
</g>
<g id="#289b66ff">
<path fill="#289b66" opacity="1.00" d=" M 102.51 53.63 C 102.87 53.03 102.87 53.03 102.51 53.63 Z" />
</g>
<g id="#3ab97fff">
<path fill="#3ab97f" opacity="1.00" d=" M 98.03 56.36 C 99.51 55.42 100.99 54.50 102.51 53.63 C 101.29 56.11 99.74 58.40 98.10 60.62 C 96.77 58.89 95.44 57.16 94.13 55.42 C 95.10 55.66 97.06 56.13 98.03 56.36 Z" />
<path fill="#3ab97f" opacity="1.00" d=" M 227.46 140.18 C 227.92 138.29 228.39 136.41 228.84 134.53 C 229.92 135.06 231.00 135.60 232.09 136.14 C 233.01 135.81 233.93 135.48 234.86 135.16 C 235.19 135.57 235.84 136.38 236.16 136.79 C 237.62 137.36 239.06 137.98 240.41 138.78 C 236.15 139.82 231.74 139.41 227.46 140.18 Z" />
</g>
<g id="#857978ff">
<path fill="#857978" opacity="1.00" d=" M 31.33 55.27 C 34.32 53.76 31.45 58.63 31.33 55.27 Z" />
</g>
<g id="#b1a0a0ff">
<path fill="#b1a0a0" opacity="1.00" d=" M 37.34 55.14 C 37.91 55.71 37.91 55.71 37.34 55.14 Z" />
</g>
<g id="#4a4948ff">
<path fill="#4a4948" opacity="1.00" d=" M 26.57 59.21 C 27.46 59.97 28.36 60.74 29.18 61.59 C 28.59 62.12 27.43 63.17 26.84 63.70 C 25.43 62.38 25.34 60.89 26.57 59.21 M 27.37 61.25 C 27.93 61.78 27.93 61.78 27.37 61.25 Z" />
</g>
<g id="#beb4b4ff">
<path fill="#beb4b4" opacity="1.00" d=" M 27.37 61.25 C 27.93 61.78 27.93 61.78 27.37 61.25 Z" />
</g>
<g id="#63b3b6ff">
<path fill="#63b3b6" opacity="1.00" d=" M 243.47 69.72 C 243.34 68.29 245.81 68.29 246.49 69.19 C 246.61 70.61 244.15 70.59 243.47 69.72 Z" />
</g>
<g id="#185e3dff">
<path fill="#185e3d" opacity="1.00" d=" M 84.54 107.56 C 82.21 104.19 86.00 99.02 89.93 100.33 C 94.89 101.56 94.98 107.62 97.72 111.10 C 99.58 107.82 100.29 103.68 103.19 101.12 C 107.14 97.90 113.23 103.52 110.70 107.80 C 109.65 110.77 106.21 111.71 103.45 110.59 C 102.62 112.41 101.71 114.21 101.08 116.13 C 101.83 118.11 103.13 119.82 104.21 121.64 C 108.61 120.59 112.69 118.57 117.10 117.56 C 116.81 123.54 116.88 129.64 115.53 135.48 C 112.36 137.48 108.74 138.94 104.96 139.17 C 98.79 139.18 92.95 136.97 86.98 135.75 C 83.75 135.04 80.68 136.61 77.73 137.69 C 77.50 132.07 77.83 126.44 78.26 120.85 C 79.60 118.80 82.78 118.98 84.84 117.98 C 84.59 118.43 84.09 119.32 83.84 119.77 C 82.61 120.36 81.35 120.89 80.10 121.43 C 80.10 122.17 80.10 123.65 80.10 124.39 C 81.21 123.11 82.32 121.83 83.40 120.52 C 86.06 120.00 88.75 119.66 91.43 119.29 C 91.58 118.81 91.87 117.86 92.01 117.38 C 92.63 117.41 93.86 117.47 94.48 117.50 C 94.98 115.13 93.18 113.18 92.23 111.18 C 89.27 111.32 85.84 110.58 84.54 107.56 M 84.63 104.94 C 84.96 107.92 87.84 109.40 90.07 110.87 C 92.33 109.15 95.40 106.17 92.62 103.41 C 90.53 99.98 85.50 101.22 84.63 104.94 M 104.12 101.94 C 101.95 103.10 101.81 105.64 101.65 107.80 C 103.18 108.73 104.71 109.67 106.24 110.61 C 108.04 109.15 110.48 107.61 110.29 104.96 C 109.31 102.72 106.63 100.14 104.12 101.94 M 96.16 115.36 C 97.58 112.61 96.34 109.77 94.08 107.97 C 91.79 110.51 94.99 113.19 96.16 115.36 M 96.78 116.24 C 98.50 116.60 99.97 116.21 100.45 114.37 C 101.18 112.38 103.49 109.28 100.79 107.76 C 99.20 110.46 98.00 113.36 96.78 116.24 M 96.14 116.78 C 93.22 120.61 89.84 124.46 88.95 129.36 C 93.27 125.89 96.31 121.13 99.06 116.39 C 98.33 116.48 96.87 116.68 96.14 116.78 M 99.19 118.48 C 97.82 119.82 100.19 122.05 101.57 120.93 C 102.73 119.60 100.58 117.35 99.19 118.48 M 110.01 121.35 C 111.67 122.46 113.32 123.59 114.97 124.73 C 115.05 123.07 115.14 121.41 115.22 119.75 C 113.48 120.28 111.75 120.82 110.01 121.35 M 82.10 126.00 C 81.93 127.75 80.40 131.14 82.98 131.63 C 87.31 132.05 91.64 132.63 95.99 132.76 C 94.94 131.17 93.82 129.64 92.79 128.04 C 91.36 129.13 89.93 130.22 88.49 131.29 C 87.01 130.13 85.47 129.04 84.10 127.75 C 83.59 125.20 86.75 125.21 88.43 125.36 C 89.39 123.86 90.33 122.36 91.25 120.84 C 87.62 120.99 83.13 121.91 82.10 126.00 M 95.39 123.13 C 97.93 124.91 102.74 125.92 101.76 129.98 C 101.60 132.30 98.85 132.41 97.24 133.27 C 96.94 134.88 99.28 134.30 100.25 134.76 C 104.57 135.60 109.53 135.08 112.45 131.40 C 112.99 129.49 113.28 127.23 112.49 125.36 C 111.06 122.95 108.20 124.84 106.07 124.88 C 102.39 125.80 98.89 123.99 95.39 123.13 M 94.90 126.02 C 95.22 127.40 95.23 128.90 95.88 130.18 C 97.16 130.74 98.57 130.84 99.92 131.13 C 99.88 129.78 99.83 128.43 99.79 127.09 C 98.16 126.72 96.53 126.37 94.90 126.02 M 79.29 132.13 C 79.31 132.85 79.33 134.29 79.34 135.02 C 80.61 134.53 81.88 134.05 83.14 133.56 C 81.86 133.08 80.58 132.61 79.29 132.13 M 113.33 133.28 C 112.08 133.32 110.79 134.17 110.40 135.37 C 111.00 137.30 115.42 134.27 113.33 133.28 Z" />
</g>
<g id="#797c7dff">
<path fill="#797c7d" opacity="1.00" d=" M 155.54 100.39 C 161.89 100.13 168.29 99.74 174.64 100.28 L 172.88 101.01 C 167.14 100.39 161.39 100.52 155.65 100.95 C 155.76 101.57 155.97 102.81 156.08 103.43 L 156.23 104.19 C 154.35 104.44 152.47 104.70 150.60 105.00 C 151.99 104.76 153.38 104.53 154.78 104.30 C 155.02 102.99 155.27 101.69 155.54 100.39 Z" />
</g>
<g id="#52240aff">
<path fill="#52240a" opacity="1.00" d=" M 155.65 100.95 C 161.39 100.52 167.14 100.39 172.88 101.01 L 173.96 102.34 C 173.47 102.48 172.49 102.77 172.00 102.92 L 171.34 103.21 C 167.10 103.27 162.86 103.22 158.62 103.29 L 158.42 103.05 C 157.51 101.98 156.73 102.11 156.08 103.43 C 155.97 102.81 155.76 101.57 155.65 100.95 Z" />
</g>
<g id="#4b4129ff">
<path fill="#4b4129" opacity="1.00" d=" M 241.76 101.73 C 243.35 101.66 244.95 101.61 246.55 101.57 C 246.65 102.37 246.85 103.96 246.94 104.76 C 248.42 104.85 249.91 104.93 251.40 105.03 C 252.67 110.15 256.19 114.60 256.45 119.95 C 255.54 120.93 254.51 121.83 253.83 123.00 C 254.14 128.03 254.58 133.09 254.13 138.13 C 250.57 140.40 245.92 139.18 241.92 139.62 C 234.27 143.12 226.02 140.05 218.07 140.59 C 216.51 139.68 215.76 137.82 215.78 136.09 C 215.65 131.75 215.51 127.41 215.23 123.08 C 214.35 122.24 213.43 121.45 212.65 120.51 C 212.88 115.52 213.94 110.58 214.74 105.64 C 223.53 104.46 232.41 105.00 241.25 104.95 C 241.41 103.88 241.58 102.80 241.76 101.73 M 243.34 103.07 C 242.79 104.69 243.34 105.26 244.98 104.77 C 245.52 103.14 244.97 102.58 243.34 103.07 M 222.40 106.45 C 222.27 111.07 221.84 115.75 222.53 120.34 C 224.53 122.16 228.92 122.81 230.29 119.97 C 230.77 115.45 230.31 110.89 230.08 106.36 C 227.51 106.38 224.95 106.41 222.40 106.45 M 240.34 106.42 C 241.07 111.23 241.16 116.15 242.33 120.89 C 244.08 122.06 247.73 122.38 248.40 119.90 C 247.34 115.35 245.86 110.89 244.94 106.29 C 243.41 106.33 241.87 106.37 240.34 106.42 M 215.97 106.76 C 215.17 111.50 214.49 116.28 214.10 121.07 C 216.24 121.20 218.60 121.76 220.53 120.48 C 220.83 115.86 220.43 111.22 220.85 106.61 C 219.22 106.65 217.59 106.70 215.97 106.76 M 231.55 106.45 C 231.83 111.23 231.45 116.06 232.07 120.81 C 234.39 122.63 238.00 123.27 240.21 120.92 C 240.34 116.11 239.23 111.35 238.98 106.54 C 236.50 106.49 234.03 106.46 231.55 106.45 M 246.62 106.51 C 247.67 110.98 248.40 115.59 250.35 119.77 C 251.85 121.11 255.98 120.91 255.00 118.10 C 253.62 114.07 251.61 110.29 250.10 106.32 C 249.23 106.36 247.49 106.46 246.62 106.51 M 216.66 123.21 C 216.98 127.54 217.23 131.87 217.45 136.21 C 218.81 134.74 220.13 133.23 221.51 131.77 C 224.64 134.13 228.64 133.16 232.19 134.12 C 232.95 134.00 234.45 133.74 235.21 133.61 C 236.03 134.29 236.85 134.98 237.67 135.66 C 238.36 135.74 239.73 135.89 240.42 135.96 C 240.16 131.81 239.66 127.69 239.35 123.54 C 240.34 123.44 242.34 123.23 243.33 123.13 C 241.69 121.29 239.74 123.27 237.93 123.70 C 235.55 124.64 233.24 122.94 231.07 122.17 C 228.01 123.46 224.71 123.36 221.77 121.81 C 220.07 122.28 218.37 122.75 216.66 123.21 M 247.15 122.50 C 247.70 123.07 248.81 124.20 249.36 124.77 C 249.47 129.24 249.64 133.71 250.14 138.15 C 251.88 137.79 252.73 136.80 252.71 135.19 C 252.86 130.68 252.58 126.16 252.37 121.65 C 250.57 121.49 248.82 121.84 247.15 122.50 M 240.79 124.74 C 241.48 129.20 241.76 133.71 241.94 138.22 C 244.14 138.18 246.34 138.14 248.55 138.10 C 248.18 133.68 247.87 129.26 247.70 124.82 C 245.40 124.77 243.09 124.75 240.79 124.74 M 221.11 133.71 C 220.88 134.25 220.41 135.33 220.18 135.87 C 219.22 136.89 218.28 137.94 217.37 139.01 C 220.14 138.99 223.04 139.53 225.73 138.68 C 226.27 137.67 226.72 136.63 227.19 135.59 C 225.16 134.99 223.13 134.36 221.11 133.71 M 227.46 140.18 C 231.74 139.41 236.15 139.82 240.41 138.78 C 239.06 137.98 237.62 137.36 236.16 136.79 C 235.84 136.38 235.19 135.57 234.86 135.16 C 233.93 135.48 233.01 135.81 232.09 136.14 C 231.00 135.60 229.92 135.06 228.84 134.53 C 228.39 136.41 227.92 138.29 227.46 140.18 Z" />
</g>
<g id="#d26d13ff">
<path fill="#d26d13" opacity="1.00" d=" M 84.63 104.94 C 85.50 101.22 90.53 99.98 92.62 103.41 C 95.40 106.17 92.33 109.15 90.07 110.87 C 87.84 109.40 84.96 107.92 84.63 104.94 M 88.45 103.50 C 86.53 104.00 86.64 107.04 88.25 107.90 C 90.01 109.87 93.15 106.20 91.35 104.63 C 90.57 104.07 89.45 102.80 88.45 103.50 Z" />
</g>
<g id="#e0a907ff">
<path fill="#e0a907" opacity="1.00" d=" M 104.12 101.94 C 106.63 100.14 109.31 102.72 110.29 104.96 C 110.48 107.61 108.04 109.15 106.24 110.61 C 104.71 109.67 103.18 108.73 101.65 107.80 C 101.81 105.64 101.95 103.10 104.12 101.94 M 102.97 105.56 C 104.07 107.07 106.36 108.93 107.95 106.96 C 109.79 105.40 107.32 103.92 106.02 103.29 C 104.95 103.97 103.97 104.79 102.97 105.56 Z" />
</g>
<g id="#c56528ff">
<path fill="#c56528" opacity="1.00" d=" M 156.08 103.43 C 156.73 102.11 157.51 101.98 158.42 103.05 C 157.88 103.34 156.78 103.91 156.23 104.19 L 156.08 103.43 Z" />
<path fill="#c56528" opacity="1.00" d=" M 172.00 102.92 C 172.49 102.77 173.47 102.48 173.96 102.34 C 176.01 104.43 172.30 105.57 172.00 102.92 Z" />
<path fill="#c56528" opacity="1.00" d=" M 150.96 106.25 C 159.60 104.34 168.34 107.00 177.04 106.47 C 179.52 106.73 183.12 105.77 184.43 108.57 C 185.78 111.98 184.74 115.78 183.67 119.12 C 182.80 120.11 181.88 121.06 180.97 122.01 C 179.22 120.54 177.49 118.50 174.96 118.72 C 172.21 118.47 170.37 120.94 167.95 121.77 C 163.63 122.38 159.96 119.52 155.97 118.47 C 153.20 117.85 151.39 120.29 149.72 122.02 C 148.66 121.51 147.59 121.01 146.60 120.37 C 145.18 117.14 145.18 113.51 144.76 110.06 C 146.67 108.57 148.49 106.71 150.96 106.25 Z" />
<path fill="#c56528" opacity="1.00" d=" M 184.48 120.90 C 184.57 125.27 185.23 129.66 184.75 134.03 C 184.30 135.58 182.43 135.45 181.17 135.63 C 176.32 135.84 171.46 135.84 166.63 136.33 C 166.31 136.33 165.67 136.33 165.35 136.34 C 163.90 135.61 162.45 134.90 161.00 134.18 C 167.49 134.08 174.11 136.24 180.50 134.61 C 185.85 132.41 184.03 125.46 184.48 120.90 Z" />
<path fill="#c56528" opacity="1.00" d=" M 146.45 121.72 C 146.87 125.11 146.76 128.54 147.18 131.92 C 148.32 133.78 150.41 134.76 152.06 136.10 C 150.08 135.59 147.30 135.95 146.15 133.88 C 145.70 129.84 146.08 125.75 146.45 121.72 Z" />
<path fill="#c56528" opacity="1.00" d=" M 155.97 127.01 C 157.42 126.14 158.01 124.39 159.14 123.18 C 163.63 122.83 168.08 124.05 172.57 124.26 C 172.70 125.01 172.96 126.50 173.09 127.24 C 175.39 127.35 176.90 125.88 178.10 124.11 C 179.51 124.03 180.94 123.95 182.36 123.87 C 182.10 126.61 182.74 129.76 181.20 132.19 C 177.37 133.89 172.97 132.77 168.91 132.78 C 162.72 132.17 156.47 133.70 150.31 132.71 C 147.82 130.69 149.36 126.77 148.98 123.95 C 150.14 124.01 151.30 124.08 152.46 124.15 C 153.38 125.40 153.94 127.60 155.97 127.01 Z" />
</g>
<g id="#195556ff">
<path fill="#195556" opacity="1.00" d=" M 29.30 103.44 C 30.33 104.18 31.25 105.06 32.21 105.88 C 33.17 104.94 34.13 104.00 35.09 103.06 C 37.96 104.74 37.73 107.69 37.20 110.57 C 35.51 112.20 33.64 111.44 31.99 110.21 C 31.74 110.64 31.24 111.51 31.00 111.95 C 29.25 110.01 27.43 108.14 25.59 106.31 C 25.69 107.68 25.90 110.44 26.00 111.82 C 24.33 113.39 22.30 112.53 20.47 111.79 C 20.82 110.45 21.18 109.12 21.55 107.80 C 21.65 107.45 21.86 106.77 21.96 106.43 C 22.25 105.80 22.83 104.55 23.12 103.93 C 24.51 104.94 25.82 106.11 27.52 106.57 C 28.07 105.50 28.66 104.46 29.30 103.44 M 31.76 107.23 C 31.29 108.69 31.74 109.13 33.13 108.57 C 33.62 107.13 33.16 106.68 31.76 107.23 Z" />
</g>
<g id="#0e5254ff">
<path fill="#0e5254" opacity="1.00" d=" M 40.35 102.95 C 41.32 103.62 42.19 104.42 43.09 105.18 C 43.85 105.16 45.39 105.13 46.16 105.11 C 44.53 105.43 42.04 105.08 42.16 107.40 L 42.68 107.61 C 42.72 108.40 42.81 109.99 42.85 110.78 C 41.90 112.40 40.02 110.60 38.68 110.55 C 38.63 108.83 38.52 107.11 38.36 105.40 C 39.01 104.57 39.67 103.76 40.35 102.95 Z" />
</g>
<g id="#d3e1e1ff">
<path fill="#d3e1e1" opacity="1.00" d=" M 243.34 103.07 C 244.97 102.58 245.52 103.14 244.98 104.77 C 243.34 105.26 242.79 104.69 243.34 103.07 Z" />
</g>
<g id="#1c4e4eff">
<path fill="#1c4e4e" opacity="1.00" d=" M 14.67 106.66 C 15.72 105.72 16.93 104.09 17.98 106.04 C 18.90 107.66 20.58 106.66 21.96 106.43 C 21.86 106.77 21.65 107.45 21.55 107.80 C 20.57 108.05 19.58 108.30 18.59 108.53 C 19.27 110.62 19.27 113.94 16.18 113.44 C 12.98 113.47 14.95 109.47 14.42 107.60 C 12.45 108.92 9.64 110.13 9.77 112.97 C 9.63 118.00 10.60 122.99 10.75 128.01 C 10.72 130.90 12.17 134.15 15.30 134.67 C 19.82 135.48 24.46 135.09 29.02 135.48 C 34.45 135.99 39.69 134.31 44.94 133.25 C 45.27 133.19 45.92 133.05 46.24 132.99 L 47.03 132.83 C 45.32 134.73 43.21 136.34 40.68 136.94 C 33.31 138.57 25.69 138.70 18.19 138.08 C 15.30 137.68 12.11 137.26 9.99 135.02 C 7.62 132.67 8.04 129.07 7.83 126.04 C 7.72 121.08 6.34 115.91 8.03 111.08 C 9.10 108.34 12.19 107.57 14.67 106.66 M 15.29 111.28 C 15.48 114.62 18.26 109.72 15.29 111.28 M 15.03 136.49 C 20.04 136.99 25.10 137.27 30.11 136.55 C 25.11 135.85 20.05 136.07 15.03 136.49 Z" />
</g>
<g id="#d7e6e6ff">
<path fill="#d7e6e6" opacity="1.00" d=" M 240.34 106.42 C 241.87 106.37 243.41 106.33 244.94 106.29 C 245.86 110.89 247.34 115.35 248.40 119.90 C 247.73 122.38 244.08 122.06 242.33 120.89 C 241.16 116.15 241.07 111.23 240.34 106.42 Z" />
</g>
<g id="#c2cdcdff">
<path fill="#c2cdcd" opacity="1.00" d=" M 31.76 107.23 C 33.16 106.68 33.62 107.13 33.13 108.57 C 31.74 109.13 31.29 108.69 31.76 107.23 Z" />
</g>
<g id="#ef4823ff">
<path fill="#ef4823" opacity="1.00" d=" M 231.55 106.45 C 234.03 106.46 236.50 106.49 238.98 106.54 C 239.23 111.35 240.34 116.11 240.21 120.92 C 238.00 123.27 234.39 122.63 232.07 120.81 C 231.45 116.06 231.83 111.23 231.55 106.45 Z" />
</g>
<g id="#f04823ff">
<path fill="#f04823" opacity="1.00" d=" M 246.62 106.51 C 247.49 106.46 249.23 106.36 250.10 106.32 C 251.61 110.29 253.62 114.07 255.00 118.10 C 255.98 120.91 251.85 121.11 250.35 119.77 C 248.40 115.59 247.67 110.98 246.62 106.51 Z" />
</g>
<g id="#8a9090ff">
<path fill="#8a9090" opacity="1.00" d=" M 25.59 106.31 C 27.43 108.14 29.25 110.01 31.00 111.95 C 29.34 112.23 27.66 111.99 26.00 111.82 C 25.90 110.44 25.69 107.68 25.59 106.31 Z" />
</g>
<g id="#de781bff">
<path fill="#de781b" opacity="1.00" d=" M 96.16 115.36 C 94.99 113.19 91.79 110.51 94.08 107.97 C 96.34 109.77 97.58 112.61 96.16 115.36 Z" />
</g>
<g id="#edb80dff">
<path fill="#edb80d" opacity="1.00" d=" M 96.78 116.24 C 98.00 113.36 99.20 110.46 100.79 107.76 C 103.49 109.28 101.18 112.38 100.45 114.37 C 99.97 116.21 98.50 116.60 96.78 116.24 Z" />
</g>
<g id="#753a16ff">
<path fill="#753a16" opacity="1.00" d=" M 144.22 109.88 C 144.32 109.55 144.53 108.89 144.64 108.56 L 144.76 110.06 C 145.18 113.51 145.18 117.14 146.60 120.37 C 147.59 121.01 148.66 121.51 149.72 122.02 C 151.39 120.29 153.20 117.85 155.97 118.47 C 159.96 119.52 163.63 122.38 167.95 121.77 C 170.37 120.94 172.21 118.47 174.96 118.72 C 177.49 118.50 179.22 120.54 180.97 122.01 C 181.88 121.06 182.80 120.11 183.67 119.12 C 184.30 119.51 185.58 120.27 186.22 120.66 C 186.01 124.82 186.84 128.95 186.66 133.11 C 186.67 135.86 183.75 137.65 181.21 137.12 C 176.37 136.65 171.50 136.41 166.63 136.33 C 171.46 135.84 176.32 135.84 181.17 135.63 C 182.43 135.45 184.30 135.58 184.75 134.03 C 185.23 129.66 184.57 125.27 184.48 120.90 C 184.03 125.46 185.85 132.41 180.50 134.61 C 174.11 136.24 167.49 134.08 161.00 134.18 C 162.45 134.90 163.90 135.61 165.35 136.34 C 161.15 136.22 156.92 136.25 152.77 136.96 C 150.77 137.31 148.74 137.29 146.72 137.27 C 143.87 131.88 146.00 125.78 145.10 120.05 C 144.60 116.68 144.15 113.29 144.22 109.88 M 151.87 121.73 C 153.18 122.45 154.50 123.18 155.78 123.97 L 154.17 125.00 C 154.71 124.99 155.79 124.96 156.33 124.95 C 156.14 123.77 155.95 122.59 155.77 121.41 C 156.51 121.49 157.99 121.64 158.74 121.72 C 158.51 121.31 158.04 120.49 157.81 120.08 C 155.73 120.23 153.54 120.33 151.87 121.73 M 171.25 121.70 C 173.66 121.84 176.09 121.80 178.50 121.56 C 176.16 120.83 173.36 119.92 171.25 121.70 M 146.45 121.72 C 146.08 125.75 145.70 129.84 146.15 133.88 C 147.30 135.95 150.08 135.59 152.06 136.10 C 150.41 134.76 148.32 133.78 147.18 131.92 C 146.76 128.54 146.87 125.11 146.45 121.72 M 155.97 127.01 C 153.94 127.60 153.38 125.40 152.46 124.15 C 151.30 124.08 150.14 124.01 148.98 123.95 C 149.36 126.77 147.82 130.69 150.31 132.71 C 156.47 133.70 162.72 132.17 168.91 132.78 C 172.97 132.77 177.37 133.89 181.20 132.19 C 182.74 129.76 182.10 126.61 182.36 123.87 C 180.94 123.95 179.51 124.03 178.10 124.11 C 176.90 125.88 175.39 127.35 173.09 127.24 C 172.96 126.50 172.70 125.01 172.57 124.26 C 168.08 124.05 163.63 122.83 159.14 123.18 C 158.01 124.39 157.42 126.14 155.97 127.01 M 174.15 123.28 C 173.61 124.92 174.16 125.47 175.78 124.95 C 176.30 123.31 175.76 122.75 174.15 123.28 Z" />
</g>
<g id="#8e8b8bff">
<path fill="#8e8b8b" opacity="1.00" d=" M 15.29 111.28 C 18.26 109.72 15.48 114.62 15.29 111.28 Z" />
</g>
<g id="#7a8080ff">
<path fill="#7a8080" opacity="1.00" d=" M 42.27 113.94 C 45.68 113.09 42.23 118.09 41.37 115.11 C 41.59 114.82 42.04 114.23 42.27 113.94 Z" />
</g>
<g id="#1e7349ff">
<path fill="#1e7349" opacity="1.00" d=" M 84.84 117.98 C 87.11 116.97 89.62 116.36 92.01 117.38 C 91.87 117.86 91.58 118.81 91.43 119.29 C 88.75 119.66 86.06 120.00 83.40 120.52 L 83.84 119.77 C 84.09 119.32 84.59 118.43 84.84 117.98 Z" />
</g>
<g id="#e8b20dff">
<path fill="#e8b20d" opacity="1.00" d=" M 96.14 116.78 C 96.87 116.68 98.33 116.48 99.06 116.39 C 96.31 121.13 93.27 125.89 88.95 129.36 C 89.84 124.46 93.22 120.61 96.14 116.78 Z" />
</g>
<g id="#d27019ff">
<path fill="#d27019" opacity="1.00" d=" M 99.19 118.48 C 100.58 117.35 102.73 119.60 101.57 120.93 C 100.19 122.05 97.82 119.82 99.19 118.48 Z" />
</g>
<g id="#2a8e5fff">
<path fill="#2a8e5f" opacity="1.00" d=" M 80.10 121.43 C 81.35 120.89 82.61 120.36 83.84 119.77 L 83.40 120.52 C 82.32 121.83 81.21 123.11 80.10 124.39 C 80.10 123.65 80.10 122.17 80.10 121.43 Z" />
</g>
<g id="#29895cff">
<path fill="#29895c" opacity="1.00" d=" M 110.01 121.35 C 111.75 120.82 113.48 120.28 115.22 119.75 C 115.14 121.41 115.05 123.07 114.97 124.73 C 113.32 123.59 111.67 122.46 110.01 121.35 Z" />
</g>
<g id="#75cb9cff">
<path fill="#75cb9c" opacity="1.00" d=" M 82.10 126.00 C 83.13 121.91 87.62 120.99 91.25 120.84 C 90.33 122.36 89.39 123.86 88.43 125.36 C 86.75 125.21 83.59 125.20 84.10 127.75 C 85.47 129.04 87.01 130.13 88.49 131.29 C 89.93 130.22 91.36 129.13 92.79 128.04 C 93.82 129.64 94.94 131.17 95.99 132.76 C 91.64 132.63 87.31 132.05 82.98 131.63 C 80.40 131.14 81.93 127.75 82.10 126.00 Z" />
</g>
<g id="#ffc110ff">
<path fill="#ffc110" opacity="1.00" d=" M 216.66 123.21 C 218.37 122.75 220.07 122.28 221.77 121.81 C 224.71 123.36 228.01 123.46 231.07 122.17 C 233.24 122.94 235.55 124.64 237.93 123.70 C 239.74 123.27 241.69 121.29 243.33 123.13 C 242.34 123.23 240.34 123.44 239.35 123.54 C 239.66 127.69 240.16 131.81 240.42 135.96 C 239.73 135.89 238.36 135.74 237.67 135.66 C 236.85 134.98 236.03 134.29 235.21 133.61 C 234.45 133.74 232.95 134.00 232.19 134.12 C 228.64 133.16 224.64 134.13 221.51 131.77 C 220.13 133.23 218.81 134.74 217.45 136.21 C 217.23 131.87 216.98 127.54 216.66 123.21 M 221.13 123.99 C 221.20 126.18 221.29 128.37 221.38 130.56 C 225.27 131.87 229.67 131.98 233.62 130.92 C 233.98 128.79 234.03 126.64 234.17 124.50 L 232.57 124.55 L 233.46 124.51 C 229.42 123.54 225.24 123.40 221.13 123.99 Z" />
</g>
<g id="#fcc410ff">
<path fill="#fcc410" opacity="1.00" d=" M 247.15 122.50 C 248.82 121.84 250.57 121.49 252.37 121.65 C 252.58 126.16 252.86 130.68 252.71 135.19 C 252.73 136.80 251.88 137.79 250.14 138.15 C 249.64 133.71 249.47 129.24 249.36 124.77 C 248.81 124.20 247.70 123.07 247.15 122.50 Z" />
</g>
<g id="#72c799ff">
<path fill="#72c799" opacity="1.00" d=" M 95.39 123.13 C 98.89 123.99 102.39 125.80 106.07 124.88 C 108.20 124.84 111.06 122.95 112.49 125.36 C 113.28 127.23 112.99 129.49 112.45 131.40 C 109.53 135.08 104.57 135.60 100.25 134.76 C 99.28 134.30 96.94 134.88 97.24 133.27 C 98.85 132.41 101.60 132.30 101.76 129.98 C 102.74 125.92 97.93 124.91 95.39 123.13 M 107.23 127.37 C 105.89 128.44 105.19 131.27 107.45 131.68 C 109.05 131.73 109.93 130.27 110.52 129.00 C 110.25 127.15 108.76 126.94 107.23 127.37 Z" />
</g>
<g id="#c48d1aff">
<path fill="#c48d1a" opacity="1.00" d=" M 174.15 123.28 C 175.76 122.75 176.30 123.31 175.78 124.95 C 174.16 125.47 173.61 124.92 174.15 123.28 Z" />
</g>
<g id="#614e18ff">
<path fill="#614e18" opacity="1.00" d=" M 221.13 123.99 C 225.24 123.40 229.42 123.54 233.46 124.51 L 232.57 124.55 C 229.01 124.72 225.46 124.75 221.91 124.75 C 221.73 126.68 221.55 128.62 221.38 130.56 C 221.29 128.37 221.20 126.18 221.13 123.99 Z" />
</g>
<g id="#155236ff">
<path fill="#155236" opacity="1.00" d=" M 107.23 127.37 C 108.76 126.94 110.25 127.15 110.52 129.00 C 109.93 130.27 109.05 131.73 107.45 131.68 C 105.19 131.27 105.89 128.44 107.23 127.37 Z" />
</g>
<g id="#248155ff">
<path fill="#248155" opacity="1.00" d=" M 79.29 132.13 C 80.58 132.61 81.86 133.08 83.14 133.56 C 81.88 134.05 80.61 134.53 79.34 135.02 C 79.33 134.29 79.31 132.85 79.29 132.13 Z" />
</g>
<g id="#298c5dff">
<path fill="#298c5d" opacity="1.00" d=" M 113.33 133.28 C 115.42 134.27 111.00 137.30 110.40 135.37 C 110.79 134.17 112.08 133.32 113.33 133.28 Z" />
</g>
<g id="#3ab67dff">
<path fill="#3ab67d" opacity="1.00" d=" M 221.11 133.71 C 223.13 134.36 225.16 134.99 227.19 135.59 C 226.72 136.63 226.27 137.67 225.73 138.68 C 223.04 139.53 220.14 138.99 217.37 139.01 C 218.28 137.94 219.22 136.89 220.18 135.87 C 220.41 135.33 220.88 134.25 221.11 133.71 Z" />
</g>
<g id="#116263ff">
<path fill="#116263" opacity="1.00" d=" M 15.03 136.49 C 20.05 136.07 25.11 135.85 30.11 136.55 C 25.10 137.27 20.04 136.99 15.03 136.49 Z" />
</g>
</svg>
