<?xml version="1.0" encoding="utf-8"?>
<!-- Generator: Adobe Illustrator 24.0.1, SVG Export Plug-In . SVG Version: 6.00 Build 0)  -->
<svg version="1.1" id="图层_1" xmlns="http://www.w3.org/2000/svg" xmlns:xlink="http://www.w3.org/1999/xlink" x="0px" y="0px"
	 viewBox="0 0 167 60" style="enable-background:new 0 0 167 60;" xml:space="preserve">
<style type="text/css">
	.st0{fill:#FFFFFF;}
	.st1{fill:url(#SVGID_1_);}
	.st2{fill:url(#SVGID_2_);}
	.st3{fill:url(#SVGID_3_);}
	.st4{fill:url(#SVGID_4_);}
	.st5{fill:url(#SVGID_5_);}
	.st6{fill:url(#SVGID_6_);}
	.st7{fill:url(#SVGID_7_);}
	.st8{fill:url(#SVGID_8_);}
	.st9{fill:url(#SVGID_9_);}
	.st10{fill:url(#SVGID_10_);}
	.st11{fill:url(#SVGID_11_);}
	.st12{fill:url(#SVGID_12_);}
	.st13{fill:url(#SVGID_13_);}
	.st14{fill:url(#SVGID_14_);}
	.st15{fill:url(#SVGID_15_);}
	.st16{fill:url(#SVGID_16_);}
	.st17{fill:url(#SVGID_17_);}
	.st18{fill:url(#SVGID_18_);}
	.st19{fill:url(#SVGID_19_);}
	.st20{fill:url(#SVGID_20_);}
</style>
<rect class="st0" width="167" height="60"/>
<g id="_x23_000000ff">
	<path class="st0" d="M0,1.77h167v55.67H0V1.77 M72.65,12.67c1.43,7.05,0.27,14.4,0.64,21.57c2.39-0.25,4.8-0.52,7.2-0.75
		c-0.02-2.47,0-4.93,0-7.39c2.9-1.01,5.79-2.06,8.68-3.1c3.67,2.88,7.45,5.62,11.12,8.49c2.91-0.3,5.82-0.59,8.73-0.92
		c-4.36-3.38-8.86-6.56-13.24-9.91c4.14-1.18,8.03-3.62,12.42-3.65c-0.09-1.56-0.14-3.12-0.19-4.68
		c-9.17,3.42-18.34,6.83-27.54,10.2c-0.01-3.54-0.01-7.08-0.01-10.61C77.88,12.2,75.27,12.45,72.65,12.67 M62.31,13.76
		c0.93,1.75,0.82,3.75,0.83,5.67c2.38-0.26,4.76-0.51,7.14-0.76c0-1.89,0.01-3.79,0.03-5.68C67.64,13.24,64.97,13.5,62.31,13.76
		 M15.22,23.63c0.44,3.24,0.32,6.5,0.32,9.76c9.51-0.97,19.01-1.94,28.52-2.91c0.01,1.07,0.02,2.14,0.03,3.21
		c-9.53,0.72-19,2.42-28.56,2.52c0.01,1.29,0.01,2.58,0.02,3.87c12.01-1.04,23.96-2.84,36-3.35c-0.09-3.49-0.03-6.98-0.07-10.47
		c-9.65,0.91-19.29,2-28.94,2.89c0.09-0.67,0.29-2,0.39-2.68c5.86-0.89,11.8-1.22,17.69-1.92c3.63-0.28,7.26-1.08,10.91-0.58
		c-0.03-1.32-0.05-2.64-0.06-3.96C39.37,21.19,27.31,22.57,15.22,23.63 M63.09,21.97c0,6.31,0,12.61,0,18.92
		c-3.22,0.29-6.44,0.67-9.66,0.97c-0.07,1.33-0.15,2.65-0.23,3.98c5.58-1.47,11.39-1.48,17.09-2.18c-0.02-7.48-0.01-14.97,0-22.44
		C67.89,21.45,65.49,21.72,63.09,21.97 M141.88,32.38c0.13,4.37,0.06,8.75,0.07,13.13c0.7-0.05,2.09-0.14,2.78-0.18
		c0-3.67,0-7.35,0-11.01c2.54-0.19,5.09-0.38,7.64-0.61c0.02,3.68,0,7.38,0.02,11.06c0.63-0.08,1.9-0.25,2.54-0.33
		c0-4.38,0-8.77,0-13.15C150.59,31.67,146.23,31.96,141.88,32.38 M126.34,33.56c0.11,4.41,0.04,8.82,0.06,13.24
		c4.44-0.33,8.87-0.87,13.32-0.95c-0.13-2.6-0.11-5.21-0.07-7.82c-2.6,0.19-5.2,0.44-7.81,0.44c0.05,0.58,0.14,1.75,0.19,2.34
		c1.61-0.11,3.2-0.23,4.81-0.35c0,0.82,0.01,2.44,0.01,3.26c-2.55,0.23-5.1,0.43-7.65,0.6c-0.01-2.92,0-5.85,0.02-8.79
		c3.53-0.26,7.07-0.56,10.61-0.81c-0.08-0.55-0.24-1.65-0.32-2.2C135.12,32.9,130.73,33.27,126.34,33.56 M106,35.19
		c0.24,2.48,0.28,4.97,0.24,7.47c3.39-0.3,6.77-0.56,10.16-0.84c0.01,0.88,0.04,2.64,0.06,3.53c-3.42,0.34-6.86,0.64-10.3,0.76
		c0.03,0.59,0.1,1.76,0.13,2.36c4.32-0.35,8.64-0.76,12.97-1c-0.05-2.69-0.05-5.38-0.03-8.07c-3.41,0.3-6.84,0.55-10.26,0.82
		c0.03-0.75,0.07-2.25,0.1-3c3.43-0.27,6.87-0.62,10.32-0.65c-0.06-0.59-0.19-1.79-0.24-2.38C114.76,34.51,110.39,34.95,106,35.19
		 M121.4,34.07c0.24,4.39,0.11,8.78,0.14,13.17c0.7-0.08,2.09-0.24,2.78-0.32c0-4.39,0-8.78,0-13.17
		C123.59,33.83,122.13,34,121.4,34.07 M90.78,36.42c0.25,4.4,0.08,8.8,0.16,13.21c4.33-0.26,8.64-0.82,12.98-0.89
		c-0.01-0.58-0.03-1.74-0.04-2.33c-3.47,0.25-6.94,0.52-10.4,0.84c0-0.82-0.01-2.44-0.01-3.25c3.38-0.34,6.76-0.65,10.15-0.78
		c-0.06-0.58-0.2-1.73-0.28-2.32c-3.28,0.32-6.57,0.57-9.86,0.84c0-0.83-0.01-2.46-0.01-3.28c3.47-0.3,6.95-0.65,10.44-0.72
		c0-0.58,0-1.76,0-2.35C99.54,35.78,95.17,36.15,90.78,36.42 M74.54,37.75c0.26,4.41,0.12,8.82,0.14,13.23
		c4.63-0.39,9.26-0.79,13.9-1.11c0-3.36,0.12-6.73,0-10.08c0.26-1.51-1.41-2.05-2.25-2.91C82.4,37.15,78.47,37.54,74.54,37.75z"/>
	<path class="st0" d="M77.47,39.74c2.78-0.2,5.57-0.43,8.34-0.69c0.01,2.93,0.01,5.86,0.02,8.8c-2.79,0.25-5.59,0.47-8.38,0.66
		C77.48,45.59,77.48,42.66,77.47,39.74z"/>
</g>
<g id="_x23_ffffffff">
	<g>
		<linearGradient id="SVGID_1_" gradientUnits="userSpaceOnUse" x1="72.65" y1="23.08" x2="109.04" y2="23.08">
			<stop  offset="0" style="stop-color:#FFFFFF"/>
			<stop  offset="1" style="stop-color:#5EA3E2"/>
		</linearGradient>
		<path class="st1" d="M72.65,12.67c2.62-0.22,5.22-0.47,7.83-0.75c0,3.53,0,7.07,0.01,10.61c9.19-3.37,18.37-6.77,27.54-10.2
			c0.05,1.56,0.09,3.12,0.19,4.68c-4.39,0.03-8.29,2.47-12.42,3.65c4.38,3.35,8.88,6.53,13.24,9.91c-2.91,0.32-5.82,0.62-8.73,0.92
			c-3.67-2.87-7.45-5.61-11.12-8.49c-2.89,1.04-5.78,2.09-8.68,3.1c0,2.47-0.02,4.93,0,7.39c-2.4,0.23-4.81,0.5-7.2,0.75
			C72.92,27.07,74.08,19.72,72.65,12.67z"/>
		<linearGradient id="SVGID_2_" gradientUnits="userSpaceOnUse" x1="62.31" y1="16.21" x2="70.31" y2="16.21">
			<stop  offset="0" style="stop-color:#FFFFFF"/>
			<stop  offset="1" style="stop-color:#5EA3E2"/>
		</linearGradient>
		<path class="st2" d="M62.31,13.76c2.66-0.26,5.33-0.52,8-0.77c-0.02,1.89-0.03,3.79-0.03,5.68c-2.38,0.25-4.77,0.5-7.14,0.76
			C63.13,17.5,63.24,15.51,62.31,13.76z"/>
		<linearGradient id="SVGID_3_" gradientUnits="userSpaceOnUse" x1="15.22" y1="30.035" x2="51.54" y2="30.035">
			<stop  offset="0" style="stop-color:#FFFFFF"/>
			<stop  offset="1" style="stop-color:#5EA3E2"/>
		</linearGradient>
		<path class="st3" d="M15.22,23.63c12.09-1.06,24.15-2.44,36.24-3.63c0.02,1.32,0.04,2.64,0.06,3.96
			c-3.65-0.49-7.28,0.31-10.91,0.58c-5.89,0.71-11.83,1.03-17.69,1.92c-0.1,0.68-0.3,2.01-0.39,2.68
			c9.65-0.89,19.29-1.99,28.94-2.89c0.05,3.5-0.02,6.99,0.07,10.47c-12.04,0.51-23.99,2.31-36,3.35c-0.01-1.29-0.01-2.58-0.02-3.87
			c9.56-0.1,19.03-1.8,28.56-2.52c-0.01-1.07-0.02-2.14-0.03-3.21c-9.51,0.97-19.01,1.94-28.52,2.91
			C15.54,30.13,15.66,26.86,15.22,23.63z"/>
		<linearGradient id="SVGID_4_" gradientUnits="userSpaceOnUse" x1="53.2" y1="33.53" x2="70.29" y2="33.53">
			<stop  offset="0" style="stop-color:#FFFFFF"/>
			<stop  offset="1" style="stop-color:#5EA3E2"/>
		</linearGradient>
		<path class="st4" d="M63.09,21.97c2.4-0.24,4.8-0.52,7.2-0.75c-0.01,7.48-0.02,14.97,0,22.44c-5.7,0.7-11.51,0.71-17.09,2.18
			c0.08-1.33,0.16-2.65,0.23-3.98c3.22-0.31,6.44-0.69,9.66-0.97C63.09,34.57,63.09,28.27,63.09,21.97z"/>
		<linearGradient id="SVGID_5_" gradientUnits="userSpaceOnUse" x1="141.88" y1="38.4" x2="154.94" y2="38.4">
			<stop  offset="0" style="stop-color:#FFFFFF"/>
			<stop  offset="1" style="stop-color:#5EA3E2"/>
		</linearGradient>
		<path class="st5" d="M141.88,32.38c4.35-0.42,8.71-0.71,13.06-1.09c0,4.38,0,8.77,0,13.15c-0.64,0.08-1.91,0.25-2.54,0.33
			c-0.02-3.68,0-7.38-0.02-11.06c-2.55,0.23-5.1,0.42-7.64,0.61c0,3.66,0,7.34,0,11.01c-0.7,0.04-2.09,0.13-2.78,0.18
			C141.93,41.12,142.01,36.75,141.88,32.38z"/>
		<linearGradient id="SVGID_6_" gradientUnits="userSpaceOnUse" x1="126.34" y1="39.66" x2="139.82" y2="39.66">
			<stop  offset="0" style="stop-color:#FFFFFF"/>
			<stop  offset="1" style="stop-color:#5EA3E2"/>
		</linearGradient>
		<path class="st6" d="M126.34,33.56c4.39-0.3,8.78-0.66,13.16-1.04c0.08,0.55,0.24,1.65,0.32,2.2c-3.54,0.25-7.08,0.55-10.61,0.81
			c-0.02,2.93-0.03,5.86-0.02,8.79c2.55-0.18,5.1-0.37,7.65-0.6c0-0.82-0.01-2.44-0.01-3.26c-1.61,0.12-3.2,0.24-4.81,0.35
			c-0.05-0.58-0.14-1.75-0.19-2.34c2.62,0,5.21-0.25,7.81-0.44c-0.04,2.61-0.06,5.22,0.07,7.82c-4.45,0.07-8.88,0.61-13.32,0.95
			C126.38,42.39,126.46,37.97,126.34,33.56z"/>
		<linearGradient id="SVGID_7_" gradientUnits="userSpaceOnUse" x1="106" y1="41.31" x2="119.39" y2="41.31">
			<stop  offset="0" style="stop-color:#FFFFFF"/>
			<stop  offset="1" style="stop-color:#5EA3E2"/>
		</linearGradient>
		<path class="st7" d="M106,35.19c4.39-0.23,8.76-0.68,13.15-1.02c0.06,0.59,0.18,1.79,0.24,2.38c-3.45,0.03-6.88,0.38-10.32,0.65
			c-0.03,0.75-0.07,2.25-0.1,3c3.42-0.27,6.85-0.52,10.26-0.82c-0.02,2.69-0.02,5.38,0.03,8.07c-4.33,0.24-8.65,0.65-12.97,1
			c-0.03-0.59-0.1-1.76-0.13-2.36c3.44-0.12,6.87-0.42,10.3-0.76c-0.02-0.88-0.05-2.64-0.06-3.53c-3.39,0.29-6.77,0.55-10.16,0.84
			C106.28,40.16,106.24,37.66,106,35.19z"/>
		<linearGradient id="SVGID_8_" gradientUnits="userSpaceOnUse" x1="121.4" y1="40.495" x2="124.32" y2="40.495">
			<stop  offset="0" style="stop-color:#FFFFFF"/>
			<stop  offset="1" style="stop-color:#5EA3E2"/>
		</linearGradient>
		<path class="st8" d="M121.4,34.07c0.73-0.07,2.19-0.24,2.92-0.32c0,4.39,0,8.78,0,13.17c-0.7,0.08-2.09,0.24-2.78,0.32
			C121.51,42.85,121.64,38.46,121.4,34.07z"/>
		<linearGradient id="SVGID_9_" gradientUnits="userSpaceOnUse" x1="90.78" y1="42.5" x2="103.92" y2="42.5">
			<stop  offset="0" style="stop-color:#FFFFFF"/>
			<stop  offset="1" style="stop-color:#5EA3E2"/>
		</linearGradient>
		<path class="st9" d="M90.78,36.42c4.39-0.27,8.76-0.64,13.13-1.04c0,0.58,0,1.76,0,2.35c-3.49,0.07-6.97,0.43-10.44,0.72
			c0,0.83,0.01,2.46,0.01,3.28c3.29-0.27,6.58-0.51,9.86-0.84c0.07,0.58,0.21,1.73,0.28,2.32c-3.39,0.13-6.77,0.44-10.15,0.78
			c0,0.81,0.01,2.43,0.01,3.25c3.46-0.32,6.93-0.58,10.4-0.84c0.01,0.58,0.03,1.74,0.04,2.33c-4.34,0.07-8.65,0.63-12.98,0.89
			C90.87,45.23,91.03,40.82,90.78,36.42z"/>
		<linearGradient id="SVGID_10_" gradientUnits="userSpaceOnUse" x1="74.54" y1="43.92" x2="88.6233" y2="43.92">
			<stop  offset="0" style="stop-color:#FFFFFF"/>
			<stop  offset="1" style="stop-color:#5EA3E2"/>
		</linearGradient>
		<path class="st10" d="M74.54,37.75c3.93-0.2,7.86-0.59,11.78-0.88c0.84,0.86,2.51,1.4,2.25,2.91c0.12,3.36,0,6.73,0,10.08
			c-4.64,0.32-9.27,0.72-13.9,1.11C74.66,46.57,74.8,42.15,74.54,37.75 M77.47,39.74c0.01,2.92,0.01,5.84-0.02,8.78
			c2.79-0.19,5.59-0.41,8.38-0.66c-0.01-2.94-0.01-5.87-0.02-8.8C83.04,39.32,80.25,39.54,77.47,39.74z"/>
	</g>
	<g>
		<linearGradient id="SVGID_11_" gradientUnits="userSpaceOnUse" x1="94.0187" y1="15.718" x2="78.1057" y2="48.3267">
			<stop  offset="0" style="stop-color:#B8860B"/>
			<stop  offset="0.0342" style="stop-color:#BC8E1A"/>
			<stop  offset="0.1299" style="stop-color:#C7A03F"/>
			<stop  offset="0.2257" style="stop-color:#CFAE5C"/>
			<stop  offset="0.3207" style="stop-color:#D5B970"/>
			<stop  offset="0.4143" style="stop-color:#D9BF7D"/>
			<stop  offset="0.5051" style="stop-color:#DAC181"/>
			<stop  offset="0.595" style="stop-color:#D9BF7D"/>
			<stop  offset="0.6819" style="stop-color:#D6B972"/>
			<stop  offset="0.7677" style="stop-color:#D0B05E"/>
			<stop  offset="0.8528" style="stop-color:#C8A243"/>
			<stop  offset="0.9365" style="stop-color:#BE9020"/>
			<stop  offset="0.9793" style="stop-color:#B8860B"/>
		</linearGradient>
		<path class="st11" d="M72.65,12.67c2.62-0.22,5.22-0.47,7.83-0.75c0,3.53,0,7.07,0.01,10.61c9.19-3.37,18.37-6.77,27.54-10.2
			c0.05,1.56,0.09,3.12,0.19,4.68c-4.39,0.03-8.29,2.47-12.42,3.65c4.38,3.35,8.88,6.53,13.24,9.91c-2.91,0.32-5.82,0.62-8.73,0.92
			c-3.67-2.87-7.45-5.61-11.12-8.49c-2.89,1.04-5.78,2.09-8.68,3.1c0,2.47-0.02,4.93,0,7.39c-2.4,0.23-4.81,0.5-7.2,0.75
			C72.92,27.07,74.08,19.72,72.65,12.67z"/>
		<linearGradient id="SVGID_12_" gradientUnits="userSpaceOnUse" x1="94.0187" y1="15.718" x2="78.1057" y2="48.3267">
			<stop  offset="0" style="stop-color:#B8860B"/>
			<stop  offset="0.0342" style="stop-color:#BC8E1A"/>
			<stop  offset="0.1299" style="stop-color:#C7A03F"/>
			<stop  offset="0.2257" style="stop-color:#CFAE5C"/>
			<stop  offset="0.3207" style="stop-color:#D5B970"/>
			<stop  offset="0.4143" style="stop-color:#D9BF7D"/>
			<stop  offset="0.5051" style="stop-color:#DAC181"/>
			<stop  offset="0.595" style="stop-color:#D9BF7D"/>
			<stop  offset="0.6819" style="stop-color:#D6B972"/>
			<stop  offset="0.7677" style="stop-color:#D0B05E"/>
			<stop  offset="0.8528" style="stop-color:#C8A243"/>
			<stop  offset="0.9365" style="stop-color:#BE9020"/>
			<stop  offset="0.9793" style="stop-color:#B8860B"/>
		</linearGradient>
		<path class="st12" d="M62.31,13.76c2.66-0.26,5.33-0.52,8-0.77c-0.02,1.89-0.03,3.79-0.03,5.68c-2.38,0.25-4.77,0.5-7.14,0.76
			C63.13,17.5,63.24,15.51,62.31,13.76z"/>
		<linearGradient id="SVGID_13_" gradientUnits="userSpaceOnUse" x1="94.0187" y1="15.718" x2="78.1057" y2="48.3267">
			<stop  offset="0" style="stop-color:#B8860B"/>
			<stop  offset="0.0342" style="stop-color:#BC8E1A"/>
			<stop  offset="0.1299" style="stop-color:#C7A03F"/>
			<stop  offset="0.2257" style="stop-color:#CFAE5C"/>
			<stop  offset="0.3207" style="stop-color:#D5B970"/>
			<stop  offset="0.4143" style="stop-color:#D9BF7D"/>
			<stop  offset="0.5051" style="stop-color:#DAC181"/>
			<stop  offset="0.595" style="stop-color:#D9BF7D"/>
			<stop  offset="0.6819" style="stop-color:#D6B972"/>
			<stop  offset="0.7677" style="stop-color:#D0B05E"/>
			<stop  offset="0.8528" style="stop-color:#C8A243"/>
			<stop  offset="0.9365" style="stop-color:#BE9020"/>
			<stop  offset="0.9793" style="stop-color:#B8860B"/>
		</linearGradient>
		<path class="st13" d="M15.22,23.63c12.09-1.06,24.15-2.44,36.24-3.63c0.02,1.32,0.04,2.64,0.06,3.96
			c-3.65-0.49-7.28,0.31-10.91,0.58c-5.89,0.71-11.83,1.03-17.69,1.92c-0.1,0.68-0.3,2.01-0.39,2.68
			c9.65-0.89,19.29-1.99,28.94-2.89c0.05,3.5-0.02,6.99,0.07,10.47c-12.04,0.51-23.99,2.31-36,3.35c-0.01-1.29-0.01-2.58-0.02-3.87
			c9.56-0.1,19.03-1.8,28.56-2.52c-0.01-1.07-0.02-2.14-0.03-3.21c-9.51,0.97-19.01,1.94-28.52,2.91
			C15.54,30.13,15.66,26.86,15.22,23.63z"/>
		<linearGradient id="SVGID_14_" gradientUnits="userSpaceOnUse" x1="94.0187" y1="15.718" x2="78.1057" y2="48.3267">
			<stop  offset="0" style="stop-color:#B8860B"/>
			<stop  offset="0.0342" style="stop-color:#BC8E1A"/>
			<stop  offset="0.1299" style="stop-color:#C7A03F"/>
			<stop  offset="0.2257" style="stop-color:#CFAE5C"/>
			<stop  offset="0.3207" style="stop-color:#D5B970"/>
			<stop  offset="0.4143" style="stop-color:#D9BF7D"/>
			<stop  offset="0.5051" style="stop-color:#DAC181"/>
			<stop  offset="0.595" style="stop-color:#D9BF7D"/>
			<stop  offset="0.6819" style="stop-color:#D6B972"/>
			<stop  offset="0.7677" style="stop-color:#D0B05E"/>
			<stop  offset="0.8528" style="stop-color:#C8A243"/>
			<stop  offset="0.9365" style="stop-color:#BE9020"/>
			<stop  offset="0.9793" style="stop-color:#B8860B"/>
		</linearGradient>
		<path class="st14" d="M63.09,21.97c2.4-0.24,4.8-0.52,7.2-0.75c-0.01,7.48-0.02,14.97,0,22.44c-5.7,0.7-11.51,0.71-17.09,2.18
			c0.08-1.33,0.16-2.65,0.23-3.98c3.22-0.31,6.44-0.69,9.66-0.97C63.09,34.57,63.09,28.27,63.09,21.97z"/>
		<linearGradient id="SVGID_15_" gradientUnits="userSpaceOnUse" x1="94.0187" y1="15.718" x2="78.1057" y2="48.3267">
			<stop  offset="0" style="stop-color:#B8860B"/>
			<stop  offset="0.0342" style="stop-color:#BC8E1A"/>
			<stop  offset="0.1299" style="stop-color:#C7A03F"/>
			<stop  offset="0.2257" style="stop-color:#CFAE5C"/>
			<stop  offset="0.3207" style="stop-color:#D5B970"/>
			<stop  offset="0.4143" style="stop-color:#D9BF7D"/>
			<stop  offset="0.5051" style="stop-color:#DAC181"/>
			<stop  offset="0.595" style="stop-color:#D9BF7D"/>
			<stop  offset="0.6819" style="stop-color:#D6B972"/>
			<stop  offset="0.7677" style="stop-color:#D0B05E"/>
			<stop  offset="0.8528" style="stop-color:#C8A243"/>
			<stop  offset="0.9365" style="stop-color:#BE9020"/>
			<stop  offset="0.9793" style="stop-color:#B8860B"/>
		</linearGradient>
		<path class="st15" d="M141.88,32.38c4.35-0.42,8.71-0.71,13.06-1.09c0,4.38,0,8.77,0,13.15c-0.64,0.08-1.91,0.25-2.54,0.33
			c-0.02-3.68,0-7.38-0.02-11.06c-2.55,0.23-5.1,0.42-7.64,0.61c0,3.66,0,7.34,0,11.01c-0.7,0.04-2.09,0.13-2.78,0.18
			C141.93,41.12,142.01,36.75,141.88,32.38z"/>
		<linearGradient id="SVGID_16_" gradientUnits="userSpaceOnUse" x1="94.0187" y1="15.718" x2="78.1057" y2="48.3267">
			<stop  offset="0" style="stop-color:#B8860B"/>
			<stop  offset="0.0342" style="stop-color:#BC8E1A"/>
			<stop  offset="0.1299" style="stop-color:#C7A03F"/>
			<stop  offset="0.2257" style="stop-color:#CFAE5C"/>
			<stop  offset="0.3207" style="stop-color:#D5B970"/>
			<stop  offset="0.4143" style="stop-color:#D9BF7D"/>
			<stop  offset="0.5051" style="stop-color:#DAC181"/>
			<stop  offset="0.595" style="stop-color:#D9BF7D"/>
			<stop  offset="0.6819" style="stop-color:#D6B972"/>
			<stop  offset="0.7677" style="stop-color:#D0B05E"/>
			<stop  offset="0.8528" style="stop-color:#C8A243"/>
			<stop  offset="0.9365" style="stop-color:#BE9020"/>
			<stop  offset="0.9793" style="stop-color:#B8860B"/>
		</linearGradient>
		<path class="st16" d="M126.34,33.56c4.39-0.3,8.78-0.66,13.16-1.04c0.08,0.55,0.24,1.65,0.32,2.2c-3.54,0.25-7.08,0.55-10.61,0.81
			c-0.02,2.93-0.03,5.86-0.02,8.79c2.55-0.18,5.1-0.37,7.65-0.6c0-0.82-0.01-2.44-0.01-3.26c-1.61,0.12-3.2,0.24-4.81,0.35
			c-0.05-0.58-0.14-1.75-0.19-2.34c2.62,0,5.21-0.25,7.81-0.44c-0.04,2.61-0.06,5.22,0.07,7.82c-4.45,0.07-8.88,0.61-13.32,0.95
			C126.38,42.39,126.46,37.97,126.34,33.56z"/>
		<linearGradient id="SVGID_17_" gradientUnits="userSpaceOnUse" x1="94.0187" y1="15.718" x2="78.1057" y2="48.3267">
			<stop  offset="0" style="stop-color:#B8860B"/>
			<stop  offset="0.0342" style="stop-color:#BC8E1A"/>
			<stop  offset="0.1299" style="stop-color:#C7A03F"/>
			<stop  offset="0.2257" style="stop-color:#CFAE5C"/>
			<stop  offset="0.3207" style="stop-color:#D5B970"/>
			<stop  offset="0.4143" style="stop-color:#D9BF7D"/>
			<stop  offset="0.5051" style="stop-color:#DAC181"/>
			<stop  offset="0.595" style="stop-color:#D9BF7D"/>
			<stop  offset="0.6819" style="stop-color:#D6B972"/>
			<stop  offset="0.7677" style="stop-color:#D0B05E"/>
			<stop  offset="0.8528" style="stop-color:#C8A243"/>
			<stop  offset="0.9365" style="stop-color:#BE9020"/>
			<stop  offset="0.9793" style="stop-color:#B8860B"/>
		</linearGradient>
		<path class="st17" d="M106,35.19c4.39-0.23,8.76-0.68,13.15-1.02c0.06,0.59,0.18,1.79,0.24,2.38c-3.45,0.03-6.88,0.38-10.32,0.65
			c-0.03,0.75-0.07,2.25-0.1,3c3.42-0.27,6.85-0.52,10.26-0.82c-0.02,2.69-0.02,5.38,0.03,8.07c-4.33,0.24-8.65,0.65-12.97,1
			c-0.03-0.59-0.1-1.76-0.13-2.36c3.44-0.12,6.87-0.42,10.3-0.76c-0.02-0.88-0.05-2.64-0.06-3.53c-3.39,0.29-6.77,0.55-10.16,0.84
			C106.28,40.16,106.24,37.66,106,35.19z"/>
		<linearGradient id="SVGID_18_" gradientUnits="userSpaceOnUse" x1="94.0187" y1="15.718" x2="78.1057" y2="48.3267">
			<stop  offset="0" style="stop-color:#B8860B"/>
			<stop  offset="0.0342" style="stop-color:#BC8E1A"/>
			<stop  offset="0.1299" style="stop-color:#C7A03F"/>
			<stop  offset="0.2257" style="stop-color:#CFAE5C"/>
			<stop  offset="0.3207" style="stop-color:#D5B970"/>
			<stop  offset="0.4143" style="stop-color:#D9BF7D"/>
			<stop  offset="0.5051" style="stop-color:#DAC181"/>
			<stop  offset="0.595" style="stop-color:#D9BF7D"/>
			<stop  offset="0.6819" style="stop-color:#D6B972"/>
			<stop  offset="0.7677" style="stop-color:#D0B05E"/>
			<stop  offset="0.8528" style="stop-color:#C8A243"/>
			<stop  offset="0.9365" style="stop-color:#BE9020"/>
			<stop  offset="0.9793" style="stop-color:#B8860B"/>
		</linearGradient>
		<path class="st18" d="M121.4,34.07c0.73-0.07,2.19-0.24,2.92-0.32c0,4.39,0,8.78,0,13.17c-0.7,0.08-2.09,0.24-2.78,0.32
			C121.51,42.85,121.64,38.46,121.4,34.07z"/>
		<linearGradient id="SVGID_19_" gradientUnits="userSpaceOnUse" x1="94.0187" y1="15.718" x2="78.1057" y2="48.3267">
			<stop  offset="0" style="stop-color:#B8860B"/>
			<stop  offset="0.0342" style="stop-color:#BC8E1A"/>
			<stop  offset="0.1299" style="stop-color:#C7A03F"/>
			<stop  offset="0.2257" style="stop-color:#CFAE5C"/>
			<stop  offset="0.3207" style="stop-color:#D5B970"/>
			<stop  offset="0.4143" style="stop-color:#D9BF7D"/>
			<stop  offset="0.5051" style="stop-color:#DAC181"/>
			<stop  offset="0.595" style="stop-color:#D9BF7D"/>
			<stop  offset="0.6819" style="stop-color:#D6B972"/>
			<stop  offset="0.7677" style="stop-color:#D0B05E"/>
			<stop  offset="0.8528" style="stop-color:#C8A243"/>
			<stop  offset="0.9365" style="stop-color:#BE9020"/>
			<stop  offset="0.9793" style="stop-color:#B8860B"/>
		</linearGradient>
		<path class="st19" d="M90.78,36.42c4.39-0.27,8.76-0.64,13.13-1.04c0,0.58,0,1.76,0,2.35c-3.49,0.07-6.97,0.43-10.44,0.72
			c0,0.83,0.01,2.46,0.01,3.28c3.29-0.27,6.58-0.51,9.86-0.84c0.07,0.58,0.21,1.73,0.28,2.32c-3.39,0.13-6.77,0.44-10.15,0.78
			c0,0.81,0.01,2.43,0.01,3.25c3.46-0.32,6.93-0.58,10.4-0.84c0.01,0.58,0.03,1.74,0.04,2.33c-4.34,0.07-8.65,0.63-12.98,0.89
			C90.87,45.23,91.03,40.82,90.78,36.42z"/>
		<linearGradient id="SVGID_20_" gradientUnits="userSpaceOnUse" x1="94.0187" y1="15.718" x2="78.1057" y2="48.3267">
			<stop  offset="0" style="stop-color:#B8860B"/>
			<stop  offset="0.0342" style="stop-color:#BC8E1A"/>
			<stop  offset="0.1299" style="stop-color:#C7A03F"/>
			<stop  offset="0.2257" style="stop-color:#CFAE5C"/>
			<stop  offset="0.3207" style="stop-color:#D5B970"/>
			<stop  offset="0.4143" style="stop-color:#D9BF7D"/>
			<stop  offset="0.5051" style="stop-color:#DAC181"/>
			<stop  offset="0.595" style="stop-color:#D9BF7D"/>
			<stop  offset="0.6819" style="stop-color:#D6B972"/>
			<stop  offset="0.7677" style="stop-color:#D0B05E"/>
			<stop  offset="0.8528" style="stop-color:#C8A243"/>
			<stop  offset="0.9365" style="stop-color:#BE9020"/>
			<stop  offset="0.9793" style="stop-color:#B8860B"/>
		</linearGradient>
		<path class="st20" d="M74.54,37.75c3.93-0.2,7.86-0.59,11.78-0.88c0.84,0.86,2.51,1.4,2.25,2.91c0.12,3.36,0,6.73,0,10.08
			c-4.64,0.32-9.27,0.72-13.9,1.11C74.66,46.57,74.8,42.15,74.54,37.75 M77.47,39.74c0.01,2.92,0.01,5.84-0.02,8.78
			c2.79-0.19,5.59-0.41,8.38-0.66c-0.01-2.94-0.01-5.87-0.02-8.8C83.04,39.32,80.25,39.54,77.47,39.74z"/>
	</g>
</g>
</svg>
