<?xml version="1.0" encoding="UTF-8" ?>
<!DOCTYPE svg PUBLIC "-//W3C//DTD SVG 1.1//EN" "http://www.w3.org/Graphics/SVG/1.1/DTD/svg11.dtd">
<svg width="180pt" height="60pt" viewBox="0 0 180 60" version="1.1" xmlns="http://www.w3.org/2000/svg">
<g id="#000000ff">
<path fill="#000000" opacity="1.00" d=" M 0.00 0.00 L 180.00 0.00 L 180.00 60.00 L 0.00 60.00 L 0.00 0.00 M 78.31 11.75 C 79.85 19.35 78.60 27.27 79.00 35.00 C 81.58 34.73 84.17 34.44 86.76 34.19 C 86.74 31.53 86.76 28.88 86.76 26.22 C 89.89 25.13 93.00 24.00 96.12 22.88 C 100.08 25.98 104.15 28.94 108.11 32.03 C 111.25 31.71 114.38 31.39 117.52 31.04 C 112.82 27.40 107.97 23.97 103.25 20.36 C 107.71 19.09 111.91 16.46 116.64 16.43 C 116.54 14.75 116.49 13.07 116.44 11.39 C 106.56 15.08 96.67 18.75 86.76 22.38 C 86.75 18.56 86.75 14.75 86.75 10.94 C 83.94 11.24 81.13 11.51 78.31 11.75 M 67.16 12.92 C 68.16 14.81 68.04 16.96 68.05 19.03 C 70.61 18.75 73.18 18.48 75.75 18.21 C 75.75 16.17 75.76 14.13 75.78 12.09 C 72.90 12.36 70.03 12.64 67.16 12.92 M 16.41 23.56 C 16.88 27.05 16.75 30.57 16.75 34.08 C 27.00 33.03 37.24 31.99 47.49 30.94 C 47.50 32.09 47.51 33.25 47.52 34.40 C 37.25 35.18 27.04 37.01 16.74 37.12 C 16.75 38.51 16.75 39.90 16.76 41.29 C 29.70 40.17 42.58 38.23 55.56 37.68 C 55.46 33.92 55.53 30.16 55.48 26.39 C 45.08 27.37 34.69 28.55 24.29 29.51 C 24.39 28.79 24.60 27.35 24.71 26.62 C 31.03 25.66 37.43 25.31 43.78 24.55 C 47.69 24.25 51.61 23.39 55.54 23.92 C 55.51 22.50 55.49 21.07 55.47 19.65 C 42.44 20.93 29.44 22.42 16.41 23.56 M 68.00 21.77 C 68.00 28.57 68.00 35.36 68.00 42.16 C 64.53 42.47 61.06 42.88 57.59 43.21 C 57.51 44.64 57.43 46.07 57.34 47.50 C 63.35 45.92 69.62 45.90 75.76 45.15 C 75.74 37.09 75.75 29.02 75.76 20.96 C 73.17 21.21 70.59 21.51 68.00 21.77 M 152.92 32.99 C 153.06 37.70 152.98 42.42 153.00 47.14 C 153.75 47.09 155.25 46.99 156.00 46.95 C 156.00 42.99 156.00 39.03 156.00 35.08 C 158.74 34.87 161.49 34.67 164.24 34.42 C 164.26 38.39 164.24 42.37 164.26 46.34 C 164.94 46.25 166.31 46.07 167.00 45.98 C 167.00 41.26 167.00 36.53 167.00 31.81 C 162.31 32.23 157.61 32.54 152.92 32.99 M 136.18 34.27 C 136.30 39.02 136.22 43.78 136.25 48.54 C 141.04 48.18 145.81 47.60 150.61 47.52 C 150.47 44.72 150.49 41.90 150.53 39.09 C 147.73 39.29 144.93 39.56 142.11 39.56 C 142.16 40.19 142.26 41.45 142.31 42.08 C 144.04 41.96 145.76 41.83 147.49 41.70 C 147.49 42.58 147.50 44.33 147.50 45.21 C 144.75 45.46 142.00 45.67 139.25 45.86 C 139.24 42.71 139.25 39.55 139.27 36.39 C 143.08 36.11 146.89 35.79 150.71 35.52 C 150.62 34.93 150.45 33.74 150.36 33.15 C 145.64 33.56 140.91 33.95 136.18 34.27 M 114.25 36.02 C 114.51 38.69 114.55 41.38 114.51 44.07 C 118.16 43.75 121.81 43.47 125.46 43.16 C 125.47 44.11 125.50 46.01 125.52 46.96 C 121.83 47.33 118.13 47.65 114.42 47.78 C 114.45 48.42 114.53 49.68 114.56 50.32 C 119.22 49.94 123.87 49.50 128.54 49.24 C 128.49 46.34 128.49 43.44 128.51 40.54 C 124.83 40.86 121.14 41.13 117.45 41.42 C 117.48 40.61 117.53 39.00 117.56 38.19 C 121.26 37.90 124.96 37.52 128.68 37.49 C 128.61 36.85 128.48 35.56 128.42 34.92 C 123.69 35.29 118.98 35.77 114.25 36.02 M 130.85 34.82 C 131.11 39.55 130.97 44.28 131.00 49.01 C 131.75 48.92 133.25 48.75 134.00 48.66 C 134.00 43.93 134.00 39.20 134.00 34.47 C 133.21 34.56 131.64 34.74 130.85 34.82 M 97.85 37.35 C 98.12 42.09 97.94 46.84 98.02 51.59 C 102.69 51.31 107.33 50.71 112.01 50.63 C 112.00 50.00 111.98 48.75 111.97 48.12 C 108.23 48.39 104.49 48.68 100.76 49.02 C 100.76 48.14 100.75 46.39 100.75 45.52 C 104.39 45.15 108.04 44.82 111.69 44.68 C 111.62 44.05 111.47 42.81 111.39 42.18 C 107.85 42.53 104.31 42.79 100.76 43.08 C 100.76 42.19 100.75 40.43 100.75 39.54 C 104.49 39.22 108.24 38.84 112.00 38.76 C 112.00 38.13 112.00 36.86 112.00 36.23 C 107.29 36.66 102.58 37.06 97.85 37.35 M 80.34 38.78 C 80.62 43.53 80.47 48.29 80.49 53.04 C 85.48 52.62 90.47 52.19 95.47 51.84 C 95.47 48.22 95.60 44.59 95.47 40.97 C 95.75 39.34 93.95 38.76 93.04 37.83 C 88.81 38.14 84.58 38.56 80.34 38.78 Z" />
<path fill="#000000" opacity="1.00" d=" M 83.50 40.93 C 86.50 40.71 89.50 40.47 92.49 40.19 C 92.50 43.35 92.50 46.51 92.51 49.68 C 89.50 49.95 86.49 50.19 83.48 50.39 C 83.51 47.23 83.51 44.08 83.50 40.93 Z" />
</g>
<g id="#ffffffff">
<path fill="#ffffff" opacity="1.00" d=" M 78.31 11.75 C 81.13 11.51 83.94 11.24 86.75 10.94 C 86.75 14.75 86.75 18.56 86.76 22.38 C 96.67 18.75 106.56 15.08 116.44 11.39 C 116.49 13.07 116.54 14.75 116.64 16.43 C 111.91 16.46 107.71 19.09 103.25 20.36 C 107.97 23.97 112.82 27.40 117.52 31.04 C 114.38 31.39 111.25 31.71 108.11 32.03 C 104.15 28.94 100.08 25.98 96.12 22.88 C 93.00 24.00 89.89 25.13 86.76 26.22 C 86.76 28.88 86.74 31.53 86.76 34.19 C 84.17 34.44 81.58 34.73 79.00 35.00 C 78.60 27.27 79.85 19.35 78.31 11.75 Z" />
<path fill="#ffffff" opacity="1.00" d=" M 67.16 12.92 C 70.03 12.64 72.90 12.36 75.78 12.09 C 75.76 14.13 75.75 16.17 75.75 18.21 C 73.18 18.48 70.61 18.75 68.05 19.03 C 68.04 16.96 68.16 14.81 67.16 12.92 Z" />
<path fill="#ffffff" opacity="1.00" d=" M 16.41 23.56 C 29.44 22.42 42.44 20.93 55.47 19.65 C 55.49 21.07 55.51 22.50 55.54 23.92 C 51.61 23.39 47.69 24.25 43.78 24.55 C 37.43 25.31 31.03 25.66 24.71 26.62 C 24.60 27.35 24.39 28.79 24.29 29.51 C 34.69 28.55 45.08 27.37 55.48 26.39 C 55.53 30.16 55.46 33.92 55.56 37.68 C 42.58 38.23 29.70 40.17 16.76 41.29 C 16.75 39.90 16.75 38.51 16.74 37.12 C 27.04 37.01 37.25 35.18 47.52 34.40 C 47.51 33.25 47.50 32.09 47.49 30.94 C 37.24 31.99 27.00 33.03 16.75 34.08 C 16.75 30.57 16.88 27.05 16.41 23.56 Z" />
<path fill="#ffffff" opacity="1.00" d=" M 68.00 21.77 C 70.59 21.51 73.17 21.21 75.76 20.96 C 75.75 29.02 75.74 37.09 75.76 45.15 C 69.62 45.90 63.35 45.92 57.34 47.50 C 57.43 46.07 57.51 44.64 57.59 43.21 C 61.06 42.88 64.53 42.47 68.00 42.16 C 68.00 35.36 68.00 28.57 68.00 21.77 Z" />
<path fill="#ffffff" opacity="1.00" d=" M 152.92 32.99 C 157.61 32.54 162.31 32.23 167.00 31.81 C 167.00 36.53 167.00 41.26 167.00 45.98 C 166.31 46.07 164.94 46.25 164.26 46.34 C 164.24 42.37 164.26 38.39 164.24 34.42 C 161.49 34.67 158.74 34.87 156.00 35.08 C 156.00 39.03 156.00 42.99 156.00 46.95 C 155.25 46.99 153.75 47.09 153.00 47.14 C 152.98 42.42 153.06 37.70 152.92 32.99 Z" />
<path fill="#ffffff" opacity="1.00" d=" M 136.18 34.27 C 140.91 33.95 145.64 33.56 150.36 33.15 C 150.45 33.74 150.62 34.93 150.71 35.52 C 146.89 35.79 143.08 36.11 139.27 36.39 C 139.25 39.55 139.24 42.71 139.25 45.86 C 142.00 45.67 144.75 45.46 147.50 45.21 C 147.50 44.33 147.49 42.58 147.49 41.70 C 145.76 41.83 144.04 41.96 142.31 42.08 C 142.26 41.45 142.16 40.19 142.11 39.56 C 144.93 39.56 147.73 39.29 150.53 39.09 C 150.49 41.90 150.47 44.72 150.61 47.52 C 145.81 47.60 141.04 48.18 136.25 48.54 C 136.22 43.78 136.30 39.02 136.18 34.27 Z" />
<path fill="#ffffff" opacity="1.00" d=" M 114.25 36.02 C 118.98 35.77 123.69 35.29 128.42 34.92 C 128.48 35.56 128.61 36.85 128.68 37.49 C 124.96 37.52 121.26 37.90 117.56 38.19 C 117.53 39.00 117.48 40.61 117.45 41.42 C 121.14 41.13 124.83 40.86 128.51 40.54 C 128.49 43.44 128.49 46.34 128.54 49.24 C 123.87 49.50 119.22 49.94 114.56 50.32 C 114.53 49.68 114.45 48.42 114.42 47.78 C 118.13 47.65 121.83 47.33 125.52 46.96 C 125.50 46.01 125.47 44.11 125.46 43.16 C 121.81 43.47 118.16 43.75 114.51 44.07 C 114.55 41.38 114.51 38.69 114.25 36.02 Z" />
<path fill="#ffffff" opacity="1.00" d=" M 130.85 34.82 C 131.64 34.74 133.21 34.56 134.00 34.47 C 134.00 39.20 134.00 43.93 134.00 48.66 C 133.25 48.75 131.75 48.92 131.00 49.01 C 130.97 44.28 131.11 39.55 130.85 34.82 Z" />
<path fill="#ffffff" opacity="1.00" d=" M 97.85 37.35 C 102.58 37.06 107.29 36.66 112.00 36.23 C 112.00 36.86 112.00 38.13 112.00 38.76 C 108.24 38.84 104.49 39.22 100.75 39.54 C 100.75 40.43 100.76 42.19 100.76 43.08 C 104.31 42.79 107.85 42.53 111.39 42.18 C 111.47 42.81 111.62 44.05 111.69 44.68 C 108.04 44.82 104.39 45.15 100.75 45.52 C 100.75 46.39 100.76 48.14 100.76 49.02 C 104.49 48.68 108.23 48.39 111.97 48.12 C 111.98 48.75 112.00 50.00 112.01 50.63 C 107.33 50.71 102.69 51.31 98.02 51.59 C 97.94 46.84 98.12 42.09 97.85 37.35 Z" />
<path fill="#ffffff" opacity="1.00" d=" M 80.34 38.78 C 84.58 38.56 88.81 38.14 93.04 37.83 C 93.95 38.76 95.75 39.34 95.47 40.97 C 95.60 44.59 95.47 48.22 95.47 51.84 C 90.47 52.19 85.48 52.62 80.49 53.04 C 80.47 48.29 80.62 43.53 80.34 38.78 M 83.50 40.93 C 83.51 44.08 83.51 47.23 83.48 50.39 C 86.49 50.19 89.50 49.95 92.51 49.68 C 92.50 46.51 92.50 43.35 92.49 40.19 C 89.50 40.47 86.50 40.71 83.50 40.93 Z" />
</g>
</svg>
