<?xml version="1.0" encoding="UTF-8" ?>
<!DOCTYPE svg PUBLIC "-//W3C//DTD SVG 1.1//EN" "http://www.w3.org/Graphics/SVG/1.1/DTD/svg11.dtd">
<svg width="270pt" height="170pt" viewBox="0 0 270 170" version="1.1" xmlns="http://www.w3.org/2000/svg">
<g id="#ffffffff">
<path fill="#ffffff" opacity="1.00" d=" M 0.00 0.00 L 270.00 0.00 L 270.00 170.00 L 0.00 170.00 L 0.00 0.00 M 167.97 16.10 C 167.55 20.65 169.52 24.87 171.86 28.63 C 169.96 30.95 168.50 33.97 169.15 37.04 C 169.84 39.59 171.43 41.73 172.61 44.05 C 172.85 46.46 172.70 48.88 172.74 51.30 C 171.97 51.52 170.44 51.97 169.67 52.19 C 169.54 52.55 169.29 53.27 169.16 53.63 C 167.25 54.37 166.15 56.70 167.18 58.56 L 167.27 58.66 C 166.63 62.01 170.09 63.78 172.83 64.32 C 172.94 65.06 173.15 66.55 173.26 67.30 C 175.82 66.00 173.48 62.56 173.91 60.38 C 174.56 61.18 175.22 61.96 175.91 62.73 C 175.61 65.73 176.23 68.70 177.76 71.29 L 178.15 71.89 L 177.81 73.41 C 177.32 73.22 176.35 72.85 175.86 72.66 C 175.80 73.51 175.74 74.36 175.68 75.21 C 177.69 76.51 179.74 78.00 180.58 80.35 C 182.05 80.49 183.20 81.41 184.18 82.46 C 185.71 83.09 187.32 83.46 188.93 83.82 C 188.86 85.09 188.80 86.36 188.74 87.63 C 181.60 89.44 174.90 93.01 169.86 98.44 C 164.15 95.58 156.91 98.86 155.27 105.00 C 154.79 110.23 155.30 115.50 154.99 120.74 C 153.20 120.66 151.42 120.58 149.63 120.51 C 149.39 119.94 148.90 118.79 148.65 118.22 C 147.15 119.60 145.17 120.57 144.12 122.37 C 144.58 122.59 145.49 123.03 145.95 123.25 C 146.18 124.29 146.02 125.27 145.46 126.21 C 144.85 130.84 148.44 134.65 147.21 139.32 C 144.74 139.01 144.85 136.07 143.29 134.64 C 141.70 132.40 138.65 131.37 136.05 132.38 C 133.46 133.08 132.34 136.48 129.37 136.05 C 129.33 135.26 129.26 133.69 129.22 132.90 C 120.12 132.74 111.01 133.05 101.92 132.76 L 101.03 132.04 C 98.16 133.34 94.93 132.77 91.88 132.87 C 91.98 131.78 92.09 130.70 92.20 129.62 C 94.38 129.68 96.56 129.70 98.74 129.68 L 98.92 131.54 C 99.49 130.94 100.06 130.33 100.63 129.71 C 108.06 129.63 115.50 129.92 122.92 129.54 C 125.41 129.59 127.81 127.61 127.94 125.07 C 128.16 121.58 127.96 118.08 128.00 114.59 C 131.52 114.50 135.05 114.75 138.57 114.46 C 140.66 114.22 141.73 111.94 141.54 110.02 C 141.52 101.37 141.56 92.73 141.52 84.08 C 141.66 82.13 140.09 80.31 138.15 80.16 C 134.77 79.90 131.37 80.12 127.99 80.07 C 127.83 75.12 128.44 70.09 127.69 65.19 C 125.49 60.84 119.91 62.33 115.97 61.99 C 109.41 62.39 102.55 61.11 96.20 62.89 C 95.71 62.74 95.21 62.63 94.71 62.55 C 94.02 62.45 92.63 62.26 91.94 62.16 C 74.29 62.01 56.62 61.95 38.96 62.02 C 36.82 62.15 34.59 61.95 32.52 62.59 C 30.38 63.49 29.40 65.78 29.56 67.99 C 29.57 81.57 29.53 95.15 29.60 108.73 C 27.85 108.20 26.11 107.63 24.43 106.93 C 23.82 104.72 22.52 102.56 20.16 101.92 C 15.55 100.23 10.59 106.43 13.71 110.48 C 15.68 113.94 20.39 113.90 23.10 111.35 C 25.22 112.20 27.83 112.39 29.52 114.01 C 29.77 117.64 29.35 121.28 29.64 124.91 C 29.69 127.25 31.78 129.35 34.10 129.49 C 37.96 129.82 41.85 129.62 45.71 129.86 C 45.45 133.22 45.58 136.93 48.39 139.27 C 47.32 140.44 46.34 142.12 47.43 143.65 C 48.79 146.14 52.19 144.63 54.18 145.63 C 56.24 150.24 60.65 154.25 66.01 153.81 C 120.37 153.78 174.73 153.85 229.08 153.78 C 234.25 153.85 238.23 149.80 240.15 145.33 C 242.39 145.17 245.59 145.73 246.41 142.92 C 246.38 142.27 246.33 140.96 246.30 140.30 C 249.51 139.31 251.90 136.43 251.63 132.96 C 251.60 122.34 251.77 111.71 251.56 101.09 C 251.63 97.87 249.01 95.67 246.41 94.32 C 244.68 95.32 243.23 98.33 240.91 97.17 C 239.66 96.90 239.78 95.38 239.38 94.45 C 241.52 94.53 243.66 94.42 245.75 93.91 C 244.86 93.03 243.97 92.17 243.06 91.33 C 244.98 89.87 246.49 87.99 248.08 86.20 C 249.15 86.41 250.21 86.70 251.25 87.08 C 250.15 86.02 249.08 84.91 248.29 83.60 C 251.51 82.90 253.56 87.00 256.48 86.24 C 255.20 85.29 253.91 84.38 252.62 83.46 C 251.89 82.27 250.98 81.23 249.57 80.87 C 249.21 78.16 248.71 75.44 247.52 72.95 C 248.16 70.02 249.67 67.42 251.28 64.94 C 247.12 63.42 242.36 63.83 238.89 66.71 C 234.87 66.37 230.88 66.74 227.00 67.79 C 224.01 67.29 220.07 66.40 217.80 68.91 C 218.79 70.66 220.17 72.18 220.96 74.05 C 220.72 76.37 220.13 78.64 219.80 80.95 C 219.35 81.16 218.43 81.58 217.98 81.79 C 217.10 83.89 214.39 84.45 213.85 86.72 C 216.17 85.32 218.51 83.76 221.31 83.57 C 220.85 85.33 219.14 86.01 217.80 86.95 C 219.05 86.70 220.31 86.43 221.57 86.15 C 222.70 88.19 224.41 89.78 226.24 91.18 C 224.93 92.58 223.81 94.42 221.75 94.70 C 219.28 94.99 217.69 96.85 216.39 98.78 C 214.79 97.86 213.08 97.17 211.34 96.56 C 209.28 91.67 204.76 88.18 199.67 86.89 C 199.71 86.12 199.78 84.59 199.82 83.83 C 201.35 83.33 202.92 82.98 204.49 82.63 C 205.08 81.35 206.28 80.75 207.52 80.25 C 209.00 78.47 210.61 76.79 212.45 75.38 C 213.93 71.78 215.50 68.17 216.00 64.27 C 219.05 63.20 221.90 60.40 221.21 56.91 C 220.97 53.77 217.88 52.45 215.62 50.93 C 216.48 49.16 217.77 47.57 218.08 45.57 C 220.83 42.70 218.74 38.62 217.35 35.63 C 216.22 31.38 214.80 26.75 210.93 24.17 C 207.40 21.52 202.83 21.52 198.63 21.72 C 198.35 22.01 197.79 22.58 197.51 22.87 L 197.31 22.88 C 196.30 21.01 193.86 22.12 192.52 20.81 C 189.79 18.56 186.75 16.28 183.06 16.14 C 178.04 15.86 173.00 16.00 167.97 16.10 M 223.37 38.39 C 223.24 41.07 223.31 43.74 223.61 46.40 C 226.52 46.45 229.44 46.51 232.35 46.58 C 232.74 48.73 231.71 51.81 234.00 53.15 C 235.28 53.96 236.75 53.11 238.07 52.87 C 238.54 53.00 239.47 53.27 239.94 53.40 C 244.06 51.84 248.50 54.85 252.58 52.65 C 252.52 50.23 252.51 47.81 252.54 45.40 C 251.01 45.41 249.50 45.43 247.98 45.43 C 249.11 45.93 250.24 46.44 251.37 46.94 C 251.41 48.74 251.44 50.53 251.47 52.33 C 245.52 52.50 239.57 52.49 233.63 52.33 C 233.59 50.41 233.58 48.50 233.58 46.58 C 237.95 46.45 242.32 46.42 246.69 46.57 C 246.70 46.30 246.72 45.77 246.73 45.50 C 245.41 45.44 244.09 45.37 242.78 45.30 C 242.72 43.01 242.67 40.72 242.62 38.43 C 236.20 38.48 229.79 38.54 223.37 38.39 M 38.62 41.59 C 38.43 44.21 38.43 46.83 38.60 49.44 C 41.78 49.42 44.96 49.50 48.14 49.68 C 48.24 51.68 48.21 53.70 48.59 55.68 C 49.52 57.39 51.78 55.99 53.20 55.87 C 53.64 56.00 54.51 56.27 54.95 56.41 C 58.96 54.62 63.76 58.20 67.45 55.73 C 67.71 53.28 67.59 50.81 67.60 48.35 C 66.36 48.39 65.12 48.45 63.89 48.53 C 64.68 49.36 65.78 49.71 66.81 50.13 C 66.67 51.85 66.51 53.57 66.35 55.28 C 60.51 55.50 54.66 55.59 48.82 55.26 C 48.80 53.39 48.78 51.53 48.75 49.66 C 53.05 49.47 57.35 49.47 61.65 49.55 C 61.67 49.27 61.71 48.72 61.73 48.45 C 60.96 48.42 59.41 48.36 58.64 48.34 C 58.53 46.11 58.42 43.88 58.33 41.66 C 51.76 41.37 45.19 41.51 38.62 41.59 M 174.05 69.35 C 172.87 70.35 174.50 72.43 175.78 71.61 C 177.06 70.63 175.32 68.47 174.05 69.35 M 139.22 70.23 C 139.05 72.99 138.78 75.83 139.66 78.51 C 142.53 78.46 145.46 77.98 148.29 78.62 C 148.78 80.79 148.80 83.02 148.95 85.23 C 150.72 85.16 152.48 85.05 154.24 84.85 C 153.19 83.83 151.70 83.77 150.36 83.48 C 150.34 81.98 150.32 80.49 150.31 79.00 C 154.68 78.44 159.11 78.68 163.47 78.03 C 162.41 76.95 160.97 76.55 159.55 76.22 C 159.42 74.16 159.26 72.11 159.10 70.05 C 152.47 69.99 145.83 69.75 139.22 70.23 M 164.60 76.95 C 167.32 78.19 168.24 80.70 167.56 83.53 C 163.27 84.01 158.94 83.92 154.63 84.10 L 155.49 84.75 C 159.92 85.25 164.44 85.34 168.90 85.00 C 169.01 82.34 169.03 79.67 168.94 77.01 C 167.49 76.99 166.04 76.97 164.60 76.95 Z" />
<path fill="#ffffff" opacity="1.00" d=" M 175.81 35.99 C 176.17 34.89 176.90 34.12 177.98 33.67 C 176.41 38.32 175.35 43.13 175.63 48.06 C 175.37 49.00 174.86 49.84 174.10 50.57 C 173.96 45.68 173.76 40.56 175.81 35.99 Z" />
<path fill="#ffffff" opacity="1.00" d=" M 223.73 39.71 C 229.86 39.39 236.01 39.38 242.14 39.75 C 242.18 41.59 242.22 43.42 242.26 45.25 C 236.12 45.61 229.96 45.54 223.82 45.32 C 223.79 43.45 223.76 41.58 223.73 39.71 Z" />
<path fill="#ffffff" opacity="1.00" d=" M 39.62 42.58 C 45.55 42.48 51.47 42.48 57.40 42.57 C 57.40 44.49 57.39 46.40 57.38 48.32 C 51.44 48.50 45.49 48.56 39.55 48.38 C 39.56 46.45 39.59 44.51 39.62 42.58 Z" />
<path fill="#ffffff" opacity="1.00" d=" M 182.83 48.72 C 185.61 49.07 187.92 50.68 189.74 52.73 C 189.80 52.95 189.90 53.38 189.96 53.60 C 188.68 52.94 187.42 52.25 186.14 51.63 C 187.09 53.95 186.86 56.45 186.88 58.90 C 187.69 58.56 189.32 57.88 190.13 57.54 C 190.11 57.87 190.07 58.52 190.06 58.84 C 188.59 59.80 187.13 60.78 185.65 61.74 C 184.22 57.52 183.51 53.11 182.83 48.72 Z" />
<path fill="#ffffff" opacity="1.00" d=" M 199.68 53.73 C 201.08 53.36 201.59 53.86 201.19 55.24 C 199.79 55.62 199.29 55.12 199.68 53.73 Z" />
<path fill="#ffffff" opacity="1.00" d=" M 188.93 62.01 C 189.52 61.46 189.52 61.46 188.93 62.01 Z" />
<path fill="#ffffff" opacity="1.00" d=" M 189.19 66.92 C 193.53 66.68 197.88 66.84 202.22 66.74 C 202.19 68.07 202.15 69.41 202.10 70.74 C 197.80 70.67 193.49 70.74 189.18 70.69 C 189.18 69.43 189.19 68.18 189.19 66.92 Z" />
<path fill="#ffffff" opacity="1.00" d=" M 221.84 78.13 C 222.98 65.47 243.94 64.04 247.13 76.11 C 244.75 71.82 240.41 69.18 235.62 68.43 C 235.47 69.09 235.16 70.41 235.01 71.07 C 234.82 70.55 234.44 69.51 234.25 69.00 C 232.26 70.24 229.92 70.30 227.68 70.68 C 224.78 72.21 223.27 75.34 221.84 78.13 Z" />
<path fill="#ffffff" opacity="1.00" d=" M 38.84 68.32 C 39.34 68.60 40.34 69.16 40.83 69.44 C 41.53 72.41 41.20 75.52 40.78 78.50 C 40.36 78.77 39.54 79.29 39.12 79.56 C 38.91 78.94 38.69 78.32 38.47 77.71 C 38.81 74.59 38.77 71.45 38.84 68.32 Z" />
<path fill="#ffffff" opacity="1.00" d=" M 224.05 70.43 C 221.34 70.47 222.77 68.07 224.72 68.86 C 224.55 69.25 224.22 70.04 224.05 70.43 Z" />
<path fill="#ffffff" opacity="1.00" d=" M 140.81 72.03 C 146.45 71.66 152.12 71.67 157.77 71.91 C 157.78 73.51 157.78 75.10 157.79 76.70 C 152.18 76.80 146.57 76.76 140.97 76.71 C 140.91 75.15 140.86 73.59 140.81 72.03 Z" />
<path fill="#ffffff" opacity="1.00" d=" M 227.30 73.45 C 231.91 70.67 235.73 77.37 233.13 81.10 C 231.54 84.25 226.62 83.82 225.39 80.61 C 224.73 78.15 224.74 74.83 227.30 73.45 M 227.88 74.96 C 228.77 75.70 229.67 76.43 230.57 77.15 C 230.19 77.56 229.42 78.36 229.04 78.77 C 228.01 78.12 226.99 77.48 225.96 76.85 C 226.28 78.41 226.23 80.44 227.99 81.17 C 230.17 82.56 233.18 79.95 232.38 77.58 C 232.02 75.41 229.59 75.28 227.88 74.96 Z" />
<path fill="#ffffff" opacity="1.00" d=" M 238.40 73.43 C 241.43 71.33 245.45 74.62 244.96 77.99 C 245.52 81.15 242.16 84.35 239.07 83.02 C 235.25 81.58 235.13 75.52 238.40 73.43 M 237.11 77.35 C 237.43 78.90 237.78 80.95 239.60 81.39 C 242.43 82.44 245.02 78.38 242.85 76.25 C 241.14 74.10 238.59 76.00 237.11 77.35 Z" />
<path fill="#ffffff" opacity="1.00" d=" M 178.35 74.63 C 178.38 74.68 178.43 74.77 178.46 74.82 L 178.44 74.83 L 178.35 74.63 Z" />
<path fill="#ffffff" opacity="1.00" d=" M 239.86 76.05 C 241.46 75.67 242.31 78.26 240.51 78.50 C 238.56 79.32 237.50 76.03 239.86 76.05 Z" />
<path fill="#ffffff" opacity="1.00" d=" M 91.40 85.81 C 91.30 83.96 91.38 80.90 94.05 81.30 C 104.43 81.21 114.81 81.35 125.19 81.32 C 129.64 81.50 134.11 81.12 138.55 81.61 C 140.23 81.68 139.83 83.82 140.00 84.94 C 139.93 94.24 140.21 103.56 139.79 112.86 C 124.20 113.74 108.56 112.66 92.97 113.45 C 91.90 112.62 91.28 111.42 91.42 110.05 C 91.32 102.33 91.45 94.60 91.38 86.88 C 106.79 87.01 122.21 87.23 137.61 86.77 C 136.11 85.20 133.88 85.58 131.94 85.49 C 118.43 85.66 104.91 85.33 91.40 85.81 M 94.01 83.04 C 93.56 84.43 94.04 84.91 95.47 84.48 C 95.92 83.10 95.44 82.62 94.01 83.04 M 97.05 83.11 C 96.64 84.53 97.13 84.99 98.52 84.49 C 98.94 83.08 98.45 82.62 97.05 83.11 M 100.09 83.04 C 99.60 84.42 100.07 84.92 101.50 84.53 C 102.00 83.16 101.53 82.66 100.09 83.04 M 94.67 90.63 C 94.50 95.87 94.43 101.11 94.73 106.34 C 99.50 106.89 104.42 107.19 109.16 106.20 C 109.00 101.04 109.05 95.87 109.17 90.71 C 104.39 89.78 99.48 90.21 94.67 90.63 M 111.16 93.18 C 111.09 93.95 110.94 95.49 110.86 96.26 C 114.92 96.32 119.02 96.48 123.05 95.89 C 125.45 95.10 127.90 94.59 130.42 94.41 C 130.63 94.11 131.03 93.50 131.23 93.20 C 124.55 92.80 117.84 92.90 111.16 93.18 M 111.41 97.29 C 112.43 98.65 116.66 98.50 117.74 97.22 C 115.78 96.56 113.33 96.48 111.41 97.29 M 111.36 99.45 C 111.30 99.78 111.20 100.44 111.14 100.77 C 111.14 102.09 111.14 103.40 111.14 104.71 C 115.17 105.01 119.18 104.29 122.13 101.33 C 125.02 102.03 127.71 99.82 130.71 100.50 C 130.72 100.23 130.76 99.69 130.77 99.42 C 124.30 99.62 117.83 99.60 111.36 99.45 Z" />
<path fill="#ffffff" opacity="1.00" d=" M 54.11 85.09 C 56.19 83.26 58.80 84.65 60.57 86.16 L 60.07 87.27 C 58.54 86.51 56.87 84.73 55.12 85.99 C 52.47 87.15 53.70 90.18 54.59 92.11 L 53.23 92.29 C 51.50 90.02 51.45 86.67 54.11 85.09 Z" />
<path fill="#ffffff" opacity="1.00" d=" M 60.07 87.27 L 60.89 86.17 C 62.89 90.72 57.82 95.56 53.53 92.68 L 54.59 92.11 C 55.89 91.86 57.21 91.74 58.51 91.43 C 59.78 90.48 59.53 88.63 60.07 87.27 Z" />
<path fill="#ffffff" opacity="1.00" d=" M 224.53 95.02 C 226.43 95.10 228.33 95.19 230.23 95.33 C 230.17 95.77 230.07 96.67 230.02 97.11 C 229.79 97.27 229.34 97.58 229.11 97.74 C 227.09 98.12 225.39 96.71 224.53 95.02 Z" />
<path fill="#ffffff" opacity="1.00" d=" M 21.54 106.42 C 20.73 104.15 17.74 104.60 16.32 102.92 C 19.18 102.12 22.93 103.78 23.18 106.96 C 23.84 110.37 20.05 112.57 17.05 112.23 C 15.95 111.12 14.83 110.03 13.71 108.95 C 13.80 106.78 14.53 104.75 16.17 103.25 C 16.36 103.48 16.74 103.93 16.94 104.16 C 16.12 105.82 14.42 108.05 16.33 109.64 C 18.40 112.38 22.87 109.37 21.54 106.42 Z" />
<path fill="#ffffff" opacity="1.00" d=" M 23.22 108.65 C 28.64 109.10 33.65 111.42 38.71 113.24 C 39.33 112.93 39.94 112.61 40.55 112.28 L 39.31 111.26 C 39.23 110.52 39.06 109.03 38.98 108.28 C 40.21 109.40 41.40 110.79 41.18 112.58 C 41.15 112.96 41.09 113.73 41.06 114.12 C 43.00 114.31 45.00 114.96 45.47 117.13 C 40.10 116.16 35.08 113.96 29.88 112.38 C 27.49 111.51 24.64 111.01 23.22 108.65 Z" />
<path fill="#ffffff" opacity="1.00" d=" M 48.48 113.34 C 52.08 111.12 56.60 116.01 54.49 119.48 C 53.18 122.16 49.29 123.30 47.25 120.76 C 44.54 118.75 45.59 114.57 48.48 113.34 M 49.40 114.38 C 45.35 115.45 47.56 122.36 51.57 120.52 C 55.40 119.07 53.08 113.16 49.40 114.38 Z" />
<path fill="#ffffff" opacity="1.00" d=" M 148.07 124.24 C 150.29 123.80 152.63 123.55 154.83 124.28 L 154.81 124.71 C 152.62 125.52 150.06 125.61 148.07 124.24 Z" />
<path fill="#ffffff" opacity="1.00" d=" M 166.28 127.30 C 166.55 127.34 167.09 127.40 167.36 127.44 C 167.31 129.97 167.34 132.49 167.29 135.02 C 165.27 133.07 166.59 129.80 166.28 127.30 Z" />
<path fill="#ffffff" opacity="1.00" d=" M 148.01 132.54 C 150.37 132.45 152.73 132.44 155.09 132.46 C 155.09 134.60 155.08 136.73 155.06 138.86 C 152.93 138.85 150.81 138.85 148.69 138.81 C 148.47 136.72 148.26 134.63 148.01 132.54 Z" />
<path fill="#ffffff" opacity="1.00" d=" M 129.36 137.23 C 130.96 136.74 131.50 137.31 130.97 138.96 C 129.37 139.43 128.83 138.86 129.36 137.23 Z" />
</g>
<g id="#584b56ff">
<path fill="#584b56" opacity="1.00" d=" M 167.97 16.10 C 173.00 16.00 178.04 15.86 183.06 16.14 C 186.75 16.28 189.79 18.56 192.52 20.81 C 193.86 22.12 196.30 21.01 197.31 22.88 C 195.69 22.96 194.08 23.00 192.47 23.00 C 190.65 21.16 188.66 19.44 186.32 18.30 C 181.37 17.39 176.30 17.58 171.30 17.84 C 170.79 17.86 169.78 17.89 169.27 17.91 C 169.37 18.37 169.56 19.28 169.66 19.73 C 170.10 23.14 171.70 26.25 174.03 28.74 C 175.29 30.29 176.95 31.44 178.62 32.49 C 181.80 34.16 185.39 34.85 188.96 34.78 C 197.74 34.79 206.51 34.66 215.29 34.83 C 214.86 32.27 214.05 29.76 212.56 27.60 C 208.90 23.29 202.86 22.35 197.51 22.87 C 197.79 22.58 198.35 22.01 198.63 21.72 C 202.83 21.52 207.40 21.52 210.93 24.17 C 214.80 26.75 216.22 31.38 217.35 35.63 C 218.74 38.62 220.83 42.70 218.08 45.57 C 217.77 47.57 216.48 49.16 215.62 50.93 C 217.88 52.45 220.97 53.77 221.21 56.91 C 221.90 60.40 219.05 63.20 216.00 64.27 C 215.50 68.17 213.93 71.78 212.45 75.38 C 210.61 76.79 209.00 78.47 207.52 80.25 C 206.28 80.75 205.08 81.35 204.49 82.63 C 202.92 82.98 201.35 83.33 199.82 83.83 C 199.78 84.59 199.71 86.12 199.67 86.89 C 204.76 88.18 209.28 91.67 211.34 96.56 C 213.08 97.17 214.79 97.86 216.39 98.78 C 217.69 96.85 219.28 94.99 221.75 94.70 C 223.81 94.42 224.93 92.58 226.24 91.18 C 224.41 89.78 222.70 88.19 221.57 86.15 C 220.31 86.43 219.05 86.70 217.80 86.95 C 219.14 86.01 220.85 85.33 221.31 83.57 C 218.51 83.76 216.17 85.32 213.85 86.72 C 214.39 84.45 217.10 83.89 217.98 81.79 C 218.43 81.58 219.35 81.16 219.80 80.95 C 220.13 78.64 220.72 76.37 220.96 74.05 C 220.17 72.18 218.79 70.66 217.80 68.91 C 220.07 66.40 224.01 67.29 227.00 67.79 C 230.88 66.74 234.87 66.37 238.89 66.71 C 242.36 63.83 247.12 63.42 251.28 64.94 C 249.67 67.42 248.16 70.02 247.52 72.95 C 248.71 75.44 249.21 78.16 249.57 80.87 C 250.98 81.23 251.89 82.27 252.62 83.46 C 253.91 84.38 255.20 85.29 256.48 86.24 C 253.56 87.00 251.51 82.90 248.29 83.60 C 249.08 84.91 250.15 86.02 251.25 87.08 C 250.21 86.70 249.15 86.41 248.08 86.20 C 246.49 87.99 244.98 89.87 243.06 91.33 C 243.97 92.17 244.86 93.03 245.75 93.91 C 243.66 94.42 241.52 94.53 239.38 94.45 C 239.78 95.38 239.66 96.90 240.91 97.17 C 243.23 98.33 244.68 95.32 246.41 94.32 C 249.01 95.67 251.63 97.87 251.56 101.09 C 251.77 111.71 251.60 122.34 251.63 132.96 C 251.90 136.43 249.51 139.31 246.30 140.30 C 246.33 140.96 246.38 142.27 246.41 142.92 C 245.59 145.73 242.39 145.17 240.15 145.33 C 238.23 149.80 234.25 153.85 229.08 153.78 C 174.73 153.85 120.37 153.78 66.01 153.81 C 60.65 154.25 56.24 150.24 54.18 145.63 C 52.19 144.63 48.79 146.14 47.43 143.65 C 46.34 142.12 47.32 140.44 48.39 139.27 C 45.58 136.93 45.45 133.22 45.71 129.86 C 41.85 129.62 37.96 129.82 34.10 129.49 C 31.78 129.35 29.69 127.25 29.64 124.91 C 29.35 121.28 29.77 117.64 29.52 114.01 C 27.83 112.39 25.22 112.20 23.10 111.35 C 20.39 113.90 15.68 113.94 13.71 110.48 C 10.59 106.43 15.55 100.23 20.16 101.92 C 22.52 102.56 23.82 104.72 24.43 106.93 C 26.11 107.63 27.85 108.20 29.60 108.73 C 29.53 95.15 29.57 81.57 29.56 67.99 C 29.40 65.78 30.38 63.49 32.52 62.59 C 34.59 61.95 36.82 62.15 38.96 62.02 C 56.62 61.95 74.29 62.01 91.94 62.16 C 92.63 62.26 94.02 62.45 94.71 62.55 C 94.36 62.77 93.65 63.22 93.29 63.45 C 75.22 63.80 57.12 63.37 39.04 63.58 C 37.39 63.51 35.25 64.21 35.21 66.17 C 35.18 72.11 34.82 78.05 35.20 83.99 C 34.78 93.04 34.67 102.14 35.68 111.16 C 38.66 111.54 37.02 107.02 38.54 105.26 C 38.65 106.01 38.87 107.53 38.98 108.28 C 39.06 109.03 39.23 110.52 39.31 111.26 L 40.55 112.28 C 39.94 112.61 39.33 112.93 38.71 113.24 C 33.65 111.42 28.64 109.10 23.22 108.65 C 24.64 111.01 27.49 111.51 29.88 112.38 C 35.08 113.96 40.10 116.16 45.47 117.13 C 45.00 114.96 43.00 114.31 41.06 114.12 C 41.09 113.73 41.15 112.96 41.18 112.58 C 42.68 113.05 44.18 113.54 45.68 114.03 C 46.71 113.25 47.75 112.48 48.79 111.72 C 50.17 105.65 51.81 99.64 52.96 93.53 C 50.38 90.84 50.17 85.67 53.83 83.82 C 58.13 80.92 64.34 86.31 62.07 90.93 C 61.21 93.65 57.62 94.28 56.99 97.09 C 55.65 102.08 54.52 107.12 53.28 112.13 C 54.37 113.64 56.08 115.00 56.04 117.03 C 56.55 120.73 52.69 124.32 49.04 123.32 C 46.46 122.79 45.49 120.03 43.57 118.55 C 42.10 117.82 40.52 117.34 38.97 116.80 C 38.98 119.59 39.00 122.38 39.05 125.18 C 44.64 125.86 50.34 124.91 55.88 126.09 C 50.49 127.32 44.78 127.19 39.35 126.49 C 36.27 124.09 37.88 119.61 37.61 116.26 C 36.94 116.07 35.60 115.69 34.93 115.50 C 34.95 118.94 34.60 122.43 35.24 125.82 C 35.99 128.36 38.94 128.01 41.01 128.10 C 68.01 128.44 95.00 127.88 122.00 128.12 C 123.80 128.27 126.01 127.46 126.38 125.48 C 126.95 122.01 126.63 118.46 126.74 114.96 C 126.37 114.96 125.63 114.97 125.25 114.97 C 125.25 118.27 125.83 121.69 124.93 124.91 C 124.14 126.91 121.85 126.91 120.04 126.90 C 100.69 126.86 81.34 126.85 62.00 126.90 C 60.26 126.88 58.55 126.49 56.87 126.11 C 58.90 125.72 60.96 125.41 63.04 125.43 C 78.01 125.52 92.98 125.46 107.96 125.47 C 113.26 125.41 118.60 125.78 123.88 125.04 C 123.87 121.62 123.80 118.20 123.84 114.78 C 115.23 114.77 106.62 114.73 98.01 114.81 C 95.94 114.81 93.83 114.79 91.81 114.28 C 92.10 114.08 92.68 113.66 92.97 113.45 C 108.56 112.66 124.20 113.74 139.79 112.86 C 140.21 103.56 139.93 94.24 140.00 84.94 C 139.83 83.82 140.23 81.68 138.55 81.61 C 134.11 81.12 129.64 81.50 125.19 81.32 L 125.46 80.80 C 127.94 76.76 126.33 71.62 126.55 67.13 C 126.48 62.62 121.01 63.68 117.96 63.52 C 110.73 63.15 103.31 64.44 96.20 62.89 C 102.55 61.11 109.41 62.39 115.97 61.99 C 119.91 62.33 125.49 60.84 127.69 65.19 C 128.44 70.09 127.83 75.12 127.99 80.07 C 131.37 80.12 134.77 79.90 138.15 80.16 C 140.09 80.31 141.66 82.13 141.52 84.08 C 141.56 92.73 141.52 101.37 141.54 110.02 C 141.73 111.94 140.66 114.22 138.57 114.46 C 135.05 114.75 131.52 114.50 128.00 114.59 C 127.96 118.08 128.16 121.58 127.94 125.07 C 127.81 127.61 125.41 129.59 122.92 129.54 C 115.50 129.92 108.06 129.63 100.63 129.71 C 100.06 130.33 99.49 130.94 98.92 131.54 L 98.74 129.68 C 96.56 129.70 94.38 129.68 92.20 129.62 C 92.09 130.70 91.98 131.78 91.88 132.87 C 94.93 132.77 98.16 133.34 101.03 132.04 L 101.92 132.76 C 111.01 133.05 120.12 132.74 129.22 132.90 C 129.26 133.69 129.33 135.26 129.37 136.05 C 132.34 136.48 133.46 133.08 136.05 132.38 C 138.65 131.37 141.70 132.40 143.29 134.64 C 144.85 136.07 144.74 139.01 147.21 139.32 C 148.44 134.65 144.85 130.84 145.46 126.21 C 146.02 125.27 146.18 124.29 145.95 123.25 C 146.48 123.50 147.54 123.99 148.07 124.24 C 150.06 125.61 152.62 125.52 154.81 124.71 L 154.83 124.28 C 154.87 123.40 154.95 121.63 154.99 120.74 C 155.30 115.50 154.79 110.23 155.27 105.00 C 156.91 98.86 164.15 95.58 169.86 98.44 C 174.90 93.01 181.60 89.44 188.74 87.63 C 188.80 86.36 188.86 85.09 188.93 83.82 C 187.32 83.46 185.71 83.09 184.18 82.46 C 183.20 81.41 182.05 80.49 180.58 80.35 C 179.74 78.00 177.69 76.51 175.68 75.21 C 175.74 74.36 175.80 73.51 175.86 72.66 C 176.35 72.85 177.32 73.22 177.81 73.41 L 178.35 74.63 L 178.44 74.83 L 178.46 74.82 C 179.13 74.62 180.48 74.22 181.15 74.02 C 181.06 74.41 180.88 75.18 180.79 75.57 C 179.40 76.30 180.27 78.86 181.82 77.94 L 181.89 77.91 C 183.11 79.66 184.92 80.79 186.98 81.30 C 192.28 83.55 198.29 83.20 203.32 80.42 C 204.26 79.86 205.19 79.26 206.09 78.62 C 211.92 74.88 214.40 67.84 214.72 61.19 C 213.76 62.02 212.80 62.83 211.84 63.64 C 209.99 64.94 207.86 65.76 205.63 66.08 C 205.16 66.10 204.21 66.13 203.73 66.15 C 203.67 69.60 203.92 73.57 201.26 76.22 C 197.51 80.51 189.86 79.93 186.73 75.19 C 184.76 72.59 185.13 69.18 185.04 66.12 C 184.32 66.08 182.86 66.02 182.13 65.98 C 179.79 65.50 177.64 64.37 175.91 62.73 C 175.22 61.96 174.56 61.18 173.91 60.38 C 173.48 62.56 175.82 66.00 173.26 67.30 C 173.15 66.55 172.94 65.06 172.83 64.32 C 170.09 63.78 166.63 62.01 167.27 58.66 C 168.76 60.31 170.37 61.85 172.35 62.90 C 172.38 61.83 172.42 59.70 172.44 58.63 C 171.84 58.62 170.64 58.59 170.04 58.57 C 170.96 57.67 171.87 56.77 172.79 55.87 C 172.73 55.10 172.62 53.58 172.57 52.81 C 171.90 53.05 170.57 53.53 169.91 53.77 C 169.85 53.37 169.73 52.59 169.67 52.19 C 170.44 51.97 171.97 51.52 172.74 51.30 C 172.70 48.88 172.85 46.46 172.61 44.05 C 171.43 41.73 169.84 39.59 169.15 37.04 C 168.50 33.97 169.96 30.95 171.86 28.63 C 169.52 24.87 167.55 20.65 167.97 16.10 M 172.21 29.88 C 170.61 33.42 169.27 38.38 172.70 41.27 C 173.37 38.30 174.43 35.45 175.68 32.67 C 174.52 31.74 173.36 30.81 172.21 29.88 M 175.81 35.99 C 173.76 40.56 173.96 45.68 174.10 50.57 C 174.86 49.84 175.37 49.00 175.63 48.06 C 178.45 46.17 181.64 44.30 185.20 45.05 C 189.68 45.53 192.32 49.49 194.47 52.99 C 196.32 48.82 200.01 44.77 204.94 44.96 C 208.73 44.65 211.81 47.26 214.51 49.55 C 214.54 45.11 214.19 40.64 212.80 36.40 C 205.53 36.72 198.26 36.46 190.99 36.58 C 186.51 36.66 181.78 36.25 177.98 33.67 C 176.90 34.12 176.17 34.89 175.81 35.99 M 185.48 47.12 C 185.59 48.50 187.84 49.17 189.07 49.00 C 189.20 47.42 186.75 46.29 185.48 47.12 M 201.00 48.00 C 204.11 49.39 201.48 44.79 201.00 48.00 M 198.05 50.67 C 199.39 50.84 200.89 49.29 201.00 48.00 C 199.60 47.49 197.44 49.19 198.05 50.67 M 177.20 56.89 C 178.03 60.78 182.12 62.44 185.75 62.04 L 185.65 61.74 C 187.13 60.78 188.59 59.80 190.06 58.84 C 190.36 59.29 190.97 60.18 191.28 60.63 C 192.99 57.04 193.68 51.84 189.74 49.41 C 189.74 50.24 189.74 51.90 189.74 52.73 C 187.92 50.68 185.61 49.07 182.83 48.72 C 179.52 49.91 175.84 52.93 177.20 56.89 M 189.07 49.00 C 189.24 49.11 189.57 49.31 189.74 49.41 C 189.57 49.31 189.24 49.11 189.07 49.00 M 199.40 52.01 C 200.04 52.03 201.32 52.08 201.96 52.10 C 205.81 53.93 203.98 60.63 199.47 59.03 C 201.55 61.70 204.81 62.36 208.02 61.93 L 207.48 61.48 C 207.91 61.21 208.78 60.68 209.21 60.41 C 213.13 57.38 211.75 51.20 207.47 49.25 L 207.42 50.32 L 207.35 49.17 C 206.50 49.10 204.79 48.95 203.93 48.88 C 202.22 49.60 200.71 50.70 199.40 52.01 M 216.08 52.86 C 216.07 53.64 216.06 55.19 216.05 55.96 C 216.82 56.56 217.58 57.15 218.34 57.76 L 218.12 59.30 C 217.73 57.33 215.31 58.31 215.86 60.03 C 215.42 61.30 217.32 63.23 217.94 61.31 C 221.43 58.95 219.42 54.18 216.08 52.86 M 199.68 53.73 C 199.29 55.12 199.79 55.62 201.19 55.24 C 201.59 53.86 201.08 53.36 199.68 53.73 M 188.38 65.31 C 192.31 65.23 196.24 65.27 200.17 65.18 C 198.88 63.92 197.61 62.65 196.35 61.36 C 194.48 64.79 193.81 60.63 193.79 58.98 C 192.30 61.34 190.46 63.46 188.38 65.31 M 188.93 62.01 C 189.52 61.46 189.52 61.46 188.93 62.01 M 185.36 63.86 C 186.62 64.61 188.99 63.54 188.93 62.01 C 187.72 61.77 185.33 62.41 185.36 63.86 M 31.17 66.89 C 30.96 80.92 31.28 94.96 31.01 109.00 C 31.56 109.26 32.64 109.78 33.19 110.04 C 33.51 96.39 33.26 82.73 33.33 69.07 C 33.33 67.19 33.68 65.34 34.06 63.50 C 32.52 63.98 30.93 65.04 31.17 66.89 M 240.78 67.49 C 242.16 68.08 243.44 68.84 244.63 69.78 C 244.92 72.58 248.64 68.78 246.72 67.43 C 247.49 66.71 248.26 65.99 249.03 65.27 C 246.24 65.42 242.63 64.88 240.78 67.49 M 193.05 77.57 C 193.63 75.82 193.78 73.53 195.83 72.83 C 195.02 74.16 194.29 75.78 194.76 77.37 C 197.50 77.84 200.01 76.01 201.41 73.79 C 202.49 70.87 198.60 72.22 197.02 72.15 C 194.15 71.74 191.25 71.59 188.36 71.66 C 187.81 70.07 189.18 66.79 186.94 66.54 C 184.94 70.83 187.82 77.31 193.05 77.57 M 189.19 66.92 C 189.19 68.18 189.18 69.43 189.18 70.69 C 193.49 70.74 197.80 70.67 202.10 70.74 C 202.15 69.41 202.19 68.07 202.22 66.74 C 197.88 66.84 193.53 66.68 189.19 66.92 M 219.76 68.81 C 220.79 69.58 223.26 72.58 224.05 70.43 C 224.22 70.04 224.55 69.25 224.72 68.86 C 225.02 68.83 225.63 68.78 225.93 68.76 C 223.88 68.63 221.81 68.66 219.76 68.81 M 221.84 78.13 C 222.00 80.12 222.51 82.07 222.98 84.01 C 224.65 91.94 235.17 93.34 241.51 90.44 C 241.25 89.64 240.74 88.04 240.49 87.24 C 241.80 86.68 242.36 85.59 242.17 83.96 C 243.14 84.71 244.10 85.48 245.17 86.09 C 247.53 86.66 246.15 84.10 245.26 83.44 C 246.05 82.61 246.48 81.60 246.55 80.43 C 246.95 80.35 247.74 80.20 248.14 80.12 C 247.83 78.78 247.53 77.43 247.13 76.11 C 243.94 64.04 222.98 65.47 221.84 78.13 M 219.23 82.24 C 219.79 82.76 219.79 82.76 219.23 82.24 M 250.06 82.26 C 250.58 82.75 250.58 82.75 250.06 82.26 M 54.11 85.09 C 51.45 86.67 51.50 90.02 53.23 92.29 L 54.59 92.11 L 53.53 92.68 C 57.82 95.56 62.89 90.72 60.89 86.17 L 60.07 87.27 L 60.57 86.16 C 58.80 84.65 56.19 83.26 54.11 85.09 M 190.18 84.15 C 189.62 87.25 190.55 91.70 194.51 91.53 C 198.54 91.36 198.23 87.01 198.01 84.09 C 195.41 84.33 192.79 84.32 190.18 84.15 M 187.99 89.57 C 177.51 91.61 168.74 99.76 164.44 109.35 C 160.26 118.60 161.66 128.96 161.38 138.79 C 162.56 138.79 163.74 138.79 164.92 138.79 C 166.67 138.84 168.43 138.91 170.18 139.00 C 167.70 135.74 167.85 129.90 172.52 128.81 C 171.30 130.98 168.94 133.19 170.13 135.91 C 172.10 140.33 177.77 138.72 181.54 138.53 C 185.87 136.80 184.77 130.78 181.43 128.62 C 182.50 127.91 183.57 127.03 184.94 127.09 C 189.61 126.84 194.29 127.08 198.96 126.99 C 198.97 123.40 198.61 119.79 199.11 116.22 L 200.20 115.53 C 200.33 119.35 200.26 123.17 200.21 127.00 C 200.86 126.98 202.15 126.93 202.79 126.91 C 202.68 119.60 202.63 112.28 202.76 104.97 C 202.70 100.77 206.07 97.45 210.06 96.72 C 208.10 92.59 204.26 89.75 200.00 88.33 C 198.72 90.55 196.90 93.21 193.99 93.05 C 191.55 92.97 190.07 90.85 188.73 89.11 C 188.54 89.22 188.17 89.46 187.99 89.57 M 224.53 95.02 C 225.39 96.71 227.09 98.12 229.11 97.74 C 226.91 98.69 225.47 102.31 222.80 100.26 C 223.32 98.80 223.79 97.32 224.18 95.82 L 222.81 96.14 C 221.26 96.75 218.57 97.05 218.34 99.01 C 220.21 108.57 218.99 118.37 219.34 128.04 C 219.15 129.47 220.12 130.57 221.23 131.30 C 221.18 133.49 221.35 135.73 220.54 137.82 C 223.12 139.14 226.13 138.48 228.91 138.61 C 234.42 138.40 239.94 138.83 245.44 138.46 C 248.07 138.36 250.82 135.51 249.33 132.87 C 250.55 131.00 250.55 128.15 249.42 126.23 C 250.31 121.51 250.33 116.48 249.40 111.76 C 250.55 109.87 250.54 107.05 249.40 105.16 C 250.94 101.87 249.51 98.30 246.78 96.20 C 246.02 96.72 245.26 97.23 244.51 97.75 C 244.59 98.77 244.66 99.79 244.75 100.81 C 244.15 100.83 242.95 100.87 242.35 100.89 C 240.97 99.15 239.34 97.62 237.60 96.24 C 236.55 96.22 235.49 96.19 234.44 96.15 C 235.32 97.25 235.71 98.59 236.00 99.95 C 234.68 100.22 233.39 100.19 232.13 99.86 C 231.86 98.54 232.46 97.26 232.70 95.98 C 231.80 96.35 230.91 96.73 230.02 97.11 C 230.07 96.67 230.17 95.77 230.23 95.33 L 229.94 93.78 C 232.88 94.54 236.74 95.58 239.17 93.19 C 235.06 92.72 230.73 94.20 226.82 92.42 C 226.05 93.28 225.29 94.15 224.53 95.02 M 54.15 94.57 C 52.94 99.02 52.06 103.56 50.86 108.02 C 50.75 109.18 49.14 113.06 51.85 112.01 C 53.57 106.37 54.96 100.59 56.12 94.81 C 55.63 94.75 54.64 94.63 54.15 94.57 M 207.12 98.90 L 207.01 99.45 C 205.20 100.69 204.04 102.68 204.06 104.91 C 203.91 112.27 204.05 119.64 204.00 127.01 C 204.52 127.01 205.57 127.00 206.09 127.00 C 210.02 126.96 214.02 126.76 217.84 127.87 C 217.63 120.00 218.01 112.13 217.66 104.27 C 217.39 99.19 211.35 96.71 207.12 98.90 M 233.20 98.04 C 233.22 101.36 236.27 96.63 233.20 98.04 M 159.19 101.16 C 156.53 103.26 156.45 106.91 156.40 110.01 C 156.51 119.66 156.10 129.32 156.59 138.96 C 157.42 138.93 159.08 138.89 159.91 138.86 C 160.70 130.25 158.83 121.36 161.56 112.98 C 162.93 108.02 165.73 103.64 168.81 99.56 C 165.59 98.42 161.69 98.59 159.19 101.16 M 48.48 113.34 C 45.59 114.57 44.54 118.75 47.25 120.76 C 49.29 123.30 53.18 122.16 54.49 119.48 C 56.60 116.01 52.08 111.12 48.48 113.34 M 31.14 113.99 C 31.19 117.94 30.85 121.93 31.32 125.87 C 31.59 127.30 33.21 127.64 34.23 128.37 C 32.91 124.03 33.39 119.46 33.25 114.99 C 32.73 114.74 31.67 114.24 31.14 113.99 M 146.76 127.58 C 146.78 128.47 146.82 130.25 146.84 131.14 C 149.56 131.25 152.29 131.28 155.02 131.24 C 155.02 129.69 155.02 128.13 155.02 126.58 C 152.23 126.57 149.47 126.94 146.76 127.58 M 183.29 128.81 C 184.32 130.44 185.97 131.92 185.99 134.00 C 186.10 135.87 184.81 137.39 184.03 138.98 C 188.83 139.21 194.14 137.73 198.62 139.72 C 184.77 140.15 170.91 139.54 157.07 140.10 C 149.61 139.97 142.05 139.41 134.65 140.26 C 126.98 139.73 119.20 139.55 111.54 140.30 C 111.02 140.30 109.97 140.29 109.45 140.29 C 105.11 139.63 100.66 139.65 96.32 140.28 C 92.11 139.64 87.70 139.61 83.49 140.29 C 79.12 139.57 74.66 139.73 70.26 140.17 C 63.55 139.73 56.84 140.41 50.12 140.22 L 50.04 140.91 C 51.67 140.91 53.31 140.93 54.94 140.94 L 54.86 141.83 C 52.87 141.77 50.89 141.72 48.90 141.66 L 48.46 142.85 C 49.46 143.76 50.63 144.17 51.97 144.08 C 114.65 144.12 177.32 144.07 239.99 144.11 C 241.47 143.82 243.76 144.65 244.46 142.78 L 245.23 142.79 C 244.75 141.74 244.81 139.90 243.16 140.13 C 233.22 139.77 223.24 140.45 213.31 139.72 C 214.84 139.13 216.47 138.78 217.91 137.98 C 219.66 136.24 220.16 133.39 218.80 131.26 C 217.22 128.05 213.07 128.44 210.07 128.36 C 201.15 128.61 192.17 127.87 183.29 128.81 M 47.20 130.41 C 47.24 133.54 47.59 138.32 51.80 138.23 C 56.21 138.11 60.62 138.26 65.02 138.20 C 65.00 135.95 64.94 133.70 64.83 131.45 C 59.81 130.81 54.88 129.35 49.74 130.10 C 49.11 130.18 47.84 130.33 47.20 130.41 M 66.49 130.23 C 66.74 133.00 66.76 135.79 66.56 138.57 C 67.60 138.64 68.65 138.71 69.69 138.78 C 69.63 135.85 69.65 132.93 69.78 130.01 C 68.68 130.07 67.59 130.15 66.49 130.23 M 71.29 130.18 C 71.16 133.06 71.08 135.95 71.13 138.84 C 77.55 138.80 83.97 138.75 90.39 138.92 C 90.67 135.87 90.68 132.80 90.49 129.74 C 84.10 130.16 77.70 130.44 71.29 130.18 M 148.01 132.54 C 148.26 134.63 148.47 136.72 148.69 138.81 C 150.81 138.85 152.93 138.85 155.06 138.86 C 155.08 136.73 155.09 134.60 155.09 132.46 C 152.73 132.44 150.37 132.45 148.01 132.54 M 92.16 134.42 C 92.09 135.90 92.02 137.39 91.97 138.87 C 104.06 138.62 116.16 139.08 128.26 138.84 C 128.09 138.47 127.74 137.75 127.57 137.39 C 120.73 137.16 113.88 137.52 107.04 137.29 C 104.51 137.40 102.57 135.64 100.40 134.65 C 97.67 134.36 94.91 134.56 92.16 134.42 M 103.01 134.45 C 104.47 135.43 106.13 136.12 107.93 136.00 C 114.73 136.01 121.53 136.05 128.33 135.94 C 128.12 135.59 127.69 134.89 127.48 134.54 C 119.33 134.41 111.16 134.58 103.01 134.45 M 134.93 133.95 L 134.99 134.55 C 133.70 135.67 132.81 137.13 132.17 138.71 C 133.25 138.71 134.32 138.72 135.40 138.71 C 138.25 138.79 141.10 138.80 143.96 138.79 C 143.77 134.00 138.70 133.10 134.93 133.95 M 129.36 137.23 C 128.83 138.86 129.37 139.43 130.97 138.96 C 131.50 137.31 130.96 136.74 129.36 137.23 M 55.72 145.58 C 55.93 145.95 56.35 146.69 56.56 147.06 C 58.19 150.65 62.14 152.65 66.01 152.34 C 117.99 152.34 169.97 152.33 221.95 152.34 C 225.29 152.30 228.67 152.59 231.97 151.96 C 234.94 151.04 237.34 148.64 238.27 145.67 C 228.09 145.38 217.90 145.60 207.72 145.52 C 207.19 146.78 207.01 150.22 205.20 147.95 L 205.80 147.82 C 206.07 147.33 206.62 146.35 206.89 145.86 C 201.94 145.05 196.90 145.64 191.91 145.47 C 146.52 145.54 101.11 145.31 55.72 145.58 Z" />
</g>
<g id="#e89176ff">
<path fill="#e89176" opacity="1.00" d=" M 169.27 17.91 C 169.78 17.89 170.79 17.86 171.30 17.84 C 175.67 21.03 181.40 18.52 186.32 18.30 C 188.66 19.44 190.65 21.16 192.47 23.00 C 194.08 23.00 195.69 22.96 197.31 22.88 L 197.51 22.87 C 202.86 22.35 208.90 23.29 212.56 27.60 C 211.19 29.17 210.48 32.01 208.05 32.18 C 198.26 32.78 188.43 31.97 178.62 32.49 C 176.95 31.44 175.29 30.29 174.03 28.74 C 174.30 25.07 172.27 22.07 169.66 19.73 C 169.56 19.28 169.37 18.37 169.27 17.91 Z" />
<path fill="#e89176" opacity="1.00" d=" M 172.21 29.88 C 173.36 30.81 174.52 31.74 175.68 32.67 C 174.43 35.45 173.37 38.30 172.70 41.27 C 169.27 38.38 170.61 33.42 172.21 29.88 Z" />
</g>
<g id="#fec2aeff">
<path fill="#fec2ae" opacity="1.00" d=" M 171.30 17.84 C 176.30 17.58 181.37 17.39 186.32 18.30 C 181.40 18.52 175.67 21.03 171.30 17.84 Z" />
</g>
<g id="#f9baa7ff">
<path fill="#f9baa7" opacity="1.00" d=" M 169.66 19.73 C 172.27 22.07 174.30 25.07 174.03 28.74 C 171.70 26.25 170.10 23.14 169.66 19.73 Z" />
</g>
<g id="#d67257ff">
<path fill="#d67257" opacity="1.00" d=" M 212.56 27.60 C 214.05 29.76 214.86 32.27 215.29 34.83 C 206.51 34.66 197.74 34.79 188.96 34.78 C 185.39 34.85 181.80 34.16 178.62 32.49 C 188.43 31.97 198.26 32.78 208.05 32.18 C 210.48 32.01 211.19 29.17 212.56 27.60 Z" />
</g>
<g id="#fdc6a2ff">
<path fill="#fdc6a2" opacity="1.00" d=" M 177.98 33.67 C 181.78 36.25 186.51 36.66 190.99 36.58 C 198.26 36.46 205.53 36.72 212.80 36.40 C 214.19 40.64 214.54 45.11 214.51 49.55 C 211.81 47.26 208.73 44.65 204.94 44.96 C 200.01 44.77 196.32 48.82 194.47 52.99 C 192.32 49.49 189.68 45.53 185.20 45.05 C 181.64 44.30 178.45 46.17 175.63 48.06 C 175.35 43.13 176.41 38.32 177.98 33.67 Z" />
<path fill="#fdc6a2" opacity="1.00" d=" M 175.91 62.73 C 177.64 64.37 179.79 65.50 182.13 65.98 C 182.10 67.71 182.05 69.44 182.06 71.17 L 182.27 71.95 C 182.58 73.00 182.88 74.06 183.18 75.11 C 183.23 75.63 183.33 76.66 183.38 77.18 L 181.89 77.91 L 181.82 77.94 C 181.56 77.34 181.05 76.16 180.79 75.57 C 180.88 75.18 181.06 74.41 181.15 74.02 C 180.48 74.22 179.13 74.62 178.46 74.82 C 178.43 74.77 178.38 74.68 178.35 74.63 L 177.81 73.41 L 178.15 71.89 C 180.02 71.92 180.91 68.18 178.51 69.53 C 178.32 69.97 177.95 70.85 177.76 71.29 C 176.23 68.70 175.61 65.73 175.91 62.73 Z" />
<path fill="#fdc6a2" opacity="1.00" d=" M 205.63 66.08 C 207.86 65.76 209.99 64.94 211.84 63.64 C 211.60 65.29 211.37 66.94 211.10 68.58 C 210.87 68.95 210.41 69.68 210.18 70.05 C 209.77 71.33 209.42 72.64 209.15 73.97 C 207.72 73.76 207.01 74.44 207.02 75.99 C 206.79 76.65 206.32 77.96 206.09 78.62 C 205.19 79.26 204.26 79.86 203.32 80.42 C 203.54 79.37 203.77 78.33 204.00 77.29 C 204.24 76.64 204.70 75.36 204.94 74.72 C 205.66 73.81 206.40 72.92 207.15 72.04 C 207.25 71.51 207.44 70.47 207.54 69.95 C 206.91 68.65 206.25 67.37 205.63 66.08 Z" />
<path fill="#fdc6a2" opacity="1.00" d=" M 172.52 128.81 C 175.41 127.88 178.51 127.73 181.43 128.62 C 184.77 130.78 185.87 136.80 181.54 138.53 C 177.77 138.72 172.10 140.33 170.13 135.91 C 168.94 133.19 171.30 130.98 172.52 128.81 M 171.95 133.78 C 174.78 135.26 178.50 135.58 180.12 132.27 C 177.84 129.69 172.15 129.49 171.95 133.78 Z" />
</g>
<g id="#c3c3c7ff">
<path fill="#c3c3c7" opacity="1.00" d=" M 223.37 38.39 C 229.79 38.54 236.20 38.48 242.62 38.43 C 242.67 40.72 242.72 43.01 242.78 45.30 C 244.09 45.37 245.41 45.44 246.73 45.50 C 246.72 45.77 246.70 46.30 246.69 46.57 C 242.32 46.42 237.95 46.45 233.58 46.58 C 233.58 48.50 233.59 50.41 233.63 52.33 C 239.57 52.49 245.52 52.50 251.47 52.33 C 251.44 50.53 251.41 48.74 251.37 46.94 C 250.24 46.44 249.11 45.93 247.98 45.43 C 249.50 45.43 251.01 45.41 252.54 45.40 C 252.51 47.81 252.52 50.23 252.58 52.65 C 248.50 54.85 244.06 51.84 239.94 53.40 C 239.47 53.27 238.54 53.00 238.07 52.87 C 236.75 53.11 235.28 53.96 234.00 53.15 C 231.71 51.81 232.74 48.73 232.35 46.58 C 229.44 46.51 226.52 46.45 223.61 46.40 C 223.31 43.74 223.24 41.07 223.37 38.39 M 223.73 39.71 C 223.76 41.58 223.79 43.45 223.82 45.32 C 229.96 45.54 236.12 45.61 242.26 45.25 C 242.22 43.42 242.18 41.59 242.14 39.75 C 236.01 39.38 229.86 39.39 223.73 39.71 Z" />
<path fill="#c3c3c7" opacity="1.00" d=" M 38.62 41.59 C 45.19 41.51 51.76 41.37 58.33 41.66 C 58.42 43.88 58.53 46.11 58.64 48.34 C 59.41 48.36 60.96 48.42 61.73 48.45 C 61.71 48.72 61.67 49.27 61.65 49.55 C 57.35 49.47 53.05 49.47 48.75 49.66 C 48.78 51.53 48.80 53.39 48.82 55.26 C 54.66 55.59 60.51 55.50 66.35 55.28 C 66.51 53.57 66.67 51.85 66.81 50.13 C 65.78 49.71 64.68 49.36 63.89 48.53 C 65.12 48.45 66.36 48.39 67.60 48.35 C 67.59 50.81 67.71 53.28 67.45 55.73 C 63.76 58.20 58.96 54.62 54.95 56.41 C 54.51 56.27 53.64 56.00 53.20 55.87 C 51.78 55.99 49.52 57.39 48.59 55.68 C 48.21 53.70 48.24 51.68 48.14 49.68 C 44.96 49.50 41.78 49.42 38.60 49.44 C 38.43 46.83 38.43 44.21 38.62 41.59 M 39.62 42.58 C 39.59 44.51 39.56 46.45 39.55 48.38 C 45.49 48.56 51.44 48.50 57.38 48.32 C 57.39 46.40 57.40 44.49 57.40 42.57 C 51.47 42.48 45.55 42.48 39.62 42.58 Z" />
<path fill="#c3c3c7" opacity="1.00" d=" M 111.14 100.77 C 114.81 100.47 118.54 100.36 122.13 101.33 C 119.18 104.29 115.17 105.01 111.14 104.71 C 111.14 103.40 111.14 102.09 111.14 100.77 Z" />
</g>
<g id="#817985ff">
<path fill="#817985" opacity="1.00" d=" M 185.48 47.12 C 186.75 46.29 189.20 47.42 189.07 49.00 C 187.84 49.17 185.59 48.50 185.48 47.12 Z" />
</g>
<g id="#8b838dff">
<path fill="#8b838d" opacity="1.00" d=" M 201.00 48.00 C 201.48 44.79 204.11 49.39 201.00 48.00 Z" />
</g>
<g id="#7d7380ff">
<path fill="#7d7380" opacity="1.00" d=" M 198.05 50.67 C 197.44 49.19 199.60 47.49 201.00 48.00 C 200.89 49.29 199.39 50.84 198.05 50.67 Z" />
</g>
<g id="#fdceafff">
<path fill="#fdceaf" opacity="1.00" d=" M 177.20 56.89 C 175.84 52.93 179.52 49.91 182.83 48.72 C 183.51 53.11 184.22 57.52 185.65 61.74 L 185.75 62.04 C 182.12 62.44 178.03 60.78 177.20 56.89 Z" />
</g>
<g id="#8c7f8bff">
<path fill="#8c7f8b" opacity="1.00" d=" M 189.07 49.00 C 189.24 49.11 189.57 49.31 189.74 49.41 C 189.57 49.31 189.24 49.11 189.07 49.00 Z" />
</g>
<g id="#f5caaaff">
<path fill="#f5caaa" opacity="1.00" d=" M 199.40 52.01 C 200.71 50.70 202.22 49.60 203.93 48.88 C 204.93 52.76 205.61 56.72 206.47 60.63 C 206.72 60.84 207.23 61.27 207.48 61.48 L 208.02 61.93 C 204.81 62.36 201.55 61.70 199.47 59.03 C 203.98 60.63 205.81 53.93 201.96 52.10 C 201.32 52.08 200.04 52.03 199.40 52.01 Z" />
</g>
<g id="#fef8f2ff">
<path fill="#fef8f2" opacity="1.00" d=" M 203.93 48.88 C 204.79 48.95 206.50 49.10 207.35 49.17 L 207.42 50.32 C 207.47 53.76 208.47 57.08 209.21 60.41 C 208.78 60.68 207.91 61.21 207.48 61.48 C 207.23 61.27 206.72 60.84 206.47 60.63 C 205.61 56.72 204.93 52.76 203.93 48.88 Z" />
</g>
<g id="#6a5f70ff">
<path fill="#6a5f70" opacity="1.00" d=" M 189.74 49.41 C 193.68 51.84 192.99 57.04 191.28 60.63 C 190.97 60.18 190.36 59.29 190.06 58.84 C 190.30 58.61 190.79 58.16 191.04 57.94 C 190.82 56.08 190.63 54.22 190.47 52.36 L 189.74 52.73 C 189.74 51.90 189.74 50.24 189.74 49.41 Z" />
</g>
<g id="#fdc4a1ff">
<path fill="#fdc4a1" opacity="1.00" d=" M 207.42 50.32 L 207.47 49.25 C 211.75 51.20 213.13 57.38 209.21 60.41 C 208.47 57.08 207.47 53.76 207.42 50.32 Z" />
</g>
<g id="#f7d0b1ff">
<path fill="#f7d0b1" opacity="1.00" d=" M 169.16 53.63 C 169.29 53.27 169.54 52.55 169.67 52.19 C 169.73 52.59 169.85 53.37 169.91 53.77 C 170.57 53.53 171.90 53.05 172.57 52.81 C 172.62 53.58 172.73 55.10 172.79 55.87 C 171.87 56.77 170.96 57.67 170.04 58.57 C 170.64 58.59 171.84 58.62 172.44 58.63 C 172.42 59.70 172.38 61.83 172.35 62.90 C 170.37 61.85 168.76 60.31 167.27 58.66 L 167.18 58.56 C 167.92 56.95 168.58 55.30 169.16 53.63 Z" />
</g>
<g id="#07091cff">
<path fill="#07091c" opacity="1.00" d=" M 186.14 51.63 C 187.42 52.25 188.68 52.94 189.96 53.60 C 189.90 53.38 189.80 52.95 189.74 52.73 L 190.47 52.36 C 190.63 54.22 190.82 56.08 191.04 57.94 C 190.79 58.16 190.30 58.61 190.06 58.84 C 190.07 58.52 190.11 57.87 190.13 57.54 C 189.32 57.88 187.69 58.56 186.88 58.90 C 186.86 56.45 187.09 53.95 186.14 51.63 Z" />
<path fill="#07091c" opacity="1.00" d=" M 244.63 69.78 C 245.23 68.92 245.94 68.13 246.72 67.43 C 248.64 68.78 244.92 72.58 244.63 69.78 Z" />
<path fill="#07091c" opacity="1.00" d=" M 227.88 74.96 C 229.59 75.28 232.02 75.41 232.38 77.58 C 233.18 79.95 230.17 82.56 227.99 81.17 C 226.23 80.44 226.28 78.41 225.96 76.85 C 226.99 77.48 228.01 78.12 229.04 78.77 C 229.42 78.36 230.19 77.56 230.57 77.15 C 229.67 76.43 228.77 75.70 227.88 74.96 Z" />
<path fill="#07091c" opacity="1.00" d=" M 237.11 77.35 C 238.59 76.00 241.14 74.10 242.85 76.25 C 245.02 78.38 242.43 82.44 239.60 81.39 C 237.78 80.95 237.43 78.90 237.11 77.35 M 239.86 76.05 C 237.50 76.03 238.56 79.32 240.51 78.50 C 242.31 78.26 241.46 75.67 239.86 76.05 Z" />
<path fill="#07091c" opacity="1.00" d=" M 234.13 82.56 C 234.98 81.48 237.43 82.44 236.48 83.87 C 235.67 85.23 232.93 83.99 234.13 82.56 Z" />
<path fill="#07091c" opacity="1.00" d=" M 55.12 85.99 C 56.87 84.73 58.54 86.51 60.07 87.27 C 59.53 88.63 59.78 90.48 58.51 91.43 C 57.21 91.74 55.89 91.86 54.59 92.11 C 53.70 90.18 52.47 87.15 55.12 85.99 M 55.82 86.62 C 52.70 87.62 55.11 92.72 57.84 90.74 C 60.19 89.51 58.16 85.46 55.82 86.62 Z" />
<path fill="#07091c" opacity="1.00" d=" M 16.32 102.92 C 17.74 104.60 20.73 104.15 21.54 106.42 C 22.87 109.37 18.40 112.38 16.33 109.64 C 14.42 108.05 16.12 105.82 16.94 104.16 M 18.12 105.13 C 15.28 105.72 15.98 110.06 18.77 109.72 C 21.91 109.55 21.13 104.61 18.12 105.13 Z" />
<path fill="#07091c" opacity="1.00" d=" M 49.40 114.38 C 53.08 113.16 55.40 119.07 51.57 120.52 C 47.56 122.36 45.35 115.45 49.40 114.38 M 50.12 115.23 C 48.83 115.31 47.80 116.59 48.18 117.85 C 48.20 120.25 52.49 120.44 52.61 117.99 C 53.07 116.52 51.57 115.01 50.12 115.23 Z" />
<path fill="#07091c" opacity="1.00" d=" M 201.61 139.57 C 204.09 138.21 207.66 138.31 210.23 139.48 C 207.36 139.70 204.48 139.70 201.61 139.57 Z" />
</g>
<g id="#ffe0b0ff">
<path fill="#ffe0b0" opacity="1.00" d=" M 216.08 52.86 C 219.42 54.18 221.43 58.95 217.94 61.31 C 217.99 60.81 218.07 59.80 218.12 59.30 L 218.34 57.76 C 217.58 57.15 216.82 56.56 216.05 55.96 C 216.06 55.19 216.07 53.64 216.08 52.86 Z" />
<path fill="#ffe0b0" opacity="1.00" d=" M 240.78 67.49 C 242.63 64.88 246.24 65.42 249.03 65.27 C 248.26 65.99 247.49 66.71 246.72 67.43 C 245.94 68.13 245.23 68.92 244.63 69.78 C 243.44 68.84 242.16 68.08 240.78 67.49 Z" />
<path fill="#ffe0b0" opacity="1.00" d=" M 164.44 109.35 C 168.74 99.76 177.51 91.61 187.99 89.57 C 184.48 91.90 180.41 93.35 177.31 96.28 C 171.26 101.41 167.16 108.67 165.57 116.41 C 164.45 123.81 164.97 131.33 164.92 138.79 C 163.74 138.79 162.56 138.79 161.38 138.79 C 161.66 128.96 160.26 118.60 164.44 109.35 Z" />
</g>
<g id="#302c3cff">
<path fill="#302c3c" opacity="1.00" d=" M 167.18 58.56 C 166.15 56.70 167.25 54.37 169.16 53.63 C 168.58 55.30 167.92 56.95 167.18 58.56 Z" />
<path fill="#302c3c" opacity="1.00" d=" M 174.05 69.35 C 175.32 68.47 177.06 70.63 175.78 71.61 C 174.50 72.43 172.87 70.35 174.05 69.35 Z" />
<path fill="#302c3c" opacity="1.00" d=" M 94.67 90.63 C 99.48 90.21 104.39 89.78 109.17 90.71 C 109.05 95.87 109.00 101.04 109.16 106.20 C 104.42 107.19 99.50 106.89 94.73 106.34 C 94.43 101.11 94.50 95.87 94.67 90.63 M 95.49 90.98 C 95.59 92.72 94.98 94.64 95.97 96.24 C 94.71 97.25 94.68 99.65 95.90 100.70 C 95.35 102.21 95.08 103.77 95.09 105.40 C 99.39 106.80 103.96 106.18 108.39 106.00 C 108.59 101.08 108.42 96.16 108.47 91.24 C 104.15 91.01 99.81 91.16 95.49 90.98 Z" />
<path fill="#302c3c" opacity="1.00" d=" M 232.12 103.24 C 234.38 102.39 237.42 103.46 237.96 106.01 C 238.99 109.24 235.03 112.70 232.01 110.87 C 228.83 109.54 228.98 104.57 232.12 103.24 Z" />
</g>
<g id="#f6a383ff">
<path fill="#f6a383" opacity="1.00" d=" M 215.86 60.03 C 215.31 58.31 217.73 57.33 218.12 59.30 C 218.07 59.80 217.99 60.81 217.94 61.31 C 217.32 63.23 215.42 61.30 215.86 60.03 Z" />
</g>
<g id="#f1bd9bff">
<path fill="#f1bd9b" opacity="1.00" d=" M 188.38 65.31 C 190.46 63.46 192.30 61.34 193.79 58.98 C 193.81 60.63 194.48 64.79 196.35 61.36 C 197.61 62.65 198.88 63.92 200.17 65.18 C 196.24 65.27 192.31 65.23 188.38 65.31 Z" />
</g>
<g id="#9ef0efff">
<path fill="#9ef0ef" opacity="1.00" d=" M 94.71 62.55 C 95.21 62.63 95.71 62.74 96.20 62.89 C 103.31 64.44 110.73 63.15 117.96 63.52 C 121.01 63.68 126.48 62.62 126.55 67.13 C 126.33 71.62 127.94 76.76 125.46 80.80 C 125.17 76.85 125.46 72.89 125.21 68.95 C 125.21 66.80 123.07 65.34 121.05 65.55 C 95.03 65.37 69.00 65.66 42.97 65.51 C 40.99 65.38 38.42 65.75 37.86 68.05 C 37.39 71.24 37.23 74.66 38.47 77.71 C 38.69 78.32 38.91 78.94 39.12 79.56 L 38.77 79.80 C 38.46 80.07 37.85 80.60 37.54 80.86 C 37.93 88.43 36.47 96.24 38.40 103.63 C 38.45 104.17 38.50 104.71 38.54 105.26 C 37.02 107.02 38.66 111.54 35.68 111.16 C 34.67 102.14 34.78 93.04 35.20 83.99 C 34.82 78.05 35.18 72.11 35.21 66.17 C 35.25 64.21 37.39 63.51 39.04 63.58 C 57.12 63.37 75.22 63.80 93.29 63.45 C 93.65 63.22 94.36 62.77 94.71 62.55 Z" />
<path fill="#9ef0ef" opacity="1.00" d=" M 125.25 114.97 C 125.63 114.97 126.37 114.96 126.74 114.96 C 126.63 118.46 126.95 122.01 126.38 125.48 C 126.01 127.46 123.80 128.27 122.00 128.12 C 95.00 127.88 68.01 128.44 41.01 128.10 C 38.94 128.01 35.99 128.36 35.24 125.82 C 34.60 122.43 34.95 118.94 34.93 115.50 C 35.60 115.69 36.94 116.07 37.61 116.26 C 37.88 119.61 36.27 124.09 39.35 126.49 C 44.78 127.19 50.49 127.32 55.88 126.09 C 56.13 126.10 56.62 126.11 56.87 126.11 C 58.55 126.49 60.26 126.88 62.00 126.90 C 81.34 126.85 100.69 126.86 120.04 126.90 C 121.85 126.91 124.14 126.91 124.93 124.91 C 125.83 121.69 125.25 118.27 125.25 114.97 Z" />
</g>
<g id="#726676ff">
<path fill="#726676" opacity="1.00" d=" M 185.36 63.86 C 185.33 62.41 187.72 61.77 188.93 62.01 C 188.99 63.54 186.62 64.61 185.36 63.86 Z" />
</g>
<g id="#ec977aff">
<path fill="#ec977a" opacity="1.00" d=" M 211.84 63.64 C 212.80 62.83 213.76 62.02 214.72 61.19 C 214.40 67.84 211.92 74.88 206.09 78.62 C 206.32 77.96 206.79 76.65 207.02 75.99 C 208.33 75.93 209.03 75.26 209.15 73.97 C 209.42 72.64 209.77 71.33 210.18 70.05 C 211.30 72.45 213.11 69.56 211.10 68.58 C 211.37 66.94 211.60 65.29 211.84 63.64 Z" />
</g>
<g id="#5eadc4ff">
<path fill="#5eadc4" opacity="1.00" d=" M 31.17 66.89 C 30.93 65.04 32.52 63.98 34.06 63.50 C 33.68 65.34 33.33 67.19 33.33 69.07 C 33.26 82.73 33.51 96.39 33.19 110.04 C 32.64 109.78 31.56 109.26 31.01 109.00 C 31.28 94.96 30.96 80.92 31.17 66.89 Z" />
</g>
<g id="#262434ff">
<path fill="#262434" opacity="1.00" d=" M 37.86 68.05 C 38.42 65.75 40.99 65.38 42.97 65.51 C 69.00 65.66 95.03 65.37 121.05 65.55 C 123.07 65.34 125.21 66.80 125.21 68.95 C 125.46 72.89 125.17 76.85 125.46 80.80 L 125.19 81.32 C 114.81 81.35 104.43 81.21 94.05 81.30 C 91.38 80.90 91.30 83.96 91.40 85.81 L 91.38 86.88 C 91.45 94.60 91.32 102.33 91.42 110.05 C 91.28 111.42 91.90 112.62 92.97 113.45 C 92.68 113.66 92.10 114.08 91.81 114.28 C 91.42 113.99 90.65 113.40 90.26 113.11 C 90.22 102.66 90.38 92.20 90.18 81.75 C 93.05 79.60 96.76 80.30 100.10 80.21 C 108.00 80.22 115.91 80.31 123.82 80.14 C 123.50 76.14 124.51 72.08 123.92 68.13 C 123.63 67.83 123.04 67.23 122.74 66.93 C 116.71 65.92 110.30 67.92 104.46 65.90 C 101.64 66.11 98.87 66.79 96.03 66.76 C 78.69 66.67 61.36 66.79 44.02 66.69 C 42.16 66.71 40.00 66.53 38.84 68.32 C 38.77 71.45 38.81 74.59 38.47 77.71 C 37.23 74.66 37.39 71.24 37.86 68.05 Z" />
<path fill="#262434" opacity="1.00" d=" M 199.77 114.16 C 197.99 114.04 198.10 110.92 199.84 110.84 C 201.33 111.18 201.27 113.86 199.77 114.16 Z" />
<path fill="#262434" opacity="1.00" d=" M 231.33 114.41 C 237.48 112.26 244.11 118.80 242.13 124.98 C 240.72 131.28 231.67 133.56 227.56 128.51 C 223.12 124.19 225.48 116.06 231.33 114.41 Z" />
</g>
<g id="#b4e4f9ff">
<path fill="#b4e4f9" opacity="1.00" d=" M 96.03 66.76 C 98.87 66.79 101.64 66.11 104.46 65.90 C 110.30 67.92 116.71 65.92 122.74 66.93 C 123.04 67.23 123.63 67.83 123.92 68.13 C 124.51 72.08 123.50 76.14 123.82 80.14 C 115.91 80.31 108.00 80.22 100.10 80.21 C 96.76 80.30 93.05 79.60 90.18 81.75 C 87.60 87.04 89.58 93.32 89.03 99.02 C 89.56 103.65 87.67 108.96 90.26 113.11 C 90.65 113.40 91.42 113.99 91.81 114.28 C 93.83 114.79 95.94 114.81 98.01 114.81 C 106.62 114.73 115.23 114.77 123.84 114.78 C 123.80 118.20 123.87 121.62 123.88 125.04 C 118.60 125.78 113.26 125.41 107.96 125.47 C 92.98 125.46 78.01 125.52 63.04 125.43 C 60.96 125.41 58.90 125.72 56.87 126.11 C 56.62 126.11 56.13 126.10 55.88 126.09 C 50.34 124.91 44.64 125.86 39.05 125.18 C 39.00 122.38 38.98 119.59 38.97 116.80 C 40.52 117.34 42.10 117.82 43.57 118.55 C 45.49 120.03 46.46 122.79 49.04 123.32 C 52.69 124.32 56.55 120.73 56.04 117.03 C 56.08 115.00 54.37 113.64 53.28 112.13 C 54.52 107.12 55.65 102.08 56.99 97.09 C 57.62 94.28 61.21 93.65 62.07 90.93 C 64.34 86.31 58.13 80.92 53.83 83.82 C 50.17 85.67 50.38 90.84 52.96 93.53 C 51.81 99.64 50.17 105.65 48.79 111.72 C 47.75 112.48 46.71 113.25 45.68 114.03 C 44.18 113.54 42.68 113.05 41.18 112.58 C 41.40 110.79 40.21 109.40 38.98 108.28 C 38.87 107.53 38.65 106.01 38.54 105.26 C 38.50 104.71 38.45 104.17 38.40 103.63 C 38.54 103.14 38.82 102.15 38.97 101.65 C 39.47 101.37 40.47 100.82 40.97 100.54 C 41.35 95.76 41.63 90.89 40.93 86.13 C 40.46 85.72 39.52 84.89 39.06 84.48 C 39.00 82.92 38.88 81.36 38.77 79.80 L 39.12 79.56 C 39.54 79.29 40.36 78.77 40.78 78.50 C 41.20 75.52 41.53 72.41 40.83 69.44 C 40.34 69.16 39.34 68.60 38.84 68.32 C 40.00 66.53 42.16 66.71 44.02 66.69 C 61.36 66.79 78.69 66.67 96.03 66.76 Z" />
<path fill="#b4e4f9" opacity="1.00" d=" M 132.17 138.71 C 132.81 137.13 133.70 135.67 134.99 134.55 C 135.09 135.59 135.30 137.67 135.40 138.71 C 134.32 138.72 133.25 138.71 132.17 138.71 Z" />
</g>
<g id="#ebb293ff">
<path fill="#ebb293" opacity="1.00" d=" M 182.13 65.98 C 182.86 66.02 184.32 66.08 185.04 66.12 C 185.13 69.18 184.76 72.59 186.73 75.19 C 189.86 79.93 197.51 80.51 201.26 76.22 C 203.92 73.57 203.67 69.60 203.73 66.15 C 204.21 66.13 205.16 66.10 205.63 66.08 C 206.25 67.37 206.91 68.65 207.54 69.95 C 205.75 69.07 205.50 71.79 207.15 72.04 C 206.40 72.92 205.66 73.81 204.94 74.72 C 203.19 74.33 202.63 76.38 204.00 77.29 C 203.77 78.33 203.54 79.37 203.32 80.42 C 198.29 83.20 192.28 83.55 186.98 81.30 C 186.81 80.33 186.64 79.37 186.48 78.41 C 184.95 78.25 183.41 78.08 181.89 77.91 L 183.38 77.18 C 186.00 77.67 185.54 73.45 183.18 75.11 C 182.88 74.06 182.58 73.00 182.27 71.95 C 185.29 73.05 183.61 68.12 182.06 71.17 C 182.05 69.44 182.10 67.71 182.13 65.98 Z" />
</g>
<g id="#aa0f37ff">
<path fill="#aa0f37" opacity="1.00" d=" M 193.05 77.57 C 187.82 77.31 184.94 70.83 186.94 66.54 C 189.18 66.79 187.81 70.07 188.36 71.66 C 191.25 71.59 194.15 71.74 197.02 72.15 C 196.73 72.32 196.13 72.66 195.83 72.83 C 193.78 73.53 193.63 75.82 193.05 77.57 Z" />
</g>
<g id="#f7bd3dff">
<path fill="#f7bd3d" opacity="1.00" d=" M 219.76 68.81 C 221.81 68.66 223.88 68.63 225.93 68.76 C 225.63 68.78 225.02 68.83 224.72 68.86 C 222.77 68.07 221.34 70.47 224.05 70.43 C 223.26 72.58 220.79 69.58 219.76 68.81 Z" />
<path fill="#f7bd3d" opacity="1.00" d=" M 227.68 70.68 C 229.92 70.30 232.26 70.24 234.25 69.00 C 234.44 69.51 234.82 70.55 235.01 71.07 C 235.16 70.41 235.47 69.09 235.62 68.43 C 240.41 69.18 244.75 71.82 247.13 76.11 C 247.53 77.43 247.83 78.78 248.14 80.12 C 247.74 80.20 246.95 80.35 246.55 80.43 C 246.48 81.60 246.05 82.61 245.26 83.44 C 246.15 84.10 247.53 86.66 245.17 86.09 C 244.10 85.48 243.14 84.71 242.17 83.96 C 242.36 85.59 241.80 86.68 240.49 87.24 C 240.74 88.04 241.25 89.64 241.51 90.44 C 235.17 93.34 224.65 91.94 222.98 84.01 C 222.51 82.07 222.00 80.12 221.84 78.13 C 223.27 75.34 224.78 72.21 227.68 70.68 M 227.30 73.45 C 224.74 74.83 224.73 78.15 225.39 80.61 C 226.62 83.82 231.54 84.25 233.13 81.10 C 235.73 77.37 231.91 70.67 227.30 73.45 M 238.40 73.43 C 235.13 75.52 235.25 81.58 239.07 83.02 C 242.16 84.35 245.52 81.15 244.96 77.99 C 245.45 74.62 241.43 71.33 238.40 73.43 M 234.13 82.56 C 232.93 83.99 235.67 85.23 236.48 83.87 C 237.43 82.44 234.98 81.48 234.13 82.56 Z" />
<path fill="#f7bd3d" opacity="1.00" d=" M 224.53 95.02 C 225.29 94.15 226.05 93.28 226.82 92.42 C 230.73 94.20 235.06 92.72 239.17 93.19 C 236.74 95.58 232.88 94.54 229.94 93.78 L 230.23 95.33 C 228.33 95.19 226.43 95.10 224.53 95.02 Z" />
</g>
<g id="#8f7063ff">
<path fill="#8f7063" opacity="1.00" d=" M 178.51 69.53 C 180.91 68.18 180.02 71.92 178.15 71.89 L 177.76 71.29 C 177.95 70.85 178.32 69.97 178.51 69.53 Z" />
</g>
<g id="#78534fff">
<path fill="#78534f" opacity="1.00" d=" M 210.18 70.05 C 210.41 69.68 210.87 68.95 211.10 68.58 C 213.11 69.56 211.30 72.45 210.18 70.05 Z" />
</g>
<g id="#e5e8eaff">
<path fill="#e5e8ea" opacity="1.00" d=" M 139.22 70.23 C 145.83 69.75 152.47 69.99 159.10 70.05 C 159.26 72.11 159.42 74.16 159.55 76.22 C 160.97 76.55 162.41 76.95 163.47 78.03 C 159.11 78.68 154.68 78.44 150.31 79.00 C 150.32 80.49 150.34 81.98 150.36 83.48 C 151.70 83.77 153.19 83.83 154.24 84.85 C 152.48 85.05 150.72 85.16 148.95 85.23 C 148.80 83.02 148.78 80.79 148.29 78.62 C 145.46 77.98 142.53 78.46 139.66 78.51 C 138.78 75.83 139.05 72.99 139.22 70.23 M 140.81 72.03 C 140.86 73.59 140.91 75.15 140.97 76.71 C 146.57 76.76 152.18 76.80 157.79 76.70 C 157.78 75.10 157.78 73.51 157.77 71.91 C 152.12 71.67 146.45 71.66 140.81 72.03 Z" />
</g>
<g id="#785e59ff">
<path fill="#785e59" opacity="1.00" d=" M 182.06 71.17 C 183.61 68.12 185.29 73.05 182.27 71.95 L 182.06 71.17 Z" />
</g>
<g id="#7b635cff">
<path fill="#7b635c" opacity="1.00" d=" M 207.15 72.04 C 205.50 71.79 205.75 69.07 207.54 69.95 C 207.44 70.47 207.25 71.51 207.15 72.04 Z" />
</g>
<g id="#ec3d90ff">
<path fill="#ec3d90" opacity="1.00" d=" M 197.02 72.15 C 198.60 72.22 202.49 70.87 201.41 73.79 C 200.01 76.01 197.50 77.84 194.76 77.37 C 194.29 75.78 195.02 74.16 195.83 72.83 C 196.13 72.66 196.73 72.32 197.02 72.15 Z" />
<path fill="#ec3d90" opacity="1.00" d=" M 55.82 86.62 C 58.16 85.46 60.19 89.51 57.84 90.74 C 55.11 92.72 52.70 87.62 55.82 86.62 Z" />
<path fill="#ec3d90" opacity="1.00" d=" M 18.12 105.13 C 21.13 104.61 21.91 109.55 18.77 109.72 C 15.98 110.06 15.28 105.72 18.12 105.13 Z" />
<path fill="#ec3d90" opacity="1.00" d=" M 50.12 115.23 C 51.57 115.01 53.07 116.52 52.61 117.99 C 52.49 120.44 48.20 120.25 48.18 117.85 C 47.80 116.59 48.83 115.31 50.12 115.23 Z" />
</g>
<g id="#9d796bff">
<path fill="#9d796b" opacity="1.00" d=" M 207.02 75.99 C 207.01 74.44 207.72 73.76 209.15 73.97 C 209.03 75.26 208.33 75.93 207.02 75.99 Z" />
</g>
<g id="#896b63ff">
<path fill="#896b63" opacity="1.00" d=" M 183.18 75.11 C 185.54 73.45 186.00 77.67 183.38 77.18 C 183.33 76.66 183.23 75.63 183.18 75.11 Z" />
</g>
<g id="#755c58ff">
<path fill="#755c58" opacity="1.00" d=" M 204.00 77.29 C 202.63 76.38 203.19 74.33 204.94 74.72 C 204.70 75.36 204.24 76.64 204.00 77.29 Z" />
</g>
<g id="#fff2e6ff">
<path fill="#fff2e6" opacity="1.00" d=" M 181.82 77.94 C 180.27 78.86 179.40 76.30 180.79 75.57 C 181.05 76.16 181.56 77.34 181.82 77.94 Z" />
</g>
<g id="#e4e8e9ff">
<path fill="#e4e8e9" opacity="1.00" d=" M 164.60 76.95 C 166.04 76.97 167.49 76.99 168.94 77.01 C 169.03 79.67 169.01 82.34 168.90 85.00 C 164.44 85.34 159.92 85.25 155.49 84.75 L 154.63 84.10 C 158.94 83.92 163.27 84.01 167.56 83.53 C 168.24 80.70 167.32 78.19 164.60 76.95 Z" />
</g>
<g id="#f4eadeff">
<path fill="#f4eade" opacity="1.00" d=" M 181.89 77.91 C 183.41 78.08 184.95 78.25 186.48 78.41 C 186.64 79.37 186.81 80.33 186.98 81.30 C 184.92 80.79 183.11 79.66 181.89 77.91 Z" />
</g>
<g id="#4b5263ff">
<path fill="#4b5263" opacity="1.00" d=" M 37.54 80.86 C 37.85 80.60 38.46 80.07 38.77 79.80 C 38.88 81.36 39.00 82.92 39.06 84.48 C 38.93 90.20 39.08 95.93 38.97 101.65 C 38.82 102.15 38.54 103.14 38.40 103.63 C 36.47 96.24 37.93 88.43 37.54 80.86 Z" />
</g>
<g id="#c4fbffff">
<path fill="#c4fbff" opacity="1.00" d=" M 89.03 99.02 C 89.58 93.32 87.60 87.04 90.18 81.75 C 90.38 92.20 90.22 102.66 90.26 113.11 C 87.67 108.96 89.56 103.65 89.03 99.02 Z" />
</g>
<g id="#dbdbdeff">
<path fill="#dbdbde" opacity="1.00" d=" M 219.23 82.24 C 219.79 82.76 219.79 82.76 219.23 82.24 Z" />
</g>
<g id="#dadaddff">
<path fill="#dadadd" opacity="1.00" d=" M 250.06 82.26 C 250.58 82.75 250.58 82.75 250.06 82.26 Z" />
</g>
<g id="#9d5b5fff">
<path fill="#9d5b5f" opacity="1.00" d=" M 94.01 83.04 C 95.44 82.62 95.92 83.10 95.47 84.48 C 94.04 84.91 93.56 84.43 94.01 83.04 Z" />
</g>
<g id="#a3864fff">
<path fill="#a3864f" opacity="1.00" d=" M 97.05 83.11 C 98.45 82.62 98.94 83.08 98.52 84.49 C 97.13 84.99 96.64 84.53 97.05 83.11 Z" />
</g>
<g id="#51844fff">
<path fill="#51844f" opacity="1.00" d=" M 100.09 83.04 C 101.53 82.66 102.00 83.16 101.50 84.53 C 100.07 84.92 99.60 84.42 100.09 83.04 Z" />
</g>
<g id="#fbb591ff">
<path fill="#fbb591" opacity="1.00" d=" M 190.18 84.15 C 192.79 84.32 195.41 84.33 198.01 84.09 C 198.23 87.01 198.54 91.36 194.51 91.53 C 190.55 91.70 189.62 87.25 190.18 84.15 Z" />
</g>
<g id="#f4ffffff">
<path fill="#f4ffff" opacity="1.00" d=" M 39.06 84.48 C 39.52 84.89 40.46 85.72 40.93 86.13 C 41.63 90.89 41.35 95.76 40.97 100.54 C 40.47 100.82 39.47 101.37 38.97 101.65 C 39.08 95.93 38.93 90.20 39.06 84.48 Z" />
</g>
<g id="#83838bff">
<path fill="#83838b" opacity="1.00" d=" M 91.40 85.81 C 104.91 85.33 118.43 85.66 131.94 85.49 C 133.88 85.58 136.11 85.20 137.61 86.77 C 122.21 87.23 106.79 87.01 91.38 86.88 L 91.40 85.81 Z" />
</g>
<g id="#ffbb59ff">
<path fill="#ffbb59" opacity="1.00" d=" M 187.99 89.57 C 188.17 89.46 188.54 89.22 188.73 89.11 C 190.07 90.85 191.55 92.97 193.99 93.05 C 196.90 93.21 198.72 90.55 200.00 88.33 C 204.26 89.75 208.10 92.59 210.06 96.72 C 206.07 97.45 202.70 100.77 202.76 104.97 C 202.63 112.28 202.68 119.60 202.79 126.91 C 202.15 126.93 200.86 126.98 200.21 127.00 C 200.26 123.17 200.33 119.35 200.20 115.53 L 199.11 116.22 C 198.61 119.79 198.97 123.40 198.96 126.99 C 194.29 127.08 189.61 126.84 184.94 127.09 C 183.57 127.03 182.50 127.91 181.43 128.62 C 178.51 127.73 175.41 127.88 172.52 128.81 C 167.85 129.90 167.70 135.74 170.18 139.00 C 168.43 138.91 166.67 138.84 164.92 138.79 C 164.97 131.33 164.45 123.81 165.57 116.41 C 167.16 108.67 171.26 101.41 177.31 96.28 C 180.41 93.35 184.48 91.90 187.99 89.57 M 199.77 114.16 C 201.27 113.86 201.33 111.18 199.84 110.84 C 198.10 110.92 197.99 114.04 199.77 114.16 M 166.28 127.30 C 166.59 129.80 165.27 133.07 167.29 135.02 C 167.34 132.49 167.31 129.97 167.36 127.44 C 167.09 127.40 166.55 127.34 166.28 127.30 Z" />
<path fill="#ffbb59" opacity="1.00" d=" M 207.12 98.90 C 211.35 96.71 217.39 99.19 217.66 104.27 C 218.01 112.13 217.63 120.00 217.84 127.87 C 214.02 126.76 210.02 126.96 206.09 127.00 C 206.00 122.27 205.65 117.49 206.66 112.82 C 206.93 112.99 207.47 113.31 207.74 113.48 C 208.80 111.53 208.69 109.12 207.21 107.42 C 205.32 105.04 206.55 102.09 207.01 99.45 L 207.12 98.90 Z" />
<path fill="#ffbb59" opacity="1.00" d=" M 183.29 128.81 C 192.17 127.87 201.15 128.61 210.07 128.36 C 213.07 128.44 217.22 128.05 218.80 131.26 C 220.16 133.39 219.66 136.24 217.91 137.98 C 216.47 138.78 214.84 139.13 213.31 139.72 C 223.24 140.45 233.22 139.77 243.16 140.13 C 244.81 139.90 244.75 141.74 245.23 142.79 L 244.46 142.78 C 197.64 142.50 150.83 142.74 104.01 142.61 C 85.50 142.83 66.97 142.32 48.46 142.85 L 48.90 141.66 C 50.89 141.72 52.87 141.77 54.86 141.83 L 54.94 140.94 C 53.31 140.93 51.67 140.91 50.04 140.91 L 50.12 140.22 C 56.84 140.41 63.55 139.73 70.26 140.17 C 74.44 142.04 79.22 141.56 83.49 140.29 C 87.70 139.61 92.11 139.64 96.32 140.28 C 100.54 141.79 105.21 141.70 109.45 140.29 C 109.97 140.29 111.02 140.30 111.54 140.30 C 114.93 141.34 118.49 141.35 122.01 141.23 C 126.23 141.08 130.63 141.93 134.65 140.26 C 142.05 139.41 149.61 139.97 157.07 140.10 C 170.91 139.54 184.77 140.15 198.62 139.72 C 194.14 137.73 188.83 139.21 184.03 138.98 C 184.81 137.39 186.10 135.87 185.99 134.00 C 185.97 131.92 184.32 130.44 183.29 128.81 M 201.61 139.57 C 204.48 139.70 207.36 139.70 210.23 139.48 C 207.66 138.31 204.09 138.21 201.61 139.57 M 57.30 141.14 C 57.83 141.66 57.83 141.66 57.30 141.14 Z" />
</g>
<g id="#5ffd9fff">
<path fill="#5ffd9f" opacity="1.00" d=" M 95.49 90.98 C 99.81 91.16 104.15 91.01 108.47 91.24 C 108.42 96.16 108.59 101.08 108.39 106.00 C 103.96 106.18 99.39 106.80 95.09 105.40 C 95.08 103.77 95.35 102.21 95.90 100.70 C 96.91 99.34 96.95 97.63 95.97 96.24 C 94.98 94.64 95.59 92.72 95.49 90.98 Z" />
</g>
<g id="#b1b1b7ff">
<path fill="#b1b1b7" opacity="1.00" d=" M 111.16 93.18 C 117.84 92.90 124.55 92.80 131.23 93.20 C 131.03 93.50 130.63 94.11 130.42 94.41 C 127.90 94.59 125.45 95.10 123.05 95.89 C 119.02 96.48 114.92 96.32 110.86 96.26 C 110.94 95.49 111.09 93.95 111.16 93.18 Z" />
</g>
<g id="#f7f6f6ff">
<path fill="#f7f6f6" opacity="1.00" d=" M 54.15 94.57 C 54.64 94.63 55.63 94.75 56.12 94.81 C 54.96 100.59 53.57 106.37 51.85 112.01 C 49.14 113.06 50.75 109.18 50.86 108.02 C 52.06 103.56 52.94 99.02 54.15 94.57 Z" />
</g>
<g id="#a1ffcdff">
<path fill="#a1ffcd" opacity="1.00" d=" M 95.97 96.24 C 96.95 97.63 96.91 99.34 95.90 100.70 C 94.68 99.65 94.71 97.25 95.97 96.24 Z" />
</g>
<g id="#62426bff">
<path fill="#62426b" opacity="1.00" d=" M 218.34 99.01 C 218.57 97.05 221.26 96.75 222.81 96.14 C 219.77 99.40 221.06 104.02 222.38 107.75 C 220.34 110.85 221.74 114.51 221.49 117.92 C 221.21 122.38 221.70 126.85 221.23 131.30 C 220.12 130.57 219.15 129.47 219.34 128.04 C 218.99 118.37 220.21 108.57 218.34 99.01 Z" />
</g>
<g id="#6f6372ff">
<path fill="#6f6372" opacity="1.00" d=" M 222.81 96.14 L 224.18 95.82 C 223.79 97.32 223.32 98.80 222.80 100.26 C 225.47 102.31 226.91 98.69 229.11 97.74 C 229.34 97.58 229.79 97.27 230.02 97.11 C 230.91 96.73 231.80 96.35 232.70 95.98 C 232.46 97.26 231.86 98.54 232.13 99.86 C 233.39 100.19 234.68 100.22 236.00 99.95 C 235.71 98.59 235.32 97.25 234.44 96.15 C 235.49 96.19 236.55 96.22 237.60 96.24 C 239.34 97.62 240.97 99.15 242.35 100.89 C 242.95 100.87 244.15 100.83 244.75 100.81 C 244.66 99.79 244.59 98.77 244.51 97.75 C 245.26 97.23 246.02 96.72 246.78 96.20 C 249.51 98.30 250.94 101.87 249.40 105.16 C 248.39 107.28 248.45 109.64 249.40 111.76 C 250.33 116.48 250.31 121.51 249.42 126.23 C 248.50 128.37 248.38 130.72 249.33 132.87 C 250.82 135.51 248.07 138.36 245.44 138.46 C 239.94 138.83 234.42 138.40 228.91 138.61 C 226.13 138.48 223.12 139.14 220.54 137.82 C 221.35 135.73 221.18 133.49 221.23 131.30 C 221.70 126.85 221.21 122.38 221.49 117.92 C 221.74 114.51 220.34 110.85 222.38 107.75 C 221.06 104.02 219.77 99.40 222.81 96.14 M 232.12 103.24 C 228.98 104.57 228.83 109.54 232.01 110.87 C 235.03 112.70 238.99 109.24 237.96 106.01 C 237.42 103.46 234.38 102.39 232.12 103.24 M 231.33 114.41 C 225.48 116.06 223.12 124.19 227.56 128.51 C 231.67 133.56 240.72 131.28 242.13 124.98 C 244.11 118.80 237.48 112.26 231.33 114.41 M 223.29 134.39 C 223.25 134.98 223.19 136.18 223.15 136.77 C 223.84 136.82 225.21 136.92 225.89 136.97 C 225.87 136.26 225.84 134.84 225.82 134.13 C 225.19 134.19 223.92 134.32 223.29 134.39 M 241.81 134.07 C 241.42 135.19 241.18 137.37 243.10 137.11 C 244.70 137.47 244.35 135.28 244.96 134.43 C 244.17 134.34 242.60 134.16 241.81 134.07 Z" />
<path fill="#6f6372" opacity="1.00" d=" M 49.74 130.10 C 54.88 129.35 59.81 130.81 64.83 131.45 C 64.94 133.70 65.00 135.95 65.02 138.20 C 60.62 138.26 56.21 138.11 51.80 138.23 C 50.97 135.56 50.28 132.84 49.74 130.10 M 53.25 134.41 C 51.65 135.76 54.13 138.08 55.44 136.55 C 56.79 135.23 54.56 133.08 53.25 134.41 Z" />
</g>
<g id="#a7a7adff">
<path fill="#a7a7ad" opacity="1.00" d=" M 111.41 97.29 C 113.33 96.48 115.78 96.56 117.74 97.22 C 116.66 98.50 112.43 98.65 111.41 97.29 Z" />
</g>
<g id="#d83956ff">
<path fill="#d83956" opacity="1.00" d=" M 233.20 98.04 C 236.27 96.63 233.22 101.36 233.20 98.04 Z" />
</g>
<g id="#7f7d85ff">
<path fill="#7f7d85" opacity="1.00" d=" M 111.36 99.45 C 117.83 99.60 124.30 99.62 130.77 99.42 C 130.76 99.69 130.72 100.23 130.71 100.50 C 127.71 99.82 125.02 102.03 122.13 101.33 C 118.54 100.36 114.81 100.47 111.14 100.77 C 111.20 100.44 111.30 99.78 111.36 99.45 Z" />
<path fill="#7f7d85" opacity="1.00" d=" M 144.12 122.37 C 145.17 120.57 147.15 119.60 148.65 118.22 C 148.90 118.79 149.39 119.94 149.63 120.51 C 151.42 120.58 153.20 120.66 154.99 120.74 C 154.95 121.63 154.87 123.40 154.83 124.28 C 152.63 123.55 150.29 123.80 148.07 124.24 C 147.54 123.99 146.48 123.50 145.95 123.25 C 145.49 123.03 144.58 122.59 144.12 122.37 Z" />
</g>
<g id="#ffbb58ff">
<path fill="#ffbb58" opacity="1.00" d=" M 159.19 101.16 C 161.69 98.59 165.59 98.42 168.81 99.56 C 165.73 103.64 162.93 108.02 161.56 112.98 C 158.83 121.36 160.70 130.25 159.91 138.86 C 159.08 138.89 157.42 138.93 156.59 138.96 C 156.10 129.32 156.51 119.66 156.40 110.01 C 156.45 106.91 156.53 103.26 159.19 101.16 M 158.94 105.64 C 158.80 108.25 158.81 110.88 158.97 113.49 C 159.37 113.28 160.18 112.85 160.59 112.63 C 160.49 110.33 162.05 106.37 158.94 105.64 Z" />
</g>
<g id="#ffd285ff">
<path fill="#ffd285" opacity="1.00" d=" M 204.06 104.91 C 204.04 102.68 205.20 100.69 207.01 99.45 C 206.55 102.09 205.32 105.04 207.21 107.42 C 207.02 109.22 206.80 111.02 206.66 112.82 C 205.65 117.49 206.00 122.27 206.09 127.00 C 205.57 127.00 204.52 127.01 204.00 127.01 C 204.05 119.64 203.91 112.27 204.06 104.91 Z" />
</g>
<g id="#979397ff">
<path fill="#979397" opacity="1.00" d=" M 249.40 111.76 C 248.45 109.64 248.39 107.28 249.40 105.16 C 250.54 107.05 250.55 109.87 249.40 111.76 Z" />
</g>
<g id="#ffdab1ff">
<path fill="#ffdab1" opacity="1.00" d=" M 158.94 105.64 C 162.05 106.37 160.49 110.33 160.59 112.63 C 160.18 112.85 159.37 113.28 158.97 113.49 C 158.81 110.88 158.80 108.25 158.94 105.64 Z" />
</g>
<g id="#ffe4d2ff">
<path fill="#ffe4d2" opacity="1.00" d=" M 207.21 107.42 C 208.69 109.12 208.80 111.53 207.74 113.48 C 207.47 113.31 206.93 112.99 206.66 112.82 C 206.80 111.02 207.02 109.22 207.21 107.42 Z" />
</g>
<g id="#5eadc5ff">
<path fill="#5eadc5" opacity="1.00" d=" M 31.14 113.99 C 31.67 114.24 32.73 114.74 33.25 114.99 C 33.39 119.46 32.91 124.03 34.23 128.37 C 33.21 127.64 31.59 127.30 31.32 125.87 C 30.85 121.93 31.19 117.94 31.14 113.99 Z" />
</g>
<g id="#979297ff">
<path fill="#979297" opacity="1.00" d=" M 249.33 132.87 C 248.38 130.72 248.50 128.37 249.42 126.23 C 250.55 128.15 250.55 131.00 249.33 132.87 Z" />
</g>
<g id="#fbb34bff">
<path fill="#fbb34b" opacity="1.00" d=" M 146.76 127.58 C 149.47 126.94 152.23 126.57 155.02 126.58 C 155.02 128.13 155.02 129.69 155.02 131.24 C 152.29 131.28 149.56 131.25 146.84 131.14 C 146.82 130.25 146.78 128.47 146.76 127.58 M 148.38 129.29 C 148.91 129.82 148.91 129.82 148.38 129.29 Z" />
</g>
<g id="#fffff8ff">
<path fill="#fffff8" opacity="1.00" d=" M 148.38 129.29 C 148.91 129.82 148.91 129.82 148.38 129.29 Z" />
</g>
<g id="#64456cff">
<path fill="#64456c" opacity="1.00" d=" M 47.20 130.41 C 47.84 130.33 49.11 130.18 49.74 130.10 C 50.28 132.84 50.97 135.56 51.80 138.23 C 47.59 138.32 47.24 133.54 47.20 130.41 Z" />
</g>
<g id="#60aec5ff">
<path fill="#60aec5" opacity="1.00" d=" M 66.49 130.23 C 67.59 130.15 68.68 130.07 69.78 130.01 C 69.65 132.93 69.63 135.85 69.69 138.78 C 68.65 138.71 67.60 138.64 66.56 138.57 C 66.76 135.79 66.74 133.00 66.49 130.23 Z" />
</g>
<g id="#91dcdcff">
<path fill="#91dcdc" opacity="1.00" d=" M 71.29 130.18 C 77.70 130.44 84.10 130.16 90.49 129.74 C 90.68 132.80 90.67 135.87 90.39 138.92 C 83.97 138.75 77.55 138.80 71.13 138.84 C 71.08 135.95 71.16 133.06 71.29 130.18 Z" />
</g>
<g id="#ffdbc7ff">
<path fill="#ffdbc7" opacity="1.00" d=" M 171.95 133.78 C 172.15 129.49 177.84 129.69 180.12 132.27 C 178.50 135.58 174.78 135.26 171.95 133.78 Z" />
</g>
<g id="#3f3949ff">
<path fill="#3f3949" opacity="1.00" d=" M 53.25 134.41 C 54.56 133.08 56.79 135.23 55.44 136.55 C 54.13 138.08 51.65 135.76 53.25 134.41 Z" />
</g>
<g id="#94e2e3ff">
<path fill="#94e2e3" opacity="1.00" d=" M 92.16 134.42 C 94.91 134.56 97.67 134.36 100.40 134.65 C 102.57 135.64 104.51 137.40 107.04 137.29 C 113.88 137.52 120.73 137.16 127.57 137.39 C 127.74 137.75 128.09 138.47 128.26 138.84 C 116.16 139.08 104.06 138.62 91.97 138.87 C 92.02 137.39 92.09 135.90 92.16 134.42 Z" />
<path fill="#94e2e3" opacity="1.00" d=" M 103.01 134.45 C 111.16 134.58 119.33 134.41 127.48 134.54 C 127.69 134.89 128.12 135.59 128.33 135.94 C 121.53 136.05 114.73 136.01 107.93 136.00 C 106.13 136.12 104.47 135.43 103.01 134.45 Z" />
</g>
<g id="#83c3dbff">
<path fill="#83c3db" opacity="1.00" d=" M 134.93 133.95 C 138.70 133.10 143.77 134.00 143.96 138.79 C 141.10 138.80 138.25 138.79 135.40 138.71 C 135.30 137.67 135.09 135.59 134.99 134.55 L 134.93 133.95 Z" />
</g>
<g id="#423c4bff">
<path fill="#423c4b" opacity="1.00" d=" M 223.29 134.39 C 223.92 134.32 225.19 134.19 225.82 134.13 C 225.84 134.84 225.87 136.26 225.89 136.97 C 225.21 136.92 223.84 136.82 223.15 136.77 C 223.19 136.18 223.25 134.98 223.29 134.39 Z" />
<path fill="#423c4b" opacity="1.00" d=" M 241.81 134.07 C 242.60 134.16 244.17 134.34 244.96 134.43 C 244.35 135.28 244.70 137.47 243.10 137.11 C 241.18 137.37 241.42 135.19 241.81 134.07 Z" />
</g>
<g id="#ffcb95ff">
<path fill="#ffcb95" opacity="1.00" d=" M 70.26 140.17 C 74.66 139.73 79.12 139.57 83.49 140.29 C 79.22 141.56 74.44 142.04 70.26 140.17 Z" />
</g>
<g id="#ffca94ff">
<path fill="#ffca94" opacity="1.00" d=" M 96.32 140.28 C 100.66 139.65 105.11 139.63 109.45 140.29 C 105.21 141.70 100.54 141.79 96.32 140.28 Z" />
</g>
<g id="#fecb95ff">
<path fill="#fecb95" opacity="1.00" d=" M 111.54 140.30 C 119.20 139.55 126.98 139.73 134.65 140.26 C 130.63 141.93 126.23 141.08 122.01 141.23 C 118.49 141.35 114.93 141.34 111.54 140.30 Z" />
</g>
<g id="#71573aff">
<path fill="#71573a" opacity="1.00" d=" M 57.30 141.14 C 57.83 141.66 57.83 141.66 57.30 141.14 Z" />
</g>
<g id="#d78722ff">
<path fill="#d78722" opacity="1.00" d=" M 48.46 142.85 C 66.97 142.32 85.50 142.83 104.01 142.61 C 150.83 142.74 197.64 142.50 244.46 142.78 C 243.76 144.65 241.47 143.82 239.99 144.11 C 177.32 144.07 114.65 144.12 51.97 144.08 C 50.63 144.17 49.46 143.76 48.46 142.85 Z" />
</g>
<g id="#ed992fff">
<path fill="#ed992f" opacity="1.00" d=" M 55.72 145.58 C 101.11 145.31 146.52 145.54 191.91 145.47 C 196.90 145.64 201.94 145.05 206.89 145.86 C 206.62 146.35 206.07 147.33 205.80 147.82 L 205.20 147.95 C 202.15 145.98 198.41 146.93 195.01 146.79 C 161.66 146.82 128.32 146.74 94.98 146.80 C 87.89 146.71 80.76 146.56 73.74 147.69 C 71.53 148.14 69.29 147.80 67.16 147.11 C 66.29 147.81 65.42 148.54 64.56 149.26 C 63.80 145.31 59.29 147.52 56.56 147.06 C 56.35 146.69 55.93 145.95 55.72 145.58 Z" />
</g>
<g id="#f7b14bff">
<path fill="#f7b14b" opacity="1.00" d=" M 207.72 145.52 C 217.90 145.60 228.09 145.38 238.27 145.67 C 237.34 148.64 234.94 151.04 231.97 151.96 C 228.67 152.59 225.29 152.30 221.95 152.34 C 169.97 152.33 117.99 152.34 66.01 152.34 C 62.14 152.65 58.19 150.65 56.56 147.06 C 59.29 147.52 63.80 145.31 64.56 149.26 C 65.42 148.54 66.29 147.81 67.16 147.11 C 69.29 147.80 71.53 148.14 73.74 147.69 C 80.76 146.56 87.89 146.71 94.98 146.80 C 128.32 146.74 161.66 146.82 195.01 146.79 C 198.41 146.93 202.15 145.98 205.20 147.95 C 207.01 150.22 207.19 146.78 207.72 145.52 M 67.18 149.06 C 66.69 150.71 67.24 151.26 68.85 150.70 C 69.34 149.05 68.79 148.50 67.18 149.06 M 208.22 149.04 C 207.65 150.64 208.20 151.22 209.85 150.77 C 210.41 149.18 209.87 148.60 208.22 149.04 Z" />
</g>
<g id="#da8a27ff">
<path fill="#da8a27" opacity="1.00" d=" M 67.18 149.06 C 68.79 148.50 69.34 149.05 68.85 150.70 C 67.24 151.26 66.69 150.71 67.18 149.06 Z" />
</g>
<g id="#d78724ff">
<path fill="#d78724" opacity="1.00" d=" M 208.22 149.04 C 209.87 148.60 210.41 149.18 209.85 150.77 C 208.20 151.22 207.65 150.64 208.22 149.04 Z" />
</g>
</svg>
