<?xml version="1.0" encoding="UTF-8" ?>
<!DOCTYPE svg PUBLIC "-//W3C//DTD SVG 1.1//EN" "http://www.w3.org/Graphics/SVG/1.1/DTD/svg11.dtd">
<svg width="270pt" height="170pt" viewBox="0 0 270 170" version="1.1" xmlns="http://www.w3.org/2000/svg">
<g id="#ffffffff">
<path fill="#ffffff" opacity="1.00" d=" M 0.00 0.00 L 270.00 0.00 L 270.00 170.00 L 0.00 170.00 L 0.00 0.00 M 137.43 63.70 C 134.18 65.37 133.72 70.27 136.95 72.24 C 140.11 75.24 145.60 72.08 145.36 67.98 C 145.40 64.28 140.57 61.42 137.43 63.70 M 242.32 66.70 C 242.32 69.70 242.31 72.69 242.39 75.69 C 240.32 75.78 238.25 75.80 236.19 75.76 C 236.13 78.46 236.11 81.15 236.14 83.84 C 238.22 84.02 240.57 83.25 242.41 84.49 C 242.63 91.18 240.89 98.93 245.47 104.56 C 249.19 108.31 254.81 107.85 259.63 107.46 C 259.72 104.89 259.72 102.32 259.63 99.76 C 256.89 99.92 253.01 100.33 251.75 97.16 C 251.50 92.72 251.61 88.26 251.71 83.81 C 254.28 84.01 256.85 84.29 259.43 84.23 C 259.93 81.42 259.69 78.55 259.58 75.72 C 256.96 75.78 254.34 75.79 251.72 75.76 C 251.45 70.81 247.18 66.95 242.32 66.70 M 88.61 78.76 C 88.81 78.32 89.20 77.44 89.40 77.01 C 87.21 74.36 82.91 76.41 79.80 75.75 C 79.76 86.42 79.76 97.09 79.80 107.76 C 82.95 107.60 86.11 107.85 89.25 107.53 C 89.17 102.02 89.25 96.51 89.20 91.01 C 89.23 89.06 89.07 86.90 90.32 85.25 C 92.53 81.90 99.01 82.80 99.44 87.10 C 99.67 93.94 99.47 100.81 99.52 107.66 C 102.62 107.72 105.72 107.68 108.82 107.70 C 108.90 101.78 108.75 95.85 108.88 89.93 C 108.97 87.07 110.56 83.11 113.99 83.32 C 117.14 82.79 119.76 86.04 119.41 89.01 C 119.40 95.24 119.38 101.47 119.41 107.70 C 122.49 107.68 125.56 107.68 128.63 107.75 C 128.73 100.82 128.66 93.89 128.68 86.97 C 128.57 81.23 124.29 74.91 118.00 75.25 C 113.71 74.62 109.70 76.65 106.97 79.86 C 103.15 73.57 93.42 73.79 88.61 78.76 M 222.26 75.74 C 222.10 77.82 222.45 79.97 221.84 81.99 C 222.63 88.97 221.95 96.05 222.21 103.07 C 222.40 104.63 221.17 106.39 222.52 107.73 C 225.44 107.74 228.37 107.60 231.29 107.79 C 231.38 97.11 231.34 86.43 231.31 75.75 C 228.30 75.78 225.28 75.78 222.26 75.74 M 8.36 75.62 C 8.52 86.41 8.31 97.21 8.48 108.00 C 14.97 107.77 21.47 108.03 27.96 107.84 C 35.29 107.54 42.62 107.79 49.95 107.71 C 56.38 108.15 62.84 107.80 69.28 107.89 C 69.32 97.15 69.25 86.40 69.32 75.66 C 57.76 75.59 47.21 81.48 38.70 88.82 C 30.63 80.99 19.54 76.34 8.36 75.62 M 135.55 75.75 C 135.51 86.43 135.44 97.12 135.59 107.81 C 138.54 107.64 141.51 107.66 144.47 107.77 C 144.58 97.10 144.55 86.42 144.49 75.75 C 141.51 75.78 138.53 75.78 135.55 75.75 M 149.00 75.77 C 152.51 81.20 156.69 86.38 159.90 91.90 C 156.34 97.19 152.67 102.42 149.03 107.66 C 152.54 107.68 156.05 107.81 159.55 107.56 C 161.32 104.64 163.33 101.88 165.13 98.98 C 167.64 101.51 169.10 104.85 171.41 107.54 C 174.83 107.90 178.31 107.66 181.75 107.62 C 178.51 103.06 175.35 98.45 172.17 93.85 C 171.62 92.89 170.30 91.69 171.51 90.63 C 174.91 85.66 178.38 80.73 181.80 75.77 C 178.45 75.74 175.09 75.83 171.74 75.70 C 169.34 78.52 167.49 81.75 165.34 84.75 C 163.24 81.78 161.36 78.65 159.13 75.76 C 155.75 75.79 152.38 75.76 149.00 75.77 M 186.27 75.76 C 186.20 86.42 186.20 97.08 186.27 107.74 C 189.30 107.68 192.33 107.67 195.36 107.74 C 195.44 103.23 195.37 98.73 195.40 94.23 C 199.01 98.71 202.66 103.16 206.22 107.68 C 210.11 107.69 214.01 107.70 217.90 107.71 C 213.81 102.26 209.43 96.98 204.99 91.81 C 208.30 86.25 212.56 81.29 215.93 75.76 C 212.32 75.76 208.70 75.79 205.09 75.76 C 201.70 80.00 198.81 84.62 195.33 88.78 C 195.43 84.44 195.43 80.10 195.37 75.76 C 192.33 75.77 189.30 75.77 186.27 75.76 M 221.69 117.74 C 223.39 120.24 227.07 121.98 229.65 119.67 C 233.65 117.25 231.70 110.15 226.95 110.35 C 223.03 109.87 220.34 114.22 221.69 117.74 Z" />
</g>
<g id="#2b2b30ff">
<path fill="#2b2b30" opacity="1.00" d=" M 137.43 63.70 C 140.57 61.42 145.40 64.28 145.36 67.98 C 145.60 72.08 140.11 75.24 136.95 72.24 C 133.72 70.27 134.18 65.37 137.43 63.70 Z" />
<path fill="#2b2b30" opacity="1.00" d=" M 242.32 66.70 C 247.18 66.95 251.45 70.81 251.72 75.76 C 254.34 75.79 256.96 75.78 259.58 75.72 C 259.69 78.55 259.93 81.42 259.43 84.23 C 256.85 84.29 254.28 84.01 251.71 83.81 C 251.61 88.26 251.50 92.72 251.75 97.16 C 253.01 100.33 256.89 99.92 259.63 99.76 C 259.72 102.32 259.72 104.89 259.63 107.46 C 254.81 107.85 249.19 108.31 245.47 104.56 C 240.89 98.93 242.63 91.18 242.41 84.49 C 240.57 83.25 238.22 84.02 236.14 83.84 C 236.11 81.15 236.13 78.46 236.19 75.76 C 238.25 75.80 240.32 75.78 242.39 75.69 C 242.31 72.69 242.32 69.70 242.32 66.70 Z" />
<path fill="#2b2b30" opacity="1.00" d=" M 88.61 78.76 C 93.42 73.79 103.15 73.57 106.97 79.86 C 109.70 76.65 113.71 74.62 118.00 75.25 C 124.29 74.91 128.57 81.23 128.68 86.97 C 128.66 93.89 128.73 100.82 128.63 107.75 C 125.56 107.68 122.49 107.68 119.41 107.70 C 119.38 101.47 119.40 95.24 119.41 89.01 C 119.76 86.04 117.14 82.79 113.99 83.32 C 110.56 83.11 108.97 87.07 108.88 89.93 C 108.75 95.85 108.90 101.78 108.82 107.70 C 105.72 107.68 102.62 107.72 99.52 107.66 C 99.47 100.81 99.67 93.94 99.44 87.10 C 99.01 82.80 92.53 81.90 90.32 85.25 C 89.07 86.90 89.23 89.06 89.20 91.01 C 89.25 96.51 89.17 102.02 89.25 107.53 C 86.11 107.85 82.95 107.60 79.80 107.76 C 79.76 97.09 79.76 86.42 79.80 75.75 C 82.91 76.41 87.21 74.36 89.40 77.01 C 89.20 77.44 88.81 78.32 88.61 78.76 Z" />
<path fill="#2b2b30" opacity="1.00" d=" M 222.26 75.74 C 225.28 75.78 228.30 75.78 231.31 75.75 C 231.34 86.43 231.38 97.11 231.29 107.79 C 228.37 107.60 225.44 107.74 222.52 107.73 C 221.17 106.39 222.40 104.63 222.21 103.07 C 221.95 96.05 222.63 88.97 221.84 81.99 C 222.45 79.97 222.10 77.82 222.26 75.74 Z" />
<path fill="#2b2b30" opacity="1.00" d=" M 135.55 75.75 C 138.53 75.78 141.51 75.78 144.49 75.75 C 144.55 86.42 144.58 97.10 144.47 107.77 C 141.51 107.66 138.54 107.64 135.59 107.81 C 135.44 97.12 135.51 86.43 135.55 75.75 Z" />
<path fill="#2b2b30" opacity="1.00" d=" M 149.00 75.77 C 152.38 75.76 155.75 75.79 159.13 75.76 C 161.36 78.65 163.24 81.78 165.34 84.75 C 167.49 81.75 169.34 78.52 171.74 75.70 C 175.09 75.83 178.45 75.74 181.80 75.77 C 178.38 80.73 174.91 85.66 171.51 90.63 C 170.30 91.69 171.62 92.89 172.17 93.85 C 175.35 98.45 178.51 103.06 181.75 107.62 C 178.31 107.66 174.83 107.90 171.41 107.54 C 169.10 104.85 167.64 101.51 165.13 98.98 C 163.33 101.88 161.32 104.64 159.55 107.56 C 156.05 107.81 152.54 107.68 149.03 107.66 C 152.67 102.42 156.34 97.19 159.90 91.90 C 156.69 86.38 152.51 81.20 149.00 75.77 Z" />
<path fill="#2b2b30" opacity="1.00" d=" M 186.27 75.76 C 189.30 75.77 192.33 75.77 195.37 75.76 C 195.43 80.10 195.43 84.44 195.33 88.78 C 198.81 84.62 201.70 80.00 205.09 75.76 C 208.70 75.79 212.32 75.76 215.93 75.76 C 212.56 81.29 208.30 86.25 204.99 91.81 C 209.43 96.98 213.81 102.26 217.90 107.71 C 214.01 107.70 210.11 107.69 206.22 107.68 C 202.66 103.16 199.01 98.71 195.40 94.23 C 195.37 98.73 195.44 103.23 195.36 107.74 C 192.33 107.67 189.30 107.68 186.27 107.74 C 186.20 97.08 186.20 86.42 186.27 75.76 Z" />
<path fill="#2b2b30" opacity="1.00" d=" M 27.96 107.84 C 30.24 100.90 33.89 94.41 39.07 89.22 C 44.03 94.50 47.64 100.86 49.95 107.71 C 42.62 107.79 35.29 107.54 27.96 107.84 Z" />
<path fill="#2b2b30" opacity="1.00" d=" M 221.69 117.74 C 220.34 114.22 223.03 109.87 226.95 110.35 C 231.70 110.15 233.65 117.25 229.65 119.67 C 227.07 121.98 223.39 120.24 221.69 117.74 Z" />
</g>
<g id="#58c8d1ff">
<path fill="#58c8d1" opacity="1.00" d=" M 8.36 75.62 C 19.54 76.34 30.63 80.99 38.70 88.82 C 38.79 88.92 38.97 89.12 39.07 89.22 C 33.89 94.41 30.24 100.90 27.96 107.84 C 21.47 108.03 14.97 107.77 8.48 108.00 C 8.31 97.21 8.52 86.41 8.36 75.62 Z" />
</g>
<g id="#f3556fff">
<path fill="#f3556f" opacity="1.00" d=" M 38.70 88.82 C 47.21 81.48 57.76 75.59 69.32 75.66 C 69.25 86.40 69.32 97.15 69.28 107.89 C 62.84 107.80 56.38 108.15 49.95 107.71 C 47.64 100.86 44.03 94.50 39.07 89.22 C 38.97 89.12 38.79 88.92 38.70 88.82 Z" />
</g>
</svg>
