<?xml version="1.0" encoding="UTF-8"?>
<svg id="_图层_2" data-name="图层 2" xmlns="http://www.w3.org/2000/svg" viewBox="0 0 270 170.03">
  <defs>
    <style>
      .cls-1 {
        fill: #fff;
      }

      .cls-2 {
        font-family: SourceHanSansK-Heavy-KSCpc-EUC-H, 'Source Han Sans K';
        font-size: 33.35px;
        font-weight: 800;
      }

      .cls-3 {
        fill: #ef0303;
      }

      .cls-4 {
        fill: #d20703;
      }
    </style>
  </defs>
  <g id="_图层_1-2" data-name="图层 1">
    <rect class="cls-1" width="270" height="170"/>
    <g>
      <g>
        <path class="cls-3" d="M53.33,21.58c-13.81,0-25.11,11.3-25.11,25.11v70.74c0,13.81,11.3,25.11,25.11,25.11h70.74c13.81,0,25.11-11.3,25.11-25.11V52.06c0-1.99-.83-3.88-2.28-5.23l-25.12-23.33c-1.32-1.23-3.06-1.91-4.86-1.91h-63.58Z"/>
        <g>
          <polygon class="cls-3" points="121.78 23.49 121.78 23.49 139.55 40 121.78 23.49"/>
          <path class="cls-4" d="M123.64,48.94h24.81c-.38-.79-.9-1.51-1.56-2.12l-7.35-6.83-17.77-16.51c-.61-.56-1.31-1.01-2.06-1.33v22.86c0,2.16,1.77,3.92,3.92,3.92Z"/>
        </g>
      </g>
      <g>
        <path class="cls-1" d="M41.61,67.16h13.7c8.61,0,15.7,3.05,15.7,12.71s-7.19,13.39-15.44,13.39h-4.57v12.97h-9.4v-39.06ZM55.1,85.85c4.57,0,6.77-2.15,6.77-5.99s-2.52-5.3-7.04-5.3h-3.83v11.29h4.1Z"/>
        <path class="cls-1" d="M77.68,67.16h11.24c11.92,0,19.79,5.72,19.79,19.32s-7.88,19.74-19.27,19.74h-11.76v-39.06ZM88.33,98.66c6.3,0,10.76-2.89,10.76-12.18s-4.46-11.87-10.76-11.87h-1.26v24.05h1.26Z"/>
        <path class="cls-1" d="M115.95,67.16h24.94v7.77h-15.54v8.56h13.34v7.82h-13.34v14.91h-9.4v-39.06Z"/>
      </g>
    </g>
    <text class="cls-2" transform="translate(171.27 55.12)"><tspan x="0" y="0">PDF</tspan><tspan x=".33" y="40.02">在线</tspan><tspan x=".33" y="80.05">转换</tspan></text>
  </g>
</svg>