<?xml version="1.0" encoding="UTF-8" ?>
<!DOCTYPE svg PUBLIC "-//W3C//DTD SVG 1.1//EN" "http://www.w3.org/Graphics/SVG/1.1/DTD/svg11.dtd">
<svg width="270pt" height="170pt" viewBox="0 0 270 170" version="1.1" xmlns="http://www.w3.org/2000/svg">
<g id="#ffffffff">
<path fill="#ffffff" opacity="1.00" d=" M 0.00 0.00 L 270.00 0.00 L 270.00 170.00 L 0.00 170.00 L 0.00 0.00 M 136.20 81.94 C 136.28 86.05 135.75 90.45 137.96 94.15 C 141.14 100.72 151.02 102.40 156.19 97.24 C 161.70 92.72 161.51 83.31 155.83 79.02 C 151.83 75.40 146.13 76.56 141.24 76.34 C 140.64 73.13 140.90 69.87 140.70 66.63 C 139.60 66.63 137.40 66.61 136.30 66.61 C 136.07 71.71 136.27 76.83 136.20 81.94 M 62.50 76.73 C 56.99 77.85 53.20 83.44 53.28 88.92 C 53.35 95.54 53.13 102.18 53.38 108.81 C 54.82 109.07 56.31 109.07 57.76 108.82 C 58.12 106.02 57.50 103.14 58.19 100.38 C 62.21 99.66 66.55 101.08 70.34 99.20 C 75.29 96.95 78.28 91.18 77.05 85.84 C 75.97 79.39 68.78 74.90 62.50 76.73 M 79.66 76.34 C 79.40 84.29 79.61 92.25 79.54 100.20 C 81.06 100.18 82.58 100.15 84.11 100.10 C 84.03 92.21 84.42 84.30 83.88 76.42 C 82.47 76.37 81.06 76.34 79.66 76.34 M 87.51 76.43 C 89.72 80.46 92.70 83.98 95.04 87.93 C 92.20 92.07 89.01 95.97 86.24 100.15 C 88.14 100.21 90.05 100.19 91.96 100.14 C 94.16 97.15 96.25 94.07 98.80 91.37 C 100.96 94.15 102.87 97.14 105.20 99.78 C 107.02 100.57 109.09 100.06 111.01 100.08 C 108.28 95.95 104.96 92.21 102.38 87.98 C 104.38 83.84 107.56 80.43 109.87 76.47 C 108.07 76.42 106.23 76.15 104.46 76.53 C 102.36 78.71 100.88 81.40 99.23 83.91 C 98.87 83.79 98.13 83.55 97.77 83.43 C 96.09 81.11 94.83 78.37 92.60 76.53 C 90.92 76.20 89.20 76.41 87.51 76.43 M 110.01 89.15 C 110.32 95.17 115.95 100.40 122.00 100.18 C 126.06 100.15 130.15 100.40 134.19 99.82 C 133.59 95.20 134.18 90.51 133.58 85.89 C 132.84 79.98 126.74 75.53 120.88 76.38 C 114.58 76.60 109.25 82.93 110.01 89.15 M 166.32 79.24 C 160.39 84.08 161.17 94.62 167.87 98.40 C 173.34 101.47 179.91 99.80 185.88 100.10 C 185.82 95.05 186.16 89.97 185.68 84.93 C 183.89 76.66 172.32 73.42 166.32 79.24 M 188.53 76.33 C 188.25 81.25 188.20 86.23 188.92 91.12 C 190.11 96.48 195.51 100.60 201.02 100.22 C 203.45 100.20 205.61 98.95 207.92 98.37 C 207.35 103.09 202.93 105.41 198.61 105.55 C 198.39 106.30 197.94 107.82 197.72 108.58 C 201.16 108.98 205.43 110.05 208.06 107.10 C 211.14 104.70 212.49 100.85 212.53 97.04 C 212.52 90.16 212.68 83.27 212.42 76.39 C 210.93 76.69 207.80 75.44 207.86 77.87 C 207.65 82.09 208.11 86.36 207.34 90.54 C 205.94 95.04 199.61 97.44 195.98 93.95 C 190.61 89.62 194.84 81.89 192.63 76.46 C 191.27 76.29 189.90 76.34 188.53 76.33 Z" />
<path fill="#ffffff" opacity="1.00" d=" M 60.83 82.78 C 64.61 78.96 71.87 81.84 72.46 87.05 C 73.25 90.82 70.57 94.71 66.84 95.47 C 63.97 95.90 61.05 95.65 58.17 95.58 C 57.73 91.28 57.04 85.85 60.83 82.78 Z" />
<path fill="#ffffff" opacity="1.00" d=" M 115.87 92.07 C 112.38 87.77 116.53 80.57 121.94 81.07 C 124.90 80.74 127.48 82.87 128.69 85.41 C 129.74 88.68 129.21 92.19 129.19 95.56 C 124.63 95.76 118.69 96.62 115.87 92.07 Z" />
<path fill="#ffffff" opacity="1.00" d=" M 141.21 81.29 C 145.29 81.23 150.53 79.81 153.58 83.33 C 157.02 86.67 155.64 93.43 151.05 95.03 C 148.07 96.61 144.38 95.02 142.43 92.56 C 140.43 89.22 140.34 84.98 141.21 81.29 Z" />
<path fill="#ffffff" opacity="1.00" d=" M 169.60 82.65 C 173.24 79.34 179.81 81.32 181.10 86.05 C 181.57 89.23 181.33 92.46 181.19 95.66 C 177.24 95.48 172.53 96.68 169.38 93.57 C 166.05 90.93 166.23 85.17 169.60 82.65 Z" />
</g>
<g id="#000000ff">
<path fill="#000000" opacity="1.00" d=" M 136.20 81.94 C 136.27 76.83 136.07 71.71 136.30 66.61 C 137.40 66.61 139.60 66.63 140.70 66.63 C 140.90 69.87 140.64 73.13 141.24 76.34 C 146.13 76.56 151.83 75.40 155.83 79.02 C 161.51 83.31 161.70 92.72 156.19 97.24 C 151.02 102.40 141.14 100.72 137.96 94.15 C 135.75 90.45 136.28 86.05 136.20 81.94 M 141.21 81.29 C 140.34 84.98 140.43 89.22 142.43 92.56 C 144.38 95.02 148.07 96.61 151.05 95.03 C 155.64 93.43 157.02 86.67 153.58 83.33 C 150.53 79.81 145.29 81.23 141.21 81.29 Z" />
<path fill="#000000" opacity="1.00" d=" M 62.50 76.73 C 68.78 74.90 75.97 79.39 77.05 85.84 C 78.28 91.18 75.29 96.95 70.34 99.20 C 66.55 101.08 62.21 99.66 58.19 100.38 C 57.50 103.14 58.12 106.02 57.76 108.82 C 56.31 109.07 54.82 109.07 53.38 108.81 C 53.13 102.18 53.35 95.54 53.28 88.92 C 53.20 83.44 56.99 77.85 62.50 76.73 M 60.83 82.78 C 57.04 85.85 57.73 91.28 58.17 95.58 C 61.05 95.65 63.97 95.90 66.84 95.47 C 70.57 94.71 73.25 90.82 72.46 87.05 C 71.87 81.84 64.61 78.96 60.83 82.78 Z" />
<path fill="#000000" opacity="1.00" d=" M 79.66 76.34 C 81.06 76.34 82.47 76.37 83.88 76.42 C 84.42 84.30 84.03 92.21 84.11 100.10 C 82.58 100.15 81.06 100.18 79.54 100.20 C 79.61 92.25 79.40 84.29 79.66 76.34 Z" />
<path fill="#000000" opacity="1.00" d=" M 87.51 76.43 C 89.20 76.41 90.92 76.20 92.60 76.53 C 94.83 78.37 96.09 81.11 97.77 83.43 C 98.13 83.55 98.87 83.79 99.23 83.91 C 100.88 81.40 102.36 78.71 104.46 76.53 C 106.23 76.15 108.07 76.42 109.87 76.47 C 107.56 80.43 104.38 83.84 102.38 87.98 C 104.96 92.21 108.28 95.95 111.01 100.08 C 109.09 100.06 107.02 100.57 105.20 99.78 C 102.87 97.14 100.96 94.15 98.80 91.37 C 96.25 94.07 94.16 97.15 91.96 100.14 C 90.05 100.19 88.14 100.21 86.24 100.15 C 89.01 95.97 92.20 92.07 95.04 87.93 C 92.70 83.98 89.72 80.46 87.51 76.43 Z" />
<path fill="#000000" opacity="1.00" d=" M 110.01 89.15 C 109.25 82.93 114.58 76.60 120.88 76.38 C 126.74 75.53 132.84 79.98 133.58 85.89 C 134.18 90.51 133.59 95.20 134.19 99.82 C 130.15 100.40 126.06 100.15 122.00 100.18 C 115.95 100.40 110.32 95.17 110.01 89.15 M 115.87 92.07 C 118.69 96.62 124.63 95.76 129.19 95.56 C 129.21 92.19 129.74 88.68 128.69 85.41 C 127.48 82.87 124.90 80.74 121.94 81.07 C 116.53 80.57 112.38 87.77 115.87 92.07 Z" />
<path fill="#000000" opacity="1.00" d=" M 166.32 79.24 C 172.32 73.42 183.89 76.66 185.68 84.93 C 186.16 89.97 185.82 95.05 185.88 100.10 C 179.91 99.80 173.34 101.47 167.87 98.40 C 161.17 94.62 160.39 84.08 166.32 79.24 M 169.60 82.65 C 166.23 85.17 166.05 90.93 169.38 93.57 C 172.53 96.68 177.24 95.48 181.19 95.66 C 181.33 92.46 181.57 89.23 181.10 86.05 C 179.81 81.32 173.24 79.34 169.60 82.65 Z" />
<path fill="#000000" opacity="1.00" d=" M 188.53 76.33 C 189.90 76.34 191.27 76.29 192.63 76.46 C 194.84 81.89 190.61 89.62 195.98 93.95 C 199.61 97.44 205.94 95.04 207.34 90.54 C 208.11 86.36 207.65 82.09 207.86 77.87 C 207.80 75.44 210.93 76.69 212.42 76.39 C 212.68 83.27 212.52 90.16 212.53 97.04 C 212.49 100.85 211.14 104.70 208.06 107.10 C 205.43 110.05 201.16 108.98 197.72 108.58 C 197.94 107.82 198.39 106.30 198.61 105.55 C 202.93 105.41 207.35 103.09 207.92 98.37 C 205.61 98.95 203.45 100.20 201.02 100.22 C 195.51 100.60 190.11 96.48 188.92 91.12 C 188.20 86.23 188.25 81.25 188.53 76.33 Z" />
</g>
</svg>
