<?xml version="1.0" encoding="UTF-8" ?>
<!DOCTYPE svg PUBLIC "-//W3C//DTD SVG 1.1//EN" "http://www.w3.org/Graphics/SVG/1.1/DTD/svg11.dtd">
<svg width="270pt" height="170pt" viewBox="0 0 270 170" version="1.1" xmlns="http://www.w3.org/2000/svg">
<g id="#ffffffff">
<path fill="#ffffff" opacity="1.00" d=" M 0.00 0.00 L 270.00 0.00 L 270.00 170.00 L 0.00 170.00 L 0.00 0.00 M 189.56 15.37 C 188.47 23.89 188.08 32.49 187.12 41.02 C 187.01 43.21 186.34 46.94 189.30 47.49 C 197.37 48.79 205.59 48.73 213.72 49.60 C 212.14 50.66 210.39 51.55 209.20 53.07 C 202.88 51.71 196.36 51.68 189.93 51.16 C 187.84 50.73 185.73 52.13 185.55 54.30 C 184.70 62.30 184.18 70.34 183.39 78.34 C 183.29 80.68 182.78 83.12 183.56 85.39 C 185.13 86.53 187.52 87.32 189.32 86.43 C 190.25 87.25 191.22 88.00 192.24 88.71 C 193.67 89.16 194.73 87.80 195.79 87.09 C 198.45 87.56 201.12 87.95 203.79 88.35 C 202.93 90.67 201.79 92.87 200.62 95.05 L 202.16 95.36 C 201.46 96.60 200.72 97.81 199.98 99.02 C 199.27 104.67 198.37 110.29 197.47 115.91 C 196.16 122.23 197.80 128.62 197.95 134.97 L 198.30 134.81 C 198.22 138.16 198.55 141.51 199.04 144.82 C 198.80 147.50 199.36 150.19 199.50 152.87 C 199.90 152.88 200.70 152.88 201.10 152.89 C 201.30 154.14 201.50 155.41 201.67 156.67 C 198.72 158.15 194.85 159.13 194.12 162.89 C 188.87 162.91 183.63 162.94 178.38 162.86 C 178.40 162.94 178.42 163.09 178.43 163.16 C 187.83 163.26 197.22 162.79 206.62 162.92 L 206.68 163.52 C 220.63 162.72 234.60 163.75 248.57 163.46 C 248.59 163.24 248.63 162.81 248.65 162.59 C 240.43 162.64 232.22 162.74 224.00 162.56 C 224.00 161.04 224.00 159.52 224.00 158.00 C 231.09 157.61 238.89 157.34 244.71 152.73 C 248.19 149.99 251.47 145.61 250.25 140.94 C 245.61 143.80 240.57 146.33 235.06 146.88 C 234.79 146.71 234.25 146.39 233.99 146.22 C 236.01 140.52 236.87 133.19 232.03 128.61 C 230.48 132.14 228.44 135.47 227.25 139.15 C 226.80 142.08 226.93 145.07 226.80 148.03 C 226.24 146.91 225.69 145.79 225.15 144.67 C 225.66 136.43 226.79 128.24 226.79 119.98 C 226.88 112.30 228.41 104.74 228.80 97.09 C 230.81 93.47 228.58 89.57 227.90 85.92 C 229.68 86.39 229.79 88.33 230.38 89.77 C 232.50 90.11 234.63 90.43 236.76 90.75 C 236.32 94.40 242.24 94.83 241.93 91.27 C 243.52 91.13 245.14 91.12 246.70 90.72 C 248.95 89.34 248.69 86.32 249.05 84.04 C 249.49 76.68 250.34 69.36 251.03 62.02 C 251.04 60.14 251.66 57.59 249.71 56.42 C 246.97 55.29 243.94 55.41 241.05 55.10 C 237.59 54.93 234.03 54.08 230.63 55.16 C 229.56 53.80 228.34 52.57 227.16 51.32 C 230.96 51.17 234.81 51.32 238.56 50.46 C 239.06 50.52 240.06 50.63 240.56 50.69 C 243.36 52.35 246.76 52.58 249.92 52.16 C 252.62 51.48 252.60 48.23 252.87 46.03 C 253.38 38.00 254.37 30.02 254.91 22.00 C 255.14 20.17 254.82 17.88 252.79 17.25 C 247.00 15.87 240.98 16.23 235.10 15.52 C 232.00 15.43 228.64 14.43 225.76 16.00 C 225.20 14.76 225.19 12.89 223.65 12.38 C 221.62 11.58 219.62 13.92 220.32 15.87 C 219.07 14.88 217.68 14.00 216.03 14.02 C 208.64 13.40 201.22 13.06 193.85 12.26 C 191.86 11.84 189.67 13.28 189.56 15.37 M 37.09 36.03 C 30.98 42.53 31.96 52.52 26.55 59.45 C 24.09 62.97 20.33 65.19 16.48 66.90 C 16.62 70.34 18.25 73.37 20.50 75.89 C 21.88 73.48 23.27 71.06 24.98 68.87 C 23.95 71.64 22.88 74.40 22.23 77.30 C 24.54 78.25 26.95 78.91 29.37 79.53 C 30.66 76.00 32.30 72.58 34.91 69.83 C 33.98 71.81 33.07 73.81 32.48 75.92 C 32.01 76.95 32.07 77.93 32.67 78.84 C 33.86 79.35 35.15 78.71 36.33 78.47 C 40.41 77.56 44.03 75.36 46.89 72.35 C 47.57 75.09 48.36 77.86 47.96 80.71 L 49.24 80.12 C 49.50 81.01 49.76 81.89 50.02 82.78 C 47.55 85.74 45.54 89.04 43.94 92.54 C 44.18 92.72 44.66 93.07 44.90 93.24 L 45.57 93.28 C 43.44 94.12 41.16 94.61 39.20 95.84 C 40.64 99.46 41.97 103.12 43.28 106.79 C 42.89 112.83 42.79 118.89 42.30 124.93 C 42.10 133.14 42.90 141.49 41.20 149.58 C 40.06 147.20 39.30 144.59 37.40 142.66 C 33.54 138.55 31.64 133.17 29.64 128.02 C 23.43 133.45 24.22 142.74 26.97 149.75 C 19.76 148.86 13.05 146.00 7.13 141.87 C 6.27 148.98 11.40 155.39 17.40 158.53 C 24.94 162.00 33.30 162.75 41.49 162.86 C 47.96 161.70 54.46 165.19 60.74 162.55 C 68.44 163.26 76.20 163.20 83.92 163.01 C 78.88 162.80 73.84 162.96 68.80 162.90 C 68.07 160.40 65.52 159.39 63.62 157.94 C 63.51 157.38 63.29 156.26 63.18 155.70 C 63.33 153.38 63.52 151.07 63.72 148.76 C 64.16 148.78 65.05 148.83 65.50 148.85 C 66.16 139.55 68.08 130.35 67.85 120.98 C 68.72 119.53 69.52 117.84 71.31 117.40 C 76.93 115.43 82.50 113.27 88.22 111.59 L 88.07 113.41 C 91.43 113.52 94.78 113.43 98.13 113.18 C 98.24 111.22 98.33 109.27 98.41 107.32 C 101.52 106.61 104.75 106.01 107.51 104.30 C 107.41 102.95 106.97 101.65 106.54 100.38 C 103.37 91.97 100.74 83.38 97.67 74.93 C 94.21 75.87 90.85 77.13 87.49 78.37 C 83.13 75.97 79.09 73.07 75.12 70.08 L 75.39 69.39 C 71.22 68.01 67.36 64.86 66.32 60.44 C 64.02 56.41 58.96 55.00 56.40 51.14 C 54.19 51.21 52.00 51.49 49.83 51.89 C 49.92 51.31 50.12 50.14 50.21 49.56 C 52.96 49.44 56.19 49.53 57.99 47.05 C 60.22 44.89 59.74 41.69 59.21 38.95 C 60.13 37.58 61.28 35.78 59.93 34.25 C 57.81 30.81 52.91 30.96 49.97 33.23 C 45.67 30.72 40.01 32.06 37.09 36.03 M 128.39 53.56 C 121.32 55.40 116.24 62.75 117.17 70.03 C 117.65 78.70 126.61 85.57 135.12 83.84 C 143.57 82.67 149.74 73.58 147.70 65.29 C 146.13 56.83 136.66 50.92 128.39 53.56 Z" />
<path fill="#ffffff" opacity="1.00" d=" M 191.75 23.63 C 193.05 19.84 197.66 20.10 200.88 20.35 C 215.25 21.65 229.63 22.66 244.01 23.83 C 246.77 24.08 250.36 24.60 251.32 27.70 C 252.94 32.97 249.12 37.69 246.55 41.91 C 246.18 40.84 245.83 39.77 245.45 38.71 C 242.73 36.40 238.85 35.76 235.59 37.30 C 235.19 40.25 235.22 43.25 234.64 46.18 C 230.72 45.55 226.76 45.39 222.80 45.54 C 220.92 45.37 219.03 45.33 217.17 45.06 C 210.51 43.78 203.71 43.72 196.99 43.00 C 193.77 42.88 190.21 40.54 190.43 37.00 C 190.39 32.52 190.58 27.96 191.75 23.63 M 208.38 30.04 C 207.50 32.51 210.19 32.98 211.84 33.76 C 209.33 38.38 213.94 42.72 218.04 44.16 C 223.18 43.92 228.42 39.67 227.39 34.11 C 227.23 29.52 222.89 27.22 219.18 25.70 C 215.63 27.30 210.47 26.05 208.38 30.04 M 196.26 28.76 C 200.17 29.22 204.34 30.60 208.16 28.98 C 205.85 28.19 203.43 27.68 200.98 27.59 C 199.34 27.56 197.32 27.09 196.26 28.76 M 227.31 29.98 C 227.60 30.36 228.19 31.12 228.48 31.50 C 234.33 32.59 240.37 32.58 246.31 32.94 C 246.10 32.52 245.70 31.69 245.49 31.27 C 239.48 30.43 233.38 30.06 227.31 29.98 Z" />
<path fill="#ffffff" opacity="1.00" d=" M 190.62 59.61 C 196.20 57.92 202.46 61.48 207.72 58.27 C 207.55 60.63 207.84 62.98 208.28 65.30 C 205.08 72.22 199.27 77.25 193.73 82.26 C 191.20 81.39 187.84 80.91 186.86 77.99 C 185.97 74.40 186.64 70.64 186.91 67.01 C 187.17 64.25 187.63 60.75 190.62 59.61 Z" />
<path fill="#ffffff" opacity="1.00" d=" M 129.94 65.90 C 130.16 64.03 130.04 60.52 132.93 61.18 C 135.26 61.17 134.71 64.36 135.18 65.90 C 137.04 66.19 140.63 66.05 139.88 68.95 C 139.90 71.29 136.66 70.65 135.12 71.06 C 134.66 72.61 135.38 75.94 132.93 75.84 C 129.95 76.61 130.22 72.93 129.94 71.06 C 128.34 70.66 125.32 71.30 125.17 68.94 C 124.49 66.02 128.07 66.18 129.94 65.90 Z" />
<path fill="#ffffff" opacity="1.00" d=" M 232.93 61.86 C 236.58 62.24 240.28 62.33 243.86 63.23 C 246.76 63.93 248.18 67.23 247.77 69.99 C 247.28 75.14 243.50 79.06 239.97 82.48 C 239.26 78.82 238.63 75.14 237.93 71.47 C 239.21 71.34 240.50 71.21 241.79 71.08 L 241.96 70.73 C 240.64 70.65 239.32 70.57 238.00 70.50 C 236.21 68.41 234.40 66.33 232.57 64.28 C 232.66 63.68 232.84 62.47 232.93 61.86 Z" />
<path fill="#ffffff" opacity="1.00" d=" M 66.05 70.26 C 68.35 71.70 70.61 73.20 72.74 74.89 C 72.87 74.78 73.12 74.54 73.25 74.43 C 76.55 76.06 79.67 78.02 82.77 80.01 C 79.01 81.32 75.23 82.61 71.60 84.27 C 73.57 85.97 75.98 84.69 78.16 84.33 C 87.33 81.69 97.89 86.44 102.11 94.97 C 103.13 97.10 104.46 99.78 103.12 102.06 C 101.76 103.56 100.02 104.66 98.46 105.93 C 98.18 104.09 97.83 102.26 97.49 100.42 C 94.27 99.54 90.72 99.14 87.75 101.01 C 87.69 103.66 88.24 106.28 88.35 108.92 C 77.46 112.34 66.93 116.80 56.05 120.20 C 53.19 121.41 50.11 119.60 49.17 116.77 C 47.07 111.29 44.75 105.77 43.72 99.97 C 43.45 95.57 48.38 94.42 51.60 93.19 C 53.51 93.82 55.45 93.88 56.89 92.28 C 56.61 91.63 56.05 90.32 55.77 89.67 C 58.79 88.52 61.83 87.44 64.87 86.35 C 64.61 85.11 64.34 83.87 64.12 82.62 C 64.20 79.87 64.52 77.13 65.00 74.42 C 65.28 74.36 65.83 74.23 66.11 74.16 C 66.09 73.19 66.06 71.24 66.05 70.26 M 67.54 83.65 C 65.69 84.40 65.61 87.70 67.67 88.26 C 68.96 88.96 70.35 87.99 70.96 86.86 C 72.33 85.04 69.24 82.45 67.54 83.65 M 77.57 93.54 C 73.72 95.03 69.59 95.83 65.97 97.85 C 65.97 98.39 65.96 99.47 65.96 100.01 C 74.14 97.24 82.20 94.17 90.39 91.44 C 91.81 91.10 92.84 90.13 93.33 88.76 C 87.80 89.30 82.80 91.88 77.57 93.54 M 93.34 94.49 C 85.61 96.94 78.03 99.89 70.33 102.46 C 69.35 103.15 66.76 103.27 67.84 105.12 C 69.31 105.26 70.74 104.76 72.12 104.32 C 78.33 102.11 84.50 99.75 90.76 97.68 C 92.35 97.07 94.25 96.70 95.19 95.11 C 94.72 94.95 93.80 94.64 93.34 94.49 M 49.81 103.97 C 49.80 106.24 50.39 108.55 51.34 110.60 C 55.43 112.96 62.47 112.27 63.09 106.51 C 64.72 105.73 62.86 104.41 61.82 104.12 C 62.19 103.58 62.94 102.49 63.31 101.95 C 61.60 100.16 59.72 98.00 56.98 98.21 C 53.51 97.82 50.56 100.79 49.81 103.97 Z" />
<path fill="#ffffff" opacity="1.00" d=" M 230.72 74.00 C 232.39 77.00 233.79 80.15 234.70 83.46 C 233.20 84.13 231.65 84.71 230.12 85.29 C 229.81 84.18 229.52 83.07 229.23 81.96 C 229.08 81.40 228.79 80.26 228.65 79.70 C 229.20 78.97 229.76 78.24 230.33 77.51 C 230.43 76.64 230.62 74.88 230.72 74.00 Z" />
<path fill="#ffffff" opacity="1.00" d=" M 215.18 106.10 C 215.22 106.21 215.30 106.43 215.34 106.53 C 215.19 112.56 215.52 118.58 215.78 124.59 C 215.80 132.80 216.87 140.99 216.43 149.21 C 215.59 152.11 216.81 154.55 218.96 156.43 C 215.85 157.95 212.29 159.24 210.82 162.68 C 209.67 162.64 208.53 162.60 207.39 162.56 C 207.03 161.03 207.17 159.29 206.06 158.05 C 206.04 156.33 205.97 154.61 205.92 152.90 L 207.18 152.86 C 206.82 145.37 206.57 137.87 206.24 130.38 C 206.60 130.07 207.34 129.46 207.70 129.15 C 206.77 120.67 212.02 113.52 215.18 106.10 Z" />
<path fill="#ffffff" opacity="1.00" d=" M 52.86 123.81 C 54.45 123.22 56.05 122.66 57.66 122.12 C 57.74 127.76 57.83 133.41 58.36 139.04 C 58.43 142.23 59.43 145.80 57.27 148.56 C 57.96 148.57 59.32 148.60 60.00 148.61 C 59.85 151.04 59.76 153.49 59.26 155.89 C 59.18 156.13 59.03 156.60 58.96 156.84 C 58.55 158.71 58.37 160.62 58.13 162.52 C 55.76 162.38 53.38 162.33 51.00 162.24 L 52.01 161.42 C 50.33 160.26 48.65 159.13 47.04 157.88 C 46.92 157.34 46.68 156.26 46.55 155.72 C 46.56 153.83 46.87 151.95 47.35 150.13 C 47.51 149.91 47.84 149.46 48.00 149.23 C 49.68 140.77 51.15 132.26 52.86 123.81 Z" />
</g>
<g id="#e6e6e6ff">
<path fill="#e6e6e6" opacity="1.00" d=" M 189.56 15.37 C 189.67 13.28 191.86 11.84 193.85 12.26 C 201.22 13.06 208.64 13.40 216.03 14.02 C 217.68 14.00 219.07 14.88 220.32 15.87 C 221.87 17.87 223.95 17.17 225.76 16.00 C 228.64 14.43 232.00 15.43 235.10 15.52 C 240.98 16.23 247.00 15.87 252.79 17.25 C 254.82 17.88 255.14 20.17 254.91 22.00 C 254.37 30.02 253.38 38.00 252.87 46.03 C 252.60 48.23 252.62 51.48 249.92 52.16 C 246.76 52.58 243.36 52.35 240.56 50.69 C 241.40 50.71 243.07 50.76 243.91 50.78 C 244.88 46.83 245.48 42.78 245.45 38.71 C 245.83 39.77 246.18 40.84 246.55 41.91 C 249.12 37.69 252.94 32.97 251.32 27.70 C 250.36 24.60 246.77 24.08 244.01 23.83 C 229.63 22.66 215.25 21.65 200.88 20.35 C 197.66 20.10 193.05 19.84 191.75 23.63 C 190.58 27.96 190.39 32.52 190.43 37.00 C 190.21 40.54 193.77 42.88 196.99 43.00 C 203.71 43.72 210.51 43.78 217.17 45.06 C 216.13 46.66 215.14 48.32 213.72 49.60 C 205.59 48.73 197.37 48.79 189.30 47.49 C 186.34 46.94 187.01 43.21 187.12 41.02 C 188.08 32.49 188.47 23.89 189.56 15.37 Z" />
<path fill="#e6e6e6" opacity="1.00" d=" M 185.55 54.30 C 185.73 52.13 187.84 50.73 189.93 51.16 C 196.36 51.68 202.88 51.71 209.20 53.07 C 208.57 54.76 208.11 56.51 207.72 58.27 C 202.46 61.48 196.20 57.92 190.62 59.61 C 187.63 60.75 187.17 64.25 186.91 67.01 C 186.64 70.64 185.97 74.40 186.86 77.99 C 187.84 80.91 191.20 81.39 193.73 82.26 C 192.26 83.65 190.83 85.08 189.32 86.43 C 187.52 87.32 185.13 86.53 183.56 85.39 C 182.78 83.12 183.29 80.68 183.39 78.34 C 184.18 70.34 184.70 62.30 185.55 54.30 Z" />
<path fill="#e6e6e6" opacity="1.00" d=" M 230.63 55.16 C 234.03 54.08 237.59 54.93 241.05 55.10 C 243.94 55.41 246.97 55.29 249.71 56.42 C 251.66 57.59 251.04 60.14 251.03 62.02 C 250.34 69.36 249.49 76.68 249.05 84.04 C 248.69 86.32 248.95 89.34 246.70 90.72 C 245.14 91.12 243.52 91.13 241.93 91.27 C 241.36 88.32 240.55 85.43 239.97 82.48 C 243.50 79.06 247.28 75.14 247.77 69.99 C 248.18 67.23 246.76 63.93 243.86 63.23 C 240.28 62.33 236.58 62.24 232.93 61.86 C 232.63 59.50 231.88 57.19 230.63 55.16 Z" />
<path fill="#e6e6e6" opacity="1.00" d=" M 87.49 78.37 C 90.85 77.13 94.21 75.87 97.67 74.93 C 100.74 83.38 103.37 91.97 106.54 100.38 C 106.97 101.65 107.41 102.95 107.51 104.30 C 104.75 106.01 101.52 106.61 98.41 107.32 C 98.42 106.98 98.45 106.28 98.46 105.93 C 100.02 104.66 101.76 103.56 103.12 102.06 C 104.46 99.78 103.13 97.10 102.11 94.97 C 97.89 86.44 87.33 81.69 78.16 84.33 C 75.98 84.69 73.57 85.97 71.60 84.27 C 75.23 82.61 79.01 81.32 82.77 80.01 C 84.34 79.46 85.92 78.92 87.49 78.37 Z" />
<path fill="#e6e6e6" opacity="1.00" d=" M 195.79 87.09 C 199.32 84.10 203.07 81.39 206.99 78.93 C 206.86 80.09 206.73 81.25 206.60 82.41 C 205.82 83.92 205.19 85.51 204.65 87.12 C 204.44 87.43 204.00 88.05 203.79 88.35 C 201.12 87.95 198.45 87.56 195.79 87.09 Z" />
<path fill="#e6e6e6" opacity="1.00" d=" M 229.23 81.96 C 229.52 83.07 229.81 84.18 230.12 85.29 C 231.65 84.71 233.20 84.13 234.70 83.46 C 235.41 85.88 236.05 88.33 236.76 90.75 C 234.63 90.43 232.50 90.11 230.38 89.77 C 229.79 88.33 229.68 86.39 227.90 85.92 C 228.92 84.83 229.30 83.44 229.23 81.96 Z" />
<path fill="#e6e6e6" opacity="1.00" d=" M 45.57 93.28 C 47.70 92.44 49.83 91.58 51.97 90.74 C 51.87 91.36 51.69 92.58 51.60 93.19 C 48.38 94.42 43.45 95.57 43.72 99.97 C 44.75 105.77 47.07 111.29 49.17 116.77 C 50.11 119.60 53.19 121.41 56.05 120.20 C 66.93 116.80 77.46 112.34 88.35 108.92 C 88.32 109.59 88.25 110.92 88.22 111.59 C 82.50 113.27 76.93 115.43 71.31 117.40 C 69.52 117.84 68.72 119.53 67.85 120.98 C 67.87 120.35 67.91 119.11 67.93 118.49 C 64.52 119.75 61.10 120.97 57.66 122.12 C 56.05 122.66 54.45 123.22 52.86 123.81 C 51.81 124.19 50.76 124.59 49.72 124.99 C 47.32 119.01 45.46 112.84 43.28 106.79 C 41.97 103.12 40.64 99.46 39.20 95.84 C 41.16 94.61 43.44 94.12 45.57 93.28 Z" />
</g>
<g id="#3c3a53ff">
<path fill="#3c3a53" opacity="1.00" d=" M 220.32 15.87 C 219.62 13.92 221.62 11.58 223.65 12.38 C 225.19 12.89 225.20 14.76 225.76 16.00 C 223.95 17.17 221.87 17.87 220.32 15.87 Z" />
<path fill="#3c3a53" opacity="1.00" d=" M 57.78 102.76 L 58.85 102.79 C 59.85 103.20 60.84 103.64 61.82 104.12 C 62.86 104.41 64.72 105.73 63.09 106.51 C 59.53 107.72 56.07 109.47 52.28 109.79 C 52.22 108.36 54.41 108.86 55.22 108.27 C 55.45 107.77 55.92 106.76 56.16 106.26 C 57.01 105.31 58.19 104.18 57.78 102.76 Z" />
</g>
<g id="#2f2e41ff">
<path fill="#2f2e41" opacity="1.00" d=" M 208.38 30.04 C 210.47 26.05 215.63 27.30 219.18 25.70 C 222.89 27.22 227.23 29.52 227.39 34.11 C 228.42 39.67 223.18 43.92 218.04 44.16 C 218.59 42.17 219.12 40.17 219.62 38.16 C 219.12 37.63 218.12 36.57 217.62 36.04 C 217.06 36.07 215.92 36.14 215.36 36.17 C 214.19 35.34 213.09 34.45 211.84 33.76 C 210.19 32.98 207.50 32.51 208.38 30.04 Z" />
<path fill="#2f2e41" opacity="1.00" d=" M 37.09 36.03 C 40.01 32.06 45.67 30.72 49.97 33.23 C 52.91 30.96 57.81 30.81 59.93 34.25 C 61.28 35.78 60.13 37.58 59.21 38.95 C 58.77 38.92 57.89 38.84 57.45 38.81 C 55.93 39.46 54.40 40.09 52.86 40.71 C 53.63 39.51 54.41 38.32 55.19 37.13 C 53.03 38.99 50.81 40.78 48.40 42.30 C 48.70 44.79 49.51 47.16 50.21 49.56 C 50.12 50.14 49.92 51.31 49.83 51.89 C 49.02 54.76 46.45 56.46 44.32 58.31 C 45.21 62.98 45.85 67.71 46.89 72.35 C 44.03 75.36 40.41 77.56 36.33 78.47 C 35.09 77.56 33.81 76.69 32.48 75.92 C 33.07 73.81 33.98 71.81 34.91 69.83 C 32.30 72.58 30.66 76.00 29.37 79.53 C 26.95 78.91 24.54 78.25 22.23 77.30 C 22.88 74.40 23.95 71.64 24.98 68.87 C 23.27 71.06 21.88 73.48 20.50 75.89 C 18.25 73.37 16.62 70.34 16.48 66.90 C 20.33 65.19 24.09 62.97 26.55 59.45 C 31.96 52.52 30.98 42.53 37.09 36.03 Z" />
<path fill="#2f2e41" opacity="1.00" d=" M 202.16 95.36 C 210.91 97.74 220.03 94.62 228.80 97.09 C 228.41 104.74 226.88 112.30 226.79 119.98 C 226.79 128.24 225.66 136.43 225.15 144.67 C 224.83 147.59 224.65 150.52 224.17 153.43 L 223.87 154.25 C 222.06 154.10 220.24 153.94 218.44 153.70 C 216.88 152.74 216.86 150.79 216.43 149.21 C 216.87 140.99 215.80 132.80 215.78 124.59 C 217.80 118.83 218.12 112.10 215.34 106.53 C 215.30 106.43 215.22 106.21 215.18 106.10 C 212.02 113.52 206.77 120.67 207.70 129.15 C 207.34 129.46 206.60 130.07 206.24 130.38 C 206.57 137.87 206.82 145.37 207.18 152.86 L 205.92 152.90 C 204.31 152.92 202.70 152.90 201.10 152.89 C 200.70 152.88 199.90 152.88 199.50 152.87 C 199.36 150.19 198.80 147.50 199.04 144.82 C 200.23 141.36 200.24 137.71 199.80 134.12 C 199.42 134.30 198.67 134.64 198.30 134.81 L 197.95 134.97 C 197.80 128.62 196.16 122.23 197.47 115.91 C 198.37 110.29 199.27 104.67 199.98 99.02 C 200.72 97.81 201.46 96.60 202.16 95.36 Z" />
<path fill="#2f2e41" opacity="1.00" d=" M 43.28 106.79 C 45.46 112.84 47.32 119.01 49.72 124.99 C 50.76 124.59 51.81 124.19 52.86 123.81 C 51.15 132.26 49.68 140.77 48.00 149.23 C 47.84 149.46 47.51 149.91 47.35 150.13 C 46.04 150.04 44.73 149.95 43.42 149.84 C 42.86 149.77 41.75 149.65 41.20 149.58 C 42.90 141.49 42.10 133.14 42.30 124.93 C 42.79 118.89 42.89 112.83 43.28 106.79 Z" />
<path fill="#2f2e41" opacity="1.00" d=" M 57.66 122.12 C 61.10 120.97 64.52 119.75 67.93 118.49 C 67.91 119.11 67.87 120.35 67.85 120.98 C 68.08 130.35 66.16 139.55 65.50 148.85 C 65.05 148.83 64.16 148.78 63.72 148.76 C 62.48 148.70 61.24 148.65 60.00 148.61 C 59.32 148.60 57.96 148.57 57.27 148.56 C 59.43 145.80 58.43 142.23 58.36 139.04 C 57.83 133.41 57.74 127.76 57.66 122.12 Z" />
<path fill="#2f2e41" opacity="1.00" d=" M 210.82 162.68 C 212.29 159.24 215.85 157.95 218.96 156.43 C 220.11 156.98 221.27 157.51 222.41 158.08 C 223.04 159.61 223.57 161.18 224.01 162.79 C 219.61 162.88 215.21 162.88 210.82 162.68 Z" />
</g>
<g id="#e7e7e7ff">
<path fill="#e7e7e7" opacity="1.00" d=" M 196.26 28.76 C 197.32 27.09 199.34 27.56 200.98 27.59 C 203.43 27.68 205.85 28.19 208.16 28.98 C 204.34 30.60 200.17 29.22 196.26 28.76 Z" />
<path fill="#e7e7e7" opacity="1.00" d=" M 77.57 93.54 C 82.80 91.88 87.80 89.30 93.33 88.76 C 92.84 90.13 91.81 91.10 90.39 91.44 C 82.20 94.17 74.14 97.24 65.96 100.01 C 65.96 99.47 65.97 98.39 65.97 97.85 C 69.59 95.83 73.72 95.03 77.57 93.54 Z" />
<path fill="#e7e7e7" opacity="1.00" d=" M 93.34 94.49 C 93.80 94.64 94.72 94.95 95.19 95.11 C 94.25 96.70 92.35 97.07 90.76 97.68 C 84.50 99.75 78.33 102.11 72.12 104.32 C 70.74 104.76 69.31 105.26 67.84 105.12 C 66.76 103.27 69.35 103.15 70.33 102.46 C 78.03 99.89 85.61 96.94 93.34 94.49 Z" />
</g>
<g id="#e9e9e9ff">
<path fill="#e9e9e9" opacity="1.00" d=" M 227.31 29.98 C 233.38 30.06 239.48 30.43 245.49 31.27 C 245.70 31.69 246.10 32.52 246.31 32.94 C 240.37 32.58 234.33 32.59 228.48 31.50 C 228.19 31.12 227.60 30.36 227.31 29.98 Z" />
</g>
<g id="#ffb8b8ff">
<path fill="#ffb8b8" opacity="1.00" d=" M 211.84 33.76 C 213.09 34.45 214.19 35.34 215.36 36.17 C 215.92 36.14 217.06 36.07 217.62 36.04 C 218.12 36.57 219.12 37.63 219.62 38.16 C 219.12 40.17 218.59 42.17 218.04 44.16 C 213.94 42.72 209.33 38.38 211.84 33.76 Z" />
<path fill="#ffb8b8" opacity="1.00" d=" M 208.28 65.30 C 210.78 65.95 213.26 66.70 215.72 67.48 C 213.32 71.64 211.52 76.58 206.99 78.93 C 203.07 81.39 199.32 84.10 195.79 87.09 C 194.73 87.80 193.67 89.16 192.24 88.71 C 191.22 88.00 190.25 87.25 189.32 86.43 C 190.83 85.08 192.26 83.65 193.73 82.26 C 199.27 77.25 205.08 72.22 208.28 65.30 Z" />
<path fill="#ffb8b8" opacity="1.00" d=" M 232.57 64.28 C 234.40 66.33 236.21 68.41 238.00 70.50 C 239.32 70.57 240.64 70.65 241.96 70.73 L 241.79 71.08 C 240.50 71.21 239.21 71.34 237.93 71.47 C 238.63 75.14 239.26 78.82 239.97 82.48 C 240.55 85.43 241.36 88.32 241.93 91.27 C 242.24 94.83 236.32 94.40 236.76 90.75 C 236.05 88.33 235.41 85.88 234.70 83.46 C 233.79 80.15 232.39 77.00 230.72 74.00 C 231.07 70.71 231.86 67.50 232.57 64.28 Z" />
</g>
<g id="#ffb6b6ff">
<path fill="#ffb6b6" opacity="1.00" d=" M 48.40 42.30 C 50.81 40.78 53.03 38.99 55.19 37.13 C 54.41 38.32 53.63 39.51 52.86 40.71 C 54.40 40.09 55.93 39.46 57.45 38.81 C 57.89 38.84 58.77 38.92 59.21 38.95 C 59.74 41.69 60.22 44.89 57.99 47.05 C 56.19 49.53 52.96 49.44 50.21 49.56 C 49.51 47.16 48.70 44.79 48.40 42.30 Z" />
<path fill="#ffb6b6" opacity="1.00" d=" M 75.12 70.08 C 79.09 73.07 83.13 75.97 87.49 78.37 C 85.92 78.92 84.34 79.46 82.77 80.01 C 79.67 78.02 76.55 76.06 73.25 74.43 C 73.93 73.00 74.53 71.54 75.12 70.08 Z" />
<path fill="#ffb6b6" opacity="1.00" d=" M 54.80 75.88 C 58.19 75.31 61.61 74.99 65.00 74.42 C 64.52 77.13 64.20 79.87 64.12 82.62 C 60.75 82.59 57.38 82.58 54.01 82.59 C 54.55 84.96 55.02 87.35 55.77 89.67 C 56.05 90.32 56.61 91.63 56.89 92.28 C 55.45 93.88 53.51 93.82 51.60 93.19 C 51.69 92.58 51.87 91.36 51.97 90.74 C 51.51 88.05 50.75 85.41 50.02 82.78 C 49.76 81.89 49.50 81.01 49.24 80.12 C 51.44 79.22 53.53 77.98 54.80 75.88 Z" />
</g>
<g id="#6a61ffff">
<path fill="#6a61ff" opacity="1.00" d=" M 235.59 37.30 C 238.85 35.76 242.73 36.40 245.45 38.71 C 245.48 42.78 244.88 46.83 243.91 50.78 C 243.07 50.76 241.40 50.71 240.56 50.69 C 240.06 50.63 239.06 50.52 238.56 50.46 C 237.00 50.12 235.46 49.72 233.92 49.33 C 234.10 48.54 234.46 46.97 234.64 46.18 C 235.22 43.25 235.19 40.25 235.59 37.30 M 237.87 42.07 C 238.98 43.58 241.99 43.21 243.74 42.80 C 242.50 41.52 239.60 41.48 237.87 42.07 M 237.00 43.52 L 237.00 44.88 C 239.16 45.27 241.31 45.68 243.49 45.94 C 243.65 45.27 243.96 43.95 244.12 43.28 C 241.74 43.37 239.37 43.45 237.00 43.52 Z" />
</g>
<g id="#e3e1ffff">
<path fill="#e3e1ff" opacity="1.00" d=" M 237.87 42.07 C 239.60 41.48 242.50 41.52 243.74 42.80 C 241.99 43.21 238.98 43.58 237.87 42.07 Z" />
</g>
<g id="#cdcaffff">
<path fill="#cdcaff" opacity="1.00" d=" M 237.00 43.52 C 239.37 43.45 241.74 43.37 244.12 43.28 C 243.96 43.95 243.65 45.27 243.49 45.94 C 241.31 45.68 239.16 45.27 237.00 44.88 L 237.00 43.52 Z" />
</g>
<g id="#3f3d56ff">
<path fill="#3f3d56" opacity="1.00" d=" M 217.17 45.06 C 219.03 45.33 220.92 45.37 222.80 45.54 C 224.15 47.53 225.47 49.58 227.16 51.32 C 228.34 52.57 229.56 53.80 230.63 55.16 C 231.88 57.19 232.63 59.50 232.93 61.86 C 232.84 62.47 232.66 63.68 232.57 64.28 C 231.86 67.50 231.07 70.71 230.72 74.00 C 230.62 74.88 230.43 76.64 230.33 77.51 C 229.76 78.24 229.20 78.97 228.65 79.70 C 228.79 80.26 229.08 81.40 229.23 81.96 C 229.30 83.44 228.92 84.83 227.90 85.92 C 228.58 89.57 230.81 93.47 228.80 97.09 C 220.03 94.62 210.91 97.74 202.16 95.36 L 200.62 95.05 C 201.79 92.87 202.93 90.67 203.79 88.35 C 204.00 88.05 204.44 87.43 204.65 87.12 C 205.19 85.51 205.82 83.92 206.60 82.41 C 206.73 81.25 206.86 80.09 206.99 78.93 C 211.52 76.58 213.32 71.64 215.72 67.48 C 213.26 66.70 210.78 65.95 208.28 65.30 C 207.84 62.98 207.55 60.63 207.72 58.27 C 208.11 56.51 208.57 54.76 209.20 53.07 C 210.39 51.55 212.14 50.66 213.72 49.60 C 215.14 48.32 216.13 46.66 217.17 45.06 Z" />
</g>
<g id="#e6e6e5ff">
<path fill="#e6e6e5" opacity="1.00" d=" M 222.80 45.54 C 226.76 45.39 230.72 45.55 234.64 46.18 C 234.46 46.97 234.10 48.54 233.92 49.33 C 235.46 49.72 237.00 50.12 238.56 50.46 C 234.81 51.32 230.96 51.17 227.16 51.32 C 225.47 49.58 224.15 47.53 222.80 45.54 Z" />
</g>
<g id="#6c63ffff">
<path fill="#6c63ff" opacity="1.00" d=" M 49.83 51.89 C 52.00 51.49 54.19 51.21 56.40 51.14 C 58.96 55.00 64.02 56.41 66.32 60.44 C 67.36 64.86 71.22 68.01 75.39 69.39 L 75.12 70.08 C 74.53 71.54 73.93 73.00 73.25 74.43 C 73.12 74.54 72.87 74.78 72.74 74.89 C 70.61 73.20 68.35 71.70 66.05 70.26 C 66.06 71.24 66.09 73.19 66.11 74.16 C 65.83 74.23 65.28 74.36 65.00 74.42 C 61.61 74.99 58.19 75.31 54.80 75.88 C 53.53 77.98 51.44 79.22 49.24 80.12 L 47.96 80.71 C 48.36 77.86 47.57 75.09 46.89 72.35 C 45.85 67.71 45.21 62.98 44.32 58.31 C 46.45 56.46 49.02 54.76 49.83 51.89 Z" />
<path fill="#6c63ff" opacity="1.00" d=" M 128.39 53.56 C 136.66 50.92 146.13 56.83 147.70 65.29 C 149.74 73.58 143.57 82.67 135.12 83.84 C 126.61 85.57 117.65 78.70 117.17 70.03 C 116.24 62.75 121.32 55.40 128.39 53.56 M 129.94 65.90 C 128.07 66.18 124.49 66.02 125.17 68.94 C 125.32 71.30 128.34 70.66 129.94 71.06 C 130.22 72.93 129.95 76.61 132.93 75.84 C 135.38 75.94 134.66 72.61 135.12 71.06 C 136.66 70.65 139.90 71.29 139.88 68.95 C 140.63 66.05 137.04 66.19 135.18 65.90 C 134.71 64.36 135.26 61.17 132.93 61.18 C 130.04 60.52 130.16 64.03 129.94 65.90 Z" />
</g>
<g id="#19182dff">
<path fill="#19182d" opacity="1.00" d=" M 32.48 75.92 C 33.81 76.69 35.09 77.56 36.33 78.47 C 35.15 78.71 33.86 79.35 32.67 78.84 C 32.07 77.93 32.01 76.95 32.48 75.92 Z" />
</g>
<g id="#2d2c3fff">
<path fill="#2d2c3f" opacity="1.00" d=" M 43.94 92.54 C 45.54 89.04 47.55 85.74 50.02 82.78 C 50.75 85.41 51.51 88.05 51.97 90.74 C 49.83 91.58 47.70 92.44 45.57 93.28 L 44.90 93.24 C 44.66 93.07 44.18 92.72 43.94 92.54 Z" />
</g>
<g id="#2c2c3fff">
<path fill="#2c2c3f" opacity="1.00" d=" M 54.01 82.59 C 57.38 82.58 60.75 82.59 64.12 82.62 C 64.34 83.87 64.61 85.11 64.87 86.35 C 61.83 87.44 58.79 88.52 55.77 89.67 C 55.02 87.35 54.55 84.96 54.01 82.59 Z" />
</g>
<g id="#302e49ff">
<path fill="#302e49" opacity="1.00" d=" M 67.54 83.65 C 69.24 82.45 72.33 85.04 70.96 86.86 C 70.35 87.99 68.96 88.96 67.67 88.26 C 65.61 87.70 65.69 84.40 67.54 83.65 Z" />
</g>
<g id="#e4e4e4ff">
<path fill="#e4e4e4" opacity="1.00" d=" M 49.81 103.97 C 50.56 100.79 53.51 97.82 56.98 98.21 C 59.72 98.00 61.60 100.16 63.31 101.95 C 62.94 102.49 62.19 103.58 61.82 104.12 C 60.84 103.64 59.85 103.20 58.85 102.79 L 57.78 102.76 C 55.89 102.49 55.77 104.98 56.16 106.26 C 55.92 106.76 55.45 107.77 55.22 108.27 C 54.41 108.86 52.22 108.36 52.28 109.79 C 56.07 109.47 59.53 107.72 63.09 106.51 C 62.47 112.27 55.43 112.96 51.34 110.60 C 50.39 108.55 49.80 106.24 49.81 103.97 Z" />
</g>
<g id="#6960ffff">
<path fill="#6960ff" opacity="1.00" d=" M 87.75 101.01 C 90.72 99.14 94.27 99.54 97.49 100.42 C 97.83 102.26 98.18 104.09 98.46 105.93 C 98.45 106.28 98.42 106.98 98.41 107.32 C 98.33 109.27 98.24 111.22 98.13 113.18 C 94.78 113.43 91.43 113.52 88.07 113.41 L 88.22 111.59 C 88.25 110.92 88.32 109.59 88.35 108.92 C 88.24 106.28 87.69 103.66 87.75 101.01 M 90.39 105.54 C 91.43 107.01 95.58 106.67 96.68 105.30 C 94.69 104.76 92.31 104.76 90.39 105.54 M 90.97 107.88 C 92.63 108.38 95.72 108.76 96.72 107.24 C 95.04 106.66 92.15 106.60 90.97 107.88 Z" />
</g>
<g id="#de7b92ff">
<path fill="#de7b92" opacity="1.00" d=" M 56.16 106.26 C 55.77 104.98 55.89 102.49 57.78 102.76 C 58.19 104.18 57.01 105.31 56.16 106.26 Z" />
</g>
<g id="#e6e5ffff">
<path fill="#e6e5ff" opacity="1.00" d=" M 90.39 105.54 C 92.31 104.76 94.69 104.76 96.68 105.30 C 95.58 106.67 91.43 107.01 90.39 105.54 Z" />
</g>
<g id="#eae8ffff">
<path fill="#eae8ff" opacity="1.00" d=" M 90.97 107.88 C 92.15 106.60 95.04 106.66 96.72 107.24 C 95.72 108.76 92.63 108.38 90.97 107.88 Z" />
</g>
<g id="#1c1a2fff">
<path fill="#1c1a2f" opacity="1.00" d=" M 215.34 106.53 C 218.12 112.10 217.80 118.83 215.78 124.59 C 215.52 118.58 215.19 112.56 215.34 106.53 Z" />
</g>
<g id="#f2f2f2ff">
<path fill="#f2f2f2" opacity="1.00" d=" M 26.97 149.75 C 24.22 142.74 23.43 133.45 29.64 128.02 C 31.64 133.17 33.54 138.55 37.40 142.66 C 39.30 144.59 40.06 147.20 41.20 149.58 C 41.75 149.65 42.86 149.77 43.42 149.84 C 43.16 151.89 42.89 153.94 42.54 155.99 C 42.11 158.26 41.80 160.56 41.49 162.86 C 33.30 162.75 24.94 162.00 17.40 158.53 C 11.40 155.39 6.27 148.98 7.13 141.87 C 13.05 146.00 19.76 148.86 26.97 149.75 Z" />
<path fill="#f2f2f2" opacity="1.00" d=" M 227.25 139.15 C 228.44 135.47 230.48 132.14 232.03 128.61 C 236.87 133.19 236.01 140.52 233.99 146.22 C 234.25 146.39 234.79 146.71 235.06 146.88 C 240.57 146.33 245.61 143.80 250.25 140.94 C 251.47 145.61 248.19 149.99 244.71 152.73 C 238.89 157.34 231.09 157.61 224.00 158.00 L 222.41 158.08 C 222.88 156.79 223.39 155.52 223.87 154.25 L 224.17 153.43 C 224.65 150.52 224.83 147.59 225.15 144.67 C 225.69 145.79 226.24 146.91 226.80 148.03 C 226.93 145.07 226.80 142.08 227.25 139.15 Z" />
</g>
<g id="#1a192eff">
<path fill="#1a192e" opacity="1.00" d=" M 198.30 134.81 C 198.67 134.64 199.42 134.30 199.80 134.12 C 200.24 137.71 200.23 141.36 199.04 144.82 C 198.55 141.51 198.22 138.16 198.30 134.81 Z" />
</g>
<g id="#ffb4b4ff">
<path fill="#ffb4b4" opacity="1.00" d=" M 60.00 148.61 C 61.24 148.65 62.48 148.70 63.72 148.76 C 63.52 151.07 63.33 153.38 63.18 155.70 C 62.20 155.75 60.24 155.84 59.26 155.89 C 59.76 153.49 59.85 151.04 60.00 148.61 Z" />
</g>
<g id="#ffbbbbff">
<path fill="#ffbbbb" opacity="1.00" d=" M 216.43 149.21 C 216.86 150.79 216.88 152.74 218.44 153.70 C 220.24 153.94 222.06 154.10 223.87 154.25 C 223.39 155.52 222.88 156.79 222.41 158.08 C 221.27 157.51 220.11 156.98 218.96 156.43 C 216.81 154.55 215.59 152.11 216.43 149.21 Z" />
</g>
<g id="#ffb7b6ff">
<path fill="#ffb7b6" opacity="1.00" d=" M 43.42 149.84 C 44.73 149.95 46.04 150.04 47.35 150.13 C 46.87 151.95 46.56 153.83 46.55 155.72 C 45.21 155.80 43.88 155.88 42.54 155.99 C 42.89 153.94 43.16 151.89 43.42 149.84 Z" />
</g>
<g id="#ffbab9ff">
<path fill="#ffbab9" opacity="1.00" d=" M 201.10 152.89 C 202.70 152.90 204.31 152.92 205.92 152.90 C 205.97 154.61 206.04 156.33 206.06 158.05 C 204.55 157.73 203.10 157.21 201.67 156.67 C 201.50 155.41 201.30 154.14 201.10 152.89 Z" />
</g>
<g id="#28273aff">
<path fill="#28273a" opacity="1.00" d=" M 41.49 162.86 C 41.80 160.56 42.11 158.26 42.54 155.99 C 43.88 155.88 45.21 155.80 46.55 155.72 C 46.68 156.26 46.92 157.34 47.04 157.88 C 48.65 159.13 50.33 160.26 52.01 161.42 L 51.00 162.24 C 53.38 162.33 55.76 162.38 58.13 162.52 C 58.37 160.62 58.55 158.71 58.96 156.84 C 59.03 156.60 59.18 156.13 59.26 155.89 C 60.24 155.84 62.20 155.75 63.18 155.70 C 63.29 156.26 63.51 157.38 63.62 157.94 C 65.52 159.39 68.07 160.40 68.80 162.90 C 73.84 162.96 78.88 162.80 83.92 163.01 C 76.20 163.20 68.44 163.26 60.74 162.55 C 54.46 165.19 47.96 161.70 41.49 162.86 Z" />
</g>
<g id="#2e2d40ff">
<path fill="#2e2d40" opacity="1.00" d=" M 194.12 162.89 C 194.85 159.13 198.72 158.15 201.67 156.67 C 203.10 157.21 204.55 157.73 206.06 158.05 C 206.26 159.67 206.44 161.29 206.62 162.92 C 197.22 162.79 187.83 163.26 178.43 163.16 C 178.42 163.09 178.40 162.94 178.38 162.86 C 183.63 162.94 188.87 162.91 194.12 162.89 Z" />
</g>
<g id="#c6c6c9ff">
<path fill="#c6c6c9" opacity="1.00" d=" M 206.06 158.05 C 207.17 159.29 207.03 161.03 207.39 162.56 C 208.53 162.60 209.67 162.64 210.82 162.68 C 215.21 162.88 219.61 162.88 224.01 162.79 C 223.57 161.18 223.04 159.61 222.41 158.08 L 224.00 158.00 C 224.00 159.52 224.00 161.04 224.00 162.56 C 232.22 162.74 240.43 162.64 248.65 162.59 C 248.63 162.81 248.59 163.24 248.57 163.46 C 234.60 163.75 220.63 162.72 206.68 163.52 L 206.62 162.92 C 206.44 161.29 206.26 159.67 206.06 158.05 Z" />
</g>
</svg>
