<?xml version="1.0" encoding="UTF-8" ?>
<!DOCTYPE svg PUBLIC "-//W3C//DTD SVG 1.1//EN" "http://www.w3.org/Graphics/SVG/1.1/DTD/svg11.dtd">
<svg width="270pt" height="170pt" viewBox="0 0 270 170" version="1.1" xmlns="http://www.w3.org/2000/svg">
<g id="#ffffe9ff">
<path fill="#ffffe9" opacity="1.00" d=" M 0.00 0.00 L 270.00 0.00 L 270.00 138.62 C 180.00 138.62 90.00 138.62 0.00 138.62 L 0.00 0.00 M 135.47 41.51 C 135.33 45.51 135.35 49.51 135.38 53.50 C 128.76 54.68 122.02 54.11 115.34 54.34 C 115.41 57.38 115.43 60.43 115.44 63.47 C 121.67 63.61 127.89 63.34 134.11 63.62 C 135.59 66.18 135.46 69.17 135.42 72.02 C 135.29 73.86 135.78 76.09 133.96 77.27 C 126.82 77.85 119.62 76.94 112.50 77.69 C 112.34 80.64 112.41 83.59 112.41 86.54 C 117.52 88.06 122.89 87.19 128.12 87.46 C 124.30 95.32 118.41 101.81 112.34 107.97 C 112.85 110.77 114.37 113.24 115.49 115.83 C 129.14 115.85 142.77 115.47 156.41 115.53 C 157.46 117.15 158.50 118.77 159.55 120.39 C 162.63 118.52 165.74 116.69 168.93 115.01 C 164.73 106.54 158.85 99.03 153.01 91.64 C 150.01 92.95 147.08 94.42 144.19 95.94 C 145.82 98.84 147.59 101.67 149.40 104.47 C 142.77 107.24 135.51 106.38 128.52 106.35 C 131.63 100.70 136.20 96.07 139.56 90.60 C 140.76 89.05 141.86 86.66 144.13 86.67 C 152.55 86.44 161.00 86.92 169.42 86.45 C 169.16 83.53 170.67 79.70 168.16 77.53 C 160.63 77.20 153.08 77.68 145.55 77.27 C 145.52 72.71 145.53 68.15 145.59 63.60 C 152.17 63.43 158.76 63.58 165.34 63.48 C 165.35 60.42 165.36 57.36 165.34 54.30 C 158.71 54.10 152.01 54.74 145.45 53.45 C 145.50 49.84 145.72 46.21 145.42 42.61 C 142.83 40.32 138.69 42.02 135.47 41.51 M 32.49 42.41 C 32.49 46.36 32.52 50.30 32.42 54.25 C 25.51 54.29 18.61 54.19 11.70 54.32 C 11.97 57.36 10.86 60.85 12.74 63.51 C 19.29 63.57 25.84 63.49 32.38 63.49 C 32.44 68.00 32.69 72.53 32.35 77.04 C 32.04 77.37 31.41 78.05 31.10 78.39 C 23.17 78.54 15.24 78.38 7.30 78.43 C 6.48 81.43 6.51 84.56 6.95 87.62 C 15.46 88.06 24.09 86.85 32.51 88.42 C 32.50 98.76 32.38 109.10 32.58 119.44 C 36.24 119.42 39.89 119.41 43.55 119.48 C 43.93 109.15 43.66 98.82 43.71 88.49 C 46.75 87.78 49.88 87.53 53.01 87.64 C 58.53 87.79 64.14 87.17 69.56 88.53 C 69.14 92.76 70.52 98.60 66.27 101.27 C 61.83 103.04 56.95 101.98 52.31 102.34 C 53.46 105.91 52.29 111.08 56.11 113.22 C 61.09 113.42 66.37 114.11 71.11 112.16 C 76.61 110.46 80.58 104.82 80.51 99.11 C 80.64 92.21 80.70 85.31 80.64 78.41 C 77.23 78.47 73.82 78.47 70.42 78.24 C 70.34 71.81 70.38 65.34 71.79 59.03 C 73.51 60.14 75.24 61.24 76.96 62.36 C 78.53 60.48 80.25 58.73 81.74 56.77 C 82.43 56.02 83.22 54.68 82.27 53.79 C 78.80 50.57 74.69 48.14 70.93 45.29 C 69.14 44.24 67.52 42.38 65.30 42.44 C 62.95 43.91 60.99 45.97 59.32 48.16 C 60.42 50.53 62.94 51.75 64.83 53.39 C 57.87 54.63 50.68 54.63 43.69 53.62 C 43.75 49.88 43.73 46.15 43.72 42.41 C 39.98 42.40 36.23 42.41 32.49 42.41 M 222.38 42.40 C 222.31 49.28 222.43 56.15 222.35 63.03 C 222.41 64.58 221.80 66.03 221.03 67.34 C 214.15 67.70 207.24 67.37 200.35 67.51 C 200.33 70.56 200.33 73.62 200.30 76.68 C 205.71 76.83 211.20 76.29 216.53 77.58 C 212.42 82.11 208.03 86.38 203.40 90.36 C 201.45 92.08 199.05 93.07 196.61 93.87 C 196.18 85.42 196.47 76.95 196.43 68.49 C 190.48 68.32 184.52 68.35 178.57 68.43 C 178.55 71.73 178.55 75.03 178.56 78.33 C 180.91 78.66 183.23 79.14 185.56 79.59 C 185.46 86.47 185.49 93.35 185.52 100.24 C 182.76 102.51 180.16 104.96 177.57 107.42 C 179.22 111.50 180.77 115.62 182.05 119.83 C 185.22 117.06 187.57 113.39 191.09 111.03 C 193.67 111.62 195.49 113.72 197.79 114.90 C 202.46 117.27 207.80 117.77 212.96 117.60 C 226.11 117.43 239.30 117.89 252.43 117.38 C 254.50 114.44 255.08 110.80 256.50 107.55 C 242.66 107.65 228.82 107.56 214.98 107.57 C 209.18 107.61 202.84 106.87 198.54 102.56 C 196.10 100.90 195.14 96.63 198.18 95.13 C 201.63 95.65 202.89 100.59 206.15 101.47 C 213.02 98.07 216.52 90.67 222.24 85.83 C 222.47 92.07 222.29 98.32 222.39 104.57 C 225.47 104.59 228.55 104.59 231.62 104.60 C 232.95 99.11 232.06 93.43 232.45 87.86 C 237.24 91.24 241.47 95.30 245.67 99.36 C 246.57 100.46 248.04 100.61 249.35 100.41 C 251.68 98.39 253.38 95.77 254.91 93.12 C 248.94 88.55 242.89 84.09 237.07 79.35 C 235.56 80.31 234.03 81.24 232.51 82.18 C 232.39 80.58 232.30 78.98 232.21 77.38 C 239.60 76.18 247.11 76.93 254.55 76.73 C 254.53 73.64 254.53 70.55 254.52 67.46 C 247.70 67.39 240.86 67.68 234.05 67.37 C 233.65 67.17 232.87 66.77 232.47 66.56 C 231.87 58.53 233.02 50.42 231.84 42.43 C 228.69 42.40 225.53 42.40 222.38 42.40 M 180.38 48.00 C 183.53 52.48 186.45 57.12 189.69 61.52 C 193.59 62.62 196.43 58.79 199.55 57.16 C 196.38 52.19 192.71 47.58 189.13 42.90 C 186.12 44.45 183.27 46.26 180.38 48.00 M 93.92 50.82 C 98.49 54.07 102.84 57.61 107.14 61.20 C 109.64 58.70 112.06 56.09 113.85 53.03 C 109.24 49.84 105.04 46.04 100.02 43.47 C 97.94 45.89 95.79 48.24 93.92 50.82 M 201.47 50.73 C 203.80 55.91 207.48 60.34 210.69 64.99 C 213.52 63.54 216.15 61.75 218.77 59.97 C 216.37 55.06 212.75 50.94 209.75 46.42 C 206.80 47.46 203.99 48.89 201.47 50.73 M 235.19 59.39 C 237.40 61.64 239.82 63.68 242.07 65.91 C 245.87 61.30 249.62 56.64 252.94 51.67 C 250.63 49.38 247.81 47.75 244.89 46.36 C 241.98 50.93 238.73 55.28 235.19 59.39 M 97.13 65.19 C 94.68 66.62 93.00 69.05 91.05 71.06 C 95.09 74.61 99.32 77.97 102.92 81.98 C 106.35 80.82 108.76 77.89 110.69 74.96 C 108.28 71.43 104.54 69.16 101.32 66.45 C 100.21 65.37 98.63 65.08 97.13 65.19 M 101.73 86.08 C 100.32 92.32 98.18 98.36 96.27 104.46 C 95.18 107.97 92.96 111.38 93.51 115.20 C 96.65 116.51 99.89 117.57 103.11 118.67 C 106.20 108.75 109.20 98.80 112.29 88.87 C 108.82 87.77 105.46 86.11 101.73 86.08 Z" />
<path fill="#ffffe9" opacity="1.00" d=" M 44.50 78.43 C 43.44 73.49 43.48 68.40 44.50 63.46 C 49.51 63.60 54.54 63.31 59.54 63.79 C 59.19 68.61 60.74 74.43 57.02 78.31 C 52.85 78.62 48.67 78.38 44.50 78.43 Z" />
<path fill="#ffffe9" opacity="1.00" d=" M 103.43 143.37 C 104.84 143.35 106.25 143.33 107.67 143.31 C 107.93 144.75 108.19 146.19 108.43 147.64 C 110.17 147.70 111.93 147.59 113.64 147.93 C 114.93 148.87 116.08 149.97 117.29 151.00 C 117.28 154.50 117.29 158.01 117.34 161.52 C 115.74 161.55 114.15 161.58 112.55 161.60 C 112.54 157.84 112.54 154.09 112.56 150.33 C 111.13 150.31 109.71 150.30 108.29 150.28 C 108.25 154.03 108.28 157.78 108.21 161.53 C 106.62 161.56 105.03 161.59 103.44 161.61 C 103.45 155.53 103.45 149.45 103.43 143.37 Z" />
<path fill="#ffffe9" opacity="1.00" d=" M 138.61 143.33 C 140.59 143.32 142.56 143.33 144.54 143.33 C 144.61 143.86 144.75 144.93 144.81 145.46 C 143.15 145.56 141.49 145.68 139.84 145.80 C 140.59 146.85 141.35 147.89 142.12 148.93 C 138.85 152.31 140.77 157.34 140.26 161.54 C 138.65 161.56 137.05 161.58 135.45 161.60 C 134.99 157.53 136.96 152.51 133.70 149.30 C 133.10 153.36 133.33 157.47 133.30 161.56 C 129.74 161.60 126.17 161.62 122.61 161.61 C 121.58 160.52 120.53 159.47 119.45 158.44 C 119.47 154.79 119.45 151.14 119.53 147.50 C 121.14 147.78 123.24 147.32 124.17 149.05 C 124.42 152.47 124.22 155.91 124.30 159.34 C 125.71 159.34 127.13 159.33 128.54 159.33 C 128.57 155.47 128.54 151.62 128.62 147.76 C 130.60 147.71 132.60 147.81 134.58 147.54 C 136.04 146.26 137.31 144.78 138.61 143.33 Z" />
<path fill="#ffffe9" opacity="1.00" d=" M 183.44 143.38 C 184.90 143.34 186.37 143.31 187.84 143.29 C 187.83 143.88 187.80 145.06 187.79 145.65 C 186.38 145.62 184.98 145.59 183.58 145.57 C 183.54 145.02 183.47 143.92 183.44 143.38 Z" />
<path fill="#ffffe9" opacity="1.00" d=" M 12.64 154.23 C 11.12 152.27 11.80 149.80 12.27 147.60 C 13.32 147.64 15.41 147.73 16.46 147.77 C 16.47 150.07 16.48 152.38 16.50 154.69 C 16.94 154.68 17.81 154.67 18.25 154.67 C 18.56 151.77 20.26 149.45 22.06 147.28 C 23.93 149.38 25.93 151.53 25.92 154.53 C 26.34 154.59 27.19 154.72 27.62 154.78 C 27.74 152.62 27.59 150.42 28.13 148.30 C 29.55 147.93 30.98 147.63 32.43 147.40 C 32.30 149.71 33.08 152.34 31.63 154.38 C 30.01 156.43 30.35 159.09 30.18 161.54 C 28.83 161.57 27.49 161.61 26.14 161.65 C 24.31 159.37 23.04 156.74 22.00 154.02 C 21.20 157.79 19.14 162.27 14.58 161.95 C 14.35 159.29 14.26 156.49 12.64 154.23 Z" />
<path fill="#ffffe9" opacity="1.00" d=" M 34.66 149.05 C 35.44 147.04 37.55 147.65 39.22 147.77 C 39.47 150.08 39.42 152.40 39.47 154.72 C 39.91 154.70 40.80 154.65 41.24 154.62 C 41.29 151.65 43.21 149.46 45.02 147.31 C 46.83 149.41 48.80 151.52 48.86 154.46 C 49.29 154.57 50.14 154.78 50.57 154.88 C 50.92 152.46 49.89 149.48 51.88 147.60 C 52.73 147.64 54.42 147.73 55.27 147.78 C 56.57 152.89 52.44 156.96 52.42 162.00 C 47.99 162.03 45.97 157.74 45.03 154.04 C 44.12 156.69 42.99 159.26 41.34 161.54 C 40.07 161.59 38.80 161.64 37.52 161.70 C 37.81 157.12 34.07 153.56 34.66 149.05 Z" />
<path fill="#ffffe9" opacity="1.00" d=" M 57.75 147.79 C 58.60 147.74 60.29 147.64 61.13 147.59 C 63.12 149.43 62.09 152.38 62.43 154.77 C 62.86 154.73 63.73 154.64 64.16 154.60 C 64.16 151.60 66.15 149.44 67.99 147.32 C 69.81 149.45 71.72 151.64 71.77 154.61 C 72.22 154.64 73.10 154.69 73.54 154.72 C 73.59 152.40 73.55 150.08 73.80 147.77 C 75.47 147.65 77.53 147.07 78.43 148.99 C 78.96 153.52 75.25 157.06 75.53 161.64 C 74.37 161.64 73.22 161.64 72.06 161.65 C 70.10 159.47 68.85 156.86 68.01 154.07 C 67.05 156.70 65.88 159.24 64.24 161.52 C 62.98 161.58 61.72 161.64 60.46 161.70 C 60.57 156.75 56.43 152.80 57.75 147.79 Z" />
<path fill="#ffffe9" opacity="1.00" d=" M 87.09 154.13 C 87.09 151.33 88.83 149.18 91.15 147.80 C 93.33 147.57 95.56 147.53 97.73 147.86 C 98.77 149.16 101.72 150.28 101.01 152.12 C 100.26 152.29 98.76 152.62 98.01 152.78 C 96.54 151.12 94.71 150.02 92.46 149.89 C 92.42 150.43 92.32 151.50 92.27 152.04 C 95.63 152.85 98.61 154.66 101.82 155.87 C 100.87 157.87 99.71 159.74 98.52 161.60 C 95.81 161.61 93.10 161.61 90.40 161.60 C 89.21 160.15 87.98 158.73 86.83 157.25 C 89.80 156.61 92.35 157.87 94.47 159.87 C 95.30 159.21 96.13 158.55 96.93 157.84 C 93.63 156.63 90.49 155.02 87.09 154.13 Z" />
<path fill="#ffffe9" opacity="1.00" d=" M 144.01 151.21 C 146.19 149.76 148.01 147.08 150.98 147.64 C 153.36 147.33 154.64 149.76 156.07 151.24 C 156.48 154.66 156.20 158.11 156.23 161.54 C 153.33 161.59 150.43 161.61 147.53 161.63 C 146.39 160.09 145.23 158.56 144.12 157.00 C 145.11 155.67 146.13 154.35 147.15 153.04 C 146.09 152.44 145.05 151.83 144.01 151.21 M 147.49 149.53 C 147.40 150.32 147.23 151.92 147.15 152.71 C 148.90 152.49 150.64 152.27 152.39 152.01 C 150.94 150.84 149.20 150.19 147.49 149.53 M 148.95 155.27 C 149.24 156.87 149.53 158.47 149.94 160.05 C 151.31 158.84 151.54 157.04 151.93 155.36 C 151.18 155.34 149.69 155.29 148.95 155.27 Z" />
<path fill="#ffffe9" opacity="1.00" d=" M 158.46 147.71 C 164.31 147.72 170.16 147.63 176.01 147.71 C 178.35 147.48 179.65 149.81 181.37 150.97 C 181.35 154.50 181.36 158.03 181.36 161.56 C 179.78 161.57 178.19 161.57 176.61 161.56 C 176.61 157.82 176.61 154.08 176.63 150.33 C 175.18 150.32 173.75 150.31 172.31 150.30 C 172.30 154.05 172.32 157.80 172.27 161.55 C 170.67 161.57 169.07 161.58 167.47 161.59 C 167.50 157.96 167.61 154.33 167.49 150.70 C 166.13 150.37 164.74 150.22 163.37 150.02 C 163.24 153.89 163.30 157.77 162.73 161.61 C 161.29 161.60 159.85 161.60 158.41 161.59 C 158.41 156.96 158.39 152.34 158.46 147.71 Z" />
<path fill="#ffffe9" opacity="1.00" d=" M 183.59 147.54 C 185.16 147.83 187.12 147.51 188.25 148.92 C 188.47 153.12 188.27 157.34 188.23 161.55 C 186.66 161.57 185.09 161.59 183.53 161.60 C 183.57 156.91 183.51 152.22 183.59 147.54 Z" />
<path fill="#ffffe9" opacity="1.00" d=" M 197.55 150.71 C 199.50 148.19 202.48 146.93 205.63 147.80 C 207.02 149.20 208.15 150.84 209.30 152.44 C 206.42 153.05 204.03 151.53 201.79 149.96 C 201.66 153.23 201.72 156.52 202.36 159.74 C 203.54 158.65 204.71 157.54 205.89 156.44 C 206.73 156.77 208.41 157.43 209.25 157.76 C 208.01 159.01 206.78 160.29 205.59 161.60 C 203.91 161.61 202.24 161.62 200.56 161.63 C 199.51 160.54 198.44 159.47 197.35 158.44 C 197.38 155.86 197.17 153.26 197.55 150.71 Z" />
<path fill="#ffffe9" opacity="1.00" d=" M 211.32 151.37 C 213.25 146.18 221.57 146.28 224.48 150.64 C 224.92 153.23 224.67 155.87 224.70 158.48 C 223.62 159.50 222.56 160.54 221.53 161.62 C 218.68 161.23 214.98 162.77 212.89 160.21 C 210.13 158.15 211.37 154.31 211.32 151.37 M 215.56 150.40 C 215.60 153.46 215.60 156.52 215.70 159.58 C 217.14 159.49 218.53 159.22 219.89 158.78 C 220.74 156.06 220.18 153.13 220.26 150.32 C 218.69 150.34 217.12 150.36 215.56 150.40 Z" />
<path fill="#ffffe9" opacity="1.00" d=" M 227.30 147.71 C 233.79 147.82 240.30 147.42 246.77 147.88 C 251.62 150.82 250.31 156.90 249.77 161.61 C 248.31 161.60 246.86 161.60 245.41 161.60 C 245.41 157.83 245.42 154.07 245.40 150.31 C 243.83 150.33 242.27 150.35 240.71 150.38 C 240.71 154.12 240.72 157.86 240.70 161.60 C 239.24 161.60 237.79 161.61 236.33 161.61 C 236.31 157.86 236.32 154.11 236.32 150.37 C 234.75 150.35 233.19 150.33 231.63 150.33 C 231.62 154.08 231.63 157.84 231.62 161.60 C 230.16 161.60 228.71 161.60 227.26 161.61 C 227.23 156.97 227.20 152.34 227.30 147.71 Z" />
<path fill="#ffffe9" opacity="1.00" d=" M 80.49 157.22 C 82.08 157.23 83.66 157.25 85.25 157.29 C 85.27 158.71 85.27 160.13 85.28 161.55 C 83.68 161.56 82.08 161.58 80.48 161.59 C 80.49 160.13 80.49 158.67 80.49 157.22 Z" />
<path fill="#ffffe9" opacity="1.00" d=" M 190.42 157.19 C 192.00 157.23 193.57 157.27 195.15 157.33 C 194.99 158.76 194.82 160.20 194.67 161.63 C 193.26 161.61 191.86 161.59 190.46 161.57 C 190.44 160.11 190.43 158.65 190.42 157.19 Z" />
</g>
<g id="#ff0000ff">
<path fill="#ff0000" opacity="1.00" d=" M 135.47 41.51 C 138.69 42.02 142.83 40.32 145.42 42.61 C 145.72 46.21 145.50 49.84 145.45 53.45 C 152.01 54.74 158.71 54.10 165.34 54.30 C 165.36 57.36 165.35 60.42 165.34 63.48 C 158.76 63.58 152.17 63.43 145.59 63.60 C 145.53 68.15 145.52 72.71 145.55 77.27 C 153.08 77.68 160.63 77.20 168.16 77.53 C 170.67 79.70 169.16 83.53 169.42 86.45 C 161.00 86.92 152.55 86.44 144.13 86.67 C 141.86 86.66 140.76 89.05 139.56 90.60 C 136.20 96.07 131.63 100.70 128.52 106.35 C 135.51 106.38 142.77 107.24 149.40 104.47 C 147.59 101.67 145.82 98.84 144.19 95.94 C 147.08 94.42 150.01 92.95 153.01 91.64 C 158.85 99.03 164.73 106.54 168.93 115.01 C 165.74 116.69 162.63 118.52 159.55 120.39 C 158.50 118.77 157.46 117.15 156.41 115.53 C 142.77 115.47 129.14 115.85 115.49 115.83 C 114.37 113.24 112.85 110.77 112.34 107.97 C 118.41 101.81 124.30 95.32 128.12 87.46 C 122.89 87.19 117.52 88.06 112.41 86.54 C 112.41 83.59 112.34 80.64 112.50 77.69 C 119.62 76.94 126.82 77.85 133.96 77.27 C 135.78 76.09 135.29 73.86 135.42 72.02 C 135.46 69.17 135.59 66.18 134.11 63.62 C 127.89 63.34 121.67 63.61 115.44 63.47 C 115.43 60.43 115.41 57.38 115.34 54.34 C 122.02 54.11 128.76 54.68 135.38 53.50 C 135.35 49.51 135.33 45.51 135.47 41.51 Z" />
<path fill="#ff0000" opacity="1.00" d=" M 32.49 42.41 C 36.23 42.41 39.98 42.40 43.72 42.41 C 43.73 46.15 43.75 49.88 43.69 53.62 C 50.68 54.63 57.87 54.63 64.83 53.39 C 62.94 51.75 60.42 50.53 59.32 48.16 C 60.99 45.97 62.95 43.91 65.30 42.44 C 67.52 42.38 69.14 44.24 70.93 45.29 C 74.69 48.14 78.80 50.57 82.27 53.79 C 83.22 54.68 82.43 56.02 81.74 56.77 C 80.25 58.73 78.53 60.48 76.96 62.36 C 75.24 61.24 73.51 60.14 71.79 59.03 C 70.38 65.34 70.34 71.81 70.42 78.24 C 73.82 78.47 77.23 78.47 80.64 78.41 C 80.70 85.31 80.64 92.21 80.51 99.11 C 80.58 104.82 76.61 110.46 71.11 112.16 C 66.37 114.11 61.09 113.42 56.11 113.22 C 52.29 111.08 53.46 105.91 52.31 102.34 C 56.95 101.98 61.83 103.04 66.27 101.27 C 70.52 98.60 69.14 92.76 69.56 88.53 C 64.14 87.17 58.53 87.79 53.01 87.64 C 49.88 87.53 46.75 87.78 43.71 88.49 C 43.66 98.82 43.93 109.15 43.55 119.48 C 39.89 119.41 36.24 119.42 32.58 119.44 C 32.38 109.10 32.50 98.76 32.51 88.42 C 24.09 86.85 15.46 88.06 6.95 87.62 C 6.51 84.56 6.48 81.43 7.30 78.43 C 15.24 78.38 23.17 78.54 31.10 78.39 C 31.41 78.05 32.04 77.37 32.35 77.04 C 32.69 72.53 32.44 68.00 32.38 63.49 C 25.84 63.49 19.29 63.57 12.74 63.51 C 10.86 60.85 11.97 57.36 11.70 54.32 C 18.61 54.19 25.51 54.29 32.42 54.25 C 32.52 50.30 32.49 46.36 32.49 42.41 M 44.50 78.43 C 48.67 78.38 52.85 78.62 57.02 78.31 C 60.74 74.43 59.19 68.61 59.54 63.79 C 54.54 63.31 49.51 63.60 44.50 63.46 C 43.48 68.40 43.44 73.49 44.50 78.43 Z" />
<path fill="#ff0000" opacity="1.00" d=" M 222.38 42.40 C 225.53 42.40 228.69 42.40 231.84 42.43 C 233.02 50.42 231.87 58.53 232.47 66.56 C 232.87 66.77 233.65 67.17 234.05 67.37 C 240.86 67.68 247.70 67.39 254.52 67.46 C 254.53 70.55 254.53 73.64 254.55 76.73 C 247.11 76.93 239.60 76.18 232.21 77.38 C 232.30 78.98 232.39 80.58 232.51 82.18 C 234.03 81.24 235.56 80.31 237.07 79.35 C 242.89 84.09 248.94 88.55 254.91 93.12 C 253.38 95.77 251.68 98.39 249.35 100.41 C 248.04 100.61 246.57 100.46 245.67 99.36 C 241.47 95.30 237.24 91.24 232.45 87.86 C 232.06 93.43 232.95 99.11 231.62 104.60 C 228.55 104.59 225.47 104.59 222.39 104.57 C 222.29 98.32 222.47 92.07 222.24 85.83 C 216.52 90.67 213.02 98.07 206.15 101.47 C 202.89 100.59 201.63 95.65 198.18 95.13 C 195.14 96.63 196.10 100.90 198.54 102.56 C 202.84 106.87 209.18 107.61 214.98 107.57 C 228.82 107.56 242.66 107.65 256.50 107.55 C 255.08 110.80 254.50 114.44 252.43 117.38 C 239.30 117.89 226.11 117.43 212.96 117.60 C 207.80 117.77 202.46 117.27 197.79 114.90 C 195.49 113.72 193.67 111.62 191.09 111.03 C 187.57 113.39 185.22 117.06 182.05 119.83 C 180.77 115.62 179.22 111.50 177.57 107.42 C 180.16 104.96 182.76 102.51 185.52 100.24 C 185.49 93.35 185.46 86.47 185.56 79.59 C 183.23 79.14 180.91 78.66 178.56 78.33 C 178.55 75.03 178.55 71.73 178.57 68.43 C 184.52 68.35 190.48 68.32 196.43 68.49 C 196.47 76.95 196.18 85.42 196.61 93.87 C 199.05 93.07 201.45 92.08 203.40 90.36 C 208.03 86.38 212.42 82.11 216.53 77.58 C 211.20 76.29 205.71 76.83 200.30 76.68 C 200.33 73.62 200.33 70.56 200.35 67.51 C 207.24 67.37 214.15 67.70 221.03 67.34 C 221.80 66.03 222.41 64.58 222.35 63.03 C 222.43 56.15 222.31 49.28 222.38 42.40 Z" />
<path fill="#ff0000" opacity="1.00" d=" M 180.38 48.00 C 183.27 46.26 186.12 44.45 189.13 42.90 C 192.71 47.58 196.38 52.19 199.55 57.16 C 196.43 58.79 193.59 62.62 189.69 61.52 C 186.45 57.12 183.53 52.48 180.38 48.00 Z" />
<path fill="#ff0000" opacity="1.00" d=" M 93.92 50.82 C 95.79 48.24 97.94 45.89 100.02 43.47 C 105.04 46.04 109.24 49.84 113.85 53.03 C 112.06 56.09 109.64 58.70 107.14 61.20 C 102.84 57.61 98.49 54.07 93.92 50.82 Z" />
<path fill="#ff0000" opacity="1.00" d=" M 201.47 50.73 C 203.99 48.89 206.80 47.46 209.75 46.42 C 212.75 50.94 216.37 55.06 218.77 59.97 C 216.15 61.75 213.52 63.54 210.69 64.99 C 207.48 60.34 203.80 55.91 201.47 50.73 Z" />
<path fill="#ff0000" opacity="1.00" d=" M 235.19 59.39 C 238.73 55.28 241.98 50.93 244.89 46.36 C 247.81 47.75 250.63 49.38 252.94 51.67 C 249.62 56.64 245.87 61.30 242.07 65.91 C 239.82 63.68 237.40 61.64 235.19 59.39 Z" />
<path fill="#ff0000" opacity="1.00" d=" M 97.13 65.19 C 98.63 65.08 100.21 65.37 101.32 66.45 C 104.54 69.16 108.28 71.43 110.69 74.96 C 108.76 77.89 106.35 80.82 102.92 81.98 C 99.32 77.97 95.09 74.61 91.05 71.06 C 93.00 69.05 94.68 66.62 97.13 65.19 Z" />
<path fill="#ff0000" opacity="1.00" d=" M 101.73 86.08 C 105.46 86.11 108.82 87.77 112.29 88.87 C 109.20 98.80 106.20 108.75 103.11 118.67 C 99.89 117.57 96.65 116.51 93.51 115.20 C 92.96 111.38 95.18 107.97 96.27 104.46 C 98.18 98.36 100.32 92.32 101.73 86.08 Z" />
<path fill="#ff0000" opacity="1.00" d=" M 0.00 138.62 C 90.00 138.62 180.00 138.62 270.00 138.62 L 270.00 170.00 L 0.00 170.00 L 0.00 138.62 M 103.43 143.37 C 103.45 149.45 103.45 155.53 103.44 161.61 C 105.03 161.59 106.62 161.56 108.21 161.53 C 108.28 157.78 108.25 154.03 108.29 150.28 C 109.71 150.30 111.13 150.31 112.56 150.33 C 112.54 154.09 112.54 157.84 112.55 161.60 C 114.15 161.58 115.74 161.55 117.34 161.52 C 117.29 158.01 117.28 154.50 117.29 151.00 C 116.08 149.97 114.93 148.87 113.64 147.93 C 111.93 147.59 110.17 147.70 108.43 147.64 C 108.19 146.19 107.93 144.75 107.67 143.31 C 106.25 143.33 104.84 143.35 103.43 143.37 M 138.61 143.33 C 137.31 144.78 136.04 146.26 134.58 147.54 C 132.60 147.81 130.60 147.71 128.62 147.76 C 128.54 151.62 128.57 155.47 128.54 159.33 C 127.13 159.33 125.71 159.34 124.30 159.34 C 124.22 155.91 124.42 152.47 124.17 149.05 C 123.24 147.32 121.14 147.78 119.53 147.50 C 119.45 151.14 119.47 154.79 119.45 158.44 C 120.53 159.47 121.58 160.52 122.61 161.61 C 126.17 161.62 129.74 161.60 133.30 161.56 C 133.33 157.47 133.10 153.36 133.70 149.30 C 136.96 152.51 134.99 157.53 135.45 161.60 C 137.05 161.58 138.65 161.56 140.26 161.54 C 140.77 157.34 138.85 152.31 142.12 148.93 C 141.35 147.89 140.59 146.85 139.84 145.80 C 141.49 145.68 143.15 145.56 144.81 145.46 C 144.75 144.93 144.61 143.86 144.54 143.33 C 142.56 143.33 140.59 143.32 138.61 143.33 M 183.44 143.38 C 183.47 143.92 183.54 145.02 183.58 145.57 C 184.98 145.59 186.38 145.62 187.79 145.65 C 187.80 145.06 187.83 143.88 187.84 143.29 C 186.37 143.31 184.90 143.34 183.44 143.38 M 12.64 154.23 C 14.26 156.49 14.35 159.29 14.58 161.95 C 19.14 162.27 21.20 157.79 22.00 154.02 C 23.04 156.74 24.31 159.37 26.14 161.65 C 27.49 161.61 28.83 161.57 30.18 161.54 C 30.35 159.09 30.01 156.43 31.63 154.38 C 33.08 152.34 32.30 149.71 32.43 147.40 C 30.98 147.63 29.55 147.93 28.13 148.30 C 27.59 150.42 27.74 152.62 27.62 154.78 C 27.19 154.72 26.34 154.59 25.92 154.53 C 25.93 151.53 23.93 149.38 22.06 147.28 C 20.26 149.45 18.56 151.77 18.25 154.67 C 17.81 154.67 16.94 154.68 16.50 154.69 C 16.48 152.38 16.47 150.07 16.46 147.77 C 15.41 147.73 13.32 147.64 12.27 147.60 C 11.80 149.80 11.12 152.27 12.64 154.23 M 34.66 149.05 C 34.07 153.56 37.81 157.12 37.52 161.70 C 38.80 161.64 40.07 161.59 41.34 161.54 C 42.99 159.26 44.12 156.69 45.03 154.04 C 45.97 157.74 47.99 162.03 52.42 162.00 C 52.44 156.96 56.57 152.89 55.27 147.78 C 54.42 147.73 52.73 147.64 51.88 147.60 C 49.89 149.48 50.92 152.46 50.57 154.88 C 50.14 154.78 49.29 154.57 48.86 154.46 C 48.80 151.52 46.83 149.41 45.02 147.31 C 43.21 149.46 41.29 151.65 41.24 154.62 C 40.80 154.65 39.91 154.70 39.47 154.72 C 39.42 152.40 39.47 150.08 39.22 147.77 C 37.55 147.65 35.44 147.04 34.66 149.05 M 57.75 147.79 C 56.43 152.80 60.57 156.75 60.46 161.70 C 61.72 161.64 62.98 161.58 64.24 161.52 C 65.88 159.24 67.05 156.70 68.01 154.07 C 68.85 156.86 70.10 159.47 72.06 161.65 C 73.22 161.64 74.37 161.64 75.53 161.64 C 75.25 157.06 78.96 153.52 78.43 148.99 C 77.53 147.07 75.47 147.65 73.80 147.77 C 73.55 150.08 73.59 152.40 73.54 154.72 C 73.10 154.69 72.22 154.64 71.77 154.61 C 71.72 151.64 69.81 149.45 67.99 147.32 C 66.15 149.44 64.16 151.60 64.16 154.60 C 63.73 154.64 62.86 154.73 62.43 154.77 C 62.09 152.38 63.12 149.43 61.13 147.59 C 60.29 147.64 58.60 147.74 57.75 147.79 M 87.09 154.13 C 90.49 155.02 93.63 156.63 96.93 157.84 C 96.13 158.55 95.30 159.21 94.47 159.87 C 92.35 157.87 89.80 156.61 86.83 157.25 C 87.98 158.73 89.21 160.15 90.40 161.60 C 93.10 161.61 95.81 161.61 98.52 161.60 C 99.71 159.74 100.87 157.87 101.82 155.87 C 98.61 154.66 95.63 152.85 92.27 152.04 C 92.32 151.50 92.42 150.43 92.46 149.89 C 94.71 150.02 96.54 151.12 98.01 152.78 C 98.76 152.62 100.26 152.29 101.01 152.12 C 101.72 150.28 98.77 149.16 97.73 147.86 C 95.56 147.53 93.33 147.57 91.15 147.80 C 88.83 149.18 87.09 151.33 87.09 154.13 M 144.01 151.21 C 145.05 151.83 146.09 152.44 147.15 153.04 C 146.13 154.35 145.11 155.67 144.12 157.00 C 145.23 158.56 146.39 160.09 147.53 161.63 C 150.43 161.61 153.33 161.59 156.23 161.54 C 156.20 158.11 156.48 154.66 156.07 151.24 C 154.64 149.76 153.36 147.33 150.98 147.64 C 148.01 147.08 146.19 149.76 144.01 151.21 M 158.46 147.71 C 158.39 152.34 158.41 156.96 158.41 161.59 C 159.85 161.60 161.29 161.60 162.73 161.61 C 163.30 157.77 163.24 153.89 163.37 150.02 C 164.74 150.22 166.13 150.37 167.49 150.70 C 167.61 154.33 167.50 157.96 167.47 161.59 C 169.07 161.58 170.67 161.57 172.27 161.55 C 172.32 157.80 172.30 154.05 172.31 150.30 C 173.75 150.31 175.18 150.32 176.63 150.33 C 176.61 154.08 176.61 157.82 176.61 161.56 C 178.19 161.57 179.78 161.57 181.36 161.56 C 181.36 158.03 181.35 154.50 181.37 150.97 C 179.65 149.81 178.35 147.48 176.01 147.71 C 170.16 147.63 164.31 147.72 158.46 147.71 M 183.59 147.54 C 183.51 152.22 183.57 156.91 183.53 161.60 C 185.09 161.59 186.66 161.57 188.23 161.55 C 188.27 157.34 188.47 153.12 188.25 148.92 C 187.12 147.51 185.16 147.83 183.59 147.54 M 197.55 150.71 C 197.17 153.26 197.38 155.86 197.35 158.44 C 198.44 159.47 199.51 160.54 200.56 161.63 C 202.24 161.62 203.91 161.61 205.59 161.60 C 206.78 160.29 208.01 159.01 209.25 157.76 C 208.41 157.43 206.73 156.77 205.89 156.44 C 204.71 157.54 203.54 158.65 202.36 159.74 C 201.72 156.52 201.66 153.23 201.79 149.96 C 204.03 151.53 206.42 153.05 209.30 152.44 C 208.15 150.84 207.02 149.20 205.63 147.80 C 202.48 146.93 199.50 148.19 197.55 150.71 M 211.32 151.37 C 211.37 154.31 210.13 158.15 212.89 160.21 C 214.98 162.77 218.68 161.23 221.53 161.62 C 222.56 160.54 223.62 159.50 224.70 158.48 C 224.67 155.87 224.92 153.23 224.48 150.64 C 221.57 146.28 213.25 146.18 211.32 151.37 M 227.30 147.71 C 227.20 152.34 227.23 156.97 227.26 161.61 C 228.71 161.60 230.16 161.60 231.62 161.60 C 231.63 157.84 231.62 154.08 231.63 150.33 C 233.19 150.33 234.75 150.35 236.32 150.37 C 236.32 154.11 236.31 157.86 236.33 161.61 C 237.79 161.61 239.24 161.60 240.70 161.60 C 240.72 157.86 240.71 154.12 240.71 150.38 C 242.27 150.35 243.83 150.33 245.40 150.31 C 245.42 154.07 245.41 157.83 245.41 161.60 C 246.86 161.60 248.31 161.60 249.77 161.61 C 250.31 156.90 251.62 150.82 246.77 147.88 C 240.30 147.42 233.79 147.82 227.30 147.71 M 80.49 157.22 C 80.49 158.67 80.49 160.13 80.48 161.59 C 82.08 161.58 83.68 161.56 85.28 161.55 C 85.27 160.13 85.27 158.71 85.25 157.29 C 83.66 157.25 82.08 157.23 80.49 157.22 M 190.42 157.19 C 190.43 158.65 190.44 160.11 190.46 161.57 C 191.86 161.59 193.26 161.61 194.67 161.63 C 194.82 160.20 194.99 158.76 195.15 157.33 C 193.57 157.27 192.00 157.23 190.42 157.19 Z" />
<path fill="#ff0000" opacity="1.00" d=" M 147.49 149.53 C 149.20 150.19 150.94 150.84 152.39 152.01 C 150.64 152.27 148.90 152.49 147.15 152.71 C 147.23 151.92 147.40 150.32 147.49 149.53 Z" />
<path fill="#ff0000" opacity="1.00" d=" M 215.56 150.40 C 217.12 150.36 218.69 150.34 220.26 150.32 C 220.18 153.13 220.74 156.06 219.89 158.78 C 218.53 159.22 217.14 159.49 215.70 159.58 C 215.60 156.52 215.60 153.46 215.56 150.40 Z" />
<path fill="#ff0000" opacity="1.00" d=" M 148.95 155.27 C 149.69 155.29 151.18 155.34 151.93 155.36 C 151.54 157.04 151.31 158.84 149.94 160.05 C 149.53 158.47 149.24 156.87 148.95 155.27 Z" />
</g>
</svg>
