<?xml version="1.0" encoding="UTF-8" ?>
<!DOCTYPE svg PUBLIC "-//W3C//DTD SVG 1.1//EN" "http://www.w3.org/Graphics/SVG/1.1/DTD/svg11.dtd">
<svg width="270pt" height="170pt" viewBox="0 0 270 170" version="1.1" xmlns="http://www.w3.org/2000/svg">
<g id="#ffffffff">
<path fill="#ffffff" opacity="1.00" d=" M 0.00 0.00 L 270.00 0.00 L 270.00 170.00 L 0.00 170.00 L 0.00 0.00 M 38.26 44.21 C 28.28 49.71 17.93 54.55 8.12 60.33 C 8.09 62.42 9.28 64.22 10.19 66.00 C 13.54 72.02 16.55 78.21 19.84 84.26 C 16.20 86.13 12.38 87.78 9.13 90.31 C 9.30 93.05 10.92 95.44 12.41 97.65 C 15.83 97.99 18.56 95.24 21.51 93.90 C 20.97 96.55 19.92 99.26 20.62 101.98 C 21.36 106.21 24.64 110.02 28.79 111.20 C 43.74 114.81 61.20 107.30 67.55 93.02 C 68.13 89.03 63.34 88.49 60.88 86.80 C 60.85 84.48 61.70 82.26 61.68 79.95 C 61.47 77.90 59.82 76.45 58.75 74.82 C 62.63 72.90 66.77 71.32 70.06 68.42 C 68.89 66.08 67.85 63.62 66.07 61.67 C 62.14 61.94 58.75 64.43 55.21 65.97 C 51.10 58.67 47.49 51.07 43.05 43.97 C 42.09 41.67 39.77 43.63 38.26 44.21 M 91.90 56.51 C 89.89 62.67 87.77 68.79 85.73 74.93 C 86.11 75.35 86.87 76.17 87.24 76.58 C 87.67 83.23 87.08 89.91 87.57 96.57 C 96.47 97.22 105.42 97.19 114.34 96.61 C 114.43 95.62 114.63 93.64 114.72 92.65 C 108.23 92.61 101.74 92.63 95.25 92.63 C 95.25 87.17 95.25 81.71 95.25 76.25 C 98.89 76.25 102.53 76.24 106.18 76.28 C 106.19 79.05 106.19 81.83 106.19 84.60 C 104.23 84.62 102.27 84.63 100.31 84.64 C 100.38 85.95 100.47 87.25 100.56 88.55 C 104.81 89.01 109.27 89.78 113.44 88.42 C 114.08 84.33 113.62 80.15 113.76 76.03 C 115.30 75.86 116.84 75.73 118.38 75.60 C 116.21 69.16 114.30 62.63 111.69 56.36 C 105.10 56.24 98.48 56.04 91.90 56.51 M 128.12 56.25 C 128.13 68.42 128.12 80.58 128.13 92.75 C 125.49 92.75 122.84 92.75 120.20 92.78 C 120.39 94.09 120.58 95.40 120.78 96.70 C 125.72 96.97 130.69 97.37 135.62 96.60 C 136.49 83.18 135.76 69.69 136.00 56.25 C 133.37 56.25 130.75 56.25 128.12 56.25 M 165.01 56.25 C 164.94 56.79 164.81 57.86 164.74 58.40 C 159.13 58.41 153.52 58.29 147.91 58.42 C 146.74 58.26 146.01 58.75 145.74 59.89 C 145.49 62.58 145.63 65.28 145.62 67.97 C 147.49 68.00 149.36 68.03 151.23 68.06 C 150.02 69.93 148.80 71.79 147.54 73.63 C 149.66 73.63 151.79 73.63 153.91 73.65 C 155.70 74.69 157.53 75.67 159.39 76.59 C 154.10 77.10 148.79 77.22 143.49 77.12 C 143.51 78.32 143.54 79.52 143.57 80.73 C 151.95 82.45 160.53 80.73 168.87 79.63 C 176.97 81.15 185.21 81.72 193.44 81.29 C 193.69 79.93 193.94 78.57 194.18 77.20 C 188.98 77.17 183.78 77.04 178.59 76.55 C 182.33 74.29 187.48 72.80 188.64 68.01 C 189.83 67.97 191.02 67.93 192.21 67.88 C 191.97 64.82 192.90 61.42 191.23 58.65 C 185.06 58.01 178.83 58.55 172.64 58.38 C 172.63 57.84 172.62 56.78 172.61 56.24 C 170.08 56.25 167.54 56.25 165.01 56.25 M 232.75 56.25 C 232.75 62.03 232.74 67.81 232.76 73.58 C 230.99 73.63 229.22 73.68 227.45 73.75 C 226.62 81.36 227.30 89.04 227.29 96.67 C 234.76 97.44 242.28 96.71 249.78 96.75 C 250.31 89.10 250.38 81.38 249.72 73.74 C 245.98 73.58 242.24 73.62 238.50 73.63 C 238.50 71.12 238.50 68.62 238.50 66.12 C 242.65 66.05 246.82 66.33 250.96 65.96 C 251.82 64.94 251.95 63.53 252.39 62.31 C 247.76 62.20 243.13 62.27 238.50 62.25 C 238.50 60.25 238.50 58.25 238.50 56.25 C 236.58 56.25 234.66 56.25 232.75 56.25 M 202.73 58.57 C 202.52 58.88 202.09 59.50 201.88 59.81 C 201.55 68.93 201.85 78.06 201.75 87.18 C 203.79 87.19 205.83 87.19 207.88 87.19 C 207.88 79.00 207.88 70.81 207.88 62.63 C 211.52 62.63 215.17 62.62 218.81 62.63 C 218.81 70.81 218.81 79.00 218.81 87.18 C 220.87 87.18 222.93 87.19 225.00 87.19 C 224.98 78.76 225.03 70.34 225.00 61.92 C 225.01 60.52 224.99 58.15 222.95 58.45 C 216.22 58.38 209.45 58.17 202.73 58.57 M 118.55 63.80 C 118.38 72.28 118.52 80.77 118.50 89.25 C 121.06 89.25 123.62 89.25 126.19 89.24 C 126.19 80.90 126.17 72.57 126.20 64.23 C 123.65 64.11 121.10 63.93 118.55 63.80 M 209.25 66.13 C 209.18 73.18 209.38 80.23 209.18 87.28 C 208.58 91.92 203.43 93.07 199.53 92.94 C 199.80 94.23 200.08 95.51 200.38 96.80 C 206.28 97.50 214.60 94.96 215.22 88.06 C 215.59 80.76 215.27 73.44 215.37 66.13 C 213.33 66.13 211.29 66.13 209.25 66.13 M 149.68 83.71 C 149.41 87.99 149.42 92.29 149.66 96.58 C 153.07 97.02 156.51 97.28 159.94 97.01 C 169.88 96.37 179.84 97.67 189.76 96.66 C 190.15 92.49 190.47 88.23 189.77 84.08 C 187.99 83.16 185.88 83.60 183.96 83.48 C 172.54 83.65 161.10 83.23 149.68 83.71 M 219.49 89.55 C 215.60 90.97 217.10 97.05 221.02 96.86 C 223.90 97.35 225.73 93.69 224.59 91.32 C 223.84 89.34 221.29 88.74 219.49 89.55 M 40.16 117.41 C 34.65 115.58 29.31 113.29 23.76 111.61 C 24.02 115.64 24.52 119.65 25.11 123.64 C 37.77 123.81 50.44 123.80 63.10 123.71 C 64.29 116.78 65.68 109.86 66.36 102.85 C 57.31 107.11 48.99 112.73 40.16 117.41 M 157.97 111.08 C 158.40 111.13 159.24 111.24 159.67 111.30 C 159.91 115.76 159.26 120.17 158.60 124.56 C 160.03 122.87 160.55 120.70 160.99 118.59 C 161.38 118.52 162.17 118.39 162.56 118.32 C 162.70 119.79 162.84 121.26 163.01 122.72 C 163.73 120.93 164.35 119.11 165.16 117.36 C 165.83 119.69 165.17 121.95 164.12 124.04 C 166.30 123.95 167.54 122.04 167.16 120.10 C 167.02 116.96 167.24 113.81 166.98 110.68 C 166.51 110.34 165.56 109.66 165.08 109.33 C 165.62 108.46 166.15 107.59 166.68 106.72 C 165.82 106.70 164.10 106.66 163.24 106.65 C 163.01 105.99 162.57 104.69 162.34 104.03 C 160.93 106.41 159.49 108.77 157.97 111.08 M 171.16 108.26 C 170.43 108.26 168.98 108.25 168.25 108.25 C 168.25 110.96 168.25 113.67 168.25 116.38 C 169.06 116.38 170.68 116.38 171.50 116.38 C 171.50 117.75 171.51 119.13 171.52 120.51 C 169.87 120.49 168.68 120.94 167.94 121.88 C 170.18 123.11 172.88 121.91 175.27 121.79 C 175.99 122.66 176.73 123.53 177.47 124.40 C 177.11 122.14 177.10 118.96 175.04 117.68 C 175.02 118.35 174.99 119.69 174.97 120.35 C 174.24 120.51 173.50 120.63 172.76 120.72 C 172.76 119.61 172.75 117.41 172.74 116.31 C 173.88 116.28 175.01 116.27 176.15 116.26 C 176.22 113.60 176.18 110.95 176.19 108.30 C 175.39 108.28 173.79 108.25 172.99 108.24 C 172.70 106.70 172.43 105.16 172.16 103.62 C 171.89 105.18 171.61 106.74 171.16 108.26 M 87.19 104.98 C 87.65 107.39 89.61 109.06 91.26 110.73 C 91.10 108.15 89.57 105.95 87.19 104.98 M 96.25 120.94 C 94.14 121.17 91.89 121.00 90.01 122.20 C 95.19 123.04 100.73 123.41 105.82 121.97 C 103.25 121.08 100.50 121.18 97.87 120.62 C 97.76 117.86 97.95 115.10 98.15 112.35 C 100.31 112.29 102.64 112.29 104.50 111.03 C 102.33 110.83 100.15 110.73 97.97 110.61 C 97.88 108.25 97.95 105.82 96.99 103.61 C 95.51 109.25 96.55 115.17 96.25 120.94 M 111.52 104.73 C 112.26 107.03 113.39 109.73 116.16 110.01 C 115.19 107.80 113.49 106.07 111.52 104.73 M 118.75 105.90 C 118.64 108.23 118.20 110.63 115.98 111.89 C 117.25 114.79 119.00 117.46 120.83 120.03 C 119.03 120.71 117.20 121.31 115.39 121.93 C 116.02 121.08 117.30 119.38 117.94 118.52 C 116.73 118.97 115.53 119.44 114.34 119.92 C 114.37 117.08 114.38 114.25 114.36 111.42 C 112.52 111.62 110.67 111.80 108.91 112.43 C 109.85 112.63 111.73 113.04 112.68 113.24 C 112.62 116.30 112.68 119.37 112.32 122.42 C 113.57 122.84 114.74 123.53 116.05 123.80 C 118.18 123.06 120.14 121.94 122.03 120.74 C 124.22 122.17 126.50 123.57 129.15 123.93 C 128.21 121.52 125.51 120.98 123.46 119.90 C 124.90 117.80 126.15 115.59 127.18 113.27 C 123.93 112.82 120.60 113.30 117.38 112.58 C 119.63 111.58 120.00 109.29 120.34 107.15 C 121.47 107.19 122.61 107.22 123.74 107.24 C 123.97 108.81 124.21 110.37 124.48 111.94 C 126.20 111.76 127.94 111.65 129.60 111.14 C 128.59 110.90 126.58 110.42 125.57 110.18 C 125.51 108.76 125.47 107.33 125.42 105.91 C 123.20 105.75 120.97 105.76 118.75 105.90 M 135.89 104.75 C 136.89 106.73 138.14 108.56 139.41 110.37 C 140.43 107.72 138.10 105.71 135.89 104.75 M 145.81 111.90 C 144.08 111.88 142.35 111.88 140.63 111.87 L 140.63 113.56 C 142.38 113.56 144.13 113.56 145.88 113.56 C 145.88 116.96 145.88 120.36 145.88 123.76 L 147.38 123.73 C 147.37 120.34 147.38 116.95 147.38 113.57 C 149.29 113.56 151.21 113.56 153.13 113.56 L 153.12 111.87 C 151.22 111.88 149.32 111.88 147.43 111.89 C 147.40 109.24 147.40 106.57 146.97 103.94 C 145.64 106.40 145.88 109.21 145.81 111.90 M 184.41 106.80 C 184.47 107.15 184.57 107.87 184.63 108.23 C 186.76 108.15 188.92 107.87 191.05 108.15 C 191.16 108.94 191.39 110.51 191.50 111.29 C 188.86 111.35 186.20 111.36 183.60 111.85 C 185.97 113.03 188.68 112.74 191.25 112.80 C 191.25 113.56 191.25 115.09 191.25 115.86 C 188.16 115.89 184.96 115.56 182.02 116.72 C 184.77 118.55 188.39 117.23 191.49 117.66 C 191.57 120.23 190.86 122.39 187.91 122.81 C 189.27 123.51 190.71 123.66 192.22 123.28 C 193.61 121.73 193.04 119.49 193.33 117.61 C 196.08 117.63 198.83 117.62 201.58 117.61 C 201.52 117.17 201.40 116.28 201.34 115.84 C 198.67 116.01 195.99 116.14 193.32 116.19 C 193.27 115.33 193.18 113.62 193.14 112.76 C 195.30 112.75 197.48 112.75 199.65 112.74 C 199.65 112.40 199.65 111.72 199.65 111.39 C 197.50 111.38 195.34 111.37 193.19 111.37 C 193.19 110.49 193.19 108.72 193.18 107.83 C 195.72 107.57 198.55 107.64 200.59 105.89 C 195.19 106.15 189.81 106.67 184.41 106.80 M 230.94 111.18 C 234.12 110.48 236.47 107.66 237.26 104.59 C 234.75 106.36 232.57 108.58 230.94 111.18 M 207.46 106.27 C 207.47 106.60 207.49 107.28 207.50 107.62 C 212.08 107.63 216.67 107.62 221.25 107.63 C 221.25 112.27 221.25 116.92 221.24 121.57 C 220.55 121.63 219.17 121.75 218.49 121.81 C 218.55 122.26 218.67 123.17 218.73 123.63 C 220.11 123.44 221.48 123.27 222.86 123.09 C 223.10 117.95 222.97 112.79 223.00 107.65 C 223.67 107.63 225.02 107.60 225.69 107.59 C 225.67 107.25 225.65 106.59 225.63 106.26 C 219.57 106.24 213.51 106.24 207.46 106.27 M 238.49 112.38 C 241.79 112.38 245.08 112.38 248.38 112.36 C 248.37 110.18 248.37 108.00 248.36 105.82 C 245.08 105.81 241.80 105.81 238.52 105.81 C 238.50 108.00 238.49 110.19 238.49 112.38 M 230.54 117.55 C 231.69 116.99 232.82 116.38 233.93 115.74 C 233.88 118.43 233.87 121.12 233.86 123.82 C 234.27 123.81 235.10 123.81 235.51 123.81 C 235.50 118.94 234.93 113.89 237.20 109.39 C 234.65 111.81 232.34 114.52 230.54 117.55 M 85.48 111.63 C 85.49 112.02 85.50 112.80 85.51 113.18 C 86.26 113.19 87.77 113.20 88.52 113.20 C 88.53 116.65 88.44 120.10 88.32 123.54 C 90.09 121.75 92.47 120.37 93.34 117.88 C 92.14 118.58 90.96 119.29 89.79 120.04 C 89.81 117.23 89.81 114.43 89.81 111.62 C 88.37 111.62 86.92 111.63 85.48 111.63 M 133.16 112.28 C 134.16 112.48 136.16 112.87 137.16 113.06 C 137.17 116.54 137.05 120.03 136.88 123.51 C 139.22 121.65 142.12 120.26 143.55 117.49 C 141.91 118.27 140.33 119.15 138.74 120.03 C 138.75 117.08 138.76 114.14 138.71 111.20 C 136.82 111.35 134.89 111.42 133.16 112.28 M 209.81 110.65 C 209.81 113.51 209.81 116.37 209.81 119.24 C 212.37 119.25 214.93 119.25 217.50 119.25 C 217.50 116.37 217.50 113.50 217.50 110.62 C 214.93 110.62 212.37 110.63 209.81 110.65 M 237.73 114.15 L 237.77 115.23 C 240.87 115.26 244.04 114.96 247.03 115.99 C 243.76 117.28 240.20 116.72 236.78 116.82 L 236.75 118.38 C 239.86 118.37 242.97 118.36 246.08 118.47 C 246.05 120.96 244.90 122.77 242.31 123.34 C 243.92 123.63 245.54 123.45 247.17 123.53 C 247.20 121.81 247.24 120.09 247.27 118.37 C 248.00 118.37 249.44 118.37 250.17 118.37 L 250.08 117.14 C 249.25 116.97 247.59 116.61 246.76 116.43 C 247.36 115.74 248.04 115.13 248.81 114.62 L 248.89 113.81 C 245.17 114.04 241.45 114.18 237.73 114.15 M 239.24 119.41 C 239.58 120.57 240.69 121.67 241.94 121.77 C 243.90 120.79 239.87 117.34 239.24 119.41 Z" />
<path fill="#ffffff" opacity="1.00" d=" M 94.71 71.80 C 95.81 68.01 97.23 64.33 98.52 60.61 C 100.87 60.62 103.22 60.62 105.57 60.61 C 106.79 64.31 107.92 68.04 109.03 71.77 C 104.26 71.84 99.48 71.81 94.71 71.80 Z" />
<path fill="#ffffff" opacity="1.00" d=" M 152.32 63.10 C 162.93 62.32 173.61 62.95 184.25 62.75 C 184.25 63.59 184.25 65.28 184.25 66.12 C 176.09 66.13 167.94 66.13 159.79 66.12 C 160.05 65.65 160.58 64.70 160.85 64.23 C 157.97 64.17 155.05 64.07 152.32 63.10 Z" />
<path fill="#ffffff" opacity="1.00" d=" M 156.50 70.47 C 164.78 70.33 173.07 70.29 181.36 70.49 C 177.35 72.06 173.29 73.65 169.03 74.39 C 164.69 73.70 160.56 72.09 156.50 70.47 Z" />
<path fill="#ffffff" opacity="1.00" d=" M 233.00 77.88 C 236.73 77.88 240.46 77.87 244.19 77.89 C 244.19 82.82 244.18 87.76 244.19 92.69 C 240.46 92.77 236.73 92.75 233.00 92.75 C 233.00 87.79 233.00 82.83 233.00 77.88 Z" />
<path fill="#ffffff" opacity="1.00" d=" M 157.00 87.57 C 165.46 87.57 173.92 87.56 182.38 87.57 C 182.37 89.34 182.38 91.11 182.38 92.88 C 173.92 92.88 165.46 92.88 157.00 92.88 C 157.00 91.11 157.00 89.33 157.00 87.57 Z" />
<path fill="#ffffff" opacity="1.00" d=" M 52.59 90.62 C 55.14 89.16 58.77 92.25 57.02 94.88 C 56.52 96.95 54.13 96.98 52.46 96.57 C 50.50 95.13 50.37 91.87 52.59 90.62 Z" />
<path fill="#ffffff" opacity="1.00" d=" M 240.20 108.50 C 240.26 108.07 240.38 107.22 240.44 106.79 C 242.45 106.81 244.46 106.81 246.48 106.80 C 246.52 107.22 246.62 108.07 246.67 108.50 C 244.51 108.50 242.35 108.50 240.20 108.50 Z" />
<path fill="#ffffff" opacity="1.00" d=" M 161.20 108.34 C 162.06 106.94 165.09 107.99 163.74 109.62 C 162.87 110.87 159.75 109.94 161.20 108.34 Z" />
<path fill="#ffffff" opacity="1.00" d=" M 169.38 109.89 C 169.93 109.89 171.04 109.88 171.59 109.87 C 171.51 111.90 171.40 113.93 171.18 115.96 C 169.08 114.56 169.54 112.04 169.38 109.89 Z" />
<path fill="#ffffff" opacity="1.00" d=" M 172.75 109.88 C 173.27 109.88 174.30 109.88 174.82 109.88 C 174.81 111.54 174.81 113.21 174.80 114.88 C 174.29 114.88 173.26 114.88 172.75 114.87 C 172.75 113.21 172.75 111.54 172.75 109.88 Z" />
<path fill="#ffffff" opacity="1.00" d=" M 240.34 110.41 C 242.07 109.75 245.44 109.29 246.57 110.80 C 244.82 111.30 241.44 111.91 240.34 110.41 Z" />
<path fill="#ffffff" opacity="1.00" d=" M 160.85 111.25 C 162.18 109.85 163.98 112.25 162.74 113.43 C 161.42 114.81 159.58 112.41 160.85 111.25 Z" />
<path fill="#ffffff" opacity="1.00" d=" M 164.00 111.16 C 165.40 110.05 166.53 112.58 165.43 113.49 C 164.04 114.61 162.86 112.06 164.00 111.16 Z" />
<path fill="#ffffff" opacity="1.00" d=" M 211.25 112.13 C 212.83 112.12 214.41 112.12 216.00 112.12 C 216.00 114.02 216.00 115.92 216.00 117.82 C 214.41 117.82 212.83 117.82 211.25 117.82 C 211.25 115.92 211.25 114.02 211.25 112.13 Z" />
<path fill="#ffffff" opacity="1.00" d=" M 118.98 114.76 C 121.04 114.76 123.09 114.76 125.15 114.78 C 124.14 116.22 123.11 117.66 122.07 119.09 C 121.03 117.65 120.01 116.21 118.98 114.76 Z" />
<path fill="#ffffff" opacity="1.00" d=" M 160.97 115.15 C 162.58 114.63 163.12 115.19 162.60 116.85 C 160.99 117.36 160.44 116.79 160.97 115.15 Z" />
<path fill="#ffffff" opacity="1.00" d=" M 163.93 115.08 C 165.52 114.64 166.02 115.25 165.42 116.91 C 163.83 117.34 163.33 116.73 163.93 115.08 Z" />
</g>
<g id="#049bfdff">
<path fill="#049bfd" opacity="1.00" d=" M 38.26 44.21 C 39.77 43.63 42.09 41.67 43.05 43.97 C 47.49 51.07 51.10 58.67 55.21 65.97 C 58.75 64.43 62.14 61.94 66.07 61.67 C 67.85 63.62 68.89 66.08 70.06 68.42 C 66.77 71.32 62.63 72.90 58.75 74.82 C 59.82 76.45 61.47 77.90 61.68 79.95 C 61.70 82.26 60.85 84.48 60.88 86.80 C 63.34 88.49 68.13 89.03 67.55 93.02 C 61.20 107.30 43.74 114.81 28.79 111.20 C 24.64 110.02 21.36 106.21 20.62 101.98 C 19.92 99.26 20.97 96.55 21.51 93.90 C 18.56 95.24 15.83 97.99 12.41 97.65 C 10.92 95.44 9.30 93.05 9.13 90.31 C 12.38 87.78 16.20 86.13 19.84 84.26 C 16.55 78.21 13.54 72.02 10.19 66.00 C 9.28 64.22 8.09 62.42 8.12 60.33 C 17.93 54.55 28.28 49.71 38.26 44.21 M 52.59 90.62 C 50.37 91.87 50.50 95.13 52.46 96.57 C 54.13 96.98 56.52 96.95 57.02 94.88 C 58.77 92.25 55.14 89.16 52.59 90.62 Z" />
<path fill="#049bfd" opacity="1.00" d=" M 40.16 117.41 C 48.99 112.73 57.31 107.11 66.36 102.85 C 65.68 109.86 64.29 116.78 63.10 123.71 C 50.44 123.80 37.77 123.81 25.11 123.64 C 24.52 119.65 24.02 115.64 23.76 111.61 C 29.31 113.29 34.65 115.58 40.16 117.41 Z" />
</g>
<g id="#1b2337ff">
<path fill="#1b2337" opacity="1.00" d=" M 91.90 56.51 C 98.48 56.04 105.10 56.24 111.69 56.36 C 114.30 62.63 116.21 69.16 118.38 75.60 C 116.84 75.73 115.30 75.86 113.76 76.03 C 113.62 80.15 114.08 84.33 113.44 88.42 C 109.27 89.78 104.81 89.01 100.56 88.55 C 100.47 87.25 100.38 85.95 100.31 84.64 C 102.27 84.63 104.23 84.62 106.19 84.60 C 106.19 81.83 106.19 79.05 106.18 76.28 C 102.53 76.24 98.89 76.25 95.25 76.25 C 95.25 81.71 95.25 87.17 95.25 92.63 C 101.74 92.63 108.23 92.61 114.72 92.65 C 114.63 93.64 114.43 95.62 114.34 96.61 C 105.42 97.19 96.47 97.22 87.57 96.57 C 87.08 89.91 87.67 83.23 87.24 76.58 C 86.87 76.17 86.11 75.35 85.73 74.93 C 87.77 68.79 89.89 62.67 91.90 56.51 M 94.71 71.80 C 99.48 71.81 104.26 71.84 109.03 71.77 C 107.92 68.04 106.79 64.31 105.57 60.61 C 103.22 60.62 100.87 60.62 98.52 60.61 C 97.23 64.33 95.81 68.01 94.71 71.80 Z" />
<path fill="#1b2337" opacity="1.00" d=" M 128.12 56.25 C 130.75 56.25 133.37 56.25 136.00 56.25 C 135.76 69.69 136.49 83.18 135.62 96.60 C 130.69 97.37 125.72 96.97 120.78 96.70 C 120.58 95.40 120.39 94.09 120.20 92.78 C 122.84 92.75 125.49 92.75 128.13 92.75 C 128.12 80.58 128.13 68.42 128.12 56.25 Z" />
<path fill="#1b2337" opacity="1.00" d=" M 165.01 56.25 C 167.54 56.25 170.08 56.25 172.61 56.24 C 172.62 56.78 172.63 57.84 172.64 58.38 C 178.83 58.55 185.06 58.01 191.23 58.65 C 192.90 61.42 191.97 64.82 192.21 67.88 C 191.02 67.93 189.83 67.97 188.64 68.01 C 187.48 72.80 182.33 74.29 178.59 76.55 C 183.78 77.04 188.98 77.17 194.18 77.20 C 193.94 78.57 193.69 79.93 193.44 81.29 C 185.21 81.72 176.97 81.15 168.87 79.63 C 160.53 80.73 151.95 82.45 143.57 80.73 C 143.54 79.52 143.51 78.32 143.49 77.12 C 148.79 77.22 154.10 77.10 159.39 76.59 C 157.53 75.67 155.70 74.69 153.91 73.65 C 151.79 73.63 149.66 73.63 147.54 73.63 C 148.80 71.79 150.02 69.93 151.23 68.06 C 149.36 68.03 147.49 68.00 145.62 67.97 C 145.63 65.28 145.49 62.58 145.74 59.89 C 146.01 58.75 146.74 58.26 147.91 58.42 C 153.52 58.29 159.13 58.41 164.74 58.40 C 164.81 57.86 164.94 56.79 165.01 56.25 M 152.32 63.10 C 155.05 64.07 157.97 64.17 160.85 64.23 C 160.58 64.70 160.05 65.65 159.79 66.12 C 167.94 66.13 176.09 66.13 184.25 66.12 C 184.25 65.28 184.25 63.59 184.25 62.75 C 173.61 62.95 162.93 62.32 152.32 63.10 M 156.50 70.47 C 160.56 72.09 164.69 73.70 169.03 74.39 C 173.29 73.65 177.35 72.06 181.36 70.49 C 173.07 70.29 164.78 70.33 156.50 70.47 Z" />
<path fill="#1b2337" opacity="1.00" d=" M 232.75 56.25 C 234.66 56.25 236.58 56.25 238.50 56.25 C 238.50 58.25 238.50 60.25 238.50 62.25 C 243.13 62.27 247.76 62.20 252.39 62.31 C 251.95 63.53 251.82 64.94 250.96 65.96 C 246.82 66.33 242.65 66.05 238.50 66.12 C 238.50 68.62 238.50 71.12 238.50 73.63 C 242.24 73.62 245.98 73.58 249.72 73.74 C 250.38 81.38 250.31 89.10 249.78 96.75 C 242.28 96.71 234.76 97.44 227.29 96.67 C 227.30 89.04 226.62 81.36 227.45 73.75 C 229.22 73.68 230.99 73.63 232.76 73.58 C 232.74 67.81 232.75 62.03 232.75 56.25 M 233.00 77.88 C 233.00 82.83 233.00 87.79 233.00 92.75 C 236.73 92.75 240.46 92.77 244.19 92.69 C 244.18 87.76 244.19 82.82 244.19 77.89 C 240.46 77.87 236.73 77.88 233.00 77.88 Z" />
<path fill="#1b2337" opacity="1.00" d=" M 202.73 58.57 C 209.45 58.17 216.22 58.38 222.95 58.45 C 224.99 58.15 225.01 60.52 225.00 61.92 C 225.03 70.34 224.98 78.76 225.00 87.19 C 222.93 87.19 220.87 87.18 218.81 87.18 C 218.81 79.00 218.81 70.81 218.81 62.63 C 215.17 62.62 211.52 62.63 207.88 62.63 C 207.88 70.81 207.88 79.00 207.88 87.19 C 205.83 87.19 203.79 87.19 201.75 87.18 C 201.85 78.06 201.55 68.93 201.88 59.81 C 202.09 59.50 202.52 58.88 202.73 58.57 Z" />
<path fill="#1b2337" opacity="1.00" d=" M 118.55 63.80 C 121.10 63.93 123.65 64.11 126.20 64.23 C 126.17 72.57 126.19 80.90 126.19 89.24 C 123.62 89.25 121.06 89.25 118.50 89.25 C 118.52 80.77 118.38 72.28 118.55 63.80 Z" />
<path fill="#1b2337" opacity="1.00" d=" M 209.25 66.13 C 211.29 66.13 213.33 66.13 215.37 66.13 C 215.27 73.44 215.59 80.76 215.22 88.06 C 214.60 94.96 206.28 97.50 200.38 96.80 C 200.08 95.51 199.80 94.23 199.53 92.94 C 203.43 93.07 208.58 91.92 209.18 87.28 C 209.38 80.23 209.18 73.18 209.25 66.13 Z" />
<path fill="#1b2337" opacity="1.00" d=" M 149.68 83.71 C 161.10 83.23 172.54 83.65 183.96 83.48 C 185.88 83.60 187.99 83.16 189.77 84.08 C 190.47 88.23 190.15 92.49 189.76 96.66 C 179.84 97.67 169.88 96.37 159.94 97.01 C 156.51 97.28 153.07 97.02 149.66 96.58 C 149.42 92.29 149.41 87.99 149.68 83.71 M 157.00 87.57 C 157.00 89.33 157.00 91.11 157.00 92.88 C 165.46 92.88 173.92 92.88 182.38 92.88 C 182.38 91.11 182.37 89.34 182.38 87.57 C 173.92 87.56 165.46 87.57 157.00 87.57 Z" />
<path fill="#1b2337" opacity="1.00" d=" M 219.49 89.55 C 221.29 88.74 223.84 89.34 224.59 91.32 C 225.73 93.69 223.90 97.35 221.02 96.86 C 217.10 97.05 215.60 90.97 219.49 89.55 Z" />
<path fill="#1b2337" opacity="1.00" d=" M 157.97 111.08 C 159.49 108.77 160.93 106.41 162.34 104.03 C 162.57 104.69 163.01 105.99 163.24 106.65 C 164.10 106.66 165.82 106.70 166.68 106.72 C 166.15 107.59 165.62 108.46 165.08 109.33 C 165.56 109.66 166.51 110.34 166.98 110.68 C 167.24 113.81 167.02 116.96 167.16 120.10 C 167.54 122.04 166.30 123.95 164.12 124.04 C 165.17 121.95 165.83 119.69 165.16 117.36 C 164.35 119.11 163.73 120.93 163.01 122.72 C 162.84 121.26 162.70 119.79 162.56 118.32 C 162.17 118.39 161.38 118.52 160.99 118.59 C 160.55 120.70 160.03 122.87 158.60 124.56 C 159.26 120.17 159.91 115.76 159.67 111.30 C 159.24 111.24 158.40 111.13 157.97 111.08 M 161.20 108.34 C 159.75 109.94 162.87 110.87 163.74 109.62 C 165.09 107.99 162.06 106.94 161.20 108.34 M 160.85 111.25 C 159.58 112.41 161.42 114.81 162.74 113.43 C 163.98 112.25 162.18 109.85 160.85 111.25 M 164.00 111.16 C 162.86 112.06 164.04 114.61 165.43 113.49 C 166.53 112.58 165.40 110.05 164.00 111.16 M 160.97 115.15 C 160.44 116.79 160.99 117.36 162.60 116.85 C 163.12 115.19 162.58 114.63 160.97 115.15 M 163.93 115.08 C 163.33 116.73 163.83 117.34 165.42 116.91 C 166.02 115.25 165.52 114.64 163.93 115.08 Z" />
<path fill="#1b2337" opacity="1.00" d=" M 171.16 108.26 C 171.61 106.74 171.89 105.18 172.16 103.62 C 172.43 105.16 172.70 106.70 172.99 108.24 C 173.79 108.25 175.39 108.28 176.19 108.30 C 176.18 110.95 176.22 113.60 176.15 116.26 C 175.01 116.27 173.88 116.28 172.74 116.31 C 172.75 117.41 172.76 119.61 172.76 120.72 C 173.50 120.63 174.24 120.51 174.97 120.35 C 174.99 119.69 175.02 118.35 175.04 117.68 C 177.10 118.96 177.11 122.14 177.47 124.40 C 176.73 123.53 175.99 122.66 175.27 121.79 C 172.88 121.91 170.18 123.11 167.94 121.88 C 168.68 120.94 169.87 120.49 171.52 120.51 C 171.51 119.13 171.50 117.75 171.50 116.38 C 170.68 116.38 169.06 116.38 168.25 116.38 C 168.25 113.67 168.25 110.96 168.25 108.25 C 168.98 108.25 170.43 108.26 171.16 108.26 M 169.38 109.89 C 169.54 112.04 169.08 114.56 171.18 115.96 C 171.40 113.93 171.51 111.90 171.59 109.87 C 171.04 109.88 169.93 109.89 169.38 109.89 M 172.75 109.88 C 172.75 111.54 172.75 113.21 172.75 114.87 C 173.26 114.88 174.29 114.88 174.80 114.88 C 174.81 113.21 174.81 111.54 174.82 109.88 C 174.30 109.88 173.27 109.88 172.75 109.88 Z" />
<path fill="#1b2337" opacity="1.00" d=" M 87.19 104.98 C 89.57 105.95 91.10 108.15 91.26 110.73 C 89.61 109.06 87.65 107.39 87.19 104.98 Z" />
<path fill="#1b2337" opacity="1.00" d=" M 96.25 120.94 C 96.55 115.17 95.51 109.25 96.99 103.61 C 97.95 105.82 97.88 108.25 97.97 110.61 C 100.15 110.73 102.33 110.83 104.50 111.03 C 102.64 112.29 100.31 112.29 98.15 112.35 C 97.95 115.10 97.76 117.86 97.87 120.62 C 100.50 121.18 103.25 121.08 105.82 121.97 C 100.73 123.41 95.19 123.04 90.01 122.20 C 91.89 121.00 94.14 121.17 96.25 120.94 Z" />
<path fill="#1b2337" opacity="1.00" d=" M 111.52 104.73 C 113.49 106.07 115.19 107.80 116.16 110.01 C 113.39 109.73 112.26 107.03 111.52 104.73 Z" />
<path fill="#1b2337" opacity="1.00" d=" M 118.75 105.90 C 120.97 105.76 123.20 105.75 125.42 105.91 C 125.47 107.33 125.51 108.76 125.57 110.18 C 126.58 110.42 128.59 110.90 129.60 111.14 C 127.94 111.65 126.20 111.76 124.48 111.94 C 124.21 110.37 123.97 108.81 123.74 107.24 C 122.61 107.22 121.47 107.19 120.34 107.15 C 120.00 109.29 119.63 111.58 117.38 112.58 C 120.60 113.30 123.93 112.82 127.18 113.27 C 126.15 115.59 124.90 117.80 123.46 119.90 C 125.51 120.98 128.21 121.52 129.15 123.93 C 126.50 123.57 124.22 122.17 122.03 120.74 C 120.14 121.94 118.18 123.06 116.05 123.80 C 114.74 123.53 113.57 122.84 112.32 122.42 C 112.68 119.37 112.62 116.30 112.68 113.24 C 111.73 113.04 109.85 112.63 108.91 112.43 C 110.67 111.80 112.52 111.62 114.36 111.42 C 114.38 114.25 114.37 117.08 114.34 119.92 C 115.53 119.44 116.73 118.97 117.94 118.52 C 117.30 119.38 116.02 121.08 115.39 121.93 C 117.20 121.31 119.03 120.71 120.83 120.03 C 119.00 117.46 117.25 114.79 115.98 111.89 C 118.20 110.63 118.64 108.23 118.75 105.90 M 118.98 114.76 C 120.01 116.21 121.03 117.65 122.07 119.09 C 123.11 117.66 124.14 116.22 125.15 114.78 C 123.09 114.76 121.04 114.76 118.98 114.76 Z" />
<path fill="#1b2337" opacity="1.00" d=" M 135.89 104.75 C 138.10 105.71 140.43 107.72 139.41 110.37 C 138.14 108.56 136.89 106.73 135.89 104.75 Z" />
<path fill="#1b2337" opacity="1.00" d=" M 145.81 111.90 C 145.88 109.21 145.64 106.40 146.97 103.94 C 147.40 106.57 147.40 109.24 147.43 111.89 C 149.32 111.88 151.22 111.88 153.12 111.87 L 153.13 113.56 C 151.21 113.56 149.29 113.56 147.38 113.57 C 147.38 116.95 147.37 120.34 147.38 123.73 L 145.88 123.76 C 145.88 120.36 145.88 116.96 145.88 113.56 C 144.13 113.56 142.38 113.56 140.63 113.56 L 140.63 111.87 C 142.35 111.88 144.08 111.88 145.81 111.90 Z" />
<path fill="#1b2337" opacity="1.00" d=" M 184.41 106.80 C 189.81 106.67 195.19 106.15 200.59 105.89 C 198.55 107.64 195.72 107.57 193.18 107.83 C 193.19 108.72 193.19 110.49 193.19 111.37 C 195.34 111.37 197.50 111.38 199.65 111.39 C 199.65 111.72 199.65 112.40 199.65 112.74 C 197.48 112.75 195.30 112.75 193.14 112.76 C 193.18 113.62 193.27 115.33 193.32 116.19 C 195.99 116.14 198.67 116.01 201.34 115.84 C 201.40 116.28 201.52 117.17 201.58 117.61 C 198.83 117.62 196.08 117.63 193.33 117.61 C 193.04 119.49 193.61 121.73 192.22 123.28 C 190.71 123.66 189.27 123.51 187.91 122.81 C 190.86 122.39 191.57 120.23 191.49 117.66 C 188.39 117.23 184.77 118.55 182.02 116.72 C 184.96 115.56 188.16 115.89 191.25 115.86 C 191.25 115.09 191.25 113.56 191.25 112.80 C 188.68 112.74 185.97 113.03 183.60 111.85 C 186.20 111.36 188.86 111.35 191.50 111.29 C 191.39 110.51 191.16 108.94 191.05 108.15 C 188.92 107.87 186.76 108.15 184.63 108.23 C 184.57 107.87 184.47 107.15 184.41 106.80 Z" />
<path fill="#1b2337" opacity="1.00" d=" M 230.94 111.18 C 232.57 108.58 234.75 106.36 237.26 104.59 C 236.47 107.66 234.12 110.48 230.94 111.18 Z" />
<path fill="#1b2337" opacity="1.00" d=" M 207.46 106.27 C 213.51 106.24 219.57 106.24 225.63 106.26 C 225.65 106.59 225.67 107.25 225.69 107.59 C 225.02 107.60 223.67 107.63 223.00 107.65 C 222.97 112.79 223.10 117.95 222.86 123.09 C 221.48 123.27 220.11 123.44 218.73 123.63 C 218.67 123.17 218.55 122.26 218.49 121.81 C 219.17 121.75 220.55 121.63 221.24 121.57 C 221.25 116.92 221.25 112.27 221.25 107.63 C 216.67 107.62 212.08 107.63 207.50 107.62 C 207.49 107.28 207.47 106.60 207.46 106.27 Z" />
<path fill="#1b2337" opacity="1.00" d=" M 238.49 112.38 C 238.49 110.19 238.50 108.00 238.52 105.81 C 241.80 105.81 245.08 105.81 248.36 105.82 C 248.37 108.00 248.37 110.18 248.38 112.36 C 245.08 112.38 241.79 112.38 238.49 112.38 M 240.20 108.50 C 242.35 108.50 244.51 108.50 246.67 108.50 C 246.62 108.07 246.52 107.22 246.48 106.80 C 244.46 106.81 242.45 106.81 240.44 106.79 C 240.38 107.22 240.26 108.07 240.20 108.50 M 240.34 110.41 C 241.44 111.91 244.82 111.30 246.57 110.80 C 245.44 109.29 242.07 109.75 240.34 110.41 Z" />
<path fill="#1b2337" opacity="1.00" d=" M 230.54 117.55 C 232.34 114.52 234.65 111.81 237.20 109.39 C 234.93 113.89 235.50 118.94 235.51 123.81 C 235.10 123.81 234.27 123.81 233.86 123.82 C 233.87 121.12 233.88 118.43 233.93 115.74 C 232.82 116.38 231.69 116.99 230.54 117.55 Z" />
<path fill="#1b2337" opacity="1.00" d=" M 85.48 111.63 C 86.92 111.63 88.37 111.62 89.81 111.62 C 89.81 114.43 89.81 117.23 89.79 120.04 C 90.96 119.29 92.14 118.58 93.34 117.88 C 92.47 120.37 90.09 121.75 88.32 123.54 C 88.44 120.10 88.53 116.65 88.52 113.20 C 87.77 113.20 86.26 113.19 85.51 113.18 C 85.50 112.80 85.49 112.02 85.48 111.63 Z" />
<path fill="#1b2337" opacity="1.00" d=" M 133.16 112.28 C 134.89 111.42 136.82 111.35 138.71 111.20 C 138.76 114.14 138.75 117.08 138.74 120.03 C 140.33 119.15 141.91 118.27 143.55 117.49 C 142.12 120.26 139.22 121.65 136.88 123.51 C 137.05 120.03 137.17 116.54 137.16 113.06 C 136.16 112.87 134.16 112.48 133.16 112.28 Z" />
<path fill="#1b2337" opacity="1.00" d=" M 209.81 110.65 C 212.37 110.63 214.93 110.62 217.50 110.62 C 217.50 113.50 217.50 116.37 217.50 119.25 C 214.93 119.25 212.37 119.25 209.81 119.24 C 209.81 116.37 209.81 113.51 209.81 110.65 M 211.25 112.13 C 211.25 114.02 211.25 115.92 211.25 117.82 C 212.83 117.82 214.41 117.82 216.00 117.82 C 216.00 115.92 216.00 114.02 216.00 112.12 C 214.41 112.12 212.83 112.12 211.25 112.13 Z" />
<path fill="#1b2337" opacity="1.00" d=" M 237.73 114.15 C 241.45 114.18 245.17 114.04 248.89 113.81 L 248.81 114.62 C 248.04 115.13 247.36 115.74 246.76 116.43 C 247.59 116.61 249.25 116.97 250.08 117.14 L 250.17 118.37 C 249.44 118.37 248.00 118.37 247.27 118.37 C 247.24 120.09 247.20 121.81 247.17 123.53 C 245.54 123.45 243.92 123.63 242.31 123.34 C 244.90 122.77 246.05 120.96 246.08 118.47 C 242.97 118.36 239.86 118.37 236.75 118.38 L 236.78 116.82 C 240.20 116.72 243.76 117.28 247.03 115.99 C 244.04 114.96 240.87 115.26 237.77 115.23 L 237.73 114.15 Z" />
<path fill="#1b2337" opacity="1.00" d=" M 239.24 119.41 C 239.87 117.34 243.90 120.79 241.94 121.77 C 240.69 121.67 239.58 120.57 239.24 119.41 Z" />
</g>
</svg>
