<?xml version="1.0" encoding="UTF-8" ?>
<!DOCTYPE svg PUBLIC "-//W3C//DTD SVG 1.1//EN" "http://www.w3.org/Graphics/SVG/1.1/DTD/svg11.dtd">
<svg width="270pt" height="170pt" viewBox="0 0 270 170" version="1.1" xmlns="http://www.w3.org/2000/svg">
<g id="#ffffffff">
<path fill="#ffffff" opacity="1.00" d=" M 0.00 0.00 L 270.00 0.00 L 270.00 170.00 L 0.00 170.00 L 0.00 0.00 M 13.92 65.99 C 10.46 70.25 9.10 75.64 7.24 80.69 C 7.03 84.63 7.00 88.58 7.28 92.52 C 9.15 95.96 9.87 99.88 11.78 103.30 C 15.09 109.35 20.53 114.06 26.67 117.11 C 29.67 118.63 32.99 119.38 35.99 120.90 C 44.24 121.64 52.88 120.52 60.01 116.07 C 71.18 109.33 78.19 96.02 76.64 82.95 C 75.35 70.35 66.40 59.04 54.63 54.51 C 40.49 48.84 22.99 53.74 13.92 65.99 M 221.67 65.65 C 217.02 68.67 211.47 69.56 206.14 70.55 C 205.57 72.01 205.82 73.64 205.68 75.17 C 209.64 74.76 213.59 75.30 217.41 76.38 C 223.47 78.13 229.71 76.11 235.88 76.84 C 241.88 77.47 247.57 75.21 253.47 74.67 C 253.72 73.29 253.56 71.90 253.39 70.54 C 247.86 69.73 242.11 68.77 237.35 65.64 C 235.01 64.23 232.87 62.11 229.99 61.97 C 226.72 61.64 224.30 64.18 221.67 65.65 M 104.04 67.78 C 102.90 70.60 99.74 71.64 98.03 74.00 C 96.75 76.37 97.40 79.14 97.50 81.69 C 99.39 80.72 101.29 79.17 103.48 80.27 C 109.70 82.26 116.36 79.48 122.53 81.51 C 124.07 83.49 124.23 88.21 120.95 88.39 C 114.75 89.00 108.39 87.70 102.28 89.10 C 99.26 89.83 99.22 93.49 99.22 95.97 C 99.34 99.28 98.76 102.77 100.02 105.92 C 100.90 108.28 103.64 109.10 105.93 109.01 C 116.61 109.02 127.29 108.97 137.97 109.03 C 139.97 108.95 142.23 109.20 143.91 107.87 C 145.83 106.61 144.89 104.02 145.08 102.14 C 133.43 102.99 121.74 103.47 110.06 103.17 C 108.15 103.23 105.31 102.51 105.91 100.00 C 106.23 98.09 105.21 95.41 107.09 94.11 C 113.72 93.87 120.36 94.02 127.00 94.03 C 129.57 93.86 128.42 97.88 130.52 98.54 C 135.83 100.73 142.88 97.03 143.50 91.18 C 144.17 84.79 143.31 78.34 144.14 71.96 C 144.51 69.32 144.26 65.24 140.85 64.85 C 133.59 64.75 126.32 64.81 119.06 65.13 C 115.37 65.33 112.11 63.52 108.79 62.24 C 105.60 62.14 105.17 65.58 104.04 67.78 M 172.77 65.94 C 172.79 77.16 172.49 88.39 172.41 99.61 C 172.21 103.72 167.37 102.78 164.58 102.77 C 164.55 104.84 163.25 107.30 164.66 109.09 C 168.62 110.08 173.00 110.21 176.86 108.75 C 179.56 107.76 180.01 104.56 180.00 102.06 C 180.01 90.01 180.02 77.95 179.99 65.90 C 181.08 61.07 171.66 61.14 172.77 65.94 M 156.05 71.84 C 156.22 82.58 154.34 93.23 151.38 103.53 C 153.22 103.63 155.09 103.88 156.94 103.61 C 158.69 103.27 159.14 101.35 159.58 99.90 C 162.03 90.79 163.02 81.32 162.99 71.92 C 163.96 67.52 155.40 67.53 156.05 71.84 M 188.34 70.96 C 189.58 81.28 190.68 91.64 192.15 101.92 C 192.91 105.27 196.89 103.42 199.26 103.59 C 198.50 93.65 196.78 83.80 195.88 73.86 C 195.52 72.00 195.85 68.66 193.09 68.76 C 191.37 68.77 187.76 68.13 188.34 70.96 M 209.25 79.27 C 207.32 81.67 208.54 85.19 208.28 88.04 C 207.89 90.20 210.19 91.12 211.96 90.97 C 223.91 90.47 235.88 90.96 247.83 90.65 C 250.94 90.87 250.95 87.18 250.97 85.01 C 250.74 83.10 251.27 80.72 249.73 79.26 C 242.84 78.64 235.89 79.20 228.97 79.01 C 222.40 79.27 215.77 78.52 209.25 79.27 M 207.70 96.41 C 207.10 100.40 206.26 104.34 205.49 108.30 C 209.16 109.88 213.15 108.84 216.99 108.99 C 227.98 109.10 238.98 108.79 249.97 109.21 C 251.54 109.17 253.81 108.92 253.95 106.92 C 252.61 103.76 251.36 100.50 251.93 96.98 C 252.59 94.61 249.96 93.51 248.02 93.75 C 236.67 93.73 225.31 93.74 213.95 93.75 C 211.76 93.96 208.16 93.46 207.70 96.41 Z" />
<path fill="#ffffff" opacity="1.00" d=" M 27.27 66.35 C 30.93 64.72 34.31 62.50 38.06 61.07 C 40.58 59.94 42.78 61.98 44.73 63.28 C 38.75 66.49 32.58 69.32 26.64 72.57 C 31.18 74.99 35.91 77.05 40.42 79.51 C 42.45 80.54 42.52 83.04 42.51 85.02 C 42.50 91.02 42.52 97.02 42.44 103.02 C 40.42 102.16 37.26 101.88 36.89 99.15 C 37.13 94.47 38.57 89.37 36.01 85.04 C 33.29 80.01 27.55 78.24 22.60 76.24 C 20.18 75.40 20.06 72.17 20.87 70.14 C 22.56 68.27 25.10 67.52 27.27 66.35 Z" />
<path fill="#ffffff" opacity="1.00" d=" M 220.62 72.48 C 223.54 70.63 226.30 67.91 229.93 67.72 C 233.07 68.34 235.48 70.66 238.02 72.44 C 232.22 72.53 226.42 72.48 220.62 72.48 Z" />
<path fill="#ffffff" opacity="1.00" d=" M 110.71 70.79 C 113.40 70.04 116.24 70.60 118.99 70.50 C 124.78 70.66 130.58 70.24 136.35 70.67 C 138.05 71.44 137.47 73.54 137.57 75.03 C 137.28 80.11 137.81 85.23 137.29 90.29 C 135.97 93.21 132.31 92.48 129.75 92.45 C 129.46 87.96 130.18 83.48 130.17 78.99 C 129.97 75.97 126.58 74.97 124.04 75.25 C 118.28 75.70 112.49 75.89 106.71 75.66 C 107.81 73.90 108.51 71.49 110.71 70.79 Z" />
<path fill="#ffffff" opacity="1.00" d=" M 20.66 79.48 C 24.64 80.67 29.24 81.62 31.88 85.14 C 34.16 89.12 32.96 93.91 32.68 98.23 C 30.52 97.93 26.83 94.46 26.00 98.08 C 31.03 102.22 37.18 106.18 44.00 105.51 C 51.48 104.97 56.58 98.46 63.79 96.95 C 63.91 98.89 65.11 101.65 62.70 102.67 C 56.40 105.94 49.95 108.94 43.59 112.09 C 35.47 109.96 27.86 106.18 20.80 101.70 C 20.33 94.31 20.44 86.88 20.66 79.48 M 24.51 85.60 C 24.54 87.05 24.64 88.49 24.82 89.93 C 25.63 91.38 27.45 91.62 28.82 92.31 C 28.82 90.40 28.78 88.49 28.68 86.58 C 27.29 86.25 25.90 85.92 24.51 85.60 Z" />
<path fill="#ffffff" opacity="1.00" d=" M 215.00 83.20 C 224.78 83.30 234.56 83.14 244.34 83.35 C 243.81 84.42 244.78 87.06 242.95 86.86 C 233.98 87.13 224.97 87.10 216.00 86.88 C 213.79 87.03 214.45 84.41 215.00 83.20 Z" />
<path fill="#ffffff" opacity="1.00" d=" M 214.38 98.49 C 216.35 98.12 218.44 98.08 220.38 98.61 C 221.69 100.07 221.37 102.18 220.63 103.83 C 218.40 104.31 215.72 104.73 213.65 103.59 C 212.95 102.02 212.43 99.34 214.38 98.49 Z" />
<path fill="#ffffff" opacity="1.00" d=" M 226.51 98.60 C 228.43 98.09 230.50 98.13 232.44 98.55 C 234.06 99.90 233.57 102.20 232.89 103.90 C 230.55 104.27 227.42 105.02 225.63 103.01 C 225.50 101.50 225.07 99.64 226.51 98.60 Z" />
<path fill="#ffffff" opacity="1.00" d=" M 238.03 100.96 C 237.94 97.39 242.27 98.20 244.63 98.44 C 247.01 98.98 245.91 102.03 245.91 103.74 C 243.16 104.25 237.40 105.50 238.03 100.96 Z" />
</g>
<g id="#fe610dff">
<path fill="#fe610d" opacity="1.00" d=" M 13.92 65.99 C 22.99 53.74 40.49 48.84 54.63 54.51 C 66.40 59.04 75.35 70.35 76.64 82.95 C 78.19 96.02 71.18 109.33 60.01 116.07 C 52.88 120.52 44.24 121.64 35.99 120.90 C 32.99 119.38 29.67 118.63 26.67 117.11 C 20.53 114.06 15.09 109.35 11.78 103.30 C 9.87 99.88 9.15 95.96 7.28 92.52 C 7.00 88.58 7.03 84.63 7.24 80.69 C 9.10 75.64 10.46 70.25 13.92 65.99 M 27.27 66.35 C 25.10 67.52 22.56 68.27 20.87 70.14 C 20.06 72.17 20.18 75.40 22.60 76.24 C 27.55 78.24 33.29 80.01 36.01 85.04 C 38.57 89.37 37.13 94.47 36.89 99.15 C 37.26 101.88 40.42 102.16 42.44 103.02 C 42.52 97.02 42.50 91.02 42.51 85.02 C 42.52 83.04 42.45 80.54 40.42 79.51 C 35.91 77.05 31.18 74.99 26.64 72.57 C 32.58 69.32 38.75 66.49 44.73 63.28 C 42.78 61.98 40.58 59.94 38.06 61.07 C 34.31 62.50 30.93 64.72 27.27 66.35 M 20.66 79.48 C 20.44 86.88 20.33 94.31 20.80 101.70 C 27.86 106.18 35.47 109.96 43.59 112.09 C 49.95 108.94 56.40 105.94 62.70 102.67 C 65.11 101.65 63.91 98.89 63.79 96.95 C 56.58 98.46 51.48 104.97 44.00 105.51 C 37.18 106.18 31.03 102.22 26.00 98.08 C 26.83 94.46 30.52 97.93 32.68 98.23 C 32.96 93.91 34.16 89.12 31.88 85.14 C 29.24 81.62 24.64 80.67 20.66 79.48 Z" />
<path fill="#fe610d" opacity="1.00" d=" M 24.51 85.60 C 25.90 85.92 27.29 86.25 28.68 86.58 C 28.78 88.49 28.82 90.40 28.82 92.31 C 27.45 91.62 25.63 91.38 24.82 89.93 C 24.64 88.49 24.54 87.05 24.51 85.60 Z" />
</g>
<g id="#262626ff">
<path fill="#262626" opacity="1.00" d=" M 221.67 65.65 C 224.30 64.18 226.72 61.64 229.99 61.97 C 232.87 62.11 235.01 64.23 237.35 65.64 C 242.11 68.77 247.86 69.73 253.39 70.54 C 253.56 71.90 253.72 73.29 253.47 74.67 C 247.57 75.21 241.88 77.47 235.88 76.84 C 229.71 76.11 223.47 78.13 217.41 76.38 C 213.59 75.30 209.64 74.76 205.68 75.17 C 205.82 73.64 205.57 72.01 206.14 70.55 C 211.47 69.56 217.02 68.67 221.67 65.65 M 220.62 72.48 C 226.42 72.48 232.22 72.53 238.02 72.44 C 235.48 70.66 233.07 68.34 229.93 67.72 C 226.30 67.91 223.54 70.63 220.62 72.48 Z" />
<path fill="#262626" opacity="1.00" d=" M 104.04 67.78 C 105.17 65.58 105.60 62.14 108.79 62.24 C 112.11 63.52 115.37 65.33 119.06 65.13 C 126.32 64.81 133.59 64.75 140.85 64.85 C 144.26 65.24 144.51 69.32 144.14 71.96 C 143.31 78.34 144.17 84.79 143.50 91.18 C 142.88 97.03 135.83 100.73 130.52 98.54 C 128.42 97.88 129.57 93.86 127.00 94.03 C 120.36 94.02 113.72 93.87 107.09 94.11 C 105.21 95.41 106.23 98.09 105.91 100.00 C 105.31 102.51 108.15 103.23 110.06 103.17 C 121.74 103.47 133.43 102.99 145.08 102.14 C 144.89 104.02 145.83 106.61 143.91 107.87 C 142.23 109.20 139.97 108.95 137.97 109.03 C 127.29 108.97 116.61 109.02 105.93 109.01 C 103.64 109.10 100.90 108.28 100.02 105.92 C 98.76 102.77 99.34 99.28 99.22 95.97 C 99.22 93.49 99.26 89.83 102.28 89.10 C 108.39 87.70 114.75 89.00 120.95 88.39 C 124.23 88.21 124.07 83.49 122.53 81.51 C 116.36 79.48 109.70 82.26 103.48 80.27 C 101.29 79.17 99.39 80.72 97.50 81.69 C 97.40 79.14 96.75 76.37 98.03 74.00 C 99.74 71.64 102.90 70.60 104.04 67.78 M 110.71 70.79 C 108.51 71.49 107.81 73.90 106.71 75.66 C 112.49 75.89 118.28 75.70 124.04 75.25 C 126.58 74.97 129.97 75.97 130.17 78.99 C 130.18 83.48 129.46 87.96 129.75 92.45 C 132.31 92.48 135.97 93.21 137.29 90.29 C 137.81 85.23 137.28 80.11 137.57 75.03 C 137.47 73.54 138.05 71.44 136.35 70.67 C 130.58 70.24 124.78 70.66 118.99 70.50 C 116.24 70.60 113.40 70.04 110.71 70.79 Z" />
<path fill="#262626" opacity="1.00" d=" M 172.77 65.94 C 171.66 61.14 181.08 61.07 179.99 65.90 C 180.02 77.95 180.01 90.01 180.00 102.06 C 180.01 104.56 179.56 107.76 176.86 108.75 C 173.00 110.21 168.62 110.08 164.66 109.09 C 163.25 107.30 164.55 104.84 164.58 102.77 C 167.37 102.78 172.21 103.72 172.41 99.61 C 172.49 88.39 172.79 77.16 172.77 65.94 Z" />
<path fill="#262626" opacity="1.00" d=" M 156.05 71.84 C 155.40 67.53 163.96 67.52 162.99 71.92 C 163.02 81.32 162.03 90.79 159.58 99.90 C 159.14 101.35 158.69 103.27 156.94 103.61 C 155.09 103.88 153.22 103.63 151.38 103.53 C 154.34 93.23 156.22 82.58 156.05 71.84 Z" />
<path fill="#262626" opacity="1.00" d=" M 188.34 70.96 C 187.76 68.13 191.37 68.77 193.09 68.76 C 195.85 68.66 195.52 72.00 195.88 73.86 C 196.78 83.80 198.50 93.65 199.26 103.59 C 196.89 103.42 192.91 105.27 192.15 101.92 C 190.68 91.64 189.58 81.28 188.34 70.96 Z" />
<path fill="#262626" opacity="1.00" d=" M 209.25 79.27 C 215.77 78.52 222.40 79.27 228.97 79.01 C 235.89 79.20 242.84 78.64 249.73 79.26 C 251.27 80.72 250.74 83.10 250.97 85.01 C 250.95 87.18 250.94 90.87 247.83 90.65 C 235.88 90.96 223.91 90.47 211.96 90.97 C 210.19 91.12 207.89 90.20 208.28 88.04 C 208.54 85.19 207.32 81.67 209.25 79.27 M 215.00 83.20 C 214.45 84.41 213.79 87.03 216.00 86.88 C 224.97 87.10 233.98 87.13 242.95 86.86 C 244.78 87.06 243.81 84.42 244.34 83.35 C 234.56 83.14 224.78 83.30 215.00 83.20 Z" />
<path fill="#262626" opacity="1.00" d=" M 207.70 96.41 C 208.16 93.46 211.76 93.96 213.95 93.75 C 225.31 93.74 236.67 93.73 248.02 93.75 C 249.96 93.51 252.59 94.61 251.93 96.98 C 251.36 100.50 252.61 103.76 253.95 106.92 C 253.81 108.92 251.54 109.17 249.97 109.21 C 238.98 108.79 227.98 109.10 216.99 108.99 C 213.15 108.84 209.16 109.88 205.49 108.30 C 206.26 104.34 207.10 100.40 207.70 96.41 M 214.38 98.49 C 212.43 99.34 212.95 102.02 213.65 103.59 C 215.72 104.73 218.40 104.31 220.63 103.83 C 221.37 102.18 221.69 100.07 220.38 98.61 C 218.44 98.08 216.35 98.12 214.38 98.49 M 226.51 98.60 C 225.07 99.64 225.50 101.50 225.63 103.01 C 227.42 105.02 230.55 104.27 232.89 103.90 C 233.57 102.20 234.06 99.90 232.44 98.55 C 230.50 98.13 228.43 98.09 226.51 98.60 M 238.03 100.96 C 237.40 105.50 243.16 104.25 245.91 103.74 C 245.91 102.03 247.01 98.98 244.63 98.44 C 242.27 98.20 237.94 97.39 238.03 100.96 Z" />
</g>
</svg>
