<?xml version="1.0" encoding="utf-8"?>
<!-- Generator: Adobe Illustrator 24.0.1, SVG Export Plug-In . SVG Version: 6.00 Build 0)  -->
<svg version="1.1" id="图层_1" xmlns="http://www.w3.org/2000/svg" xmlns:xlink="http://www.w3.org/1999/xlink" x="0px" y="0px"
	 viewBox="0 0 270 170" style="enable-background:new 0 0 270 170;" xml:space="preserve">
<style type="text/css">
	.st0{fill:#FFFFFF;}
	.st1{fill:#882621;}
	.st2{font-family:'qiantuhouheiti';}
	.st3{font-size:45.6325px;}
	.st4{fill:#FEFEFC;}
	.st5{fill:#852723;}
	.st6{fill:#FEFDFC;}
	.st7{fill:#802926;}
	.st8{fill:#842726;}
	.st9{fill:#832827;}
	.st10{fill:#812924;}
	.st11{fill:#832824;}
	.st12{fill:#822822;}
	.st13{fill:#832C29;}
	.st14{fill:#872728;}
	.st15{fill:#822925;}
	.st16{fill:#812926;}
	.st17{fill:#822926;}
	.st18{fill:#842823;}
	.st19{fill:#832826;}
	.st20{fill:#822826;}
	.st21{fill:#822928;}
	.st22{fill:#842A25;}
	.st23{fill:#822825;}
	.st24{fill:#842825;}
	.st25{fill:#822927;}
	.st26{fill:#852824;}
	.st27{fill:#852927;}
	.st28{fill:#862F27;}
	.st29{fill:#88342E;}
	.st30{fill:#862E2A;}
	.st31{fill:#FDFDFB;}
	.st32{fill:#FCFAFA;}
	.st33{fill:#FBF9F9;}
	.st34{fill:#FCFCFC;}
	.st35{fill:#FCFAFB;}
	.st36{fill:#FBFBF7;}
	.st37{fill:#FDFCFA;}
</style>
<rect y="0" class="st0" width="270" height="170"/>
<text transform="matrix(1 0 0 1 76.8379 103.4436)" class="st1 st2 st3">北大教材</text>
<g>
	<path class="st4" d="M68.99,88.55c0,9.89,0,19.79,0.01,29.68c0,0.23-0.05,0.29-0.29,0.29c-19.81-0.01-39.62-0.01-59.43,0
		c-0.23,0-0.29-0.05-0.29-0.29c0.01-19.81,0.01-39.62,0-59.43c0-0.23,0.05-0.29,0.29-0.29c19.81,0.01,39.62,0.01,59.43,0
		c0.23,0,0.29,0.05,0.29,0.29C68.99,68.72,68.99,78.64,68.99,88.55z"/>
	<path class="st5" d="M68,88.33c0.03,15.98-13.03,29.06-29.17,28.97C22.97,117.2,9.79,104.2,10.05,87.81
		c0.24-15.66,13.11-28.64,29.31-28.48C55.1,59.49,68.02,72.34,68,88.33z"/>
	<path class="st6" d="M11.02,88.29c0.01-15.41,12.48-27.92,27.9-27.99c15.46-0.07,28.22,12.51,28.11,28.22
		c-0.1,15.23-12.43,27.68-27.78,27.8C23.64,116.44,11,103.81,11.02,88.29z"/>
	<path class="st7" d="M39.06,68.6c10.78-0.02,19.66,8.82,19.68,19.59c0.01,11.03-8.75,19.82-19.78,19.83
		c-10.8,0.01-19.63-8.83-19.64-19.68C19.3,77.42,28.1,68.62,39.06,68.6z"/>
	<path class="st8" d="M28.23,68.63c-0.55-0.85-1.08-1.68-1.61-2.51c-0.16-0.24-0.31-0.49-0.48-0.73c-0.11-0.16-0.07-0.25,0.09-0.35
		c0.49-0.31,0.39-0.37,0.73,0.15c0.8,1.24,1.6,2.48,2.41,3.71c0.14,0.21,0.11,0.31-0.09,0.46c-0.33,0.26-0.62,0.28-1.01,0.11
		c-1.32-0.57-2.67-1.1-4-1.65c-0.07-0.03-0.13-0.07-0.23-0.02c0.55,0.85,1.1,1.7,1.65,2.55c0.15,0.24,0.3,0.48,0.45,0.71
		c0.11,0.16,0.11,0.25-0.07,0.37c-0.45,0.28-0.44,0.29-0.72-0.14c-0.81-1.27-1.63-2.53-2.45-3.79c-0.11-0.16-0.1-0.26,0.06-0.35
		c0.13-0.07,0.26-0.14,0.37-0.23c0.17-0.14,0.32-0.14,0.51-0.05c1.35,0.57,2.7,1.13,4.05,1.69C27.97,68.59,28.06,68.67,28.23,68.63z
		"/>
	<path class="st9" d="M13.63,87.78c1.19,0.1,2.38,0.2,3.57,0.29c0.56,0.05,0.55,0.04,0.51,0.56c-0.02,0.21-0.09,0.26-0.29,0.25
		c-0.97-0.09-1.95-0.17-2.92-0.25c-0.6-0.05-1.2-0.1-1.8-0.14c-0.2-0.01-0.24-0.09-0.25-0.29c-0.03-0.52,0.19-0.81,0.66-1.06
		c1.2-0.63,2.37-1.34,3.55-2.01c0.07-0.04,0.15-0.07,0.2-0.19c-0.59-0.05-1.16-0.1-1.72-0.15c-0.69-0.06-1.39-0.12-2.08-0.17
		c-0.23-0.02-0.3-0.09-0.28-0.32c0.05-0.47,0.04-0.48,0.5-0.45c1.52,0.12,3.05,0.25,4.57,0.38c0.08,0.01,0.17,0.01,0.21,0.1
		c0.09,0.2-0.1,0.86-0.29,0.97c-1.18,0.68-2.35,1.36-3.53,2.04c-0.2,0.12-0.41,0.24-0.61,0.36C13.62,87.73,13.63,87.76,13.63,87.78z
		"/>
	<path class="st10" d="M13.75,80.38c0.03-0.95,0.45-1.84,1.36-2.46c0.31-0.21,0.67-0.27,1.04-0.26c0.16,0,0.23,0.04,0.17,0.23
		c-0.09,0.31-0.2,0.52-0.59,0.59c-0.83,0.13-1.44,1.14-1.33,2.09c0.1,0.87,0.69,1.31,1.43,1.61c0.52,0.2,1.05,0.32,1.61,0.16
		c0.77-0.22,1.2-1.09,1.28-1.84c0.07-0.68-0.29-1.24-0.92-1.56c-0.2-0.1-0.28-0.06-0.34,0.13c-0.14,0.4-0.3,0.8-0.42,1.21
		c-0.09,0.29-0.25,0.17-0.41,0.12c-0.16-0.05-0.28-0.1-0.19-0.32c0.24-0.63,0.47-1.27,0.68-1.91c0.07-0.22,0.16-0.26,0.38-0.17
		c0.71,0.27,1.43,0.51,2.14,0.76c0.12,0.04,0.26,0.07,0.19,0.25c-0.06,0.15-0.06,0.32-0.31,0.32c-0.43,0-0.43,0.01-0.32,0.45
		c0.34,1.36-0.56,2.97-1.9,3.37c-0.5,0.15-1.01,0.1-1.5-0.08c-0.8-0.29-1.49-0.73-1.86-1.55C13.8,81.2,13.76,80.86,13.75,80.38z"/>
	<path class="st11" d="M45.9,68c-0.26-0.05-0.52-0.1-0.78-0.16c-0.18-0.04-0.18-0.18-0.16-0.32c0.05-0.38,0.11-0.76,0.16-1.14
		c0.07-0.49-0.09-0.81-0.56-0.94c-0.65-0.17-1.32-0.29-1.98-0.44c-0.12-0.03-0.18,0.01-0.21,0.15c-0.11,0.59-0.25,1.18-0.36,1.77
		c-0.04,0.21-0.12,0.25-0.31,0.21c-0.54-0.1-0.55-0.09-0.44-0.63c0.3-1.47,0.61-2.93,0.9-4.39c0.04-0.2,0.13-0.25,0.29-0.21
		c0.99,0.23,2.01,0.35,2.98,0.66c1,0.32,1.38,1.25,0.88,2.1c-0.14,0.24-0.35,0.4-0.61,0.51c-0.1,0.04-0.23,0.08-0.08,0.2
		c0.34,0.29,0.34,0.67,0.29,1.06c-0.04,0.32-0.09,0.64-0.16,0.95c-0.05,0.22,0.04,0.38,0.2,0.52C45.94,67.95,45.92,67.97,45.9,68z"
		/>
	<path class="st12" d="M60.17,90.8c0-0.28,0-0.55,0-0.83c0-0.16,0.12-0.18,0.23-0.2c0.34-0.06,0.68-0.05,1.03-0.06
		c0.69-0.01,0.99-0.3,1-0.99c0.01-0.56-0.01-1.12,0.01-1.69c0.01-0.23-0.08-0.28-0.29-0.28c-0.56,0.01-1.12-0.01-1.69,0.01
		c-0.2,0-0.3-0.03-0.29-0.27c0.02-0.64-0.06-0.53,0.52-0.54c1.48-0.01,2.96,0.01,4.43-0.01c0.25,0,0.32,0.07,0.32,0.32
		c-0.01,0.84,0,1.69-0.01,2.53c0,0.43-0.07,0.86-0.31,1.23c-0.47,0.76-1.62,0.8-2.19,0.07c-0.12-0.16-0.18-0.25-0.33-0.01
		c-0.16,0.27-0.44,0.37-0.75,0.39c-0.32,0.03-0.64,0.05-0.97,0.06c-0.25,0.01-0.51-0.01-0.64,0.31
		C60.23,90.83,60.2,90.81,60.17,90.8z"/>
	<path class="st13" d="M36.19,64.47c0-0.78,0.01-1.56,0-2.34c0-0.19,0.04-0.28,0.26-0.28c1.23-0.03,2.46-0.07,3.68-0.13
		c0.27-0.01,0.31,0.09,0.31,0.32c0.01,0.23-0.05,0.31-0.29,0.31c-0.96,0.02-1.91,0.07-2.87,0.09c-0.2,0.01-0.28,0.06-0.26,0.27
		c0.03,0.35,0.04,0.71,0.03,1.06c-0.01,0.25,0.09,0.3,0.31,0.29c0.85-0.04,1.71-0.05,2.56-0.1c0.27-0.01,0.33,0.08,0.34,0.33
		c0.01,0.27-0.09,0.33-0.34,0.34c-0.84,0.02-1.69,0.06-2.53,0.08c-0.23,0-0.32,0.07-0.3,0.31c0.03,0.36,0.04,0.73,0.02,1.09
		c-0.01,0.3,0.11,0.36,0.38,0.35c0.94-0.05,1.87-0.06,2.81-0.11c0.26-0.01,0.34,0.06,0.36,0.32c0.01,0.27-0.08,0.33-0.33,0.34
		c-1.18,0.03-2.35,0.09-3.53,0.14c-0.45,0.02-0.46,0.02-0.46-0.42c-0.01-0.75,0-1.5,0-2.25C36.3,64.46,36.25,64.46,36.19,64.47z"/>
	<path class="st14" d="M61.47,95.46c0.15-0.62,0.3-1.25,0.45-1.88c0.06-0.25,0.12-0.51,0.19-0.76c0.06-0.2,0.02-0.31-0.2-0.36
		c-0.39-0.08-0.77-0.17-1.15-0.28c-0.21-0.06-0.29,0.01-0.34,0.22c-0.22,0.95-0.47,1.9-0.67,2.85c-0.08,0.39-0.31,0.19-0.49,0.17
		c-0.24-0.02-0.18-0.2-0.14-0.35c0.3-1.21,0.6-2.42,0.88-3.63c0.05-0.21,0.13-0.25,0.32-0.2c1.54,0.38,3.09,0.75,4.64,1.12
		c0.19,0.05,0.22,0.13,0.18,0.31c-0.29,1.2-0.59,2.4-0.86,3.6c-0.05,0.22-0.13,0.28-0.34,0.22c-0.2-0.05-0.35-0.08-0.27-0.36
		c0.22-0.86,0.42-1.74,0.63-2.61c0.11-0.46,0.12-0.46-0.35-0.57c-0.25-0.06-0.51-0.11-0.76-0.19c-0.27-0.09-0.39-0.04-0.45,0.26
		c-0.17,0.82-0.38,1.64-0.57,2.46c-0.04,0.15-0.07,0.33-0.3,0.24C61.7,95.68,61.46,95.74,61.47,95.46z"/>
	<path class="st11" d="M17.71,100.04c-0.03-0.06-0.06-0.12-0.09-0.19c-0.37-0.78-0.74-1.55-1.13-2.33
		c-0.09-0.18-0.12-0.28,0.11-0.38c0.21-0.09,0.36-0.19,0.49,0.1c0.35,0.75,0.72,1.5,1.08,2.25c0.17,0.36,0.17,0.36,0.53,0.18
		c0.32-0.16,0.63-0.31,0.95-0.47c0.17-0.08,0.25-0.15,0.14-0.37c-0.45-0.88-0.86-1.78-1.3-2.66c-0.11-0.22-0.04-0.3,0.15-0.37
		c0.17-0.07,0.31-0.2,0.44,0.09c0.54,1.14,1.1,2.28,1.67,3.41c0.11,0.22-0.01,0.28-0.16,0.35c-1.18,0.57-2.35,1.15-3.53,1.72
		c-0.25,0.12-0.5,0.25-0.75,0.37c-0.15,0.08-0.24,0.04-0.31-0.12c-0.53-1.1-1.08-2.2-1.61-3.29c-0.08-0.17-0.18-0.32,0.1-0.44
		c0.24-0.1,0.35-0.11,0.47,0.15c0.39,0.85,0.82,1.68,1.22,2.53c0.1,0.21,0.19,0.25,0.4,0.13c0.31-0.17,0.63-0.31,0.95-0.47
		C17.61,100.19,17.7,100.16,17.71,100.04z"/>
	<path class="st15" d="M49.38,63.85c0.73,0.07,1.5,0.44,2.1,1.13c0.35,0.41,0.39,0.9,0.26,1.41c-0.03,0.14-0.09,0.19-0.24,0.14
		c-0.39-0.13-0.46-0.21-0.44-0.61c0.01-0.25-0.06-0.48-0.22-0.66c-0.41-0.46-0.91-0.75-1.55-0.75c-0.36,0-0.65,0.21-0.77,0.57
		c-0.11,0.32,0.06,0.54,0.3,0.72c0.45,0.35,0.91,0.68,1.37,1.03c0.26,0.2,0.5,0.42,0.64,0.71c0.44,0.89-0.17,1.94-1.16,1.96
		c-1.06,0.02-1.98-0.39-2.71-1.14c-0.4-0.41-0.55-0.94-0.37-1.53c0.07-0.24,0.16-0.32,0.42-0.2c0.27,0.13,0.43,0.22,0.32,0.59
		c-0.15,0.55,0.2,0.91,0.61,1.19c0.42,0.29,0.89,0.49,1.42,0.51c0.35,0.01,0.6-0.13,0.77-0.44c0.15-0.29,0.07-0.54-0.11-0.78
		c-0.23-0.32-0.56-0.52-0.87-0.75c-0.32-0.24-0.64-0.46-0.94-0.72c-0.44-0.37-0.66-0.84-0.45-1.41
		C47.98,64.2,48.54,63.84,49.38,63.85z"/>
	<path class="st16" d="M57.85,106.07c-0.18,0.01-0.34-0.02-0.5-0.07c-0.51-0.18-0.54-0.31-0.16-0.7c0.1-0.1,0.18-0.13,0.32-0.06
		c0.36,0.17,0.7,0.12,1.03-0.1c0.39-0.26,0.69-0.6,0.87-1.04c0.15-0.39,0.09-0.68-0.21-0.96c-0.26-0.25-0.52-0.27-0.81-0.04
		c-0.48,0.38-0.95,0.78-1.43,1.15c-0.51,0.39-1.05,0.65-1.7,0.33c-0.71-0.36-0.96-1.03-0.66-1.85c0.31-0.83,0.84-1.51,1.61-1.97
		c0.54-0.32,1.12-0.36,1.68,0.01c0.19,0.12,0.22,0.22,0.07,0.39c-0.07,0.07-0.14,0.16-0.2,0.24c-0.08,0.11-0.15,0.12-0.28,0.04
		c-0.5-0.31-0.97-0.2-1.41,0.16c-0.35,0.29-0.62,0.64-0.81,1.05c-0.24,0.51-0.19,0.86,0.17,1.15c0.27,0.22,0.69,0.18,1.09-0.13
		c0.51-0.4,0.99-0.82,1.51-1.21c0.52-0.39,1.08-0.42,1.51-0.12c0.51,0.37,0.79,1.06,0.61,1.62c-0.28,0.87-0.83,1.53-1.64,1.95
		C58.3,106.03,58.08,106.08,57.85,106.07z"/>
	<path class="st15" d="M57.46,98.85c0.11-0.76,0.44-1.62,1.15-2.29c0.47-0.44,1.04-0.59,1.67-0.34c0.17,0.07,0.25,0.14,0.13,0.32
		c-0.05,0.08-0.09,0.16-0.12,0.25c-0.06,0.18-0.15,0.23-0.35,0.16c-0.38-0.15-0.74-0.06-1.04,0.22c-0.49,0.46-0.76,1.03-0.84,1.69
		c-0.05,0.4,0.11,0.68,0.45,0.85c0.33,0.17,0.6,0.03,0.85-0.19c0.47-0.42,0.78-0.97,1.18-1.45c0.29-0.35,0.58-0.69,1.07-0.74
		c0.78-0.08,1.5,0.53,1.51,1.35c0.01,1.07-0.45,1.93-1.33,2.54c-0.39,0.27-0.82,0.24-1.26,0.13c-0.16-0.04-0.19-0.11-0.12-0.27
		c0.13-0.28,0.23-0.54,0.65-0.4c0.21,0.07,0.44-0.05,0.6-0.19c0.48-0.4,0.79-0.91,0.8-1.56c0.01-0.4-0.18-0.63-0.58-0.78
		c-0.34-0.13-0.53,0.09-0.71,0.31c-0.37,0.46-0.72,0.94-1.1,1.4c-0.4,0.49-0.89,0.79-1.55,0.65
		C57.85,100.36,57.43,99.78,57.46,98.85z"/>
	<path class="st17" d="M17.82,91.02c0.17,0.34,0.18,0.62-0.12,0.94c-0.58,0.63-1.1,1.32-1.66,1.99c-0.12,0.15-0.14,0.25,0.04,0.37
		c0.21,0.14,0.4,0.3,0.6,0.45c0.11,0.09,0.22,0.09,0.35,0.06c0.43-0.11,0.87-0.2,1.3-0.31c0.25-0.06,0.35,0.01,0.4,0.26
		c0.09,0.47,0.1,0.46-0.38,0.57c-1.45,0.33-2.9,0.66-4.34,1.01c-0.28,0.07-0.38-0.02-0.41-0.27c-0.01-0.07-0.02-0.15-0.05-0.21
		c-0.08-0.19,0-0.25,0.18-0.29c0.6-0.13,1.19-0.28,1.79-0.42c0.12-0.03,0.24-0.06,0.39-0.09c-0.22-0.25-0.48-0.38-0.71-0.55
		c-0.66-0.47-1.32-0.94-2-1.38c-0.27-0.17-0.42-0.38-0.46-0.69c-0.02-0.18-0.11-0.36-0.09-0.61c0.33,0.24,0.64,0.44,0.93,0.66
		c0.45,0.32,0.9,0.63,1.33,0.98c0.25,0.21,0.37,0.14,0.56-0.1c0.59-0.76,1.16-1.54,1.8-2.26c0.1-0.13,0.25-0.22,0.31-0.38l0,0
		C17.81,90.75,17.71,90.97,17.82,91.02z"/>
	<path class="st11" d="M24.39,72.38c-0.02,0.54-0.4,1.12-0.91,1.63c-0.21,0.21-0.44,0.41-0.72,0.54c-0.75,0.38-1.42,0.3-2.04-0.26
		c-0.8-0.73-1.58-1.47-2.38-2.2c-0.17-0.16-0.18-0.25-0.01-0.42c0.38-0.38,0.36-0.38,0.75-0.02c0.65,0.61,1.3,1.23,1.96,1.83
		c0.18,0.17,0.37,0.33,0.61,0.43c0.3,0.13,0.61,0.15,0.91,0.01c0.5-0.23,0.86-0.62,1.06-1.13c0.22-0.57-0.03-1.04-0.44-1.43
		c-0.72-0.69-1.45-1.38-2.19-2.04c-0.23-0.21-0.22-0.34,0.01-0.51c0.05-0.04,0.09-0.08,0.13-0.13c0.12-0.16,0.22-0.17,0.38-0.02
		c0.75,0.72,1.52,1.42,2.27,2.14C24.14,71.18,24.39,71.61,24.39,72.38z"/>
	<path class="st18" d="M17.59,103.41c0.03-0.59,0.31-1.01,0.81-1.26c0.53-0.27,1.06-0.29,1.56,0.07c0.4,0.28,0.66,0.68,0.97,1.05
		c0.17,0.2,0.34,0.4,0.49,0.6c0.12,0.16,0.22,0.18,0.38,0.04c0.42-0.36,0.86-0.69,1.27-1.05c0.18-0.16,0.28-0.13,0.42,0.04
		c0.31,0.4,0.33,0.4-0.07,0.73c-1.16,0.96-2.33,1.91-3.5,2.86c-0.1,0.08-0.21,0.16-0.32,0.01c-0.6-0.8-1.34-1.5-1.85-2.39
		C17.64,103.88,17.61,103.64,17.59,103.41z"/>
	<path class="st19" d="M64.9,83.06c-0.01,0.89-0.46,1.47-1.15,1.59c-0.86,0.14-1.53-0.23-1.8-1.07c-0.18-0.57-0.32-1.16-0.44-1.75
		c-0.05-0.25-0.16-0.26-0.36-0.21c-0.54,0.13-1.09,0.25-1.64,0.39c-0.18,0.05-0.24,0-0.28-0.17c-0.13-0.56-0.14-0.57,0.41-0.7
		c1.43-0.35,2.87-0.68,4.3-1.03c0.21-0.05,0.31-0.02,0.36,0.22c0.15,0.73,0.35,1.45,0.52,2.18C64.88,82.72,64.89,82.94,64.9,83.06z"
		/>
	<path class="st20" d="M36.99,112.46c-0.48,0.34-0.97,0.51-1.53,0.39c-0.89-0.18-1.42-0.86-1.36-1.77c0.06-0.92,0.68-1.58,1.56-1.65
		c1.24-0.09,2.14,0.71,2.15,1.95c0.01,0.87-0.11,1.73-0.58,2.49c-0.61,0.99-2.17,1.16-2.96,0.34c-0.22-0.23-0.32-0.5-0.36-0.81
		c-0.02-0.14,0.01-0.22,0.17-0.21c0.26,0.02,0.49-0.03,0.58,0.36c0.15,0.65,1.09,0.85,1.64,0.37
		C36.74,113.56,36.9,113.05,36.99,112.46z"/>
	<path class="st21" d="M43.22,112.59c-0.01,0.54-0.04,1.02-0.29,1.47c-0.41,0.72-1.07,0.91-1.84,0.83c-0.79-0.08-1.2-0.62-1.42-1.31
		c-0.25-0.78-0.31-1.59-0.2-2.41c0.13-0.9,0.71-1.48,1.56-1.56c0.91-0.09,1.55,0.32,1.89,1.19
		C43.16,111.39,43.2,112.01,43.22,112.59z"/>
	<path class="st22" d="M33.44,66.89c0.08-0.74,0.15-1.47,0.22-2.2c0.07-0.68,0.15-1.37,0.19-2.05c0.02-0.29,0.1-0.43,0.41-0.5
		c0.52-0.1,0.53-0.23,0.44,0.4c-0.21,1.6-0.41,3.2-0.59,4.8c-0.03,0.24-0.1,0.36-0.34,0.39c-0.11,0.01-0.22,0.05-0.33,0.09
		c-0.18,0.06-0.29-0.01-0.39-0.15c-0.99-1.33-1.99-2.66-2.99-3.99c-0.27-0.36-0.25-0.34,0.17-0.48c0.35-0.12,0.53-0.03,0.73,0.27
		c0.72,1.07,1.47,2.11,2.22,3.16C33.24,66.72,33.29,66.83,33.44,66.89z"/>
	<path class="st17" d="M46.41,113.27c0.83-0.27,1.6-0.51,2.37-0.78c0.28-0.1,0.31,0.05,0.38,0.24c0.08,0.2,0.04,0.3-0.17,0.36
		c-1.05,0.34-2.09,0.68-3.14,1.03c-0.23,0.08-0.27,0-0.29-0.2c-0.04-0.57,0.21-1.05,0.5-1.51c0.35-0.56,0.76-1.09,1.07-1.68
		c0.13-0.25,0.22-0.51,0.23-0.8c0.01-0.44-0.24-0.76-0.66-0.86c-0.78-0.19-1.48,0.38-1.45,1.17c0.02,0.42-0.32,0.27-0.51,0.33
		c-0.23,0.07-0.2-0.14-0.22-0.27c-0.04-0.46,0.1-0.87,0.45-1.18c0.57-0.52,1.25-0.74,2.01-0.62c0.84,0.14,1.31,0.96,1.06,1.8
		c-0.23,0.77-0.74,1.39-1.16,2.05C46.71,112.63,46.49,112.88,46.41,113.27z"/>
	<path class="st23" d="M58.54,74.23c0.8,0,1.58,0.05,2.35-0.02c0.5-0.04,0.8,0.1,1.03,0.53c0.1,0.19,0.09,0.23-0.12,0.24
		c-0.67,0.01-1.33,0.01-2,0.02c-0.01,0-0.02,0-0.03,0c-1.63,0.01-1.63,0.01-2.93,1c-0.11,0.08-0.22,0.26-0.37,0.16
		c-0.18-0.13-0.31-0.33-0.39-0.55c-0.03-0.09,0.08-0.13,0.15-0.18c0.41-0.3,0.82-0.6,1.24-0.89c0.2-0.13,0.33-0.3,0.41-0.53
		c0.35-1,0.71-2,1.07-2.99c0.03-0.07-0.01-0.19,0.11-0.2c0.1-0.01,0.12,0.1,0.18,0.16c0.31,0.3,0.36,0.62,0.17,1.03
		c-0.28,0.61-0.5,1.25-0.75,1.88C58.62,74.01,58.58,74.13,58.54,74.23z"/>
	<path class="st24" d="M53.49,72.74c-0.16-0.15-0.34-0.28-0.47-0.45c-0.09-0.13,0.08-0.21,0.16-0.3c0.86-0.96,1.73-1.91,2.6-2.87
		c0.3-0.33,0.29-0.33-0.04-0.64c-0.31-0.28-0.61-0.56-0.93-0.83c-0.15-0.13-0.19-0.23-0.03-0.37c0.13-0.11,0.21-0.32,0.44-0.11
		c1.04,0.96,2.09,1.91,3.14,2.85c0.16,0.14,0.11,0.24-0.01,0.35c-0.12,0.11-0.2,0.32-0.42,0.11c-0.35-0.34-0.73-0.65-1.08-0.99
		c-0.17-0.16-0.25-0.13-0.39,0.02c-0.88,0.99-1.77,1.96-2.65,2.94C53.73,72.56,53.65,72.67,53.49,72.74z"/>
	<path class="st25" d="M30.93,109.41c-0.38,0.09-0.75,0.12-1.13,0.13c-0.15,0-0.2-0.04-0.16-0.2c0.07-0.24,0.17-0.4,0.48-0.42
		c0.57-0.03,1.12-0.19,1.61-0.52c0.16-0.11,0.3,0.02,0.43,0.09c0.14,0.07,0.03,0.19,0,0.27c-0.56,1.46-1.13,2.92-1.69,4.38
		c-0.09,0.25-0.23,0.22-0.41,0.13c-0.17-0.08-0.42-0.08-0.28-0.42c0.43-1.06,0.83-2.12,1.24-3.19
		C31.06,109.56,31.19,109.38,30.93,109.41z"/>
	<path class="st26" d="M28.76,63.87c0.17,0.01,0.17,0.14,0.21,0.22c0.54,1.23,1.07,2.45,1.61,3.68c0.07,0.16,0.15,0.32,0.22,0.48
		c0.18,0.42,0.17,0.4-0.23,0.6c-0.27,0.13-0.38,0.08-0.5-0.21c-0.57-1.37-1.18-2.72-1.77-4.08c-0.06-0.13-0.23-0.29-0.09-0.41
		C28.36,64.01,28.59,63.95,28.76,63.87z"/>
	<path class="st27" d="M51.17,70.84c-0.19-0.11-0.41-0.2-0.54-0.39c-0.1-0.14,0.09-0.25,0.17-0.37c0.83-1.25,1.69-2.49,2.5-3.75
		c0.21-0.33,0.36-0.17,0.56-0.04c0.21,0.13,0.32,0.24,0.13,0.5c-0.87,1.26-1.72,2.54-2.57,3.81C51.36,70.7,51.32,70.82,51.17,70.84z
		"/>
	<path class="st28" d="M17.89,90.21c0.06,0.25-0.13,0.25-0.3,0.26c-1.08,0.08-2.16,0.16-3.24,0.25c-0.48,0.04-0.95,0.07-1.43,0.12
		c-0.21,0.02-0.29-0.04-0.31-0.26c-0.04-0.53-0.05-0.52,0.47-0.57c1.41-0.11,2.82-0.23,4.23-0.34
		C17.87,89.62,17.87,89.63,17.89,90.21z"/>
	<path class="st29" d="M25.62,109.25c-0.32,0-0.57-0.26-0.56-0.58c0-0.34,0.25-0.59,0.6-0.58c0.33,0,0.59,0.27,0.58,0.6
		C26.23,109.02,25.97,109.25,25.62,109.25z"/>
	<path class="st30" d="M53,108.7c0,0.34-0.23,0.57-0.56,0.58c-0.33,0.01-0.6-0.26-0.6-0.58c0-0.34,0.26-0.59,0.6-0.58
		C52.76,108.13,53,108.37,53,108.7z"/>
	<path class="st28" d="M17.82,91.02c-0.19,0-0.09-0.21-0.2-0.26c0.03-0.14,0.11-0.15,0.16-0.03C17.82,90.81,17.81,90.92,17.82,91.02
		z"/>
	<path class="st28" d="M17.62,90.76c-0.01,0.21-0.16,0.29-0.31,0.38C17.37,90.98,17.48,90.86,17.62,90.76z"/>
	<path class="st31" d="M39.03,107.4c-10.62,0.03-19.21-8.68-19.1-19.27c0.11-10.6,8.74-19.04,19.36-18.92
		c10.49,0.12,18.99,8.78,18.85,19.41C57.99,98.97,49.34,107.5,39.03,107.4z"/>
	<path class="st32" d="M44.66,64.79c-0.59-0.12-1.28-0.25-1.97-0.4c-0.14-0.03-0.13-0.14-0.11-0.25c0.09-0.45,0.19-0.9,0.27-1.35
		c0.03-0.16,0.13-0.18,0.25-0.15c0.65,0.13,1.31,0.24,1.95,0.42c0.48,0.13,0.69,0.53,0.61,0.99C45.58,64.54,45.27,64.79,44.66,64.79
		z"/>
	<path class="st33" d="M63.05,87.9c0-0.29,0.01-0.58,0-0.87c0-0.18,0.04-0.27,0.24-0.26c0.45,0.01,0.89,0,1.34,0
		c0.13,0,0.22,0.02,0.22,0.18c-0.01,0.68,0.05,1.35-0.03,2.03c-0.06,0.54-0.37,0.79-0.9,0.8c-0.44,0-0.75-0.24-0.83-0.69
		c-0.03-0.19-0.04-0.39-0.04-0.59C63.05,88.29,63.05,88.1,63.05,87.9C63.05,87.9,63.05,87.9,63.05,87.9z"/>
	<path class="st34" d="M19.23,102.71c0.22,0.03,0.41,0.11,0.58,0.26c0.44,0.42,0.77,0.92,1.17,1.37c0.09,0.1,0.07,0.17-0.03,0.25
		c-0.38,0.31-0.76,0.62-1.13,0.93c-0.11,0.1-0.19,0.05-0.26-0.04c-0.35-0.44-0.72-0.86-1.04-1.32c-0.2-0.27-0.31-0.6-0.12-0.94
		C18.57,102.92,18.85,102.73,19.23,102.71z"/>
	<path class="st35" d="M64.28,82.87c0,0.56-0.25,0.89-0.72,0.99c-0.42,0.09-0.79-0.09-0.97-0.53c-0.23-0.57-0.31-1.18-0.46-1.77
		c-0.04-0.16,0.06-0.2,0.18-0.23c0.43-0.1,0.87-0.2,1.3-0.3c0.11-0.03,0.25-0.07,0.28,0.1C64.02,81.74,64.23,82.33,64.28,82.87z"/>
	<path class="st36" d="M35.99,112.33c-0.67,0-1.15-0.46-1.16-1.09c0-0.69,0.51-1.25,1.16-1.25c0.62,0,1.11,0.48,1.11,1.1
		C37.11,111.83,36.66,112.33,35.99,112.33z"/>
	<path class="st37" d="M42.49,112.62c-0.01,0.35,0.01,0.66-0.09,0.97c-0.14,0.44-0.48,0.74-0.91,0.78c-0.4,0.04-0.82-0.2-0.99-0.62
		c-0.37-0.92-0.45-1.87-0.25-2.84c0.09-0.43,0.45-0.72,0.85-0.76c0.45-0.04,0.84,0.18,1.04,0.59
		C42.42,111.35,42.45,112,42.49,112.62z"/>
	<path class="st1" d="M40.66,92.88c0,0.31,0.01,0.63,0,0.94c-0.04,0.65,0.25,1.13,0.8,1.44c2.08,1.18,3.29,3.05,4.19,5.19
		c0.35,0.85,0.62,1.72,0.82,2.61c0.27,1.18-0.5,2.12-1.67,2.05c-0.66-0.04-1.23-0.54-1.39-1.24c-0.29-1.29-0.73-2.51-1.4-3.65
		c-0.4-0.68-0.87-1.29-1.49-1.78c-1.03-0.82-2-0.82-3.03,0.01c-0.95,0.78-1.56,1.8-2.05,2.9c-0.38,0.84-0.62,1.72-0.84,2.61
		c-0.21,0.82-1.02,1.31-1.85,1.13c-0.81-0.17-1.39-0.99-1.22-1.8c0.48-2.22,1.3-4.29,2.75-6.08c0.61-0.76,1.33-1.4,2.19-1.87
		c0.61-0.34,0.95-0.84,0.92-1.57c-0.03-0.67-0.01-1.33-0.01-2c0-0.37-0.01-0.38-0.37-0.26c-1.22,0.4-2.26,1.1-3.19,1.96
		c-1.43,1.32-2.53,2.89-3.46,4.58c-0.45,0.82-0.84,1.67-1.23,2.52c-0.51,1.11-1.99,1.27-2.69,0.32c-0.34-0.46-0.43-0.99-0.21-1.51
		c1.29-3.04,2.94-5.85,5.36-8.15c1.37-1.29,2.92-2.29,4.75-2.83c0.25-0.07,0.5-0.14,0.76-0.18c0.21-0.04,0.33-0.12,0.31-0.37
		c-0.02-0.24-0.01-0.48,0-0.72c0.04-0.9,0.77-1.59,1.65-1.58c0.86,0.01,1.57,0.72,1.61,1.59c0.01,0.26,0.01,0.52,0,0.78
		c0,0.16,0.05,0.24,0.22,0.27c2.24,0.44,4.08,1.6,5.71,3.15c1.69,1.61,2.98,3.51,4.07,5.56c0.42,0.8,0.82,1.61,1.16,2.45
		c0.3,0.75-0.01,1.55-0.71,1.95c-0.64,0.37-1.51,0.2-1.97-0.39c-0.24-0.31-0.35-0.68-0.51-1.03c-0.98-2.1-2.13-4.09-3.74-5.79
		c-1.05-1.1-2.23-2.03-3.68-2.55c-0.08-0.03-0.16-0.05-0.24-0.08c-0.2-0.07-0.31-0.04-0.3,0.21C40.68,92.09,40.67,92.48,40.66,92.88
		C40.67,92.88,40.67,92.88,40.66,92.88z"/>
	<path class="st1" d="M43.67,80.35c0,0.5,0.01,1,0,1.5c-0.01,0.2,0.06,0.3,0.25,0.36c2.15,0.72,4.03,1.9,5.76,3.34
		c2.33,1.95,4.25,4.27,5.89,6.83c0.48,0.75,0.3,1.7-0.41,2.18c-0.76,0.51-1.67,0.35-2.19-0.41c-1.11-1.65-2.29-3.24-3.69-4.66
		c-1.76-1.79-3.73-3.27-6.1-4.18c-0.48-0.18-0.96-0.34-1.46-0.44c-0.81-0.17-1.3-0.77-1.3-1.59c0-3.35,0-6.71,0-10.06
		c0-1.14,0.87-1.86,1.98-1.66c0.71,0.13,1.26,0.82,1.27,1.6c0.01,0.6,0.01,1.21,0,1.81c0,0.21,0.07,0.3,0.28,0.36
		c3.86,0.98,7.23,2.89,10.27,5.43c0.68,0.57,0.86,1.28,0.55,1.97c-0.44,0.97-1.63,1.25-2.45,0.56c-1.74-1.47-3.62-2.72-5.69-3.67
		c-0.86-0.4-1.75-0.73-2.65-1.01c-0.22-0.07-0.32-0.05-0.31,0.22C43.69,79.33,43.68,79.84,43.67,80.35
		C43.68,80.35,43.68,80.35,43.67,80.35z"/>
	<path class="st1" d="M37.63,78.21c0,1.69,0,3.37,0,5.06c0,0.8-0.47,1.4-1.25,1.57c-1.95,0.45-3.67,1.38-5.26,2.57
		c-2.4,1.8-4.29,4.08-5.92,6.57c-0.32,0.49-0.72,0.82-1.33,0.85c-0.63,0.03-1.12-0.23-1.44-0.76c-0.33-0.54-0.32-1.12,0.02-1.66
		c0.81-1.28,1.71-2.5,2.7-3.66c1.84-2.15,3.91-4.02,6.4-5.4c0.8-0.44,1.63-0.83,2.5-1.12c0.25-0.08,0.34-0.2,0.33-0.46
		c-0.02-0.96-0.01-1.92-0.01-2.87c0-0.36-0.04-0.39-0.37-0.28c-1.22,0.39-2.4,0.87-3.54,1.46c-1.65,0.86-3.18,1.89-4.59,3.09
		c-0.67,0.57-1.39,0.64-2,0.24c-0.88-0.57-1-1.79-0.22-2.5c0.95-0.86,1.98-1.61,3.05-2.31c1.82-1.18,3.75-2.15,5.81-2.83
		c0.53-0.17,1.07-0.33,1.62-0.47c0.19-0.05,0.25-0.13,0.25-0.32c-0.01-0.61-0.01-1.23,0-1.84c0.01-0.7,0.34-1.22,0.98-1.5
		c0.61-0.27,1.21-0.17,1.72,0.27c0.4,0.34,0.56,0.78,0.55,1.3c-0.01,1.34,0,2.69,0,4.03C37.64,77.56,37.64,77.89,37.63,78.21
		C37.64,78.21,37.64,78.21,37.63,78.21z"/>
</g>
</svg>
