<svg xmlns="http://www.w3.org/2000/svg" viewBox="0 0 270 170"><defs><style>.cls-1{fill:#dcd4df;}.cls-2{fill:#86e0f7;}.cls-3{fill:#7ddff9;}.cls-4{fill:#b9ddee;}.cls-5{fill:#55dcfb;}.cls-6{fill:#76dff9;}.cls-7{fill:#a3dff3;}.cls-8{fill:#c6dae9;}.cls-9{fill:#cadae8;}.cls-10{fill:#c2dceb;}.cls-11{fill:#d5d7e3;}.cls-12{fill:#18d1fa;}.cls-13{fill:#ced9e6;}.cls-14{fill:#01d1fc;}.cls-15{fill:#02caf9;}.cls-16{fill:#4bdafb;}.cls-17{fill:#00c4f6;}.cls-18{fill:#90e0f6;}.cls-19{fill:#3bd8fb;}.cls-20{fill:#66ddfa;}.cls-21{fill:#eec6cf;}.cls-22{fill:#e4ced8;}.cls-23{fill:#d2d8e4;}.cls-24{fill:#f2c1c7;}.cls-25{fill:#00c0f4;}.cls-26{fill:#f0c5ca;}.cls-27{fill:#22d8fd;}.cls-28{fill:#01b9f1;}.cls-29{fill:#e0d1dc;}.cls-30{fill:#00b5ee;}.cls-31{fill:#f4bbc1;}.cls-32{fill:#00cefc;}.cls-33{fill:#f9aaad;}.cls-34{fill:#a8dff2;}.cls-35{fill:#e9cbd4;}.cls-36{fill:#03d5fe;}.cls-37{fill:#f3bec5;}.cls-38{fill:#fac4c1;}.cls-39{fill:#0189d3;}.cls-40{fill:#2ddafe;}.cls-41{fill:#febdb8;}.cls-42{fill:#fdc1bc;}.cls-43{fill:#efd1d3;}.cls-44{fill:#f7b5bb;}.cls-45{fill:#8ce1f7;}.cls-46{fill:#00aeeb;}.cls-47{fill:#6ae3fd;}.cls-48{fill:#00aaea;}.cls-49{fill:#2edefe;}.cls-50{fill:#00c6f8;}.cls-51{fill:#6bdefa;}.cls-52{fill:#f8aeb4;}.cls-53{fill:#11d5fd;}.cls-54{fill:#f4cece;}.cls-55{fill:#00b1ed;}.cls-56{fill:#ed6976;}.cls-57{fill:#bbe0ef;}.cls-58{fill:#f06f7a;}.cls-59{fill:#37d9fc;}.cls-60{fill:#f7b2b8;}.cls-61{fill:#f57d86;}.cls-62{fill:#aee1f2;}.cls-63{fill:#82e1f9;}.cls-64{fill:#ea6371;}.cls-65{fill:#fa9fa5;}.cls-66{fill:#f88990;}.cls-67{fill:#feb9b3;}.cls-68{fill:#fa979c;}.cls-69{fill:#00a7e7;}.cls-70{fill:#00bdf3;}.cls-71{fill:#f9c8c5;}.cls-72{fill:#faaeaf;}.cls-73{fill:#f7858c;}.cls-74{fill:#e75d6d;}.cls-75{fill:#aee0f2;}.cls-76{fill:#f99095;}.cls-77{fill:#ecd4d7;}.cls-78{fill:#fa9a9f;}.cls-79{fill:#fba6a9;}.cls-80{fill:#f7cbc9;}.cls-81{fill:#08d8fe;}.cls-82{fill:#3be0fe;}.cls-83{fill:#e5d8dd;}.cls-84{fill:#dfdae1;}.cls-85{fill:#00a4e6;}.cls-86{fill:#fa9498;}.cls-87{fill:#e8d6da;}.cls-88{fill:#56e3fe;}.cls-89{fill:#b5dfef;}.cls-90{fill:#bdddec;}.cls-91{fill:#0098de;}.cls-92{fill:#f2737e;}.cls-93{fill:#5fe3fe;}.cls-94{fill:#feb6af;}.cls-95{fill:#009ee2;}.cls-96{fill:#21d5fb;}.cls-97{fill:#009be0;}.cls-98{fill:#0092d9;}.cls-99{fill:#00a1e4;}.cls-100{fill:#f5c5c6;}.cls-101{fill:#cae0ec;}.cls-102{fill:#f88c93;}.cls-103{fill:#11d0fa;}.cls-104{fill:#7de3fb;}.cls-105{fill:#f9b7b8;}.cls-106{fill:#008ed7;}.cls-107{fill:#74e3fb;}.cls-108{fill:#d5dde6;}.cls-109{fill:#fba3a5;}.cls-110{fill:#fb9da0;}.cls-111{fill:#24ddfe;}.cls-112{fill:#efcace;}.cls-113{fill:#f9a3a9;}.cls-114{fill:#f7bdbf;}.cls-115{fill:#e05165;}.cls-116{fill:#f68289;}.cls-117{fill:#11dafe;}.cls-118{fill:#f37681;}.cls-119{fill:#87e2f9;}.cls-120{fill:#44e2fe;}.cls-121{fill:#f47a83;}.cls-122{fill:#e45769;}.cls-123{fill:#fab3b4;}.cls-124{fill:#95e1f6;}.cls-125{fill:#9de2f6;}.cls-126{fill:#70dff9;}.cls-127{fill:#f8babc;}.cls-128{fill:#00c7f8;}.cls-129{fill:#4ce3fe;}.cls-130{fill:#1cd3fb;}.cls-131{fill:#2ed7fc;}.cls-132{fill:#1adcfe;}.cls-133{fill:#97e2f7;}.cls-134{fill:#0095dc;}.cls-135{fill:#d8d6e1;}.cls-136{fill:#f6c1c2;}.cls-137{fill:#f8abb1;}.cls-138{fill:#fdb1aa;}.cls-139{fill:#f2c8ca;}.cls-140{fill:#b6e2f2;}.cls-141{fill:#a8e2f4;}.cls-142{fill:#91e2f8;}.cls-143{fill:#d1dfea;}.cls-144{fill:#c1e2f0;}.cls-145{fill:#dbdde5;}.cls-146{fill:#09cdf9;}.cls-147{fill:#f7c1c2;}.cls-148{fill:#f4c4c6;}.cls-149{fill:#a3e1f5;}.cls-150{fill:#e3d1d9;}.cls-151{fill:#dfd7de;}.cls-152{fill:#e3d4da;}.cls-153{fill:#8be0f7;}.cls-154{fill:#82e0f8;}.cls-155{fill:#b5dff0;}.cls-156{fill:#b1def0;}.cls-157{fill:#5cdefb;}.cls-158{fill:#4edcfc;}.cls-159{fill:#57dffc;}.cls-160{fill:#70dffa;}.cls-161{fill:#9edff4;}.cls-162{fill:#addef1;}.cls-163{fill:#c4dcea;}.cls-164{fill:#cadde9;}.cls-165{fill:#d0dbe5;}.cls-166{fill:#c0deed;}.cls-167{fill:#d5dae3;}.cls-168{fill:#0ecefa;}.cls-169{fill:#27d4fb;}.cls-170{fill:#21d4fb;}.cls-171{fill:#20d4fb;}.cls-172{fill:#44dafb;}.cls-173{fill:#98e0f5;}.cls-174{fill:#95e0f6;}.cls-175{fill:#2bd5fb;}.cls-176{fill:#34d7fb;}.cls-177{fill:#3edbfd;}.cls-178{fill:#62defb;}.cls-179{fill:#ebcad1;}.cls-180{fill:#f0c4cb;}.cls-181{fill:#e7cdd5;}.cls-182{fill:#17d8fe;}.cls-183{fill:#f6b8be;}.cls-184{fill:#36defe;}.cls-185{fill:#edced1;}.cls-186{fill:#e9d2d7;}.cls-187{fill:#66e0fb;}.cls-188{fill:#f3cbcb;}.cls-189{fill:#46defd;}.cls-190{fill:#dad9e2;}.cls-191{fill:#4ee0fe;}.cls-192{fill:#cfdde8;}.cls-193{fill:#c5dfec;}.cls-194{fill:#e9cfd5;}.cls-195{font-size:36.19px;fill:#fff;font-family:YouSheBiaoTiHei;letter-spacing:0.22em;}</style></defs><title>资源 2</title><g id="图层_2" data-name="图层 2"><g id="图层_1-2" data-name="图层 1"><rect width="270" height="170"/><path class="cls-1" d="M144.41,101.6H143c-1.2-1.37-2.89-2.42-3-4.52,0-.31-.4-.37-.61-.55a6.73,6.73,0,0,1-1.58-2.33,45.53,45.53,0,0,0-2.37-4.48c-.38-.62-1.54-.76-1.08-1.9.08-.06.08-.14,0-.22a.14.14,0,0,0-.12-.06,7.29,7.29,0,0,1-2.78-3.72,3.41,3.41,0,0,0-1.32-1.65,13.4,13.4,0,0,1-3.89-4.68,17.47,17.47,0,0,0-2.35-3,32.35,32.35,0,0,0-5.5-6.13c-1.69-1.62-3-3.59-4.73-5.14-1-.94-1.52-2.3-2.61-3.17-.28-.55-.85-.93-.93-1.6.57-.65,1.49-.25,2.14-.7,3.3,1.65,5.18,4.83,7.75,7.27s4.39,5.7,6.94,8.26a8.41,8.41,0,0,0,1.43,1.17A8.39,8.39,0,0,0,131,78a4.93,4.93,0,0,1,1.42,2.41c.15.54.46,1.1,1,1.15,1.21.11,1.38,1.1,1.87,1.87.64,1,.94,2.23,1.68,3.25A5,5,0,0,0,138.21,88c2.06,2.71,3.1,6,4.93,8.84a8.24,8.24,0,0,1,1.42,3.07A2.21,2.21,0,0,1,144.41,101.6Z"/><path class="cls-2" d="M113.33,26.84h2.59a.42.42,0,0,1,0,.36,3.27,3.27,0,0,0,1.16,2.33c2.83,2.75,5.33,5.78,7.92,8.74.18.2.43.17.66.2a4.2,4.2,0,0,1,2.73,2.18c1.14,1.93,2.9,3.29,4.26,5,1.18,1.51,2.78,2.69,3.79,4.29,1.77,2.81,4.55,4.77,6.23,7.56s4.21,4.83,6,7.54a30.72,30.72,0,0,0,3.9,5.11,2.55,2.55,0,0,1,.89,2.18,10.15,10.15,0,0,0,2.16,3.41c1.43,1.31,2.17,3.21,3.31,4.8.88,1.24,1.55,2.63,2.48,3.84a2.05,2.05,0,0,1,.37,1.5,1,1,0,0,1-.5.88c-1.49-.21-2.16-1.6-2.61-2.57-1-2.06-2.56-3.68-3.53-5.7a13,13,0,0,0-2.25-3.12c-.79-.87-1.36-2-2-2.9a32.2,32.2,0,0,0-4.11-5.2,1.38,1.38,0,0,1-.3-.29c-1.42-2.06-3-4-4.54-6-1.15-1.42-2.67-2.57-3.43-4.36-.47-1.12-1.62-1.83-2.43-2.77q-2.92-3.41-5.81-6.84c-1.5-1.8-3.24-3.35-4.76-5.15-2-2.36-4-4.72-6.2-6.93a19.24,19.24,0,0,0-3.09-3.16c-.37-.24-.45-.72-.6-1.13a1.81,1.81,0,0,0-1-1.11,2.28,2.28,0,0,1-1.47-2.39A1.16,1.16,0,0,1,113.33,26.84Z"/><path class="cls-3" d="M153.05,72.28c.23-.82-.26-1.34-.79-1.82a6.24,6.24,0,0,1-1.86-2.71c-.2-.6-.7-.8-1.1-1.06-1.35-.92-1.4-2.7-2.64-3.71s-2-2.37-3.19-3.45A18.41,18.41,0,0,1,141.73,57a23.46,23.46,0,0,0-3.89-4.39c-1.13-.92-1.17-2.33-2.28-3.19a17.22,17.22,0,0,1-2.94-3.25c-1.41-1.85-3.48-3.11-4.53-5.33a4.36,4.36,0,0,0-2.39-2c-1.65-1.87-3.41-3.63-5-5.56-1.44-1.75-3-3.38-4.36-5.23-.22-.31-.51-.58-.42-1v-.25h2.87a3.14,3.14,0,0,0,1,2.09q5,5.58,9.88,11.19c3.35,3.84,6.73,7.66,10,11.55s6.41,8.19,9.76,12.16c1.83,2.15,3.22,4.63,5.23,6.6a9.41,9.41,0,0,1,1.36,2.19c1.15,1.92,2.83,3.47,4,5.4,1.51,2.6,3.14,5.12,4.82,7.61a2.91,2.91,0,0,1,.35,1.09,2,2,0,0,1,.05.43,1.43,1.43,0,0,1-.29,1c-.77.46-1.12-.07-1.5-.6-1.33-1.8-2.29-3.84-3.56-5.68C158.29,79.55,157,77,154.84,75,154,74.25,154,73,153.05,72.28Z"/><path class="cls-4" d="M157.08,101.6h-1.44a9.77,9.77,0,0,1-2-3.41c-1.1-2.86-3-5.2-4.49-7.78-1.26-2.16-2.6-4.28-4-6.33a25.58,25.58,0,0,0-3.36-4.55c-1-.93-1.2-2.49-2.4-3.32-.86-.19-1.51-.6-1.58-1.57,0-.19-.06-.24-.24-.36a6,6,0,0,1-2.47-3.82,11.76,11.76,0,0,0-2-2.72q-3.47-3.94-6.76-8c-3.35-4.11-7.12-7.83-10.57-11.84-1.12-1.3-2.36-2.5-3.6-3.69a5.25,5.25,0,0,1-1.87-2.81.63.63,0,0,1,.62-.47,4.33,4.33,0,0,1,2.6,1.64,13.51,13.51,0,0,1,3.06,3.75,1.15,1.15,0,0,0,.59.6c2.12.85,3.25,2.67,4.35,4.51a2.13,2.13,0,0,0,.31.47c2.86,2.65,5.11,5.88,8.11,8.4,1.25,1.44,2.82,2.56,4,4.07.54.68.78,1.49,1.28,2.2a51.73,51.73,0,0,0,3.64,4,19.29,19.29,0,0,1,1.76,2.88c1.29,2.13,3,3.9,4.31,6s2.7,4.27,4,6.39c1.23,2,2.79,3.75,3.72,5.85,1.3,3,3.28,5.63,4.19,8.79A1.53,1.53,0,0,1,157.08,101.6Z"/><path class="cls-5" d="M126.28,26.84h3.16c-.11,1.33.94,2,1.63,2.86,1.64,2,3.29,4.05,5.07,6a16.75,16.75,0,0,0,2,2.07,9.9,9.9,0,0,1,2.53,2.9c1.17,2,3,3.49,4.55,5.24A27.67,27.67,0,0,1,147.5,49a39.89,39.89,0,0,0,4.13,4.94c.94,1,1.28,2.48,2.45,3.33,1.48,2.09,3,4.13,4.58,6.16s3.13,4.19,4.77,6.24c1.19,1.47,1.84,3.41,3,5a.94.94,0,0,1-.07,1.2c-1,.49-1.42-.26-1.92-.87-.28-.34-.22-.94-.8-1a1.48,1.48,0,0,1-1.39-1.06,8.5,8.5,0,0,0-2.13-3.34c-.8-.84-1.16-2-1.9-2.84-2.43-2.65-4.25-5.76-6.55-8.51-2.81-3.38-5.63-6.75-8.37-10.19a74.82,74.82,0,0,0-4.82-6c-3.59-3.65-6.73-7.67-10.23-11.38-1-1-1.69-2.3-2.64-3.36C125.71,26.85,126.08,27,126.28,26.84Z"/><path class="cls-6" d="M164.85,86.68c-.61-1.84-2.19-3.07-3-4.79a13.68,13.68,0,0,0-1.72-2.84c-.9-1.1-1.38-2.48-2.49-3.46a7.89,7.89,0,0,1-2.15-3,14,14,0,0,0-3.1-4.17c-.85-1-1.2-2.2-2.15-3.13-2.59-2.57-4.5-5.73-6.88-8.49-1-1.13-1.79-2.47-2.86-3.5s-1.9-2.66-3.26-3.68a9.82,9.82,0,0,1-1.54-2.11c-.71-1-1.84-1.59-2.35-2.47-.65-1.15-1.71-1.74-2.45-2.71-1.33-1.76-2.78-3.42-4.23-5.09-2.34-2.67-4.72-5.31-7.06-8A12.29,12.29,0,0,1,118.38,28c-.51-.77,0-.85.41-1.12h1.15c.87,1.07,1.64,2.22,2.53,3.26,1.24,1.45,2.52,2.86,3.76,4.31s2.89,3,4.28,4.59c1,1.06,1.89,2.14,2.89,3.16,1.85,2.2,3.49,4.58,5.76,6.4.36.81,1.15,1.26,1.66,2a68.5,68.5,0,0,0,6.91,8.22c.72.71.7,2,1.55,2.68a60.5,60.5,0,0,1,4.28,5.63c1.15,1.66,2.67,3.08,3.54,5a19.54,19.54,0,0,0,3.14,4.44,17.15,17.15,0,0,1,2.57,4.25c.55,1.24,1.55,2.27,2.13,3.54.35.77.85,1.54.29,2.43A.3.3,0,0,1,164.85,86.68Z"/><path class="cls-7" d="M163.7,101.6h-1.44a2.88,2.88,0,0,1-.59-.62c-1.57-2.92-3.58-5.59-4.78-8.71-.66-1.73-1.95-3-2.92-4.56a55.19,55.19,0,0,0-3.32-5.19c-2.23-2.78-4.06-5.85-6.4-8.55-1.24-1.43-2.12-3.17-3.31-4.66-.22-.26-.35-.56-.75-.57-1.35-.12-1.91-1.16-2.3-2.22A4.17,4.17,0,0,0,136.81,65c-1.11-1.15-2.42-2.2-2.89-3.84.08-.61-.42-.85-.73-1.24a59.69,59.69,0,0,0-4.81-5.62,7.68,7.68,0,0,1-2.06-2.7,1.05,1.05,0,0,0-.29-.49c-2.62-2-4.39-4.9-6.89-7.09-1.73-1.52-2.88-3.66-4.66-5.2a20.8,20.8,0,0,1-3.67-4,.92.92,0,0,1,.13-.85,1.15,1.15,0,0,1,.83-.32,1.81,1.81,0,0,1,1.6.95,7.67,7.67,0,0,0,1.45,1.51c2.43,2.57,4.33,5.6,6.87,8.07s5.12,5.4,7.69,8.1c1.91,2,3.43,4.36,5.31,6.38,2.35,2.51,4.2,5.42,6.56,7.91a3,3,0,0,1,.95,1.73c0,.14,0,.37,0,.41,1.86.81,2.45,2.75,3.59,4.17A27.17,27.17,0,0,1,149.5,78a12.63,12.63,0,0,0,2.33,2.69c1.08,1.2,1.55,2.72,2.41,4,1.3,2,2.51,4,3.94,5.94A40.23,40.23,0,0,1,162,98a6.59,6.59,0,0,0,1.52,2.07C163.92,100.56,164.22,101,163.7,101.6Z"/><path class="cls-8" d="M153.34,101.6h-1.73c-1.19-2.65-3.24-4.77-4.41-7.49a13.6,13.6,0,0,0-3-4.58c-.77-.72-.72-1.79-1.39-2.62-1.64-2-3.07-4.24-4.62-6.36-1.75-2.4-3.31-5-5.24-7.22-2.4-2.79-4.57-5.74-6.87-8.6-1.67-2.09-3.58-4-5.22-6.07-1-1.31-2.41-2.32-3.27-3.78-.26-.44-.68-.86-.29-1.44a1.38,1.38,0,0,1,1-.29A2.16,2.16,0,0,1,120,54c2,2,3.48,4.42,5.69,6.25,1,.82,1.42,2.23,2.31,3.26a30.75,30.75,0,0,0,3.35,3.7c1,.82,1,2.3,2,3.25a71.67,71.67,0,0,1,5.77,7.09,134.59,134.59,0,0,1,10,14.76c1.13,2,2.78,3.63,3.53,5.84C153,99.24,153.8,100.28,153.34,101.6Z"/><path class="cls-9" d="M117.36,53.57a16.94,16.94,0,0,0,3.34,4,15.33,15.33,0,0,1,2.48,3c.41.54,1,.85,1.36,1.38,1.6,2.22,3.44,4.23,5,6.51s3.88,4,5.27,6.41c1.08,1.83,2.94,3,3.58,5.24.32,1.12,1.73,1.8,2.35,3,1,2,2.76,3.51,3.58,5.7.25.67,1.21,1.42,1.51,2.32.47,1.41,1.87,2.16,2.23,3.79s1.58,2.86,2.63,4.12a4.27,4.27,0,0,1,.93,2.6h-1.44a5.31,5.31,0,0,1-1.47-2.26c-.62-1.93-2-3.33-3-5s-2.13-3.67-3.09-5.56a13,13,0,0,0-1.35-2c-1.81-2.33-3.21-4.94-5.08-7.26a52.34,52.34,0,0,1-4.39-5.94,29.76,29.76,0,0,0-2.4-2.84c-2.83-3.6-5.86-7-8.93-10.41-1.43-1.59-3.16-2.91-4.26-4.81a6.49,6.49,0,0,0-2-2c-1.32-.91-2.08-2.35-3.17-3.48-.47-.81-1.71-1.24-1.24-2.52,1.16-.74,1.61.61,2.45.83,1.36.94,2.24,2.38,3.48,3.46C116.35,52.27,117.34,52.51,117.36,53.57Z"/><path class="cls-10" d="M153.34,101.6c-.28-2-1.58-3.65-2.17-5.55-.13-.45-.71-.75-1-1.14-1.29-1.5-1.85-3.43-3-5-1.38-1.92-2.42-4.06-4-5.82a6.73,6.73,0,0,1-.86-1.79c-.77-1.63-2.41-2.41-3.29-4a22,22,0,0,0-2.93-4c-1.39-1.55-3.15-3-4-4.84-1.37-2.86-4-4.6-5.61-7.21-1.9-3.12-4.84-5.36-7-8.29a1,1,0,0,0-.88-.36c-2.23-2.48-4.86-4.58-6.88-7.27A14.26,14.26,0,0,0,109.32,44c-.52-.44-1.09-.88-.59-1.68a1.27,1.27,0,0,1,1.44.07,82.91,82.91,0,0,1,7.2,7.56c1,1.19,2.15,2.3,3.23,3.44,2,2.07,3.8,4.27,5.67,6.43,1.36,1.58,2.85,3,4.11,4.71.37.49.85.89,1.19,1.42a36.09,36.09,0,0,0,3.92,4.37A6.09,6.09,0,0,0,137.92,74a1.14,1.14,0,0,1,.3.74c.07.84.62,1,1.3,1A28.53,28.53,0,0,0,142.29,80c2.5,3.07,4.26,6.62,6.51,9.83,2.13,3,3.54,6.4,5.51,9.48a2.42,2.42,0,0,1,.46,2.29Z"/><path class="cls-11" d="M138.08,88.11c-.61-.21-1.76.2-1.34-1.19,0-.1-.22-.27-.35-.41-1.09-1.15-1.34-2.72-2.09-4a1.76,1.76,0,0,0-1.34-.69c-.86,0-.77-.55-.9-1.07s-.22-1.22-1-1.43c-.28-.08-.58-.35-.42-.64.45-.83.12-.85-.54-.58-.19.08-.48.11-.49-.06-.07-1.29-1.76-1.94-1.36-3.42-1.89-1.94-3.32-4.28-5.13-6.28-2.67-2.94-5.32-5.9-8-8.81-1.49-1.6-3.07-3.1-4.52-4.74-.33-.37-.87-.7-.42-1.33a1.36,1.36,0,0,1,1-.26c1.66.34,2.7,1.63,3.63,2.81,2.1,2.67,4.62,5,6.84,7.51C124.89,67.24,128,71.12,131,75a118.79,118.79,0,0,1,7.13,9.61c2.08,3.25,4.39,6.35,6.15,9.81a49,49,0,0,1,2.57,5.06c.14.39.5.57.74.86s.64.75.24,1.26h-1.73c-.14-.12-.38-.18-.45-.34q-2.15-4.17-4.47-8.25C140.25,91.32,139.68,89.4,138.08,88.11Z"/><path class="cls-12" d="M144.13,26.85h10.36a.34.34,0,0,1-.13.44c-.93.58-2,0-2.93.28a3.35,3.35,0,0,1-1.18,0c-.44,0-.88,0-1.32,0a9.26,9.26,0,0,0-2.35.23,5.94,5.94,0,0,0,1.26,1.74,11.6,11.6,0,0,1,3.46,4.24c.38.89,1.61,1,2,1.94,1,2.29,3.15,3.8,4.44,6,.75,1.24,2.15,2.11,2.79,3.54,1.21,1.7,2.68,3.2,3.87,4.91,1.57,2.25,3.53,4.21,5,6.53.39.61.9,1.15.4,1.93-.69.45-1.19,0-1.64-.4A23.77,23.77,0,0,1,164,53.38c-.91-1.56-2.43-2.76-3.62-4.17-.5-.59-.86-1.38-1.69-1.66-1.14-.91-1.31-2.55-2.58-3.36a3.6,3.6,0,0,1-2.57-2.27,16.87,16.87,0,0,0-1.92-2.53,20.85,20.85,0,0,1-1.75-2.51c-.11-.38-.46-.33-.74-.4a1.23,1.23,0,0,1-.71-.65c-.45-1.31-1.89-2-2.16-3.44a4.89,4.89,0,0,0-1.91-3.18A1.55,1.55,0,0,1,144.13,26.85Z"/><path class="cls-13" d="M111.31,49.83c1.28.21,1.29,1.62,2.15,2.32,1,.84,2.3,1.51,2.93,2.8.85,1.71,2.44,2.8,3.62,4.24,1.59,1.94,3.45,3.65,5.07,5.57.74.89,2,1.35,2.19,2.79.09.65,1,1.14,1.54,1.76,1.57,2,3.59,3.56,4.54,6,.21.54.85.51,1.17,1,1.18,1.76,2.36,3.52,3.7,5.16,1.67,2,2.56,4.62,4.62,6.35-.21,1.43,1.31,2,1.6,3.34a11.88,11.88,0,0,0,1.46,2.7c1,1.7,2.48,3.08,3.07,5.05.27.94,1.26,1.61,1.2,2.73H149A6.06,6.06,0,0,1,146.42,98a8.8,8.8,0,0,0-2-3.43,2.54,2.54,0,0,1-.55-1c-.93-3-3.23-5.12-4.77-7.72-1.66-2.78-3.78-5.23-5.58-7.92-1.21-1.81-2.65-3.48-4-5.2-1.89-2.38-4-4.62-5.85-7-2.25-2.87-5.07-5.19-7.26-8.07a22.52,22.52,0,0,0-5.19-4.8,3,3,0,0,1-.62-2C110.67,50.35,110.63,49.83,111.31,49.83Z"/><path class="cls-14" d="M196.85,75.5c-.37,1.32-1.39,2.25-2,3.44a17.78,17.78,0,0,1-3.56-1.7c-1.42-1.13-3.25-1.66-4.44-2.84-1.69-1.68-4-2-5.76-3.4-1-.17-1.65-.4-1.53-1.7a2.28,2.28,0,0,0-1.14-2.15c-.89-.35-1-1.2-1.64-1.64a.73.73,0,0,1-.18-.92c.15-.31.49-.21.76-.22s.76,0,1.14,0,.85,0,1.27,0a5.46,5.46,0,0,1,2.83,1.84,5.44,5.44,0,0,0,3.59,1.87,1,1,0,0,1,.8.28c1.12,1.51,3,1.92,4.39,3.07A21.26,21.26,0,0,0,196,74C196.66,74.32,197.28,74.61,196.85,75.5Z"/><path class="cls-15" d="M150.17,27.09h1.16c2.33,0,2.89,2.15,4.13,3.45S157.41,33.8,159,35c1.93,2.09,3.37,4.57,5.28,6.68.63.7,1.16,1.51,2.17,1.73a1.3,1.3,0,0,1,.76.29c.8,2.41,3.18,3.43,4.66,5.23.81,1,1.93,1.72,2.45,2.95l-1.74,2.86c-1.2-1.06-2.84-1.7-3.34-3.44-.08-.29-.21-.59-.5-.65-1.05-.22-1.62-1.12-2.45-1.65-.48-.35-.82-.86-1.29-1.23-1.24-2.66-3.33-4.7-5.13-6.95a2,2,0,0,0-.7-.49,1.55,1.55,0,0,1-.33-.24c-1.14-2.43-3.06-4.26-4.83-6.19-.61-.66-.86-1.55-1.44-2.26s-1.29-1.61-2-2.37C150,28.62,149.48,28,150.17,27.09Z"/><path class="cls-16" d="M153.91,57.31c-.44,0-.89,0-1.08-.52-1-2.47-3-4-4.67-6a27.8,27.8,0,0,0-2-2.69c-.67-.63-.58-1.84-1.83-2.07-.6-.11-.35-1.38-1.09-1.71a5.93,5.93,0,0,1-2.55-2.85c-1.1-2-3-3.18-4.38-4.84-1-1.18-2-2.39-3-3.54A45.72,45.72,0,0,1,129.23,28c-.16-.25-.52-.36-.82-.55.24-.44.91,0,1-.6h3.75a.3.3,0,0,1,0,.37c-.31.32-.81.21-1.09.41,2.13,3.6,5.2,6.36,7.84,9.48,1.23,1.46,2.69,2.73,3.56,4.47.07.13.15.29.27.33,1.76.54,2.35,2.29,3.54,3.41a13.12,13.12,0,0,1,1.87,3,11.91,11.91,0,0,0,2.07,2.35,6.65,6.65,0,0,1,2.21,2.6c.5,1.48,2,2.32,2.61,3.67.92,1.94,2.71,3.21,3.6,5.14.22.45.7.85.28,1.42-.83.37-1.23-.2-1.62-.76A50.51,50.51,0,0,0,153.91,57.31Z"/><path class="cls-17" d="M154.49,27.09v-.24h1.45a26.66,26.66,0,0,0,3.46.1c.84.31.66,1.21.9,1.8.84,2.12,2.7,3.43,3.89,5.23,2.6,3.93,6.33,6.7,9.67,9.88.87.82,1.64,1.73,2.59,2.47a1.25,1.25,0,0,1,.56,1.24l-1.73,2.83a1.11,1.11,0,0,1-.72-.42,5.88,5.88,0,0,0-3.19-2.48c-.36-.1-.59-.46-.85-.73-1.14-.71-1-2.23-2-3.08a9.76,9.76,0,0,0-1.38-1.18,2.67,2.67,0,0,1-1.65-2.18c0-.55-.38-.78-.87-1-1.76-.81-2.75-2.4-3.8-3.91l-5.52-7.59C155,27.61,154.61,27.51,154.49,27.09Z"/><path class="cls-18" d="M113.33,26.84v.25c-.23.22-.42.32-.23.79.68,1.64,2.06,2.73,3.17,4,1.59,1.82,3.24,3.61,4.84,5.42,1.26,1.41,2.67,2.66,4,4,1,1,1.62,2.37,2.72,3.29,1.74,1.44,2.77,3.5,4.53,4.92,1.26,1,2,2.51,3.12,3.69a101.93,101.93,0,0,1,6.62,8.06c1.51,2,3.36,3.68,4.66,5.82.78,1,1.24,2.17,2.19,3,2,1.63,2.52,4.32,4.57,6,1.08.86,1.43,2.44,2.19,3.65,1.71,2.69,3.53,5.32,5.15,8.06.29.49.7,1,.35,1.58a1.07,1.07,0,0,1-1,0c-1.66-.93-2.21-2.74-3.08-4.21-1.56-2.62-3.41-5-4.89-7.7-.15-.27-.47-.31-.7-.48-2.16-3.44-4.75-6.55-7.17-9.79-1.77-2.37-3.82-4.48-5.51-6.89a39.92,39.92,0,0,0-4.51-5.32c-1.3-1.28-2.32-2.9-3.52-4.3a115.63,115.63,0,0,0-8.68-9.31c-.67-1.62-2.1-2.65-3.18-3.94-2.6-3.08-5.53-5.87-8.27-8.82-.85-.92-.79-1.17.36-1.69Z"/><path class="cls-19" d="M133.19,27.09v-.24h10.07c-.26.94-1.1.51-1.67.73a5.22,5.22,0,0,1-1,0,10.86,10.86,0,0,1-2.79,0c-.54.05-1.28-.25-.87.91.31.86.18.88.82,1.37a10.38,10.38,0,0,1,3.51,3.7,11.39,11.39,0,0,0,1.92,2.3c1.5,1.85,2.88,3.79,4.48,5.57,2.89,3.22,5.52,6.66,8.28,10,1.58,1.91,3.2,3.79,4.63,5.82.27.38.64.72.59,1.26a1.42,1.42,0,0,1-.81.61c-.71.29-1.07-.21-1.38-.68a3.93,3.93,0,0,0-1.82-1.53,6.94,6.94,0,0,1-2.61-2.79,21.67,21.67,0,0,0-2.1-2.56,18.29,18.29,0,0,1-2.27-2.83,33.6,33.6,0,0,0-4.32-5.58c-2.59-2.84-4.86-6-7.61-8.69a37.53,37.53,0,0,1-2.39-3,16.37,16.37,0,0,0-2-2.37A1.59,1.59,0,0,1,133.19,27.09Z"/><path class="cls-20" d="M126.28,26.84l-.58.25c-.33.88.57,1.1.92,1.55a66.69,66.69,0,0,0,5.19,6.46A34.25,34.25,0,0,1,137,41c1.12,1.82,2.88,3.11,4,4.81.95,1.39,2.37,2.36,3.07,4,.35.86,1.62,1.48,2.31,2.37a24.57,24.57,0,0,0,2.83,3.46,3.57,3.57,0,0,1,.92,1.92c.14.63.87,1.28,0,1.89a8.61,8.61,0,0,1-3.93-3.07c-2-2.61-4.13-5.18-6.33-7.66a8.37,8.37,0,0,0-.62-.57,6.47,6.47,0,0,0-1.91-2.42c-2.14-2.24-3.71-4.94-6-7.07-1.9-1.74-3-4.19-4.79-6.06a49.1,49.1,0,0,1-3.87-4.4,3.52,3.52,0,0,1-.67-1.39Z"/><path class="cls-21" d="M134.63,101.6h-2.89a2.07,2.07,0,0,1-1.43-1.76c-.07-.87-1-1.09-1.22-1.82a38.16,38.16,0,0,0-2.36-3.67,2.5,2.5,0,0,1-.21-.35,11.39,11.39,0,0,0-2-3.42c-1.23-1.4-1.95-3.13-3.11-4.59-1.45-1.84-2.61-3.91-3.94-5.82-.72-1-1.67-2-2.38-3.11-.36-.55-.74-1.19,0-1.79a1.17,1.17,0,0,1,.82-.1,6,6,0,0,1,2.46,2.28c1.05,1.53,2.54,2.65,3.56,4.18a3.58,3.58,0,0,0,1.35,1,1.28,1.28,0,0,1,.28.29c.17,1.16,1.12,1.87,1.73,2.74.82,1.18,1.44,2.57,2.66,3.46.83.6.85,1.81,1.73,2.38,1.54,2.65,2.75,5.48,4.7,7.89C134.84,100,135.24,100.78,134.63,101.6Z"/><path class="cls-22" d="M140.39,101.6h-2.31c-1.62-1.13-1.86-3.13-2.89-4.65-.74-1.09-1.34-2.29-2.17-3.33-.37-1.27-1.35-2.19-2-3.31-2.46-4.37-5.75-8.15-8.64-12.22-1.14-1.6-2.45-3-3.63-4.57-.36-.46-.74-.92-.38-1.55,1.57-.54,2.2.81,3,1.61,1.67,1.69,3.21,3.51,4.81,5.27a7.24,7.24,0,0,1,3.51,4.35c.21.71.89.7,1.25,1.23,2.23,3.31,4.34,6.69,6.44,10.08,1.21,1.95,1.8,4.21,3.26,6A.67.67,0,0,1,140.39,101.6Z"/><path class="cls-23" d="M111.31,52.71c1.85.94,3.7,1.88,4.76,3.8a15.93,15.93,0,0,0,2.85,3.16A46.79,46.79,0,0,1,123,63.91c1,1.28,2.38,2.35,2.91,4,.21.63,1,.65,1.22,1.09,1.11,1.77,2.74,3.12,3.78,5,.56,1,1.5,1.73,2.16,2.68,1.59,2.25,3.15,4.51,4.85,6.66,2,2.52,3.27,5.53,5.56,7.83.37.36.2.81.3,1.2a11.29,11.29,0,0,0,2.33,3.8,4.77,4.77,0,0,1,.7,1.89c.39,1.43,1.56,2.34,2.16,3.61h-1.14c-.06-.18-.05-.43-.17-.53-1.48-1.23-1.75-3.06-2.52-4.65-.44-.9-1.24-1.72-1.74-2.7a46.94,46.94,0,0,0-2.56-4.25c-1.17-1.77-2.44-3.47-3.63-5.22a20.61,20.61,0,0,0-3.08-4.18,18.1,18.1,0,0,1-2.51-3.37c-1.08-1.49-2.29-2.93-3.45-4.35-1.84-2.27-3.35-4.8-5.6-6.79-1.06-1-1.81-2.36-2.86-3.44a56,56,0,0,1-4.2-4.53c-1-1.32-2.28-2.41-3.35-3.66a1.08,1.08,0,0,0-.89-.36A.59.59,0,0,1,111.31,52.71Z"/><path class="cls-24" d="M129.45,97.9c1.35.87,1.3,2.61,2.29,3.7h-3.45c-.61-1.35-2-2.22-2.41-3.69s-1.68-2.5-2.44-3.76a31.57,31.57,0,0,0-2.5-3.77c-2-2.39-3.86-4.83-6-7.11-.53-.57-.59-1.27-1.09-1.84-.93-1.07-2.32-1.7-2.91-3.07a1.86,1.86,0,0,0-.81-1.27c-1.17-.94-1.79-2.32-2.72-3.45a1.09,1.09,0,0,1,0-1.34,1.18,1.18,0,0,1,1-.22c1.21,0,1.75.92,2.21,1.75a7.34,7.34,0,0,0,1.15,1.59c2.18,2.29,4.32,4.61,6.51,6.88a35.74,35.74,0,0,1,2.8,4.11c1.06,1.48,2.38,2.73,3.34,4.27.75,1.2,1.24,2.58,2.42,3.48h0A7.59,7.59,0,0,0,129.45,97.9Z"/><path class="cls-25" d="M177,47.57c-1.51-1.25-2.93-2.63-4.34-4-1.57-1.48-3.24-2.89-4.67-4.52-.61-.7-1.38-1.16-2-1.78-1-1-1.32-2.38-2.35-3.36a13.46,13.46,0,0,0-1.9-1.87c-1.1-.71-.93-2.28-1.83-3.17a1.32,1.32,0,0,1-.22-1.8c.5-.3,1-.1,1.56-.15a5.64,5.64,0,0,1,3.13,2.79,15.85,15.85,0,0,0,3.07,4.08c1.54,1.49,2.71,3.31,4.29,4.78,1,.9,2.22,1.5,2.57,3.06.16.71,1.16,1.19,2,1.57a3,3,0,0,1,1.86,2.33A5.84,5.84,0,0,1,177,47.57Z"/><path class="cls-26" d="M126.85,94.16c-1.29.13-1.91-1.21-2.12-1.78-.68-1.85-2.17-2.94-3.21-4.42-.62-.88-1.29-1.83-1.94-2.7-.78-1-1.15-2.29-2.16-3.24-1.89-1.78-3.61-3.75-5.37-5.65-1.07-1.15-1.77-2.5-2.71-3.7-.26-.33-.58-.26-.91-.1a28.41,28.41,0,0,0-2.9-3.49,4.38,4.38,0,0,1-1-2l1.07-1.73a39,39,0,0,1,6.87,6.77c.87,1.1,2,2,2.63,3.31a5.72,5.72,0,0,0,2.55,4c.25.14.22.37.3.44.66.6.41,1.9,1.6,2.1.12,0,.22.3.27.48a10.18,10.18,0,0,0,3.34,4.6c.1.09.23.22.23.34,0,2.19,2.28,3.07,3,4.91A4,4,0,0,1,126.85,94.16Z"/><path class="cls-27" d="M168.61,64.25h3.76c2.22.28,2.56.7,2.7,3.32,0,.92.83,1.34,1.22,2,.53,1,.81,2.31,1.46,2.86,1.38,1.17,1.67,3,2.94,4.1a4.91,4.91,0,0,1,1.72,2.57c.19.82,1.2,1,1.47,1.71a1.51,1.51,0,0,1-.47,1.89c-1.36.6-1.83-.73-2.68-1.24a6.3,6.3,0,0,1-2.07-2.13c-1.78-2.35-3.24-4.91-4.89-7.34s-3.36-4.39-4.78-6.77C168.8,65,168.43,64.7,168.61,64.25Z"/><path class="cls-28" d="M161.4,27.09h-1.73c-1.24-.15-2.52.27-3.73-.25l11.17-.08A4.62,4.62,0,0,1,170.05,29a42.69,42.69,0,0,0,5.17,6.64c1,1.08,2.18,2.11,3.29,3.15.88.83,1.9,1.6,1.92,3l-1.09,2c-1-.13-1.4-1.1-2.08-1.67a77.37,77.37,0,0,1-9.67-10c-1-1.23-1.77-2.72-2.9-3.91-.37-.38-.68-.82-1.32-.69A3.49,3.49,0,0,1,161.4,27.09Z"/><path class="cls-29" d="M140.39,101.6c.13-.55.19-1.06-.54-1.24-.08,0-.24-.09-.24-.14,0-1.49-1.44-2.34-1.58-3.76,0-.27,0-.68-.15-.8-1.36-.94-1.57-2.62-2.5-3.79-.63-.79-1.24-1.67-1.81-2.46s-1-2-1.76-2.87a16.56,16.56,0,0,0-2.29-2.44s-.09-.07-.09-.1a4,4,0,0,0-1.16-2.53A13,13,0,0,0,126,79.19a28.21,28.21,0,0,0-3-4c-1.51-1.87-2.89-3.85-4.5-5.64a.86.86,0,0,1,.05-1.28,5.77,5.77,0,0,1,3.27,2.93c.56.9,1.44,1.42,2,2.33.94,1.66,2.42,2.94,3.36,4.68A12.24,12.24,0,0,0,130.54,82c.58.43,1.55.89,1.44,2.09s1.06,1.64,1.65,2.41c.25.32.49.88,1,1.06-.25.77.05,1.14.69,1.7s1.61,1.24,1.61,2.43c0,.53,0,1.17.85,1.26.43,0,.42.51.43.8a3,3,0,0,0,1.84,2.67c.38.21.27.37.3.59a4.54,4.54,0,0,0,2.09,3.37c.5.32.38.82.54,1.24Z"/><path class="cls-30" d="M180.43,41.82c-4.71-4.78-8.89-10-13.32-15a10.2,10.2,0,0,1,2.32-1.43c1-.26,1.63.2,2.14,1.13a27.84,27.84,0,0,0,3.87,4.74c.22.24.55.41.68.72.9,2.33,2.94,3.66,4.61,5.32.6.61,1.43,1.17,1.13,2.26A5.16,5.16,0,0,1,180.43,41.82Z"/><path class="cls-15" d="M200.9,69.16a22.47,22.47,0,0,1-2.62,4,3.2,3.2,0,0,0-2.92-1.92,8.92,8.92,0,0,1-3.23-1.42c-2.37-1.21-4.7-2.5-7.11-3.65a3.12,3.12,0,0,1-1.39-1.2c-.16-.26-.26-.55.2-.63,2.48,0,5,0,7.44,0a3.16,3.16,0,0,1,2.67,1.06,2.83,2.83,0,0,0,2.62,1.15.54.54,0,0,1,.28,0c1.43.46,2.56,1.49,3.93,2C200.93,68.7,200.93,69,200.9,69.16Z"/><path class="cls-31" d="M126.57,101.6H123.4a88.9,88.9,0,0,1-5.24-8.55,2.78,2.78,0,0,0-.69-1.55c-1.26-1.15-1.79-2.78-2.75-4.13a32.46,32.46,0,0,0-4-5.19,3.83,3.83,0,0,1-1.09-2.7.85.85,0,0,1,.18-.37,1.15,1.15,0,0,1,1.63.39c3,4.14,6.7,7.77,9.58,12a76,76,0,0,1,5.41,8.62C126.66,100.6,127,101.07,126.57,101.6Z"/><path class="cls-32" d="M183.56,64.51c1.42,1.27,3.24,1.81,4.84,2.71,1.19.68,2.73,1,3.61,2.19.23.32.59.27.91.28.58,0,1.11,0,1.41.67s1,.44,1.53.48c1.84.15,2.62.91,2.42,2.35a6,6,0,0,1-1.43,2.31c0-.53-.3-.73-.82-1-2-.91-4.13-1.63-5.64-3.38-.09-.1-.23-.26-.32-.25-1.63.21-2.25-1.09-3.08-2.06-.34-.39-.79-.32-1.2-.3a3.56,3.56,0,0,1-2.53-1l-3.44-3a13.25,13.25,0,0,1,3-.14C183.09,64.38,183.35,64.32,183.56,64.51Z"/><path class="cls-33" d="M96.64,79.8,97.77,78c2.32,2.59,5,4.86,7.44,7.3.81.8,1.34,1.87,2.38,2.44a2,2,0,0,0,.79.33c.84,0,1.27.28,1.17,1.28,0,.35.38.89.58,1.34a50.85,50.85,0,0,0,3.09,5.77c.85,1.29,1.68,2.6,2.65,3.82a1,1,0,0,1,0,1.32h-2.3c-1.19-1.73-2.47-3.39-3.71-5.09a1.14,1.14,0,0,1-.22-.66A5.45,5.45,0,0,0,108,93.26c-1.56-1.87-2.78-4-4.43-5.8-2-2.26-3.93-4.68-6.49-6.42C96.65,80.72,96.21,80.44,96.64,79.8Z"/><path class="cls-34" d="M140.1,68.25c1.55,0,1.91,1.59,2.42,2.45,1.38,2.3,3.24,4.2,4.75,6.38,2.66,3.82,5.39,7.58,7.86,11.53a13.48,13.48,0,0,0,1.72,2.44,1.93,1.93,0,0,1,.54,1.27,5.5,5.5,0,0,0,1.89,3.32c1,1,1.17,2.37,1.69,3.56.38.85,1.58,1.25,1.29,2.4H161.1a1.5,1.5,0,0,1-1.11-.79c-1.88-4.24-4.85-7.88-6.76-12.11a10.41,10.41,0,0,0-1.09-1.5c-1.11-1.71-1.91-3.62-3.31-5.15-1.76-1.91-2.85-4.3-4.58-6.29a59.62,59.62,0,0,1-3.95-5.32A2.12,2.12,0,0,1,140.1,68.25Z"/><path class="cls-35" d="M133.19,93.58a2.42,2.42,0,0,1,1.58,1.7c.63,1.52,1.93,2.68,2.18,4.37.12.79,1.43.91,1.13,1.95h-3.45c-.11-1.62-1.19-2.67-2.22-3.73a1.41,1.41,0,0,1-.44-.69,13.16,13.16,0,0,0-2.27-4.26c-.31-.46-.19-.9-.25-1.35-2.07-2.84-3.94-5.83-6-8.64a1.08,1.08,0,0,1-.22-1.28c.66-.6,1.17-.06,1.62.29a9.36,9.36,0,0,1,2.27,2.55C129,87.59,131.24,90.49,133.19,93.58Z"/><path class="cls-36" d="M181.26,70.55c.62.3,1.32.4,1.78,1a1.46,1.46,0,0,0,1.47.67,1.89,1.89,0,0,1,2,1.18,2.47,2.47,0,0,0,1.34,1.12c1.2.5,2.35.84,3.15,2.12.48.79,1.92.58,2.85,1.18a2.15,2.15,0,0,1,1,1.07c-.72,1.13-1.43,2.26-2.14,3.39-.15,0-.36,0-.39-.07C192,81,190.91,80.54,189.8,80a9,9,0,0,0-1.93-.71c-.66-.15-1.94.29-1.59-1.26.05-.22-.46-.23-.7-.34a2.72,2.72,0,0,1-1.14-1.23c-.23-1.36-1.32-2.1-2.15-3S180.7,71.83,181.26,70.55Z"/><path class="cls-37" d="M126.57,101.6a43,43,0,0,0-4-6.84c-1.19-1.57-2.16-3.34-3.34-5-1.7-2.31-3.7-4.36-5.47-6.62a37.56,37.56,0,0,1-2.51-3.39c-.38-.63-.93-.34-1.34-.6a1,1,0,0,1,.26-1.28.81.81,0,0,1,1.18.42c1,.85,2.55,1.8,2.91,2.71.66,1.68,1.93,2.67,2.94,3.91,1.18,1.44,2.49,2.85,3.55,4.32s2.7,2.21,2.83,4.22c0,.62.84,1.3,1.45,1.74.34.24.59.42.65.8.19,1.28,1.3,2.17,1.45,3.48.08.71.31.31.48,0,.36.29.86.48.81,1.08l-.09,1Z"/><path class="cls-38" d="M75.87,53.2a5.8,5.8,0,0,1,1.18-1.93A16.15,16.15,0,0,1,83,53.16c1.58.94,3.32,1.57,4.86,2.57a31.82,31.82,0,0,1,2.94,1.93c1.41,1.4,3.34,2.08,4.61,3.61.29.35.72.67.49,1.24-.85.61-1.54,0-2.19-.37a16.29,16.29,0,0,0-3.19-1.43,8.08,8.08,0,0,1-4.12-2.16c-.77-.76-1.87-.91-2.79-1.41-1.4-.77-2.86-1.46-4.33-2.13a3.35,3.35,0,0,0-1.51-.23C76.73,54.79,75.82,54.5,75.87,53.2Z"/><path class="cls-39" d="M192.76,11l10.66-6.65.22.22-7.06,11.33C194.72,15.27,192.64,12.6,192.76,11Z"/><path class="cls-40" d="M168.61,64.25c1.34,1.47,2.21,3.31,3.51,4.77s1.85,3.25,3.4,4.4a1.71,1.71,0,0,1,.49,1.14,2.41,2.41,0,0,0,.91,1.7,19,19,0,0,1,2.74,3.9,5.5,5.5,0,0,0,1.31,1c.42.91-.54.8-.86,1.17-.72.25-1-.36-1.38-.72-1.14-1-1.63-2.55-3-3.33a1.19,1.19,0,0,1-1.21-1,6.09,6.09,0,0,0-.79-1.49c-2-2-2.92-4.75-4.6-7A8.76,8.76,0,0,0,167.59,67a1.93,1.93,0,0,1-.42-2.81Z"/><path class="cls-41" d="M92,64.19H89.14c-2.07-.15-3.43-1.95-5.42-2.34s-3.4-2-5.42-2.07c-1.73,0-3.08-1.17-4.73-1.34a.7.7,0,0,1-.59-.57,9.22,9.22,0,0,1,1.44-2.36,1.88,1.88,0,0,1,.85,0c1.73.71,3.62.88,5.34,1.52A28.56,28.56,0,0,1,86,59.57c1.53,1,3.1,1.87,4.67,2.77a3.25,3.25,0,0,0,1.09,1.06C92.06,63.59,92.33,63.82,92,64.19Z"/><path class="cls-42" d="M90.58,62.49c-1.89-.41-3.25-1.84-4.93-2.6-2.23-1-4.27-2.39-6.84-2.84-1.41-.25-3.2-.29-4.39-1.54a8.81,8.81,0,0,1,1.45-2.31c.62.69,1,1.66,2.38,1,.53-.26,1.8.33,2.37.9,1.17,1.15,2.77,1.35,4.11,2.07a13.09,13.09,0,0,1,3.06,1.93c.87.88,2.14.46,2.79,1.4a15.77,15.77,0,0,1,2,1.14c.71.42,1,1,.46,1.66s-1.17.45-1.7-.11C91.06,62.94,90.73,62.82,90.58,62.49Z"/><path class="cls-43" d="M80.79,45.2a14.75,14.75,0,0,1,1.74-2.83c3.74,1.92,7.34,4.07,11,6.07a46.94,46.94,0,0,0,4.14,3.83c.55.45.41,1-.11,1.46-1,.46-1.53-.28-2.28-.7-1.94-1.09-3.55-2.87-6-3-1.59-1.35-3.77-1.7-5.33-3.16-.53-.49-1.43-.44-2.17-.62C81.31,46.09,80.69,46,80.79,45.2Z"/><path class="cls-44" d="M118.51,93a47.16,47.16,0,0,1,3.61,6.15c.33.83,1.51,1.27,1.28,2.44h-2a16.18,16.18,0,0,1-2.33-3.54c-.38-1-1.34-1.73-2-2.63a75.13,75.13,0,0,0-5.73-7.23c-1.25-1.44-2.77-2.92-3.17-5,.26-1.23,1-1,1.86-.67a3.11,3.11,0,0,1,1.44,1.36,11.93,11.93,0,0,0,2.55,3.26c1.41,1.26,2.18,3,3.21,4.48A7.78,7.78,0,0,0,118.51,93Z"/><path class="cls-45" d="M161.11,89.27a56.57,56.57,0,0,0-4.2-6.87,56.16,56.16,0,0,1-3.21-5.3,4.12,4.12,0,0,0-1.09-1.38,5.09,5.09,0,0,1-1.61-2,12,12,0,0,0-3.36-4.29,3.63,3.63,0,0,1-.92-2.3.72.72,0,0,1,1,.18c.9,1.58,2.25,2.88,3.14,4.37,1.92,3.21,4.52,5.9,6.36,9.16a28.66,28.66,0,0,0,3.87,5.87,44.31,44.31,0,0,1,4.07,6.53c1.09,2.05,2.08,4.18,3.33,6.15.44.71.76,1.47.09,2.24H168a2.87,2.87,0,0,1-1-1C165.13,96.79,162.81,93.19,161.11,89.27Z"/><path class="cls-46" d="M171.75,23.92a3.51,3.51,0,0,1,1.42-.88,6.87,6.87,0,0,1,3,3.13,6.36,6.36,0,0,0,1.12,1.64c2.6,2.25,4.72,5,7.15,7.38a4.37,4.37,0,0,1-1.18,2c-2,0-3.23-1.28-4.14-2.84a5.71,5.71,0,0,0-1.26-1.71c-2.13-1.66-3.6-3.93-5.43-5.86A2.49,2.49,0,0,1,171.75,23.92Z"/><path class="cls-47" d="M177.23,101.6h-2.59c-.9-.58-1-1.7-1.61-2.48-1.39-1.73-1.85-4-3.35-5.73a9.5,9.5,0,0,1-1.2-2.87,2.38,2.38,0,0,1,1.28-1.46c1-.49,1.56.64,2.41.77,1.52,2.62,3.39,5,4.18,8,.15.58.69.92.92,1.44A2,2,0,0,1,177.23,101.6Z"/><path class="cls-48" d="M184.48,35.19c-1.13,0-1.64-1-2.23-1.61a22,22,0,0,1-3.49-4c-.38-.67-1.16-.78-1.68-1.25a10.56,10.56,0,0,1-1.48-2.42c-.35-.54-.83-1.42-1.39-1.62-.72-.27-.59-.93-1-1.23a8.86,8.86,0,0,1,2.33-1.43c.55-.15.64.32.75.64a9.17,9.17,0,0,0,2.06,2.87c2.16,2.53,4.53,4.86,6.88,7.21.84.83,0,1.36-.14,2C185.11,34.8,184.77,35,184.48,35.19Z"/><path class="cls-49" d="M175.79,77.75c.65.16,1,.7,1.33,1.19.77,1,1.58,2,2.37,3,.19.24.4.17.62.09.36-.3.65-.11.84.18,1.45,2.18,3.27,4.11,4.62,6.32a6.87,6.87,0,0,1,1.44,3,6.42,6.42,0,0,1-1.34,2.37c-.65.41-1.1.11-1.4-.46A29.12,29.12,0,0,0,182,90.34a19.63,19.63,0,0,0-2.53-5c-1.14-2-2.41-3.87-3.63-5.8A1.51,1.51,0,0,1,175.79,77.75Z"/><path class="cls-50" d="M183.56,64.51H183c-.11-.06-.15-.12-.11-.18s.07-.08.11-.08h21l-3.1,4.91a1.42,1.42,0,0,0-1.49-.62c-.74,0-1.39.07-1.54-1-.1-.68-.9-.53-1.34-.42a3,3,0,0,1-3.28-1.51,2.38,2.38,0,0,0-2.38-1.1C188.44,64.5,186,64.51,183.56,64.51Z"/><path class="cls-51" d="M122,26.84c1.22,1.36,2.52,2.65,3.65,4.08.79,1,1.76,1.83,2.49,2.9a45.18,45.18,0,0,0,5.73,6.93c1.51,1.48,2.31,3.56,3.89,4.9a10.16,10.16,0,0,1,1.71,1.89c.25.34-.2.36-.21.56a.54.54,0,0,1-.28.58c-1.36-.81-2.71-1.61-3.15-3.29-.11-.38-.51-.39-.81-.47-.51-.13-.93-.4-.79-1,.23-.93-1.26-.71-1-1.61-1.89-2.23-3.71-4.52-5.69-6.67-1.37-1.5-2.76-3-4-4.58-.88-1.11-1.78-2.21-2.6-3.36-.19-.28-.46-.5-.34-.89Z"/><path class="cls-52" d="M109.87,90.71c-.67-.07-.27-.6-.36-.9a2.28,2.28,0,0,0-1.94-1.7,3.86,3.86,0,0,0-1.06-2,1.43,1.43,0,0,1-.18-1.82c.55-.4,1-.17,1.39.24a51.16,51.16,0,0,1,4.46,5.15c1.84,2.41,3.31,5.13,5.49,7.29,1,1,1.3,2.44,2.15,3.54a.76.76,0,0,1-.16,1h-2.31c-.87-1.22-1.57-2.55-2.56-3.69-1.14-1.31-1.9-2.89-3.07-4.19A14.93,14.93,0,0,1,109.87,90.71Z"/><path class="cls-53" d="M181.26,70.55a5.85,5.85,0,0,0,2.29,3.61,3.87,3.87,0,0,1,1.17,2.15c-.44.53-1-.12-1.44.15-1.2.18-1.73-.91-2.27-1.53a22,22,0,0,1-3.19-4.33c-.06-.12-.11-.32-.23-.34-1.51-.27-1.86-1.85-3-2.59a6.9,6.9,0,0,0-.59-2.64c-.3-.92-1.28-.2-1.68-.78h6c.1.07.12.13.09.18s-.07.08-.11.08h-1.14c-.32,0-.38.2-.34.48.06.5.23.39.45.09.16.22.47.61.45.62-.48.41-.13.63.21.7,1.6.33,1.43,2.08,2.39,2.92,0,0,0,.17,0,.24C180.12,70.17,180.41,70.5,181.26,70.55Z"/><path class="cls-54" d="M80.79,45.2c.65.88,1.72.68,2.59.9.34.09.67.09.88.38,1,1.41,2.93,1.36,4.23,2.37a12.24,12.24,0,0,1,.94,1,2.74,2.74,0,0,1,2.45,1.43A2.16,2.16,0,0,0,93,52.1c1.51.68,1.73,1.15,1.4,2.91-1.23-.21-2.15-1.06-3.21-1.6a3.68,3.68,0,0,0-2-.57,4,4,0,0,1-2.75-1.33,15.55,15.55,0,0,0-5.76-3c-.79-.27-1.38-.42-1.09-1.4A6.57,6.57,0,0,1,80.79,45.2Z"/><path class="cls-55" d="M171.75,23.92c.27,1.91,1.61,3.08,2.81,4.45a35.68,35.68,0,0,0,4.65,4.79c.07.06.18.13.19.21.32,2.08,2,2.8,3.59,3.54.13.05.21.19.31.29a5.75,5.75,0,0,1-1.44,2.31c-1.36-2.17-3.55-3.56-5.2-5.47-.15-.17-.47-.27-.5-.44-.35-2.11-2.26-3-3.4-4.52-.52-.68-1.33-1.28-1.51-2-.26-1.11-1-1.41-1.82-1.7A8.77,8.77,0,0,1,171.75,23.92Z"/><path class="cls-56" d="M80.75,105.58a6.27,6.27,0,0,1,1.19-1.94,1.11,1.11,0,0,1,.93.22,15.83,15.83,0,0,1,4.64,4.25c.08.12.14.25.21.37.28.5-.07,1.32,1.16,1.29.87,0,.92,1.15.61,2a8.22,8.22,0,0,1-2.31,1.42c-1.52.46-1.21.22-2.2-1-.87-1.1-1.09-2.72-2.71-3.36A2.53,2.53,0,0,1,80.75,105.58Z"/><path class="cls-57" d="M111,41.19l-.57.29c-.39.29-.81.12-1.22.1a6.15,6.15,0,0,1-2.76-2.4,27.65,27.65,0,0,0-4.21-4c-.9-.79-1.67-1.68-2.49-2.54-1-1.33-2.32-2.37-3.27-3.73-.41-.59-1.22-1.27-.16-2h1.72c1.84,2.07,4.07,3.75,6,5.77.4.42.82.8,1.19,1.24,1.23,2,3.21,3.35,4.56,5.23C110.25,39.75,111.14,40.18,111,41.19Z"/><path class="cls-58" d="M89.49,111.77c-.31-.35-.2-.8-.27-1.21a1,1,0,0,0-.81-.7c-.5-.12-.3.49-.63.75A6.44,6.44,0,0,0,86,107c-1.18-1.39-2.92-2-4-3.34a11.06,11.06,0,0,1,1.43-2.32c.28-.06.57-.21.83,0a20.74,20.74,0,0,1,5.6,4.95A22.56,22.56,0,0,1,92.35,110,14.71,14.71,0,0,1,89.49,111.77Z"/><path class="cls-59" d="M167.17,64.23c-.07,1.14-.14,2.17,1.25,2.78.6.26.9,1.21,1.31,1.87.62,1,1.17,2.05,1.76,3s1,2.48,2.29,3.18c.16.09.19.42.28.64-.09.5-.28.91-.86,1a4.66,4.66,0,0,1-2.34-2.39,38.06,38.06,0,0,0-2.51-3.65c-1.88-2.41-3.67-4.88-5.35-7.44-.72-1.11-1.72-2-2.49-3.13-.31-.45-.7-.82-.26-1.39.22-.3.54-.28.86-.29.87-.18,1.27.33,1.6,1,.23.48.3,1.14,1.06,1.14a3.23,3.23,0,0,1,2.63,2.24,4.16,4.16,0,0,0,.53,1.13Z"/><path class="cls-60" d="M119.66,101.6A11.91,11.91,0,0,0,117,96.94a13,13,0,0,1-2-2.63,15.67,15.67,0,0,0-2.91-3.8c-1-.8-1-2.13-1.89-3.05a10.23,10.23,0,0,0-1.52-1.24c-.84-.53-.93-1.93-2.2-1.85l-.19-.15c-.28-1.25-.2-1.33,1.36-1.41a1,1,0,0,1,.84.41c.69,1.06,1.42,2.1,2.06,3.18a24.29,24.29,0,0,0,3.38,3.95,36.77,36.77,0,0,1,3.19,4.07c1,1.4,2.41,2.52,2.85,4.41.2.88,1.43,1.58,1.48,2.77Z"/><path class="cls-61" d="M86.24,96.67a7.36,7.36,0,0,1,1.18-1.93c2,1.78,4.55,3.08,5.87,5.62a2.42,2.42,0,0,0,1.12,1.07,3.8,3.8,0,0,1,2.37,2.66,1.2,1.2,0,0,0,.7.85,1.53,1.53,0,0,1,.92,1.35,8,8,0,0,1-2.33,1.43,7.49,7.49,0,0,1-1.9-2c-2-2.38-4.21-4.54-6.32-6.81-.31-.33-.74-.42-1-.74S85.92,97.37,86.24,96.67Z"/><path class="cls-62" d="M100.37,26.85h3.16c.65,1.83,2.3,2.87,3.49,4.25a41.2,41.2,0,0,0,3.5,3.74c1.47,2.24,3.87,3.66,5.28,5.95a1.76,1.76,0,0,1,.41,1.05.77.77,0,0,1-.48.68c-1,.08-1.48-.78-2.23-1.17-1.21-1.39-2.34-2.89-4.15-3.59a1,1,0,0,1-.65-.54c-.51-1.44-1.85-2.16-2.79-3.22-2-1.75-3.47-3.91-5.27-5.81C100.29,27.81,99.88,27.41,100.37,26.85Z"/><path class="cls-63" d="M153.05,72.28c.23.06.61,0,.65.18a10.88,10.88,0,0,0,2.83,3.79c1.4,1.36,2,3.26,3.43,4.6A5.07,5.07,0,0,1,161.22,83c.57,1.93,2.2,3.19,3,5,.06.13.43.13.65.18,1.51,2.42,2.45,5.18,4.17,7.44,1.12,1.47.92,3.38,2.1,4.75a1,1,0,0,1-.22,1.3h-1.15c-1.3-2.32-2.52-4.7-3.68-7.08s-2.71-4.42-3.92-6.71c-.34-.64-.44-1.35-.75-2,0-1.49-1.27-2.34-1.91-3.49a17.71,17.71,0,0,0-2.08-3.2c-1-1.15-1.4-2.73-2.78-3.71C153.72,74.76,153.36,73.44,153.05,72.28Z"/><path class="cls-64" d="M80.75,105.58c-.32,1.44,1.3,1.85,1.56,3,.84-.32,1.19.42,1.6.84.62.64.31,2,1.69,2.09a.36.36,0,0,1,.05.23c-.7,1.75.53,1.5,1.53,1.48a19.72,19.72,0,0,1-3.78,2.31c-1.89-1.63-3.1-3.93-5.25-5.3-.15-.1-.09-.35,0-.51A27.61,27.61,0,0,1,80.75,105.58Z"/><path class="cls-65" d="M111.31,101.6H109c-1.39-1.47-2.24-3.37-3.84-4.69-.88-.74-.92-2.08-1.68-3A5.87,5.87,0,0,0,102,91.74a24.91,24.91,0,0,1-4.15-4.66c-.32-.54-1.19-.52-1.39-1.3-.13-.49-.56-.91-.32-1.48.63-.88,1.19-.68,1.85,0,2.29,2.44,4.27,5.18,6.86,7.34.48.4.51,1.15,1.11,1.46,1.75,2.25,3.66,4.38,5.22,6.78A1.35,1.35,0,0,1,111.31,101.6Z"/><path class="cls-66" d="M102.15,104a3,3,0,0,1-1.43.86c-1,.31-1.38-.77-1.67-1.18A64.56,64.56,0,0,0,89.44,93.4,1.06,1.06,0,0,1,89.1,92a14.19,14.19,0,0,1,1.74-2.81c.77,1,2.3,1.56,1.76,3.25a34.52,34.52,0,0,0,3.67,3.88,18.9,18.9,0,0,1,4.45,5.53C101.1,102.66,102,103.1,102.15,104Z"/><path class="cls-67" d="M73,57.87c1.24.6,2.62.63,3.93,1.25,1,.49,2.66.32,3.87,1,1.55.82,3.2,1.32,4.8,2a26.45,26.45,0,0,1,3.56,2.14H85.4c-.45-.4-1-.23-1.51-.25a3.46,3.46,0,0,1-2.52-.83.93.93,0,0,0-.47-.31c-2.5-.34-4.54-1.92-7-2.49A6,6,0,0,1,72.26,60c-.33-.18-.25-.47-.13-.75A3,3,0,0,1,73,57.87Z"/><path class="cls-68" d="M107.57,101.6l-1.63.08c-1.37.51-2-.81-2.3-1.43-2-3.57-5.41-5.88-7.67-9.15a13.81,13.81,0,0,0-2.82-2.89,1.17,1.17,0,0,1-.38-1.3c.85-.94,1.81-.84,2.94.3A6.07,6.07,0,0,0,98.1,90.1a19.38,19.38,0,0,1,5.18,5.34,23.33,23.33,0,0,0,3.8,4.75C107.48,100.58,108,100.91,107.57,101.6Z"/><path class="cls-69" d="M185.05,34.35a1.63,1.63,0,0,0-.52-1.92A53.74,53.74,0,0,1,180,27.88c-1.54-2.05-4-3.51-4.52-6.27a3.36,3.36,0,0,1,1.42-.87,1.64,1.64,0,0,1,1.69,1.06,14.43,14.43,0,0,0,3.76,4.78c1.51,1.3,2.63,3,4.13,4.37a.71.71,0,0,1,.27.76C186.15,32.56,185.88,33.64,185.05,34.35Z"/><path class="cls-70" d="M161.4,27.09h2.3c1.29,1.59,2.51,3.23,3.65,4.94a50.86,50.86,0,0,0,6.11,6.78c1.78,1.84,4,3.24,5.56,5.31-.18.55-.3,1.14-.9,1.44a18.88,18.88,0,0,0-4.32-3.33c-.08,0-.19-.13-.2-.2-.13-2.73-3.1-3.14-4.19-5.12a20.07,20.07,0,0,0-3.29-3.84C164.34,31.21,163.58,28.59,161.4,27.09Z"/><path class="cls-71" d="M87.71,55.87c-1,.35-1.57-.68-2.44-.87S83.68,53.82,83,53.59c-1.74-.63-3.44-1.73-5.3-1.68-.87,0-.37-.57-.68-.64a5.29,5.29,0,0,1,1.12-1.81c3.66.21,6.54,2.27,9.52,4.07a43.06,43.06,0,0,0,3.86,2,8.06,8.06,0,0,1,2.84,2.1.88.88,0,0,1-.29,1.15c-2-.43-3.57-1.9-5.46-2.64A7.8,7.8,0,0,0,87.71,55.87Z"/><path class="cls-72" d="M106.42,84.37c-.28,1.42,1.22,2,1.54,3.15.15.57.1.62-.39.59-1.41.26-1.41-1.25-2.17-1.83a56.1,56.1,0,0,1-4.62-4.51c-.91-.88-1.91-1.66-2.82-2.53-.33-.32-.14-.82-.19-1.24a3.45,3.45,0,0,1,.87-1.41,2,2,0,0,1,1.87.8,48.71,48.71,0,0,0,3.9,3.7,2.7,2.7,0,0,1,1,1.94c0,.67.59.93,1,1.34Z"/><path class="cls-73" d="M89.1,92c.06,1.12,1.18,1.41,1.79,2.07,1,1.09,2.2,2,3.18,3.19a18.37,18.37,0,0,0,2.82,3,7.34,7.34,0,0,1,2,2.55c.43.85,1.35,1.23,1.79,2A5.61,5.61,0,0,1,98.94,106a2.67,2.67,0,0,1-1.67-2c0-.4-.43-.63-.68-.9a11.81,11.81,0,0,1-2.16-2.63c-.4-.83-1.48-1.24-2.21-1.94-1.44-1.39-2.57-3.09-4.21-4.28a.27.27,0,0,1,0-.38A5.91,5.91,0,0,1,89.1,92Z"/><path class="cls-74" d="M78.2,109.69c1.07.17,1.12,1.72,2.39,1.7.57,0,0,1,.83,1.19.52.08,1.81,2.3,2,2.92a12.82,12.82,0,0,1-2.85,1.8,1.73,1.73,0,0,1-2-.74c-.48-.64-1-1.23-1.57-1.82a2.07,2.07,0,0,1-.57-2.19A12.64,12.64,0,0,1,78.2,109.69Z"/><path class="cls-75" d="M152.47,87c1.45,1.43,2.1,3.35,3,5.09.38.72.93,1.26,1.31,2a65.72,65.72,0,0,1,3.74,7c.1.25.39.42.58.62h-2.58a4.9,4.9,0,0,1-1.33-1.85,43.79,43.79,0,0,0-3.37-5.82,3,3,0,0,1-.35-2.07,7.78,7.78,0,0,0-1.64-2.7,1.86,1.86,0,0,1-.41-2.08A.71.71,0,0,1,152.47,87Z"/><path class="cls-76" d="M92.31,92.43c.07-.69.21-1.34-.75-1.64-.65-.21-.31-1.11-.72-1.57l.5-.86a21.86,21.86,0,0,1,5.38,4.16c1.91,1.87,3.48,4,5.33,5.92,1.09,1.12,2.41,2.29,2.39,4.14a1.32,1.32,0,0,1-.87.52c-1.44-.41-2.13-1.71-3-2.72a38.54,38.54,0,0,0-6.08-6.23A18.22,18.22,0,0,0,92.31,92.43Z"/><path class="cls-77" d="M93.46,48.68a9.4,9.4,0,0,1-3.34-2c-.28-.35-.67-.31-1.05-.35a3.26,3.26,0,0,1-2.53-1.29,5.21,5.21,0,0,0-2.75-1.54,1.74,1.74,0,0,1-1.26-1.17,4.16,4.16,0,0,1,.9-1.46c.75-.52,1.21.27,1.8.43A16.46,16.46,0,0,1,91.46,45a16.2,16.2,0,0,0,3.18,2.13c.57.27,1,.59.67,1.31C94.74,48.84,94,48.34,93.46,48.68Z"/><path class="cls-78" d="M107.57,101.6c-.13-1.15-1.48-1.26-1.88-2.22-.71-1.69-2.85-2.43-3.06-4.49-.06-.62-.74-.54-1-.84-.85-.92-1.83-1.75-2.57-2.71-.47-.62-1.07-.69-1.54-1.1-.93-.82-2.13-1.46-2-3,.59-.65.59-.66,1.35-.1a23.21,23.21,0,0,1,3.48,3.16c1.12,1.24,2.46,2.26,3.52,3.56,1.21.89,1,2.87,2.39,3.49s1.24,2.41,2.5,3.12a.81.81,0,0,1,.29,1.12Z"/><path class="cls-79" d="M96.64,79.8c-.07,1,1.07,1.22,1.51,1.56a41.59,41.59,0,0,1,9,10.08c.9,1.34,2.35,2.29,2.9,3.89a5.12,5.12,0,0,1,.15.56,1.26,1.26,0,0,1-1.79-.65c-.82-1.43-2.58-2.16-2.87-4,0-.23-.52-.39-.71-.67A17.72,17.72,0,0,0,101,86.93a16.27,16.27,0,0,1-3.33-3.19,16.68,16.68,0,0,0-1.25-1.15c-.35-.38-1.06-.62-.65-1.37A3.67,3.67,0,0,1,96.64,79.8Z"/><path class="cls-80" d="M91.45,55.87A9.18,9.18,0,0,1,87.62,54a17.9,17.9,0,0,0-4-2.21A6.78,6.78,0,0,1,82,50.87c-.32-.27-.52-.77-.92-.11a7.57,7.57,0,0,0-2.86-1s0-.18-.06-.27a10.33,10.33,0,0,1,1.43-2.34c.21.57.3,1.21,1.23.78s1,.63,1.57.87c1.57.64,3.38,1,4.46,2.41a2.89,2.89,0,0,0,2.28,1.24,4.78,4.78,0,0,0,1.43,1.68c.54.38,1.36.82,1.12,1.79a.16.16,0,0,1-.11,0A.52.52,0,0,1,91.45,55.87Z"/><path class="cls-81" d="M183.28,76.31l.11-1c.59.28.52,1.26,1.33,1,.57,1.08,1.86,1.07,2.74,1.6-.19.67-.88.15-1.08.7a4.88,4.88,0,0,0,1.93.3c.68,0,1.49-.21,1.69.81,0,.08.14.21.18.2,2-.42,2.1,1.18,2.55,2.41a8,8,0,0,1-1.43,2.33c-.15.28-.39.5-.64.19-1.36-1.73-3.47-2.56-4.92-4.17-.74-1.07-1.47-2.15-2.19-3.23C183.31,77.09,183,76.77,183.28,76.31Z"/><path class="cls-82" d="M182.12,90.13a6.47,6.47,0,0,1,2.43,2.9c.26.51.48.92,1.12.88a10.34,10.34,0,0,1-1.4,2.29c-.53.52-.93.33-1.26-.22a37.9,37.9,0,0,0-4.93-6.93,2.53,2.53,0,0,1-.49-.88c-.18-.92-1.21-1.49-1.06-2.55a1.59,1.59,0,0,1,.43-1.38,1.35,1.35,0,0,1,1.95.57A34.65,34.65,0,0,1,182.12,90.13Z"/><path class="cls-83" d="M84.78,38.77a5.67,5.67,0,0,1,1.16-1.91,1.3,1.3,0,0,1,1.4.48c1.38,1.43,3.21,2.21,4.87,3.2,1,.6,1.63,1.59,2.66,2.11a3.5,3.5,0,0,1,1.2,3.24,1,1,0,0,1-.53.28,1.44,1.44,0,0,1-1.09-.23,66.07,66.07,0,0,0-8.62-5.53C85.17,40.06,84.56,39.68,84.78,38.77Z"/><path class="cls-84" d="M94.61,42.92c-.76.08-.78-.75-1.25-1.05Q90.65,40.18,88,38.41c-.71-.47-1.36-1-2-1.55A5.48,5.48,0,0,1,87.08,35c.18,0,.4-.17.55-.08,1.68,1,3.77,1.16,5.22,2.6a9.56,9.56,0,0,0,3.66,4.15c.73.52,1.55,1,1.39,2.07a1,1,0,0,1-1.5-.08A3.84,3.84,0,0,0,94.61,42.92Z"/><path class="cls-85" d="M186.77,31.71c-1.83-1.17-2.89-3.13-4.54-4.47a16.63,16.63,0,0,1-3.45-3.87,9.51,9.51,0,0,0-1.86-2.63,3.09,3.09,0,0,1,1.42-.87A5.56,5.56,0,0,1,181.9,23c1.1,2,2.95,3.32,4.33,5.06.54.68,1.46,1.12,1.37,2.19Z"/><path class="cls-86" d="M104.44,102.58a11.19,11.19,0,0,1-1.92-2.63c-1.41-2.26-3.34-4-5-6a20.48,20.48,0,0,0-4.72-4.37c-.55-.34-1.2-.55-1.46-1.23A10.38,10.38,0,0,1,92.84,86c.4.22,0,.71.33,1-.17.45-.22.91.35,1a3,3,0,0,1,2,1.49c1.08,2.27,3.26,3.61,4.51,5.69a8.5,8.5,0,0,0,1.75,1.64c.94.87,1.33,2.06,2.11,3,.6.68,1,1.67,2.09,1.91A3.79,3.79,0,0,1,104.44,102.58Z"/><path class="cls-87" d="M84.78,38.77c.35,1.2,1.57,1.44,2.42,1.93a46.46,46.46,0,0,1,7.57,5.06c.14.12.47,0,.71,0,.65.74,1.1,1.63,1.82,2.33a1.3,1.3,0,0,1,.17,1.8c-1.09,0-1.67-.8-2.28-1.54,0-.33,0-.73-.42-.81-1.55-.29-2.42-1.63-3.67-2.39-.9-.53-1.42-1.72-2.76-1.47a.19.19,0,0,1-.12,0c-.72-1.94-2.64-1.56-4.07-2.11-.37-.14,0-1-.72-.65A7.82,7.82,0,0,1,84.78,38.77Z"/><path class="cls-88" d="M181.59,100.5c-.26,1.16-1.06,1.3-2.06,1.1-.72-1.51-2-2.74-2.53-4.31A16.85,16.85,0,0,0,174.76,93a7.75,7.75,0,0,1-1.47-3.09c-.1-.65-.33-1.33.19-1.93a.92.92,0,0,1,.81-.09c.93.52,1.06,1.76,2,2.26a1.73,1.73,0,0,1,.65.75c.77,2.67,2.84,4.62,3.84,7.16A7.21,7.21,0,0,1,181.59,100.5Z"/><path class="cls-89" d="M153.91,91.86c-.36,2,1.4,3.08,2.11,4.61a44.18,44.18,0,0,1,2.5,5.13h-1.44c-.92-.69-1-1.89-1.26-2.79a12.13,12.13,0,0,0-2.1-3.94,26.66,26.66,0,0,1-1.65-3.42c-.89-1.64-2.46-2.82-3-4.66a8.51,8.51,0,0,0-1.55-2.34,31,31,0,0,1-2.85-5c.55-.24.57-.25.79,0a17.38,17.38,0,0,1,2.61,3.21C150,85.73,151.66,89,153.91,91.86Z"/><path class="cls-90" d="M154.77,101.6c-.84-2.86-2.75-5.18-4-7.83-1.38-2.87-3.48-5.32-5.09-8a37.81,37.81,0,0,0-3.57-5.21c-1-1.22-1.48-2.88-2.81-3.94-.37-.3.08-.58.25-.83,1.08.23,1.18,1.34,1.66,2.05s1.12,1.38,1.61,2.1a46.22,46.22,0,0,1,3.78,5.64A46.18,46.18,0,0,0,149.45,90c1,1.54,1.9,3.17,3,4.63s1.26,3.53,2.59,5c.42.46.4,1.34.58,2Z"/><path class="cls-91" d="M183.5,16.7a14.35,14.35,0,0,1,2.91-1.82c1,2.86,3.49,4.59,5.44,6.71.35.39.68.66.36,1.19a7.71,7.71,0,0,1-1.41,2.31c-.48.19-.71-.22-1-.45a43.72,43.72,0,0,0-4.21-4.07c-.08-.05-.17-.14-.16-.23C185.57,18.72,184.13,17.92,183.5,16.7Z"/><path class="cls-92" d="M92.35,110c-1.35-.58-1.89-2-2.58-3a15.46,15.46,0,0,0-3.62-3.8,27.54,27.54,0,0,0-2.78-1.88A8.53,8.53,0,0,1,84.81,99c.78.61,1.85.85,2.12,2.07.09.44.88.27,1.29.67a52.92,52.92,0,0,1,5.12,6.06,1.84,1.84,0,0,1,.43,1.33A3.4,3.4,0,0,1,92.35,110Z"/><path class="cls-93" d="M173.49,88.11c-.15,2.63,1.61,4.44,2.86,6.44a5.15,5.15,0,0,1,.58,1.08,10.48,10.48,0,0,0,2.41,4.42c.29.29.14,1,.19,1.55h-2.3c.36-1.55-.81-2.57-1.39-3.77-.43-.91-.42-2-1.13-2.79-.89-1-1-2.56-2.19-3.47-.38-.28-.33-1.13-.47-1.73-.73-.46-1.75-.79-.79-1.94a1.87,1.87,0,0,1,1.14-.21A1.17,1.17,0,0,1,173.49,88.11Z"/><path class="cls-94" d="M72.13,59.24c0,.47.31.48.67.52a12.92,12.92,0,0,1,5.66,2c.1.07.27,0,.4,0,2.2.09,3.77,2.21,6.1,1.9.26,0,.38.25.44.49H79.07c-.12-.15-.28-.31-.47-.29-2.22.24-4.09-1-6.15-1.44-1-.21-1.2-.95-1.21-1.83A3.76,3.76,0,0,1,72.13,59.24Z"/><path class="cls-95" d="M179.79,19a6.43,6.43,0,0,1,1.76-1.1c1.42.36,2.07,1.65,3,2.57a14.08,14.08,0,0,1,2.71,3.29,3.68,3.68,0,0,0,1.44,1.15,1.8,1.8,0,0,1,.95,2.17c-.28.42-.42.95-.89,1.24a33.73,33.73,0,0,1-4.55-3.59,17.09,17.09,0,0,0-1.82-1.57C181,22.12,180.38,20.54,179.79,19Z"/><path class="cls-96" d="M168.93,60.5a4.27,4.27,0,0,1-1.21,2c-1.19-.23-1.64-1.11-1.91-2.16a5.07,5.07,0,0,0-1.17-1.76c-2-2.45-3.54-5.2-5.69-7.52a2,2,0,0,1-.36-2.26.84.84,0,0,1,.31-.28c1.18,0,1.75.84,2.31,1.62a79.42,79.42,0,0,0,6.89,8.21A2.91,2.91,0,0,1,168.93,60.5Z"/><path class="cls-97" d="M189.67,27.05c-.24-.91-.6-1.78-1.58-2-1.43-.36-1.54-1.85-2.43-2.69a9,9,0,0,1-1.82-2c-.58-1.07-2.06-1.17-2.29-2.45a6.66,6.66,0,0,1,1.95-1.17c1,.61,2.29,1,2.17,2.54s1.27,1.57,1.9,2.31c1,1.21,2.17,2.34,3.23,3.54A8,8,0,0,1,189.67,27.05Z"/><path class="cls-98" d="M194.82,18.5a8.38,8.38,0,0,1-1.74,2.87,1.69,1.69,0,0,1-1.08-.66,18.3,18.3,0,0,0-3.34-3.3,3,3,0,0,1-.82-3.39,5.21,5.21,0,0,1,1.75-1.09,1.2,1.2,0,0,1,1.7.7c.82,1.61,1.55,3.35,3.41,4.14C195,17.89,195,18.22,194.82,18.5Z"/><path class="cls-99" d="M179.79,19c.69.39,1.37.7,1.22,1.77s1.06,1.59,1.57,1.86A13.94,13.94,0,0,1,185.36,25c1.17,1,2.81,1.64,3.42,3.26a4.44,4.44,0,0,1-1.18,2c-1.83-1.71-3.38-3.69-5.2-5.43a13.11,13.11,0,0,1-2-3.29c0-.06-.06-.19-.1-.19-1-.11-1.28-1-1.93-1.48A3.85,3.85,0,0,1,179.79,19Z"/><path class="cls-100" d="M87.71,55.87c.28,0,.2-.68.5-.49A64.86,64.86,0,0,1,94,58.75a1,1,0,0,1,1.5.18c1.12,1.56,3.34,1.79,4.23,3.61.16.34.67.3,1,.45.52.22,1.1.43.73,1.2H98.06c-.87-.41-1.87-.66-2.29-1.7-.9-1.2-1.73-2.49-3.45-2.61-.09,0-.25,0-.27-.07-.62-2.12-3-2.14-4.2-3.54A1.18,1.18,0,0,1,87.71,55.87Z"/><path class="cls-101" d="M90.36,29.68l1.28-2.06a2.67,2.67,0,0,1,3.65,1.52,4.64,4.64,0,0,0,.58,1.13A2.58,2.58,0,0,0,97,32.14c1.11.76,1.83,1.91,2.87,2.73a1,1,0,0,1,.17,1.6,1.5,1.5,0,0,1-1,.24c-1.24,0-1.86-1.06-2.72-1.69A12.66,12.66,0,0,1,95.18,34a30.53,30.53,0,0,0-4.31-3.64A1,1,0,0,1,90.36,29.68Z"/><path class="cls-102" d="M92.31,92.43c1.38-1.13,1,.29,1.22.85.59.1.37-.69,1-.63C94.29,94,95.83,94,96.25,95.08s2.09,1,2.18,2.45c1-.12,1,1.15,1.17,1.16,1.46.13,1,2,2.33,2.43a2.86,2.86,0,0,1,1.64,2,3.66,3.66,0,0,1-1.42.9,2.14,2.14,0,0,1-1.7-1.71c-.23-1.39-1.38-2-2-2.93-1.57-2.29-4.08-3.76-5.66-6.08-.11-.16-.42-.16-.62-.27C91.33,92.55,92.47,92.7,92.31,92.43Z"/><path class="cls-103" d="M169.75,58.46c.22-1.05-.68-1.54-1.18-2.16-1.09-1.36-1.68-3.11-3.37-4-.64-.34-.59-1.37-1.14-2a28.32,28.32,0,0,1-3.81-5c1.06-.77,1.54.19,2.12.75a47.44,47.44,0,0,1,5.37,6.46c.3.4.58.77,1.14.7A4.64,4.64,0,0,1,172,55.57l-1.72,2.93A.38.38,0,0,1,169.75,58.46Z"/><path class="cls-104" d="M170.9,101.6a2.3,2.3,0,0,0-.66-1.95c-.54-.56-1.06-1.23-.56-2.13a.58.58,0,0,0-.09-.54c-1.83-1.6-2.33-4-3.48-5.92-.56-1-1.46-1.68-1.26-3V87c.62-.2.86.29,1.13.67a32,32,0,0,1,2.86,4.92c1,2,2.13,3.83,3.06,5.81.5,1,1.32,2,1.3,3.24Z"/><path class="cls-105" d="M108.43,83.22h-.86c-1.75-1.61-3.55-3.18-5.18-4.92A8.79,8.79,0,0,0,99.84,76c-.72-.33-.17-.8-.08-1.21a6.39,6.39,0,0,1,1.18-1.93c2.26,3,5.61,4.84,7.76,7.9.26.79,1.52,1.06,1.17,2.18C109.29,82.52,108.78,82.45,108.43,83.22Z"/><path class="cls-106" d="M194.82,18.5c-.32-.9-1.39-1.22-2-1.54-1.35-.77-1.1-2.24-2-3.17a3.78,3.78,0,0,0-1.29-.86l3.17-2c.64,2.13,2.47,3.33,3.82,4.9A10.58,10.58,0,0,1,194.82,18.5Z"/><path class="cls-107" d="M173.2,101.6c-1.4-2.17-2.22-4.66-3.57-6.82-1.62-2.59-2.44-5.68-4.78-7.82v-.28h.29c.34-.51.89-.85,1.17-.15.41,1,1.38,1.51,2,2.3.43.51.8,1,.27,1.59a3.36,3.36,0,0,1,1.14,2.07c.17,1.2,1.56,1.61,1.81,2.77,0,.1.3.16.31.25.25,2.34,2.45,3.79,2.78,6.09Z"/><path class="cls-70" d="M179,44.12a24.34,24.34,0,0,1-4.41-3.6,45.79,45.79,0,0,1-7.16-7.64c-1.29-1.88-3-3.51-3.75-5.79,1.08,0,1.41.95,1.92,1.55,1.29,1.55,2.33,3.33,3.64,4.86a64.76,64.76,0,0,0,5.38,5.73,49.67,49.67,0,0,1,4.7,4.59Z"/><path class="cls-108" d="M88.26,33.12a5.28,5.28,0,0,1,1.12-1.82,1,1,0,0,1,.82.19C91.58,33,93.46,33.7,95,34.92a1.22,1.22,0,0,1,.29.31,7.4,7.4,0,0,0,3,3.15c.7.35,1.42,1,.55,1.91a3.37,3.37,0,0,1-2,.15A2.78,2.78,0,0,1,95,39.3c-1.3-1.37-2.69-2.65-4.11-3.9A23.22,23.22,0,0,1,88.26,33.12Z"/><path class="cls-109" d="M95.77,81.22c-.11.74.64.78,1,1,1.33.94,2.19,2.34,3.45,3.39a40,40,0,0,1,4.49,3.85,1.32,1.32,0,0,1,.28.93c-.11.53.39.68.62,1,.41.56.86,1.15.24,1.87-1.24-.77-2-2.08-3.11-3-1.58-1.22-2.34-3.2-4-4.35a2.37,2.37,0,0,1-1-1.3c-.26-.83-.78-.84-1.39-.32-1.48.53-2,.19-1.77-1.16A5.79,5.79,0,0,1,95.77,81.22Z"/><path class="cls-110" d="M94.57,83.21c.21,1,.88,1.23,1.77,1.16a3.24,3.24,0,0,0,1.53,1.85c.12.07.31.21.3.29-.19,1.24,1.16,1.55,1.64,2.39a9.05,9.05,0,0,0,2.61,2.63,3.79,3.79,0,0,1,1.41,2.34A8.77,8.77,0,0,1,100.38,91c-1.28-1.42-2.82-2.55-4.15-3.92-.23-.23-.54-.11-.75.14-1.18-.56-1.83-.64-2.31-.29-.31-.25-.28-.62-.33-1A11.32,11.32,0,0,1,94.57,83.21Z"/><path class="cls-111" d="M187,91.54c-1.46-.74-1.71-2.45-2.5-3.64s-2.06-2.16-2.7-3.61a4.39,4.39,0,0,0-1.7-2.22c0-.54.9-.25.86-.86.89.28,1.12,1.63,2.31,1.43,1.48,1.72,3.24,3.23,4.12,5.39.24.57.92.68,1.1,1.25A6,6,0,0,1,187,91.54Z"/><path class="cls-112" d="M115.05,75.45c-1.65-.87-2.49-2.52-3.69-3.83a35.92,35.92,0,0,0-4.84-4.71c-.46-.33-.65-1-1-1.54l.52-1.09.13-.15a1.67,1.67,0,0,1,2,.76,9.67,9.67,0,0,0,2.17,2.16,65.64,65.64,0,0,0,5.33,7.09,1.12,1.12,0,0,1,.26,1.31Z"/><path class="cls-113" d="M105.84,93.3a1.82,1.82,0,0,0-1-2c-.4-.21-1.15-.85.17-.92.45.24,1.1.38,1.12,1,.05,1.26,1.09,1.87,1.83,2.48s.84,2.09,2.23,2c1.23,1.08,1.23,3,2.9,3.86.68.32.75,1.12.55,1.85h-2.3a10,10,0,0,0-2.11-3.74c-.61-.7-1.58-1.15-1.69-2.3,0-.4-.61-.78-1-1.11S105.76,93.87,105.84,93.3Z"/><path class="cls-114" d="M110.16,78a2.12,2.12,0,0,1-.29,1.15v.29c-.57.5-1,.28-1.47-.21-1.91-2.2-4.36-3.8-6.54-5.7a1.21,1.21,0,0,1-.35-1.62,4.94,4.94,0,0,1,1.11-1.8,8.07,8.07,0,0,1,3.13,2.44c1,1,1.89,2,2.84,3a1.86,1.86,0,0,1,.7,1.37C109.17,77.79,109.84,77.72,110.16,78Z"/><path class="cls-115" d="M77.38,119.23l-7.79,4.94-.29-.3,5.16-8.13A2,2,0,0,1,75.72,117,5.07,5.07,0,0,0,77.38,119.23Z"/><path class="cls-116" d="M88,93.86c1,.67,2.1,1.11,2.49,2.43.16.53.9.74,1.32,1.08.94.73,1.28,2.18,2.72,2.29.19,0,.52.27.52.41,0,1.72,1.48,2.23,2.42,3.18.07.06.23.12.23.14-.42,1.27,1.1,1.6,1.25,2.58l-.54.32c-.79-1-2.43-1.29-2.32-3a2.69,2.69,0,0,0-1.68-1.34,1.61,1.61,0,0,1-1.31-1,10.21,10.21,0,0,0-4.47-4.42c-.73-.38-.68-1.23-1.2-1.71Z"/><path class="cls-117" d="M185.87,80.63c1.36-.23,1.51,1.36,2.51,1.71.2.07.28.46.68.56a2.13,2.13,0,0,1,1.79,1.69c.05.32.29.1.45.07a9.31,9.31,0,0,1-1.43,2.28c-.08.06-.23.14-.26.11-.78-1.12-2.38-.76-3.19-1.81a31.1,31.1,0,0,0-1.95-2.65,1.21,1.21,0,0,1,1.4-2Z"/><path class="cls-118" d="M93.77,109.14c-1.07-1.41-2-2.9-3.24-4.21-1-1-1.79-2.43-2.88-3s-1.45-2.18-2.81-2.47c0,0,0-.27,0-.41a1.35,1.35,0,0,1,.51-.86c.67-.22,1.07.24,1.48.62a16.17,16.17,0,0,0,3.41,2.92,3.34,3.34,0,0,1,1.39,1.42,17.46,17.46,0,0,0,3,3.59,1.9,1.9,0,0,1,.62,1.58Z"/><path class="cls-119" d="M161.4,85.81c.85,1.22,2,2.28,2.29,3.8.16.78.84,1.17,1.25,1.66,1.46,1.75,1.95,4,3.13,5.88.73,1.19,2.19,2.6,1.68,4.45H168.6c.38-1.78-1.24-2.74-1.76-4.17-.83-2.28-2.39-4.22-3.32-6.51a13.57,13.57,0,0,0-1.84-2.67,2.44,2.44,0,0,1-.57-1.57A1,1,0,0,0,161.4,85.81Z"/><path class="cls-120" d="M177.81,88.11c1.27,1.4,2.82,2.56,3.39,4.53.11.36.82.73,1.1,1.28s1,1,1.07,1.89c0,.41.46.55.9.39-.42.67-.84,1.34-1.25,2-.93.32-1.31-.38-1.68-1-1.13-1.75-1.9-3.72-3.16-5.4-.13-1.17-1.28-1.92-1.3-3.15C177,88.24,177.16,87.78,177.81,88.11Z"/><path class="cls-121" d="M95.2,108.28a16.53,16.53,0,0,0-2-2.42c-1.26-1-1.68-2.92-3-3.6-1.16-.59-1.76-1.7-2.92-2.23-.73-.34-1-1.53-1.91-1.88a4.23,4.23,0,0,1,.92-1.48c.27,1.09,1.31,1.61,2,2.14,1.3.93,2,2.32,3.25,3.26,1.56,1.23,2.43,3.05,3.91,4.34.33.29.42.87.63,1.31A1.49,1.49,0,0,1,95.2,108.28Z"/><path class="cls-122" d="M77.38,119.23c-.84-.34-2.13-.11-1.78-1.8.1-.49-1.08-.88-1.14-1.69a15.54,15.54,0,0,1,2-3.19c.29,1.87,2,2.77,2.89,4.23.3.5,1,0,1.2.52A19,19,0,0,1,77.38,119.23Z"/><path class="cls-123" d="M99.76,74.78c-.09,1.16,1.21,1,1.62,1.64,0,0,.34-.1.34-.09,1.07,2.83,4,4,5.69,6.21.13.17.11.45.16.68-.93-.16-1.43.11-1.15,1.15-1,.1-1.57-.31-1.44-1.38.16-1.26-1-1.82-1.64-2.3A17.5,17.5,0,0,1,100,77.35c-.38-.51-1.24.05-1.38-.76A5.49,5.49,0,0,1,99.76,74.78Z"/><path class="cls-124" d="M111,26.84c-.65.39-.76.64-.13,1.34,2.47,2.68,5.14,5.18,7.51,8a20,20,0,0,0,3.46,3.73c.46.33.37.84.39,1.31-.63.27-1-.13-1.34-.54-1.48-1.79-3.3-3.24-4.78-5.06s-3.07-3.18-4.57-4.8c-.09-.1-.27-.08-.42-.1a1.59,1.59,0,0,1-1.53-1,6.6,6.6,0,0,0-1.15-1.76c-.78-.82-.13-1,.54-1.06Z"/><path class="cls-125" d="M109,26.84c.08.31-1.11.13-.3.66a3.46,3.46,0,0,1,1.31,2,1.06,1.06,0,0,0,1.3.79,26.62,26.62,0,0,0,3.52,3.9,1.62,1.62,0,0,1,.57,1.65c-.12.29-.23.59-.64.5-1.16.06-1.38-1.06-2-1.68-.29-.32-.45-.64-.92-.62a8.25,8.25,0,0,1-3.58-3.74c-.33-.78-1-1.12-1.58-1.61s-1.08-1-.6-1.81Z"/><path class="cls-126" d="M120.53,26.84a5.43,5.43,0,0,1,1.8,2.32c.19.69,1.12.95,1.6,1.64,2.24,3.25,5.41,5.74,7.6,9,.56.82,1.77,1.27,1.66,2.52-1.89-1.45-3.18-3.5-4.94-5.06a52.09,52.09,0,0,1-4.25-4.8c-1.1-1.25-2.6-2.25-3.15-3.95-.1-.29-.23-.53-.57-.56-1.07-.09-.79-.58-.34-1.13Z"/><path class="cls-125" d="M163.7,101.6c.36-1.09-.78-1.32-1.22-1.84-1.11-1.3-1.14-3.06-2.24-4.39-.94-1.14-1.16-2.81-2.24-4-.12-.13,0-.46-.06-.69a.87.87,0,0,1,.81-.31c.63.08,1,.64,1.46.94,1.51,2.85,3.39,5.48,4.77,8.4a1.49,1.49,0,0,1-.13,1.86Z"/><path class="cls-127" d="M101.51,72c.06.4-.09.85.39,1.13,2.09,1.24,3.72,3,5.56,4.58.52.43,1.23.69,1.4,1.52.08.42.64.27,1,.3.56.68.13,1.85,1.15,2.3a.79.79,0,0,1-1.32-.1,1.86,1.86,0,0,0-1.27-.76c-.77-.8-1.5-1.64-2.33-2.38A14.6,14.6,0,0,0,103,75.86a4.15,4.15,0,0,1-2-3A1.41,1.41,0,0,1,101.51,72Z"/><path class="cls-128" d="M170.9,46.37c.32.21.27.77.72.82,1.94.25,2.82,1.71,3.66,3.21l-1,1.43c-1-.13-1.24-1.14-1.91-1.67-1.74-1.37-2.91-3.38-4.94-4.5-.66-.36-.21-1.24-.31-1.88.28-.91.82-.57,1.27-.21a3,3,0,0,1,1.21,1.72C169.78,46.06,170.29,46.23,170.9,46.37Z"/><path class="cls-129" d="M178.38,91.86c.87.37,1.15,1.24,1.62,1.93.72,1,1.06,2.28,1.77,3.34A3.22,3.22,0,0,0,183,98.21a8.9,8.9,0,0,1-1.43,2.29c-.91-.88-1.14-2.15-1.76-3.2a21.23,21.23,0,0,0-2.56-4.09c-.68-.72-.23-2.09-1.19-2.79C177.5,89.85,177.8,91.09,178.38,91.86Z"/><path class="cls-130" d="M169.75,58.46l.54,0a8.22,8.22,0,0,1-1.36,2,41.15,41.15,0,0,0-4.24-5.33A56.12,56.12,0,0,1,161,50.6c-.5-.73-.92-1.93-2.2-1.92-.51-1-.51-1,0-1.44,1.58.55,2.4,2,3.28,3.19.54.76,1.3,1.2,1.83,1.9.4.53,1,.9,1,1.68s1,1,1.47,1.53C167.34,56.61,168.13,58.07,169.75,58.46Z"/><path class="cls-131" d="M166.29,60.19c0,1.07,1.09,1.43,1.43,2.27,0,.65-.47,1-.79,1.53-1,.57-.76-.27-.93-.72-.41-1.1-1-2.05-2.3-2.21a60.23,60.23,0,0,0-4.94-6.51,2.06,2.06,0,0,1-.68-2.06c.55-.53,1-.12,1.34.24,1.78,1.83,3.51,3.71,5.11,5.71A12.66,12.66,0,0,0,166.29,60.19Z"/><path class="cls-132" d="M184.43,80.92c0,.91.14,1.76,1.1,2.11.68.26.29,1,.66,1.3.64.59,1.14,1.5,2.16,1.36s.69,1.24,1.52,1.25l-1.37,2.34c-.4-.12-1.07-.13-1.16-.37a8.58,8.58,0,0,0-2.25-3.43c-.43-.39-.61-1.09-1.19-1.46s-.49-.88-.62-1.38a2.45,2.45,0,0,0,.28-1.72A.6.6,0,0,1,184.43,80.92Z"/><path class="cls-133" d="M164.85,101.6c.07-1-.57-1.8-.94-2.7-1.06-2.6-3.06-4.66-3.95-7.33a.84.84,0,0,1,.19-1.29,1,1,0,0,1,.92,0,12.54,12.54,0,0,1,2.08,3.21c1.11,2.21,2.3,4.38,3.46,6.55.27.51.79,1.09,0,1.6Z"/><path class="cls-134" d="M187.84,14a3.51,3.51,0,0,1,.3,1.08c-.15,1.53,1,2.06,2,2.82a11.8,11.8,0,0,1,3,3.45c-.07.6-.54,1-.87,1.41-.78-.39-.73-1.67-1.86-1.71a.46.46,0,0,1-.44-.58c.06-.18.18-.5.05-.48-1.21.21-1-1.61-2.1-1.47-.19,0-.54-.23-.38-.46.29-.41,0-.63-.17-.86-.36-.53-.29.28-.55.2s-.3-.33-.31-.56c0-.66,0-1.32,0-2A4.08,4.08,0,0,1,187.84,14Z"/><path class="cls-135" d="M138.08,88.11c1.23,0,1.76,1.09,2.08,1.83.83,1.93,2.13,3.6,3,5.5.91,2.11,2.58,3.84,3,6.16h-1.73c-.17-2.58-1.68-4.63-2.92-6.72-.65-1.11-.7-2.66-2.05-3.36-.12-.06-.16-.34-.19-.52-.09-.73.27-1.63-1-1.83C138,89.12,138.11,88.49,138.08,88.11Z"/><path class="cls-136" d="M110.16,78c-.72.13-1.13-.05-1.29-.88a3.68,3.68,0,0,0-2.17-2.61c-.69-.31-.54-1-1-1.47-1-1-2.32-1.67-3.07-2.93l.8-1.37c1.25.17,1.87,1.26,2.72,2a8.34,8.34,0,0,1,1.43,1.53c.24,2,1.68,3.15,2.91,4.41.5.53.9.91.83,1.64A2,2,0,0,0,110.16,78Z"/><path class="cls-137" d="M109.87,90.71c1.45,1,2.16,2.65,3.24,4,1.34,1.64,2.43,3.52,3.78,5.18.43.53.09,1.23.46,1.75h-1.44a2.75,2.75,0,0,0-1.34-2.2,3.45,3.45,0,0,1-1.26-2,7.06,7.06,0,0,0-1.24-1.93A12.92,12.92,0,0,1,109.87,90.71Z"/><path class="cls-138" d="M71.24,60.64a2.63,2.63,0,0,0,2.59,1.58c.94.07,1.74,1.21,2.94,1.15a15.25,15.25,0,0,1,2.13.15c.74,0,.2.43.17.68H69Z"/><path class="cls-139" d="M101.52,64.19s0-.13,0-.13c-1.87-.42-2.51-2.62-4.39-3-1-.2-1.13-1.28-1.86-1.81A2,2,0,0,0,94,58.75a.83.83,0,0,0,0-.86c1.71-.74,2.86.42,4,1.28.75.54,1.29,1.38,2.33,1.46,1.67.45,3.33,2.19,3.42,3.56Z"/><path class="cls-140" d="M100.37,26.85c.36,1.48,1.86,2,2.57,3.21.87,1.41,2.33,2.26,3.19,3.65-.25.57-.43.61-1.15.29-1.58-1.43-3.25-2.77-4.68-4.33-.59-.63-1.32-1-1.9-1.65-.38-.39-.69-.64-.34-1.17Z"/><path class="cls-141" d="M110.16,35.15c-2.37-2.51-4.75-5-7.1-7.52-.61-.66.43-.45.47-.78h1.17c1.39.38,1.8,1.75,2.63,2.67,1.3,1.44,2.42,3,3.69,4.49v.86C110.93,35.53,110.52,35.28,110.16,35.15Z"/><path class="cls-142" d="M166.58,101.6a.91.91,0,0,0-.15-1.06c-1.93-2.92-3-6.32-5.09-9.16a2.66,2.66,0,0,1-.23-1c-.37-.43-1.15-.62-.86-1.44l.86.29c1.18.43,1.37,1.74,1.79,2.58,1.66,3.28,3.6,6.41,5.12,9.75Z"/><path class="cls-143" d="M94.9,35.15c-.93-1-2.43-.9-3.44-2a11.34,11.34,0,0,0-2.08-1.84,5.28,5.28,0,0,1,1-1.62c2,.63,3.11,2.55,4.89,3.5.06,0,0,.35-.06.53C95,34.17,95.34,34.74,94.9,35.15Z"/><path class="cls-144" d="M95.77,30.25c-.39-.06-.9.12-1-.55a2.64,2.64,0,0,0-2.61-2.13l-.56.05a1,1,0,0,1,1.12-.84c1.19.06,2.38,0,3.58.07-.42.94.25,1.48.78,2.06,1,1,1.93,2.05,2.87,3.09.11.12.07.37.09.56a.82.82,0,0,1-.8.28C97.92,32.23,97,31.05,95.77,30.25Z"/><path class="cls-145" d="M88.26,33.12c.79.49,2.06.2,2.26,1.63.09.6,1,.42,1.5.93,1,1.13,2.1,2.15,3.17,3.21-1.35.78-1.68-.48-2.3-1.15A1.62,1.62,0,0,1,91.23,37c-.63-.95-2-.44-2.94-1.13-.38-.3-.69-.72-1.21-.81A6.15,6.15,0,0,1,88.26,33.12Z"/><path class="cls-146" d="M172,55.57c-.86,0-1-.86-1.57-1.19s-.85-.92-1.56-.81a30.34,30.34,0,0,1-2.73-3.36,1.08,1.08,0,0,1,.14-1.53c.46,0,1-.1,1.15.56.09.47.44.57.83.63,1,.15,1.62.55,1.52,1.75-.07.91,1,.94,1.5,1.34a3.88,3.88,0,0,1,1.29,1.73C172.68,55.17,172.15,55.25,172,55.57Z"/><path class="cls-147" d="M95.77,62.49a4.91,4.91,0,0,1,2.29,1.7H92c-.27-.74-1.53-.65-1.44-1.7a7.46,7.46,0,0,0,1.18.77c.38.17.88.22,1.06-.31s.09-.73-.48-.94a4.38,4.38,0,0,1-1.76-1.53,5.86,5.86,0,0,1,3.15,1.19A4.09,4.09,0,0,0,95.77,62.49Z"/><path class="cls-112" d="M103.83,64.19l-2.54-2.86a1.14,1.14,0,0,0-.92-.27C100,60.58,99.45,60.4,99,60c-.83-.79-.75-1.14.36-1.65a17.92,17.92,0,0,1,4.67,2.81,4.44,4.44,0,0,1,2,2c.13.35.42.66.12,1l-.08.07Z"/><path class="cls-148" d="M107.57,72.28c-1.23.3-1.34-1-2-1.47a7.69,7.69,0,0,1-2.15-2l1.06-1.68c1.39,1.39,2.35,3.16,3.93,4.38.34.27,0,.72,0,1.09Z"/><path class="cls-149" d="M111,34c-1.11,0-1.7-1-2.1-1.64a53,53,0,0,0-4-5.15,1.88,1.88,0,0,1-.21-.37h1.43c0,1.22,1.1,1.57,1.81,2.14.43.35.81.54.79,1.15,0,1.15,1.08,1.56,1.69,2.13s.88,1.25,1.47,1.74Z"/><path class="cls-130" d="M141.54,27.09c.58-.07,1.19.16,1.72-.24h.87c-.58,1.72,1.19,2.23,1.79,3.34a5,5,0,0,1,.8,2.37.69.69,0,0,1-.9-.16C144.4,30.62,142.87,28.94,141.54,27.09Z"/><path class="cls-15" d="M178.38,64.51a2.28,2.28,0,0,1,0-.26H183v.26h-4.61Z"/><path class="cls-150" d="M118.51,68.25c-.35,1.16.8,1.74,1.29,2.14,1.76,1.44,2.5,3.58,4,5.16.93,1,2.22,2,2.17,3.64-1,.26-1.11-1-1.3-1.27-1-1.75-2.85-2.69-3.92-4.39-.32-.52-1.12-1.62-2.26-1.54-.76.12-1.13-.47-1.48-.93-1.19-1.57-2.51-3-3.83-4.47-2-2.57-4.49-4.76-6.63-7.23-.65-.6-1.18-1.31-1.86-1.89-.84-.72-.73-1.1.36-1.7a1.52,1.52,0,0,1,1.33.38c1.4,1.42,3.23,2.32,4.62,3.75.43-.09,1-.17,1.1.3a4.18,4.18,0,0,0,1.9,2.65c1.57,1.36,2.43,3.38,4.29,4.46C118.62,67.49,118.48,67.93,118.51,68.25Z"/><path class="cls-151" d="M94.61,42.92c.8-.11,1.66-.58,2.14.59.17.42.67.23,1,.27.63-.44,1,.09,1.32.44,1.4,1.39,2.82,2.78,4.27,4.08,1.78,1.61,3.45,3.34,5.24,4.93.51.37.73,1,1.26,1.34a.69.69,0,0,1,.24.86c-.25,1,.24,1.54,1.23,1.53.67,0,1.2,0,.83.93s-1.36.29-2,.57a2.63,2.63,0,0,1-1.63-1.08,38.1,38.1,0,0,0-6.68-6.57C100,49.31,98,47.92,96.3,46.23c-.13-.13-.32-.19-.25-.43C95.35,45,95.6,43.63,94.61,42.92Z"/><path class="cls-152" d="M96.05,45.8c1,.12,1.37,1,2,1.54,1.2,1,2.71,1.79,3.79,2.84,1.48,1.45,3.14,2.7,4.55,4.25a19.3,19.3,0,0,0,3.27,3.37.92.92,0,0,1,.48.66c.52.35,1.28.54.86,1.44-1.38-.35-2.36-1.38-3.51-2.12-.84-.54-1.22-1.83-2.53-1.62a3,3,0,0,1-2-1c-1.49-1.43-2.62-3.29-4.67-4.1a1.23,1.23,0,0,1-.86-1.2A2.19,2.19,0,0,0,96.58,48a2.35,2.35,0,0,1-1.1-2.22Z"/><path class="cls-135" d="M112.17,57.89c-.09-.35-.16-1-.64-.56-.91.79-1.45-.06-1.57-.49a1.26,1.26,0,0,0-1.12-1c.2-.7.9-.23,1.1-.83a3,3,0,0,1-1.51-1.49c-.28-.56,0-.69.49-.62a5.55,5.55,0,0,1,1,.31.86.86,0,0,1,.29.31c1.38,1.19,2.58,2.58,3.82,3.87,1.72,1.78,3.28,3.78,5,5.56,1.5,1.52,2.75,3.25,4.23,4.79,1,1.08,2.43,2.06,2.88,3.73.14.54.84.94,1.32,1.37s1,.93.85,1.69c-.94.17-1.17-.59-1.7-1.12a74.91,74.91,0,0,1-5.23-6.32c-1.41-1.75-3.18-3.21-4.64-4.93A46.4,46.4,0,0,0,112.17,57.89Z"/><path class="cls-29" d="M135,87.08c.14.1.3.15.33.24s-.07.34-.28.34a1.39,1.39,0,0,1-.38-.12Z"/><path class="cls-153" d="M146.72,67.1a26,26,0,0,1-3.13-3.34c-2.36-2.5-4.22-5.39-6.5-8a20.54,20.54,0,0,1-3.45-4.34c-.56-1.11-1.91-1.78-2.74-2.78s-2-1.34-2.14-2.79c0-.51-1-.72-1.53-1.27-1.81-2-3.23-4.35-5.58-5.87a10.56,10.56,0,0,1-2.17-2.56A56.36,56.36,0,0,0,114.91,31c-1.15-1.14-1.43-3-3.21-3.6.5-.57,1.11-.26,1.63-.35.29,1,.4,2.25,2,2.11.09,0,.23.16.29.28,1.75,3.56,5.1,5.77,7.41,8.83,1.31,1.74,3.06,3.11,4.12,5,.33.61,1,.7,1.43,1.13,1.44,1.42,2.42,3.23,4,4.49.79.62,1.19,1.74,2,2.53a31.43,31.43,0,0,1,3.63,4.2,42.11,42.11,0,0,0,3.57,4.55c1,1.12,1.94,2.31,2.89,3.47A7.83,7.83,0,0,1,146.72,67.1Z"/><path class="cls-154" d="M115.92,27.09a59.29,59.29,0,0,1,4,4.91c.89,1.13,2,2.12,2.91,3.21s2.39,2.08,2.85,3.68c-1.21.32-1.5-.93-2-1.45a95.11,95.11,0,0,0-7.09-7.66c-.69-.61-.8-1.63-1.57-2.31C114.66,27.11,115.62,27.25,115.92,27.09Z"/><path class="cls-155" d="M105,34l1.15-.29c1,1,2.54,1.58,2.87,3.22a.52.52,0,0,0,.47.47c2,.05,2.5,2.24,4,3,.13.06.07.54.1.82,3.1,3.14,6.22,6.27,9,9.66a52.19,52.19,0,0,1,4.75,5.82c.16.26.52.21.77.35a1.26,1.26,0,0,1,.32.25c.3.64.69,1.22,1,1.82.25.42.67.85.21,1.39a29.78,29.78,0,0,1-5.3-5.4,28.25,28.25,0,0,0-2.59-2.54,6.15,6.15,0,0,1-.82-1.15c-1.14-1.48-1.77-3.5-4-3.93a1.08,1.08,0,0,1-.84-.7,13,13,0,0,0-5.2-5.57c-1.83-2-3.65-4.06-5.49-6.08A1.87,1.87,0,0,1,105,34Z"/><path class="cls-156" d="M129.73,60.48c-.13-1.22-1.52-1.86-1.44-3.17,1.46-.07,2.19,1.08,2.72,2a7.56,7.56,0,0,0,1.35,1.91c1.92,1.79,3.2,4.15,5,6,2.12,2.12,3.2,5,5.51,6.88a.88.88,0,0,1,.29.32c1,2.6,3.32,4.27,4.7,6.59,1.24,2.09,2.67,4.06,3.75,6.25-.15,1.47,1.15,2.19,1.76,3.26a2.43,2.43,0,0,1,.54,1.35c-1.06-.18-1.39-1.2-1.8-1.89-1.4-2.36-3-4.6-4.34-7a8.47,8.47,0,0,0-3.07-3.5c-1.11-.3-1.28-1.41-1.78-2.19s-.71-1.33-1.47-1.64c-.13-.05-.34-.14-.34-.23-.15-1.6-1.88-2.35-2.05-3.94-.08-.85-1-1.22-1.49-1.68a21.11,21.11,0,0,1-2-2.27C134,65.74,133.22,63.27,131,62,130.35,61.66,130.42,60.78,129.73,60.48Z"/><path class="cls-90" d="M109.29,41.19a2.13,2.13,0,0,1,1.16.29c1.46,1.9,3.29,3.47,4.92,5.21,2.85,3.06,5.6,6.2,8.46,9.24,1.94,2.06,3.55,4.4,5.51,6.48a61.45,61.45,0,0,1,5,6.51c.35.49,1.49.31,1.14,1.35-.71.32-.92-.43-1.15-.71-.53-.67-.83-1.52-1.9-1.47-.12,0-.34-.27-.34-.41,0-1.13-.88-1.76-1.49-2.38-1.46-1.48-2.65-3.18-4.2-4.61a25.61,25.61,0,0,1-3.88-4.21c-2.13-3.18-5.2-5.44-7.48-8.43-1.47-1.93-3.25-3.62-4.89-5.42-.3-.23-.66-.36-1-.57S108.9,41.44,109.29,41.19Z"/><path class="cls-157" d="M172.34,88.11h-1.15c-.65.11-.72-.48-1-.82-1.35-1.66-1.95-3.77-3.24-5.46-.8-2.39-2.81-3.94-4.15-6a12.53,12.53,0,0,1-1.1-2,10.38,10.38,0,0,0-3.08-4.43,3.92,3.92,0,0,1-1.73-2.55c-.09-.61-.72-.88-1.11-1.25-1.46-1.39-2.2-3.31-3.57-4.74-.89-.93-1.41-2.13-2.34-3a9.23,9.23,0,0,0-2.36-3.32,15.91,15.91,0,0,1-2.28-3.06c-.07-.1,0-.36-.11-.38-1.39-.39-1.59-1.76-2.34-2.67a15.42,15.42,0,0,0-1.91-2.11c-1.13-.92-1.59-2.43-3.06-3-.93-.38-1-1.65-1.44-2.42-.73-1.27-1.89-2-2.72-3.07-1.5-1.95-3.54-3.5-5-5.5-.83-1.17-1.8-2.26-2.55-3.49-.19-.33-.33-.7-.73-.84s-.77-.17-.69-.59.63-.25,1-.32c1.74,1,2.49,2.91,3.83,4.29A89.78,89.78,0,0,1,136.35,39c1.41,1.82,3.3,3.18,4.44,5.32.76,1.42,2.29,2.58,3.31,4A29.52,29.52,0,0,0,147,51.92c1.06,1,1.52,2.68,3.1,3.16.44,2.37,2.66,3.45,3.9,5.26,1.35,2,2.5,4.21,4.51,5.77.77.59.83,1.82,1.57,2.64,1.11,1.24,2.42,2.42,2.61,4.28,0,.41.6.39,1,.4,1.14,2.57,3.5,4.3,4.73,6.8,1.12,2.26,2.82,4.17,3.95,6.42A1.17,1.17,0,0,1,172.34,88.11Z"/><path class="cls-158" d="M153.91,57.31c1-.22,1,.71,1.52,1.13a22.25,22.25,0,0,1,3.44,4.42,1.16,1.16,0,0,0,1.09.5.94.94,0,0,1,1.31.52c1.31,2.66,3.76,4.47,5.13,7.07a1.9,1.9,0,0,1,.11.39c1.28,2.1,2.64,4.14,4,6.15a2.79,2.79,0,0,1,.39,3.28,1,1,0,0,1-.58.18c-.6,0-.9-.45-1.17-.9a49.82,49.82,0,0,0-2.89-4.31c.23-1.31-1-1.91-1.56-2.72-.84-1.24-1-2.8-2.17-3.85-2.35-2.08-3.89-4.87-5.66-7.39C155.89,60.35,154.07,59.33,153.91,57.31Z"/><path class="cls-159" d="M166.29,75.74c1.45.18,1.54,1.63,2.27,2.48s.95,1.76,1.76,2.41c.82.47,1,1.38,1.39,2.11.72,1.34,1.73,2.49,2.32,3.89.2.46.52.92.32,1.48h-2a8.92,8.92,0,0,0-2-3.8,8.49,8.49,0,0,1-1.33-2c-.63-1.74-2.15-2.91-2.76-4.65-.27-.76-1-1.22-1.6-1.73a2.81,2.81,0,0,1-1-2.52c.6-.05.78.29.93.82A1.77,1.77,0,0,0,166.29,75.74Z"/><path class="cls-51" d="M139,48.68l.28-.58c.57-.15.82.17,1.13.6A39.77,39.77,0,0,0,144,52.91c1.5,1.54,2.1,3.9,4.31,4.78.79.31,1,1.42,1.91,1.64.46-.18.73.12,1,.41,1,1.28,2.53,2.17,3,3.89.14.52.71.76,1,1.18.56.81,1.56,1.32,1.37,2.63-.07.5.56,1.16,1,1.68s.75,1.12.23,1.8c-.45.3-1,.36-1.27-.1-.82-1.21-2-2.09-2.64-3.5-.52-1.19-1.7-2-2.47-3.1A8.49,8.49,0,0,0,149,61.63a3.18,3.18,0,0,1-1.35-2.29c-.12-.82-1.17-1.11-1.74-1.73A43.93,43.93,0,0,1,142,53a37,37,0,0,0-3-3.75C138.86,49.11,138.94,48.86,139,48.68Z"/><path class="cls-160" d="M149,61.63c1.11.24,1.71,1.13,2.42,1.89,1.78,1.9,2.78,4.39,4.76,6.15.47.41.44,1.41,1.46,1.17l.17.11a15.39,15.39,0,0,0,3,4.56c.83.86.89,2.38,2.33,2.72.49.85,1.32,1.52,1.31,2.62a.64.64,0,0,0,.28.47c2.24,1.88,3.36,4.52,4.72,7a2,2,0,0,1,.23,1,2.47,2.47,0,0,1-1.15,1.15c.06-1.28-1.16-1.59-1.83-2.27-.38-.38-.82-.72-.83-1.21,0-1-.51-.27-.8-.26a7.84,7.84,0,0,0-2.35-4.84,1.7,1.7,0,0,1-.47-.69c-.55-2.67-2.55-4.43-4.1-6.45-.72-.94-1.21-2-1.87-3-.31-.45-.57-1-.93-1.38-1.66-2-3.14-4.17-4.72-6.25A11.7,11.7,0,0,1,149,61.63Z"/><path class="cls-161" d="M158.81,90.71h-.87a1.88,1.88,0,0,1-1.41-1.46,6.79,6.79,0,0,0-1.89-2.73,9.41,9.41,0,0,1-1.63-2.9,12.75,12.75,0,0,0-3.51-4.56c-.73-.59-.7-1.63-1.36-2.39-1-1.13-1.81-2.45-2.74-3.67S144,70.32,143,69.66c-1.58-1.08-1.43-3.37-3.39-4-.49-.17-.54-1.35-1-1.79-1.86-1.67-2.91-4.05-5-5.53-.37-.26-.43-.93-.74-1.33a55.7,55.7,0,0,0-5.33-5.86,4.68,4.68,0,0,1-1.66-2.21c-.16-.79-.94-.89-1.38-1.29a67.23,67.23,0,0,1-8-8.9c-.58-.76-1.73-1.24-1.75-2.42l.29-.58c.68-.52,1,0,1.41.44,2.81,3.38,6,6.42,9,9.59,1.25,1.29,2.38,2.73,3.66,4,2.68,2.55,4.52,5.75,7,8.41,1.7,1.82,3,3.91,4.72,5.69a54.71,54.71,0,0,1,4.42,5.73c1.48,2,3.15,4,4.5,6.11,1.06,1.69,2.57,3,3.59,4.78,1.19,2.06,2.13,4.26,3.51,6.22A16.65,16.65,0,0,0,158.54,89C159,89.47,159.42,90,158.81,90.71Z"/><path class="cls-162" d="M151.61,87.25c-1.15-.53-1.59-1.72-2.2-2.65a47.34,47.34,0,0,0-3.55-5.36c-1.11-1.26-2.6-2.49-2.88-4.4-.08-.57-.76-.61-1.12-1-1.53-1.51-2-3.74-3.68-5.11-1.43-1.2-2.16-2.91-3.35-4.26a17.4,17.4,0,0,0-3.7-3.72c-.21-.13-.25-.23-.24-.41,0-1.78-1.69-2.08-2.6-3.06-1.67-1.88-3.65-3.49-5-5.67-1-1.61-2.55-2.76-3.81-4.16s-2.47-2.69-3.66-4.08a.89.89,0,0,1-.18-1.06l.29-.57c1-.1,1.46.64,2,1.21,2.85,3.21,6.11,6,8.84,9.38,2.23,2.73,4.48,5.45,6.81,8.11a5.68,5.68,0,0,0,.8.59,8.11,8.11,0,0,0,3.28,3.8.9.9,0,0,1,.46.9c-.06,1.15,1.08,1.58,1.38,2.49.08.24.42.08.64,0,.14,2.31,2.12,3.45,3.23,5.14.08.11.31.15.34.25.71,2.66,3.11,4.17,4.4,6.52s3.12,4.41,4.4,6.8C152.16,87,151.83,87,151.61,87.25Z"/><path class="cls-34" d="M134.34,61.06c-1.22.12-1.64-1.06-2.34-1.63s-1.27-1.6-2.16-2.27A6.22,6.22,0,0,1,128.39,55c-.78-1.64-2.34-2.42-3.35-3.75a38.26,38.26,0,0,0-3.83-4c-1.8-1.77-3.38-3.77-5.29-5.44a19.07,19.07,0,0,0-4.25-4.7c-.64-.57-.56-1.64-1.51-1.92.32,0,.64,0,.86-.29,1.34.06,1.32,1.52,2.21,2.15a27.71,27.71,0,0,1,3.15,2.91,10,10,0,0,1,1.65,2c.94,1.81,2.7,2.68,3.91,4.13a31.62,31.62,0,0,0,4.48,4.78,6.8,6.8,0,0,1,1.5,2.12c.72,1.41,2,2.14,3,3.28s1.41,2.64,2.62,3.29C134.38,60,134.08,60.55,134.34,61.06Z"/><path class="cls-163" d="M108.72,42.34c.06,1.28,1.44,1.38,2,2.25,1.86,2.87,4.9,4.72,6.8,7.6.3.46,1.1.58,1,1.38h-1.15a27.35,27.35,0,0,1-5.19-4.89c-1.64-1.75-3.47-3.3-5.08-5.07-.57-.63-1.49-1.15-1-2.26a1.71,1.71,0,0,1,1.26-.26,1.45,1.45,0,0,1,.42.12,2.41,2.41,0,0,1,.9.92Z"/><path class="cls-164" d="M106.13,41.48c.12.89.85,1.36,1.41,1.92,1.47,1.5,3,3,4.43,4.46.17.18.14.54.2.82-1,.06-1.18-1.47-2.3-1.15a.88.88,0,0,1-1.37-.09c-.7-.84-1.65-1.42-2.33-2.26a6.84,6.84,0,0,0-2.2-2.65,25.14,25.14,0,0,1-5-5.05.87.87,0,0,1,0-1.18h1.15a.72.72,0,0,1,1,0c1.5,1.39,2.9,2.87,4.51,4.15A1.34,1.34,0,0,1,106.13,41.48Z"/><path class="cls-165" d="M106.42,44.93c.78.78,1.93,1.17,2.41,2.29.19.43.67.27,1,.31,0,1,1.33,1.3,1.44,2.3-.38.31-.26.75-.29,1.15a1,1,0,0,1-1.52-.11c-1.45-1.53-3.26-2.63-4.78-4.06a3.76,3.76,0,0,1-1.26-1.69,1.76,1.76,0,0,0-1.09-1.06,5.38,5.38,0,0,1-2.45-2.86A1,1,0,0,1,100,40c.47-.29.81,0,1.13.29a16.72,16.72,0,0,0,3.68,2.89C105.5,43.52,105.86,44.36,106.42,44.93Z"/><path class="cls-166" d="M107.86,41.48h-.29a1.85,1.85,0,0,1-1.79-1.5c-.1-.46-.47-.68-.8-1a26.14,26.14,0,0,1-5.51-5.7c-.15-.24-.39-.44-.25-.76h.86a66.51,66.51,0,0,1,6,5.32,17.24,17.24,0,0,0,3.19,3.31c-.46.93.79.84.87,1.44l-1.44-.29C108.53,42,108.05,41.86,107.86,41.48Z"/><path class="cls-167" d="M100.08,40a4.27,4.27,0,0,0,2.82,3.72c.37.14.81.19.86.64.18,1.56,1.48,2.21,2.49,3.08a28.89,28.89,0,0,1,3.5,3A1.43,1.43,0,0,0,111,51c-.24.63.52,1.1.29,1.73v.86h-1.44c-1.43-.51-2.14-1.74-3-2.85-1.5-1.85-3.45-3.26-5.08-5a13,13,0,0,1-2.26-2.53,4.59,4.59,0,0,0-2.12-1.64c-.59-.3-1.26-.63-.75-1.51h2.3A.8.8,0,0,1,100.08,40Z"/><path class="cls-168" d="M166.29,48.68a2.31,2.31,0,0,0,1.26,2.46c.92.5.91,1.6,1.33,2.43-1.51.09-2-1.23-2.55-2.14a14.31,14.31,0,0,0-3.13-3.79c-.72-.58-.95-1.44-1.72-2a2.19,2.19,0,0,0-1.23-.47c-.94-1.8-3-2.76-3.73-4.62-.67-1.7-2.56-2.25-3.16-4s-3.44-2.36-3.39-4.82c-2-.87-3-2.68-4.29-4.32a7.56,7.56,0,0,1,3-.34,9,9,0,0,1,2.3,2.85,35.15,35.15,0,0,0,2.44,3.27c1.89,2.27,3.6,4.68,5.63,6.83,1.68,2.58,4.17,4.53,5.69,7.25a.91.91,0,0,0,.35.24C166,47.41,166,48.19,166.29,48.68Z"/><path class="cls-128" d="M170.9,46.37c-1.59.2-1.6-1.36-2.3-2.12-.45-.49-.74-1-1.44-.47h-.87c-2.09-2.68-4.5-5.11-6.44-7.92-.27-.4-.76-.38-1-.71a7,7,0,0,1-2.33-2.44,37.81,37.81,0,0,0-3.87-5.12c-.31-.39-1-.06-1.28-.5h3.16c1.6.3,2.32,1.49,3,2.82a13,13,0,0,0,3.07,4c.2.18.6.25.57.56-.18,1.68,1.6,2,2.17,3.2a1.9,1.9,0,0,0,2,1.26c.57-.06.8.53.71,1-.24,1.44,1,1.78,1.78,2.32a4.76,4.76,0,0,1,2,2.41A2.53,2.53,0,0,0,170.9,46.37Z"/><path class="cls-169" d="M150.17,36.59c.84.68.94,2,2,2.49a.86.86,0,0,1,.48.67c.19,1,1.49,1.43,1.25,2.63,1.17-.19,1.17,1.57,2.34,1.4a11.83,11.83,0,0,0,.41,1.76c.23.69.74,1.55-.19,2.21a1.12,1.12,0,0,1-1.44-.58,34.7,34.7,0,0,0-5.86-7c-.87-.77-1.07-2.09-1.92-3A11.86,11.86,0,0,0,145.14,35c-1.34-.84-1.56-2.35-2.37-3.5a.82.82,0,0,1,.09-1c1.23-.27,1.91.67,2.36,1.44.91,1.53,2.33,2.49,3.51,3.7l.58.58C149.52,36.61,149.91,36.42,150.17,36.59Z"/><path class="cls-146" d="M159.1,40c-1.12-.57-2.26-1.11-2.68-2.45-.16-.51-.68-.79-.91-1.15-1.15-1.81-2.93-3.13-4-5-.86-1.53-2.29-2.67-2.82-4.39h1.44c-.34,1.53,1.08,2.12,1.77,3a8.28,8.28,0,0,1,2,3.09c0,.09,0,.24.09.26,1.92.58,2.12,2.77,3.56,3.8A3.78,3.78,0,0,1,159.1,40Z"/><path class="cls-170" d="M148.73,35.72l-.57.33c-.61-1.39-2.4-1.68-2.9-3.28-.32-1-1.47-1.53-2.28-2.23a15.58,15.58,0,0,0-1.85-1.69c-.59-.43-1.07-1-.46-1.76h.87a4.43,4.43,0,0,1,1.82,1.48,26.69,26.69,0,0,0,3.36,4c.66.86,1.31,1.73,2,2.58C148.89,35.36,149,35.52,148.73,35.72Z"/><path class="cls-171" d="M156.51,47.53c0-.84.09-1.63-.8-2.28s.45-.92.51-1.47c.26.1.65.11.76.29.65,1,1.23,2.11,1.83,3.17-.21.48.54,1,0,1.44h0C157.65,49.08,157.15,48.16,156.51,47.53Z"/><path class="cls-170" d="M150.17,36.59c-.31.06-.47.55-.85.34s-.08-.42,0-.63C149.63,36.29,150.15,35.68,150.17,36.59Z"/><path class="cls-128" d="M158.81,35.15a1.65,1.65,0,0,1,1.58.77c1.16,1.54,2.11,3.36,4,4.23a.72.72,0,0,1,.43.69c0,.81.05,1.46,1.06,1.69.53.12.39.79.41,1.25-1.16-.07-1.63-1.1-2.31-1.78a12.82,12.82,0,0,1-2.36-2.73C160.85,37.73,159.51,36.66,158.81,35.15Z"/><path class="cls-146" d="M165.14,47.53c-.47.26-.78-.1-.93-.4-1-1.94-2.92-3.09-4-5-.37-.69-1.3-1.08-1.16-2.09,1.16-.66,1.32.66,1.75,1.07,1,1,1.73,2.35,2.7,3.43A5.58,5.58,0,0,1,165.14,47.53Z"/><path class="cls-172" d="M166.29,71.13a3.42,3.42,0,0,1-1.34-1.4c-.82-1.57-2.2-2.72-3.28-4.11-.57-.75-.48-2-1.71-2.26-1.1-1.32-1.54-3.1-3.18-4.07-.72-.43-.68-1.61-1.34-2.38s-1.92-1.68-2.19-3c-.08-.41-.82-.62-.4-1.21a.23.23,0,0,0,0-.14c-.28-.66-1.35.67-1.33-.49,0-.59.36-.91-.66-1-.66-.07-1.29-1.11-1.77-1.83s-.26-1.6-1.31-1.77c-.12,0-.33-.31-.3-.41.39-1.29-.7-1.52-1.41-2.05-.4-.3-1.19-.49-.47-1.28.3-.32-.17-.34-.33-.39a3.52,3.52,0,0,1-2.75-2.55c-.09-.39-.66-.65-1-1-1.5-1.55-2.92-3.2-4.29-4.83s-3.44-3-4.28-5.32a5,5,0,0,0-2-2.05c.62-.66,1.42-.44,2.17-.48l.54.1c-.86.76.1,1.35.4,1.49,1.37.64,1.68,2.09,2.58,3.07,2,2.22,3.82,4.69,5.89,6.88,1.25,1.32,2.17,2.89,3.62,4.08,1.06.87,1.38,2.52,2.61,3.42,1.44,1,1.7,3.17,3.5,3.92.29.13.22.37.07.59s-.22.58,0,.63c2.32.43,2.13,3,3.63,4.16.44.33.72.87,1.31,1,2.32,2.89,4.81,5.65,6.47,9,.43.86,1.34,1.44,1.93,2.25a22.56,22.56,0,0,1,1.33,2.2C167.56,70.74,167.27,71.2,166.29,71.13Z"/><path class="cls-173" d="M158.81,90.71c0-.48,0-.95-.39-1.32-1.91-1.64-2.75-4-4-6.06A46.18,46.18,0,0,0,151.72,79c-1-1.27-2.45-2.37-3-4.15A3.08,3.08,0,0,0,147.07,73c-.13,0-.33-.11-.35-.2a6.26,6.26,0,0,0-1-1.73,13.38,13.38,0,0,0-2.24-2.94,27.08,27.08,0,0,1-1.63-2.47A15.29,15.29,0,0,1,140,63.44a17,17,0,0,0-3.3-4.17c-1.92-1.77-3.17-4-4.87-5.93-1-1.12-2-2.29-3.08-3.35-1.48-1.39-2.72-3.06-4.22-4.48-1.72-1.63-3.08-3.62-4.81-5.17a30.07,30.07,0,0,1-3.84-4.23,1,1,0,0,0-.86-.39c.21-1.59-1.46-1.85-2-2.89-.51-.89-1.78-1.29-1.69-2.58,1.14,0,1.46,1.15,2,1.72.81.8,1.56,1.67,2.41,2.47,1.36,1.27,2.27,3,3.77,4.15,1,.77,1.57,2,2.72,2.6,1.14-.15,1.53,1,2,1.51,1.46,1.61,2.82,3.4,4.39,4.85,2,1.83,3.27,4.18,5.18,6a33.32,33.32,0,0,1,4.85,5.64c.9,1.39,2.37,2.29,3,3.92.24.62,1.24.9,1.65,1.6,0,.07.21.08.24.14,1,2.38,3,4,4.39,6.08.92,1.41,2,2.74,3,4.06a2.61,2.61,0,0,1,.6,1.86c1.11.55,1.45,1.74,2.06,2.67,2.14,3.24,3.88,6.75,6.34,9.79a1.16,1.16,0,0,1,.24,1.07,2,2,0,0,0-.29,1.15C159.37,91.56,159.29,90.86,158.81,90.71Z"/><path class="cls-174" d="M160.25,90.42a52.28,52.28,0,0,1-3.92-5.77c-1.24-2-2.44-4-3.58-6.05-.34-.61-1.06-.95-1.14-1.71.26.08.27-1,.75-.12,2.1,3.69,4.72,7,6.66,10.83A7.57,7.57,0,0,0,160.25,89c.22.52.86.78.86,1.44Z"/><path class="cls-175" d="M156.51,47.53c1.05-.2,1.36,1.1,2.3,1.15-.5,1.77,1.31,2.32,1.82,3.54.72,1.74,2.54,2.66,3.11,4.53.23.76,1,1.37,1.66,2a6.49,6.49,0,0,1,.89,1.46A6.06,6.06,0,0,1,164,58.41c-.06-.77-.85-1.48-1.13-1.44-.67.09-.5-.33-.68-.57a17.42,17.42,0,0,0-3.92-4c-1,.41-1.41-.42-1.81-1-1.78-2.48-3.68-4.89-5.61-7.25s-4.06-5.06-6.35-7.36a12.29,12.29,0,0,1-1.77-2.24,12.32,12.32,0,0,0-2.7-3.14,13.57,13.57,0,0,1-2.32-3.06c-.25-.35-.56-.82-.16-1.31h3.16c-.19,1.1.74,1.6,1.38,1.85.91.35,1,.87.93,1.6a9.87,9.87,0,0,0,2.93,4.58,8.22,8.22,0,0,1,3,4c.25.85,1,.78,1.42,1.29,1.42,1.81,2.93,3.55,4.39,5.33.24.28.6.52.6,1C155.33,47.52,155.89,47.55,156.51,47.53Z"/><path class="cls-176" d="M137.51,27.09c1,2.23,2.89,3.7,4.26,5.59,2.32,3.2,5.18,5.93,7.51,9.12A5.05,5.05,0,0,0,151,43.56c.72.37,1,1.7,1.73,2.51,1.37,1.59,2.54,3.35,3.86,5a3.28,3.28,0,0,0,1.61,1.37c.11,1.57,1.61,2.21,2.28,3.41a25.26,25.26,0,0,0,2.87,3.74,2.22,2.22,0,0,1,.32,1.49c-.61,0-1.12,0-1.2-.83a2.1,2.1,0,0,0-1.39-1.77c-2.36-2.91-4.63-5.9-7.12-8.7-1.54-1.74-3.09-3.55-4.42-5.38-1.68-2.31-3.95-4.09-5.41-6.6a21.68,21.68,0,0,0-2.64-3.24,39.47,39.47,0,0,0-3-3.65c-.44-.39-1.06-.51-1.36-1-.19-.29-1.89,0-.47-1.14.42-.33-.62-.89-1.08-1.4C136.21,26.88,136.89,27.18,137.51,27.09Z"/><path class="cls-177" d="M166.29,71.13c.51-.31.91-.51.31-1.23a25.39,25.39,0,0,1-1.91-3c-.05-.08-.1-.2-.18-.22-1.57-.5-1.41-2.17-2.17-3.22s-1.93-2.15-2.69-3.42c-.32-.53-.9-.88-.88-1.63a1,1,0,0,0-.74-1,.86.86,0,0,1-.66-1,4.42,4.42,0,0,1,2.16,1.91c.2.27.27.63.72.39a7.49,7.49,0,0,0,2.19,3.12c1.05,1,1.44,2.3,2.37,3.31,1.68,1.83,2.73,4.17,4.6,5.88a6.19,6.19,0,0,1,1.26,2,18.44,18.44,0,0,0,2.53,3.51c.6.21.7.74.79,1.26s.08,1,.51,1.3c1.36.94,1.79,2.51,2.66,3.78.3.46.53.93.07,1.43s-.24.95-.29,1.44c-.54.38-.77-.07-1-.41A103.3,103.3,0,0,1,170,76a35.86,35.86,0,0,0-3.66-4.6Z"/><path class="cls-178" d="M157.66,70.84a1.62,1.62,0,0,0-.5-1.41,2.93,2.93,0,0,1-1-2.44c0-.91-1.08-1.41-1.63-2.14-.14-.17-.49-.27-.51-.43-.32-2.43-2.67-3.31-3.83-5.09.5-.6-.5-.9-.29-1.44A12.1,12.1,0,0,1,154,62.78a3,3,0,0,0,.66.89c1.1,1.18,2.58,2.06,2.9,3.87.15.81,1,1.34,1.6,1.72,1.69,1.07,2.33,2.8,3.06,4.42A19.52,19.52,0,0,0,164.37,77c1.06,1.49,2.78,2.64,2.79,4.75-.76.61-1.19.14-1.64-.45a32.87,32.87,0,0,0-2-3c-1.8-1.18-2.79-3-3.95-4.74A16.49,16.49,0,0,0,157.66,70.84Z"/><path class="cls-179" d="M115.92,75.45A56.19,56.19,0,0,0,112,70.59a9.5,9.5,0,0,1-1.88-3.49c.7-.53,1,.08,1.37.49.7.72,1.11,1.81,2.33,1.91a1.48,1.48,0,0,1,1,.76,12.19,12.19,0,0,0,3,3.61,35.29,35.29,0,0,1,3.77,5,7.38,7.38,0,0,0,1.23,1.39c.38.3.76.63.5,1.2v1.44a1.48,1.48,0,0,1-1.68-.74c-.77-1.5-2.46-2.22-3.22-3.84C118,77.23,116.8,76.41,115.92,75.45Z"/><path class="cls-179" d="M123.4,82.93a5.42,5.42,0,0,1,2.51,2.68,9.36,9.36,0,0,0,1.6,2.46,15.77,15.77,0,0,1,1.94,3.5c-.23-.06-.64-.08-.66-.18-.34-1.82-2.12-2.61-3-4.1a9.25,9.25,0,0,0-2.32-3.11C123,83.82,122.8,83.4,123.4,82.93Z"/><path class="cls-180" d="M129.45,97.9a3.74,3.74,0,0,1-2.6-3.74c.51,0,.7.45.91.8C128.35,95.92,128.89,96.92,129.45,97.9Z"/><path class="cls-181" d="M123.4,81.49A15.52,15.52,0,0,1,120.52,78a19.31,19.31,0,0,0-3.47-4.37,15.25,15.25,0,0,1-2.89-3.57c0-.1-.36-.07-.55-.1-.65-1.2-2-1.87-2.39-3.27.56-1.4,1.5-.78,2.39-.47l4.9,5.75a3,3,0,0,0,1.5,2.36c1.2.81,1.53,2.06,2.36,3A26.47,26.47,0,0,1,125.16,81,32.48,32.48,0,0,0,129,86.34c1.67,1.76,2.05,4.19,3.77,5.82a1.25,1.25,0,0,1,.38,1.42c-.75-.12-1.08-.66-1.45-1.25a29.55,29.55,0,0,0-4-5.73c-.85-.83-.85-2-1.76-2.86A18.25,18.25,0,0,0,123.4,81.49Z"/><path class="cls-182" d="M184.43,80.92h-.87c-1.66-.56-1.53-2.5-2.64-3.45-.88-.76-1.27-1.88-2.15-2.62,0,0-.12,0-.12-.06.34-1.36-1.24-1.53-1.56-2.57a12.25,12.25,0,0,0-2.24-3.74,1.3,1.3,0,0,1-.21-.81c.91-.23,1.21.41,1.47,1s.66,1,1.16.89c.84-.14,1.06.14,1,.88a1,1,0,0,0,.5,1c1.1.86,1.6,2.19,2.49,3.18.55.62,1,1.51,2,1.68,1,.78,1.13,2.16,2.15,2.91.49.36.44.89.44,1.41A2.5,2.5,0,0,1,184.43,80.92Z"/><path class="cls-183" d="M108.43,80.92c.6-.42,1.23-1,1.47.31.12.7.68.5,1.12.55a34.34,34.34,0,0,1,5,6.77,14.14,14.14,0,0,0,2.15,3c.44.43.3,1,.34,1.48-1.77.44-2.07-1.46-2.27-2.1-.5-1.62-1.81-2.43-2.71-3.59a19.48,19.48,0,0,1-2.34-3.13,2.37,2.37,0,0,0-1.32-1.26C109.61,82.11,108.45,81.92,108.43,80.92Z"/><path class="cls-184" d="M177.23,84.37a1.49,1.49,0,0,0-.71-1.45.84.84,0,0,1-.43-.5,2.75,2.75,0,0,0-1.45-2.36c-1.09-.55-1.06-1.64-1.17-2.66a4.19,4.19,0,0,0-.27-.8c.35-.23.28-.87.86-.86.71.37.76,1.14,1,1.76s.45.39.77.25c.26,2.16,2,3.5,2.94,5.28q.28.54.6,1.08c.71,1.23,1.53,2.4,2.29,3.61a3.58,3.58,0,0,1,.5,2.41c-.13.16-.33.29-.44,0a41.21,41.21,0,0,0-3.25-5.27C178.1,84.36,177.7,84.39,177.23,84.37Z"/><path class="cls-185" d="M111.31,66.81a5.25,5.25,0,0,1,2.3,3.17c-1-.7-2.24-1.26-2.7-2.6-.1-.3-.47-.26-.75-.28s-.65.49-.64.37c.07-1.14-1.45-1-1.54-2.13-.07-.81-1.18-.79-1.83-1.13-1.44-2.76-4.35-3.73-6.64-5.46a.76.76,0,0,0-.8-.11c-.68.26-1,.06-1-.65a1,1,0,0,0-.82-1.13A11,11,0,0,1,94.33,55c-.2-1.26-.33-2.56-2.06-2.68-.21,0-.49-.33-.59-.57a3.71,3.71,0,0,0-2.25-1.93c1.39-.56,2.34.3,3.34,1,.06,0,.08.24.12.24,1.94.08,2.66,2.42,4.6,2.49,1.33-.55,1.61-.45,2.22.8,2.25,2.69,5.09,4.8,7.4,7.44,1.19,1.36,2.74,2.36,3.87,3.78C111.27,66,111.73,66.26,111.31,66.81Z"/><path class="cls-186" d="M99.22,54.43c0-1.32-1.09-.69-1.73-.86.12-.34.48-.74,0-1a11.3,11.3,0,0,1-4.05-3.87c.46-.83,1.14-.28,1.73-.29,1,.07,1.53,1,2.3,1.44a14.86,14.86,0,0,0,2,1.3c1.15.85,2.11,2,3.19,2.91.79.69,1.1,1.89,2.3,2.12-.77.23-.69.66-.1.92.79.35,1,1.34,1.86,1.59.05,0,0,.43,0,.66-.13.85-.64,1-1.1.35a7,7,0,0,0-3.3-2.76,5,5,0,0,1-1.62-1.48C100.26,54.91,99.68,54.79,99.22,54.43Z"/><path class="cls-187" d="M163.7,78c1.25.66,1.44,2.1,2.23,3.1a1.37,1.37,0,0,0,1.23.64c.43.06,1,.17,1,.6.33,2.27,2.07,3.79,3,5.73-.44.94.93,1,.86,1.73-.25.22-.47.48-.8.06a1.51,1.51,0,0,0-1.5-.63c-.75-.09-.55-.81-.8-1.23-1.13-1.84-2.24-3.71-3.31-5.59a1.19,1.19,0,0,0-.89-.59c-.33-.06-.88-.23-.78-.5.45-1.25-1-1.91-.84-3C163.24,78.08,163.54,78.2,163.7,78Z"/><path class="cls-188" d="M94.33,55a2.72,2.72,0,0,1,2,1c.38.51,1.72.47,1.69,1.36-.05,1.27,1.14.77,1.5,1.34-.27,0-.65-.07-.7.31a.68.68,0,0,0,.58.72c.76.13,1.09.51,1,1.28-1.24.35-1.74-.76-2.4-1.35A7.39,7.39,0,0,0,94,57.89l-2.59-2c0-1-1.2-1.62-1.34-1.62-1.64,0-.88-1.12-1-1.83a2.85,2.85,0,0,1,2.43.71C92.45,53.79,93.75,53.87,94.33,55Z"/><path class="cls-156" d="M115.63,42.34a46.48,46.48,0,0,0,5.52,6.28,25.87,25.87,0,0,1,3.23,3.93c1.22,1.53,2.64,2.9,4,4.36.06.06,0,.26-.05.4a1.32,1.32,0,0,1-1.51-.93c-.48-1.15-1.78-1.69-2.48-2.79a47.28,47.28,0,0,0-6.08-7,43.48,43.48,0,0,0-4.11-4.26,1.27,1.27,0,0,1-.5-1.12C114.52,41.17,114.94,42,115.63,42.34Z"/><path class="cls-189" d="M166.29,71.42c.14,0,.39-.1.4-.07.55,1.27,1.77,2,2.59,3.07,2.42,3.15,3.88,6.89,6.49,9.88.42.49.35,1.36,1.17,1.51a1.09,1.09,0,0,0,.59,1.16c.54.27.55.67.28,1.14-.54.06-.58.45-.58.87a6,6,0,0,1-2.75-2.89,25.1,25.1,0,0,0-3.58-5.46c.58-1.94-1-3.06-1.79-4.43a17.29,17.29,0,0,0-2.91-4.12C166,71.91,165.58,71.54,166.29,71.42Z"/><path class="cls-190" d="M96.63,40a1.22,1.22,0,0,0,.77,1.05,6.37,6.37,0,0,1,3.13,2.82c.53,1,1.77,1.7,2.67,2.56,1.42,1.37,3.2,2.49,4.24,4.09a18.29,18.29,0,0,0,2.43,3c-.48.4-1-.81-1.44,0-1.07-1-2.14-2-3.23-3-.48-.45-1.36-.6-1.09-1.56-1.13.13-1.27-.91-1.83-1.48-.27-.27-.68-.26-1-.62a17.74,17.74,0,0,0-3.46-3.12,3,3,0,0,0-1.42-1.56A14.54,14.54,0,0,1,93,38.94a1,1,0,0,1-.06-1.2c1.06-.2,1.18,1.47,2.3,1.15C95.37,39.65,96.21,39.58,96.63,40Z"/><path class="cls-191" d="M170.9,80.63c1.41.1,2.08,1.39,2.43,2.27a29,29,0,0,0,3.9,6.08c.49.92,1.39,1.67,1.15,2.88-.93-.21-1.21-1.48-2.3-1.44-1.2-.3-1.27-1.45-1.73-2.31-1.22-2.56-3.12-4.75-4-7.48Z"/><path class="cls-192" d="M100.08,40H98.93c-.26-1.07-.58-1-2-1.73a5.24,5.24,0,0,1-1.69-2.23c-.14-.31-.24-.62-.36-.93.37-.43-1.17-1.23.29-1.44,1.31.11,1.71,1.46,2.7,2,.34.2.56.59,1,.56.37,1.62,1.71,2.59,2.82,3.55.89.76,1.39,1.91,2.47,2.43a3.75,3.75,0,0,1,2.2,2.65c-.23,0-.55,0-.66-.17C104.21,42.77,101.67,42,100.08,40Z"/><path class="cls-193" d="M99.22,32.56c1.18.75,1.58,2.17,2.65,3.06a36.89,36.89,0,0,0,3.79,3.27c.41.26.38.64.49,1a2.42,2.42,0,0,0,1.42,1.63h-1.44c-1.63-1.56-3.54-2.81-5-4.6a1.58,1.58,0,0,0-1.09-.58c.14-.77-.54-.92-.9-1.36a38.79,38.79,0,0,0-3.53-3.38c-.52-.51-.35-.91.12-1.31C97.46,30.21,98.14,31.68,99.22,32.56Z"/><path class="cls-194" d="M99.22,54.43c.71,0,1.55-.25,1.67.88,1.34-.11,1.47,1.69,2.9,1.76a2.87,2.87,0,0,1,1.92,2c.19.76.5.83,1,.25.76-.31,1.19.48,1.32.76.89,1.8,2.8,2.62,3.86,4.23a16.39,16.39,0,0,0,1.73,1.92,2.17,2.17,0,0,0-2.3.57c-.58-1.42-2-2.09-3-3.12-1.56-1.62-3.21-3.15-4.73-4.84-.57-.63-1-1.5-2.09-1.85S100,55.33,99.22,54.43Z"/><path class="cls-151" d="M110.13,55.77c.28.3.92-.22,1,.42a.4.4,0,0,1-.39.48C110.11,56.72,110.16,56.21,110.13,55.77Z"/><path class="cls-51" d="M163.7,78l-.57.29a1.42,1.42,0,0,1-1.8-1.13,8.45,8.45,0,0,0-2.07-2.73,5.42,5.42,0,0,1-1.6-3.63c1.51-.09,1.66,1.43,2.1,2.19A17.84,17.84,0,0,0,163.7,78Z"/><path class="cls-10" d="M107.86,41.48c.37.2.82.33.86.86C108.34,42.14,107.89,42,107.86,41.48Z"/><text class="cls-195" transform="translate(53.03 158.84) scale(0.97 1)">千问造点</text></g></g></svg>