<?xml version="1.0" encoding="UTF-8"?>
<svg id="_图层_2" data-name="图层 2" xmlns="http://www.w3.org/2000/svg" xmlns:xlink="http://www.w3.org/1999/xlink" viewBox="0 0 270 176.73">
  <defs>
    <style>
      .cls-1 {
        fill: url(#_未命名的渐变_7-2);
      }

      .cls-2 {
        letter-spacing: 0em;
      }

      .cls-3, .cls-4 {
        fill: #fff;
      }

      .cls-5 {
        fill: url(#_未命名的渐变_7-4);
      }

      .cls-6 {
        fill: url(#_未命名的渐变_7);
      }

      .cls-7 {
        letter-spacing: -.01em;
      }

      .cls-4 {
        font-family: SourceHanSerifCN-Heavy-GBpc-EUC-H, 'Source Han Serif CN';
        font-size: 82.88px;
        font-weight: 800;
      }

      .cls-8 {
        fill: url(#_未命名的渐变_7-3);
      }
    </style>
    <linearGradient id="_未命名的渐变_7" data-name="未命名的渐变 7" x1="42.55" y1="136.94" x2="82.49" y2="136.94" gradientUnits="userSpaceOnUse">
      <stop offset="0" stop-color="#6e5ef0"/>
      <stop offset="1" stop-color="#eb6fd8"/>
    </linearGradient>
    <linearGradient id="_未命名的渐变_7-2" data-name="未命名的渐变 7" x1="111.83" x2="151.01" xlink:href="#_未命名的渐变_7"/>
    <linearGradient id="_未命名的渐变_7-3" data-name="未命名的渐变 7" x1="180.62" x2="219.93" xlink:href="#_未命名的渐变_7"/>
    <linearGradient id="_未命名的渐变_7-4" data-name="未命名的渐变 7" x1="1.17" y1="17.22" x2="278.83" y2="91.62" xlink:href="#_未命名的渐变_7"/>
  </defs>
  <g id="_图层_1-2" data-name="图层 1">
    <g>
      <rect class="cls-3" width="270" height="170"/>
      <g>
        <path class="cls-6" d="M44.56,149.3v-29.58h37.93v4.71h-31.71v24.86l-2.01,4.86h-6.22l2.01-4.86ZM55.39,143.54h5.9l-3.53,10.57h-5.9l3.53-10.57ZM52.03,127.73h3.67l1.3-2.57h6.71l-1.3,2.57h18.96v9.91c0,1.24-.41,2.29-1.23,3.17s-1.81,1.31-2.97,1.31h-6.75v6.67c0,1.49-.48,2.74-1.43,3.74-.96,1-2.12,1.5-3.49,1.5h-5.95l1.92-4.19h1.34c.39,0,.72-.14.98-.43.27-.29.4-.65.4-1.1v-6.19h-12.17v-14.38ZM75.15,133.06v-1.71h-16.91v1.71h16.91ZM74.17,138.49c.66,0,.98-.35.98-1.05v-.95h-16.91v2h15.92ZM77.97,143.54l3.53,10.57h-5.9l-3.58-10.57h5.95Z"/>
        <path class="cls-1" d="M111.83,119.78h33.01v-.05h6.17v29.2c0,1.46-.49,2.7-1.45,3.71-.97,1.02-2.11,1.52-3.42,1.52h-34.3v-34.39ZM143.41,149.45c.42,0,.76-.14,1.03-.43.27-.29.4-.63.4-1.05v-23.48h-26.83v24.96h25.4ZM119.79,136.54c.3-.03,1-.1,2.1-.21,1.1-.11,2.1-.26,3-.45-1.79-1.17-3.25-2.54-4.38-4.1h6.53c1.16.92,2.58,1.73,4.25,2.43,1.97-.76,3.8-1.91,5.5-3.43h-16.59l2.1-5.43h5.68l-.49,1.29h15.3v4.14c-1.22,1.97-2.91,3.67-5.05,5.1.86.19,1.86.34,2.97.45,1.12.11,1.81.18,2.08.21v3.81c-4.89-.38-8.72-.95-11.5-1.71-2.77.76-6.6,1.33-11.49,1.71v-3.81ZM120.19,140.4l22.59,1.48v2.95l-22.59-1.43v-3ZM120.19,144.3l22.59,1.48v3.24l-22.59-1.48v-3.24Z"/>
        <path class="cls-8" d="M180.62,119.78h34.39c1.4,0,2.57.51,3.51,1.52.94,1.02,1.41,2.25,1.41,3.71v23.91c0,1.49-.48,2.73-1.43,3.71-.96.98-2.12,1.48-3.49,1.48h-5.05l1.83-4.71h.94c.42,0,.76-.14,1.03-.43.27-.29.4-.63.4-1.05v-21.96c0-.41-.13-.76-.4-1.05-.27-.29-.61-.43-1.03-.43h-26.34v29.62h-5.77v-34.34ZM191.26,127.11c.21,1.4.61,2.87,1.21,4.43l.8,2.24.8-2.24c.54-1.43.92-2.91,1.16-4.43h4.29c-.45,2.51-1.19,5.16-2.24,7.95-.33.86-.85,2.08-1.57,3.67.89,1.52,2,3.03,3.31,4.52v5.67c-2.15-1.52-4.07-3.51-5.77-5.95-1.7,2.45-3.64,4.43-5.81,5.95v-5.67c1.1-1.17,2.22-2.68,3.35-4.52-.72-1.59-1.24-2.81-1.57-3.67-1.04-2.79-1.79-5.45-2.24-7.95h4.25ZM204.54,127.11c.24,1.52.63,3,1.16,4.43l.81,2.24c.21-.48.49-1.22.85-2.24.54-1.43.92-2.91,1.16-4.43h4.25c-.45,2.51-1.19,5.16-2.24,7.95-.33.86-.85,2.08-1.57,3.67,1.13,1.84,2.25,3.35,3.35,4.52v5.67c-2.21-1.59-4.14-3.57-5.81-5.95-1.7,2.45-3.62,4.43-5.77,5.95v-5.67c1.31-1.49,2.42-3,3.31-4.52-.72-1.59-1.24-2.81-1.57-3.67-1.04-2.79-1.79-5.45-2.24-7.95h4.29Z"/>
      </g>
      <g>
        <path class="cls-5" d="M54.72,15.4h200.9v42.34c0,23.37-18.97,42.34-42.34,42.34H54.72c-23.37,0-42.34-18.97-42.34-42.34h0c0-23.37,18.97-42.34,42.34-42.34Z"/>
        <text class="cls-4" transform="translate(42.12 90.12)"><tspan class="cls-2" x="0" y="0">Y</tspan><tspan class="cls-7" x="59.26" y="0">T</tspan><tspan x="117.52" y="0">U</tspan></text>
      </g>
    </g>
  </g>
</svg>