<?xml version="1.0" encoding="utf-8"?>
<!-- Generator: Adobe Illustrator 24.0.1, SVG Export Plug-In . SVG Version: 6.00 Build 0)  -->
<svg version="1.1" id="图层_1" xmlns="http://www.w3.org/2000/svg" xmlns:xlink="http://www.w3.org/1999/xlink" x="0px" y="0px"
	 viewBox="0 0 270 170" style="enable-background:new 0 0 270 170;" xml:space="preserve">
<style type="text/css">
	.st0{fill:#FFFFFF;}
	.st1{fill:#01CCFE;}
	.st2{fill:#04CDFE;}
	.st3{fill:#05CDFE;}
	.st4{fill:#02CCFE;}
	.st5{fill:#07CDFE;}
	.st6{fill:#06CDFE;}
	.st7{fill:#03CDFE;}
</style>
<rect class="st0" width="270" height="170"/>
<g>
	<path class="st1" d="M168.08,117.43c-0.59,0-1.19-0.02-1.78,0c-0.96,0.03-1.44-0.35-1.5-1.37c-0.49-9.28-1.68-18.49-2.87-27.68
		c-0.97-7.48-1.66-15.02-3.35-22.4c-0.38-1.66-0.01-2.39,1.77-2.49c7.64-0.47,6.15-1.47,6.75,5.55c0.67,7.87,1.46,15.73,1.91,23.6
		c0.38,6.65,1.05,13.26,1.59,19.89c0.05,0.66,0.12,1.31,0.19,1.97C171.13,117.57,171.13,117.57,168.08,117.43z"/>
	<path class="st1" d="M244.32,63.19c2.72,0.06,2.64,0.07,2.83,2.71c0.71,9.59,1.45,19.18,2.21,28.76
		c0.55,6.96,1.11,13.92,1.74,20.88c0.15,1.63-0.31,2.03-1.93,1.83c-3.7-0.45-3.75-0.36-4.17-4.15c-0.88-8.05-1.61-16.12-2.59-24.16
		c-0.93-7.63-1.88-15.27-3.46-22.81c-0.34-1.64-0.46-2.83,1.83-2.69C241.96,63.63,243.14,63.33,244.32,63.19z"/>
	<path class="st1" d="M160.76,118.03c0.49,1.44-0.47,1.72-1.77,1.83c-4.23,0.36-4.34,0.4-5.23-3.9c-1.57-7.6-2.97-15.23-4.53-22.83
		c-0.23-1.11,0.23-1.42,1.03-1.67c1.71-0.52,3.49-0.53,5.24-0.75c1.66-0.21,2.37,0.56,2.53,2.19c0.43,4.19,1,8.37,1.45,12.56
		C159.94,109.58,160.33,113.71,160.76,118.03z"/>
	<path class="st1" d="M235.54,90.75c1.83-0.3,2.52,0.61,2.71,2.28c0.7,6.15,1.45,12.29,2.17,18.44c0.25,2.16,0.41,4.33,0.69,6.48
		c0.15,1.21-0.15,1.79-1.5,1.91c-4.61,0.41-4.65,0.46-5.58-4.13c-1.5-7.41-2.9-14.84-4.43-22.24c-0.29-1.39,0.14-1.94,1.45-2.1
		C232.55,91.21,234.04,90.97,235.54,90.75z"/>
	<path class="st1" d="M182.49,119.09c0.03,1.46-0.42,1.95-1.91,1.94c-4.37-0.01-4.49,0.07-4.94-4.31
		c-0.79-7.73-1.39-15.49-2.16-23.22c-0.12-1.2,0.33-1.6,1.33-1.63c1.85-0.05,3.7-0.04,5.54-0.01c1.2,0.02,1.74,0.65,1.72,1.9
		C182.04,98.04,182.41,114.94,182.49,119.09z"/>
	<path class="st1" d="M262.63,119.49c0.01,0.98-0.26,1.52-1.3,1.48c-0.13-0.01-0.26,0.01-0.4,0.01c-4.67,0.25-4.65,0.18-5.02-4.44
		c-0.6-7.49-1.28-14.97-2.05-22.44c-0.17-1.65,0.47-2.05,1.88-2.19c6.11-0.59,6.43-0.36,6.5,5.62
		C262.29,100.56,262.58,115.2,262.63,119.49z"/>
	<path class="st2" d="M156.77,85.36c0.06,1.69-1.15,2.57-3.1,2.02c-0.54-0.15-0.7-0.47-0.76-0.98c-0.35-2.85-0.7-5.69-1.13-8.53
		c-0.19-1.26,0.44-1.74,1.5-1.75c1.11-0.01,2.7-0.38,2.71,1.39C156,80.07,156.83,82.54,156.77,85.36z"/>
	<path class="st3" d="M237.01,85.46c0.14,0.79,0.24,1.71-1.09,1.65c-1.05-0.04-2.43,0.64-2.61-1.36c-0.24-2.61-0.67-5.2-1.04-7.8
		c-0.13-0.91-0.2-1.83,1.06-1.82c1.15,0.01,2.71-0.51,2.94,1.38C236.58,80.11,236.76,82.74,237.01,85.46z"/>
	<path class="st4" d="M181.85,83c0,1.25-0.05,2.5,0.01,3.74c0.05,1.05-0.22,1.66-1.41,1.48c-0.93-0.14-2.24,0.45-2.28-1.32
		c-0.05-2.69-0.16-5.38-0.25-8.07c-0.03-0.83-0.03-1.75,1.18-1.42c1,0.27,2.76-0.77,2.73,1.46C181.82,80.24,181.84,81.62,181.85,83
		C181.84,83,181.84,83,181.85,83z"/>
	<path class="st5" d="M258.33,79.66c0.04-1.01-0.53-2.31,1.44-2.24c1.6,0.06,2.61,0.26,2.44,2.25c-0.2,2.35-0.15,4.72-0.17,7.08
		c-0.01,1.04-0.33,1.59-1.5,1.45c-0.97-0.12-2.03,0.11-1.99-1.45C258.58,85.36,258.3,80.64,258.33,79.66z"/>
	<path class="st2" d="M173.75,77.47c2.49-0.49,2.87-0.13,2.71,2.44c-0.1,1.56,0.09,3.14,0.1,4.72c0,0.85-0.09,1.7-0.17,2.54
		c-0.14,1.44-1.29,0.99-2.12,1.1c-1.03,0.14-1.15-0.51-1.17-1.33C173.02,84.77,171.55,77.9,173.75,77.47z"/>
	<path class="st3" d="M151.58,86.11c0.17,1.25-0.57,1.55-1.62,1.73c-1.09,0.18-1.55-0.18-1.73-1.24c-0.42-2.59-0.91-5.16-1.35-7.75
		c-0.13-0.76-0.45-1.68,0.88-1.64c0.97,0.03,2.25-0.94,2.68,0.92C151.07,80.76,151.24,83.45,151.58,86.11z"/>
	<path class="st6" d="M231.63,84.34c0.15,3.32-0.19,3.69-2.07,3.52c-0.68-0.06-0.85-0.32-0.95-0.94c-0.46-2.64-0.96-5.28-1.49-7.91
		c-0.22-1.09-0.07-1.81,1.25-1.85c1.04-0.03,2.24-0.7,2.41,1.21C230.99,80.72,231.44,83.05,231.63,84.34z"/>
	<path class="st3" d="M256.65,86.61c0.06,1.2-0.46,1.6-1.63,1.64c-1.24,0.05-1.37-0.61-1.42-1.58c-0.12-2.56-0.25-5.11-0.48-7.66
		c-0.1-1.18,0.41-1.52,1.46-1.49c0.9,0.02,1.94-0.23,1.95,1.21C256.53,80.18,256.59,85.43,256.65,86.61z"/>
	<path class="st1" d="M92.6,73.76c-0.53-7.78-6.29-13.13-14.04-13.17c-4.29-0.03-8.58,0.01-12.88-0.01c-0.48,0-1.16,0.27-1.39-0.39
		c-0.17-0.51,0.41-0.77,0.71-1.08c1.81-1.83,3.64-3.64,5.46-5.46c1.2-1.21,1.36-2.56,0.28-3.9c-1.04-1.28-3.02-1.11-4.53,0.37
		c-3.11,3.05-6.22,6.1-9.27,9.21c-0.9,0.92-1.82,1.35-3.12,1.3c-2.44-0.09-4.89-0.08-7.33-0.01c-1.28,0.04-2.23-0.32-3.14-1.26
		c-2.94-3.04-5.96-5.99-8.95-8.97c-1.67-1.67-3.46-1.98-4.68-0.81c-1.33,1.27-1.12,2.82,0.66,4.6c1.49,1.5,3.02,2.95,4.47,4.49
		c0.45,0.48,1.52,0.83,1.13,1.61c-0.33,0.67-1.33,0.28-2.02,0.29c-4.56,0.03-9.11-0.02-13.67,0.05c-2.19,0.03-4.3,0.48-6.17,1.77
		c-4.33,2.98-6.51,7.12-6.75,12.32C7.41,87,7.42,99.29,7.44,111.58c0.33,3.61,1.79,6.71,4.25,9.36c2.83,3.05,6.42,3.96,10.41,3.75
		c1.25-0.06,2.06,0.16,2.39,1.65c0.38,1.76,2.33,2.97,4.2,3.02c1.83,0.05,3.9-1.11,4.32-2.84c0.42-1.74,1.44-1.89,2.89-1.89
		c9.58,0.04,19.15,0.05,28.73-0.01c1.45-0.01,2.27,0.31,2.71,1.83c0.59,2,2.24,2.86,4.25,2.88c2.05,0.02,3.73-1.05,4.27-2.92
		c0.46-1.57,1.24-1.71,2.54-1.73c2.78-0.04,5.52-0.28,7.89-2.02c4.12-3.02,6.23-7.13,6.37-12.14c0.17-6.2,0.09-12.4,0.11-18.6
		C92.8,85.88,93.02,79.81,92.6,73.76z M83.17,110.96c-0.21,3.42-2.33,5.41-5.8,5.41c-9.11,0.01-18.23,0-27.34,0
		c-9.11,0-18.23,0.01-27.34,0c-3.55,0-5.77-2.02-5.79-5.58c-0.06-12.08-0.05-24.16,0.03-36.23c0.03-3.76,2.1-5.6,5.91-5.6
		c17.83-0.01,35.66-0.01,53.49,0c5.03,0,6.85,1.87,6.85,6.95c0,11.09,0.01,22.18,0.01,33.26C83.2,109.77,83.21,110.37,83.17,110.96z
		"/>
	<path class="st1" d="M145.8,104.68c-7.9-4.16-16.3-6.1-25.24-5.41c-1.19,0.09-1.75-0.1-1.89-1.5c-1.04-10.56-1.83-21.14-1.75-31.75
		c0-2.97-0.1-5.94,0.04-8.9c0.08-1.77-0.62-1.89-1.94-1.35c-2.86,1.17-5.68,2.45-8.59,3.48c-1.6,0.57-1.87,1.33-1.51,2.93
		c2.63,11.69,3.97,23.6,5.53,35.46c1.11,8.48,2.03,17,2.51,25.55c0.08,1.41,0.57,1.87,2.03,1.89c5.44,0.09,10.81-0.56,16.06-1.84
		c5.66-1.38,11.12-3.42,15.51-7.47C150,112.59,152.03,107.96,145.8,104.68z M135.51,111.73c-2.63,1.97-5.27,3.92-7.93,5.86
		c-0.7,0.51-1.44,0.65-1.6-0.46c-0.47-3.12-0.86-6.26-1.28-9.39c-0.18-1.24,0.4-1.57,1.49-1.16c3.02,1.12,6.03,2.29,9.06,3.39
		C136.55,110.43,136.43,111.04,135.51,111.73z"/>
	<path class="st1" d="M227.35,105.54c-8.04-5.07-16.94-6.71-26.29-6.26c-1.49,0.07-2.03-0.3-2.13-1.72
		c-0.68-9.07-1.7-18.13-1.68-27.24c0-4.42-0.07-8.85,0.04-13.26c0.04-1.57-0.44-1.84-1.76-1.31c-2.99,1.21-5.94,2.53-8.98,3.58
		c-1.51,0.52-1.69,1.27-1.37,2.64c2.1,9.06,3.34,18.27,4.58,27.47c1.53,11.3,2.72,22.65,3.58,34.02c0.09,1.18,0.47,1.61,1.65,1.61
		c2.78-0.01,5.53-0.18,8.3-0.46c6.28-0.64,12.32-2.13,17.96-4.99c3.02-1.53,5.83-3.37,7.71-6.31
		C230.98,110.13,230.52,107.54,227.35,105.54z M216.01,111.61c-2.68,2-5.36,4.01-8.06,5.98c-0.77,0.56-1.48,0.65-1.66-0.6
		c-0.44-3.19-0.89-6.37-1.39-9.95c-0.03-0.57,0.56-0.78,1.29-0.52c3.27,1.18,6.53,2.38,9.77,3.63
		C216.88,110.5,216.68,111.11,216.01,111.61z"/>
	<path class="st4" d="M25.4,90.93c-0.39,0-0.47,0.02-0.52,0c-2.44-0.94-1.22-3.34-1.94-4.97c-0.45-1.02,0.13-1.46,1.22-1.66
		c4.52-0.82,9.03-1.75,13.54-2.63c2.53-0.5,2.57-0.47,3.07,2.01c0.85,4.18,0.84,4.15-3.32,4.92C33.32,89.36,29.2,90.19,25.4,90.93z"
		/>
	<path class="st4" d="M60.98,81.39c5.57,1.05,10.73,2.02,15.88,3.01c0.8,0.15,0.77,0.73,0.64,1.38c-0.28,1.41-0.49,2.84-0.79,4.25
		c-0.34,1.58-1.6,0.89-2.41,0.75c-4.14-0.73-8.25-1.58-12.37-2.39c-0.45-0.09-0.91-0.16-1.36-0.23c-1.14-0.17-1.79-0.62-1.41-1.96
		c0.34-1.2,0.49-2.44,0.75-3.66C60.07,81.75,60.34,81.08,60.98,81.39z"/>
	<path class="st7" d="M54.37,106.99c-0.83-0.02-2.06-0.45-3.11-1.31c-0.82-0.68-1.44-0.74-2.4-0.04c-3.24,2.36-7.34,1.4-9.6-2.04
		c-0.38-0.58-0.43-0.99,0.19-1.22c0.82-0.3,1.4-1.66,2.55-0.66c0.24,0.21,0.41,0.52,0.64,0.75c1.81,1.77,3.56,1.63,5.21-0.35
		c0.75-0.9,1.08-2.6,2.11-2.66c1.09-0.06,1.38,1.68,2.15,2.55c1.84,2.08,3.3,2.25,5.31,0.35c0.63-0.6,1.1-1.22,2.17-0.66
		c1.67,0.87,1.83,1.4,0.47,2.73C58.62,105.82,57.05,107,54.37,106.99z"/>
</g>
</svg>
