<?xml version="1.0" encoding="UTF-8" ?>
<!DOCTYPE svg PUBLIC "-//W3C//DTD SVG 1.1//EN" "http://www.w3.org/Graphics/SVG/1.1/DTD/svg11.dtd">
<svg width="270pt" height="170pt" viewBox="0 0 270 170" version="1.1" xmlns="http://www.w3.org/2000/svg">
<g id="#000000ff">
<path fill="#000000" opacity="1.00" d=" M 0.00 0.00 L 270.00 0.00 L 270.00 170.00 L 0.00 170.00 L 0.00 0.00 M 42.24 43.10 C 40.15 44.73 40.30 47.57 40.03 49.94 C 38.72 67.67 36.58 85.35 35.86 103.11 C 40.25 103.22 44.69 103.53 49.06 103.01 C 52.58 102.36 53.99 98.68 55.14 95.75 C 51.40 95.73 47.63 95.95 43.92 95.30 C 44.37 83.21 45.89 71.17 46.71 59.09 C 47.04 56.74 46.70 54.16 47.91 52.03 C 60.56 51.87 73.25 52.11 85.92 51.96 C 88.33 51.38 87.58 54.58 87.57 55.89 C 86.48 68.56 85.73 81.26 84.39 93.91 C 84.43 94.91 83.97 95.48 83.00 95.62 C 79.64 96.08 76.19 95.31 72.87 96.08 C 69.56 97.63 67.27 100.68 64.53 103.01 C 73.33 103.45 82.17 103.28 90.98 103.13 C 92.95 83.20 94.39 63.22 96.03 43.26 C 85.45 45.05 74.69 43.95 64.02 44.25 C 58.35 43.91 52.41 45.20 46.98 43.06 C 45.47 42.36 43.73 42.29 42.24 43.10 M 185.90 45.07 C 184.69 48.19 185.12 51.70 184.38 54.96 C 181.34 55.34 177.72 54.13 175.08 56.07 C 174.49 57.88 173.62 60.10 174.98 61.80 C 177.56 63.55 180.91 62.07 183.64 63.33 C 183.90 64.57 183.85 65.83 183.76 67.08 C 182.82 78.04 182.03 89.01 181.13 99.96 C 179.91 103.91 186.63 104.34 188.09 102.07 C 189.87 89.13 189.47 75.84 191.85 62.99 C 194.81 62.26 198.21 63.55 200.92 62.00 C 201.47 59.18 201.47 56.29 201.71 53.43 C 198.64 54.27 195.55 55.05 192.37 55.30 C 192.19 51.06 192.74 46.84 192.99 42.61 C 190.67 43.41 187.74 43.38 185.90 45.07 M 205.94 44.58 C 204.73 55.06 204.13 65.59 203.13 76.08 C 202.06 85.78 197.92 94.73 193.13 103.09 C 195.81 103.00 199.01 104.36 201.35 102.49 C 207.05 94.17 210.03 84.16 210.74 74.15 C 211.79 66.86 211.42 59.34 213.06 52.17 C 216.91 51.88 220.80 51.86 224.66 52.11 C 224.59 62.05 223.18 71.95 222.54 81.88 C 222.30 87.54 220.17 94.05 224.02 98.99 C 227.08 103.10 232.60 103.67 237.33 103.16 C 238.05 100.15 238.44 97.08 238.93 94.03 C 236.67 94.67 234.16 96.59 231.78 95.24 C 230.10 94.60 229.19 92.74 229.31 91.02 C 230.51 75.06 232.14 59.13 233.07 43.15 C 224.12 45.01 214.96 43.70 205.94 44.58 M 108.40 44.48 C 108.07 46.70 107.85 48.95 108.09 51.19 C 109.87 52.21 111.98 51.98 113.96 52.02 C 122.95 51.96 131.95 52.03 140.94 51.99 C 145.65 51.94 150.45 51.23 155.10 52.17 C 156.33 53.44 155.52 55.36 155.58 56.91 C 154.49 65.25 154.74 73.76 153.00 82.02 C 151.35 89.85 147.18 96.78 142.60 103.22 C 146.07 103.33 150.70 104.30 152.93 100.82 C 157.47 94.42 160.31 86.83 161.03 79.01 C 162.35 67.11 163.28 55.17 164.08 43.23 C 157.10 44.34 150.04 44.34 142.99 44.25 C 131.46 44.39 119.92 43.97 108.40 44.48 M 52.87 55.76 C 52.38 57.91 51.19 61.10 52.86 62.84 C 59.89 63.32 66.96 62.69 73.99 63.16 C 67.25 66.80 59.24 66.66 52.08 69.11 C 49.32 70.15 49.69 75.18 52.00 76.21 C 58.16 75.26 64.35 73.29 70.65 74.23 C 73.41 74.60 76.07 75.91 78.90 75.69 C 81.42 75.24 81.98 72.02 81.05 69.99 C 79.22 65.43 83.29 60.79 81.85 56.23 C 75.42 54.86 68.63 56.59 62.16 55.34 C 59.25 54.29 54.89 52.22 52.87 55.76 M 108.05 58.09 C 106.14 59.75 107.07 62.76 106.94 65.01 C 119.63 65.54 132.38 65.14 145.09 65.22 C 148.65 65.01 147.69 60.42 147.42 58.00 C 134.29 58.07 121.16 57.87 108.05 58.09 M 174.67 67.42 C 173.82 74.57 172.33 81.65 170.39 88.59 C 168.94 93.93 165.87 98.59 163.35 103.45 C 166.58 103.19 171.07 104.61 172.95 101.01 C 179.10 90.56 182.24 78.19 181.60 66.08 C 179.95 63.83 175.05 64.19 174.67 67.42 M 192.74 66.03 C 191.99 72.26 191.31 78.54 191.37 84.82 C 193.36 85.61 195.81 85.95 197.80 85.04 C 199.64 79.54 199.09 73.54 199.88 67.84 C 200.87 63.64 194.80 63.69 192.74 66.03 M 104.12 96.10 C 110.72 96.95 117.41 96.30 124.04 96.51 C 129.89 96.52 136.66 96.60 140.91 91.87 C 146.83 86.08 145.89 77.25 146.78 69.72 C 138.34 71.84 129.60 70.72 121.01 71.02 C 116.10 71.48 111.56 68.87 106.64 69.51 C 105.18 78.28 104.34 87.22 104.12 96.10 M 58.97 79.07 C 55.47 82.00 51.52 84.48 48.71 88.13 C 54.06 88.37 59.42 88.19 64.77 88.27 C 60.66 94.77 56.05 100.98 52.29 107.69 C 55.37 106.60 57.54 104.01 60.07 102.06 C 66.82 96.24 73.95 90.85 80.42 84.72 C 76.41 84.36 72.37 84.53 68.35 84.50 C 69.75 82.08 71.16 79.68 72.52 77.25 C 69.69 76.73 66.87 75.79 63.95 76.03 C 61.99 76.40 60.56 77.97 58.97 79.07 M 45.47 113.70 C 44.31 119.23 42.98 124.92 39.75 129.66 C 37.97 132.35 35.37 134.33 32.98 136.43 C 34.39 136.18 36.17 136.50 37.09 135.12 C 39.91 132.15 42.45 128.93 44.98 125.71 C 46.88 128.87 48.32 132.36 50.80 135.13 C 51.88 136.77 53.95 135.97 55.54 136.08 C 53.36 134.02 50.91 132.17 49.35 129.56 C 46.39 124.82 46.10 119.10 45.47 113.70 M 196.97 113.38 C 196.14 116.19 195.75 119.10 195.40 122.00 C 193.16 122.42 190.89 122.73 188.71 123.39 C 190.67 124.64 193.00 124.79 195.22 125.20 C 195.09 129.56 194.43 133.91 194.79 138.28 C 198.86 135.01 195.95 129.25 198.07 125.18 C 200.24 124.63 202.48 124.39 204.65 123.80 C 202.79 122.51 200.19 122.90 198.43 121.71 C 197.65 119.01 198.94 115.83 196.97 113.38 M 69.72 128.77 C 67.95 132.23 63.61 133.71 62.79 137.69 C 68.21 135.43 71.72 130.51 74.27 125.42 C 76.19 130.14 78.73 136.30 84.52 136.90 C 82.99 133.46 79.35 131.55 78.00 127.98 C 75.61 123.47 76.63 118.20 75.17 113.47 C 72.58 118.30 73.13 124.27 69.72 128.77 M 94.57 118.11 C 95.59 118.98 96.59 119.87 97.59 120.78 C 95.84 121.46 94.05 122.07 92.29 122.73 C 93.92 123.41 95.61 123.92 97.30 124.42 C 95.46 125.81 93.64 127.20 91.82 128.60 C 92.43 128.97 93.67 129.73 94.28 130.11 C 94.16 132.23 93.88 134.35 93.67 136.47 C 96.87 136.28 100.07 136.11 103.28 135.91 C 103.75 132.97 104.04 130.00 104.07 127.01 C 102.47 126.37 100.85 125.75 99.26 125.08 C 101.46 124.24 103.71 123.54 105.95 122.81 C 105.12 122.25 104.28 121.69 103.45 121.13 C 104.70 119.03 105.89 116.87 106.50 114.49 C 104.91 115.58 103.37 116.74 101.79 117.84 C 100.92 116.91 100.07 115.96 99.23 114.99 C 97.68 116.04 96.13 117.08 94.57 118.11 M 125.85 115.30 C 125.84 117.98 124.46 121.29 126.72 123.41 C 130.90 124.08 135.22 123.78 139.44 123.61 C 143.64 123.44 142.42 118.15 142.23 115.35 C 136.77 115.17 131.31 115.24 125.85 115.30 M 154.26 115.39 C 155.44 117.26 156.94 118.92 158.72 120.25 C 159.21 117.44 157.20 114.88 154.26 115.39 M 163.77 115.62 C 162.77 118.88 161.17 121.86 159.35 124.72 C 164.26 124.64 163.51 117.66 168.08 117.31 C 169.01 119.24 169.09 121.44 169.91 123.41 C 171.56 123.54 173.21 123.48 174.85 123.22 C 173.61 122.40 172.31 121.69 171.00 120.99 C 171.00 119.19 171.00 117.39 171.00 115.59 C 168.64 115.12 166.05 114.52 163.77 115.62 M 184.25 115.41 C 185.49 117.18 186.82 118.88 188.23 120.53 C 188.21 119.33 188.25 118.12 188.08 116.92 C 187.08 115.91 185.53 115.86 184.25 115.41 M 217.01 114.34 C 216.43 119.54 215.85 124.73 214.93 129.89 C 214.45 129.16 213.97 128.43 213.50 127.70 C 213.93 124.22 214.30 120.72 214.33 117.20 C 211.58 120.97 210.70 127.19 214.37 130.65 C 213.50 132.83 212.76 135.06 212.14 137.32 C 217.82 131.53 219.98 121.90 217.01 114.34 M 106.80 117.97 C 106.60 124.67 104.82 131.42 106.03 138.09 C 106.36 137.55 107.03 136.48 107.36 135.94 C 108.10 129.92 108.11 123.82 109.02 117.82 C 109.93 117.88 111.74 117.99 112.65 118.05 C 111.82 120.06 110.67 121.95 110.10 124.06 C 110.77 125.81 111.88 127.35 112.66 129.06 C 112.02 131.08 109.69 131.83 108.29 133.23 C 109.93 133.45 111.88 134.75 113.32 133.34 C 115.29 130.45 113.72 126.98 112.74 124.04 C 112.94 121.31 114.54 118.93 115.34 116.36 C 112.60 116.32 107.22 113.58 106.80 117.97 M 219.53 116.73 C 221.54 117.43 223.56 118.12 225.52 118.96 C 223.73 119.72 221.91 120.37 220.09 121.04 C 219.79 125.54 218.91 130.16 220.11 134.60 C 221.75 130.91 221.33 126.77 222.10 122.88 C 222.78 122.88 224.13 122.89 224.81 122.89 C 224.67 126.27 224.36 129.63 224.21 133.01 C 224.22 134.77 223.62 136.77 225.07 138.22 C 225.58 136.64 225.97 135.04 226.24 133.41 C 227.57 133.13 228.90 133.13 230.22 133.55 C 232.81 130.06 231.98 125.26 232.09 121.17 C 230.55 120.24 228.84 119.63 227.29 118.72 C 229.53 117.75 231.94 117.41 234.32 116.99 C 229.60 115.09 224.32 115.12 219.53 116.73 M 151.22 123.12 C 152.52 123.79 153.81 124.45 155.12 125.12 C 154.80 129.15 154.01 133.12 153.50 137.13 C 155.86 135.48 158.24 133.86 160.42 131.97 C 159.15 131.85 157.88 131.76 156.61 131.67 C 156.67 128.92 157.54 125.97 156.65 123.31 C 155.54 121.14 152.98 122.82 151.22 123.12 M 181.08 122.65 C 182.31 123.63 183.58 124.57 184.86 125.50 C 184.58 129.33 184.03 133.15 183.83 136.99 C 186.11 135.34 188.40 133.69 190.58 131.90 C 189.67 131.76 187.85 131.49 186.95 131.36 C 186.99 128.37 187.80 125.21 186.46 122.37 C 184.66 122.12 182.86 122.45 181.08 122.65 M 159.58 125.32 C 160.69 127.92 162.27 130.28 163.44 132.85 C 161.64 134.10 159.79 135.32 158.37 137.02 C 161.03 136.79 163.40 135.34 166.05 135.19 C 168.67 135.51 170.90 137.49 173.68 136.69 C 172.24 134.96 170.13 134.12 168.23 133.04 C 170.00 130.71 171.94 128.38 172.54 125.43 C 168.23 125.30 163.89 124.81 159.58 125.32 M 121.84 125.89 C 123.43 127.04 125.35 127.42 127.24 127.81 C 125.91 131.20 121.64 134.02 122.54 137.93 C 123.92 136.61 125.26 135.24 126.65 133.91 C 130.54 136.62 135.30 137.61 139.98 137.11 C 141.79 137.33 143.22 136.48 144.06 134.89 C 141.35 134.73 138.65 134.73 135.94 134.75 C 135.52 134.28 134.66 133.35 134.23 132.88 C 136.92 131.25 140.52 132.59 142.82 130.24 C 140.03 129.36 137.09 129.51 134.23 129.06 C 136.72 125.55 141.66 128.61 144.74 125.87 C 137.14 125.29 129.43 125.23 121.84 125.89 Z" />
<path fill="#000000" opacity="1.00" d=" M 114.33 78.47 C 121.85 78.00 129.42 78.31 136.96 78.31 C 139.58 78.04 138.80 81.37 138.41 82.90 C 137.38 87.01 133.17 89.53 129.07 89.25 C 123.39 89.04 117.62 89.74 112.00 88.85 C 111.55 85.63 112.12 82.22 113.17 79.15 C 113.46 78.98 114.04 78.64 114.33 78.47 Z" />
<path fill="#000000" opacity="1.00" d=" M 127.28 118.32 C 131.47 116.13 136.66 116.18 140.86 118.29 C 136.35 118.63 131.80 118.59 127.28 118.32 Z" />
<path fill="#000000" opacity="1.00" d=" M 126.47 121.69 C 130.84 119.64 136.06 119.30 140.48 121.39 C 135.89 122.50 131.11 122.52 126.47 121.69 Z" />
<path fill="#000000" opacity="1.00" d=" M 227.38 123.22 C 228.04 123.05 229.35 122.70 230.01 122.52 C 230.04 125.59 230.22 128.74 229.04 131.64 C 228.34 131.94 226.94 132.53 226.24 132.83 C 226.79 129.64 226.53 126.35 227.38 123.22 Z" />
<path fill="#000000" opacity="1.00" d=" M 96.13 128.96 C 97.81 127.47 99.91 127.41 101.98 127.93 C 101.68 128.50 101.09 129.64 100.80 130.21 L 99.85 129.16 C 99.80 130.37 99.77 131.58 99.75 132.79 L 100.70 131.66 L 101.77 133.14 C 100.82 133.60 99.87 134.06 98.93 134.53 C 98.03 134.05 97.13 133.58 96.23 133.11 L 97.23 131.98 L 98.26 132.78 C 98.28 131.64 98.29 130.50 98.27 129.36 L 96.13 128.96 Z" />
<path fill="#000000" opacity="1.00" d=" M 127.27 127.32 C 128.92 127.33 130.58 127.37 132.24 127.45 C 132.25 129.67 132.36 132.00 131.20 134.00 C 128.65 132.72 128.32 129.66 127.27 127.32 Z" />
<path fill="#000000" opacity="1.00" d=" M 162.22 127.49 C 164.91 127.50 167.60 127.50 170.30 127.50 C 168.88 129.14 167.43 130.75 165.97 132.34 C 164.72 130.72 163.46 129.11 162.22 127.49 Z" />
</g>
<g id="#ffffffff">
<path fill="#ffffff" opacity="1.00" d=" M 42.24 43.10 C 43.73 42.29 45.47 42.36 46.98 43.06 C 52.41 45.20 58.35 43.91 64.02 44.25 C 74.69 43.95 85.45 45.05 96.03 43.26 C 94.39 63.22 92.95 83.20 90.98 103.13 C 82.17 103.28 73.33 103.45 64.53 103.01 C 67.27 100.68 69.56 97.63 72.87 96.08 C 76.19 95.31 79.64 96.08 83.00 95.62 C 83.97 95.48 84.43 94.91 84.39 93.91 C 85.73 81.26 86.48 68.56 87.57 55.89 C 87.58 54.58 88.33 51.38 85.92 51.96 C 73.25 52.11 60.56 51.87 47.91 52.03 C 46.70 54.16 47.04 56.74 46.71 59.09 C 45.89 71.17 44.37 83.21 43.92 95.30 C 47.63 95.95 51.40 95.73 55.14 95.75 C 53.99 98.68 52.58 102.36 49.06 103.01 C 44.69 103.53 40.25 103.22 35.86 103.11 C 36.58 85.35 38.72 67.67 40.03 49.94 C 40.30 47.57 40.15 44.73 42.24 43.10 Z" />
<path fill="#ffffff" opacity="1.00" d=" M 185.90 45.07 C 187.74 43.38 190.67 43.41 192.99 42.61 C 192.74 46.84 192.19 51.06 192.37 55.30 C 195.55 55.05 198.64 54.27 201.71 53.43 C 201.47 56.29 201.47 59.18 200.92 62.00 C 198.21 63.55 194.81 62.26 191.85 62.99 C 189.47 75.84 189.87 89.13 188.09 102.07 C 186.63 104.34 179.91 103.91 181.13 99.96 C 182.03 89.01 182.82 78.04 183.76 67.08 C 183.85 65.83 183.90 64.57 183.64 63.33 C 180.91 62.07 177.56 63.55 174.98 61.80 C 173.62 60.10 174.49 57.88 175.08 56.07 C 177.72 54.13 181.34 55.34 184.38 54.96 C 185.12 51.70 184.69 48.19 185.90 45.07 Z" />
<path fill="#ffffff" opacity="1.00" d=" M 205.94 44.58 C 214.96 43.70 224.12 45.01 233.07 43.15 C 232.14 59.13 230.51 75.06 229.31 91.02 C 229.19 92.74 230.10 94.60 231.78 95.24 C 234.16 96.59 236.67 94.67 238.93 94.03 C 238.44 97.08 238.05 100.15 237.33 103.16 C 232.60 103.67 227.08 103.10 224.02 98.99 C 220.17 94.05 222.30 87.54 222.54 81.88 C 223.18 71.95 224.59 62.05 224.66 52.11 C 220.80 51.86 216.91 51.88 213.06 52.17 C 211.42 59.34 211.79 66.86 210.74 74.15 C 210.03 84.16 207.05 94.17 201.35 102.49 C 199.01 104.36 195.81 103.00 193.13 103.09 C 197.92 94.73 202.06 85.78 203.13 76.08 C 204.13 65.59 204.73 55.06 205.94 44.58 Z" />
<path fill="#ffffff" opacity="1.00" d=" M 108.40 44.48 C 119.92 43.97 131.46 44.39 142.99 44.25 C 150.04 44.34 157.10 44.34 164.08 43.23 C 163.28 55.17 162.35 67.11 161.03 79.01 C 160.31 86.83 157.47 94.42 152.93 100.82 C 150.70 104.30 146.07 103.33 142.60 103.22 C 147.18 96.78 151.35 89.85 153.00 82.02 C 154.74 73.76 154.49 65.25 155.58 56.91 C 155.52 55.36 156.33 53.44 155.10 52.17 C 150.45 51.23 145.65 51.94 140.94 51.99 C 131.95 52.03 122.95 51.96 113.96 52.02 C 111.98 51.98 109.87 52.21 108.09 51.19 C 107.85 48.95 108.07 46.70 108.40 44.48 Z" />
<path fill="#ffffff" opacity="1.00" d=" M 52.87 55.76 C 54.89 52.22 59.25 54.29 62.16 55.34 C 68.63 56.59 75.42 54.86 81.85 56.23 C 83.29 60.79 79.22 65.43 81.05 69.99 C 81.98 72.02 81.42 75.24 78.90 75.69 C 76.07 75.91 73.41 74.60 70.65 74.23 C 64.35 73.29 58.16 75.26 52.00 76.21 C 49.69 75.18 49.32 70.15 52.08 69.11 C 59.24 66.66 67.25 66.80 73.99 63.16 C 66.96 62.69 59.89 63.32 52.86 62.84 C 51.19 61.10 52.38 57.91 52.87 55.76 Z" />
<path fill="#ffffff" opacity="1.00" d=" M 108.05 58.09 C 121.16 57.87 134.29 58.07 147.42 58.00 C 147.69 60.42 148.65 65.01 145.09 65.22 C 132.38 65.14 119.63 65.54 106.94 65.01 C 107.07 62.76 106.14 59.75 108.05 58.09 Z" />
<path fill="#ffffff" opacity="1.00" d=" M 174.67 67.42 C 175.05 64.19 179.95 63.83 181.60 66.08 C 182.24 78.19 179.10 90.56 172.95 101.01 C 171.07 104.61 166.58 103.19 163.35 103.45 C 165.87 98.59 168.94 93.93 170.39 88.59 C 172.33 81.65 173.82 74.57 174.67 67.42 Z" />
<path fill="#ffffff" opacity="1.00" d=" M 192.74 66.03 C 194.80 63.69 200.87 63.64 199.88 67.84 C 199.09 73.54 199.64 79.54 197.80 85.04 C 195.81 85.95 193.36 85.61 191.37 84.82 C 191.31 78.54 191.99 72.26 192.74 66.03 Z" />
<path fill="#ffffff" opacity="1.00" d=" M 104.12 96.10 C 104.34 87.22 105.18 78.28 106.64 69.51 C 111.56 68.87 116.10 71.48 121.01 71.02 C 129.60 70.72 138.34 71.84 146.78 69.72 C 145.89 77.25 146.83 86.08 140.91 91.87 C 136.66 96.60 129.89 96.52 124.04 96.51 C 117.41 96.30 110.72 96.95 104.12 96.10 M 114.33 78.47 C 114.04 78.64 113.46 78.98 113.17 79.15 C 112.12 82.22 111.55 85.63 112.00 88.85 C 117.62 89.74 123.39 89.04 129.07 89.25 C 133.17 89.53 137.38 87.01 138.41 82.90 C 138.80 81.37 139.58 78.04 136.96 78.31 C 129.42 78.31 121.85 78.00 114.33 78.47 Z" />
<path fill="#ffffff" opacity="1.00" d=" M 58.97 79.07 C 60.56 77.97 61.99 76.40 63.95 76.03 C 66.87 75.79 69.69 76.73 72.52 77.25 C 71.16 79.68 69.75 82.08 68.35 84.50 C 72.37 84.53 76.41 84.36 80.42 84.72 C 73.95 90.85 66.82 96.24 60.07 102.06 C 57.54 104.01 55.37 106.60 52.29 107.69 C 56.05 100.98 60.66 94.77 64.77 88.27 C 59.42 88.19 54.06 88.37 48.71 88.13 C 51.52 84.48 55.47 82.00 58.97 79.07 Z" />
<path fill="#ffffff" opacity="1.00" d=" M 45.47 113.70 C 46.10 119.10 46.39 124.82 49.35 129.56 C 50.91 132.17 53.36 134.02 55.54 136.08 C 53.95 135.97 51.88 136.77 50.80 135.13 C 48.32 132.36 46.88 128.87 44.98 125.71 C 42.45 128.93 39.91 132.15 37.09 135.12 C 36.17 136.50 34.39 136.18 32.98 136.43 C 35.37 134.33 37.97 132.35 39.75 129.66 C 42.98 124.92 44.31 119.23 45.47 113.70 Z" />
<path fill="#ffffff" opacity="1.00" d=" M 196.97 113.38 C 198.94 115.83 197.65 119.01 198.43 121.71 C 200.19 122.90 202.79 122.51 204.65 123.80 C 202.48 124.39 200.24 124.63 198.07 125.18 C 195.95 129.25 198.86 135.01 194.79 138.28 C 194.43 133.91 195.09 129.56 195.22 125.20 C 193.00 124.79 190.67 124.64 188.71 123.39 C 190.89 122.73 193.16 122.42 195.40 122.00 C 195.75 119.10 196.14 116.19 196.97 113.38 Z" />
<path fill="#ffffff" opacity="1.00" d=" M 69.72 128.77 C 73.13 124.27 72.58 118.30 75.17 113.47 C 76.63 118.20 75.61 123.47 78.00 127.98 C 79.35 131.55 82.99 133.46 84.52 136.90 C 78.73 136.30 76.19 130.14 74.27 125.42 C 71.72 130.51 68.21 135.43 62.79 137.69 C 63.61 133.71 67.95 132.23 69.72 128.77 Z" />
<path fill="#ffffff" opacity="1.00" d=" M 94.57 118.11 C 96.13 117.08 97.68 116.04 99.23 114.99 C 100.07 115.96 100.92 116.91 101.79 117.84 C 103.37 116.74 104.91 115.58 106.50 114.49 C 105.89 116.87 104.70 119.03 103.45 121.13 C 104.28 121.69 105.12 122.25 105.95 122.81 C 103.71 123.54 101.46 124.24 99.26 125.08 C 100.85 125.75 102.47 126.37 104.07 127.01 C 104.04 130.00 103.75 132.97 103.28 135.91 C 100.07 136.11 96.87 136.28 93.67 136.47 C 93.88 134.35 94.16 132.23 94.28 130.11 C 93.67 129.73 92.43 128.97 91.82 128.60 C 93.64 127.20 95.46 125.81 97.30 124.42 C 95.61 123.92 93.92 123.41 92.29 122.73 C 94.05 122.07 95.84 121.46 97.59 120.78 C 96.59 119.87 95.59 118.98 94.57 118.11 M 96.13 128.96 L 98.27 129.36 C 98.29 130.50 98.28 131.64 98.26 132.78 L 97.23 131.98 L 96.23 133.11 C 97.13 133.58 98.03 134.05 98.93 134.53 C 99.87 134.06 100.82 133.60 101.77 133.14 L 100.70 131.66 L 99.75 132.79 C 99.77 131.58 99.80 130.37 99.85 129.16 L 100.80 130.21 C 101.09 129.64 101.68 128.50 101.98 127.93 C 99.91 127.41 97.81 127.47 96.13 128.96 Z" />
<path fill="#ffffff" opacity="1.00" d=" M 125.85 115.30 C 131.31 115.24 136.77 115.17 142.23 115.35 C 142.42 118.15 143.64 123.44 139.44 123.61 C 135.22 123.78 130.90 124.08 126.72 123.41 C 124.46 121.29 125.84 117.98 125.85 115.30 M 127.28 118.32 C 131.80 118.59 136.35 118.63 140.86 118.29 C 136.66 116.18 131.47 116.13 127.28 118.32 M 126.47 121.69 C 131.11 122.52 135.89 122.50 140.48 121.39 C 136.06 119.30 130.84 119.64 126.47 121.69 Z" />
<path fill="#ffffff" opacity="1.00" d=" M 154.26 115.39 C 157.20 114.88 159.21 117.44 158.72 120.25 C 156.94 118.92 155.44 117.26 154.26 115.39 Z" />
<path fill="#ffffff" opacity="1.00" d=" M 163.77 115.62 C 166.05 114.52 168.64 115.12 171.00 115.59 C 171.00 117.39 171.00 119.19 171.00 120.99 C 172.31 121.69 173.61 122.40 174.85 123.22 C 173.21 123.48 171.56 123.54 169.91 123.41 C 169.09 121.44 169.01 119.24 168.08 117.31 C 163.51 117.66 164.26 124.64 159.35 124.72 C 161.17 121.86 162.77 118.88 163.77 115.62 Z" />
<path fill="#ffffff" opacity="1.00" d=" M 184.25 115.41 C 185.53 115.86 187.08 115.91 188.08 116.92 C 188.25 118.12 188.21 119.33 188.23 120.53 C 186.82 118.88 185.49 117.18 184.25 115.41 Z" />
<path fill="#ffffff" opacity="1.00" d=" M 217.01 114.34 C 219.98 121.90 217.82 131.53 212.14 137.32 C 212.76 135.06 213.50 132.83 214.37 130.65 C 210.70 127.19 211.58 120.97 214.33 117.20 C 214.30 120.72 213.93 124.22 213.50 127.70 C 213.97 128.43 214.45 129.16 214.93 129.89 C 215.85 124.73 216.43 119.54 217.01 114.34 Z" />
<path fill="#ffffff" opacity="1.00" d=" M 106.80 117.97 C 107.22 113.58 112.60 116.32 115.34 116.36 C 114.54 118.93 112.94 121.31 112.74 124.04 C 113.72 126.98 115.29 130.45 113.32 133.34 C 111.88 134.75 109.93 133.45 108.29 133.23 C 109.69 131.83 112.02 131.08 112.66 129.06 C 111.88 127.35 110.77 125.81 110.10 124.06 C 110.67 121.95 111.82 120.06 112.65 118.05 C 111.74 117.99 109.93 117.88 109.02 117.82 C 108.11 123.82 108.10 129.92 107.36 135.94 C 107.03 136.48 106.36 137.55 106.03 138.09 C 104.82 131.42 106.60 124.67 106.80 117.97 Z" />
<path fill="#ffffff" opacity="1.00" d=" M 219.53 116.73 C 224.32 115.12 229.60 115.09 234.32 116.99 C 231.94 117.41 229.53 117.75 227.29 118.72 C 228.84 119.63 230.55 120.24 232.09 121.17 C 231.98 125.26 232.81 130.06 230.22 133.55 C 228.90 133.13 227.57 133.13 226.24 133.41 C 225.97 135.04 225.58 136.64 225.07 138.22 C 223.62 136.77 224.22 134.77 224.21 133.01 C 224.36 129.63 224.67 126.27 224.81 122.89 C 224.13 122.89 222.78 122.88 222.10 122.88 C 221.33 126.77 221.75 130.91 220.11 134.60 C 218.91 130.16 219.79 125.54 220.09 121.04 C 221.91 120.37 223.73 119.72 225.52 118.96 C 223.56 118.12 221.54 117.43 219.53 116.73 M 227.38 123.22 C 226.53 126.35 226.79 129.64 226.24 132.83 C 226.94 132.53 228.34 131.94 229.04 131.64 C 230.22 128.74 230.04 125.59 230.01 122.52 C 229.35 122.70 228.04 123.05 227.38 123.22 Z" />
<path fill="#ffffff" opacity="1.00" d=" M 151.22 123.12 C 152.98 122.82 155.54 121.14 156.65 123.31 C 157.54 125.97 156.67 128.92 156.61 131.67 C 157.88 131.76 159.15 131.85 160.42 131.97 C 158.24 133.86 155.86 135.48 153.50 137.13 C 154.01 133.12 154.80 129.15 155.12 125.12 C 153.81 124.45 152.52 123.79 151.22 123.12 Z" />
<path fill="#ffffff" opacity="1.00" d=" M 181.08 122.65 C 182.86 122.45 184.66 122.12 186.46 122.37 C 187.80 125.21 186.99 128.37 186.95 131.36 C 187.85 131.49 189.67 131.76 190.58 131.90 C 188.40 133.69 186.11 135.34 183.83 136.99 C 184.03 133.15 184.58 129.33 184.86 125.50 C 183.58 124.57 182.31 123.63 181.08 122.65 Z" />
<path fill="#ffffff" opacity="1.00" d=" M 159.58 125.32 C 163.89 124.81 168.23 125.30 172.54 125.43 C 171.94 128.38 170.00 130.71 168.23 133.04 C 170.13 134.12 172.24 134.96 173.68 136.69 C 170.90 137.49 168.67 135.51 166.05 135.19 C 163.40 135.34 161.03 136.79 158.37 137.02 C 159.79 135.32 161.64 134.10 163.44 132.85 C 162.27 130.28 160.69 127.92 159.58 125.32 M 162.22 127.49 C 163.46 129.11 164.72 130.72 165.97 132.34 C 167.43 130.75 168.88 129.14 170.30 127.50 C 167.60 127.50 164.91 127.50 162.22 127.49 Z" />
<path fill="#ffffff" opacity="1.00" d=" M 121.84 125.89 C 129.43 125.23 137.14 125.29 144.74 125.87 C 141.66 128.61 136.72 125.55 134.23 129.06 C 137.09 129.51 140.03 129.36 142.82 130.24 C 140.52 132.59 136.92 131.25 134.23 132.88 C 134.66 133.35 135.52 134.28 135.94 134.75 C 138.65 134.73 141.35 134.73 144.06 134.89 C 143.22 136.48 141.79 137.33 139.98 137.11 C 135.30 137.61 130.54 136.62 126.65 133.91 C 125.26 135.24 123.92 136.61 122.54 137.93 C 121.64 134.02 125.91 131.20 127.24 127.81 C 125.35 127.42 123.43 127.04 121.84 125.89 M 127.27 127.32 C 128.32 129.66 128.65 132.72 131.20 134.00 C 132.36 132.00 132.25 129.67 132.24 127.45 C 130.58 127.37 128.92 127.33 127.27 127.32 Z" />
</g>
</svg>
