<?xml version="1.0" encoding="UTF-8"?>
<svg id="_图层_2" data-name="图层 2" xmlns="http://www.w3.org/2000/svg" xmlns:xlink="http://www.w3.org/1999/xlink" viewBox="0 0 270 170">
  <defs>
    <style>
      .cls-1 {
        fill: #fff;
      }

      .cls-2 {
        fill: #fab1e0;
      }

      .cls-3 {
        fill: url(#_未命名的渐变_4);
      }
    </style>
    <linearGradient id="_未命名的渐变_4" data-name="未命名的渐变 4" x1="24.7" y1="47.41" x2="131.08" y2="120.63" gradientUnits="userSpaceOnUse">
      <stop offset="0" stop-color="#f80093"/>
      <stop offset="1" stop-color="#c100d3"/>
    </linearGradient>
  </defs>
  <g id="_图层_1-2" data-name="图层 1">
    <rect class="cls-1" width="270" height="170"/>
    <rect x="15.92" y="21.25" width="120.63" height="120.63" rx="30.72" ry="30.72"/>
    <g>
      <path class="cls-3" d="M124.71,103.17v-41.21c0-4.73-2.52-9.1-6.62-11.47l-35.69-20.6c-4.1-2.37-9.14-2.37-13.24,0l-35.69,20.6c-4.1,2.37-6.62,6.74-6.62,11.47v41.21c0,4.73,2.52,9.1,6.62,11.47l35.69,20.6c4.1,2.37,9.14,2.37,13.24,0l35.69-20.6c4.1-2.37,6.62-6.74,6.62-11.47Z"/>
      <path class="cls-2" d="M118.28,106.01l-44.42,25.82v-38.04c0-3.95,2.1-7.61,5.52-9.6l38.9-22.61v44.42Z"/>
      <path class="cls-2" d="M53.01,64.14l24.71-14.37v-17.54l-38.9,22.61c-3.42,1.99-5.52,5.64-5.52,9.6v38.04l14.19-8.25v-20.5c0-3.95,2.1-7.61,5.52-9.6Z"/>
      <path class="cls-2" d="M74.88,81.79l22.15-12.87v-24.47l-38.9,22.61c-3.42,1.99-5.52,5.64-5.52,9.6v38.04l16.75-9.74v-13.57c0-3.95,2.1-7.61,5.52-9.6Z"/>
    </g>
    <g>
      <path d="M163.64,24.26h6.84v4.82h27.53v6.33h-28.15c-.45,2.49-1.11,4.65-2,6.48-.88,1.83-1.93,3.37-3.14,4.61v23.48h-6.53v-19.91c-.48.1-.98.17-1.48.21-.5.04-1.01.05-1.53.05h-3.16v-6.32h2.7c.93,0,1.82-.15,2.67-.44s1.62-.78,2.33-1.45c.71-.67,1.34-1.55,1.89-2.64.55-1.09,1-2.44,1.35-4.07h-9.9v-6.33h10.58v-4.82ZM184.89,51.58v10.99h12.34v6.27h-31.05v-6.27h12.29v-10.99h-11.2v-6.22h11.2v-7.31h6.43v7.31h11.25v6.22h-11.25Z"/>
      <path d="M221.34,55.36c-2.28.38-4.28.75-5.99,1.11-1.71.36-3.38.75-5,1.17-1.42.35-2.56.35-3.42,0-.86-.34-1.47-.9-1.81-1.66-.35-.76-.4-1.66-.16-2.7.24-1.04.78-2.06,1.61-3.06.45-.55,1.1-1.4,1.94-2.54s1.77-2.44,2.77-3.89c-.52.03-1.03.07-1.53.1s-.99.09-1.48.16c-1,.1-1.81-.06-2.44-.49-.62-.43-1.04-.99-1.24-1.69-.21-.69-.22-1.47-.03-2.33.19-.86.58-1.68,1.17-2.44.24-.35.64-.99,1.19-1.92.55-.93,1.16-2.02,1.81-3.27.66-1.24,1.31-2.57,1.97-3.99.66-1.42,1.24-2.78,1.76-4.09l6.07,2.49c-.48,1.04-1.04,2.17-1.66,3.4s-1.25,2.39-1.89,3.5c-.64,1.11-1.24,2.09-1.81,2.96-.57.86-1.05,1.45-1.43,1.76l3.47-.21c.52-.9,1.02-1.75,1.5-2.57.48-.81.92-1.6,1.3-2.36l4.92,2.28v-.16l3.94-.42v-9.9h6.64v9.18l5.91-.67c-.83-.86-1.74-1.8-2.72-2.8-.99-1-1.88-1.88-2.67-2.64l4.04-3.63c.45.42.96.88,1.53,1.4s1.15,1.05,1.74,1.61c.59.55,1.17,1.11,1.74,1.68s1.1,1.12,1.58,1.63l-3.01,2.49,6.53-.73.57,5.81-15.19,1.71c0,1.17.05,2.3.16,3.37l15.71-1.87.52,5.91-4.3.52,3.94,3.99c-3.01,3.32-6.43,6.39-10.26,9.23,1.07,1.11,2.16,1.86,3.27,2.25,1.11.4,2.12.6,3.06.6h4.51v6.33h-4.98c-2.14,0-4.19-.41-6.14-1.22-1.95-.81-3.74-2.19-5.37-4.12-1.59.97-3.22,1.87-4.9,2.7-1.68.83-3.4,1.59-5.16,2.28l-2.33-5.18c-.59.14-1.36.31-2.31.52-.95.21-1.98.44-3.08.7-1.11.26-2.25.54-3.42.83s-2.27.56-3.29.8c-1.02.24-1.93.46-2.72.65-.79.19-1.35.34-1.66.44l-1.04-6.07c.38-.07,1.03-.21,1.94-.42.92-.21,1.95-.44,3.11-.7,1.16-.26,2.38-.54,3.68-.86,1.3-.31,2.53-.61,3.71-.91,1.17-.29,2.23-.56,3.16-.8.93-.24,1.62-.43,2.07-.57l.52,5.13c1.55-.59,3.04-1.2,4.46-1.84,1.42-.64,2.78-1.34,4.1-2.1-.55-1.31-1.05-2.75-1.5-4.3-.45-1.56-.83-3.28-1.14-5.18l-5.75.67-.57-6.01,5.65-.67c-.07-.55-.11-1.11-.13-1.66-.02-.55-.04-1.12-.08-1.71l-3.53.36-.36-3.89c-.73,1.35-1.56,2.77-2.51,4.25-.95,1.49-1.89,2.9-2.83,4.23-.93,1.33-1.78,2.51-2.54,3.52-.76,1.02-1.33,1.74-1.71,2.15l7.72-1.87.1,6.22ZM236.27,55.67c1.83-1.28,3.51-2.6,5.03-3.97,1.52-1.37,2.88-2.72,4.09-4.07l-10.99,1.3c.24,1.35.52,2.58.83,3.71.31,1.12.66,2.13,1.04,3.03Z"/>
      <path d="M164.67,102.9c-.73.38-1.56.81-2.51,1.3-.95.48-1.88.96-2.77,1.42-.9.47-1.71.9-2.44,1.3s-1.21.67-1.45.8l-2.59-5.44c.31-.14.92-.42,1.84-.86.92-.43,1.96-.92,3.14-1.48,1.17-.55,2.38-1.12,3.6-1.71,1.23-.59,2.29-1.11,3.19-1.56v-9.9h6.07v20.68l2.49-.99h-.57v-5.24h8.66v-4.2h-10.06v-5.18h10.06v-5.18h6.33v5.18h10.06v5.18h-10.06v4.2h8.61v5.24h-19.54l1.97,3.27h18.87v5.81h-5.91l2.7,3.63c-1.07.69-2.33,1.47-3.76,2.33-1.43.86-2.81,1.69-4.12,2.49,1.8.8,4.67,1.19,8.61,1.19h3.01v5.86h-3.94c-6.05,0-10.43-1.05-13.14-3.14s-4.07-5.24-4.07-9.46v-2.9h-8.14c-.07,1.07-.17,2-.31,2.8h4.67v4.92c0,.93.24,1.71.73,2.33.48.62,1.45,1.23,2.9,1.81l-3.01,5.75c-2.52-.86-4.33-1.94-5.42-3.21-1.09-1.28-1.63-2.83-1.63-4.67v-2.18c-1.17,1.76-2.79,3.04-4.85,3.84-2.06.79-4.55,1.19-7.49,1.19h-1.71v-6.07h1.97c2.49,0,4.35-.47,5.57-1.4,1.23-.93,1.89-2.64,2-5.13h-8.81v-5.81h18.3c-.24-.42-.47-.79-.67-1.14-.21-.35-.36-.62-.47-.83h-5.86v-4.87ZM160.37,98.03c-.52-.59-1.09-1.2-1.71-1.84s-1.23-1.27-1.81-1.89c-.59-.62-1.15-1.21-1.68-1.76-.54-.55-1.01-1.02-1.43-1.4l3.78-3.53c.42.31.93.74,1.56,1.27.62.54,1.25,1.12,1.89,1.76s1.26,1.27,1.87,1.89,1.12,1.16,1.53,1.61l-3.99,3.89ZM183.23,119.65c1.21-.69,2.33-1.38,3.37-2.07s2-1.37,2.9-2.02h-6.38v3.27c0,.28.03.55.1.83Z"/>
      <path d="M209.93,103.26v9.28c0,2.18-.06,4.1-.18,5.75s-.38,3.03-.78,4.12c-.4,1.09-.95,1.91-1.66,2.46-.71.55-1.63.83-2.77.83h-.98v-6.01h.67c.14,0,.26-.08.36-.23s.19-.49.26-1.01c.07-.52.11-1.24.13-2.18.02-.93.03-2.18.03-3.73v-9.28h4.92ZM230.77,87.14v1.76h8.76c1.17,0,2.14.1,2.9.31.76.21,1.37.55,1.84,1.04s.79,1.13.99,1.94c.19.81.29,1.82.29,3.03v27.73c0,.9.17,1.54.52,1.92.34.38,1.02.57,2.02.57h2.85v6.79h-5.34c-2.21,0-3.84-.56-4.87-1.69-1.04-1.12-1.56-2.93-1.56-5.42v-29.6h-8.4v17.89c0,3.7-.16,6.76-.47,9.18-.31,2.42-.82,4.34-1.53,5.75-.71,1.42-1.64,2.42-2.8,3.01-1.16.59-2.57.88-4.23.88h-2.8v-6.79h1.97c.62,0,1.15-.17,1.58-.52.43-.35.78-1,1.04-1.97.26-.97.45-2.31.57-4.02.12-1.71.18-3.93.18-6.66v-1.71l-4.2,3.78-3.06-3.68v20.94h-6.38v-31.05h-6.07v-6.22h6.07v-7.98h6.38v7.98h5.7v6.22h-5.7v4.41l1.35-1.19c.38.38.83.85,1.35,1.4.52.55,1.05,1.13,1.61,1.74.55.6,1.09,1.2,1.61,1.79.52.59.97,1.11,1.35,1.56v-23.12h6.48Z"/>
    </g>
  </g>
</svg>