<?xml version="1.0" encoding="UTF-8"?>
<svg id="_图层_2" data-name="图层 2" xmlns="http://www.w3.org/2000/svg" xmlns:xlink="http://www.w3.org/1999/xlink" viewBox="0 0 270 170">
  <defs>
    <style>
      .cls-1 {
        fill: url(#_未命名的渐变_5);
      }

      .cls-2 {
        fill: #a1fc88;
      }

      .cls-3 {
        fill: url(#_未命名的渐变_20);
      }

      .cls-4 {
        fill: #95ff98;
      }
    </style>
    <radialGradient id="_未命名的渐变_20" data-name="未命名的渐变 20" cx="118.01" cy="81.22" fx="118.01" fy="81.22" r="93.9" gradientUnits="userSpaceOnUse">
      <stop offset="0" stop-color="#243855"/>
      <stop offset=".67" stop-color="#090e33"/>
      <stop offset="1" stop-color="#04072c"/>
    </radialGradient>
    <linearGradient id="_未命名的渐变_5" data-name="未命名的渐变 5" x1="104.15" y1="29.45" x2="169.89" y2="140.26" gradientUnits="userSpaceOnUse">
      <stop offset="0" stop-color="#15f7fe"/>
      <stop offset="1" stop-color="#a2fd87"/>
    </linearGradient>
  </defs>
  <g id="_图层_1-2" data-name="图层 1">
    <rect class="cls-3" width="270" height="170"/>
    <g>
      <path class="cls-1" d="M156.5,32.69h-50.09c-7.39,0-13.44,6.05-13.44,13.44v.03c0,7.39,6.05,13.44,13.44,13.44h26.55c1.31,0,2.19,1.36,1.65,2.55l-27.45,60.57c-.81,1.79-1.2,3.68-1.19,5.54,0,.18.15.33.33.33,0,0,.01,0,.02,0,3.28,0,5.95,2.66,5.95,5.95,0,1.45-.52,2.79-1.39,3.82-.08.1-.07.25.03.34.88.72,1.87,1.35,2.96,1.84h0c6.74,3.05,14.75.04,17.8-6.7l35.86-79.14c.3-.66.54-1.34.73-2.02,1.08-1.93,1.69-4.15,1.69-6.51v-.03c0-7.39-6.05-13.44-13.44-13.44ZM106.31,55.5c-5.3,0-9.6-4.3-9.6-9.6s4.3-9.6,9.6-9.6,9.6,4.3,9.6,9.6-4.3,9.6-9.6,9.6Z"/>
      <rect class="cls-4" x="144.96" y="115.79" width="4.39" height="24.99" rx="2.2" ry="2.2" transform="translate(65.75 -49.15) rotate(24.27)"/>
      <rect class="cls-2" x="155.26" y="124.9" width="4.39" height="15.27" rx="2.2" ry="2.2" transform="translate(68.41 -53.01) rotate(24.27)"/>
    </g>
  </g>
</svg>