<?xml version="1.0" encoding="UTF-8" ?>
<!DOCTYPE svg PUBLIC "-//W3C//DTD SVG 1.1//EN" "http://www.w3.org/Graphics/SVG/1.1/DTD/svg11.dtd">
<svg width="270pt" height="170pt" viewBox="0 0 270 170" version="1.1" xmlns="http://www.w3.org/2000/svg">
<g id="#ffd600ff">
<path fill="#ffd600" opacity="1.00" d=" M 0.00 0.00 L 270.00 0.00 L 270.00 170.00 L 0.00 170.00 L 0.00 0.00 M 60.32 71.94 C 60.31 72.52 60.29 73.68 60.28 74.26 C 55.07 74.50 49.78 73.76 44.63 74.66 C 40.48 75.85 40.43 80.74 40.61 84.26 C 42.99 84.26 45.37 84.26 47.75 84.26 C 48.18 82.32 46.78 79.30 48.94 78.17 C 55.62 77.88 62.32 78.15 69.00 78.06 C 72.75 78.15 76.57 77.66 80.25 78.62 C 80.21 80.50 80.19 82.38 80.17 84.26 C 82.55 84.26 84.93 84.26 87.31 84.25 C 87.17 81.76 87.60 79.01 86.22 76.77 C 85.09 75.07 82.99 74.31 81.01 74.29 C 76.73 74.17 72.44 74.30 68.15 74.28 C 68.14 73.69 68.12 72.52 68.11 71.94 C 65.51 71.94 62.92 71.94 60.32 71.94 M 94.00 71.94 C 92.09 76.64 90.19 81.34 88.32 86.05 C 89.81 86.06 91.31 86.07 92.80 86.07 C 92.78 94.28 92.84 102.49 92.76 110.69 C 94.98 110.72 97.19 110.74 99.41 110.77 C 99.34 100.69 99.37 90.61 99.39 80.53 C 98.88 80.53 97.85 80.54 97.33 80.54 C 98.51 77.69 99.63 74.82 100.72 71.94 C 98.48 71.94 96.24 71.94 94.00 71.94 M 114.92 71.94 C 114.91 72.70 114.91 74.24 114.91 75.00 C 110.70 75.00 106.50 75.00 102.30 75.01 C 102.30 76.33 102.30 77.66 102.30 78.99 C 106.50 79.00 110.71 79.00 114.91 79.00 C 114.90 85.53 114.93 92.05 114.89 98.57 C 113.96 98.56 112.11 98.52 111.18 98.50 C 111.18 99.39 111.19 101.18 111.20 102.07 C 112.13 102.07 113.98 102.07 114.91 102.07 C 114.91 104.95 114.91 107.84 114.90 110.73 C 117.22 110.73 119.55 110.74 121.87 110.75 C 121.86 107.87 121.86 105.00 121.85 102.12 C 122.77 102.10 124.61 102.06 125.52 102.04 C 125.54 101.17 125.57 99.42 125.58 98.54 C 124.34 98.52 123.09 98.50 121.85 98.48 C 121.87 92.00 121.86 85.52 121.86 79.04 C 126.03 78.98 130.20 79.00 134.37 79.00 C 134.37 77.67 134.37 76.33 134.37 75.00 C 130.20 75.00 126.03 75.02 121.86 74.96 C 121.86 74.20 121.86 72.69 121.86 71.93 C 119.54 71.94 117.23 71.94 114.92 71.94 M 140.53 71.93 C 140.51 73.21 140.50 74.48 140.49 75.75 C 146.30 75.72 152.10 75.74 157.91 75.74 C 157.91 78.67 157.91 81.60 157.91 84.54 C 151.53 84.55 145.15 84.54 138.77 84.55 C 138.78 85.47 138.80 87.33 138.81 88.26 C 144.43 88.25 150.05 88.27 155.67 88.24 C 151.48 93.84 147.33 99.47 143.15 105.07 C 142.41 106.20 141.27 106.92 140.01 107.36 C 139.35 108.54 138.71 109.72 138.07 110.92 C 141.50 110.67 146.05 112.34 148.35 108.90 C 152.85 103.45 156.93 97.64 161.67 92.39 C 166.32 98.38 170.96 104.40 175.80 110.23 C 178.48 111.81 181.96 110.73 184.97 110.93 C 184.27 109.75 183.58 108.57 182.87 107.41 C 181.68 106.89 180.52 106.25 179.81 105.12 C 175.63 99.49 171.42 93.87 167.21 88.26 C 172.85 88.25 178.49 88.26 184.12 88.26 C 184.13 87.33 184.14 85.47 184.14 84.55 C 177.85 84.44 171.54 84.76 165.25 84.42 C 164.34 81.85 165.07 78.57 164.87 75.74 C 170.63 75.73 176.38 75.73 182.14 75.74 C 182.13 74.47 182.13 73.21 182.12 71.94 C 168.26 71.93 154.39 71.95 140.53 71.93 M 185.56 71.93 C 185.52 72.87 185.46 74.76 185.43 75.70 C 190.26 75.76 195.08 75.73 199.91 75.73 C 199.91 87.31 199.91 98.88 199.90 110.45 C 202.20 110.45 204.50 110.46 206.80 110.47 C 206.78 98.89 206.79 87.32 206.79 75.74 C 214.49 75.74 222.18 75.72 229.88 75.75 C 229.87 74.48 229.86 73.21 229.86 71.93 C 215.09 71.94 200.32 71.94 185.56 71.93 M 104.70 80.96 C 104.47 89.46 103.93 97.95 103.77 106.46 C 101.66 107.11 100.93 109.23 99.98 110.97 C 103.30 110.82 109.58 112.24 109.96 107.34 C 110.53 98.55 110.68 89.73 110.94 80.93 C 108.86 80.94 106.78 80.94 104.70 80.96 M 125.76 80.94 C 126.25 89.90 126.38 98.89 126.99 107.83 C 127.97 112.30 133.70 110.33 136.96 110.74 C 135.94 109.13 135.12 107.17 133.14 106.53 C 132.72 98.01 132.43 89.47 132.14 80.94 C 130.01 80.94 127.88 80.94 125.76 80.94 M 49.78 81.54 C 49.79 82.47 49.80 84.33 49.81 85.26 C 55.83 85.26 61.85 85.26 67.88 85.25 C 65.83 87.74 63.76 90.22 61.71 92.70 C 55.26 92.78 48.81 92.74 42.35 92.72 C 42.28 93.97 42.20 95.22 42.13 96.47 C 48.63 96.43 55.14 96.47 61.64 96.45 C 61.67 99.95 61.90 103.49 61.25 106.95 C 58.56 106.99 55.87 107.00 53.18 107.03 C 52.51 108.35 51.84 109.67 51.16 110.99 C 56.09 110.63 61.41 111.97 66.06 109.94 C 70.43 106.89 68.32 100.91 68.77 96.47 C 74.27 96.44 79.78 96.45 85.28 96.46 C 85.27 95.53 85.25 93.67 85.24 92.74 C 80.11 92.74 74.99 92.77 69.86 92.71 C 73.03 88.97 76.05 85.10 79.36 81.48 C 69.50 81.63 59.64 81.51 49.78 81.54 M 209.10 86.63 C 211.95 90.22 214.59 93.98 217.56 97.48 C 218.85 98.89 220.14 100.55 222.10 100.99 C 223.86 100.92 225.42 99.98 227.06 99.42 C 223.26 94.25 219.23 89.26 215.41 84.11 C 213.30 84.94 211.20 85.79 209.10 86.63 Z" />
</g>
<g id="#000000ff">
<path fill="#000000" opacity="1.00" d=" M 60.32 71.94 C 62.92 71.94 65.51 71.94 68.11 71.94 C 68.12 72.52 68.14 73.69 68.15 74.28 C 72.44 74.30 76.73 74.17 81.01 74.29 C 82.99 74.31 85.09 75.07 86.22 76.77 C 87.60 79.01 87.17 81.76 87.31 84.25 C 84.93 84.26 82.55 84.26 80.17 84.26 C 80.19 82.38 80.21 80.50 80.25 78.62 C 76.57 77.66 72.75 78.15 69.00 78.06 C 62.32 78.15 55.62 77.88 48.94 78.17 C 46.78 79.30 48.18 82.32 47.75 84.26 C 45.37 84.26 42.99 84.26 40.61 84.26 C 40.43 80.74 40.48 75.85 44.63 74.66 C 49.78 73.76 55.07 74.50 60.28 74.26 C 60.29 73.68 60.31 72.52 60.32 71.94 Z" />
<path fill="#000000" opacity="1.00" d=" M 94.00 71.94 C 96.24 71.94 98.48 71.94 100.72 71.94 C 99.63 74.82 98.51 77.69 97.33 80.54 C 97.85 80.54 98.88 80.53 99.39 80.53 C 99.37 90.61 99.34 100.69 99.41 110.77 C 97.19 110.74 94.98 110.72 92.76 110.69 C 92.84 102.49 92.78 94.28 92.80 86.07 C 91.31 86.07 89.81 86.06 88.32 86.05 C 90.19 81.34 92.09 76.64 94.00 71.94 Z" />
<path fill="#000000" opacity="1.00" d=" M 114.92 71.94 C 117.23 71.94 119.54 71.94 121.86 71.93 C 121.86 72.69 121.86 74.20 121.86 74.96 C 126.03 75.02 130.20 75.00 134.37 75.00 C 134.37 76.33 134.37 77.67 134.37 79.00 C 130.20 79.00 126.03 78.98 121.86 79.04 C 121.86 85.52 121.87 92.00 121.85 98.48 C 123.09 98.50 124.34 98.52 125.58 98.54 C 125.57 99.42 125.54 101.17 125.52 102.04 C 124.61 102.06 122.77 102.10 121.85 102.12 C 121.86 105.00 121.86 107.87 121.87 110.75 C 119.55 110.74 117.22 110.73 114.90 110.73 C 114.91 107.84 114.91 104.95 114.91 102.07 C 113.98 102.07 112.13 102.07 111.20 102.07 C 111.19 101.18 111.18 99.39 111.18 98.50 C 112.11 98.52 113.96 98.56 114.89 98.57 C 114.93 92.05 114.90 85.53 114.91 79.00 C 110.71 79.00 106.50 79.00 102.30 78.99 C 102.30 77.66 102.30 76.33 102.30 75.01 C 106.50 75.00 110.70 75.00 114.91 75.00 C 114.91 74.24 114.91 72.70 114.92 71.94 Z" />
<path fill="#000000" opacity="1.00" d=" M 140.53 71.93 C 154.39 71.95 168.26 71.93 182.12 71.94 C 182.13 73.21 182.13 74.47 182.14 75.74 C 176.38 75.73 170.63 75.73 164.87 75.74 C 165.07 78.57 164.34 81.85 165.25 84.42 C 171.54 84.76 177.85 84.44 184.14 84.55 C 184.14 85.47 184.13 87.33 184.12 88.26 C 178.49 88.26 172.85 88.25 167.21 88.26 C 171.42 93.87 175.63 99.49 179.81 105.12 C 180.52 106.25 181.68 106.89 182.87 107.41 C 183.58 108.57 184.27 109.75 184.97 110.93 C 181.96 110.73 178.48 111.81 175.80 110.23 C 170.96 104.40 166.32 98.38 161.67 92.39 C 156.93 97.64 152.85 103.45 148.35 108.90 C 146.05 112.34 141.50 110.67 138.07 110.92 C 138.71 109.72 139.35 108.54 140.01 107.36 C 141.27 106.92 142.41 106.20 143.15 105.07 C 147.33 99.47 151.48 93.84 155.67 88.24 C 150.05 88.27 144.43 88.25 138.81 88.26 C 138.80 87.33 138.78 85.47 138.77 84.55 C 145.15 84.54 151.53 84.55 157.91 84.54 C 157.91 81.60 157.91 78.67 157.91 75.74 C 152.10 75.74 146.30 75.72 140.49 75.75 C 140.50 74.48 140.51 73.21 140.53 71.93 Z" />
<path fill="#000000" opacity="1.00" d=" M 185.56 71.93 C 200.32 71.94 215.09 71.94 229.86 71.93 C 229.86 73.21 229.87 74.48 229.88 75.75 C 222.18 75.72 214.49 75.74 206.79 75.74 C 206.79 87.32 206.78 98.89 206.80 110.47 C 204.50 110.46 202.20 110.45 199.90 110.45 C 199.91 98.88 199.91 87.31 199.91 75.73 C 195.08 75.73 190.26 75.76 185.43 75.70 C 185.46 74.76 185.52 72.87 185.56 71.93 Z" />
<path fill="#000000" opacity="1.00" d=" M 104.70 80.96 C 106.78 80.94 108.86 80.94 110.94 80.93 C 110.68 89.73 110.53 98.55 109.96 107.34 C 109.58 112.24 103.30 110.82 99.98 110.97 C 100.93 109.23 101.66 107.11 103.77 106.46 C 103.93 97.95 104.47 89.46 104.70 80.96 Z" />
<path fill="#000000" opacity="1.00" d=" M 125.76 80.94 C 127.88 80.94 130.01 80.94 132.14 80.94 C 132.43 89.47 132.72 98.01 133.14 106.53 C 135.12 107.17 135.94 109.13 136.96 110.74 C 133.70 110.33 127.97 112.30 126.99 107.83 C 126.38 98.89 126.25 89.90 125.76 80.94 Z" />
<path fill="#000000" opacity="1.00" d=" M 49.78 81.54 C 59.64 81.51 69.50 81.63 79.36 81.48 C 76.05 85.10 73.03 88.97 69.86 92.71 C 74.99 92.77 80.11 92.74 85.24 92.74 C 85.25 93.67 85.27 95.53 85.28 96.46 C 79.78 96.45 74.27 96.44 68.77 96.47 C 68.32 100.91 70.43 106.89 66.06 109.94 C 61.41 111.97 56.09 110.63 51.16 110.99 C 51.84 109.67 52.51 108.35 53.18 107.03 C 55.87 107.00 58.56 106.99 61.25 106.95 C 61.90 103.49 61.67 99.95 61.64 96.45 C 55.14 96.47 48.63 96.43 42.13 96.47 C 42.20 95.22 42.28 93.97 42.35 92.72 C 48.81 92.74 55.26 92.78 61.71 92.70 C 63.76 90.22 65.83 87.74 67.88 85.25 C 61.85 85.26 55.83 85.26 49.81 85.26 C 49.80 84.33 49.79 82.47 49.78 81.54 Z" />
<path fill="#000000" opacity="1.00" d=" M 209.10 86.63 C 211.20 85.79 213.30 84.94 215.41 84.11 C 219.23 89.26 223.26 94.25 227.06 99.42 C 225.42 99.98 223.86 100.92 222.10 100.99 C 220.14 100.55 218.85 98.89 217.56 97.48 C 214.59 93.98 211.95 90.22 209.10 86.63 Z" />
</g>
</svg>
