<?xml version="1.0" encoding="UTF-8" ?>
<!DOCTYPE svg PUBLIC "-//W3C//DTD SVG 1.1//EN" "http://www.w3.org/Graphics/SVG/1.1/DTD/svg11.dtd">
<svg width="270pt" height="170pt" viewBox="0 0 270 170" version="1.1" xmlns="http://www.w3.org/2000/svg">
<g id="#ffffffff">
<path fill="#ffffff" opacity="1.00" d=" M 0.00 0.00 L 270.00 0.00 L 270.00 170.00 L 0.00 170.00 L 0.00 0.00 M 49.41 20.36 C 39.74 29.72 32.67 42.34 32.03 55.98 C 30.12 60.00 29.86 64.57 27.70 68.48 C 26.12 71.34 26.39 74.65 26.98 77.74 C 19.01 83.87 12.11 91.70 8.38 101.14 C 5.47 107.93 4.77 115.50 5.57 122.79 C 5.85 124.77 6.31 126.93 7.96 128.26 C 14.55 127.82 18.37 121.45 21.02 116.13 C 23.35 125.91 29.28 134.62 37.56 140.33 C 32.69 140.50 26.80 141.78 24.45 146.59 C 23.48 150.05 22.73 154.54 25.73 157.26 C 30.08 161.30 36.24 162.47 41.93 163.30 C 49.28 164.01 56.73 164.31 64.10 163.68 C 70.65 163.22 76.64 160.19 82.12 156.76 C 91.04 156.29 98.85 161.31 107.60 162.12 C 118.45 163.31 130.11 163.88 140.23 159.07 C 144.08 157.31 148.06 152.79 145.59 148.41 C 142.52 143.52 136.74 141.38 131.78 138.93 C 137.70 133.41 140.85 125.85 143.72 118.47 C 146.21 122.52 147.95 128.37 153.01 129.74 C 157.73 127.43 158.69 121.70 158.93 116.99 C 159.66 102.49 152.14 89.27 144.11 77.78 C 145.52 74.10 146.28 70.05 145.05 66.20 C 144.31 62.18 140.84 59.23 140.46 55.13 C 138.95 42.09 134.24 28.62 124.09 19.79 C 113.36 10.64 98.87 6.92 84.97 7.28 C 72.17 7.35 58.54 10.90 49.41 20.36 M 245.21 40.13 C 244.62 50.28 244.95 60.48 244.37 70.64 C 243.38 70.91 242.37 71.12 241.35 71.25 C 240.80 65.48 241.82 59.76 242.34 54.05 C 240.44 52.65 238.13 51.98 235.82 51.73 C 235.45 55.24 234.97 58.73 234.88 62.25 C 232.42 63.54 229.98 64.85 227.53 66.14 C 227.48 64.23 227.45 62.31 227.42 60.40 C 229.73 58.98 234.95 58.64 234.02 55.01 C 233.67 52.21 230.42 52.08 228.26 51.78 C 228.28 49.06 227.64 46.43 226.17 44.13 C 225.73 47.02 225.54 49.94 225.35 52.87 C 222.96 53.47 220.54 53.92 218.10 54.28 C 218.78 56.70 219.48 59.13 220.57 61.40 C 221.99 61.35 223.40 61.29 224.82 61.22 C 224.93 63.32 225.08 65.43 225.32 67.52 C 223.26 68.21 221.20 68.88 219.10 69.42 C 220.09 70.47 221.06 71.54 222.03 72.60 C 226.64 70.16 231.18 67.49 235.00 63.90 C 234.95 66.93 234.98 69.96 235.38 72.97 C 233.06 72.98 230.74 73.00 228.42 73.11 C 229.72 74.56 230.90 76.73 232.99 77.01 C 239.47 76.44 245.38 72.94 251.96 73.01 C 254.90 73.12 257.81 72.69 260.66 72.01 C 258.41 66.59 251.78 69.98 247.53 70.05 C 248.16 65.57 248.24 61.04 248.18 56.53 C 251.06 56.28 253.91 55.75 256.62 54.72 C 254.59 51.81 251.04 53.32 248.30 54.06 C 248.04 49.33 249.70 43.40 245.21 40.13 M 177.83 44.66 C 176.17 43.98 174.49 43.38 172.79 42.82 C 171.88 49.18 172.49 55.62 172.03 62.01 C 171.95 65.33 171.47 68.67 171.80 71.99 C 172.69 74.72 175.99 73.79 178.15 74.11 C 178.34 71.62 178.38 69.11 178.35 66.62 C 178.97 66.71 180.20 66.89 180.82 66.98 C 182.09 66.02 183.32 65.01 184.51 63.95 C 185.64 64.56 186.77 65.16 187.92 65.74 C 187.80 63.70 187.02 61.85 186.11 60.06 C 187.89 56.66 189.10 52.90 187.84 49.08 C 186.06 51.84 185.31 55.06 184.19 58.10 C 182.72 56.99 181.24 55.89 179.73 54.86 C 180.64 57.05 181.83 59.12 182.74 61.31 C 182.06 63.24 180.70 64.83 179.81 66.65 C 179.44 66.03 179.08 65.39 178.73 64.76 C 179.15 58.86 179.07 52.94 179.68 47.06 C 185.66 45.30 191.94 45.18 198.08 44.42 C 199.97 44.54 201.95 45.10 203.49 46.24 C 204.98 54.08 203.89 62.10 203.40 69.98 C 203.35 73.37 199.09 73.04 196.73 72.87 C 198.81 73.87 200.90 74.89 203.13 75.52 C 205.44 74.85 205.52 72.05 205.87 70.10 C 206.37 63.77 206.36 57.40 206.26 51.05 C 206.12 48.37 206.06 45.00 203.47 43.42 C 199.98 41.43 195.79 41.96 191.96 42.10 C 187.23 42.84 182.38 43.07 177.83 44.66 M 197.56 47.16 C 196.78 50.16 196.12 53.18 195.30 56.16 C 193.47 54.28 191.63 52.39 189.58 50.73 C 190.52 53.87 192.13 56.74 193.82 59.54 C 192.39 62.56 190.12 65.03 187.75 67.33 C 191.12 66.86 193.92 64.92 195.59 61.97 C 196.65 64.02 197.94 65.96 199.82 67.36 C 201.27 63.79 199.04 60.71 196.96 58.03 C 198.00 54.48 199.58 50.69 197.56 47.16 M 191.92 99.47 C 191.86 100.74 191.80 102.01 191.75 103.28 C 188.65 103.87 185.65 104.84 182.69 105.93 C 183.93 107.83 184.62 110.53 187.03 111.31 C 189.10 111.26 191.06 110.42 193.14 110.28 C 189.88 113.13 185.31 113.54 181.45 115.23 C 182.00 112.56 181.87 109.21 178.81 108.19 C 174.75 108.25 171.34 110.74 167.74 112.30 C 171.72 114.30 175.44 111.18 179.30 110.50 C 179.03 115.16 175.15 118.50 174.49 122.99 C 175.73 126.26 177.42 129.49 176.70 133.13 C 174.41 132.21 172.12 131.26 169.72 130.67 C 171.21 132.61 172.87 134.41 174.74 135.98 C 172.63 137.84 170.41 139.59 168.05 141.12 C 171.85 141.04 175.87 140.42 178.77 137.72 C 186.28 141.63 194.55 144.76 203.17 144.02 C 205.32 141.83 207.15 139.23 210.08 137.99 C 205.00 137.92 199.92 138.18 194.86 137.88 C 189.87 137.14 185.01 135.82 180.15 134.51 C 180.73 130.29 179.08 126.23 176.25 123.15 C 178.16 121.07 179.76 118.74 181.12 116.26 C 181.67 116.41 182.78 116.72 183.33 116.87 C 186.43 115.95 189.55 115.08 192.73 114.42 C 191.98 118.12 187.47 117.44 184.79 118.64 C 186.95 120.20 189.52 120.40 192.11 120.32 C 191.53 123.01 187.54 122.36 185.54 123.50 C 187.90 124.26 190.30 124.92 192.61 125.84 C 189.11 127.20 185.45 128.05 181.91 129.25 C 184.64 131.70 188.33 131.14 191.52 130.03 C 191.34 132.83 190.50 136.99 194.33 137.65 C 194.82 134.87 195.17 132.06 195.40 129.25 C 198.20 128.32 201.34 128.36 203.94 126.92 C 201.22 124.51 197.61 125.50 194.37 125.19 C 196.16 124.21 198.02 123.35 199.73 122.23 C 198.20 121.61 196.64 121.06 195.08 120.54 C 195.15 120.08 195.30 119.14 195.37 118.68 C 197.43 118.05 199.48 117.33 201.38 116.30 C 199.54 114.06 197.36 114.68 195.21 115.80 C 195.21 115.14 195.23 113.81 195.24 113.15 C 196.72 113.19 198.21 113.30 199.59 113.93 C 201.64 111.34 205.01 111.27 208.02 110.92 C 206.22 109.33 203.91 108.85 201.59 108.87 C 201.71 104.98 198.38 102.45 194.66 102.82 C 194.32 101.24 193.59 99.91 191.92 99.47 M 224.29 102.88 C 226.26 105.69 229.23 108.22 232.95 107.14 C 232.72 102.84 227.83 100.67 224.29 102.88 M 253.43 107.07 C 251.52 114.09 249.88 121.21 247.09 127.95 C 243.25 125.01 238.90 122.91 234.85 120.30 C 236.42 125.44 241.00 128.41 245.03 131.52 C 242.90 134.58 240.11 137.41 236.23 137.95 C 236.56 138.08 237.23 138.34 237.56 138.47 C 241.58 138.77 245.13 136.64 247.92 133.94 C 251.61 136.59 255.08 139.64 259.30 141.45 C 259.77 140.30 260.19 139.14 260.54 137.95 C 258.82 133.62 254.09 131.88 250.48 129.47 C 252.52 123.45 254.53 117.34 255.07 110.98 C 255.25 109.47 254.03 108.33 253.43 107.07 M 217.03 114.67 C 218.26 116.25 219.54 117.79 220.90 119.27 C 223.62 118.10 226.25 116.70 228.80 115.19 C 227.07 122.28 226.24 129.55 226.25 136.84 C 226.75 137.97 227.38 140.07 229.09 139.38 C 232.14 138.38 233.96 135.54 235.38 132.85 C 233.15 134.25 230.88 135.58 228.45 136.60 C 229.05 129.68 229.48 122.72 231.12 115.95 C 231.85 113.48 231.87 110.77 229.90 108.86 C 225.28 109.96 220.89 111.92 217.03 114.67 M 238.91 109.64 C 240.05 113.25 241.30 117.46 245.26 118.90 C 245.20 117.01 245.65 115.03 245.02 113.21 C 243.65 111.11 241.17 110.35 238.91 109.64 Z" />
<path fill="#ffffff" opacity="1.00" d=" M 70.28 30.37 C 73.32 28.55 77.17 30.17 79.05 32.87 C 83.65 39.42 83.59 49.17 78.30 55.31 C 75.98 58.04 71.53 58.52 68.89 55.97 C 64.74 52.32 63.78 46.32 64.34 41.07 C 64.77 36.97 66.54 32.51 70.28 30.37 M 77.17 38.08 C 73.28 39.84 73.13 46.24 76.10 48.91 C 78.55 51.24 81.01 47.27 81.18 45.03 C 81.57 42.44 80.45 37.61 77.17 38.08 Z" />
<path fill="#ffffff" opacity="1.00" d=" M 96.39 30.33 C 99.92 28.03 104.42 30.34 106.30 33.67 C 110.17 40.19 110.05 49.22 105.28 55.25 C 102.85 58.49 97.77 59.36 94.93 56.14 C 88.22 49.40 88.47 36.02 96.39 30.33 M 94.63 38.65 C 91.57 41.69 91.96 47.81 96.03 49.81 C 99.97 48.86 100.47 43.89 99.30 40.68 C 98.75 38.85 96.31 36.92 94.63 38.65 Z" />
<path fill="#ffffff" opacity="1.00" d=" M 40.61 135.53 C 29.88 123.61 28.94 104.42 37.60 91.12 C 40.41 92.76 43.20 94.42 45.99 96.08 C 44.63 102.96 44.25 110.06 45.02 117.03 C 46.11 122.41 51.94 125.36 57.06 125.35 C 60.58 125.22 65.02 126.03 67.43 122.79 C 69.83 116.73 68.06 109.97 68.13 103.63 C 83.69 107.54 100.50 105.89 115.16 99.44 C 120.25 97.34 125.05 94.65 129.74 91.78 C 133.96 98.06 137.48 105.26 137.35 113.00 C 137.83 123.36 132.50 133.23 125.01 140.10 C 117.30 147.37 107.60 152.69 97.17 154.79 C 92.16 155.87 87.03 155.03 81.99 154.74 C 66.66 153.21 50.62 147.88 40.61 135.53 M 119.85 114.26 C 118.91 112.15 118.70 109.20 116.03 108.54 C 113.39 109.52 109.81 113.65 113.02 115.93 C 115.76 116.42 118.77 117.19 121.40 115.88 C 123.61 116.28 125.86 116.48 128.07 116.88 C 126.98 116.14 125.95 115.33 124.96 114.46 C 124.34 114.46 123.10 114.46 122.49 114.46 C 122.88 113.22 123.42 112.03 123.92 110.84 C 125.09 112.27 125.94 114.07 127.89 114.68 C 127.63 112.39 127.52 109.31 124.76 108.70 C 121.96 109.04 120.70 111.95 119.85 114.26 Z" />
<path fill="#ffffff" opacity="1.00" d=" M 194.35 110.68 C 195.48 108.81 197.80 107.04 199.64 109.23 C 197.90 109.81 196.14 110.30 194.35 110.68 Z" />
<path fill="#ffffff" opacity="1.00" d=" M 113.94 114.55 C 114.45 113.20 115.15 111.92 115.83 110.65 C 116.18 111.26 116.88 112.46 117.23 113.07 C 118.07 113.57 118.69 114.25 119.06 115.10 C 118.83 116.81 116.96 114.66 116.37 114.51 C 115.76 114.52 114.55 114.54 113.94 114.55 Z" />
</g>
<g id="#141517ff">
<path fill="#141517" opacity="1.00" d=" M 49.41 20.36 C 58.54 10.90 72.17 7.35 84.97 7.28 C 98.87 6.92 113.36 10.64 124.09 19.79 C 134.24 28.62 138.95 42.09 140.46 55.13 C 140.84 59.23 144.31 62.18 145.05 66.20 C 146.28 70.05 145.52 74.10 144.11 77.78 C 152.14 89.27 159.66 102.49 158.93 116.99 C 158.69 121.70 157.73 127.43 153.01 129.74 C 147.95 128.37 146.21 122.52 143.72 118.47 C 140.85 125.85 137.70 133.41 131.78 138.93 C 136.74 141.38 142.52 143.52 145.59 148.41 C 148.06 152.79 144.08 157.31 140.23 159.07 C 130.11 163.88 118.45 163.31 107.60 162.12 C 98.85 161.31 91.04 156.29 82.12 156.76 C 76.64 160.19 70.65 163.22 64.10 163.68 C 56.73 164.31 49.28 164.01 41.93 163.30 C 36.24 162.47 30.08 161.30 25.73 157.26 C 22.73 154.54 23.48 150.05 24.45 146.59 C 26.80 141.78 32.69 140.50 37.56 140.33 C 29.28 134.62 23.35 125.91 21.02 116.13 C 18.37 121.45 14.55 127.82 7.96 128.26 C 6.31 126.93 5.85 124.77 5.57 122.79 C 4.77 115.50 5.47 107.93 8.38 101.14 C 12.11 91.70 19.01 83.87 26.98 77.74 C 26.39 74.65 26.12 71.34 27.70 68.48 C 29.86 64.57 30.12 60.00 32.03 55.98 C 32.67 42.34 39.74 29.72 49.41 20.36 M 70.28 30.37 C 66.54 32.51 64.77 36.97 64.34 41.07 C 63.78 46.32 64.74 52.32 68.89 55.97 C 71.53 58.52 75.98 58.04 78.30 55.31 C 83.59 49.17 83.65 39.42 79.05 32.87 C 77.17 30.17 73.32 28.55 70.28 30.37 M 96.39 30.33 C 88.47 36.02 88.22 49.40 94.93 56.14 C 97.77 59.36 102.85 58.49 105.28 55.25 C 110.05 49.22 110.17 40.19 106.30 33.67 C 104.42 30.34 99.92 28.03 96.39 30.33 M 62.10 61.28 C 57.94 62.87 53.40 64.46 50.48 67.99 C 53.39 71.51 58.35 71.95 62.41 73.42 C 61.55 71.95 60.67 70.48 59.81 69.01 C 67.71 74.67 77.13 78.83 87.04 78.35 C 96.69 78.23 105.66 74.07 113.56 68.82 C 112.21 70.44 110.76 71.96 109.38 73.55 C 114.17 72.86 118.79 71.00 122.36 67.67 C 117.42 63.56 111.34 61.16 105.17 59.62 C 91.01 56.27 75.95 56.85 62.10 61.28 M 31.31 63.62 C 31.41 67.11 31.52 70.73 33.07 73.93 C 34.95 77.86 37.71 81.28 39.81 85.09 C 34.24 81.59 30.78 75.77 28.83 69.62 C 27.80 72.82 26.48 76.52 28.42 79.67 C 32.87 88.22 42.12 92.49 50.41 96.47 C 48.06 103.67 45.88 111.89 48.74 119.23 C 53.12 124.73 61.27 123.03 67.43 122.79 C 65.02 126.03 60.58 125.22 57.06 125.35 C 51.94 125.36 46.11 122.41 45.02 117.03 C 44.25 110.06 44.63 102.96 45.99 96.08 C 43.20 94.42 40.41 92.76 37.60 91.12 C 28.94 104.42 29.88 123.61 40.61 135.53 C 50.62 147.88 66.66 153.21 81.99 154.74 C 87.03 155.03 92.16 155.87 97.17 154.79 C 107.60 152.69 117.30 147.37 125.01 140.10 C 132.50 133.23 137.83 123.36 137.35 113.00 C 137.48 105.26 133.96 98.06 129.74 91.78 C 125.05 94.65 120.25 97.34 115.16 99.44 C 100.50 105.89 83.69 107.54 68.13 103.63 C 66.51 103.20 64.88 102.80 63.25 102.41 C 63.16 106.06 63.39 109.70 63.41 113.34 C 61.65 109.72 61.68 105.65 61.20 101.74 C 57.66 100.16 53.87 99.10 50.58 96.98 C 57.15 98.49 63.36 101.36 70.08 102.30 C 85.21 105.38 101.15 103.40 115.24 97.16 C 122.38 93.93 129.70 90.73 135.91 85.85 C 141.91 81.17 144.34 72.95 142.63 65.63 C 140.98 67.54 140.34 70.06 139.20 72.27 C 134.71 81.46 126.78 89.62 116.53 91.92 C 120.79 88.72 125.81 86.54 129.55 82.66 C 133.53 78.93 136.39 74.15 137.96 68.94 C 132.00 74.24 125.45 79.03 117.97 81.94 C 99.60 89.74 78.56 88.96 59.73 83.22 C 48.49 79.88 38.37 73.01 31.31 63.62 M 121.83 146.83 C 113.78 151.89 104.77 155.38 95.36 156.84 C 100.20 159.36 105.59 160.55 110.99 161.10 C 120.55 162.40 130.83 161.95 139.60 157.57 C 142.72 156.05 146.18 151.83 143.49 148.49 C 140.56 146.04 136.26 147.54 132.79 146.88 C 134.77 145.63 137.02 144.99 139.28 144.47 C 136.64 142.74 133.94 141.04 130.88 140.17 C 127.61 142.02 125.00 144.81 121.83 146.83 M 25.31 148.31 C 26.47 148.15 28.78 147.85 29.94 147.69 C 27.69 149.52 25.60 151.57 24.19 154.13 C 26.51 156.48 28.99 158.84 32.20 159.89 C 42.79 163.70 54.44 163.51 65.40 161.59 C 69.72 160.91 73.94 159.30 77.16 156.26 C 64.83 154.26 52.33 151.24 41.83 144.17 C 39.73 142.98 37.72 140.65 35.06 141.43 C 31.11 142.28 26.66 144.12 25.31 148.31 Z" />
<path fill="#141517" opacity="1.00" d=" M 77.17 38.08 C 80.45 37.61 81.57 42.44 81.18 45.03 C 81.01 47.27 78.55 51.24 76.10 48.91 C 73.13 46.24 73.28 39.84 77.17 38.08 Z" />
<path fill="#141517" opacity="1.00" d=" M 94.63 38.65 C 96.31 36.92 98.75 38.85 99.30 40.68 C 100.47 43.89 99.97 48.86 96.03 49.81 C 91.96 47.81 91.57 41.69 94.63 38.65 Z" />
<path fill="#141517" opacity="1.00" d=" M 245.21 40.13 C 249.70 43.40 248.04 49.33 248.30 54.06 C 251.04 53.32 254.59 51.81 256.62 54.72 C 253.91 55.75 251.06 56.28 248.18 56.53 C 248.24 61.04 248.16 65.57 247.53 70.05 C 251.78 69.98 258.41 66.59 260.66 72.01 C 257.81 72.69 254.90 73.12 251.96 73.01 C 245.38 72.94 239.47 76.44 232.99 77.01 C 230.90 76.73 229.72 74.56 228.42 73.11 C 230.74 73.00 233.06 72.98 235.38 72.97 C 234.98 69.96 234.95 66.93 235.00 63.90 C 231.18 67.49 226.64 70.16 222.03 72.60 C 221.06 71.54 220.09 70.47 219.10 69.42 C 221.20 68.88 223.26 68.21 225.32 67.52 C 225.08 65.43 224.93 63.32 224.82 61.22 C 223.40 61.29 221.99 61.35 220.57 61.40 C 219.48 59.13 218.78 56.70 218.10 54.28 C 220.54 53.92 222.96 53.47 225.35 52.87 C 225.54 49.94 225.73 47.02 226.17 44.13 C 227.64 46.43 228.28 49.06 228.26 51.78 C 230.42 52.08 233.67 52.21 234.02 55.01 C 234.95 58.64 229.73 58.98 227.42 60.40 C 227.45 62.31 227.48 64.23 227.53 66.14 C 229.98 64.85 232.42 63.54 234.88 62.25 C 234.97 58.73 235.45 55.24 235.82 51.73 C 238.13 51.98 240.44 52.65 242.34 54.05 C 241.82 59.76 240.80 65.48 241.35 71.25 C 242.37 71.12 243.38 70.91 244.37 70.64 C 244.95 60.48 244.62 50.28 245.21 40.13 Z" />
<path fill="#141517" opacity="1.00" d=" M 177.83 44.66 C 182.38 43.07 187.23 42.84 191.96 42.10 C 195.79 41.96 199.98 41.43 203.47 43.42 C 206.06 45.00 206.12 48.37 206.26 51.05 C 206.36 57.40 206.37 63.77 205.87 70.10 C 205.52 72.05 205.44 74.85 203.13 75.52 C 200.90 74.89 198.81 73.87 196.73 72.87 C 199.09 73.04 203.35 73.37 203.40 69.98 C 203.89 62.10 204.98 54.08 203.49 46.24 C 201.95 45.10 199.97 44.54 198.08 44.42 C 191.94 45.18 185.66 45.30 179.68 47.06 C 179.07 52.94 179.15 58.86 178.73 64.76 C 179.08 65.39 179.44 66.03 179.81 66.65 C 180.70 64.83 182.06 63.24 182.74 61.31 C 181.83 59.12 180.64 57.05 179.73 54.86 C 181.24 55.89 182.72 56.99 184.19 58.10 C 185.31 55.06 186.06 51.84 187.84 49.08 C 189.10 52.90 187.89 56.66 186.11 60.06 C 187.02 61.85 187.80 63.70 187.92 65.74 C 186.77 65.16 185.64 64.56 184.51 63.95 C 183.32 65.01 182.09 66.02 180.82 66.98 C 180.20 66.89 178.97 66.71 178.35 66.62 C 178.38 69.11 178.34 71.62 178.15 74.11 C 175.99 73.79 172.69 74.72 171.80 71.99 C 171.47 68.67 171.95 65.33 172.03 62.01 C 172.49 55.62 171.88 49.18 172.79 42.82 C 174.49 43.38 176.17 43.98 177.83 44.66 Z" />
<path fill="#141517" opacity="1.00" d=" M 197.56 47.16 C 199.58 50.69 198.00 54.48 196.96 58.03 C 199.04 60.71 201.27 63.79 199.82 67.36 C 197.94 65.96 196.65 64.02 195.59 61.97 C 193.92 64.92 191.12 66.86 187.75 67.33 C 190.12 65.03 192.39 62.56 193.82 59.54 C 192.13 56.74 190.52 53.87 189.58 50.73 C 191.63 52.39 193.47 54.28 195.30 56.16 C 196.12 53.18 196.78 50.16 197.56 47.16 Z" />
<path fill="#141517" opacity="1.00" d=" M 191.92 99.47 C 193.59 99.91 194.32 101.24 194.66 102.82 C 198.38 102.45 201.71 104.98 201.59 108.87 C 203.91 108.85 206.22 109.33 208.02 110.92 C 205.01 111.27 201.64 111.34 199.59 113.93 C 198.21 113.30 196.72 113.19 195.24 113.15 C 195.23 113.81 195.21 115.14 195.21 115.80 C 197.36 114.68 199.54 114.06 201.38 116.30 C 199.48 117.33 197.43 118.05 195.37 118.68 C 195.30 119.14 195.15 120.08 195.08 120.54 C 196.64 121.06 198.20 121.61 199.73 122.23 C 198.02 123.35 196.16 124.21 194.37 125.19 C 197.61 125.50 201.22 124.51 203.94 126.92 C 201.34 128.36 198.20 128.32 195.40 129.25 C 195.17 132.06 194.82 134.87 194.33 137.65 C 190.50 136.99 191.34 132.83 191.52 130.03 C 188.33 131.14 184.64 131.70 181.91 129.25 C 185.45 128.05 189.11 127.20 192.61 125.84 C 190.30 124.92 187.90 124.26 185.54 123.50 C 187.54 122.36 191.53 123.01 192.11 120.32 C 189.52 120.40 186.95 120.20 184.79 118.64 C 187.47 117.44 191.98 118.12 192.73 114.42 C 189.55 115.08 186.43 115.95 183.33 116.87 C 182.78 116.72 181.67 116.41 181.12 116.26 C 179.76 118.74 178.16 121.07 176.25 123.15 C 179.08 126.23 180.73 130.29 180.15 134.51 C 185.01 135.82 189.87 137.14 194.86 137.88 C 199.92 138.18 205.00 137.92 210.08 137.99 C 207.15 139.23 205.32 141.83 203.17 144.02 C 194.55 144.76 186.28 141.63 178.77 137.72 C 175.87 140.42 171.85 141.04 168.05 141.12 C 170.41 139.59 172.63 137.84 174.74 135.98 C 172.87 134.41 171.21 132.61 169.72 130.67 C 172.12 131.26 174.41 132.21 176.70 133.13 C 177.42 129.49 175.73 126.26 174.49 122.99 C 175.15 118.50 179.03 115.16 179.30 110.50 C 175.44 111.18 171.72 114.30 167.74 112.30 C 171.34 110.74 174.75 108.25 178.81 108.19 C 181.87 109.21 182.00 112.56 181.45 115.23 C 185.31 113.54 189.88 113.13 193.14 110.28 C 191.06 110.42 189.10 111.26 187.03 111.31 C 184.62 110.53 183.93 107.83 182.69 105.93 C 185.65 104.84 188.65 103.87 191.75 103.28 C 191.80 102.01 191.86 100.74 191.92 99.47 M 194.35 110.68 C 196.14 110.30 197.90 109.81 199.64 109.23 C 197.80 107.04 195.48 108.81 194.35 110.68 Z" />
<path fill="#141517" opacity="1.00" d=" M 224.29 102.88 C 227.83 100.67 232.72 102.84 232.95 107.14 C 229.23 108.22 226.26 105.69 224.29 102.88 Z" />
<path fill="#141517" opacity="1.00" d=" M 119.85 114.26 C 120.70 111.95 121.96 109.04 124.76 108.70 C 127.52 109.31 127.63 112.39 127.89 114.68 C 125.94 114.07 125.09 112.27 123.92 110.84 C 123.42 112.03 122.88 113.22 122.49 114.46 C 123.10 114.46 124.34 114.46 124.96 114.46 C 125.95 115.33 126.98 116.14 128.07 116.88 C 125.86 116.48 123.61 116.28 121.40 115.88 C 118.77 117.19 115.76 116.42 113.02 115.93 C 109.81 113.65 113.39 109.52 116.03 108.54 C 118.70 109.20 118.91 112.15 119.85 114.26 M 113.94 114.55 C 114.55 114.54 115.76 114.52 116.37 114.51 C 116.96 114.66 118.83 116.81 119.06 115.10 C 118.69 114.25 118.07 113.57 117.23 113.07 C 116.88 112.46 116.18 111.26 115.83 110.65 C 115.15 111.92 114.45 113.20 113.94 114.55 Z" />
<path fill="#141517" opacity="1.00" d=" M 253.43 107.07 C 254.03 108.33 255.25 109.47 255.07 110.98 C 254.53 117.34 252.52 123.45 250.48 129.47 C 254.09 131.88 258.82 133.62 260.54 137.95 C 260.19 139.14 259.77 140.30 259.30 141.45 C 255.08 139.64 251.61 136.59 247.92 133.94 C 245.13 136.64 241.58 138.77 237.56 138.47 C 237.23 138.34 236.56 138.08 236.23 137.95 C 240.11 137.41 242.90 134.58 245.03 131.52 C 241.00 128.41 236.42 125.44 234.85 120.30 C 238.90 122.91 243.25 125.01 247.09 127.95 C 249.88 121.21 251.52 114.09 253.43 107.07 Z" />
<path fill="#141517" opacity="1.00" d=" M 217.03 114.67 C 220.89 111.92 225.28 109.96 229.90 108.86 C 231.87 110.77 231.85 113.48 231.12 115.95 C 229.48 122.72 229.05 129.68 228.45 136.60 C 230.88 135.58 233.15 134.25 235.38 132.85 C 233.96 135.54 232.14 138.38 229.09 139.38 C 227.38 140.07 226.75 137.97 226.25 136.84 C 226.24 129.55 227.07 122.28 228.80 115.19 C 226.25 116.70 223.62 118.10 220.90 119.27 C 219.54 117.79 218.26 116.25 217.03 114.67 Z" />
<path fill="#141517" opacity="1.00" d=" M 238.91 109.64 C 241.17 110.35 243.65 111.11 245.02 113.21 C 245.65 115.03 245.20 117.01 245.26 118.90 C 241.30 117.46 240.05 113.25 238.91 109.64 Z" />
</g>
<g id="#eb8a2bff">
<path fill="#eb8a2b" opacity="1.00" d=" M 62.10 61.28 C 75.95 56.85 91.01 56.27 105.17 59.62 C 111.34 61.16 117.42 63.56 122.36 67.67 C 118.79 71.00 114.17 72.86 109.38 73.55 C 110.76 71.96 112.21 70.44 113.56 68.82 C 105.66 74.07 96.69 78.23 87.04 78.35 C 77.13 78.83 67.71 74.67 59.81 69.01 C 60.67 70.48 61.55 71.95 62.41 73.42 C 58.35 71.95 53.39 71.51 50.48 67.99 C 53.40 64.46 57.94 62.87 62.10 61.28 Z" />
<path fill="#eb8a2b" opacity="1.00" d=" M 121.83 146.83 C 125.00 144.81 127.61 142.02 130.88 140.17 C 133.94 141.04 136.64 142.74 139.28 144.47 C 137.02 144.99 134.77 145.63 132.79 146.88 C 136.26 147.54 140.56 146.04 143.49 148.49 C 146.18 151.83 142.72 156.05 139.60 157.57 C 130.83 161.95 120.55 162.40 110.99 161.10 C 105.59 160.55 100.20 159.36 95.36 156.84 C 104.77 155.38 113.78 151.89 121.83 146.83 Z" />
<path fill="#eb8a2b" opacity="1.00" d=" M 25.31 148.31 C 26.66 144.12 31.11 142.28 35.06 141.43 C 37.72 140.65 39.73 142.98 41.83 144.17 C 52.33 151.24 64.83 154.26 77.16 156.26 C 73.94 159.30 69.72 160.91 65.40 161.59 C 54.44 163.51 42.79 163.70 32.20 159.89 C 28.99 158.84 26.51 156.48 24.19 154.13 C 25.60 151.57 27.69 149.52 29.94 147.69 C 28.78 147.85 26.47 148.15 25.31 148.31 Z" />
</g>
<g id="#d82624ff">
<path fill="#d82624" opacity="1.00" d=" M 31.31 63.62 C 38.37 73.01 48.49 79.88 59.73 83.22 C 78.56 88.96 99.60 89.74 117.97 81.94 C 125.45 79.03 132.00 74.24 137.96 68.94 C 136.39 74.15 133.53 78.93 129.55 82.66 C 125.81 86.54 120.79 88.72 116.53 91.92 C 126.78 89.62 134.71 81.46 139.20 72.27 C 140.34 70.06 140.98 67.54 142.63 65.63 C 144.34 72.95 141.91 81.17 135.91 85.85 C 129.70 90.73 122.38 93.93 115.24 97.16 C 101.15 103.40 85.21 105.38 70.08 102.30 C 63.36 101.36 57.15 98.49 50.58 96.98 C 53.87 99.10 57.66 100.16 61.20 101.74 C 61.68 105.65 61.65 109.72 63.41 113.34 C 63.39 109.70 63.16 106.06 63.25 102.41 C 64.88 102.80 66.51 103.20 68.13 103.63 C 68.06 109.97 69.83 116.73 67.43 122.79 C 61.27 123.03 53.12 124.73 48.74 119.23 C 45.88 111.89 48.06 103.67 50.41 96.47 C 42.12 92.49 32.87 88.22 28.42 79.67 C 26.48 76.52 27.80 72.82 28.83 69.62 C 30.78 75.77 34.24 81.59 39.81 85.09 C 37.71 81.28 34.95 77.86 33.07 73.93 C 31.52 70.73 31.41 67.11 31.31 63.62 Z" />
</g>
</svg>
