<?xml version="1.0" encoding="UTF-8" ?>
<!DOCTYPE svg PUBLIC "-//W3C//DTD SVG 1.1//EN" "http://www.w3.org/Graphics/SVG/1.1/DTD/svg11.dtd">
<svg width="270pt" height="170pt" viewBox="0 0 270 170" version="1.1" xmlns="http://www.w3.org/2000/svg">
<g id="#ffffffff">
<path fill="#ffffff" opacity="1.00" d=" M 0.00 0.00 L 270.00 0.00 L 270.00 170.00 L 0.00 170.00 L 0.00 0.00 M 52.01 65.25 C 52.54 66.58 53.06 67.91 53.59 69.24 C 49.65 69.25 45.72 69.25 41.78 69.24 C 41.76 68.60 41.73 67.31 41.71 66.66 C 36.52 67.41 31.36 68.33 26.19 69.16 C 26.22 70.63 26.25 72.10 26.28 73.57 C 28.44 73.23 30.59 72.89 32.75 72.54 C 32.75 74.69 32.75 76.84 32.76 78.99 C 30.58 79.00 28.41 79.00 26.24 79.01 C 26.25 80.50 26.25 82.00 26.26 83.49 C 28.06 83.50 29.85 83.52 31.65 83.54 C 29.21 91.09 26.93 98.70 24.46 106.25 C 25.99 106.25 27.52 106.25 29.05 106.26 C 30.26 102.39 31.47 98.53 32.74 94.68 C 32.77 100.45 32.74 106.23 32.75 112.00 C 34.33 111.99 35.92 111.99 37.51 111.99 C 37.50 102.50 37.50 93.00 37.51 83.50 C 38.92 83.50 40.33 83.50 41.74 83.50 C 41.75 82.00 41.75 80.51 41.76 79.01 C 40.34 79.00 38.92 79.00 37.50 78.99 C 37.50 76.58 37.50 74.17 37.51 71.76 C 38.84 71.54 40.17 71.32 41.50 71.09 C 41.50 71.82 41.50 73.27 41.50 74.00 C 52.25 74.00 63.01 74.01 73.76 73.99 C 73.75 72.41 73.75 70.83 73.75 69.25 C 68.94 69.24 64.13 69.25 59.31 69.24 C 58.80 67.91 58.28 66.58 57.77 65.25 C 55.85 65.25 53.93 65.25 52.01 65.25 M 104.27 64.74 C 104.81 66.14 105.36 67.55 105.91 68.96 C 99.35 69.05 92.80 68.97 86.24 69.01 C 86.25 72.34 86.25 75.66 86.24 78.99 C 87.82 78.99 89.41 79.00 91.00 79.00 C 91.00 77.25 91.00 75.50 91.00 73.75 C 103.33 73.75 115.67 73.75 128.00 73.75 C 128.00 75.50 128.00 77.25 128.00 79.00 C 129.59 79.00 131.17 78.99 132.76 78.99 C 132.75 75.66 132.75 72.34 132.76 69.01 C 125.68 68.93 118.60 69.13 111.53 68.90 C 111.04 67.51 110.54 66.13 110.04 64.74 C 108.11 64.75 106.19 64.75 104.27 64.74 M 229.25 65.24 C 229.24 70.66 229.25 76.07 229.25 81.49 C 224.83 81.51 220.42 81.49 216.00 81.50 C 216.00 83.08 216.00 84.67 216.00 86.25 C 220.41 86.25 224.83 86.25 229.24 86.25 C 229.25 94.83 229.25 103.41 229.24 112.00 C 230.99 111.99 232.75 111.99 234.51 111.99 C 234.49 103.42 234.51 94.84 234.49 86.27 C 238.91 86.24 243.33 86.26 247.76 86.25 C 247.74 84.66 247.74 83.08 247.74 81.49 C 243.33 81.50 238.92 81.50 234.51 81.50 C 234.50 76.09 234.50 70.67 234.51 65.26 C 232.75 65.26 231.00 65.25 229.25 65.24 M 165.09 66.22 C 164.75 71.80 163.22 77.23 160.78 82.25 C 162.61 82.25 164.44 82.25 166.27 82.26 C 167.82 78.50 168.88 74.57 169.46 70.54 C 172.89 70.48 176.31 70.50 179.74 70.50 C 179.75 74.42 179.75 78.33 179.75 82.25 C 183.25 82.25 186.75 82.25 190.25 82.25 C 190.25 80.75 190.25 79.25 190.25 77.75 C 188.33 77.75 186.41 77.74 184.50 77.74 C 184.50 73.90 184.48 70.06 184.53 66.22 C 178.05 66.26 171.57 66.27 165.09 66.22 M 146.95 66.48 C 148.42 70.08 149.89 73.69 151.41 77.27 C 153.38 77.25 155.35 77.25 157.33 77.24 C 155.92 73.63 154.43 70.06 152.93 66.50 C 150.93 66.50 148.94 66.49 146.95 66.48 M 203.07 66.54 C 204.48 70.10 206.03 73.61 207.38 77.19 C 209.39 77.25 211.39 77.25 213.40 77.24 C 212.00 73.63 210.47 70.08 209.03 66.49 C 207.04 66.50 205.05 66.51 203.07 66.54 M 49.25 77.50 C 49.25 80.58 49.25 83.67 49.24 86.75 C 46.66 86.75 44.08 86.75 41.50 86.75 C 41.48 95.07 41.53 103.39 41.48 111.72 C 43.07 111.73 44.66 111.75 46.25 111.77 C 46.26 105.01 46.23 98.25 46.27 91.49 C 47.01 91.49 48.50 91.51 49.24 91.51 C 49.25 96.59 49.24 101.67 49.25 106.75 C 54.83 106.76 60.41 106.75 65.99 106.76 C 66.01 101.67 65.99 96.59 66.00 91.50 C 66.75 91.50 68.25 91.50 69.00 91.50 C 69.00 98.34 69.00 105.17 69.00 112.00 C 70.59 112.00 72.17 111.99 73.76 111.99 C 73.74 103.58 73.76 95.17 73.75 86.75 C 71.17 86.75 68.59 86.75 66.01 86.76 C 66.00 83.67 65.99 80.58 66.00 77.50 C 60.42 77.50 54.83 77.50 49.25 77.50 M 92.01 80.24 C 92.01 81.83 92.00 83.41 92.00 85.00 C 96.91 85.00 101.83 84.99 106.75 85.01 C 106.74 91.60 106.76 98.19 106.74 104.78 C 102.73 102.88 98.75 100.43 96.26 96.66 C 95.77 94.33 96.65 91.89 96.58 89.51 C 95.08 89.50 93.59 89.49 92.10 89.49 C 91.74 96.43 90.07 103.72 85.32 109.04 C 86.56 110.02 87.79 111.01 89.03 112.01 C 91.33 109.11 93.25 105.89 94.31 102.33 C 99.08 106.93 105.21 110.12 111.79 111.09 C 118.92 111.93 126.14 112.06 133.31 111.90 C 133.28 110.35 133.25 108.80 133.23 107.25 C 125.98 107.20 118.69 107.24 111.50 106.20 C 111.50 102.88 111.50 99.56 111.51 96.25 C 116.84 96.26 122.17 96.25 127.50 96.25 C 127.49 94.75 127.49 93.25 127.50 91.75 C 122.17 91.75 116.84 91.74 111.51 91.75 C 111.50 89.50 111.50 87.25 111.50 85.00 C 116.83 85.00 122.17 85.00 127.50 85.00 C 127.50 83.42 127.50 81.84 127.51 80.26 C 115.68 80.22 103.84 80.26 92.01 80.24 M 141.01 81.24 C 141.01 82.82 141.00 84.41 141.00 86.00 C 143.41 86.00 145.83 86.00 148.25 86.00 C 148.25 94.38 148.23 102.76 148.26 111.13 C 152.16 109.06 156.07 107.00 160.00 104.99 C 160.00 103.15 160.00 101.32 159.99 99.49 C 157.64 100.67 155.31 101.89 153.01 103.15 C 152.99 95.85 153.01 88.54 152.99 81.24 C 149.00 81.25 145.00 81.25 141.01 81.24 M 198.50 81.25 C 198.50 82.83 198.49 84.41 198.49 85.99 C 200.41 85.99 202.32 86.00 204.25 86.01 C 204.25 94.38 204.24 102.75 204.25 111.13 C 208.25 109.03 212.26 106.95 216.26 104.86 C 216.25 103.03 216.24 101.20 216.23 99.37 C 213.80 100.59 211.40 101.87 209.01 103.15 C 208.98 95.85 209.01 88.54 208.99 81.24 C 205.49 81.25 201.99 81.24 198.50 81.25 M 161.82 85.76 C 163.33 92.15 167.07 97.82 171.83 102.26 C 168.54 104.33 164.93 105.80 161.24 106.99 C 161.25 108.66 161.26 110.32 161.28 111.99 C 166.42 110.56 171.39 108.46 175.81 105.45 C 180.41 108.43 185.45 110.69 190.77 112.01 C 190.76 110.34 190.75 108.67 190.74 107.00 C 186.89 105.84 183.16 104.28 179.71 102.19 C 184.50 97.81 188.09 92.11 189.61 85.77 C 180.35 85.74 171.08 85.74 161.82 85.76 Z" />
<path fill="#ffffff" opacity="1.00" d=" M 53.75 82.26 C 56.33 82.25 58.92 82.25 61.50 82.26 C 61.50 83.75 61.50 85.25 61.50 86.74 C 58.92 86.75 56.33 86.75 53.75 86.74 C 53.75 85.25 53.75 83.75 53.75 82.26 Z" />
<path fill="#ffffff" opacity="1.00" d=" M 168.60 90.51 C 173.34 90.50 178.08 90.47 182.83 90.54 C 181.08 93.89 178.58 96.75 175.82 99.30 C 172.91 96.82 170.50 93.82 168.60 90.51 Z" />
<path fill="#ffffff" opacity="1.00" d=" M 53.76 91.51 C 56.34 91.50 58.91 91.50 61.50 91.50 C 61.50 95.00 61.50 98.50 61.50 102.00 C 58.92 102.00 56.33 102.00 53.75 102.00 C 53.75 98.50 53.75 95.00 53.76 91.51 Z" />
</g>
<g id="#000000ff">
<path fill="#000000" opacity="1.00" d=" M 52.01 65.25 C 53.93 65.25 55.85 65.25 57.77 65.25 C 58.28 66.58 58.80 67.91 59.31 69.24 C 64.13 69.25 68.94 69.24 73.75 69.25 C 73.75 70.83 73.75 72.41 73.76 73.99 C 63.01 74.01 52.25 74.00 41.50 74.00 C 41.50 73.27 41.50 71.82 41.50 71.09 C 40.17 71.32 38.84 71.54 37.51 71.76 C 37.50 74.17 37.50 76.58 37.50 78.99 C 38.92 79.00 40.34 79.00 41.76 79.01 C 41.75 80.51 41.75 82.00 41.74 83.50 C 40.33 83.50 38.92 83.50 37.51 83.50 C 37.50 93.00 37.50 102.50 37.51 111.99 C 35.92 111.99 34.33 111.99 32.75 112.00 C 32.74 106.23 32.77 100.45 32.74 94.68 C 31.47 98.53 30.26 102.39 29.05 106.26 C 27.52 106.25 25.99 106.25 24.46 106.25 C 26.93 98.70 29.21 91.09 31.65 83.54 C 29.85 83.52 28.06 83.50 26.26 83.49 C 26.25 82.00 26.25 80.50 26.24 79.01 C 28.41 79.00 30.58 79.00 32.76 78.99 C 32.75 76.84 32.75 74.69 32.75 72.54 C 30.59 72.89 28.44 73.23 26.28 73.57 C 26.25 72.10 26.22 70.63 26.19 69.16 C 31.36 68.33 36.52 67.41 41.71 66.66 C 41.73 67.31 41.76 68.60 41.78 69.24 C 45.72 69.25 49.65 69.25 53.59 69.24 C 53.06 67.91 52.54 66.58 52.01 65.25 Z" />
<path fill="#000000" opacity="1.00" d=" M 104.27 64.74 C 106.19 64.75 108.11 64.75 110.04 64.74 C 110.54 66.13 111.04 67.51 111.53 68.90 C 118.60 69.13 125.68 68.93 132.76 69.01 C 132.75 72.34 132.75 75.66 132.76 78.99 C 131.17 78.99 129.59 79.00 128.00 79.00 C 128.00 77.25 128.00 75.50 128.00 73.75 C 115.67 73.75 103.33 73.75 91.00 73.75 C 91.00 75.50 91.00 77.25 91.00 79.00 C 89.41 79.00 87.82 78.99 86.24 78.99 C 86.25 75.66 86.25 72.34 86.24 69.01 C 92.80 68.97 99.35 69.05 105.91 68.96 C 105.36 67.55 104.81 66.14 104.27 64.74 Z" />
<path fill="#000000" opacity="1.00" d=" M 229.25 65.24 C 231.00 65.25 232.75 65.26 234.51 65.26 C 234.50 70.67 234.50 76.09 234.51 81.50 C 238.92 81.50 243.33 81.50 247.74 81.49 C 247.74 83.08 247.74 84.66 247.76 86.25 C 243.33 86.26 238.91 86.24 234.49 86.27 C 234.51 94.84 234.49 103.42 234.51 111.99 C 232.75 111.99 230.99 111.99 229.24 112.00 C 229.25 103.41 229.25 94.83 229.24 86.25 C 224.83 86.25 220.41 86.25 216.00 86.25 C 216.00 84.67 216.00 83.08 216.00 81.50 C 220.42 81.49 224.83 81.51 229.25 81.49 C 229.25 76.07 229.24 70.66 229.25 65.24 Z" />
<path fill="#000000" opacity="1.00" d=" M 165.09 66.22 C 171.57 66.27 178.05 66.26 184.53 66.22 C 184.48 70.06 184.50 73.90 184.50 77.74 C 186.41 77.74 188.33 77.75 190.25 77.75 C 190.25 79.25 190.25 80.75 190.25 82.25 C 186.75 82.25 183.25 82.25 179.75 82.25 C 179.75 78.33 179.75 74.42 179.74 70.50 C 176.31 70.50 172.89 70.48 169.46 70.54 C 168.88 74.57 167.82 78.50 166.27 82.26 C 164.44 82.25 162.61 82.25 160.78 82.25 C 163.22 77.23 164.75 71.80 165.09 66.22 Z" />
<path fill="#000000" opacity="1.00" d=" M 146.95 66.48 C 148.94 66.49 150.93 66.50 152.93 66.50 C 154.43 70.06 155.92 73.63 157.33 77.24 C 155.35 77.25 153.38 77.25 151.41 77.27 C 149.89 73.69 148.42 70.08 146.95 66.48 Z" />
<path fill="#000000" opacity="1.00" d=" M 203.07 66.54 C 205.05 66.51 207.04 66.50 209.03 66.49 C 210.47 70.08 212.00 73.63 213.40 77.24 C 211.39 77.25 209.39 77.25 207.38 77.19 C 206.03 73.61 204.48 70.10 203.07 66.54 Z" />
<path fill="#000000" opacity="1.00" d=" M 49.25 77.50 C 54.83 77.50 60.42 77.50 66.00 77.50 C 65.99 80.58 66.00 83.67 66.01 86.76 C 68.59 86.75 71.17 86.75 73.75 86.75 C 73.76 95.17 73.74 103.58 73.76 111.99 C 72.17 111.99 70.59 112.00 69.00 112.00 C 69.00 105.17 69.00 98.34 69.00 91.50 C 68.25 91.50 66.75 91.50 66.00 91.50 C 65.99 96.59 66.01 101.67 65.99 106.76 C 60.41 106.75 54.83 106.76 49.25 106.75 C 49.24 101.67 49.25 96.59 49.24 91.51 C 48.50 91.51 47.01 91.49 46.27 91.49 C 46.23 98.25 46.26 105.01 46.25 111.77 C 44.66 111.75 43.07 111.73 41.48 111.72 C 41.53 103.39 41.48 95.07 41.50 86.75 C 44.08 86.75 46.66 86.75 49.24 86.75 C 49.25 83.67 49.25 80.58 49.25 77.50 M 53.75 82.26 C 53.75 83.75 53.75 85.25 53.75 86.74 C 56.33 86.75 58.92 86.75 61.50 86.74 C 61.50 85.25 61.50 83.75 61.50 82.26 C 58.92 82.25 56.33 82.25 53.75 82.26 M 53.76 91.51 C 53.75 95.00 53.75 98.50 53.75 102.00 C 56.33 102.00 58.92 102.00 61.50 102.00 C 61.50 98.50 61.50 95.00 61.50 91.50 C 58.91 91.50 56.34 91.50 53.76 91.51 Z" />
<path fill="#000000" opacity="1.00" d=" M 92.01 80.24 C 103.84 80.26 115.68 80.22 127.51 80.26 C 127.50 81.84 127.50 83.42 127.50 85.00 C 122.17 85.00 116.83 85.00 111.50 85.00 C 111.50 87.25 111.50 89.50 111.51 91.75 C 116.84 91.74 122.17 91.75 127.50 91.75 C 127.49 93.25 127.49 94.75 127.50 96.25 C 122.17 96.25 116.84 96.26 111.51 96.25 C 111.50 99.56 111.50 102.88 111.50 106.20 C 118.69 107.24 125.98 107.20 133.23 107.25 C 133.25 108.80 133.28 110.35 133.31 111.90 C 126.14 112.06 118.92 111.93 111.79 111.09 C 105.21 110.12 99.08 106.93 94.31 102.33 C 93.25 105.89 91.33 109.11 89.03 112.01 C 87.79 111.01 86.56 110.02 85.32 109.04 C 90.07 103.72 91.74 96.43 92.10 89.49 C 93.59 89.49 95.08 89.50 96.58 89.51 C 96.65 91.89 95.77 94.33 96.26 96.66 C 98.75 100.43 102.73 102.88 106.74 104.78 C 106.76 98.19 106.74 91.60 106.75 85.01 C 101.83 84.99 96.91 85.00 92.00 85.00 C 92.00 83.41 92.01 81.83 92.01 80.24 Z" />
<path fill="#000000" opacity="1.00" d=" M 141.01 81.24 C 145.00 81.25 149.00 81.25 152.99 81.24 C 153.01 88.54 152.99 95.85 153.01 103.15 C 155.31 101.89 157.64 100.67 159.99 99.49 C 160.00 101.32 160.00 103.15 160.00 104.99 C 156.07 107.00 152.16 109.06 148.26 111.13 C 148.23 102.76 148.25 94.38 148.25 86.00 C 145.83 86.00 143.41 86.00 141.00 86.00 C 141.00 84.41 141.01 82.82 141.01 81.24 Z" />
<path fill="#000000" opacity="1.00" d=" M 198.50 81.25 C 201.99 81.24 205.49 81.25 208.99 81.24 C 209.01 88.54 208.98 95.85 209.01 103.15 C 211.40 101.87 213.80 100.59 216.23 99.37 C 216.24 101.20 216.25 103.03 216.26 104.86 C 212.26 106.95 208.25 109.03 204.25 111.13 C 204.24 102.75 204.25 94.38 204.25 86.01 C 202.32 86.00 200.41 85.99 198.49 85.99 C 198.49 84.41 198.50 82.83 198.50 81.25 Z" />
<path fill="#000000" opacity="1.00" d=" M 161.82 85.76 C 171.08 85.74 180.35 85.74 189.61 85.77 C 188.09 92.11 184.50 97.81 179.71 102.19 C 183.16 104.28 186.89 105.84 190.74 107.00 C 190.75 108.67 190.76 110.34 190.77 112.01 C 185.45 110.69 180.41 108.43 175.81 105.45 C 171.39 108.46 166.42 110.56 161.28 111.99 C 161.26 110.32 161.25 108.66 161.24 106.99 C 164.93 105.80 168.54 104.33 171.83 102.26 C 167.07 97.82 163.33 92.15 161.82 85.76 M 168.60 90.51 C 170.50 93.82 172.91 96.82 175.82 99.30 C 178.58 96.75 181.08 93.89 182.83 90.54 C 178.08 90.47 173.34 90.50 168.60 90.51 Z" />
</g>
</svg>
