<?xml version="1.0" encoding="UTF-8" ?>
<!DOCTYPE svg PUBLIC "-//W3C//DTD SVG 1.1//EN" "http://www.w3.org/Graphics/SVG/1.1/DTD/svg11.dtd">
<svg width="270pt" height="170pt" viewBox="0 0 270 170" version="1.1" xmlns="http://www.w3.org/2000/svg">
<g id="#ffffffff">
<path fill="#ffffff" opacity="1.00" d=" M 0.00 0.00 L 270.00 0.00 L 270.00 170.00 L 0.00 170.00 L 0.00 0.00 M 27.73 67.04 C 30.01 71.58 33.51 75.35 36.20 79.63 C 36.92 80.57 37.81 82.40 39.27 81.66 C 43.70 74.36 47.74 66.81 52.01 59.41 C 43.25 57.56 34.13 61.02 27.73 67.04 M 45.94 76.65 C 54.92 76.56 63.90 76.52 72.87 76.34 C 69.58 67.97 62.24 61.86 53.66 59.41 C 51.04 65.12 47.57 70.56 45.94 76.65 M 94.42 61.55 C 94.38 64.28 94.38 67.01 94.37 69.74 C 93.06 69.71 91.75 69.68 90.44 69.65 C 90.41 70.12 90.33 71.05 90.29 71.52 C 91.65 71.49 93.01 71.45 94.38 71.42 C 94.39 76.33 94.37 81.24 94.40 86.16 C 92.09 87.12 89.75 87.99 87.38 88.75 C 87.32 89.26 87.20 90.29 87.14 90.80 C 89.52 89.77 91.95 88.88 94.40 88.04 C 94.38 92.67 94.39 97.30 94.37 101.94 C 93.40 101.81 91.46 101.55 90.49 101.42 C 90.09 103.67 89.71 105.93 89.44 108.20 C 93.38 108.52 97.24 109.44 101.19 109.68 C 101.42 101.58 100.82 93.43 101.44 85.36 C 109.09 81.23 118.02 83.02 126.28 83.32 C 127.34 85.92 130.82 84.42 132.97 84.76 C 133.70 83.25 135.27 82.66 136.64 81.92 C 135.84 81.75 134.24 81.41 133.45 81.24 C 133.43 75.31 133.51 69.37 133.38 63.44 C 134.14 63.16 135.66 62.61 136.41 62.33 C 135.75 61.65 134.96 61.34 134.02 61.39 C 125.34 61.35 116.65 61.45 107.97 61.36 C 106.50 61.47 104.59 60.93 103.68 62.45 C 104.54 62.68 106.26 63.14 107.11 63.37 C 107.10 69.22 107.33 75.09 107.05 80.93 C 105.53 82.50 103.18 82.86 101.26 83.74 C 101.17 79.64 101.18 75.53 101.22 71.43 C 102.10 71.44 103.86 71.45 104.74 71.46 C 104.70 71.02 104.62 70.13 104.57 69.68 C 103.73 69.69 102.05 69.72 101.21 69.74 C 101.19 67.04 101.20 64.35 101.19 61.66 C 98.93 61.62 96.68 61.59 94.42 61.55 M 146.94 61.61 C 146.71 77.84 146.90 94.07 146.85 110.30 C 150.26 110.73 153.55 109.69 156.92 109.39 C 165.95 109.45 174.99 109.34 184.02 109.44 C 186.95 110.02 189.90 110.60 192.93 110.35 C 193.55 98.59 193.03 86.79 193.20 75.01 C 192.97 70.50 193.78 65.88 192.59 61.45 C 189.37 61.39 186.21 62.04 183.02 62.33 C 170.98 62.36 158.93 62.57 146.94 61.61 M 203.48 110.41 C 205.53 110.36 207.58 110.35 209.63 110.38 C 209.90 95.08 209.82 79.76 209.67 64.45 C 212.78 63.55 216.02 63.83 219.20 64.07 C 219.34 68.74 218.58 73.35 218.22 77.99 C 216.51 76.99 214.84 75.75 212.79 75.66 C 213.98 77.56 215.85 78.80 217.77 79.88 C 216.83 84.35 215.23 88.72 212.47 92.39 C 213.66 93.60 214.85 94.82 216.04 96.04 C 219.39 92.92 220.74 88.40 222.19 84.21 C 223.65 86.13 224.27 88.98 226.73 89.91 C 226.28 86.92 224.34 84.54 222.66 82.15 C 224.11 76.18 224.55 70.01 224.49 63.89 C 227.77 63.79 231.06 63.83 234.32 64.23 C 234.33 69.09 233.56 73.89 233.25 78.73 C 232.00 77.70 230.76 76.67 229.55 75.60 C 229.23 75.84 228.59 76.33 228.27 76.58 C 229.77 77.96 231.26 79.34 232.71 80.77 C 231.01 87.85 227.58 94.35 222.82 99.84 C 223.97 101.08 225.11 102.34 226.23 103.61 C 231.32 99.04 233.87 92.64 236.98 86.76 C 237.84 89.03 238.49 91.38 238.96 93.77 C 239.40 93.69 240.29 93.52 240.74 93.44 C 240.42 89.16 236.43 85.52 237.91 81.17 C 239.23 75.56 239.70 69.77 239.41 64.02 C 241.06 63.95 242.71 63.89 244.38 63.83 C 244.46 76.71 244.38 89.60 244.42 102.48 C 243.46 102.27 241.55 101.85 240.59 101.64 C 240.15 103.88 239.73 106.12 239.40 108.38 C 243.29 109.10 247.22 109.70 251.17 109.87 C 251.17 93.79 251.18 77.70 251.17 61.61 C 246.74 61.19 242.42 62.61 238.00 62.38 C 230.33 62.29 222.66 62.35 215.00 62.37 C 211.11 62.42 207.32 61.33 203.42 61.49 C 203.30 77.79 203.19 94.11 203.48 110.41 M 21.60 93.53 C 27.76 92.06 34.20 92.79 40.37 91.34 C 36.12 83.53 31.07 76.19 26.74 68.42 C 20.71 75.11 18.68 85.01 21.60 93.53 M 54.27 79.69 C 58.80 87.17 63.09 94.85 67.99 102.08 C 69.45 101.59 69.95 99.88 70.78 98.72 C 74.53 92.41 75.53 84.58 73.16 77.59 C 66.91 78.75 60.47 78.19 54.27 79.69 M 104.23 86.50 L 104.42 88.28 C 107.96 88.25 111.50 88.25 115.04 88.28 C 114.27 91.35 112.73 94.14 111.01 96.78 C 109.73 94.60 108.81 92.01 106.56 90.61 C 106.71 93.45 108.51 95.76 110.00 98.05 C 107.71 100.85 104.95 103.21 101.99 105.28 C 102.76 106.91 103.68 108.46 104.71 109.94 C 108.07 107.69 110.97 104.91 113.91 102.17 C 117.65 103.40 119.86 106.72 121.78 109.93 C 124.67 107.78 127.55 105.59 130.03 102.97 C 133.40 105.34 136.51 110.10 141.09 109.29 C 137.63 107.02 134.26 104.61 131.17 101.86 C 134.56 97.16 136.43 91.71 138.87 86.52 C 127.32 86.62 115.78 86.49 104.23 86.50 M 42.73 111.57 C 51.33 113.27 60.98 110.33 66.84 103.74 C 66.35 101.94 64.96 100.58 63.95 99.06 C 61.26 95.61 59.10 91.75 56.02 88.61 C 51.15 96.00 47.17 103.93 42.73 111.57 M 21.97 94.44 C 24.89 102.97 32.53 109.32 41.19 111.45 C 43.85 105.79 46.97 100.29 48.96 94.35 C 39.96 94.29 30.97 94.40 21.97 94.44 Z" />
<path fill="#ffffff" opacity="1.00" d=" M 113.57 63.16 C 117.93 62.76 122.32 62.86 126.69 63.06 C 126.68 64.90 126.66 66.74 126.64 68.58 C 122.31 68.58 117.97 68.58 113.64 68.55 C 113.62 66.75 113.59 64.96 113.57 63.16 Z" />
<path fill="#ffffff" opacity="1.00" d=" M 153.72 64.00 C 164.54 64.04 175.36 63.79 186.19 63.89 C 186.20 78.50 186.25 93.12 186.16 107.73 C 175.32 107.43 164.47 107.92 153.63 107.56 C 153.81 93.04 153.61 78.52 153.72 64.00 M 155.18 76.92 C 156.41 78.19 157.64 79.48 158.86 80.77 C 160.48 78.94 162.10 77.12 163.74 75.31 C 165.13 76.60 166.50 77.89 167.88 79.19 C 163.93 81.47 159.58 82.84 155.36 84.48 C 155.23 86.30 156.18 87.99 156.65 89.70 C 162.32 87.87 167.83 85.54 172.95 82.47 C 176.45 84.25 180.22 85.52 184.16 85.79 C 183.96 85.43 183.56 84.71 183.36 84.35 C 180.47 83.23 177.21 83.02 174.51 81.32 C 178.52 78.01 182.58 73.89 182.90 68.39 C 178.03 68.33 173.16 68.25 168.29 68.32 C 168.28 67.74 168.27 66.58 168.26 66.01 C 166.73 65.57 165.21 65.13 163.69 64.68 C 161.21 69.00 158.73 73.35 155.18 76.92 M 170.18 93.62 C 172.65 94.21 173.61 91.64 174.67 89.97 C 173.45 88.29 171.62 85.41 169.17 86.91 C 166.00 87.97 166.64 93.76 170.18 93.62 M 159.32 99.62 C 165.89 101.44 172.45 103.56 178.26 107.25 C 179.47 105.95 180.61 104.57 181.39 102.96 C 174.82 98.70 167.37 95.90 159.72 94.30 C 159.52 96.06 159.15 97.84 159.32 99.62 Z" />
<path fill="#ffffff" opacity="1.00" d=" M 113.64 69.60 C 117.97 69.60 122.29 69.60 126.61 69.58 C 126.61 71.53 126.62 73.48 126.64 75.42 C 122.30 75.41 117.97 75.41 113.64 75.40 C 113.65 73.47 113.65 71.54 113.64 69.60 Z" />
<path fill="#ffffff" opacity="1.00" d=" M 167.07 69.56 C 170.52 69.46 173.98 69.46 177.44 69.60 C 175.46 72.88 173.02 76.62 169.24 77.86 C 167.46 76.87 166.11 75.31 164.64 73.95 C 165.45 72.48 166.26 71.02 167.07 69.56 Z" />
<path fill="#ffffff" opacity="1.00" d=" M 113.62 76.43 C 117.95 76.40 122.29 76.41 126.63 76.37 C 126.62 78.07 126.62 79.76 126.62 81.46 C 122.30 81.42 117.97 81.43 113.65 81.40 C 113.63 79.74 113.62 78.09 113.62 76.43 Z" />
<path fill="#ffffff" opacity="1.00" d=" M 120.68 88.30 C 124.48 88.24 128.29 88.23 132.09 88.30 C 131.12 91.36 129.91 94.41 127.86 96.93 C 125.10 95.73 124.59 91.85 121.81 90.41 C 122.00 93.84 124.86 96.18 126.58 98.92 C 124.49 100.78 122.42 102.66 120.36 104.56 C 118.66 103.15 116.90 101.82 114.98 100.73 C 117.30 96.79 119.51 92.75 120.68 88.30 Z" />
<path fill="#ffffff" opacity="1.00" d=" M 55.36 92.80 C 56.91 91.55 58.26 94.32 56.76 95.21 C 55.20 96.49 53.83 93.68 55.36 92.80 Z" />
<path fill="#ffffff" opacity="1.00" d=" M 47.78 105.98 C 49.77 102.35 51.74 98.69 53.98 95.20 C 55.16 96.80 56.30 98.45 56.97 100.33 C 54.30 102.00 51.90 104.11 48.92 105.22 C 48.63 105.76 48.07 106.85 47.79 107.39 C 50.15 106.54 50.97 107.80 51.02 109.86 C 49.81 109.69 48.61 109.54 47.41 109.36 C 47.55 108.24 47.67 107.11 47.78 105.98 Z" />
<path fill="#ffffff" opacity="1.00" d=" M 57.31 96.28 C 58.65 94.72 60.82 97.13 59.45 98.44 C 58.10 99.77 55.71 97.62 57.31 96.28 Z" />
<path fill="#ffffff" opacity="1.00" d=" M 60.33 99.28 C 62.26 98.61 63.31 101.73 61.21 102.16 C 59.44 102.72 58.42 99.68 60.33 99.28 Z" />
<path fill="#ffffff" opacity="1.00" d=" M 50.38 106.08 C 53.00 104.53 55.30 102.47 58.03 101.13 C 59.60 102.60 60.74 104.43 61.94 106.21 C 59.09 107.74 56.08 108.97 52.92 109.66 C 52.08 108.46 51.23 107.27 50.38 106.08 Z" />
<path fill="#ffffff" opacity="1.00" d=" M 63.03 102.40 C 65.55 101.65 64.80 105.54 62.65 104.92 C 60.88 104.80 61.72 102.51 63.03 102.40 Z" />
</g>
<g id="#2ea4f5ff">
<path fill="#2ea4f5" opacity="1.00" d=" M 27.73 67.04 C 34.13 61.02 43.25 57.56 52.01 59.41 C 47.74 66.81 43.70 74.36 39.27 81.66 C 37.81 82.40 36.92 80.57 36.20 79.63 C 33.51 75.35 30.01 71.58 27.73 67.04 Z" />
<path fill="#2ea4f5" opacity="1.00" d=" M 45.94 76.65 C 47.57 70.56 51.04 65.12 53.66 59.41 C 62.24 61.86 69.58 67.97 72.87 76.34 C 63.90 76.52 54.92 76.56 45.94 76.65 Z" />
<path fill="#2ea4f5" opacity="1.00" d=" M 94.42 61.55 C 96.68 61.59 98.93 61.62 101.19 61.66 C 101.20 64.35 101.19 67.04 101.21 69.74 C 102.05 69.72 103.73 69.69 104.57 69.68 C 104.62 70.13 104.70 71.02 104.74 71.46 C 103.86 71.45 102.10 71.44 101.22 71.43 C 101.18 75.53 101.17 79.64 101.26 83.74 C 103.18 82.86 105.53 82.50 107.05 80.93 C 107.33 75.09 107.10 69.22 107.11 63.37 C 106.26 63.14 104.54 62.68 103.68 62.45 C 104.59 60.93 106.50 61.47 107.97 61.36 C 116.65 61.45 125.34 61.35 134.02 61.39 C 134.96 61.34 135.75 61.65 136.41 62.33 C 135.66 62.61 134.14 63.16 133.38 63.44 C 133.51 69.37 133.43 75.31 133.45 81.24 C 134.24 81.41 135.84 81.75 136.64 81.92 C 135.27 82.66 133.70 83.25 132.97 84.76 C 130.82 84.42 127.34 85.92 126.28 83.32 C 118.02 83.02 109.09 81.23 101.44 85.36 C 100.82 93.43 101.42 101.58 101.19 109.68 C 97.24 109.44 93.38 108.52 89.44 108.20 C 89.71 105.93 90.09 103.67 90.49 101.42 C 91.46 101.55 93.40 101.81 94.37 101.94 C 94.39 97.30 94.38 92.67 94.40 88.04 C 91.95 88.88 89.52 89.77 87.14 90.80 C 87.20 90.29 87.32 89.26 87.38 88.75 C 89.75 87.99 92.09 87.12 94.40 86.16 C 94.37 81.24 94.39 76.33 94.38 71.42 C 93.01 71.45 91.65 71.49 90.29 71.52 C 90.33 71.05 90.41 70.12 90.44 69.65 C 91.75 69.68 93.06 69.71 94.37 69.74 C 94.38 67.01 94.38 64.28 94.42 61.55 M 113.57 63.16 C 113.59 64.96 113.62 66.75 113.64 68.55 C 117.97 68.58 122.31 68.58 126.64 68.58 C 126.66 66.74 126.68 64.90 126.69 63.06 C 122.32 62.86 117.93 62.76 113.57 63.16 M 113.64 69.60 C 113.65 71.54 113.65 73.47 113.64 75.40 C 117.97 75.41 122.30 75.41 126.64 75.42 C 126.62 73.48 126.61 71.53 126.61 69.58 C 122.29 69.60 117.97 69.60 113.64 69.60 M 113.62 76.43 C 113.62 78.09 113.63 79.74 113.65 81.40 C 117.97 81.43 122.30 81.42 126.62 81.46 C 126.62 79.76 126.62 78.07 126.63 76.37 C 122.29 76.41 117.95 76.40 113.62 76.43 Z" />
<path fill="#2ea4f5" opacity="1.00" d=" M 146.94 61.61 C 158.93 62.57 170.98 62.36 183.02 62.33 C 186.21 62.04 189.37 61.39 192.59 61.45 C 193.78 65.88 192.97 70.50 193.20 75.01 C 193.03 86.79 193.55 98.59 192.93 110.35 C 189.90 110.60 186.95 110.02 184.02 109.44 C 174.99 109.34 165.95 109.45 156.92 109.39 C 153.55 109.69 150.26 110.73 146.85 110.30 C 146.90 94.07 146.71 77.84 146.94 61.61 M 153.72 64.00 C 153.61 78.52 153.81 93.04 153.63 107.56 C 164.47 107.92 175.32 107.43 186.16 107.73 C 186.25 93.12 186.20 78.50 186.19 63.89 C 175.36 63.79 164.54 64.04 153.72 64.00 Z" />
<path fill="#2ea4f5" opacity="1.00" d=" M 203.48 110.41 C 203.19 94.11 203.30 77.79 203.42 61.49 C 207.32 61.33 211.11 62.42 215.00 62.37 C 222.66 62.35 230.33 62.29 238.00 62.38 C 242.42 62.61 246.74 61.19 251.17 61.61 C 251.18 77.70 251.17 93.79 251.17 109.87 C 247.22 109.70 243.29 109.10 239.40 108.38 C 239.73 106.12 240.15 103.88 240.59 101.64 C 241.55 101.85 243.46 102.27 244.42 102.48 C 244.38 89.60 244.46 76.71 244.38 63.83 C 242.71 63.89 241.06 63.95 239.41 64.02 C 239.70 69.77 239.23 75.56 237.91 81.17 C 236.43 85.52 240.42 89.16 240.74 93.44 C 240.29 93.52 239.40 93.69 238.96 93.77 C 238.49 91.38 237.84 89.03 236.98 86.76 C 233.87 92.64 231.32 99.04 226.23 103.61 C 225.11 102.34 223.97 101.08 222.82 99.84 C 227.58 94.35 231.01 87.85 232.71 80.77 C 231.26 79.34 229.77 77.96 228.27 76.58 C 228.59 76.33 229.23 75.84 229.55 75.60 C 230.76 76.67 232.00 77.70 233.25 78.73 C 233.56 73.89 234.33 69.09 234.32 64.23 C 231.06 63.83 227.77 63.79 224.49 63.89 C 224.55 70.01 224.11 76.18 222.66 82.15 C 224.34 84.54 226.28 86.92 226.73 89.91 C 224.27 88.98 223.65 86.13 222.19 84.21 C 220.74 88.40 219.39 92.92 216.04 96.04 C 214.85 94.82 213.66 93.60 212.47 92.39 C 215.23 88.72 216.83 84.35 217.77 79.88 C 215.85 78.80 213.98 77.56 212.79 75.66 C 214.84 75.75 216.51 76.99 218.22 77.99 C 218.58 73.35 219.34 68.74 219.20 64.07 C 216.02 63.83 212.78 63.55 209.67 64.45 C 209.82 79.76 209.90 95.08 209.63 110.38 C 207.58 110.35 205.53 110.36 203.48 110.41 Z" />
<path fill="#2ea4f5" opacity="1.00" d=" M 155.18 76.92 C 158.73 73.35 161.21 69.00 163.69 64.68 C 165.21 65.13 166.73 65.57 168.26 66.01 C 168.27 66.58 168.28 67.74 168.29 68.32 C 173.16 68.25 178.03 68.33 182.90 68.39 C 182.58 73.89 178.52 78.01 174.51 81.32 C 177.21 83.02 180.47 83.23 183.36 84.35 C 183.56 84.71 183.96 85.43 184.16 85.79 C 180.22 85.52 176.45 84.25 172.95 82.47 C 167.83 85.54 162.32 87.87 156.65 89.70 C 156.18 87.99 155.23 86.30 155.36 84.48 C 159.58 82.84 163.93 81.47 167.88 79.19 C 166.50 77.89 165.13 76.60 163.74 75.31 C 162.10 77.12 160.48 78.94 158.86 80.77 C 157.64 79.48 156.41 78.19 155.18 76.92 M 167.07 69.56 C 166.26 71.02 165.45 72.48 164.64 73.95 C 166.11 75.31 167.46 76.87 169.24 77.86 C 173.02 76.62 175.46 72.88 177.44 69.60 C 173.98 69.46 170.52 69.46 167.07 69.56 Z" />
<path fill="#2ea4f5" opacity="1.00" d=" M 21.60 93.53 C 18.68 85.01 20.71 75.11 26.74 68.42 C 31.07 76.19 36.12 83.53 40.37 91.34 C 34.20 92.79 27.76 92.06 21.60 93.53 Z" />
<path fill="#2ea4f5" opacity="1.00" d=" M 54.27 79.69 C 60.47 78.19 66.91 78.75 73.16 77.59 C 75.53 84.58 74.53 92.41 70.78 98.72 C 69.95 99.88 69.45 101.59 67.99 102.08 C 63.09 94.85 58.80 87.17 54.27 79.69 Z" />
<path fill="#2ea4f5" opacity="1.00" d=" M 104.23 86.50 C 115.78 86.49 127.32 86.62 138.87 86.52 C 136.43 91.71 134.56 97.16 131.17 101.86 C 134.26 104.61 137.63 107.02 141.09 109.29 C 136.51 110.10 133.40 105.34 130.03 102.97 C 127.55 105.59 124.67 107.78 121.78 109.93 C 119.86 106.72 117.65 103.40 113.91 102.17 C 110.97 104.91 108.07 107.69 104.71 109.94 C 103.68 108.46 102.76 106.91 101.99 105.28 C 104.95 103.21 107.71 100.85 110.00 98.05 C 108.51 95.76 106.71 93.45 106.56 90.61 C 108.81 92.01 109.73 94.60 111.01 96.78 C 112.73 94.14 114.27 91.35 115.04 88.28 C 111.50 88.25 107.96 88.25 104.42 88.28 L 104.23 86.50 M 120.68 88.30 C 119.51 92.75 117.30 96.79 114.98 100.73 C 116.90 101.82 118.66 103.15 120.36 104.56 C 122.42 102.66 124.49 100.78 126.58 98.92 C 124.86 96.18 122.00 93.84 121.81 90.41 C 124.59 91.85 125.10 95.73 127.86 96.93 C 129.91 94.41 131.12 91.36 132.09 88.30 C 128.29 88.23 124.48 88.24 120.68 88.30 Z" />
<path fill="#2ea4f5" opacity="1.00" d=" M 170.18 93.62 C 166.64 93.76 166.00 87.97 169.17 86.91 C 171.62 85.41 173.45 88.29 174.67 89.97 C 173.61 91.64 172.65 94.21 170.18 93.62 Z" />
<path fill="#2ea4f5" opacity="1.00" d=" M 42.73 111.57 C 47.17 103.93 51.15 96.00 56.02 88.61 C 59.10 91.75 61.26 95.61 63.95 99.06 C 64.96 100.58 66.35 101.94 66.84 103.74 C 60.98 110.33 51.33 113.27 42.73 111.57 M 55.36 92.80 C 53.83 93.68 55.20 96.49 56.76 95.21 C 58.26 94.32 56.91 91.55 55.36 92.80 M 47.78 105.98 C 47.67 107.11 47.55 108.24 47.41 109.36 C 48.61 109.54 49.81 109.69 51.02 109.86 C 50.97 107.80 50.15 106.54 47.79 107.39 C 48.07 106.85 48.63 105.76 48.92 105.22 C 51.90 104.11 54.30 102.00 56.97 100.33 C 56.30 98.45 55.16 96.80 53.98 95.20 C 51.74 98.69 49.77 102.35 47.78 105.98 M 57.31 96.28 C 55.71 97.62 58.10 99.77 59.45 98.44 C 60.82 97.13 58.65 94.72 57.31 96.28 M 60.33 99.28 C 58.42 99.68 59.44 102.72 61.21 102.16 C 63.31 101.73 62.26 98.61 60.33 99.28 M 50.38 106.08 C 51.23 107.27 52.08 108.46 52.92 109.66 C 56.08 108.97 59.09 107.74 61.94 106.21 C 60.74 104.43 59.60 102.60 58.03 101.13 C 55.30 102.47 53.00 104.53 50.38 106.08 M 63.03 102.40 C 61.72 102.51 60.88 104.80 62.65 104.92 C 64.80 105.54 65.55 101.65 63.03 102.40 Z" />
<path fill="#2ea4f5" opacity="1.00" d=" M 21.97 94.44 C 30.97 94.40 39.96 94.29 48.96 94.35 C 46.97 100.29 43.85 105.79 41.19 111.45 C 32.53 109.32 24.89 102.97 21.97 94.44 Z" />
<path fill="#2ea4f5" opacity="1.00" d=" M 159.32 99.62 C 159.15 97.84 159.52 96.06 159.72 94.30 C 167.37 95.90 174.82 98.70 181.39 102.96 C 180.61 104.57 179.47 105.95 178.26 107.25 C 172.45 103.56 165.89 101.44 159.32 99.62 Z" />
</g>
</svg>
