<?xml version="1.0" encoding="UTF-8"?>
<svg id="_图层_2" data-name="图层 2" xmlns="http://www.w3.org/2000/svg" viewBox="0 0 270 170">
  <defs>
    <style>
      .cls-1 {
        fill: #fff;
      }

      .cls-2 {
        fill: #db4242;
      }

      .cls-3 {
        fill: #6d6d6d;
      }
    </style>
  </defs>
  <g id="_图层_1-2" data-name="图层 1">
    <rect class="cls-1" width="270" height="170"/>
    <g>
      <path class="cls-1" d="M213.58,5.14v159.71H53.87V5.14h159.71ZM156.11,21.08c-12.41-13.69-34.09-13.24-45.79,1.11-12.34,15.15-5.33,33.95,2.67,49.23,5.82,11.12,12.98,21.51,20.69,31.38l.18-.13c7.79-10.03,15.05-20.58,20.9-31.89,4.95-9.57,10.23-22.31,8.9-33.26-.73-6.05-3.48-11.96-7.55-16.44ZM59.85,85.48v73.39l37.83-20.02,36.08,19.06,35.98-19.04,37.84,20.01v-73.27l-.25-.23-37.58-19.91-15.43,8.17-.23.25-3.13,5.54,16.93-8.86v65.12l-32.34,17.21v-50.79c-.13-.03-.16.04-.24.12-.25.26-1.46,1.99-1.63,1.95l-1.69-2.07-.04,50.79-32.34-17.13-.16-65.2,16.89,8.94.12-.12c-.67-1.07-1.3-2.17-1.93-3.26-.48-.84-.85-1.77-1.48-2.52l-15.28-8.12-.22.02-37.72,19.99Z"/>
      <path class="cls-2" d="M156.11,21.08c4.07,4.49,6.82,10.4,7.55,16.44,1.33,10.95-3.95,23.69-8.9,33.26-5.85,11.31-13.1,21.86-20.9,31.89l-.18.13c-7.71-9.87-14.87-20.26-20.69-31.38-8-15.28-15.01-34.08-2.67-49.23,11.7-14.35,33.37-14.8,45.79-1.11ZM120.76,28.99c-9.45,9.58-5.68,25.87,7.06,30.17,14.34,4.84,28.03-8.84,23.19-23.19-4.29-12.74-20.75-16.61-30.25-6.98Z"/>
      <path class="cls-3" d="M59.85,85.48l37.72-19.99.22-.02,15.28,8.12c.63.75.99,1.68,1.48,2.52.63,1.1,1.26,2.19,1.93,3.26l-.12.12-16.89-8.94.16,65.2,32.34,17.13.04-50.79,1.69,2.07c.17.04,1.38-1.69,1.63-1.95.08-.08.1-.15.24-.12v50.79s32.34-17.21,32.34-17.21v-65.12l-16.93,8.86,3.13-5.54.23-.25,15.43-8.17,37.58,19.91.25.23v73.27l-37.84-20.01-35.98,19.04-36.08-19.06-37.83,20.02v-73.39ZM63.45,152.8l32.44-17.19-.03-64.23c-.03-.31.24-.67-.04-.91l-32.17,17.1c-.06.04-.21.22-.21.27v64.96ZM203.89,87.66l-32.4-17.11v1.4c.06,20.4.19,40.84.08,61.25,0,.41-.1.82-.09,1.28,0,.36.14.73.08,1.11l.13.19,32.25,17.1-.06-65.22Z"/>
      <path class="cls-1" d="M120.76,28.99c9.5-9.63,25.96-5.76,30.25,6.98,4.84,14.35-8.85,28.03-23.19,23.19-12.74-4.3-16.51-20.59-7.06-30.17Z"/>
      <path class="cls-1" d="M63.45,152.8v-64.96s.15-.23.21-.27l32.17-17.1c.28.24,0,.61.04.91l.03,64.23-32.44,17.19Z"/>
      <path class="cls-1" d="M203.89,87.66l.06,65.22-32.25-17.1-.13-.19c.06-.38-.08-.75-.08-1.11,0-.46.09-.87.09-1.28.11-20.41-.02-40.85-.09-61.25v-1.4s32.4,17.11,32.4,17.11Z"/>
    </g>
  </g>
</svg>