<?xml version="1.0" encoding="UTF-8" ?>
<!DOCTYPE svg PUBLIC "-//W3C//DTD SVG 1.1//EN" "http://www.w3.org/Graphics/SVG/1.1/DTD/svg11.dtd">
<svg width="270pt" height="170pt" viewBox="0 0 270 170" version="1.1" xmlns="http://www.w3.org/2000/svg">
<g id="#ffe300ff">
<path fill="#ffe300" opacity="1.00" d=" M 0.00 0.00 L 270.00 0.00 L 270.00 170.00 L 0.00 170.00 L 0.00 0.00 M 14.68 82.37 C 19.91 82.59 25.15 82.45 30.38 82.56 C 26.16 87.27 21.80 91.85 17.44 96.44 C 15.74 98.23 14.03 100.37 14.21 103.00 C 14.31 105.80 13.21 110.45 17.13 111.02 C 24.07 111.59 31.07 111.07 38.03 111.28 C 40.52 111.12 43.75 111.75 45.45 109.44 C 46.06 107.40 46.17 105.26 46.42 103.17 C 49.31 105.79 52.19 108.64 55.94 110.00 C 62.17 112.44 70.53 111.75 74.65 105.91 C 73.22 103.14 70.79 100.87 70.57 97.57 C 67.40 99.03 63.74 100.38 60.37 98.65 C 54.74 96.46 53.99 88.18 58.41 84.41 C 61.98 80.77 68.01 84.17 71.68 80.69 C 74.51 77.84 74.84 73.58 75.40 69.82 C 73.92 70.46 72.61 71.69 70.96 71.85 C 68.28 71.61 65.68 70.77 62.98 70.75 C 55.27 70.83 47.76 75.82 45.03 83.10 C 42.81 88.45 43.62 94.31 44.54 99.85 C 39.53 100.06 34.51 100.05 29.50 99.93 C 33.88 94.83 38.59 90.03 43.02 84.98 C 46.30 81.21 45.01 75.86 45.28 71.30 C 39.20 71.85 33.10 71.76 27.00 71.77 C 23.27 71.70 19.12 72.49 16.10 69.70 C 14.20 73.63 13.54 78.11 14.68 82.37 M 73.91 79.96 C 68.55 88.32 70.23 100.63 78.01 106.94 C 84.68 111.94 94.87 112.89 101.68 107.67 C 103.51 106.44 103.37 104.07 103.70 102.15 C 108.71 110.65 120.43 113.55 129.08 109.12 C 133.24 107.24 135.70 103.24 138.09 99.57 C 138.26 103.23 138.21 106.89 138.57 110.54 C 144.62 111.95 150.87 110.98 157.02 111.28 C 160.02 111.12 164.36 112.05 165.94 108.68 C 166.83 104.71 166.44 100.54 167.55 96.59 C 165.54 97.74 163.67 99.58 161.22 99.61 C 157.32 99.61 153.42 99.22 149.53 99.07 C 149.68 92.12 148.97 85.08 150.11 78.18 C 151.44 75.03 154.73 73.21 156.48 70.27 C 152.13 72.20 147.59 70.13 143.13 70.89 C 138.53 72.31 138.78 77.88 138.14 81.73 C 136.37 79.26 134.88 76.48 132.46 74.57 C 126.35 69.85 117.47 69.08 110.64 72.65 C 107.66 74.13 105.87 77.04 103.79 79.49 C 104.33 77.08 104.98 74.70 105.53 72.30 C 101.73 74.92 98.34 71.26 94.60 70.55 C 86.62 68.96 78.09 73.06 73.91 79.96 M 178.01 72.04 C 178.76 73.59 179.52 75.15 180.26 76.71 C 177.76 76.74 175.26 76.76 172.76 76.78 C 172.76 78.52 172.76 80.26 172.74 82.01 C 178.75 81.99 184.76 82.02 190.77 81.98 C 190.76 80.34 190.77 78.70 190.79 77.06 C 188.99 77.02 187.19 77.00 185.39 76.97 C 184.65 74.91 183.78 72.92 182.83 70.96 C 181.22 71.32 179.61 71.68 178.01 72.04 M 196.77 70.76 C 196.74 76.45 196.72 82.15 196.79 87.84 C 194.61 87.98 192.43 88.15 190.26 88.42 C 190.15 95.74 189.16 103.17 190.40 110.44 C 195.59 110.91 200.81 110.79 206.02 110.74 C 207.53 110.59 209.81 110.85 210.08 108.82 C 210.41 102.29 210.37 95.70 210.09 89.16 C 207.95 86.97 204.51 88.03 201.78 87.67 C 201.75 85.72 201.75 83.78 201.76 81.83 C 204.61 81.79 207.47 81.71 210.32 81.51 C 210.58 79.80 210.82 78.09 211.06 76.39 C 208.07 76.71 205.06 76.80 202.06 76.84 C 202.02 74.81 202.00 72.78 201.98 70.75 C 200.24 70.76 198.50 70.76 196.77 70.76 M 241.46 70.81 C 241.48 72.95 241.50 75.09 241.52 77.24 C 240.89 77.23 239.62 77.22 238.99 77.21 C 239.27 75.84 239.55 74.46 239.84 73.09 C 238.38 72.78 236.92 72.47 235.46 72.17 C 234.73 75.46 233.97 78.74 232.95 81.96 C 231.06 80.74 228.96 79.61 228.12 77.37 C 229.87 77.16 231.62 76.97 233.37 76.81 C 233.29 75.36 233.21 73.91 233.13 72.47 C 227.03 72.52 220.94 72.51 214.84 72.47 C 214.78 73.93 214.73 75.38 214.69 76.84 C 216.11 76.96 217.53 77.09 218.96 77.22 C 218.91 77.85 218.81 79.13 218.76 79.77 C 217.46 80.18 216.15 80.58 214.86 81.01 C 214.70 90.73 214.62 100.47 214.92 110.20 C 220.70 110.68 226.53 110.63 232.32 110.24 C 232.67 101.91 232.52 93.56 232.32 85.23 C 233.51 85.61 234.69 85.99 235.88 86.37 C 236.35 84.92 236.82 83.47 237.30 82.01 C 238.53 82.01 239.76 82.00 241.00 81.99 C 240.98 83.59 240.98 85.20 240.99 86.80 C 238.20 86.72 235.41 86.63 232.63 86.58 C 232.65 88.22 232.67 89.86 232.70 91.50 C 239.55 91.50 246.40 91.51 253.25 91.49 C 253.25 89.91 253.24 88.33 253.22 86.75 C 250.90 86.75 248.58 86.74 246.26 86.74 C 246.24 85.22 246.21 83.71 246.17 82.19 C 248.20 82.03 250.23 81.86 252.26 81.62 C 252.50 79.96 252.73 78.29 252.96 76.63 C 250.76 77.03 248.53 77.25 246.30 77.39 C 246.26 75.17 246.23 72.94 246.18 70.72 C 244.61 70.76 243.03 70.79 241.46 70.81 M 183.86 83.90 C 183.37 90.54 182.55 97.15 181.46 103.72 C 178.52 104.40 175.56 105.05 172.70 106.01 C 172.97 107.77 173.39 109.49 173.77 111.23 C 179.02 109.84 184.15 108.06 189.41 106.76 C 189.37 105.20 189.31 103.65 189.27 102.09 C 188.42 102.04 186.73 101.95 185.88 101.90 C 186.93 96.22 187.81 90.52 188.69 84.82 C 187.08 84.51 185.47 84.20 183.86 83.90 M 174.27 85.17 C 174.90 90.89 175.68 96.61 176.11 102.36 C 177.58 102.00 179.06 101.65 180.54 101.31 C 180.01 95.68 179.47 90.05 178.48 84.48 C 177.43 84.65 175.32 84.99 174.27 85.17 M 234.80 93.91 C 234.32 99.29 234.38 104.71 234.73 110.09 C 240.55 110.31 246.37 110.36 252.19 110.15 C 252.66 104.75 252.67 99.31 252.19 93.91 C 246.40 93.66 240.59 93.66 234.80 93.91 Z" />
<path fill="#ffe300" opacity="1.00" d=" M 222.41 77.18 C 223.00 77.12 224.17 76.99 224.76 76.93 C 224.75 77.77 224.73 79.46 224.72 80.30 C 224.16 80.19 223.02 79.96 222.45 79.85 C 222.44 79.18 222.42 77.85 222.41 77.18 Z" />
<path fill="#ffe300" opacity="1.00" d=" M 87.44 83.38 C 92.69 80.49 99.98 84.95 99.52 91.01 C 99.87 97.50 91.37 101.40 86.39 97.52 C 81.26 94.40 82.10 85.81 87.44 83.38 Z" />
<path fill="#ffe300" opacity="1.00" d=" M 116.46 83.38 C 121.67 80.49 129.02 84.95 128.52 91.00 C 128.85 97.21 121.07 101.21 116.00 97.90 C 110.37 95.05 110.83 85.97 116.46 83.38 Z" />
<path fill="#ffe300" opacity="1.00" d=" M 218.79 93.55 C 218.47 90.45 218.00 87.15 219.45 84.24 C 219.89 87.35 219.94 90.58 218.79 93.55 Z" />
<path fill="#ffe300" opacity="1.00" d=" M 223.07 84.77 L 224.00 84.79 C 223.99 88.13 223.99 91.47 224.08 94.82 C 225.33 95.98 229.82 95.98 228.35 98.18 C 225.19 98.75 221.97 98.46 218.78 98.57 C 218.51 98.02 217.97 96.91 217.71 96.36 C 218.82 96.57 219.93 96.78 221.04 97.00 C 222.94 93.20 223.16 88.93 223.07 84.77 Z" />
<path fill="#ffe300" opacity="1.00" d=" M 227.41 84.02 C 229.05 86.98 228.86 90.64 227.51 93.67 C 226.86 90.49 226.79 87.20 227.41 84.02 Z" />
<path fill="#ffe300" opacity="1.00" d=" M 195.31 93.07 C 198.64 92.98 201.98 92.99 205.32 93.04 C 205.58 97.35 205.55 101.67 205.39 105.98 C 202.02 106.01 198.66 106.02 195.31 105.93 C 195.23 101.64 195.23 97.35 195.31 93.07 Z" />
<path fill="#ffe300" opacity="1.00" d=" M 239.27 98.27 C 242.16 98.25 245.06 98.25 247.96 98.29 C 247.99 100.84 247.99 103.39 247.97 105.95 C 245.06 106.00 242.16 106.01 239.25 105.98 C 239.25 103.41 239.25 100.84 239.27 98.27 Z" />
<path fill="#ffe300" opacity="1.00" d=" M 218.19 102.27 C 221.66 102.25 225.12 102.25 228.59 102.27 C 228.54 103.41 228.50 104.56 228.46 105.70 C 225.09 105.76 221.71 105.76 218.34 105.69 C 218.29 104.55 218.24 103.41 218.19 102.27 Z" />
</g>
<g id="#282828ff">
<path fill="#282828" opacity="1.00" d=" M 14.68 82.37 C 13.54 78.11 14.20 73.63 16.10 69.70 C 19.12 72.49 23.27 71.70 27.00 71.77 C 33.10 71.76 39.20 71.85 45.28 71.30 C 45.01 75.86 46.30 81.21 43.02 84.98 C 38.59 90.03 33.88 94.83 29.50 99.93 C 34.51 100.05 39.53 100.06 44.54 99.85 C 43.62 94.31 42.81 88.45 45.03 83.10 C 47.76 75.82 55.27 70.83 62.98 70.75 C 65.68 70.77 68.28 71.61 70.96 71.85 C 72.61 71.69 73.92 70.46 75.40 69.82 C 74.84 73.58 74.51 77.84 71.68 80.69 C 68.01 84.17 61.98 80.77 58.41 84.41 C 53.99 88.18 54.74 96.46 60.37 98.65 C 63.74 100.38 67.40 99.03 70.57 97.57 C 70.79 100.87 73.22 103.14 74.65 105.91 C 70.53 111.75 62.17 112.44 55.94 110.00 C 52.19 108.64 49.31 105.79 46.42 103.17 C 46.17 105.26 46.06 107.40 45.45 109.44 C 43.75 111.75 40.52 111.12 38.03 111.28 C 31.07 111.07 24.07 111.59 17.13 111.02 C 13.21 110.45 14.31 105.80 14.21 103.00 C 14.03 100.37 15.74 98.23 17.44 96.44 C 21.80 91.85 26.16 87.27 30.38 82.56 C 25.15 82.45 19.91 82.59 14.68 82.37 Z" />
<path fill="#282828" opacity="1.00" d=" M 73.91 79.96 C 78.09 73.06 86.62 68.96 94.60 70.55 C 98.34 71.26 101.73 74.92 105.53 72.30 C 104.98 74.70 104.33 77.08 103.79 79.49 C 105.87 77.04 107.66 74.13 110.64 72.65 C 117.47 69.08 126.35 69.85 132.46 74.57 C 134.88 76.48 136.37 79.26 138.14 81.73 C 138.78 77.88 138.53 72.31 143.13 70.89 C 147.59 70.13 152.13 72.20 156.48 70.27 C 154.73 73.21 151.44 75.03 150.11 78.18 C 148.97 85.08 149.68 92.12 149.53 99.07 C 153.42 99.22 157.32 99.61 161.22 99.61 C 163.67 99.58 165.54 97.74 167.55 96.59 C 166.44 100.54 166.83 104.71 165.94 108.68 C 164.36 112.05 160.02 111.12 157.02 111.28 C 150.87 110.98 144.62 111.95 138.57 110.54 C 138.21 106.89 138.26 103.23 138.09 99.57 C 135.70 103.24 133.24 107.24 129.08 109.12 C 120.43 113.55 108.71 110.65 103.70 102.15 C 103.37 104.07 103.51 106.44 101.68 107.67 C 94.87 112.89 84.68 111.94 78.01 106.94 C 70.23 100.63 68.55 88.32 73.91 79.96 M 87.44 83.38 C 82.10 85.81 81.26 94.40 86.39 97.52 C 91.37 101.40 99.87 97.50 99.52 91.01 C 99.98 84.95 92.69 80.49 87.44 83.38 M 116.46 83.38 C 110.83 85.97 110.37 95.05 116.00 97.90 C 121.07 101.21 128.85 97.21 128.52 91.00 C 129.02 84.95 121.67 80.49 116.46 83.38 Z" />
<path fill="#282828" opacity="1.00" d=" M 178.01 72.04 C 179.61 71.68 181.22 71.32 182.83 70.96 C 183.78 72.92 184.65 74.91 185.39 76.97 C 187.19 77.00 188.99 77.02 190.79 77.06 C 190.77 78.70 190.76 80.34 190.77 81.98 C 184.76 82.02 178.75 81.99 172.74 82.01 C 172.76 80.26 172.76 78.52 172.76 76.78 C 175.26 76.76 177.76 76.74 180.26 76.71 C 179.52 75.15 178.76 73.59 178.01 72.04 Z" />
<path fill="#282828" opacity="1.00" d=" M 196.77 70.76 C 198.50 70.76 200.24 70.76 201.98 70.75 C 202.00 72.78 202.02 74.81 202.06 76.84 C 205.06 76.80 208.07 76.71 211.06 76.39 C 210.82 78.09 210.58 79.80 210.32 81.51 C 207.47 81.71 204.61 81.79 201.76 81.83 C 201.75 83.78 201.75 85.72 201.78 87.67 C 204.51 88.03 207.95 86.97 210.09 89.16 C 210.37 95.70 210.41 102.29 210.08 108.82 C 209.81 110.85 207.53 110.59 206.02 110.74 C 200.81 110.79 195.59 110.91 190.40 110.44 C 189.16 103.17 190.15 95.74 190.26 88.42 C 192.43 88.15 194.61 87.98 196.79 87.84 C 196.72 82.15 196.74 76.45 196.77 70.76 M 195.31 93.07 C 195.23 97.35 195.23 101.64 195.31 105.93 C 198.66 106.02 202.02 106.01 205.39 105.98 C 205.55 101.67 205.58 97.35 205.32 93.04 C 201.98 92.99 198.64 92.98 195.31 93.07 Z" />
<path fill="#282828" opacity="1.00" d=" M 241.46 70.81 C 243.03 70.79 244.61 70.76 246.18 70.72 C 246.23 72.94 246.26 75.17 246.30 77.39 C 248.53 77.25 250.76 77.03 252.96 76.63 C 252.73 78.29 252.50 79.96 252.26 81.62 C 250.23 81.86 248.20 82.03 246.17 82.19 C 246.21 83.71 246.24 85.22 246.26 86.74 C 248.58 86.74 250.90 86.75 253.22 86.75 C 253.24 88.33 253.25 89.91 253.25 91.49 C 246.40 91.51 239.55 91.50 232.70 91.50 C 232.67 89.86 232.65 88.22 232.63 86.58 C 235.41 86.63 238.20 86.72 240.99 86.80 C 240.98 85.20 240.98 83.59 241.00 81.99 C 239.76 82.00 238.53 82.01 237.30 82.01 C 236.82 83.47 236.35 84.92 235.88 86.37 C 234.69 85.99 233.51 85.61 232.32 85.23 C 232.52 93.56 232.67 101.91 232.32 110.24 C 226.53 110.63 220.70 110.68 214.92 110.20 C 214.62 100.47 214.70 90.73 214.86 81.01 C 216.15 80.58 217.46 80.18 218.76 79.77 C 218.81 79.13 218.91 77.85 218.96 77.22 C 217.53 77.09 216.11 76.96 214.69 76.84 C 214.73 75.38 214.78 73.93 214.84 72.47 C 220.94 72.51 227.03 72.52 233.13 72.47 C 233.21 73.91 233.29 75.36 233.37 76.81 C 231.62 76.97 229.87 77.16 228.12 77.37 C 228.96 79.61 231.06 80.74 232.95 81.96 C 233.97 78.74 234.73 75.46 235.46 72.17 C 236.92 72.47 238.38 72.78 239.84 73.09 C 239.55 74.46 239.27 75.84 238.99 77.21 C 239.62 77.22 240.89 77.23 241.52 77.24 C 241.50 75.09 241.48 72.95 241.46 70.81 M 222.41 77.18 C 222.42 77.85 222.44 79.18 222.45 79.85 C 223.02 79.96 224.16 80.19 224.72 80.30 C 224.73 79.46 224.75 77.77 224.76 76.93 C 224.17 76.99 223.00 77.12 222.41 77.18 M 218.79 93.55 C 219.94 90.58 219.89 87.35 219.45 84.24 C 218.00 87.15 218.47 90.45 218.79 93.55 M 223.07 84.77 C 223.16 88.93 222.94 93.20 221.04 97.00 C 219.93 96.78 218.82 96.57 217.71 96.36 C 217.97 96.91 218.51 98.02 218.78 98.57 C 221.97 98.46 225.19 98.75 228.35 98.18 C 229.82 95.98 225.33 95.98 224.08 94.82 C 223.99 91.47 223.99 88.13 224.00 84.79 L 223.07 84.77 M 227.41 84.02 C 226.79 87.20 226.86 90.49 227.51 93.67 C 228.86 90.64 229.05 86.98 227.41 84.02 M 218.19 102.27 C 218.24 103.41 218.29 104.55 218.34 105.69 C 221.71 105.76 225.09 105.76 228.46 105.70 C 228.50 104.56 228.54 103.41 228.59 102.27 C 225.12 102.25 221.66 102.25 218.19 102.27 Z" />
<path fill="#282828" opacity="1.00" d=" M 183.86 83.90 C 185.47 84.20 187.08 84.51 188.69 84.82 C 187.81 90.52 186.93 96.22 185.88 101.90 C 186.73 101.95 188.42 102.04 189.27 102.09 C 189.31 103.65 189.37 105.20 189.41 106.76 C 184.15 108.06 179.02 109.84 173.77 111.23 C 173.39 109.49 172.97 107.77 172.70 106.01 C 175.56 105.05 178.52 104.40 181.46 103.72 C 182.55 97.15 183.37 90.54 183.86 83.90 Z" />
<path fill="#282828" opacity="1.00" d=" M 174.27 85.17 C 175.32 84.99 177.43 84.65 178.48 84.48 C 179.47 90.05 180.01 95.68 180.54 101.31 C 179.06 101.65 177.58 102.00 176.11 102.36 C 175.68 96.61 174.90 90.89 174.27 85.17 Z" />
<path fill="#282828" opacity="1.00" d=" M 234.80 93.91 C 240.59 93.66 246.40 93.66 252.19 93.91 C 252.67 99.31 252.66 104.75 252.19 110.15 C 246.37 110.36 240.55 110.31 234.73 110.09 C 234.38 104.71 234.32 99.29 234.80 93.91 M 239.27 98.27 C 239.25 100.84 239.25 103.41 239.25 105.98 C 242.16 106.01 245.06 106.00 247.97 105.95 C 247.99 103.39 247.99 100.84 247.96 98.29 C 245.06 98.25 242.16 98.25 239.27 98.27 Z" />
</g>
</svg>
