<?xml version="1.0" encoding="UTF-8"?>
<svg id="_图层_2" data-name="图层 2" xmlns="http://www.w3.org/2000/svg" viewBox="0 0 270 170">
  <defs>
    <style>
      .cls-1 {
        fill: #e44f51;
      }

      .cls-1, .cls-2 {
        opacity: .5;
      }

      .cls-3 {
        fill: #fff;
      }

      .cls-2 {
        fill: #e45252;
      }
    </style>
  </defs>
  <g id="_图层_1-2" data-name="图层 1">
    <rect class="cls-3" width="270" height="170"/>
    <g>
      <g>
        <path d="M195.58,73.47l-.58,9.58,6.4-.17.56,3.94c.35-3.34,1.17-6.67,1.45-10.02.16-1.93.24-4.41.31-6.37.24-7.1-.21-14.25,0-21.35l20.04-3.08c.14.75,1.43,3.45,1.12,3.92-1.24.67-2.68-.37-2.89,1.32-.46,3.74.09,10.81.29,14.83.52,10.18,1.57,21.78,4.87,31.42.47,1.38.97,2.82,1.77,4.06.13.34.11.64-.09.94-.17.27-3.02,2.12-3.35,1.9-.43-.28-2.74-6.97-3.04-8-4.17-14.25-3.7-29.36-4.48-44.02-.02-.4.16-.63.27-.97l-3.48.29v46.45l2.64-1.05-1.48-7.07c.79.27,2.35-.96,2.76-.3l3.31,13.34-3.46.89c.03-.62-.15-3.35-.75-3.47-.71-.15-7.93,2.89-8.25,2.6.06-.76-.72-2.77-.56-3.3.22-.76,1.72-.38,1.72-.47v-47.03l-2.9.29c-.14,5.55.19,11.15.01,16.7-.31,9.52-1.3,19.51-5.03,28.35-.37.89-3.38,6.96-3.72,7.16-.37.22-3.4-1.97-3.61-2.28-.14-.22-.2-.41-.09-.66,3-4.47,5.27-9.44,6.34-14.73h-6.97c-.76,6.6-2.91,12.7-7.7,17.42-.33.09-3.49-2.86-3.3-3.57.11-.44,2.2-2.2,2.7-2.84,2.57-3.26,3.32-7.07,4.23-11.01h-6.97c.15-.87-.33-3.78.28-4.23.28-.21,5.99.49,6.98.17l.29-9.58h-8.13v-4.06h4.93l-2.34-12.31c.02-.17,2.96-1.03,3.36-1.05.65-.03.35.03.43.44.78,3.94,1.74,7.85,2.06,11.87l-3.21,1.05h4.79l3.22-13.65,3.62,1.04c-.38,4.32-1.74,8.47-2.92,12.61h5.08c.92,0-.15,3.38.15,4.06h-6.68Z"/>
        <path d="M139.56,44.16v7.84h16.26v-7.84h4.64v7.84h15.97v4.21s-.4.44-.44.44h-15.53v6.68h-4.64v-6.68h-16.26v6.24c0,.29-.97.28-.87.72.32.19,1.94.81,2.01.9.55.76-3.81,6.92-4.06,8.24l.03,31.38c.06.3-.21,1-.45,1h-4.21v-27.29l-10.9,10.73-2.89-3.19c-.16-.2-.17-.41-.11-.65.1-.4,5.12-4.87,5.92-5.72,4.51-4.74,8.7-9.9,12.04-15.54-.09-.32-1.16-.06-1.16-.14v-6.68h-15.97v-4.64h15.97v-7.84h4.64Z"/>
        <path d="M155.52,63.02v16.26c5.43-2.88,10.77-6.15,15.45-10.16.55-.47.39-1.25,1.25-.59.32.24,2.18,3.25,2.12,3.6-.27,1.46-15.97,11.55-18.78,11.84.28,3.83-.52,8.55-.01,12.27.21,1.53,1.23,3.01,2.8,3.3,1.96.36,7.69.26,9.81.08,5.34-.46,3.7-4.74,4.2-8.87.04-.33-.11-.58.43-.42.41.12,3.2,1.63,3.3,1.93.36,5.6.39,10.89-6.47,11.43-3,.24-12.3.35-14.78-.63-1.36-.54-2.7-1.74-3.31-3.08-.26-.57-.94-2.92-.94-3.42v-11.18c-1.25.06-4.63,2.01-5.62,1.72-.69-.2-.99-3.13-1.32-3.87.13-.49,5.98-2.05,6.9-2.53l.03-16.67c-.06-.3.21-1,.45-1h4.5Z"/>
        <path d="M233.46,69.7l3.52-13.96,3.61,1.06c-.47,4.38-1.81,8.72-3.21,12.9h6.39v4.35h-8.13v9.87h7.84c-.43,1.32-.28,2.7-.29,4.06h-7.55v16.55h-4.35v-16.55h-6.1c.15-.84-.32-3.81.27-4.23s4.75.55,5.83.16v-9.87h-7.55v-4.35h9.72Z"/>
        <path d="M231.58,51.41c.49-.49-1.75-5.4-1.74-6.38.83.06,3.91-1.42,4.39-.7.83,1.24,1.15,5.48,1.71,7.09h6.82c.96,0-.02,3.42.15,4.06h-19.45c.09-.63-.29-4.06.44-4.06h7.69Z"/>
        <path d="M202.55,55.48h-18.87c.09-.63-.29-4.06.44-4.06h7.69l-1.77-6.49c.48-.27,3.43-1.37,3.62-1.32.96.22,1.96,6.86,2.64,7.82h6.1c.88,0,.2,3.43.15,4.06Z"/>
        <path d="M235.06,126.31v-8.85c0-.61-1.01-2.09-1.67-2.39-.7-.31-4.13-.74-4.13.07v10.74c0,.51-1.62.48-2.03.44v-12.63c0-.88,4.93-.81,5.66-.73,1.06.11,2.57,1.13,2.85,1.11.53-.03,1.55-.96,2.39-1.09,1.21-.19,3.99-.15,5.04.44.91.51,2.35,2.76,2.35,3.75v8.71c0,.49-2.07.78-2.3-.04-.06-.21.31-3.46.28-4.33-.04-1.03-.18-3.75-.36-4.57-.68-3.03-6-2.41-6.27-1.2-.1.46.51,2.64.54,3.45.05,1.19.2,5.86-.05,6.65s-1.61.41-2.28.48Z"/>
        <path d="M159.3,108.02v5.23c3.34-.58,6.91-.93,8.4,2.78,1.37,3.41.51,9.75-3.89,10.29-.91.11-6.54.1-6.54-1.02v-17.27h2.03ZM159.3,124.27c3.11.79,6.32.47,6.69-3.32.5-5.06-1.63-7.35-6.69-5.67v9Z"/>
        <path d="M120.11,113.24c2.76-.55,6.79-.92,7.98,2.32.54,1.45.72,8.45.43,10.02-.2,1.06-1.19.69-2.03.73-.09-2.07.12-4.17,0-6.24-.05-.84-.29-3.47-.61-4.03-.95-1.67-4.44-1.76-5.74-.58l-.08,10.37c-.24.73-1.37.44-1.99.48v-18.29c.41-.05,2.03-.08,2.03.44v4.79Z"/>
        <path d="M178.45,117.89c.19-5.25-4.95-2.23-6.78-2.59-.51-.1-.75-1.48.32-1.98,1.91-.88,6.82-.78,8.03,1.4.54.97.75,10,.32,10.72-.71,1.17-6.66,1.05-7.91.64-2.62-.85-3.16-4.63-1.53-6.6.46-.56,2.11-1.59,2.76-1.59h4.79ZM178.45,124.27v-4.21c0-.68-6.21-1.12-6.38,2.05s4.36,2.58,6.38,2.15Z"/>
        <path d="M152.33,117.89c.35-5.28-4.67-2.29-6.8-2.59-.18-.03-.45-1.12-.41-1.3.25-1.15,8.74-2.6,9.25,2,.12,1.09.17,8.6-.05,9.25-.48,1.39-6.3,1.22-7.52.94-4.72-1.09-2.95-8.29.75-8.29h4.79ZM152.33,119.92c-1.99-.52-6.48-.52-6.3,2.42.19,3.13,4.2,2.26,6.3,1.93v-4.35Z"/>
        <path d="M223.06,114.21c2.53,2.53,2.32,9.26-.79,11.35-1.6,1.07-4.83,1.12-6.46.12-3.5-2.16-3.29-9.71.12-11.98,1.86-1.24,5.52-1.11,7.14.51ZM218.14,114.76c-3.26.75-3.47,8.15-.89,9.48,6.46,3.34,7.57-11.02.89-9.48Z"/>
        <path d="M183.39,113.97c.39-1.37,5.87-1.2,7.05-.95,1.3.27,3.4,2.24,3.4,3.56v9.72c-.62-.04-1.75.25-1.99-.48-.48-1.47.18-5.84-.04-7.8-.39-3.49-3.51-3.79-6.39-3.05v11.32h-2.03v-12.34Z"/>
        <path d="M139.56,124.27v-10.89c0-.51,1.62-.48,2.03-.44v12.34c0,.19-.93.94-1.31,1.01-.89.17-4.82.12-5.73-.06-1.17-.24-3.11-2.12-3.11-3.27v-10.01c.62.04,1.75-.25,1.99.48.52,1.59-.21,6.29.03,8.38.38,3.2,3.64,3.08,6.1,2.46Z"/>
        <path d="M205.95,113.02c1.38-.28,6.53-.42,5.45,1.96-.46,1.01-2.61-.36-3.77-.31-4.68.21-5.5,11,1.43,9.87.7-.11,1.72-1.03,2.2-.73.29.18.66,1.07.55,1.43-.37,1.29-5.58,1.25-6.66.93-4.55-1.34-4.26-12.12.8-13.15Z"/>
        <path d="M228.93,56.09c.53.34,2.25,10.82,2.61,12.28-.15.6-2.86,1.05-3.54,1.06l-2.49-12.32c.16-.53,2.99-1.3,3.43-1.02Z"/>
        <path d="M199.57,125.95c-.77.77-3.03.65-3.12-.97-.18-3.2,5.29-1.19,3.12.97Z"/>
      </g>
      <g>
        <path class="cls-2" d="M104.15,45.73h0s-21.79-1.78-33.1,3.44c-11.31,5.22-14.7,8.29-22.92,19.83-7.55,10.59-6.24,34.49-5.97,38.36.02.34.04.53.04.53h0s0,0,0,0h0s.19.02.53.04c3.87.25,27.77,1.48,38.34-6.1,11.52-8.26,14.57-11.67,19.75-22.99,5.18-11.32,3.33-33.1,3.33-33.11Z"/>
        <path class="cls-1" d="M104.1,124.81h0s2.27-27.79-4.38-42.2c-6.65-14.42-10.57-18.74-25.29-29.23-13.51-9.62-43.98-7.95-48.92-7.61-.44.03-.68.05-.68.05h0s0,0,0,0h0s-.02.24-.05.68c-.32,4.93-1.89,35.41,7.78,48.89,10.54,14.69,14.88,18.58,29.32,25.19,14.44,6.6,42.2,4.24,42.22,4.24Z"/>
      </g>
    </g>
  </g>
</svg>