<?xml version="1.0" encoding="UTF-8"?>
<svg id="_图层_2" data-name="图层 2" xmlns="http://www.w3.org/2000/svg" viewBox="0 0 270 170">
  <defs>
    <style>
      .cls-1 {
        fill: #fff;
      }

      .cls-2 {
        fill: none;
      }

      .cls-3 {
        fill: #99c25d;
      }

      .cls-4 {
        fill: #7ab92e;
      }

      .cls-5 {
        fill: #b8dc7a;
      }

      .cls-6 {
        fill: #029942;
      }
    </style>
  </defs>
  <g id="_图层_1-2" data-name="图层 1">
    <g>
      <rect class="cls-1" width="270" height="170"/>
      <g>
        <path d="M175.35,51v13.14c0,.45-.56,2.22-1.19,2.28l-12.49.22v3.26l15.64.22c-.43,1.18-.37,2.65-.98,3.69h-14.66v5.1s-.3.33-.33.33h-4.45v-5.1s-.3-.33-.33-.33h-15.2c-.05,0-.17.23-.32.22v-4.13s15.63,0,15.63,0l.22-3.26h-14.55s0-15.53,0-15.53l33.01-.11ZM170.57,54.26h-23.67v2.82h23.67v-2.82ZM170.57,60.34h-23.67c.1.63-.23,2.64.2,2.95,7.79.09,15.68.31,23.47-.12v-2.82Z"/>
        <path d="M185.23,133.47l-.11-21.5c-.09-.09-2.06.06-2.5,0-.3-.04-.38.12-.32-.32.32-2.44,1.88-5.43,2.59-7.84.77-2.59,1.17-5.31,1.85-7.92.29-.4,3.79-.45,4.46-.42l-.65,5h17.37v4.13h-7.38v4.99h6.62c.5,0,.1,1.1.1,1.4-.02.91.04,1.82.01,2.72h-6.73v5.43h6.73v3.47h-6.73v4.89s.3.33.33.33h7.71c-.4.98.19,3.91-1.19,3.91h-17.48c-.09,0,.09,1.74,0,1.74h-4.67ZM195.76,104.59h-5.1c-.12,0-.76-.16-.76.33v4.67h5.86v-4.99ZM195.76,119.14v-5.1s-.3-.33-.33-.33h-5.54v5.43h5.86ZM195.76,122.83c-1.95.12-3.98-.19-5.86,0v4.78c.21-.07.47.22.54.22h4.56c.12,0,.48-.34.76-.22v-4.78Z"/>
        <path d="M249.19,111.1c.1.11,2.82-.22,2.82.54v21.17l-12.38.22c.25-1.25.21-2.84.76-3.91h7.06v-13.46h-16.29l1.29-14.24c.32-.22,3.51,0,4,.16.17.05.29.15.34.32l-.64,9.2h8.25l.22-11.51h-14.12v-3.91l18.68.11v15.31Z"/>
        <path d="M228.12,95.69v3.8s-.3.33-.33.33h-3.69c-.84,1.68-1.27,3.65-2.02,5.36-.49,1.13-1.86,3-2.12,3.97-.06.24.16.44.23.44h7.93v20.09c0,.09-.49,1.55-.55,1.62-.19.23-.63.33-.92.39-.84.16-2.68.24-3.63.28-2.49.11-5.01-.1-7.5,0v-16.18c-2.35-1.08-3.29.36-2.55-2.99.59-2.67,3.36-6.17,4.54-8.92.57-1.31.93-2.73,1.48-4.06h-5.1s-.33-.3-.33-.33v-3.8h14.55ZM223.89,114.14c-.91-.28-3.16.21-4.23,0v13.46l4.32-.24c.37-.32.25-5.86.25-6.83,0-.57-.24-1.11-.24-1.73,0-.73.71-4.42-.09-4.67Z"/>
        <path d="M235.47,40.76v22.48c0,1.55,2.87.24,3.38.96.23.32.11,3.7-.14,3.91-.41-.05-3.24-.31-3.24.34v10.75h-4.78v-10.97c-.15-.26-.87-.33-1.19-.33h-11.18l.45-3.67h11.38c.18.01.54-.24.54-.35v-22.8s.3-.33.33-.33h4.45Z"/>
        <path d="M210.28,54.44h6.84c.48,0,.11.51.11.54v3.37h-6.95v20.52s-.3.33-.33.33h-4.02v-20.52s-.3-.33-.33-.33h-6.52c-.41,0-.1-1.78-.1-2.29s-.35-1.31-.01-1.52l6.41-.1c.18,0,.54-.2.54-.33v-12.81s.3-.33.33-.33h3.69s.33.3.33.33v13.14Z"/>
        <path d="M179.69,95.47l-5.43,13.14v.54c.87-.07,1.58.53,2.28-.23s2.21-5.85,2.83-5.85h3.91c.64,0-.14,1.55-.29,1.88-2.15,5.06-4.59,10.03-6.96,14.98-.11.17.24.51.3.51h5.97v3.37c0,.51-2.41.3-2.93.33-1.22.06-1.9,0-3.03-.01-1.92-.01-3.85.03-5.77,0-.02-4.05,2.72-7.6,4.13-11.29h-5.32c-.17,0-.52-.73-.53-.99-.12-2.06,2.67-7.45,3.57-9.66s1.74-4.47,2.5-6.73h4.78Z"/>
        <path d="M150.81,41.01c.1.1-.1,1.85,0,1.95.04.04,1.04.14,1.23.14,4.75.04,9.54-.31,14.3-.14,1.07-.06.23-1.6.32-1.73.15-.2,4.61-.39,4.78-.22.08.08-.21,1.96.32,1.96h6.19v4.34h-6.3c-.07.51.2,1.8-.2,2.08-.26.18-4.06.17-4.36-.01-.8-.48.04-2.07-.54-2.07h-15.74c-.11,0,.11,2.17,0,2.17h-4.78c-.11,0,.11-2.17,0-2.17h-5.86v-4.02c0-.1.29-.31.45-.24l5.06.11c.68-.2.08-2.15.68-2.15.63,0,4.29-.16,4.45,0Z"/>
        <path d="M165.14,126.96c-.51,1.28-.52,2.7-1.01,3.92-10.69.23-21.43-.33-32.12-.02-.75.02-1.4.26-2.16.24-1.69-.05-.99-.29-.97-1.42.02-.91-.04-1.82-.01-2.72h36.27Z"/>
        <polygon points="162.54 98.94 162.54 103.07 131.05 103.07 131.05 99.05 162.54 98.94"/>
        <path d="M245.5,120.22v3.8s-.3.33-.33.33h-14.55c-.7,0-.16-2.85-.11-3.37.03-.37-.4-.7.12-.97l14.87.21Z"/>
        <path d="M216.15,59.87v16.72h-3.69v-16.4s.3-.33.33-.33h3.37Z"/>
        <path d="M203.77,59.87v16.72h-3.37c-.24,0-.31-.53-.34-.75-.43-3.7-.16-10.46,0-14.36.01-.29.02-1.62.33-1.62h3.37Z"/>
        <path d="M182.08,126.96c-.2,1.13-.04,2.75-.22,3.8-.04.23-.09.45-.35.51-3.34-.26-7.36.43-10.63.05-.22-.03-.75-.1-.75-.34v-3.69s.3-.33.33-.33h11.62Z"/>
        <rect x="212.45" y="42.5" width="3.69" height="10.42"/>
        <path d="M200.29,52.92l-.19-10.07c.26-.79,2.94,0,3.66-.57l.18,10.15c.08.17-.21.49-.28.49h-3.37Z"/>
        <path d="M228.42,45.32c.17.02.47.25.72.26.27,1.27.33,2.53-.17,3.77-1.25-.16-2.56-.18-3.82-.13-.61.02-5.09.65-5.09-.1v-3.8c2.6.26,5.84-.35,8.36,0Z"/>
        <rect x="220.05" y="54.66" width="9.12" height="3.91"/>
        <path d="M201.19,94.82v4.13h-5.1c-.66,0,.15-3.67-.11-4.13h5.21Z"/>
      </g>
      <g>
        <path class="cls-2" d="M89.26,70.45c4.96-.34,10.14-1.42,15.14-1.75.86-.27,1.61-.5,2.33-1.07.03-2.58.23-5.14.22-7.72,0-.41-.18-.79-.19-1.2-.03-1.66.21-3.84.01-5.41-.04-.35-.19-.63-.42-.89-.45-.49-1.11-.71-1.76-.77-4.11-.36-8.73.28-12.9,0-1.22.17-1.87,1.02-1.98,2.2l-1.94,16.61c.49-.02.99.03,1.48,0Z"/>
        <path class="cls-2" d="M36.16,107.03c-1.75.54-1.89,1.57-2.01,3.21-.2,2.82-.23,7.48,0,10.28.17,2.12.76,3.41,3.05,3.57,3.02.22,7.79.21,10.81,0,.66-.05,2.59-.28,2.99-.75.43-.5.97-5.74,1.1-6.83.38-3.23.74-6.52,1.04-9.76.03-.29.19-1.45.01-1.57-5.66.53-11.36,1-16.97,1.85Z"/>
        <path class="cls-2" d="M46.77,51.65c-3.22-.19-6.87-.35-10.09,0-.93.1-2.16.87-2.34,1.84-.12.65-.16,2.33-.19,3.12-.11,2.61-.21,6.33.01,8.89.23,2.69,1.16,2.98,3.59,3.37,5.03.82,10.35.83,15.39,1.77-.47-5.89-1.07-11.79-1.96-17.63-.57-1.72-3.03-1.26-4.4-1.35Z"/>
        <path class="cls-5" d="M120.36,99.09c-.15-2.16-2.16-4.97-4.19-5.74-2.74-1.04-7.06-1.28-10.01-1.66-10.45-1.34-21.2-2.56-31.7-3.48-.36-.03-1.93.07-2,0,0,0,0,0,0-.02-.29-.01-.58-.08-.87-.12-.2-.02-.4-.04-.6-.07-.01,0-.02,0-.04,0,0,.01-.02.03-.03.03,0,.26,0,.52-.03.78,0,.02,0,.04,0,.06.05.76,0,1.79.02,2.02.5,5.75,1.29,11.5,1.91,17.24.8,7.36,1.24,15.74,2.66,22.94,1.5,7.61,7.67,6.26,13.62,6.22,7.76-.05,16.05.62,23.7.19,4.09-.23,7.11-2.71,7.57-6.88-.54-10.31.69-21.31,0-31.53Z"/>
        <path class="cls-3" d="M70.29,88.11c-.19,0-.37,0-.56.01-.31.01-.62.08-.93.08,0,0,0,0,0,0-.08.08-1.81-.03-2.18,0-1.43.09-2.92.22-4.35.36-10.17.96-21.06,2.06-31.15,3.5-4.51.65-9.14,1.11-10.38,6.33l.08,33.88c1.56,3.67,4.28,5.11,8.18,5.23,3.86.12,8.08-.22,12.03-.19,5.73.04,11.68.56,17.41.19,3.84-.25,6.46-2.42,7.18-6.23,1.21-6.4,1.56-13.49,2.31-19.98.89-7.72,1.78-15.45,2.69-23.17,0-.01,0-.03,0-.04-.11.01-.22.03-.33.03ZM53.13,106.75c-.3,3.24-.66,6.52-1.04,9.76-.13,1.09-.66,6.33-1.1,6.83-.4.47-2.33.71-2.99.75-3.03.21-7.79.22-10.81,0-2.29-.16-2.88-1.45-3.05-3.57-.22-2.8-.2-7.46,0-10.28.12-1.65.26-2.67,2.01-3.21,5.62-.84,11.31-1.32,16.97-1.85.18.12.02,1.28-.01,1.57Z"/>
        <path class="cls-4" d="M120.34,50.34c-.07-2.74.57-6.16-.89-8.51-1.56-2.51-3.56-3.57-6.5-3.77-9.89.45-20.31-.61-30.13-.01-2.89.17-6.11,1.71-6.96,4.7-.7,2.45-1.1,6.68-1.45,9.35-.59,4.5-.9,9.05-1.42,13.56-.77,6.77-1.92,13.55-2.08,20.36,0,.09,0,.18,0,.27,0,0,0,0-.01,0,0,.04.01.08.01.12.04.38.03.77.02,1.15.63-.26,1.13-.12,1.77-.11.9-.14,4.14-.23,4.73-.29,11.81-1.15,24.53-2.3,36.2-4.2,4.52-.73,6.63-3.37,6.9-7.9.47-7.87,0-16.81-.18-24.72ZM106.73,67.62c-.71.57-1.46.8-2.33,1.07-5,.33-10.18,1.41-15.14,1.75-.49.03-.99-.01-1.48,0l1.94-16.61c.11-1.18.75-2.03,1.98-2.2,4.17.28,8.79-.36,12.9,0,.65.06,1.31.27,1.76.77.23.26.38.54.42.89.19,1.57-.04,3.75-.01,5.41,0,.41.19.79.19,1.2.01,2.58-.19,5.14-.22,7.72Z"/>
        <path class="cls-6" d="M70.6,86.39c0-.06-.01-.12-.02-.17-.27-.36-.34-1.46-.38-1.75-1.62-12.88-2.3-25.99-4.38-38.81-.75-4.62-2.54-7.24-7.54-7.61-9.9-.73-20.67.57-30.66,0-3.45.27-6.81,3.18-7.05,6.7.45,10.08-.57,20.64,0,30.66.24,4.16,2.58,6.89,6.73,7.55,5.65.88,11.69,1.45,17.39,2.11,7.92.91,15.87,1.61,23.79,2.49.02,0,.03-.01.05-.01.03,0,.05,0,.08,0,0,0,0,0,0,0,.08,0,.17-.01.25-.01.2-.02.4-.03.61-.02.1,0,.21.02.31.03.02,0,.04,0,.05,0,.06,0,.11,0,.17,0,.02-.01.05-.02.08-.01.18.03.36.04.54.06,0-.4.02-.8-.03-1.2ZM37.74,68.86c-2.44-.4-3.36-.69-3.59-3.37-.22-2.56-.12-6.27-.01-8.89.03-.79.07-2.47.19-3.12.18-.97,1.41-1.74,2.34-1.84,3.22-.34,6.87-.19,10.09,0,1.37.08,3.83-.37,4.4,1.35.89,5.84,1.49,11.74,1.96,17.63-5.04-.94-10.35-.95-15.39-1.77Z"/>
      </g>
    </g>
  </g>
</svg>