<?xml version="1.0" encoding="UTF-8"?>
<svg id="_图层_2" data-name="图层 2" xmlns="http://www.w3.org/2000/svg" viewBox="0 0 270 170">
  <defs>
    <style>
      .cls-1 {
        fill: #12e602;
      }

      .cls-2 {
        fill: #fff;
      }

      .cls-3 {
        fill: #fe0301;
      }
    </style>
  </defs>
  <g id="_图层_1-2" data-name="图层 1">
    <rect class="cls-2" width="270" height="170"/>
    <g>
      <path d="M159.78,83.77h53.12c.12.01.08.35.07.47-.07.55-.24,1.32-.35,1.88-.07.34-.26.79-.35,1.29-.04.23-.08.47-.12.7-.34-.06-.21.09-.23.35-.06.75-.52,2.27-.47,2.82l-.12.23c-.65,2.77-1.27,5.56-1.88,8.34-.06.26-.07.49-.12.7-.12.57-.52,1.41-.47,2l-.12.23s.02.45-.03.62c-.48,1.91-.95,3.81-1.38,5.72h-21.72l1.3-6.21,6.98-.12,2.74-12.44c-.07-.04-.18.01-.22,0-.15-.06-.17-.11-.4-.13-7.24-.53-15.13.42-22.44,0-.77.07-.66.15-.76.83-.66,4.59-1.88,9.5-2.82,14.09-.09.43-.15.87-.23,1.29-.11.55-.24,1.09-.35,1.64-.15.74-.32,1.48-.47,2.23-.45,2.25-1.34,5.2-1.53,7.4,0,.08,0,.16,0,.23s0,.16,0,.23c.97.09,1.92-.16,2.88-.23,6.98-.51,14.06-1.01,21.07-1.53.02,0,.11,0,.23,0,6.82-.5,13.62-.96,20.43-1.53l.23.12c.15.18,3.79,1.44,4.37,1.68.46.19,1.04.59,1.48.75.16.06.79.07.85.15.26.38-1.13,1.03-1.4,1.24-.58.43-1.16.8-1.77,1.23-.22.16-.37.4-.47.47-.47.33-.95.63-1.38.94-1.52,1.06-3.06,2.08-4.55,3.17h-58.06l.23-1.64h-14.03c-.26,0-.35-1.74.23-1.76l14.21-.11,1.93-9.87-10.97-.12c-.99-.61-.85-1.62.41-1.76.43-.05,1.11-.11,1.53-.12.23,0,.47,0,.7,0,.38,0,1.01.12,1.53.12.35,0,.71,0,1.06,0s.71,0,1.06,0c.2,0,.39,0,.59,0,.67-.01,1.37-.09,2-.12.46-.02,2.34.11,2.52-.12.29-.35.65-3.14.79-3.79.34-1.57.96-3.43,1.03-5.02.37-.14.22-.61.23-.94-.08,0-.16,0-.23,0-2.74-.13-6.06-.19-8.81-.12-.15,0-.33-.02-.47,0l-.12-.12c.03-.25-.02-.56,0-.82s-.13-.82.29-.82h9.8l2-9.98c-1.06,0-2.12,0-3.17,0-.2,0-.39,0-.59,0-2.03,0-4.07.02-6.11,0-.05-.18-.43-.18-.47,0-.38-.07-.75-.07-.89-.58-.05-.2.16-.98.3-1.12.31-.3,1.83-.17,2.35-.18,1.17-.02,2.4-.1,3.52-.12,1.02-.02,2.04.01,3.05,0,.16,0,.31,0,.47,0,.31,0,.63,0,.94,0l.17.12.06-.12c.27,0,.54.02.81-.01.1-.6.28-1.17.48-1.75Z"/>
      <path d="M72.08,59.24c-.46-.07-.74.12-.83-.52-.08-.57.03-1.14.68-1.21l10.02-.08c.66-.21.81-2.51,1.7-2.64h11.79c.05.19-.12.41-.12.58-.37.3-.41.97-.59,1.41-.22.55-.48,1.09-.7,1.64-.16.39-.32.79-.47,1.17-.18.45-.78,1.42-.8,1.84,0,.1.09.27.16.27h15.56l-1.37,6.32-17.53.19-8.81,19.78h2.88s.39-.13.41-.2l2.35-11.31h11.39l-2.35,11.21c.09.58,1.05.19,1.47.17,1.66-.05,3.33.05,5,0,.1.1-.39,2.42-.46,2.77-.18.87-.51,1.96-.79,2.95-.06.22.18.64-.34.74-.91.12-6.98-.2-7.28.11-.13.13-.18.51-.23.71-.41,3.4-1.84,7.23-2.17,10.57-.01.12,0,.24,0,.35-4.89,0-9.79,0-14.68,0v-.59s.08-.26.12-.35c.02-.06-.02-.16,0-.23.05-.25.17-.34.12-.7l.12-.23.59-3.29c-4.54,0-9.08,0-13.62,0h-.23s-.27.03-.39-.02c-.42-.16-.13-1.26-.08-1.63l.23-.12s.36,0,.47,0c.08,0,.16,0,.23,0,3.91.09,8.65.25,12.51,0,.21-.01,1.42-.18,1.46-.24.01-.02-.12-.22-.09-.38.2-1.16.79-2.57.8-3.73l.12-.17-.12-.06h-12.45c-.11-.11.66-1.92.79-2.2.11-.22.23-.14.38-.62.02-.07.2-.15.12-.35-.16,0-.31,0-.47,0-.73-.04-3.7.14-4.08-.14-.03-.02-.32-.58-.33-.62-.03-.21.26-.91.18-1,.11-.06.23-.11.35-.12,1.69-.15,3.56.12,5.27-.01.56-1.52,1.25-2.99,1.9-4.47.19-.42.2-.5.35-.95.03-.08.22-.17.34-.56.02-.07.2-.16.12-.35-.08,0-.16,0-.23,0-2.42-.1-4.94.14-7.34,0-.27-.01-.45-.24-.52-.24-.03-.28-.12-.53-.12-.82,0-.52.12-.7.65-.81h8.39c.24,0,.38-.12.35-.36.01-.01-.13-.15-.07-.35.35-1.22,1.45-2.84,1.97-4.03.41-.94.63-1.99,1.15-2.9l.12-.06-.12-.18c-5.5,0-11,0-16.5,0-1.14,0-2.32.12-3.46.12-.16,0-.31,0-.47,0-3.1,0-6.25-.15-9.34-.25-.24,0-.28.09-.4.13-.06.02-.16-.01-.23,0-.1-.13-.3-.27-.33-.44-.03-.16.07-.3.07-.44,0-.27-.23-.54.07-.78s3.24-.08,3.89-.1c1.18-.04,2.35-.11,3.51-.12,8.06-.08,16.12.04,24.18,0,.12-.73,1.12-1.83,1.13-2.47.11-.05.09-.15.12-.23.04-.12.08-.23.12-.35,0-.02.3-.12,0-.23-1.4-.11-3.03.15-4.41,0-.18-.02-.29-.01-.4-.18l1.42-6.15,6.34-.06c.51-.17.84-1.81,1.17-2.3-1.66,0-3.33,0-4.99,0-1.18,0-2.39.11-3.58,0-.2-.02-.48-.08-.7-.12Z"/>
      <path class="cls-3" d="M149.1,69.45c-.84,0-3.33.16-3.91-.23-.75-.51-.22-1.93.8-1.76h23.84s.79-.26.79-.26c2.75-2.33,5.75-4.43,8.47-6.79.19-.16.41-.36.53-.58-.34-.04-.66.11-.99.12-3.27.14-7.44.18-10.69,0-.39-.02-1.02-.07-1.4-.13-.92-.15-1.05-1.63-.07-1.82l15.21-.05c1.25-.15,2.37-2.08,3.65-2.34h13.84s.71.58.71.58c5.81,6.83,11.89,13.46,17.79,20.2.04.04.08.08.12.12,1.42,1.63,2.83,3.4,4.28,5.05.36.4.93.59.88,1.17-2.33.06-4.65.11-6.99.12-.3,0-.59-.13-.93-.13-3.82.02-7.67.24-11.5.12-1.21-.49-1.86-1.8-2.88-2.58-.04,0-.08,0-.12,0,0-.23-.16-.33-.29-.47-2.21-2.43-4.73-4.75-6.99-7.04-.02-.02-.04-.23-.17-.35-1.09-1.11-2.22-2.27-3.39-3.27l-17.19,13.72-.57.23-20.24-.35c-.04-.21.11-.29.23-.41.96-.94,2.67-2.22,3.76-3.11.04-.04.08-.08.12-.12,3.86-3.13,8-6.06,11.78-9.29.12-.1.25-.11.19-.33-4.66-.01-9.32.01-13.97,0-1.56,0-3.13.01-4.7,0Z"/>
      <path d="M102.14,113.59c.45-.18.66-.78.96-1.21,4.02-5.62,8-11.26,11.98-16.91.97-2.68,1.08-5.77,1.85-8.48.18-.65.24-1.11.39-1.84.19-.93.43-1.86.61-2.79l11.8-.23-1.79,8.61c-.51,2.48-.8,5.81-1.91,8.06-.26.52-.9,1.26-.89,1.81.79,3.19,1.72,6.33,2.62,9.49.99,3.48,2.12,7.09,3.11,10.63.17.61,1.39,4.77,1.21,4.96l-13.78-.02c-.38-.23-.3-.75-.39-1.02-.36-1.1-.84-2.41-1.09-3.55-.05-.23.05-.54-.23-.7-.15-1.2-.95-3.26-1.29-4.58-.02-.09.02-.24,0-.35-.19-.07-.27.08-.35.12-.24.1-.24-.02-.35.35l-.23.35c-.15.14-.17.39-.28.55-1.26,1.78-2.73,3.65-4.05,5.52-.31.44-1.53,2.03-1.67,2.39-.19.07-.25.21-.35.35s-.24.54-.52.6c-3.92,0-7.83-.02-11.75-.02-.25,0-.48.12-.7.12-.14,0-1.07-.08-1.12-.12-.03-.02.02-.26,0-.35.31-.13.34-.49.47-.7.52-.84,1.22-1.68,1.76-2.47.16-.23.22-.44.23-.47,1.15-1.65,2.35-3.19,3.52-4.81.21-.29.38-.7.47-.82.37-.52.78-1.03,1.17-1.53.21-.26.64-.48.59-.94Z"/>
      <path d="M125.73,80.49c-.43,0-.86,0-1.29,0l.03-.38,4.55-13.24c-1.31.03-2.63-.04-3.94,0-.34,0-.67.12-1.05.13-.5,0-1.03-.36-1.42.1-.88,2.35-1.71,4.73-2.52,7.11-1.16,3.38-2.19,6.83-3.41,10.19-.68,1.86-1.5,4.47-2.23,6.7-.11.33-.76,1.51-.79,1.7-.1.63-.36,1.67-.55,2.26-.07.22-.18.7-.47.7h-12.15c.07-.92.56-1.75.85-2.61,3.25-9.48,6.34-19.02,9.53-28.51.97-2.87,1.84-6.01,2.95-8.9.1-.26.32-.95.57-.95h12.27c-.16.6-.4,1.17-.59,1.76,0,.02-.08.11-.12.23-.35,1.08-.61,2.2-1.04,3.25-.05.09.12.27.16.27h19.08l-1.17,3.52-.12.23s0,.18,0,.23c-.31.33-.38.85-.47,1.29-.02.07.01.16,0,.23-.25.14-.45.78-.47,1.06,0,.07,0,.17,0,.23l-.12.23s-.27.96-.35,1.17c-.1.27-.26.42-.35.82-.04.19-.08.39-.12.59-.28.29-.35.79-.47,1.17-.41,1.37-.93,2.73-1.29,4.11-.17.05-.24.18-.23.35,0,0,0,.18,0,.23-.13.13-.18.3-.23.47-.16.51-.31,1.02-.47,1.53-.05.16-.16.36-.23.59-.22.69-.31,1.43-.6,2.1-.46.04-.93,0-1.39.02-1.25.02-2.51,0-3.76,0-1.95,0-3.92.01-5.87,0-.23,0-.47,0-.7,0Z"/>
      <path class="cls-1" d="M75.95,106.08c4.89,0,9.79,0,14.68,0,.39,0,.78,0,1.17,0,.2,0,.39,0,.59,0,.08,0,.16,0,.23,0,.31,0,.63,0,.94,0,2.05,0,4.94-.24,6.87,0,.57.07.44.48.37.97-.23,1.87-.93,3.95-1.29,5.81-.2.24-3.88.16-4.5.15-1.97-.03-3.97,0-5.92,0-.39,0-.87-.12-1.12-.12h-11.27c-.68,0-1.55.12-2.29.12-4.2,0-8.4-.13-12.6-.13-.14-.04-.19-.13-.2-.27-.04-.69.5-1.79.46-2.48s-1.19-.27-1.57-.28c-1.8-.05-6.43.14-7.84-.27-.72-.21-.51-1.51-.12-1.71.57-.29,4.81-.15,5.79-.14.7,0,1.41-.02,2.11,0,.02,0,.13.12.28.12.36,0,1.58.04,1.8-.15.27-.24.13-1.54.79-1.61,4.21,0,8.41,0,12.62,0Z"/>
      <path d="M89.1,113.01c.01.15-.02.32,0,.47,0,.04,0,.08,0,.12-.16.07-.09.24-.12.35-.76,3.02-1.27,5.95-1.98,8.99-.11.49-.42,2.66-.72,2.81l-14.44-.06.35-1.88h-13.09c-.26,0-.27-1.65.02-1.74.13-.04.37,0,.39-.02h.35c2.91,0,5.87.03,8.74,0,.66,0,3.49.11,3.82-.18.3-.27,1.48-6.83,1.76-7.93.07-.27.31-.58.23-.94.74,0,1.61-.12,2.29-.12h11.27c.24,0,.72.12,1.12.12Z"/>
      <path class="cls-3" d="M151.92,59c-.03-.08.01-.24,0-.35.28-.33.51-.7,1-.71,3.33.23,7.06-.3,10.34,0,1.34.12,1.42,1.76,0,1.89-3.28.3-7.01-.24-10.34,0-.46,0-.86-.42-1-.82Z"/>
      <path d="M60.69,99.04v1.64h-11.21c-.29,0-.14-1.3-.18-1.57.03-.1.44-.16.55-.18,2.53-.27,7.64-.22,10.21-.02.23.02.43.07.64.12Z"/>
      <path d="M69.73,57.71c.31,2.26-.81,1.4-2.35,1.76-1.94-.13-3.87-.15-5.82-.11-.56-.24-2.02.22-2.16-.54-.18-.93-.06-1.27.87-1.35,2.14-.19,6.57-.2,8.7,0,.39.04.46.14.76.24Z"/>
      <path d="M145.07,97.66c.23.25.24,1.55-.26,1.61h-9.98c-.47-.09-.78-1.67.23-1.76,2.59-.24,6.14-.04,8.81,0,.35,0,.89-.19,1.2.14Z"/>
      <path d="M61.16,81.31c.09.18.08.87.12.94-.17.3-.21.74-.64.71-2.25-.15-4.72.18-6.94,0-.21-.02-.5-.04-.68-.14-.33-.18-.34-1.62.46-1.73,1.78-.25,4.78-.02,6.69,0,.19,0,.43-.12.57-.09.11.02.27.24.42.32Z"/>
    </g>
  </g>
</svg>